<svg width="5699" height="3155" xmlns="http://www.w3.org/2000/svg" xmlns:xlink="http://www.w3.org/1999/xlink" overflow="hidden"><defs><clipPath id="clip0"><rect x="1263" y="130" width="5699" height="3155"/></clipPath><clipPath id="clip1"><rect x="1263" y="130" width="5696" height="3153"/></clipPath><clipPath id="clip2"><rect x="1506" y="491" width="5406" height="2492"/></clipPath><linearGradient x1="1662.5" y1="2791" x2="1662.5" y2="2980" gradientUnits="userSpaceOnUse" spreadMethod="reflect" id="fill3"><stop offset="0" stop-color="#6083CB"/><stop offset="0.5" stop-color="#3E70CA"/><stop offset="1" stop-color="#2E61BA"/></linearGradient><clipPath id="clip4"><rect x="1506" y="491" width="5406" height="2492"/></clipPath><linearGradient x1="2742.5" y1="2773" x2="2742.5" y2="2980" gradientUnits="userSpaceOnUse" spreadMethod="reflect" id="fill5"><stop offset="0" stop-color="#6083CB"/><stop offset="0.5" stop-color="#3E70CA"/><stop offset="1" stop-color="#2E61BA"/></linearGradient><clipPath id="clip6"><rect x="1506" y="491" width="5406" height="2492"/></clipPath><linearGradient x1="3823.5" y1="2571" x2="3823.5" y2="2980" gradientUnits="userSpaceOnUse" spreadMethod="reflect" id="fill7"><stop offset="0" stop-color="#6083CB"/><stop offset="0.5" stop-color="#3E70CA"/><stop offset="1" stop-color="#2E61BA"/></linearGradient><clipPath id="clip8"><rect x="1506" y="491" width="5406" height="2492"/></clipPath><linearGradient x1="4903.5" y1="1589" x2="4903.5" y2="2980" gradientUnits="userSpaceOnUse" spreadMethod="reflect" id="fill9"><stop offset="0" stop-color="#6083CB"/><stop offset="0.5" stop-color="#3E70CA"/><stop offset="1" stop-color="#2E61BA"/></linearGradient><clipPath id="clip10"><rect x="1506" y="491" width="5406" height="2492"/></clipPath><linearGradient x1="5984.5" y1="736" x2="5984.5" y2="2980" gradientUnits="userSpaceOnUse" spreadMethod="reflect" id="fill11"><stop offset="0" stop-color="#6083CB"/><stop offset="0.5" stop-color="#3E70CA"/><stop offset="1" stop-color="#2E61BA"/></linearGradient><clipPath id="clip12"><rect x="1506" y="491" width="5406" height="2492"/></clipPath><linearGradient x1="1854.5" y1="2931" x2="1854.5" y2="2980" gradientUnits="userSpaceOnUse" spreadMethod="reflect" id="fill13"><stop offset="0" stop-color="#F18C55"/><stop offset="0.5" stop-color="#F67B28"/><stop offset="1" stop-color="#E56B17"/></linearGradient><clipPath id="clip14"><rect x="1506" y="491" width="5406" height="2492"/></clipPath><linearGradient x1="2935.5" y1="2926" x2="2935.5" y2="2980" gradientUnits="userSpaceOnUse" spreadMethod="reflect" id="fill15"><stop offset="0" stop-color="#F18C55"/><stop offset="0.5" stop-color="#F67B28"/><stop offset="1" stop-color="#E56B17"/></linearGradient><clipPath id="clip16"><rect x="1506" y="491" width="5406" height="2492"/></clipPath><linearGradient x1="4015.5" y1="2873" x2="4015.5" y2="2980" gradientUnits="userSpaceOnUse" spreadMethod="reflect" id="fill17"><stop offset="0" stop-color="#F18C55"/><stop offset="0.5" stop-color="#F67B28"/><stop offset="1" stop-color="#E56B17"/></linearGradient><clipPath id="clip18"><rect x="1506" y="491" width="5406" height="2492"/></clipPath><linearGradient x1="5096.5" y1="2590" x2="5096.5" y2="2980" gradientUnits="userSpaceOnUse" spreadMethod="reflect" id="fill19"><stop offset="0" stop-color="#F18C55"/><stop offset="0.5" stop-color="#F67B28"/><stop offset="1" stop-color="#E56B17"/></linearGradient><clipPath id="clip20"><rect x="1506" y="491" width="5406" height="2492"/></clipPath><linearGradient x1="6176.5" y1="2443" x2="6176.5" y2="2980" gradientUnits="userSpaceOnUse" spreadMethod="reflect" id="fill21"><stop offset="0" stop-color="#F18C55"/><stop offset="0.5" stop-color="#F67B28"/><stop offset="1" stop-color="#E56B17"/></linearGradient><clipPath id="clip22"><rect x="1506" y="491" width="5406" height="2492"/></clipPath><linearGradient x1="2047.5" y1="2957" x2="2047.5" y2="2980" gradientUnits="userSpaceOnUse" spreadMethod="reflect" id="fill23"><stop offset="0" stop-color="#AFAFAF"/><stop offset="0.5" stop-color="#A5A5A5"/><stop offset="1" stop-color="#929292"/></linearGradient><clipPath id="clip24"><rect x="1506" y="491" width="5406" height="2492"/></clipPath><linearGradient x1="3127.5" y1="2954" x2="3127.5" y2="2980" gradientUnits="userSpaceOnUse" spreadMethod="reflect" id="fill25"><stop offset="0" stop-color="#AFAFAF"/><stop offset="0.5" stop-color="#A5A5A5"/><stop offset="1" stop-color="#929292"/></linearGradient><clipPath id="clip26"><rect x="1506" y="491" width="5406" height="2492"/></clipPath><linearGradient x1="4208.5" y1="2935" x2="4208.5" y2="2980" gradientUnits="userSpaceOnUse" spreadMethod="reflect" id="fill27"><stop offset="0" stop-color="#AFAFAF"/><stop offset="0.5" stop-color="#A5A5A5"/><stop offset="1" stop-color="#929292"/></linearGradient><clipPath id="clip28"><rect x="1506" y="491" width="5406" height="2492"/></clipPath><linearGradient x1="5288.5" y1="2849" x2="5288.5" y2="2980" gradientUnits="userSpaceOnUse" spreadMethod="reflect" id="fill29"><stop offset="0" stop-color="#AFAFAF"/><stop offset="0.5" stop-color="#A5A5A5"/><stop offset="1" stop-color="#929292"/></linearGradient><clipPath id="clip30"><rect x="1506" y="491" width="5406" height="2492"/></clipPath><linearGradient x1="6369.5" y1="2806" x2="6369.5" y2="2980" gradientUnits="userSpaceOnUse" spreadMethod="reflect" id="fill31"><stop offset="0" stop-color="#AFAFAF"/><stop offset="0.5" stop-color="#A5A5A5"/><stop offset="1" stop-color="#929292"/></linearGradient><clipPath id="clip32"><rect x="1506" y="491" width="5406" height="2492"/></clipPath><linearGradient x1="2239.5" y1="2965" x2="2239.5" y2="2980" gradientUnits="userSpaceOnUse" spreadMethod="reflect" id="fill33"><stop offset="0" stop-color="#FFC746"/><stop offset="0.5" stop-color="#FFC600"/><stop offset="1" stop-color="#E5B600"/></linearGradient><clipPath id="clip34"><rect x="1506" y="491" width="5406" height="2492"/></clipPath><linearGradient x1="3320.5" y1="2964" x2="3320.5" y2="2980" gradientUnits="userSpaceOnUse" spreadMethod="reflect" id="fill35"><stop offset="0" stop-color="#FFC746"/><stop offset="0.5" stop-color="#FFC600"/><stop offset="1" stop-color="#E5B600"/></linearGradient><clipPath id="clip36"><rect x="1506" y="491" width="5406" height="2492"/></clipPath><linearGradient x1="4400.5" y1="2954" x2="4400.5" y2="2980" gradientUnits="userSpaceOnUse" spreadMethod="reflect" id="fill37"><stop offset="0" stop-color="#FFC746"/><stop offset="0.5" stop-color="#FFC600"/><stop offset="1" stop-color="#E5B600"/></linearGradient><clipPath id="clip38"><rect x="1506" y="491" width="5406" height="2492"/></clipPath><linearGradient x1="5481.5" y1="2903" x2="5481.5" y2="2980" gradientUnits="userSpaceOnUse" spreadMethod="reflect" id="fill39"><stop offset="0" stop-color="#FFC746"/><stop offset="0.5" stop-color="#FFC600"/><stop offset="1" stop-color="#E5B600"/></linearGradient><clipPath id="clip40"><rect x="1506" y="491" width="5406" height="2492"/></clipPath><linearGradient x1="6561.5" y1="2865" x2="6561.5" y2="2980" gradientUnits="userSpaceOnUse" spreadMethod="reflect" id="fill41"><stop offset="0" stop-color="#FFC746"/><stop offset="0.5" stop-color="#FFC600"/><stop offset="1" stop-color="#E5B600"/></linearGradient><clipPath id="clip42"><rect x="1506" y="491" width="5406" height="2492"/></clipPath><linearGradient x1="2432.5" y1="2961" x2="2432.5" y2="2980" gradientUnits="userSpaceOnUse" spreadMethod="reflect" id="fill43"><stop offset="0" stop-color="#71A6DB"/><stop offset="0.5" stop-color="#559BDB"/><stop offset="1" stop-color="#438AC9"/></linearGradient><clipPath id="clip44"><rect x="1506" y="491" width="5406" height="2492"/></clipPath><linearGradient x1="3512.5" y1="2958" x2="3512.5" y2="2980" gradientUnits="userSpaceOnUse" spreadMethod="reflect" id="fill45"><stop offset="0" stop-color="#71A6DB"/><stop offset="0.5" stop-color="#559BDB"/><stop offset="1" stop-color="#438AC9"/></linearGradient><clipPath id="clip46"><rect x="1506" y="491" width="5406" height="2492"/></clipPath><linearGradient x1="4593.5" y1="2945" x2="4593.5" y2="2980" gradientUnits="userSpaceOnUse" spreadMethod="reflect" id="fill47"><stop offset="0" stop-color="#71A6DB"/><stop offset="0.5" stop-color="#559BDB"/><stop offset="1" stop-color="#438AC9"/></linearGradient><clipPath id="clip48"><rect x="1506" y="491" width="5406" height="2492"/></clipPath><linearGradient x1="5673.5" y1="2911" x2="5673.5" y2="2980" gradientUnits="userSpaceOnUse" spreadMethod="reflect" id="fill49"><stop offset="0" stop-color="#71A6DB"/><stop offset="0.5" stop-color="#559BDB"/><stop offset="1" stop-color="#438AC9"/></linearGradient><clipPath id="clip50"><rect x="1506" y="491" width="5406" height="2492"/></clipPath><linearGradient x1="6754.5" y1="2874" x2="6754.5" y2="2980" gradientUnits="userSpaceOnUse" spreadMethod="reflect" id="fill51"><stop offset="0" stop-color="#71A6DB"/><stop offset="0.5" stop-color="#559BDB"/><stop offset="1" stop-color="#438AC9"/></linearGradient><clipPath id="clip52"><rect x="1263" y="130" width="5696" height="3153"/></clipPath><clipPath id="clip53"><rect x="1263" y="130" width="5696" height="3153"/></clipPath><clipPath id="clip54"><rect x="1263" y="130" width="5696" height="3153"/></clipPath><clipPath id="clip55"><rect x="1263" y="130" width="5696" height="3153"/></clipPath><clipPath id="clip56"><rect x="1263" y="130" width="5696" height="3153"/></clipPath><clipPath id="clip57"><rect x="1263" y="130" width="5696" height="3153"/></clipPath><clipPath id="clip58"><rect x="1263" y="130" width="5696" height="3153"/></clipPath><clipPath id="clip59"><rect x="1263" y="130" width="5696" height="3153"/></clipPath><clipPath id="clip60"><rect x="1263" y="130" width="5696" height="3153"/></clipPath><clipPath id="clip61"><rect x="1263" y="130" width="5696" height="3153"/></clipPath><clipPath id="clip62"><rect x="1263" y="130" width="5696" height="3153"/></clipPath><clipPath id="clip63"><rect x="1263" y="130" width="5696" height="3153"/></clipPath><clipPath id="clip64"><rect x="1263" y="130" width="5696" height="3153"/></clipPath><clipPath id="clip65"><rect x="1263" y="130" width="5696" height="3153"/></clipPath><clipPath id="clip66"><rect x="1263" y="130" width="5696" height="3153"/></clipPath><clipPath id="clip67"><rect x="1263" y="130" width="5696" height="3153"/></clipPath><clipPath id="clip68"><rect x="1263" y="130" width="5696" height="3153"/></clipPath><clipPath id="clip69"><rect x="1263" y="130" width="5696" height="3153"/></clipPath><clipPath id="clip70"><rect x="1263" y="130" width="5696" height="3153"/></clipPath><clipPath id="clip71"><rect x="1263" y="130" width="5696" height="3153"/></clipPath><clipPath id="clip72"><rect x="1263" y="130" width="5696" height="3153"/></clipPath><clipPath id="clip73"><rect x="1263" y="130" width="5696" height="3153"/></clipPath><clipPath id="clip74"><rect x="1263" y="130" width="5696" height="3153"/></clipPath><clipPath id="clip75"><rect x="1263" y="130" width="5696" height="3153"/></clipPath><clipPath id="clip76"><rect x="1263" y="130" width="5696" height="3153"/></clipPath><clipPath id="clip77"><rect x="1263" y="130" width="5696" height="3153"/></clipPath><clipPath id="clip78"><rect x="1263" y="130" width="5696" height="3153"/></clipPath><clipPath id="clip79"><rect x="1263" y="130" width="5696" height="3153"/></clipPath><clipPath id="clip80"><rect x="1263" y="130" width="5696" height="3153"/></clipPath><clipPath id="clip81"><rect x="1263" y="130" width="5696" height="3153"/></clipPath><clipPath id="clip82"><rect x="1263" y="130" width="5696" height="3153"/></clipPath><clipPath id="clip83"><rect x="1263" y="130" width="5696" height="3153"/></clipPath><clipPath id="clip84"><rect x="1263" y="130" width="5696" height="3153"/></clipPath><clipPath id="clip85"><rect x="1263" y="130" width="5696" height="3153"/></clipPath><clipPath id="clip86"><rect x="1263" y="130" width="5696" height="3153"/></clipPath><clipPath id="clip87"><rect x="1263" y="130" width="5696" height="3153"/></clipPath><clipPath id="clip88"><rect x="1263" y="130" width="5696" height="3153"/></clipPath><clipPath id="clip89"><rect x="1263" y="130" width="5696" height="3153"/></clipPath><clipPath id="clip90"><rect x="1263" y="130" width="5696" height="3153"/></clipPath><clipPath id="clip91"><rect x="1263" y="130" width="5696" height="3153"/></clipPath><clipPath id="clip92"><rect x="1263" y="130" width="5696" height="3153"/></clipPath><clipPath id="clip93"><rect x="1263" y="130" width="5696" height="3153"/></clipPath><clipPath id="clip94"><rect x="1263" y="130" width="5696" height="3153"/></clipPath><clipPath id="clip95"><rect x="1263" y="130" width="5696" height="3153"/></clipPath><clipPath id="clip96"><rect x="1263" y="130" width="5696" height="3153"/></clipPath><clipPath id="clip97"><rect x="1263" y="130" width="5696" height="3153"/></clipPath><clipPath id="clip98"><rect x="1263" y="130" width="5696" height="3153"/></clipPath><clipPath id="clip99"><rect x="1263" y="130" width="5696" height="3153"/></clipPath><clipPath id="clip100"><rect x="1263" y="130" width="5696" height="3153"/></clipPath><linearGradient x1="3914.5" y1="3206" x2="3914.5" y2="3228" gradientUnits="userSpaceOnUse" spreadMethod="reflect" id="fill101"><stop offset="0" stop-color="#6083CB"/><stop offset="0.5" stop-color="#3E70CA"/><stop offset="1" stop-color="#2E61BA"/></linearGradient><clipPath id="clip102"><rect x="1263" y="130" width="5696" height="3153"/></clipPath><clipPath id="clip103"><rect x="1263" y="130" width="5696" height="3153"/></clipPath><linearGradient x1="3994" y1="3206" x2="3994" y2="3228" gradientUnits="userSpaceOnUse" spreadMethod="reflect" id="fill104"><stop offset="0" stop-color="#F18C55"/><stop offset="0.5" stop-color="#F67B28"/><stop offset="1" stop-color="#E56B17"/></linearGradient><clipPath id="clip105"><rect x="1263" y="130" width="5696" height="3153"/></clipPath><clipPath id="clip106"><rect x="1263" y="130" width="5696" height="3153"/></clipPath><linearGradient x1="4073.5" y1="3206" x2="4073.5" y2="3228" gradientUnits="userSpaceOnUse" spreadMethod="reflect" id="fill107"><stop offset="0" stop-color="#AFAFAF"/><stop offset="0.5" stop-color="#A5A5A5"/><stop offset="1" stop-color="#929292"/></linearGradient><clipPath id="clip108"><rect x="1263" y="130" width="5696" height="3153"/></clipPath><clipPath id="clip109"><rect x="1263" y="130" width="5696" height="3153"/></clipPath><linearGradient x1="4173.5" y1="3206" x2="4173.5" y2="3228" gradientUnits="userSpaceOnUse" spreadMethod="reflect" id="fill110"><stop offset="0" stop-color="#FFC746"/><stop offset="0.5" stop-color="#FFC600"/><stop offset="1" stop-color="#E5B600"/></linearGradient><clipPath id="clip111"><rect x="1263" y="130" width="5696" height="3153"/></clipPath><clipPath id="clip112"><rect x="1263" y="130" width="5696" height="3153"/></clipPath><linearGradient x1="4274" y1="3206" x2="4274" y2="3228" gradientUnits="userSpaceOnUse" spreadMethod="reflect" id="fill113"><stop offset="0" stop-color="#71A6DB"/><stop offset="0.5" stop-color="#559BDB"/><stop offset="1" stop-color="#438AC9"/></linearGradient><clipPath id="clip114"><rect x="1263" y="130" width="5696" height="3153"/></clipPath></defs><g clip-path="url(#clip0)" transform="translate(-1263 -130)"><rect x="1264" y="131" width="5696" height="3152" fill="#FFFFFF"/><g clip-path="url(#clip1)"><path d="M1506.5 2703.59 6909.5 2703.59M1506.5 2427.58 6909.5 2427.58M1506.5 2150.57 6909.5 2150.57M1506.5 1874.56 6909.5 1874.56M1506.5 1597.55 6909.5 1597.55M1506.5 1320.54 6909.5 1320.54M1506.5 1044.53 6909.5 1044.53M1506.5 767.525 6909.5 767.525M1506.5 491.5 6909.5 491.5" stroke="#E0E5EB" stroke-width="3.4375" stroke-linejoin="round" stroke-miterlimit="10" fill="none"/></g><g clip-path="url(#clip2)"><rect x="1585" y="2791" width="155" height="189" fill="url(#fill3)"/></g><g clip-path="url(#clip4)"><rect x="2665" y="2773" width="155" height="207" fill="url(#fill5)"/></g><g clip-path="url(#clip6)"><rect x="3746" y="2571" width="155" height="409" fill="url(#fill7)"/></g><g clip-path="url(#clip8)"><rect x="4826" y="1589" width="155" height="1391" fill="url(#fill9)"/></g><g clip-path="url(#clip10)"><rect x="5907" y="736" width="155" height="2244" fill="url(#fill11)"/></g><g clip-path="url(#clip12)"><rect x="1777" y="2931" width="155" height="48.9998" fill="url(#fill13)"/></g><g clip-path="url(#clip14)"><rect x="2858" y="2926" width="155" height="54" fill="url(#fill15)"/></g><g clip-path="url(#clip16)"><rect x="3938" y="2873" width="155" height="107" fill="url(#fill17)"/></g><g clip-path="url(#clip18)"><rect x="5019" y="2590" width="155" height="390" fill="url(#fill19)"/></g><g clip-path="url(#clip20)"><rect x="6099" y="2443" width="155" height="537" fill="url(#fill21)"/></g><g clip-path="url(#clip22)"><rect x="1970" y="2957" width="155" height="23" fill="url(#fill23)"/></g><g clip-path="url(#clip24)"><rect x="3050" y="2954" width="155" height="26.0002" fill="url(#fill25)"/></g><g clip-path="url(#clip26)"><rect x="4131" y="2935" width="155" height="45" fill="url(#fill27)"/></g><g clip-path="url(#clip28)"><rect x="5211" y="2849" width="155" height="131" fill="url(#fill29)"/></g><g clip-path="url(#clip30)"><rect x="6292" y="2806" width="155" height="174" fill="url(#fill31)"/></g><g clip-path="url(#clip32)"><rect x="2162" y="2965" width="155" height="15.0002" fill="url(#fill33)"/></g><g clip-path="url(#clip34)"><rect x="3243" y="2964" width="155" height="15.9998" fill="url(#fill35)"/></g><g clip-path="url(#clip36)"><rect x="4323" y="2954" width="155" height="26.0002" fill="url(#fill37)"/></g><g clip-path="url(#clip38)"><rect x="5404" y="2903" width="155" height="77" fill="url(#fill39)"/></g><g clip-path="url(#clip40)"><rect x="6484" y="2865" width="155" height="115" fill="url(#fill41)"/></g><g clip-path="url(#clip42)"><rect x="2355" y="2961" width="155" height="19" fill="url(#fill43)"/></g><g clip-path="url(#clip44)"><rect x="3435" y="2958" width="155" height="22" fill="url(#fill45)"/></g><g clip-path="url(#clip46)"><rect x="4516" y="2945" width="155" height="35" fill="url(#fill47)"/></g><g clip-path="url(#clip48)"><rect x="5596" y="2911" width="155" height="69" fill="url(#fill49)"/></g><g clip-path="url(#clip50)"><rect x="6677" y="2874" width="155" height="106" fill="url(#fill51)"/></g><g clip-path="url(#clip52)"><path d="M1506.5 2980.5 6909.5 2980.5" stroke="#E0E5EB" stroke-width="3.4375" stroke-linejoin="round" stroke-miterlimit="10" fill="none" fill-rule="evenodd"/></g><g clip-path="url(#clip53)"><text fill="#44546A" font-family="Calibri,Calibri_MSFontService,sans-serif" font-weight="400" font-size="41" transform="matrix(1 0 0 1 1630.83 2759)">137</text></g><g clip-path="url(#clip54)"><text fill="#44546A" font-family="Calibri,Calibri_MSFontService,sans-serif" font-weight="400" font-size="41" transform="matrix(1 0 0 1 2711.34 2741)">150</text></g><g clip-path="url(#clip55)"><text fill="#44546A" font-family="Calibri,Calibri_MSFontService,sans-serif" font-weight="400" font-size="41" transform="matrix(1 0 0 1 3791.84 2539)">296</text></g><g clip-path="url(#clip56)"><text fill="#44546A" font-family="Calibri,Calibri_MSFontService,sans-serif" font-weight="400" font-size="41" transform="matrix(1 0 0 1 4861.9 1557)">1006</text></g><g clip-path="url(#clip57)"><text fill="#44546A" font-family="Calibri,Calibri_MSFontService,sans-serif" font-weight="400" font-size="41" transform="matrix(1 0 0 1 5942.4 704)">1623</text></g><g clip-path="url(#clip58)"><text fill="#44546A" font-family="Calibri,Calibri_MSFontService,sans-serif" font-weight="400" font-size="41" transform="matrix(1 0 0 1 1833.78 2899)">36</text></g><g clip-path="url(#clip59)"><text fill="#44546A" font-family="Calibri,Calibri_MSFontService,sans-serif" font-weight="400" font-size="41" transform="matrix(1 0 0 1 2914.29 2894)">39</text></g><g clip-path="url(#clip60)"><text fill="#44546A" font-family="Calibri,Calibri_MSFontService,sans-serif" font-weight="400" font-size="41" transform="matrix(1 0 0 1 3994.79 2841)">77</text></g><g clip-path="url(#clip61)"><text fill="#44546A" font-family="Calibri,Calibri_MSFontService,sans-serif" font-weight="400" font-size="41" transform="matrix(1 0 0 1 5064.85 2558)">282</text></g><g clip-path="url(#clip62)"><text fill="#44546A" font-family="Calibri,Calibri_MSFontService,sans-serif" font-weight="400" font-size="41" transform="matrix(1 0 0 1 6145.36 2411)">388</text></g><g clip-path="url(#clip63)"><text fill="#44546A" font-family="Calibri,Calibri_MSFontService,sans-serif" font-weight="400" font-size="41" transform="matrix(1 0 0 1 2026.29 2925)">17</text></g><g clip-path="url(#clip64)"><text fill="#44546A" font-family="Calibri,Calibri_MSFontService,sans-serif" font-weight="400" font-size="41" transform="matrix(1 0 0 1 3106.79 2922)">19</text></g><g clip-path="url(#clip65)"><text fill="#44546A" font-family="Calibri,Calibri_MSFontService,sans-serif" font-weight="400" font-size="41" transform="matrix(1 0 0 1 4187.3 2903)">33</text></g><g clip-path="url(#clip66)"><text fill="#44546A" font-family="Calibri,Calibri_MSFontService,sans-serif" font-weight="400" font-size="41" transform="matrix(1 0 0 1 5267.8 2817)">95</text></g><g clip-path="url(#clip67)"><text fill="#44546A" font-family="Calibri,Calibri_MSFontService,sans-serif" font-weight="400" font-size="41" transform="matrix(1 0 0 1 6337.86 2774)">126</text></g><g clip-path="url(#clip68)"><text fill="#44546A" font-family="Calibri,Calibri_MSFontService,sans-serif" font-weight="400" font-size="41" transform="matrix(1 0 0 1 2218.79 2933)">11</text></g><g clip-path="url(#clip69)"><text fill="#44546A" font-family="Calibri,Calibri_MSFontService,sans-serif" font-weight="400" font-size="41" transform="matrix(1 0 0 1 3299.3 2932)">12</text></g><g clip-path="url(#clip70)"><text fill="#44546A" font-family="Calibri,Calibri_MSFontService,sans-serif" font-weight="400" font-size="41" transform="matrix(1 0 0 1 4379.8 2923)">19</text></g><g clip-path="url(#clip71)"><text fill="#44546A" font-family="Calibri,Calibri_MSFontService,sans-serif" font-weight="400" font-size="41" transform="matrix(1 0 0 1 5460.31 2871)">56</text></g><g clip-path="url(#clip72)"><text fill="#44546A" font-family="Calibri,Calibri_MSFontService,sans-serif" font-weight="400" font-size="41" transform="matrix(1 0 0 1 6540.81 2833)">83</text></g><g clip-path="url(#clip73)"><text fill="#44546A" font-family="Calibri,Calibri_MSFontService,sans-serif" font-weight="400" font-size="41" transform="matrix(1 0 0 1 2411.29 2929)">14</text></g><g clip-path="url(#clip74)"><text fill="#44546A" font-family="Calibri,Calibri_MSFontService,sans-serif" font-weight="400" font-size="41" transform="matrix(1 0 0 1 3491.8 2926)">16</text></g><g clip-path="url(#clip75)"><text fill="#44546A" font-family="Calibri,Calibri_MSFontService,sans-serif" font-weight="400" font-size="41" transform="matrix(1 0 0 1 4572.31 2913)">25</text></g><g clip-path="url(#clip76)"><text fill="#44546A" font-family="Calibri,Calibri_MSFontService,sans-serif" font-weight="400" font-size="41" transform="matrix(1 0 0 1 5652.81 2879)">50</text></g><g clip-path="url(#clip77)"><text fill="#44546A" font-family="Calibri,Calibri_MSFontService,sans-serif" font-weight="400" font-size="41" transform="matrix(1 0 0 1 6733.32 2842)">77</text></g><g clip-path="url(#clip78)"><text fill="#44546A" font-family="Calibri,Calibri_MSFontService,sans-serif" font-weight="400" font-size="41" transform="matrix(1 0 0 1 1447.77 2992)">0</text></g><g clip-path="url(#clip79)"><text fill="#44546A" font-family="Calibri,Calibri_MSFontService,sans-serif" font-weight="400" font-size="41" transform="matrix(1 0 0 1 1405.97 2715)">200</text></g><g clip-path="url(#clip80)"><text fill="#44546A" font-family="Calibri,Calibri_MSFontService,sans-serif" font-weight="400" font-size="41" transform="matrix(1 0 0 1 1405.97 2439)">400</text></g><g clip-path="url(#clip81)"><text fill="#44546A" font-family="Calibri,Calibri_MSFontService,sans-serif" font-weight="400" font-size="41" transform="matrix(1 0 0 1 1405.97 2162)">600</text></g><g clip-path="url(#clip82)"><text fill="#44546A" font-family="Calibri,Calibri_MSFontService,sans-serif" font-weight="400" font-size="41" transform="matrix(1 0 0 1 1405.97 1886)">800</text></g><g clip-path="url(#clip83)"><text fill="#44546A" font-family="Calibri,Calibri_MSFontService,sans-serif" font-weight="400" font-size="41" transform="matrix(1 0 0 1 1385.07 1609)">1000</text></g><g clip-path="url(#clip84)"><text fill="#44546A" font-family="Calibri,Calibri_MSFontService,sans-serif" font-weight="400" font-size="41" transform="matrix(1 0 0 1 1385.07 1332)">1200</text></g><g clip-path="url(#clip85)"><text fill="#44546A" font-family="Calibri,Calibri_MSFontService,sans-serif" font-weight="400" font-size="41" transform="matrix(1 0 0 1 1385.07 1056)">1400</text></g><g clip-path="url(#clip86)"><text fill="#44546A" font-family="Calibri,Calibri_MSFontService,sans-serif" font-weight="400" font-size="41" transform="matrix(1 0 0 1 1385.07 779)">1600</text></g><g clip-path="url(#clip87)"><text fill="#44546A" font-family="Calibri,Calibri_MSFontService,sans-serif" font-weight="400" font-size="41" transform="matrix(1 0 0 1 1385.07 503)">1800</text></g><g clip-path="url(#clip88)"><text fill="#44546A" font-family="Calibri,Calibri_MSFontService,sans-serif" font-weight="400" font-size="41" transform="matrix(1 0 0 1 2026.29 3046)">20</text></g><g clip-path="url(#clip89)"><text fill="#44546A" font-family="Calibri,Calibri_MSFontService,sans-serif" font-weight="400" font-size="41" transform="matrix(1 0 0 1 3106.79 3046)">32</text></g><g clip-path="url(#clip90)"><text fill="#44546A" font-family="Calibri,Calibri_MSFontService,sans-serif" font-weight="400" font-size="41" transform="matrix(1 0 0 1 4176.85 3046)">128</text></g><g clip-path="url(#clip91)"><text fill="#44546A" font-family="Calibri,Calibri_MSFontService,sans-serif" font-weight="400" font-size="41" transform="matrix(1 0 0 1 5257.35 3046)">384</text></g><g clip-path="url(#clip92)"><text fill="#44546A" font-family="Calibri,Calibri_MSFontService,sans-serif" font-weight="400" font-size="41" transform="matrix(1 0 0 1 6337.86 3046)">512</text></g><g clip-path="url(#clip93)"><text fill="#44546A" font-family="Calibri,Calibri_MSFontService,sans-serif" font-weight="700" font-size="41" transform="matrix(6.12323e-17 -1 1 6.12323e-17 1359.97 1844)">Latency (ms)</text></g><g clip-path="url(#clip94)"><text fill="#44546A" font-family="Calibri,Calibri_MSFontService,sans-serif" font-weight="700" font-size="41" transform="matrix(1 0 0 1 4067.31 3110)">Sequence Length</text></g><g clip-path="url(#clip95)"><text fill="#44546A" font-family="Calibri,Calibri_MSFontService,sans-serif" font-weight="700" font-size="73" transform="matrix(1 0 0 1 3605.22 235)">Intel Ice lake Xeon 8380 </text></g><g clip-path="url(#clip96)"><text fill="#44546A" font-family="Calibri,Calibri_MSFontService,sans-serif" font-weight="700" font-size="73" transform="matrix(1 0 0 1 4340.57 235)">-</text></g><g clip-path="url(#clip97)"><text fill="#44546A" font-family="Calibri,Calibri_MSFontService,sans-serif" font-weight="700" font-size="73" transform="matrix(1 0 0 1 4379.59 235)">PyTorch</text></g><g clip-path="url(#clip98)"><text fill="#44546A" font-family="Calibri,Calibri_MSFontService,sans-serif" font-weight="700" font-size="73" transform="matrix(1 0 0 1 2838.22 324)">Latency Benchmark with varying number of CPU cores involved in the computations</text></g><g clip-path="url(#clip99)"><text fill="#44546A" font-family="Calibri,Calibri_MSFontService,sans-serif" font-weight="700" font-size="73" transform="matrix(1 0 0 1 3019.31 414)">(some data might be missing indicating benchmark crashed during runs)</text></g><g clip-path="url(#clip100)"><rect x="3903" y="3206" width="23" height="22" fill="url(#fill101)"/></g><g clip-path="url(#clip102)"><text fill="#44546A" font-family="Calibri,Calibri_MSFontService,sans-serif" font-weight="400" font-size="41" transform="matrix(1 0 0 1 3935.68 3229)">1</text></g><g clip-path="url(#clip103)"><rect x="3983" y="3206" width="22" height="22" fill="url(#fill104)"/></g><g clip-path="url(#clip105)"><text fill="#44546A" font-family="Calibri,Calibri_MSFontService,sans-serif" font-weight="400" font-size="41" transform="matrix(1 0 0 1 4015.01 3229)">4</text></g><g clip-path="url(#clip106)"><rect x="4062" y="3206" width="23" height="22" fill="url(#fill107)"/></g><g clip-path="url(#clip108)"><text fill="#44546A" font-family="Calibri,Calibri_MSFontService,sans-serif" font-weight="400" font-size="41" transform="matrix(1 0 0 1 4094.35 3229)">16</text></g><g clip-path="url(#clip109)"><rect x="4162" y="3206" width="23" height="22" fill="url(#fill110)"/></g><g clip-path="url(#clip111)"><text fill="#44546A" font-family="Calibri,Calibri_MSFontService,sans-serif" font-weight="400" font-size="41" transform="matrix(1 0 0 1 4194.59 3229)">40</text></g><g clip-path="url(#clip112)"><rect x="4263" y="3206" width="22" height="22" fill="url(#fill113)"/></g><g clip-path="url(#clip114)"><text fill="#44546A" font-family="Calibri,Calibri_MSFontService,sans-serif" font-weight="400" font-size="41" transform="matrix(1 0 0 1 4294.83 3229)">80</text></g><rect x="1264.5" y="131.5" width="5696" height="3152" stroke="#E0E5EB" stroke-width="3.4375" stroke-linejoin="round" stroke-miterlimit="10" fill="none"/></g></svg>