<svg width="5699" height="3155" xmlns="http://www.w3.org/2000/svg" xmlns:xlink="http://www.w3.org/1999/xlink" overflow="hidden"><defs><clipPath id="clip0"><rect x="1335" y="130" width="5699" height="3155"/></clipPath><clipPath id="clip1"><rect x="1335" y="130" width="5696" height="3153"/></clipPath><clipPath id="clip2"><rect x="1578" y="491" width="5406" height="2492"/></clipPath><linearGradient x1="1734" y1="2824" x2="1734" y2="2980" gradientUnits="userSpaceOnUse" spreadMethod="reflect" id="fill3"><stop offset="0" stop-color="#6083CB"/><stop offset="0.5" stop-color="#3E70CA"/><stop offset="1" stop-color="#2E61BA"/></linearGradient><clipPath id="clip4"><rect x="1578" y="491" width="5406" height="2492"/></clipPath><linearGradient x1="2814.5" y1="2810" x2="2814.5" y2="2980" gradientUnits="userSpaceOnUse" spreadMethod="reflect" id="fill5"><stop offset="0" stop-color="#6083CB"/><stop offset="0.5" stop-color="#3E70CA"/><stop offset="1" stop-color="#2E61BA"/></linearGradient><clipPath id="clip6"><rect x="1578" y="491" width="5406" height="2492"/></clipPath><linearGradient x1="3895" y1="2602" x2="3895" y2="2980" gradientUnits="userSpaceOnUse" spreadMethod="reflect" id="fill7"><stop offset="0" stop-color="#6083CB"/><stop offset="0.5" stop-color="#3E70CA"/><stop offset="1" stop-color="#2E61BA"/></linearGradient><clipPath id="clip8"><rect x="1578" y="491" width="5406" height="2492"/></clipPath><linearGradient x1="4975.5" y1="1583" x2="4975.5" y2="2980" gradientUnits="userSpaceOnUse" spreadMethod="reflect" id="fill9"><stop offset="0" stop-color="#6083CB"/><stop offset="0.5" stop-color="#3E70CA"/><stop offset="1" stop-color="#2E61BA"/></linearGradient><clipPath id="clip10"><rect x="1578" y="491" width="5406" height="2492"/></clipPath><linearGradient x1="6056.5" y1="812" x2="6056.5" y2="2980" gradientUnits="userSpaceOnUse" spreadMethod="reflect" id="fill11"><stop offset="0" stop-color="#6083CB"/><stop offset="0.5" stop-color="#3E70CA"/><stop offset="1" stop-color="#2E61BA"/></linearGradient><clipPath id="clip12"><rect x="1578" y="491" width="5406" height="2492"/></clipPath><linearGradient x1="1926.5" y1="2937" x2="1926.5" y2="2980" gradientUnits="userSpaceOnUse" spreadMethod="reflect" id="fill13"><stop offset="0" stop-color="#F18C55"/><stop offset="0.5" stop-color="#F67B28"/><stop offset="1" stop-color="#E56B17"/></linearGradient><clipPath id="clip14"><rect x="1578" y="491" width="5406" height="2492"/></clipPath><linearGradient x1="3007" y1="2929" x2="3007" y2="2980" gradientUnits="userSpaceOnUse" spreadMethod="reflect" id="fill15"><stop offset="0" stop-color="#F18C55"/><stop offset="0.5" stop-color="#F67B28"/><stop offset="1" stop-color="#E56B17"/></linearGradient><clipPath id="clip16"><rect x="1578" y="491" width="5406" height="2492"/></clipPath><linearGradient x1="4087.5" y1="2839" x2="4087.5" y2="2980" gradientUnits="userSpaceOnUse" spreadMethod="reflect" id="fill17"><stop offset="0" stop-color="#F18C55"/><stop offset="0.5" stop-color="#F67B28"/><stop offset="1" stop-color="#E56B17"/></linearGradient><clipPath id="clip18"><rect x="1578" y="491" width="5406" height="2492"/></clipPath><linearGradient x1="5168.5" y1="2611" x2="5168.5" y2="2980" gradientUnits="userSpaceOnUse" spreadMethod="reflect" id="fill19"><stop offset="0" stop-color="#F18C55"/><stop offset="0.5" stop-color="#F67B28"/><stop offset="1" stop-color="#E56B17"/></linearGradient><clipPath id="clip20"><rect x="1578" y="491" width="5406" height="2492"/></clipPath><linearGradient x1="6248.5" y1="2488" x2="6248.5" y2="2980" gradientUnits="userSpaceOnUse" spreadMethod="reflect" id="fill21"><stop offset="0" stop-color="#F18C55"/><stop offset="0.5" stop-color="#F67B28"/><stop offset="1" stop-color="#E56B17"/></linearGradient><clipPath id="clip22"><rect x="1578" y="491" width="5406" height="2492"/></clipPath><linearGradient x1="2119" y1="2957" x2="2119" y2="2980" gradientUnits="userSpaceOnUse" spreadMethod="reflect" id="fill23"><stop offset="0" stop-color="#AFAFAF"/><stop offset="0.5" stop-color="#A5A5A5"/><stop offset="1" stop-color="#929292"/></linearGradient><clipPath id="clip24"><rect x="1578" y="491" width="5406" height="2492"/></clipPath><linearGradient x1="3199.5" y1="2949" x2="3199.5" y2="2980" gradientUnits="userSpaceOnUse" spreadMethod="reflect" id="fill25"><stop offset="0" stop-color="#AFAFAF"/><stop offset="0.5" stop-color="#A5A5A5"/><stop offset="1" stop-color="#929292"/></linearGradient><clipPath id="clip26"><rect x="1578" y="491" width="5406" height="2492"/></clipPath><linearGradient x1="4280" y1="2879" x2="4280" y2="2980" gradientUnits="userSpaceOnUse" spreadMethod="reflect" id="fill27"><stop offset="0" stop-color="#AFAFAF"/><stop offset="0.5" stop-color="#A5A5A5"/><stop offset="1" stop-color="#929292"/></linearGradient><clipPath id="clip28"><rect x="1578" y="491" width="5406" height="2492"/></clipPath><linearGradient x1="5360.5" y1="2812" x2="5360.5" y2="2980" gradientUnits="userSpaceOnUse" spreadMethod="reflect" id="fill29"><stop offset="0" stop-color="#AFAFAF"/><stop offset="0.5" stop-color="#A5A5A5"/><stop offset="1" stop-color="#929292"/></linearGradient><clipPath id="clip30"><rect x="1578" y="491" width="5406" height="2492"/></clipPath><linearGradient x1="6441.5" y1="2770" x2="6441.5" y2="2980" gradientUnits="userSpaceOnUse" spreadMethod="reflect" id="fill31"><stop offset="0" stop-color="#AFAFAF"/><stop offset="0.5" stop-color="#A5A5A5"/><stop offset="1" stop-color="#929292"/></linearGradient><clipPath id="clip32"><rect x="1578" y="491" width="5406" height="2492"/></clipPath><linearGradient x1="2311.5" y1="2964" x2="2311.5" y2="2980" gradientUnits="userSpaceOnUse" spreadMethod="reflect" id="fill33"><stop offset="0" stop-color="#FFC746"/><stop offset="0.5" stop-color="#FFC600"/><stop offset="1" stop-color="#E5B600"/></linearGradient><clipPath id="clip34"><rect x="1578" y="491" width="5406" height="2492"/></clipPath><linearGradient x1="3392" y1="2957" x2="3392" y2="2980" gradientUnits="userSpaceOnUse" spreadMethod="reflect" id="fill35"><stop offset="0" stop-color="#FFC746"/><stop offset="0.5" stop-color="#FFC600"/><stop offset="1" stop-color="#E5B600"/></linearGradient><clipPath id="clip36"><rect x="1578" y="491" width="5406" height="2492"/></clipPath><linearGradient x1="4472.5" y1="2898" x2="4472.5" y2="2980" gradientUnits="userSpaceOnUse" spreadMethod="reflect" id="fill37"><stop offset="0" stop-color="#FFC746"/><stop offset="0.5" stop-color="#FFC600"/><stop offset="1" stop-color="#E5B600"/></linearGradient><clipPath id="clip38"><rect x="1578" y="491" width="5406" height="2492"/></clipPath><linearGradient x1="5553.5" y1="2860" x2="5553.5" y2="2980" gradientUnits="userSpaceOnUse" spreadMethod="reflect" id="fill39"><stop offset="0" stop-color="#FFC746"/><stop offset="0.5" stop-color="#FFC600"/><stop offset="1" stop-color="#E5B600"/></linearGradient><clipPath id="clip40"><rect x="1578" y="491" width="5406" height="2492"/></clipPath><linearGradient x1="6633.5" y1="2856" x2="6633.5" y2="2980" gradientUnits="userSpaceOnUse" spreadMethod="reflect" id="fill41"><stop offset="0" stop-color="#FFC746"/><stop offset="0.5" stop-color="#FFC600"/><stop offset="1" stop-color="#E5B600"/></linearGradient><clipPath id="clip42"><rect x="1578" y="491" width="5406" height="2492"/></clipPath><linearGradient x1="2504" y1="2960" x2="2504" y2="2980" gradientUnits="userSpaceOnUse" spreadMethod="reflect" id="fill43"><stop offset="0" stop-color="#71A6DB"/><stop offset="0.5" stop-color="#559BDB"/><stop offset="1" stop-color="#438AC9"/></linearGradient><clipPath id="clip44"><rect x="1578" y="491" width="5406" height="2492"/></clipPath><linearGradient x1="3584.5" y1="2953" x2="3584.5" y2="2980" gradientUnits="userSpaceOnUse" spreadMethod="reflect" id="fill45"><stop offset="0" stop-color="#71A6DB"/><stop offset="0.5" stop-color="#559BDB"/><stop offset="1" stop-color="#438AC9"/></linearGradient><clipPath id="clip46"><rect x="1578" y="491" width="5406" height="2492"/></clipPath><linearGradient x1="4665.5" y1="2896" x2="4665.5" y2="2980" gradientUnits="userSpaceOnUse" spreadMethod="reflect" id="fill47"><stop offset="0" stop-color="#71A6DB"/><stop offset="0.5" stop-color="#559BDB"/><stop offset="1" stop-color="#438AC9"/></linearGradient><clipPath id="clip48"><rect x="1578" y="491" width="5406" height="2492"/></clipPath><linearGradient x1="5745.5" y1="2865" x2="5745.5" y2="2980" gradientUnits="userSpaceOnUse" spreadMethod="reflect" id="fill49"><stop offset="0" stop-color="#71A6DB"/><stop offset="0.5" stop-color="#559BDB"/><stop offset="1" stop-color="#438AC9"/></linearGradient><clipPath id="clip50"><rect x="1578" y="491" width="5406" height="2492"/></clipPath><linearGradient x1="6826.5" y1="2857" x2="6826.5" y2="2980" gradientUnits="userSpaceOnUse" spreadMethod="reflect" id="fill51"><stop offset="0" stop-color="#71A6DB"/><stop offset="0.5" stop-color="#559BDB"/><stop offset="1" stop-color="#438AC9"/></linearGradient><clipPath id="clip52"><rect x="1335" y="130" width="5696" height="3153"/></clipPath><clipPath id="clip53"><rect x="1335" y="130" width="5696" height="3153"/></clipPath><clipPath id="clip54"><rect x="1335" y="130" width="5696" height="3153"/></clipPath><clipPath id="clip55"><rect x="1335" y="130" width="5696" height="3153"/></clipPath><clipPath id="clip56"><rect x="1335" y="130" width="5696" height="3153"/></clipPath><clipPath id="clip57"><rect x="1335" y="130" width="5696" height="3153"/></clipPath><clipPath id="clip58"><rect x="1335" y="130" width="5696" height="3153"/></clipPath><clipPath id="clip59"><rect x="1335" y="130" width="5696" height="3153"/></clipPath><clipPath id="clip60"><rect x="1335" y="130" width="5696" height="3153"/></clipPath><clipPath id="clip61"><rect x="1335" y="130" width="5696" height="3153"/></clipPath><clipPath id="clip62"><rect x="1335" y="130" width="5696" height="3153"/></clipPath><clipPath id="clip63"><rect x="1335" y="130" width="5696" height="3153"/></clipPath><clipPath id="clip64"><rect x="1335" y="130" width="5696" height="3153"/></clipPath><clipPath id="clip65"><rect x="1335" y="130" width="5696" height="3153"/></clipPath><clipPath id="clip66"><rect x="1335" y="130" width="5696" height="3153"/></clipPath><clipPath id="clip67"><rect x="1335" y="130" width="5696" height="3153"/></clipPath><clipPath id="clip68"><rect x="1335" y="130" width="5696" height="3153"/></clipPath><clipPath id="clip69"><rect x="1335" y="130" width="5696" height="3153"/></clipPath><clipPath id="clip70"><rect x="1335" y="130" width="5696" height="3153"/></clipPath><clipPath id="clip71"><rect x="1335" y="130" width="5696" height="3153"/></clipPath><clipPath id="clip72"><rect x="1335" y="130" width="5696" height="3153"/></clipPath><clipPath id="clip73"><rect x="1335" y="130" width="5696" height="3153"/></clipPath><clipPath id="clip74"><rect x="1335" y="130" width="5696" height="3153"/></clipPath><clipPath id="clip75"><rect x="1335" y="130" width="5696" height="3153"/></clipPath><clipPath id="clip76"><rect x="1335" y="130" width="5696" height="3153"/></clipPath><clipPath id="clip77"><rect x="1335" y="130" width="5696" height="3153"/></clipPath><clipPath id="clip78"><rect x="1335" y="130" width="5696" height="3153"/></clipPath><clipPath id="clip79"><rect x="1335" y="130" width="5696" height="3153"/></clipPath><clipPath id="clip80"><rect x="1335" y="130" width="5696" height="3153"/></clipPath><clipPath id="clip81"><rect x="1335" y="130" width="5696" height="3153"/></clipPath><clipPath id="clip82"><rect x="1335" y="130" width="5696" height="3153"/></clipPath><clipPath id="clip83"><rect x="1335" y="130" width="5696" height="3153"/></clipPath><clipPath id="clip84"><rect x="1335" y="130" width="5696" height="3153"/></clipPath><clipPath id="clip85"><rect x="1335" y="130" width="5696" height="3153"/></clipPath><clipPath id="clip86"><rect x="1335" y="130" width="5696" height="3153"/></clipPath><clipPath id="clip87"><rect x="1335" y="130" width="5696" height="3153"/></clipPath><clipPath id="clip88"><rect x="1335" y="130" width="5696" height="3153"/></clipPath><clipPath id="clip89"><rect x="1335" y="130" width="5696" height="3153"/></clipPath><clipPath id="clip90"><rect x="1335" y="130" width="5696" height="3153"/></clipPath><clipPath id="clip91"><rect x="1335" y="130" width="5696" height="3153"/></clipPath><clipPath id="clip92"><rect x="1335" y="130" width="5696" height="3153"/></clipPath><clipPath id="clip93"><rect x="1335" y="130" width="5696" height="3153"/></clipPath><clipPath id="clip94"><rect x="1335" y="130" width="5696" height="3153"/></clipPath><clipPath id="clip95"><rect x="1335" y="130" width="5696" height="3153"/></clipPath><clipPath id="clip96"><rect x="1335" y="130" width="5696" height="3153"/></clipPath><clipPath id="clip97"><rect x="1335" y="130" width="5696" height="3153"/></clipPath><clipPath id="clip98"><rect x="1335" y="130" width="5696" height="3153"/></clipPath><clipPath id="clip99"><rect x="1335" y="130" width="5696" height="3153"/></clipPath><clipPath id="clip100"><rect x="1335" y="130" width="5696" height="3153"/></clipPath><linearGradient x1="3986.5" y1="3206" x2="3986.5" y2="3228" gradientUnits="userSpaceOnUse" spreadMethod="reflect" id="fill101"><stop offset="0" stop-color="#6083CB"/><stop offset="0.5" stop-color="#3E70CA"/><stop offset="1" stop-color="#2E61BA"/></linearGradient><clipPath id="clip102"><rect x="1335" y="130" width="5696" height="3153"/></clipPath><clipPath id="clip103"><rect x="1335" y="130" width="5696" height="3153"/></clipPath><linearGradient x1="4066" y1="3206" x2="4066" y2="3228" gradientUnits="userSpaceOnUse" spreadMethod="reflect" id="fill104"><stop offset="0" stop-color="#F18C55"/><stop offset="0.5" stop-color="#F67B28"/><stop offset="1" stop-color="#E56B17"/></linearGradient><clipPath id="clip105"><rect x="1335" y="130" width="5696" height="3153"/></clipPath><clipPath id="clip106"><rect x="1335" y="130" width="5696" height="3153"/></clipPath><linearGradient x1="4145.5" y1="3206" x2="4145.5" y2="3228" gradientUnits="userSpaceOnUse" spreadMethod="reflect" id="fill107"><stop offset="0" stop-color="#AFAFAF"/><stop offset="0.5" stop-color="#A5A5A5"/><stop offset="1" stop-color="#929292"/></linearGradient><clipPath id="clip108"><rect x="1335" y="130" width="5696" height="3153"/></clipPath><clipPath id="clip109"><rect x="1335" y="130" width="5696" height="3153"/></clipPath><linearGradient x1="4245.5" y1="3206" x2="4245.5" y2="3228" gradientUnits="userSpaceOnUse" spreadMethod="reflect" id="fill110"><stop offset="0" stop-color="#FFC746"/><stop offset="0.5" stop-color="#FFC600"/><stop offset="1" stop-color="#E5B600"/></linearGradient><clipPath id="clip111"><rect x="1335" y="130" width="5696" height="3153"/></clipPath><clipPath id="clip112"><rect x="1335" y="130" width="5696" height="3153"/></clipPath><linearGradient x1="4345.5" y1="3206" x2="4345.5" y2="3228" gradientUnits="userSpaceOnUse" spreadMethod="reflect" id="fill113"><stop offset="0" stop-color="#71A6DB"/><stop offset="0.5" stop-color="#559BDB"/><stop offset="1" stop-color="#438AC9"/></linearGradient><clipPath id="clip114"><rect x="1335" y="130" width="5696" height="3153"/></clipPath></defs><g clip-path="url(#clip0)" transform="translate(-1335 -130)"><rect x="1336" y="131" width="5696" height="3152" fill="#FFFFFF"/><g clip-path="url(#clip1)"><path d="M1578.5 2703.59 6981.5 2703.59M1578.5 2427.58 6981.5 2427.58M1578.5 2150.57 6981.5 2150.57M1578.5 1874.56 6981.5 1874.56M1578.5 1597.55 6981.5 1597.55M1578.5 1320.54 6981.5 1320.54M1578.5 1044.53 6981.5 1044.53M1578.5 767.525 6981.5 767.525M1578.5 491.5 6981.5 491.5" stroke="#E0E5EB" stroke-width="3.4375" stroke-linejoin="round" stroke-miterlimit="10" fill="none"/></g><g clip-path="url(#clip2)"><rect x="1656" y="2824" width="156" height="156" fill="url(#fill3)"/></g><g clip-path="url(#clip4)"><rect x="2737" y="2810" width="155" height="170" fill="url(#fill5)"/></g><g clip-path="url(#clip6)"><rect x="3817" y="2602" width="156" height="378" fill="url(#fill7)"/></g><g clip-path="url(#clip8)"><rect x="4898" y="1583" width="155" height="1397" fill="url(#fill9)"/></g><g clip-path="url(#clip10)"><rect x="5979" y="812" width="155" height="2168" fill="url(#fill11)"/></g><g clip-path="url(#clip12)"><rect x="1849" y="2937" width="155" height="43" fill="url(#fill13)"/></g><g clip-path="url(#clip14)"><rect x="2929" y="2929" width="156" height="50.9998" fill="url(#fill15)"/></g><g clip-path="url(#clip16)"><rect x="4010" y="2839" width="155" height="141" fill="url(#fill17)"/></g><g clip-path="url(#clip18)"><rect x="5091" y="2611" width="155" height="369" fill="url(#fill19)"/></g><g clip-path="url(#clip20)"><rect x="6171" y="2488" width="155" height="492" fill="url(#fill21)"/></g><g clip-path="url(#clip22)"><rect x="2041" y="2957" width="156" height="23" fill="url(#fill23)"/></g><g clip-path="url(#clip24)"><rect x="3122" y="2949" width="155" height="31" fill="url(#fill25)"/></g><g clip-path="url(#clip26)"><rect x="4202" y="2879" width="156" height="101" fill="url(#fill27)"/></g><g clip-path="url(#clip28)"><rect x="5283" y="2812" width="155" height="168" fill="url(#fill29)"/></g><g clip-path="url(#clip30)"><rect x="6364" y="2770" width="155" height="210" fill="url(#fill31)"/></g><g clip-path="url(#clip32)"><rect x="2234" y="2964" width="155" height="15.9998" fill="url(#fill33)"/></g><g clip-path="url(#clip34)"><rect x="3314" y="2957" width="156" height="23" fill="url(#fill35)"/></g><g clip-path="url(#clip36)"><rect x="4395" y="2898" width="155" height="81.9998" fill="url(#fill37)"/></g><g clip-path="url(#clip38)"><rect x="5476" y="2860" width="155" height="120" fill="url(#fill39)"/></g><g clip-path="url(#clip40)"><rect x="6556" y="2856" width="155" height="124" fill="url(#fill41)"/></g><g clip-path="url(#clip42)"><rect x="2426" y="2960" width="156" height="20" fill="url(#fill43)"/></g><g clip-path="url(#clip44)"><rect x="3507" y="2953" width="155" height="26.9998" fill="url(#fill45)"/></g><g clip-path="url(#clip46)"><rect x="4588" y="2896" width="155" height="83.9998" fill="url(#fill47)"/></g><g clip-path="url(#clip48)"><rect x="5668" y="2865" width="155" height="115" fill="url(#fill49)"/></g><g clip-path="url(#clip50)"><rect x="6749" y="2857" width="155" height="123" fill="url(#fill51)"/></g><g clip-path="url(#clip52)"><path d="M1578.5 2980.5 6981.5 2980.5" stroke="#E0E5EB" stroke-width="3.4375" stroke-linejoin="round" stroke-miterlimit="10" fill="none" fill-rule="evenodd"/></g><g clip-path="url(#clip53)"><text fill="#44546A" font-family="Calibri,Calibri_MSFontService,sans-serif" font-weight="400" font-size="41" transform="matrix(1 0 0 1 1702.75 2792)">113</text></g><g clip-path="url(#clip54)"><text fill="#44546A" font-family="Calibri,Calibri_MSFontService,sans-serif" font-weight="400" font-size="41" transform="matrix(1 0 0 1 2783.26 2778)">124</text></g><g clip-path="url(#clip55)"><text fill="#44546A" font-family="Calibri,Calibri_MSFontService,sans-serif" font-weight="400" font-size="41" transform="matrix(1 0 0 1 3863.76 2570)">273</text></g><g clip-path="url(#clip56)"><text fill="#44546A" font-family="Calibri,Calibri_MSFontService,sans-serif" font-weight="400" font-size="41" transform="matrix(1 0 0 1 4933.82 1551)">1010</text></g><g clip-path="url(#clip57)"><text fill="#44546A" font-family="Calibri,Calibri_MSFontService,sans-serif" font-weight="400" font-size="41" transform="matrix(1 0 0 1 6014.33 780)">1568</text></g><g clip-path="url(#clip58)"><text fill="#44546A" font-family="Calibri,Calibri_MSFontService,sans-serif" font-weight="400" font-size="41" transform="matrix(1 0 0 1 1905.71 2905)">32</text></g><g clip-path="url(#clip59)"><text fill="#44546A" font-family="Calibri,Calibri_MSFontService,sans-serif" font-weight="400" font-size="41" transform="matrix(1 0 0 1 2986.21 2897)">37</text></g><g clip-path="url(#clip60)"><text fill="#44546A" font-family="Calibri,Calibri_MSFontService,sans-serif" font-weight="400" font-size="41" transform="matrix(1 0 0 1 4056.27 2807)">103</text></g><g clip-path="url(#clip61)"><text fill="#44546A" font-family="Calibri,Calibri_MSFontService,sans-serif" font-weight="400" font-size="41" transform="matrix(1 0 0 1 5136.77 2579)">267</text></g><g clip-path="url(#clip62)"><text fill="#44546A" font-family="Calibri,Calibri_MSFontService,sans-serif" font-weight="400" font-size="41" transform="matrix(1 0 0 1 6217.28 2456)">356</text></g><g clip-path="url(#clip63)"><text fill="#44546A" font-family="Calibri,Calibri_MSFontService,sans-serif" font-weight="400" font-size="41" transform="matrix(1 0 0 1 2098.21 2925)">17</text></g><g clip-path="url(#clip64)"><text fill="#44546A" font-family="Calibri,Calibri_MSFontService,sans-serif" font-weight="400" font-size="41" transform="matrix(1 0 0 1 3178.72 2917)">23</text></g><g clip-path="url(#clip65)"><text fill="#44546A" font-family="Calibri,Calibri_MSFontService,sans-serif" font-weight="400" font-size="41" transform="matrix(1 0 0 1 4259.22 2847)">74</text></g><g clip-path="url(#clip66)"><text fill="#44546A" font-family="Calibri,Calibri_MSFontService,sans-serif" font-weight="400" font-size="41" transform="matrix(1 0 0 1 5329.28 2780)">122</text></g><g clip-path="url(#clip67)"><text fill="#44546A" font-family="Calibri,Calibri_MSFontService,sans-serif" font-weight="400" font-size="41" transform="matrix(1 0 0 1 6409.78 2738)">152</text></g><g clip-path="url(#clip68)"><text fill="#44546A" font-family="Calibri,Calibri_MSFontService,sans-serif" font-weight="400" font-size="41" transform="matrix(1 0 0 1 2290.71 2932)">12</text></g><g clip-path="url(#clip69)"><text fill="#44546A" font-family="Calibri,Calibri_MSFontService,sans-serif" font-weight="400" font-size="41" transform="matrix(1 0 0 1 3371.22 2925)">17</text></g><g clip-path="url(#clip70)"><text fill="#44546A" font-family="Calibri,Calibri_MSFontService,sans-serif" font-weight="400" font-size="41" transform="matrix(1 0 0 1 4451.73 2866)">60</text></g><g clip-path="url(#clip71)"><text fill="#44546A" font-family="Calibri,Calibri_MSFontService,sans-serif" font-weight="400" font-size="41" transform="matrix(1 0 0 1 5532.23 2828)">87</text></g><g clip-path="url(#clip72)"><text fill="#44546A" font-family="Calibri,Calibri_MSFontService,sans-serif" font-weight="400" font-size="41" transform="matrix(1 0 0 1 6612.74 2824)">90</text></g><g clip-path="url(#clip73)"><text fill="#44546A" font-family="Calibri,Calibri_MSFontService,sans-serif" font-weight="400" font-size="41" transform="matrix(1 0 0 1 2483.22 2928)">15</text></g><g clip-path="url(#clip74)"><text fill="#44546A" font-family="Calibri,Calibri_MSFontService,sans-serif" font-weight="400" font-size="41" transform="matrix(1 0 0 1 3563.72 2921)">20</text></g><g clip-path="url(#clip75)"><text fill="#44546A" font-family="Calibri,Calibri_MSFontService,sans-serif" font-weight="400" font-size="41" transform="matrix(1 0 0 1 4644.23 2864)">61</text></g><g clip-path="url(#clip76)"><text fill="#44546A" font-family="Calibri,Calibri_MSFontService,sans-serif" font-weight="400" font-size="41" transform="matrix(1 0 0 1 5724.74 2833)">83</text></g><g clip-path="url(#clip77)"><text fill="#44546A" font-family="Calibri,Calibri_MSFontService,sans-serif" font-weight="400" font-size="41" transform="matrix(1 0 0 1 6805.24 2825)">90</text></g><g clip-path="url(#clip78)"><text fill="#44546A" font-family="Calibri,Calibri_MSFontService,sans-serif" font-weight="400" font-size="41" transform="matrix(1 0 0 1 1519.69 2992)">0</text></g><g clip-path="url(#clip79)"><text fill="#44546A" font-family="Calibri,Calibri_MSFontService,sans-serif" font-weight="400" font-size="41" transform="matrix(1 0 0 1 1477.89 2715)">200</text></g><g clip-path="url(#clip80)"><text fill="#44546A" font-family="Calibri,Calibri_MSFontService,sans-serif" font-weight="400" font-size="41" transform="matrix(1 0 0 1 1477.89 2439)">400</text></g><g clip-path="url(#clip81)"><text fill="#44546A" font-family="Calibri,Calibri_MSFontService,sans-serif" font-weight="400" font-size="41" transform="matrix(1 0 0 1 1477.89 2162)">600</text></g><g clip-path="url(#clip82)"><text fill="#44546A" font-family="Calibri,Calibri_MSFontService,sans-serif" font-weight="400" font-size="41" transform="matrix(1 0 0 1 1477.89 1886)">800</text></g><g clip-path="url(#clip83)"><text fill="#44546A" font-family="Calibri,Calibri_MSFontService,sans-serif" font-weight="400" font-size="41" transform="matrix(1 0 0 1 1456.99 1609)">1000</text></g><g clip-path="url(#clip84)"><text fill="#44546A" font-family="Calibri,Calibri_MSFontService,sans-serif" font-weight="400" font-size="41" transform="matrix(1 0 0 1 1456.99 1332)">1200</text></g><g clip-path="url(#clip85)"><text fill="#44546A" font-family="Calibri,Calibri_MSFontService,sans-serif" font-weight="400" font-size="41" transform="matrix(1 0 0 1 1456.99 1056)">1400</text></g><g clip-path="url(#clip86)"><text fill="#44546A" font-family="Calibri,Calibri_MSFontService,sans-serif" font-weight="400" font-size="41" transform="matrix(1 0 0 1 1456.99 779)">1600</text></g><g clip-path="url(#clip87)"><text fill="#44546A" font-family="Calibri,Calibri_MSFontService,sans-serif" font-weight="400" font-size="41" transform="matrix(1 0 0 1 1456.99 503)">1800</text></g><g clip-path="url(#clip88)"><text fill="#44546A" font-family="Calibri,Calibri_MSFontService,sans-serif" font-weight="400" font-size="41" transform="matrix(1 0 0 1 2098.21 3046)">20</text></g><g clip-path="url(#clip89)"><text fill="#44546A" font-family="Calibri,Calibri_MSFontService,sans-serif" font-weight="400" font-size="41" transform="matrix(1 0 0 1 3178.72 3046)">32</text></g><g clip-path="url(#clip90)"><text fill="#44546A" font-family="Calibri,Calibri_MSFontService,sans-serif" font-weight="400" font-size="41" transform="matrix(1 0 0 1 4248.77 3046)">128</text></g><g clip-path="url(#clip91)"><text fill="#44546A" font-family="Calibri,Calibri_MSFontService,sans-serif" font-weight="400" font-size="41" transform="matrix(1 0 0 1 5329.28 3046)">384</text></g><g clip-path="url(#clip92)"><text fill="#44546A" font-family="Calibri,Calibri_MSFontService,sans-serif" font-weight="400" font-size="41" transform="matrix(1 0 0 1 6409.78 3046)">512</text></g><g clip-path="url(#clip93)"><text fill="#44546A" font-family="Calibri,Calibri_MSFontService,sans-serif" font-weight="700" font-size="41" transform="matrix(6.12323e-17 -1 1 6.12323e-17 1431.9 1844)">Latency (ms)</text></g><g clip-path="url(#clip94)"><text fill="#44546A" font-family="Calibri,Calibri_MSFontService,sans-serif" font-weight="700" font-size="41" transform="matrix(1 0 0 1 4139.23 3110)">Sequence Length</text></g><g clip-path="url(#clip95)"><text fill="#44546A" font-family="Calibri,Calibri_MSFontService,sans-serif" font-weight="700" font-size="73" transform="matrix(1 0 0 1 3546.1 235)">Intel Ice lake Xeon 8380 </text></g><g clip-path="url(#clip96)"><text fill="#44546A" font-family="Calibri,Calibri_MSFontService,sans-serif" font-weight="700" font-size="73" transform="matrix(1 0 0 1 4281.45 235)">-</text></g><g clip-path="url(#clip97)"><text fill="#44546A" font-family="Calibri,Calibri_MSFontService,sans-serif" font-weight="700" font-size="73" transform="matrix(1 0 0 1 4320.48 235)">Intel TensorFlow</text></g><g clip-path="url(#clip98)"><text fill="#44546A" font-family="Calibri,Calibri_MSFontService,sans-serif" font-weight="700" font-size="73" transform="matrix(1 0 0 1 2910.14 324)">Latency Benchmark with varying number of CPU cores involved in the computations</text></g><g clip-path="url(#clip99)"><text fill="#44546A" font-family="Calibri,Calibri_MSFontService,sans-serif" font-weight="700" font-size="73" transform="matrix(1 0 0 1 3091.23 414)">(some data might be missing indicating benchmark crashed during runs)</text></g><g clip-path="url(#clip100)"><rect x="3975" y="3206" width="23" height="22" fill="url(#fill101)"/></g><g clip-path="url(#clip102)"><text fill="#44546A" font-family="Calibri,Calibri_MSFontService,sans-serif" font-weight="400" font-size="41" transform="matrix(1 0 0 1 4007.6 3229)">1</text></g><g clip-path="url(#clip103)"><rect x="4055" y="3206" width="22" height="22" fill="url(#fill104)"/></g><g clip-path="url(#clip105)"><text fill="#44546A" font-family="Calibri,Calibri_MSFontService,sans-serif" font-weight="400" font-size="41" transform="matrix(1 0 0 1 4086.94 3229)">4</text></g><g clip-path="url(#clip106)"><rect x="4134" y="3206" width="23" height="22" fill="url(#fill107)"/></g><g clip-path="url(#clip108)"><text fill="#44546A" font-family="Calibri,Calibri_MSFontService,sans-serif" font-weight="400" font-size="41" transform="matrix(1 0 0 1 4166.27 3229)">16</text></g><g clip-path="url(#clip109)"><rect x="4234" y="3206" width="23" height="22" fill="url(#fill110)"/></g><g clip-path="url(#clip111)"><text fill="#44546A" font-family="Calibri,Calibri_MSFontService,sans-serif" font-weight="400" font-size="41" transform="matrix(1 0 0 1 4266.51 3229)">40</text></g><g clip-path="url(#clip112)"><rect x="4334" y="3206" width="23" height="22" fill="url(#fill113)"/></g><g clip-path="url(#clip114)"><text fill="#44546A" font-family="Calibri,Calibri_MSFontService,sans-serif" font-weight="400" font-size="41" transform="matrix(1 0 0 1 4366.75 3229)">80</text></g><rect x="1336.5" y="131.5" width="5696" height="3152" stroke="#E0E5EB" stroke-width="3.4375" stroke-linejoin="round" stroke-miterlimit="10" fill="none"/></g></svg>