<svg width="5724" height="3155" xmlns="http://www.w3.org/2000/svg" xmlns:xlink="http://www.w3.org/1999/xlink" overflow="hidden"><defs><clipPath id="clip0"><rect x="1263" y="130" width="5724" height="3155"/></clipPath><clipPath id="clip1"><rect x="1263" y="130" width="5722" height="3153"/></clipPath><clipPath id="clip2"><rect x="1506" y="491" width="5432" height="2492"/></clipPath><linearGradient x1="1663" y1="2839" x2="1663" y2="2980" gradientUnits="userSpaceOnUse" spreadMethod="reflect" id="fill3"><stop offset="0" stop-color="#6083CB"/><stop offset="0.5" stop-color="#3E70CA"/><stop offset="1" stop-color="#2E61BA"/></linearGradient><clipPath id="clip4"><rect x="1506" y="491" width="5432" height="2492"/></clipPath><linearGradient x1="2748.5" y1="2827" x2="2748.5" y2="2980" gradientUnits="userSpaceOnUse" spreadMethod="reflect" id="fill5"><stop offset="0" stop-color="#6083CB"/><stop offset="0.5" stop-color="#3E70CA"/><stop offset="1" stop-color="#2E61BA"/></linearGradient><clipPath id="clip6"><rect x="1506" y="491" width="5432" height="2492"/></clipPath><linearGradient x1="3834" y1="2543" x2="3834" y2="2980" gradientUnits="userSpaceOnUse" spreadMethod="reflect" id="fill7"><stop offset="0" stop-color="#6083CB"/><stop offset="0.5" stop-color="#3E70CA"/><stop offset="1" stop-color="#2E61BA"/></linearGradient><clipPath id="clip8"><rect x="1506" y="491" width="5432" height="2492"/></clipPath><linearGradient x1="4920" y1="1380" x2="4920" y2="2980" gradientUnits="userSpaceOnUse" spreadMethod="reflect" id="fill9"><stop offset="0" stop-color="#6083CB"/><stop offset="0.5" stop-color="#3E70CA"/><stop offset="1" stop-color="#2E61BA"/></linearGradient><clipPath id="clip10"><rect x="1506" y="491" width="5432" height="2492"/></clipPath><linearGradient x1="6005" y1="675" x2="6005" y2="2980" gradientUnits="userSpaceOnUse" spreadMethod="reflect" id="fill11"><stop offset="0" stop-color="#6083CB"/><stop offset="0.5" stop-color="#3E70CA"/><stop offset="1" stop-color="#2E61BA"/></linearGradient><clipPath id="clip12"><rect x="1506" y="491" width="5432" height="2492"/></clipPath><linearGradient x1="1856" y1="2936" x2="1856" y2="2980" gradientUnits="userSpaceOnUse" spreadMethod="reflect" id="fill13"><stop offset="0" stop-color="#F18C55"/><stop offset="0.5" stop-color="#F67B28"/><stop offset="1" stop-color="#E56B17"/></linearGradient><clipPath id="clip14"><rect x="1506" y="491" width="5432" height="2492"/></clipPath><linearGradient x1="2942" y1="2906" x2="2942" y2="2980" gradientUnits="userSpaceOnUse" spreadMethod="reflect" id="fill15"><stop offset="0" stop-color="#F18C55"/><stop offset="0.5" stop-color="#F67B28"/><stop offset="1" stop-color="#E56B17"/></linearGradient><clipPath id="clip16"><rect x="1506" y="491" width="5432" height="2492"/></clipPath><linearGradient x1="4027" y1="2808" x2="4027" y2="2980" gradientUnits="userSpaceOnUse" spreadMethod="reflect" id="fill17"><stop offset="0" stop-color="#F18C55"/><stop offset="0.5" stop-color="#F67B28"/><stop offset="1" stop-color="#E56B17"/></linearGradient><clipPath id="clip18"><rect x="1506" y="491" width="5432" height="2492"/></clipPath><linearGradient x1="5113" y1="2591" x2="5113" y2="2980" gradientUnits="userSpaceOnUse" spreadMethod="reflect" id="fill19"><stop offset="0" stop-color="#F18C55"/><stop offset="0.5" stop-color="#F67B28"/><stop offset="1" stop-color="#E56B17"/></linearGradient><clipPath id="clip20"><rect x="1506" y="491" width="5432" height="2492"/></clipPath><linearGradient x1="6199" y1="2447" x2="6199" y2="2980" gradientUnits="userSpaceOnUse" spreadMethod="reflect" id="fill21"><stop offset="0" stop-color="#F18C55"/><stop offset="0.5" stop-color="#F67B28"/><stop offset="1" stop-color="#E56B17"/></linearGradient><clipPath id="clip22"><rect x="1506" y="491" width="5432" height="2492"/></clipPath><linearGradient x1="2050" y1="2952" x2="2050" y2="2980" gradientUnits="userSpaceOnUse" spreadMethod="reflect" id="fill23"><stop offset="0" stop-color="#AFAFAF"/><stop offset="0.5" stop-color="#A5A5A5"/><stop offset="1" stop-color="#929292"/></linearGradient><clipPath id="clip24"><rect x="1506" y="491" width="5432" height="2492"/></clipPath><linearGradient x1="3135" y1="2940" x2="3135" y2="2980" gradientUnits="userSpaceOnUse" spreadMethod="reflect" id="fill25"><stop offset="0" stop-color="#AFAFAF"/><stop offset="0.5" stop-color="#A5A5A5"/><stop offset="1" stop-color="#929292"/></linearGradient><clipPath id="clip26"><rect x="1506" y="491" width="5432" height="2492"/></clipPath><linearGradient x1="4221" y1="2874" x2="4221" y2="2980" gradientUnits="userSpaceOnUse" spreadMethod="reflect" id="fill27"><stop offset="0" stop-color="#AFAFAF"/><stop offset="0.5" stop-color="#A5A5A5"/><stop offset="1" stop-color="#929292"/></linearGradient><clipPath id="clip28"><rect x="1506" y="491" width="5432" height="2492"/></clipPath><linearGradient x1="5306" y1="2777" x2="5306" y2="2980" gradientUnits="userSpaceOnUse" spreadMethod="reflect" id="fill29"><stop offset="0" stop-color="#AFAFAF"/><stop offset="0.5" stop-color="#A5A5A5"/><stop offset="1" stop-color="#929292"/></linearGradient><clipPath id="clip30"><rect x="1506" y="491" width="5432" height="2492"/></clipPath><linearGradient x1="6392" y1="2756" x2="6392" y2="2980" gradientUnits="userSpaceOnUse" spreadMethod="reflect" id="fill31"><stop offset="0" stop-color="#AFAFAF"/><stop offset="0.5" stop-color="#A5A5A5"/><stop offset="1" stop-color="#929292"/></linearGradient><clipPath id="clip32"><rect x="1506" y="491" width="5432" height="2492"/></clipPath><linearGradient x1="2243" y1="2961" x2="2243" y2="2980" gradientUnits="userSpaceOnUse" spreadMethod="reflect" id="fill33"><stop offset="0" stop-color="#FFC746"/><stop offset="0.5" stop-color="#FFC600"/><stop offset="1" stop-color="#E5B600"/></linearGradient><clipPath id="clip34"><rect x="1506" y="491" width="5432" height="2492"/></clipPath><linearGradient x1="3329" y1="2953" x2="3329" y2="2980" gradientUnits="userSpaceOnUse" spreadMethod="reflect" id="fill35"><stop offset="0" stop-color="#FFC746"/><stop offset="0.5" stop-color="#FFC600"/><stop offset="1" stop-color="#E5B600"/></linearGradient><clipPath id="clip36"><rect x="1506" y="491" width="5432" height="2492"/></clipPath><linearGradient x1="4414" y1="2918" x2="4414" y2="2980" gradientUnits="userSpaceOnUse" spreadMethod="reflect" id="fill37"><stop offset="0" stop-color="#FFC746"/><stop offset="0.5" stop-color="#FFC600"/><stop offset="1" stop-color="#E5B600"/></linearGradient><clipPath id="clip38"><rect x="1506" y="491" width="5432" height="2492"/></clipPath><linearGradient x1="5500" y1="2876" x2="5500" y2="2980" gradientUnits="userSpaceOnUse" spreadMethod="reflect" id="fill39"><stop offset="0" stop-color="#FFC746"/><stop offset="0.5" stop-color="#FFC600"/><stop offset="1" stop-color="#E5B600"/></linearGradient><clipPath id="clip40"><rect x="1506" y="491" width="5432" height="2492"/></clipPath><linearGradient x1="6585" y1="2862" x2="6585" y2="2980" gradientUnits="userSpaceOnUse" spreadMethod="reflect" id="fill41"><stop offset="0" stop-color="#FFC746"/><stop offset="0.5" stop-color="#FFC600"/><stop offset="1" stop-color="#E5B600"/></linearGradient><clipPath id="clip42"><rect x="1506" y="491" width="5432" height="2492"/></clipPath><linearGradient x1="2437" y1="2958" x2="2437" y2="2980" gradientUnits="userSpaceOnUse" spreadMethod="reflect" id="fill43"><stop offset="0" stop-color="#71A6DB"/><stop offset="0.5" stop-color="#559BDB"/><stop offset="1" stop-color="#438AC9"/></linearGradient><clipPath id="clip44"><rect x="1506" y="491" width="5432" height="2492"/></clipPath><linearGradient x1="3522" y1="2945" x2="3522" y2="2980" gradientUnits="userSpaceOnUse" spreadMethod="reflect" id="fill45"><stop offset="0" stop-color="#71A6DB"/><stop offset="0.5" stop-color="#559BDB"/><stop offset="1" stop-color="#438AC9"/></linearGradient><clipPath id="clip46"><rect x="1506" y="491" width="5432" height="2492"/></clipPath><linearGradient x1="4608" y1="2882" x2="4608" y2="2980" gradientUnits="userSpaceOnUse" spreadMethod="reflect" id="fill47"><stop offset="0" stop-color="#71A6DB"/><stop offset="0.5" stop-color="#559BDB"/><stop offset="1" stop-color="#438AC9"/></linearGradient><clipPath id="clip48"><rect x="1506" y="491" width="5432" height="2492"/></clipPath><linearGradient x1="5693" y1="2835" x2="5693" y2="2980" gradientUnits="userSpaceOnUse" spreadMethod="reflect" id="fill49"><stop offset="0" stop-color="#71A6DB"/><stop offset="0.5" stop-color="#559BDB"/><stop offset="1" stop-color="#438AC9"/></linearGradient><clipPath id="clip50"><rect x="1506" y="491" width="5432" height="2492"/></clipPath><linearGradient x1="6779" y1="2820" x2="6779" y2="2980" gradientUnits="userSpaceOnUse" spreadMethod="reflect" id="fill51"><stop offset="0" stop-color="#71A6DB"/><stop offset="0.5" stop-color="#559BDB"/><stop offset="1" stop-color="#438AC9"/></linearGradient><clipPath id="clip52"><rect x="1263" y="130" width="5722" height="3153"/></clipPath><clipPath id="clip53"><rect x="1263" y="130" width="5722" height="3153"/></clipPath><clipPath id="clip54"><rect x="1263" y="130" width="5722" height="3153"/></clipPath><clipPath id="clip55"><rect x="1263" y="130" width="5722" height="3153"/></clipPath><clipPath id="clip56"><rect x="1263" y="130" width="5722" height="3153"/></clipPath><clipPath id="clip57"><rect x="1263" y="130" width="5722" height="3153"/></clipPath><clipPath id="clip58"><rect x="1263" y="130" width="5722" height="3153"/></clipPath><clipPath id="clip59"><rect x="1263" y="130" width="5722" height="3153"/></clipPath><clipPath id="clip60"><rect x="1263" y="130" width="5722" height="3153"/></clipPath><clipPath id="clip61"><rect x="1263" y="130" width="5722" height="3153"/></clipPath><clipPath id="clip62"><rect x="1263" y="130" width="5722" height="3153"/></clipPath><clipPath id="clip63"><rect x="1263" y="130" width="5722" height="3153"/></clipPath><clipPath id="clip64"><rect x="1263" y="130" width="5722" height="3153"/></clipPath><clipPath id="clip65"><rect x="1263" y="130" width="5722" height="3153"/></clipPath><clipPath id="clip66"><rect x="1263" y="130" width="5722" height="3153"/></clipPath><clipPath id="clip67"><rect x="1263" y="130" width="5722" height="3153"/></clipPath><clipPath id="clip68"><rect x="1263" y="130" width="5722" height="3153"/></clipPath><clipPath id="clip69"><rect x="1263" y="130" width="5722" height="3153"/></clipPath><clipPath id="clip70"><rect x="1263" y="130" width="5722" height="3153"/></clipPath><clipPath id="clip71"><rect x="1263" y="130" width="5722" height="3153"/></clipPath><clipPath id="clip72"><rect x="1263" y="130" width="5722" height="3153"/></clipPath><clipPath id="clip73"><rect x="1263" y="130" width="5722" height="3153"/></clipPath><clipPath id="clip74"><rect x="1263" y="130" width="5722" height="3153"/></clipPath><clipPath id="clip75"><rect x="1263" y="130" width="5722" height="3153"/></clipPath><clipPath id="clip76"><rect x="1263" y="130" width="5722" height="3153"/></clipPath><clipPath id="clip77"><rect x="1263" y="130" width="5722" height="3153"/></clipPath><clipPath id="clip78"><rect x="1263" y="130" width="5722" height="3153"/></clipPath><clipPath id="clip79"><rect x="1263" y="130" width="5722" height="3153"/></clipPath><clipPath id="clip80"><rect x="1263" y="130" width="5722" height="3153"/></clipPath><clipPath id="clip81"><rect x="1263" y="130" width="5722" height="3153"/></clipPath><clipPath id="clip82"><rect x="1263" y="130" width="5722" height="3153"/></clipPath><clipPath id="clip83"><rect x="1263" y="130" width="5722" height="3153"/></clipPath><clipPath id="clip84"><rect x="1263" y="130" width="5722" height="3153"/></clipPath><clipPath id="clip85"><rect x="1263" y="130" width="5722" height="3153"/></clipPath><clipPath id="clip86"><rect x="1263" y="130" width="5722" height="3153"/></clipPath><clipPath id="clip87"><rect x="1263" y="130" width="5722" height="3153"/></clipPath><clipPath id="clip88"><rect x="1263" y="130" width="5722" height="3153"/></clipPath><clipPath id="clip89"><rect x="1263" y="130" width="5722" height="3153"/></clipPath><clipPath id="clip90"><rect x="1263" y="130" width="5722" height="3153"/></clipPath><clipPath id="clip91"><rect x="1263" y="130" width="5722" height="3153"/></clipPath><clipPath id="clip92"><rect x="1263" y="130" width="5722" height="3153"/></clipPath><clipPath id="clip93"><rect x="1263" y="130" width="5722" height="3153"/></clipPath><clipPath id="clip94"><rect x="1263" y="130" width="5722" height="3153"/></clipPath><clipPath id="clip95"><rect x="1263" y="130" width="5722" height="3153"/></clipPath><clipPath id="clip96"><rect x="1263" y="130" width="5722" height="3153"/></clipPath><clipPath id="clip97"><rect x="1263" y="130" width="5722" height="3153"/></clipPath><clipPath id="clip98"><rect x="1263" y="130" width="5722" height="3153"/></clipPath><clipPath id="clip99"><rect x="1263" y="130" width="5722" height="3153"/></clipPath><clipPath id="clip100"><rect x="1263" y="130" width="5722" height="3153"/></clipPath><clipPath id="clip101"><rect x="1263" y="130" width="5722" height="3153"/></clipPath><linearGradient x1="3927.5" y1="3206" x2="3927.5" y2="3228" gradientUnits="userSpaceOnUse" spreadMethod="reflect" id="fill102"><stop offset="0" stop-color="#6083CB"/><stop offset="0.5" stop-color="#3E70CA"/><stop offset="1" stop-color="#2E61BA"/></linearGradient><clipPath id="clip103"><rect x="1263" y="130" width="5722" height="3153"/></clipPath><clipPath id="clip104"><rect x="1263" y="130" width="5722" height="3153"/></clipPath><linearGradient x1="4006.5" y1="3206" x2="4006.5" y2="3228" gradientUnits="userSpaceOnUse" spreadMethod="reflect" id="fill105"><stop offset="0" stop-color="#F18C55"/><stop offset="0.5" stop-color="#F67B28"/><stop offset="1" stop-color="#E56B17"/></linearGradient><clipPath id="clip106"><rect x="1263" y="130" width="5722" height="3153"/></clipPath><clipPath id="clip107"><rect x="1263" y="130" width="5722" height="3153"/></clipPath><linearGradient x1="4086" y1="3206" x2="4086" y2="3228" gradientUnits="userSpaceOnUse" spreadMethod="reflect" id="fill108"><stop offset="0" stop-color="#AFAFAF"/><stop offset="0.5" stop-color="#A5A5A5"/><stop offset="1" stop-color="#929292"/></linearGradient><clipPath id="clip109"><rect x="1263" y="130" width="5722" height="3153"/></clipPath><clipPath id="clip110"><rect x="1263" y="130" width="5722" height="3153"/></clipPath><linearGradient x1="4186.5" y1="3206" x2="4186.5" y2="3228" gradientUnits="userSpaceOnUse" spreadMethod="reflect" id="fill111"><stop offset="0" stop-color="#FFC746"/><stop offset="0.5" stop-color="#FFC600"/><stop offset="1" stop-color="#E5B600"/></linearGradient><clipPath id="clip112"><rect x="1263" y="130" width="5722" height="3153"/></clipPath><clipPath id="clip113"><rect x="1263" y="130" width="5722" height="3153"/></clipPath><linearGradient x1="4286.5" y1="3206" x2="4286.5" y2="3228" gradientUnits="userSpaceOnUse" spreadMethod="reflect" id="fill114"><stop offset="0" stop-color="#71A6DB"/><stop offset="0.5" stop-color="#559BDB"/><stop offset="1" stop-color="#438AC9"/></linearGradient><clipPath id="clip115"><rect x="1263" y="130" width="5722" height="3153"/></clipPath></defs><g clip-path="url(#clip0)" transform="translate(-1263 -130)"><rect x="1264" y="131" width="5721" height="3152" fill="#FFFFFF"/><g clip-path="url(#clip1)"><path d="M1506.5 2731.59 6934.5 2731.59M1506.5 2482.58 6934.5 2482.58M1506.5 2233.57 6934.5 2233.57M1506.5 1984.57 6934.5 1984.57M1506.5 1735.56 6934.5 1735.56M1506.5 1486.55 6934.5 1486.55M1506.5 1237.54 6934.5 1237.54M1506.5 988.533 6934.5 988.533M1506.5 740.524 6934.5 740.524M1506.5 491.5 6934.5 491.5" stroke="#E0E5EB" stroke-width="3.4375" stroke-linejoin="round" stroke-miterlimit="10" fill="none"/></g><g clip-path="url(#clip2)"><rect x="1585" y="2839" width="156" height="141" fill="url(#fill3)"/></g><g clip-path="url(#clip4)"><rect x="2671" y="2827" width="155" height="153" fill="url(#fill5)"/></g><g clip-path="url(#clip6)"><rect x="3756" y="2543" width="156" height="437" fill="url(#fill7)"/></g><g clip-path="url(#clip8)"><rect x="4842" y="1380" width="156" height="1600" fill="url(#fill9)"/></g><g clip-path="url(#clip10)"><rect x="5927" y="675" width="156" height="2305" fill="url(#fill11)"/></g><g clip-path="url(#clip12)"><rect x="1778" y="2936" width="156" height="44" fill="url(#fill13)"/></g><g clip-path="url(#clip14)"><rect x="2864" y="2906" width="156" height="74" fill="url(#fill15)"/></g><g clip-path="url(#clip16)"><rect x="3949" y="2808" width="156" height="172" fill="url(#fill17)"/></g><g clip-path="url(#clip18)"><rect x="5035" y="2591" width="156" height="389" fill="url(#fill19)"/></g><g clip-path="url(#clip20)"><rect x="6121" y="2447" width="156" height="533" fill="url(#fill21)"/></g><g clip-path="url(#clip22)"><rect x="1972" y="2952" width="156" height="27.9998" fill="url(#fill23)"/></g><g clip-path="url(#clip24)"><rect x="3057" y="2940" width="156" height="39.9998" fill="url(#fill25)"/></g><g clip-path="url(#clip26)"><rect x="4143" y="2874" width="156" height="106" fill="url(#fill27)"/></g><g clip-path="url(#clip28)"><rect x="5228" y="2777" width="156" height="203" fill="url(#fill29)"/></g><g clip-path="url(#clip30)"><rect x="6314" y="2756" width="156" height="224" fill="url(#fill31)"/></g><g clip-path="url(#clip32)"><rect x="2165" y="2961" width="156" height="19" fill="url(#fill33)"/></g><g clip-path="url(#clip34)"><rect x="3251" y="2953" width="156" height="26.9998" fill="url(#fill35)"/></g><g clip-path="url(#clip36)"><rect x="4336" y="2918" width="156" height="61.9998" fill="url(#fill37)"/></g><g clip-path="url(#clip38)"><rect x="5422" y="2876" width="156" height="104" fill="url(#fill39)"/></g><g clip-path="url(#clip40)"><rect x="6507" y="2862" width="156" height="118" fill="url(#fill41)"/></g><g clip-path="url(#clip42)"><rect x="2359" y="2958" width="156" height="22" fill="url(#fill43)"/></g><g clip-path="url(#clip44)"><rect x="3444" y="2945" width="156" height="35" fill="url(#fill45)"/></g><g clip-path="url(#clip46)"><rect x="4530" y="2882" width="156" height="98" fill="url(#fill47)"/></g><g clip-path="url(#clip48)"><rect x="5615" y="2835" width="156" height="145" fill="url(#fill49)"/></g><g clip-path="url(#clip50)"><rect x="6701" y="2820" width="156" height="160" fill="url(#fill51)"/></g><g clip-path="url(#clip52)"><path d="M1506.5 2980.5 6934.5 2980.5" stroke="#E0E5EB" stroke-width="3.4375" stroke-linejoin="round" stroke-miterlimit="10" fill="none" fill-rule="evenodd"/></g><g clip-path="url(#clip53)"><text fill="#44546A" font-family="Calibri,Calibri_MSFontService,sans-serif" font-weight="400" font-size="41" transform="matrix(1 0 0 1 1631.56 2807)">114</text></g><g clip-path="url(#clip54)"><text fill="#44546A" font-family="Calibri,Calibri_MSFontService,sans-serif" font-weight="400" font-size="41" transform="matrix(1 0 0 1 2717.14 2795)">124</text></g><g clip-path="url(#clip55)"><text fill="#44546A" font-family="Calibri,Calibri_MSFontService,sans-serif" font-weight="400" font-size="41" transform="matrix(1 0 0 1 3802.72 2511)">351</text></g><g clip-path="url(#clip56)"><text fill="#44546A" font-family="Calibri,Calibri_MSFontService,sans-serif" font-weight="400" font-size="41" transform="matrix(1 0 0 1 4877.86 1348)">1286</text></g><g clip-path="url(#clip57)"><text fill="#44546A" font-family="Calibri,Calibri_MSFontService,sans-serif" font-weight="400" font-size="41" transform="matrix(1 0 0 1 5963.44 643)">1852</text></g><g clip-path="url(#clip58)"><text fill="#44546A" font-family="Calibri,Calibri_MSFontService,sans-serif" font-weight="400" font-size="41" transform="matrix(1 0 0 1 1835.42 2904)">36</text></g><g clip-path="url(#clip59)"><text fill="#44546A" font-family="Calibri,Calibri_MSFontService,sans-serif" font-weight="400" font-size="41" transform="matrix(1 0 0 1 2921 2874)">59</text></g><g clip-path="url(#clip60)"><text fill="#44546A" font-family="Calibri,Calibri_MSFontService,sans-serif" font-weight="400" font-size="41" transform="matrix(1 0 0 1 3996.13 2776)">139</text></g><g clip-path="url(#clip61)"><text fill="#44546A" font-family="Calibri,Calibri_MSFontService,sans-serif" font-weight="400" font-size="41" transform="matrix(1 0 0 1 5081.71 2559)">313</text></g><g clip-path="url(#clip62)"><text fill="#44546A" font-family="Calibri,Calibri_MSFontService,sans-serif" font-weight="400" font-size="41" transform="matrix(1 0 0 1 6167.3 2415)">429</text></g><g clip-path="url(#clip63)"><text fill="#44546A" font-family="Calibri,Calibri_MSFontService,sans-serif" font-weight="400" font-size="41" transform="matrix(1 0 0 1 2028.83 2920)">23</text></g><g clip-path="url(#clip64)"><text fill="#44546A" font-family="Calibri,Calibri_MSFontService,sans-serif" font-weight="400" font-size="41" transform="matrix(1 0 0 1 3114.41 2908)">32</text></g><g clip-path="url(#clip65)"><text fill="#44546A" font-family="Calibri,Calibri_MSFontService,sans-serif" font-weight="400" font-size="41" transform="matrix(1 0 0 1 4199.99 2842)">86</text></g><g clip-path="url(#clip66)"><text fill="#44546A" font-family="Calibri,Calibri_MSFontService,sans-serif" font-weight="400" font-size="41" transform="matrix(1 0 0 1 5275.12 2745)">164</text></g><g clip-path="url(#clip67)"><text fill="#44546A" font-family="Calibri,Calibri_MSFontService,sans-serif" font-weight="400" font-size="41" transform="matrix(1 0 0 1 6360.71 2724)">181</text></g><g clip-path="url(#clip68)"><text fill="#44546A" font-family="Calibri,Calibri_MSFontService,sans-serif" font-weight="400" font-size="41" transform="matrix(1 0 0 1 2222.23 2929)">16</text></g><g clip-path="url(#clip69)"><text fill="#44546A" font-family="Calibri,Calibri_MSFontService,sans-serif" font-weight="400" font-size="41" transform="matrix(1 0 0 1 3307.82 2921)">22</text></g><g clip-path="url(#clip70)"><text fill="#44546A" font-family="Calibri,Calibri_MSFontService,sans-serif" font-weight="400" font-size="41" transform="matrix(1 0 0 1 4393.4 2886)">50</text></g><g clip-path="url(#clip71)"><text fill="#44546A" font-family="Calibri,Calibri_MSFontService,sans-serif" font-weight="400" font-size="41" transform="matrix(1 0 0 1 5478.98 2844)">84</text></g><g clip-path="url(#clip72)"><text fill="#44546A" font-family="Calibri,Calibri_MSFontService,sans-serif" font-weight="400" font-size="41" transform="matrix(1 0 0 1 6564.56 2830)">96</text></g><g clip-path="url(#clip73)"><text fill="#44546A" font-family="Calibri,Calibri_MSFontService,sans-serif" font-weight="400" font-size="41" transform="matrix(1 0 0 1 2415.64 2926)">18</text></g><g clip-path="url(#clip74)"><text fill="#44546A" font-family="Calibri,Calibri_MSFontService,sans-serif" font-weight="400" font-size="41" transform="matrix(1 0 0 1 3501.22 2913)">28</text></g><g clip-path="url(#clip75)"><text fill="#44546A" font-family="Calibri,Calibri_MSFontService,sans-serif" font-weight="400" font-size="41" transform="matrix(1 0 0 1 4586.81 2850)">79</text></g><g clip-path="url(#clip76)"><text fill="#44546A" font-family="Calibri,Calibri_MSFontService,sans-serif" font-weight="400" font-size="41" transform="matrix(1 0 0 1 5661.94 2803)">117</text></g><g clip-path="url(#clip77)"><text fill="#44546A" font-family="Calibri,Calibri_MSFontService,sans-serif" font-weight="400" font-size="41" transform="matrix(1 0 0 1 6747.52 2788)">129</text></g><g clip-path="url(#clip78)"><text fill="#44546A" font-family="Calibri,Calibri_MSFontService,sans-serif" font-weight="400" font-size="41" transform="matrix(1 0 0 1 1447.77 2992)">0</text></g><g clip-path="url(#clip79)"><text fill="#44546A" font-family="Calibri,Calibri_MSFontService,sans-serif" font-weight="400" font-size="41" transform="matrix(1 0 0 1 1405.97 2743)">200</text></g><g clip-path="url(#clip80)"><text fill="#44546A" font-family="Calibri,Calibri_MSFontService,sans-serif" font-weight="400" font-size="41" transform="matrix(1 0 0 1 1405.97 2494)">400</text></g><g clip-path="url(#clip81)"><text fill="#44546A" font-family="Calibri,Calibri_MSFontService,sans-serif" font-weight="400" font-size="41" transform="matrix(1 0 0 1 1405.97 2245)">600</text></g><g clip-path="url(#clip82)"><text fill="#44546A" font-family="Calibri,Calibri_MSFontService,sans-serif" font-weight="400" font-size="41" transform="matrix(1 0 0 1 1405.97 1996)">800</text></g><g clip-path="url(#clip83)"><text fill="#44546A" font-family="Calibri,Calibri_MSFontService,sans-serif" font-weight="400" font-size="41" transform="matrix(1 0 0 1 1385.07 1747)">1000</text></g><g clip-path="url(#clip84)"><text fill="#44546A" font-family="Calibri,Calibri_MSFontService,sans-serif" font-weight="400" font-size="41" transform="matrix(1 0 0 1 1385.07 1498)">1200</text></g><g clip-path="url(#clip85)"><text fill="#44546A" font-family="Calibri,Calibri_MSFontService,sans-serif" font-weight="400" font-size="41" transform="matrix(1 0 0 1 1385.07 1249)">1400</text></g><g clip-path="url(#clip86)"><text fill="#44546A" font-family="Calibri,Calibri_MSFontService,sans-serif" font-weight="400" font-size="41" transform="matrix(1 0 0 1 1385.07 1001)">1600</text></g><g clip-path="url(#clip87)"><text fill="#44546A" font-family="Calibri,Calibri_MSFontService,sans-serif" font-weight="400" font-size="41" transform="matrix(1 0 0 1 1385.07 752)">1800</text></g><g clip-path="url(#clip88)"><text fill="#44546A" font-family="Calibri,Calibri_MSFontService,sans-serif" font-weight="400" font-size="41" transform="matrix(1 0 0 1 1385.07 503)">2000</text></g><g clip-path="url(#clip89)"><text fill="#44546A" font-family="Calibri,Calibri_MSFontService,sans-serif" font-weight="400" font-size="41" transform="matrix(1 0 0 1 2028.83 3046)">20</text></g><g clip-path="url(#clip90)"><text fill="#44546A" font-family="Calibri,Calibri_MSFontService,sans-serif" font-weight="400" font-size="41" transform="matrix(1 0 0 1 3114.41 3046)">32</text></g><g clip-path="url(#clip91)"><text fill="#44546A" font-family="Calibri,Calibri_MSFontService,sans-serif" font-weight="400" font-size="41" transform="matrix(1 0 0 1 4189.54 3046)">128</text></g><g clip-path="url(#clip92)"><text fill="#44546A" font-family="Calibri,Calibri_MSFontService,sans-serif" font-weight="400" font-size="41" transform="matrix(1 0 0 1 5275.12 3046)">384</text></g><g clip-path="url(#clip93)"><text fill="#44546A" font-family="Calibri,Calibri_MSFontService,sans-serif" font-weight="400" font-size="41" transform="matrix(1 0 0 1 6360.71 3046)">512</text></g><g clip-path="url(#clip94)"><text fill="#44546A" font-family="Calibri,Calibri_MSFontService,sans-serif" font-weight="700" font-size="41" transform="matrix(6.12323e-17 -1 1 6.12323e-17 1359.97 1844)">Latency (ms)</text></g><g clip-path="url(#clip95)"><text fill="#44546A" font-family="Calibri,Calibri_MSFontService,sans-serif" font-weight="700" font-size="41" transform="matrix(1 0 0 1 4080 3110)">Sequence Length</text></g><g clip-path="url(#clip96)"><text fill="#44546A" font-family="Calibri,Calibri_MSFontService,sans-serif" font-weight="700" font-size="73" transform="matrix(1 0 0 1 3341.63 235)">Intel Ice lake Xeon 8380 </text></g><g clip-path="url(#clip97)"><text fill="#44546A" font-family="Calibri,Calibri_MSFontService,sans-serif" font-weight="700" font-size="73" transform="matrix(1 0 0 1 4076.98 235)">-</text></g><g clip-path="url(#clip98)"><text fill="#44546A" font-family="Calibri,Calibri_MSFontService,sans-serif" font-weight="700" font-size="73" transform="matrix(1 0 0 1 4116 235)">TensorFlow (Graph Mode)</text></g><g clip-path="url(#clip99)"><text fill="#44546A" font-family="Calibri,Calibri_MSFontService,sans-serif" font-weight="700" font-size="73" transform="matrix(1 0 0 1 2850.91 324)">Latency Benchmark with varying number of CPU cores involved in the computations</text></g><g clip-path="url(#clip100)"><text fill="#44546A" font-family="Calibri,Calibri_MSFontService,sans-serif" font-weight="700" font-size="73" transform="matrix(1 0 0 1 3032 414)">(some data might be missing indicating benchmark crashed during runs)</text></g><g clip-path="url(#clip101)"><rect x="3916" y="3206" width="23" height="22" fill="url(#fill102)"/></g><g clip-path="url(#clip103)"><text fill="#44546A" font-family="Calibri,Calibri_MSFontService,sans-serif" font-weight="400" font-size="41" transform="matrix(1 0 0 1 3948.37 3229)">1</text></g><g clip-path="url(#clip104)"><rect x="3995" y="3206" width="23" height="22" fill="url(#fill105)"/></g><g clip-path="url(#clip106)"><text fill="#44546A" font-family="Calibri,Calibri_MSFontService,sans-serif" font-weight="400" font-size="41" transform="matrix(1 0 0 1 4027.71 3229)">4</text></g><g clip-path="url(#clip107)"><rect x="4075" y="3206" width="21.9998" height="22" fill="url(#fill108)"/></g><g clip-path="url(#clip109)"><text fill="#44546A" font-family="Calibri,Calibri_MSFontService,sans-serif" font-weight="400" font-size="41" transform="matrix(1 0 0 1 4107.04 3229)">16</text></g><g clip-path="url(#clip110)"><rect x="4175" y="3206" width="23" height="22" fill="url(#fill111)"/></g><g clip-path="url(#clip112)"><text fill="#44546A" font-family="Calibri,Calibri_MSFontService,sans-serif" font-weight="400" font-size="41" transform="matrix(1 0 0 1 4207.28 3229)">40</text></g><g clip-path="url(#clip113)"><rect x="4275" y="3206" width="23" height="22" fill="url(#fill114)"/></g><g clip-path="url(#clip115)"><text fill="#44546A" font-family="Calibri,Calibri_MSFontService,sans-serif" font-weight="400" font-size="41" transform="matrix(1 0 0 1 4307.52 3229)">80</text></g><rect x="1264.5" y="131.5" width="5721" height="3152" stroke="#E0E5EB" stroke-width="3.4375" stroke-linejoin="round" stroke-miterlimit="10" fill="none"/></g></svg>