<svg width="3936" height="1829" xmlns="http://www.w3.org/2000/svg" xmlns:xlink="http://www.w3.org/1999/xlink" overflow="hidden"><defs><clipPath id="clip0"><rect x="827" y="772" width="3936" height="1829"/></clipPath><clipPath id="clip1"><rect x="828" y="773" width="3932" height="1825"/></clipPath><clipPath id="clip2"><rect x="1014" y="943" width="3699" height="1350"/></clipPath><clipPath id="clip3"><rect x="1014" y="943" width="3699" height="1350"/></clipPath><clipPath id="clip4"><rect x="828" y="773" width="3932" height="1825"/></clipPath><clipPath id="clip5"><rect x="828" y="773" width="3932" height="1825"/></clipPath><clipPath id="clip6"><rect x="828" y="773" width="3932" height="1825"/></clipPath><clipPath id="clip7"><rect x="828" y="773" width="3932" height="1825"/></clipPath><clipPath id="clip8"><rect x="828" y="773" width="3932" height="1825"/></clipPath><clipPath id="clip9"><rect x="828" y="773" width="3932" height="1825"/></clipPath><clipPath id="clip10"><rect x="828" y="773" width="3932" height="1825"/></clipPath><clipPath id="clip11"><rect x="828" y="773" width="3932" height="1825"/></clipPath><clipPath id="clip12"><rect x="828" y="773" width="3932" height="1825"/></clipPath><clipPath id="clip13"><rect x="828" y="773" width="3932" height="1825"/></clipPath><clipPath id="clip14"><rect x="828" y="773" width="3932" height="1825"/></clipPath><clipPath id="clip15"><rect x="828" y="773" width="3932" height="1825"/></clipPath><clipPath id="clip16"><rect x="828" y="773" width="3932" height="1825"/></clipPath><clipPath id="clip17"><rect x="828" y="773" width="3932" height="1825"/></clipPath><clipPath id="clip18"><rect x="828" y="773" width="3932" height="1825"/></clipPath><clipPath id="clip19"><rect x="828" y="773" width="3932" height="1825"/></clipPath><clipPath id="clip20"><rect x="828" y="773" width="3932" height="1825"/></clipPath><clipPath id="clip21"><rect x="828" y="773" width="3932" height="1825"/></clipPath><clipPath id="clip22"><rect x="828" y="773" width="3932" height="1825"/></clipPath><clipPath id="clip23"><rect x="828" y="773" width="3932" height="1825"/></clipPath><clipPath id="clip24"><rect x="828" y="773" width="3932" height="1825"/></clipPath><clipPath id="clip25"><rect x="828" y="773" width="3932" height="1825"/></clipPath><clipPath id="clip26"><rect x="828" y="773" width="3932" height="1825"/></clipPath><clipPath id="clip27"><rect x="828" y="773" width="3932" height="1825"/></clipPath><clipPath id="clip28"><rect x="828" y="773" width="3932" height="1825"/></clipPath><clipPath id="clip29"><rect x="828" y="773" width="3932" height="1825"/></clipPath><clipPath id="clip30"><rect x="828" y="773" width="3932" height="1825"/></clipPath><clipPath id="clip31"><rect x="828" y="773" width="3932" height="1825"/></clipPath><clipPath id="clip32"><rect x="828" y="773" width="3932" height="1825"/></clipPath><clipPath id="clip33"><rect x="828" y="773" width="3932" height="1825"/></clipPath><clipPath id="clip34"><rect x="828" y="773" width="3932" height="1825"/></clipPath><clipPath id="clip35"><rect x="828" y="773" width="3932" height="1825"/></clipPath><clipPath id="clip36"><rect x="828" y="773" width="3932" height="1825"/></clipPath></defs><g clip-path="url(#clip0)" transform="translate(-827 -772)"><rect x="828" y="773" width="3933" height="1826" fill="#FFFFFF"/><g clip-path="url(#clip1)"><path d="M1014.5 2140.57 4710.5 2140.57M1014.5 1991.57 4710.5 1991.57M1014.5 1841.56 4710.5 1841.56M1014.5 1691.56 4710.5 1691.56M1014.5 1542.55 4710.5 1542.55M1014.5 1392.55 4710.5 1392.55M1014.5 1242.54 4710.5 1242.54M1014.5 1093.54 4710.5 1093.54M1014.5 943.5 4710.5 943.5" stroke="#D9D9D9" stroke-width="3.4375" stroke-linejoin="round" stroke-miterlimit="10" fill="none"/></g><g clip-path="url(#clip2)"><path d="M1196.04 1991.07 1362.04 1991.07 1362.04 2290 1196.04 2290ZM1935.06 1991.07 2101.07 1991.07 2101.07 2290 1935.06 2290ZM2674.09 1692.06 2840.09 1692.06 2840.09 2290 2674.09 2290ZM3414.11 1692.06 3579.12 1692.06 3579.12 2290 3414.11 2290ZM4153.14 1692.06 4318.14 1692.06 4318.14 2290 4153.14 2290Z" fill="#4F81BD"/></g><g clip-path="url(#clip3)"><path d="M1407.05 1692.06 1572.05 1692.06 1572.05 2290 1407.05 2290ZM2146.07 1093.04 2311.08 1093.04 2311.08 2290 2146.07 2290ZM2885.09 1692.06 3051.1 1692.06 3051.1 2290 2885.09 2290ZM3624.12 1093.04 3790.12 1093.04 3790.12 2290 3624.12 2290ZM4363.14 1093.04 4529.15 1093.04 4529.15 2290 4363.14 2290Z" fill="#C0504D"/></g><g clip-path="url(#clip4)"><path d="M1014.5 2290.5 4710.5 2290.5" stroke="#D9D9D9" stroke-width="3.4375" stroke-linejoin="round" stroke-miterlimit="10" fill="none" fill-rule="evenodd"/></g><g clip-path="url(#clip5)"><text fill="#404040" font-family="Calibri,Calibri_MSFontService,sans-serif" font-weight="400" font-size="41" transform="matrix(1 0 0 1 1268.49 1959)">2</text></g><g clip-path="url(#clip6)"><text fill="#404040" font-family="Calibri,Calibri_MSFontService,sans-serif" font-weight="400" font-size="41" transform="matrix(1 0 0 1 2007.67 1959)">2</text></g><g clip-path="url(#clip7)"><text fill="#404040" font-family="Calibri,Calibri_MSFontService,sans-serif" font-weight="400" font-size="41" transform="matrix(1 0 0 1 2746.86 1660)">4</text></g><g clip-path="url(#clip8)"><text fill="#404040" font-family="Calibri,Calibri_MSFontService,sans-serif" font-weight="400" font-size="41" transform="matrix(1 0 0 1 3486.05 1660)">4</text></g><g clip-path="url(#clip9)"><text fill="#404040" font-family="Calibri,Calibri_MSFontService,sans-serif" font-weight="400" font-size="41" transform="matrix(1 0 0 1 4225.23 1660)">4</text></g><g clip-path="url(#clip10)"><text fill="#404040" font-family="Calibri,Calibri_MSFontService,sans-serif" font-weight="400" font-size="41" transform="matrix(1 0 0 1 1478.97 1660)">4</text></g><g clip-path="url(#clip11)"><text fill="#404040" font-family="Calibri,Calibri_MSFontService,sans-serif" font-weight="400" font-size="41" transform="matrix(1 0 0 1 2218.16 1061)">8</text></g><g clip-path="url(#clip12)"><text fill="#404040" font-family="Calibri,Calibri_MSFontService,sans-serif" font-weight="400" font-size="41" transform="matrix(1 0 0 1 2957.35 1660)">4</text></g><g clip-path="url(#clip13)"><text fill="#404040" font-family="Calibri,Calibri_MSFontService,sans-serif" font-weight="400" font-size="41" transform="matrix(1 0 0 1 3696.53 1061)">8</text></g><g clip-path="url(#clip14)"><text fill="#404040" font-family="Calibri,Calibri_MSFontService,sans-serif" font-weight="400" font-size="41" transform="matrix(1 0 0 1 4435.72 1061)">8</text></g><g clip-path="url(#clip15)"><text fill="#595959" font-family="Calibri,Calibri_MSFontService,sans-serif" font-weight="400" font-size="41" transform="matrix(1 0 0 1 955.419 2302)">0</text></g><g clip-path="url(#clip16)"><text fill="#595959" font-family="Calibri,Calibri_MSFontService,sans-serif" font-weight="400" font-size="41" transform="matrix(1 0 0 1 955.419 2152)">1</text></g><g clip-path="url(#clip17)"><text fill="#595959" font-family="Calibri,Calibri_MSFontService,sans-serif" font-weight="400" font-size="41" transform="matrix(1 0 0 1 955.419 2003)">2</text></g><g clip-path="url(#clip18)"><text fill="#595959" font-family="Calibri,Calibri_MSFontService,sans-serif" font-weight="400" font-size="41" transform="matrix(1 0 0 1 955.419 1853)">3</text></g><g clip-path="url(#clip19)"><text fill="#595959" font-family="Calibri,Calibri_MSFontService,sans-serif" font-weight="400" font-size="41" transform="matrix(1 0 0 1 955.419 1703)">4</text></g><g clip-path="url(#clip20)"><text fill="#595959" font-family="Calibri,Calibri_MSFontService,sans-serif" font-weight="400" font-size="41" transform="matrix(1 0 0 1 955.419 1554)">5</text></g><g clip-path="url(#clip21)"><text fill="#595959" font-family="Calibri,Calibri_MSFontService,sans-serif" font-weight="400" font-size="41" transform="matrix(1 0 0 1 955.419 1404)">6</text></g><g clip-path="url(#clip22)"><text fill="#595959" font-family="Calibri,Calibri_MSFontService,sans-serif" font-weight="400" font-size="41" transform="matrix(1 0 0 1 955.419 1254)">7</text></g><g clip-path="url(#clip23)"><text fill="#595959" font-family="Calibri,Calibri_MSFontService,sans-serif" font-weight="400" font-size="41" transform="matrix(1 0 0 1 955.419 1105)">8</text></g><g clip-path="url(#clip24)"><text fill="#595959" font-family="Calibri,Calibri_MSFontService,sans-serif" font-weight="400" font-size="41" transform="matrix(1 0 0 1 955.419 955)">9</text></g><g clip-path="url(#clip25)"><text fill="#595959" font-family="Calibri,Calibri_MSFontService,sans-serif" font-weight="400" font-size="41" transform="matrix(1 0 0 1 1363.28 2356)">20</text></g><g clip-path="url(#clip26)"><text fill="#595959" font-family="Calibri,Calibri_MSFontService,sans-serif" font-weight="400" font-size="41" transform="matrix(1 0 0 1 2102.47 2356)">32</text></g><g clip-path="url(#clip27)"><text fill="#595959" font-family="Calibri,Calibri_MSFontService,sans-serif" font-weight="400" font-size="41" transform="matrix(1 0 0 1 2831.2 2356)">128</text></g><g clip-path="url(#clip28)"><text fill="#595959" font-family="Calibri,Calibri_MSFontService,sans-serif" font-weight="400" font-size="41" transform="matrix(1 0 0 1 3570.39 2356)">384</text></g><g clip-path="url(#clip29)"><text fill="#595959" font-family="Calibri,Calibri_MSFontService,sans-serif" font-weight="400" font-size="41" transform="matrix(1 0 0 1 4309.58 2356)">512</text></g><g clip-path="url(#clip30)"><text fill="#595959" font-family="Calibri,Calibri_MSFontService,sans-serif" font-weight="400" font-size="46" transform="matrix(6.12323e-17 -1 1 6.12323e-17 929.729 1874)">Number of model instances</text></g><g clip-path="url(#clip31)"><text fill="#595959" font-family="Calibri,Calibri_MSFontService,sans-serif" font-weight="400" font-size="46" transform="matrix(1 0 0 1 2703.24 2425)">Sequence Length</text></g><g clip-path="url(#clip32)"><text fill="#595959" font-family="Calibri,Calibri_MSFontService,sans-serif" font-weight="400" font-size="64" transform="matrix(1 0 0 1 1563.29 869)">Optimal number of instances minimizing latency w.r.t the sequence length (total batch size = 8)</text></g><g clip-path="url(#clip33)"><rect x="2595" y="2521" width="23" height="23" fill="#4F81BD"/></g><g clip-path="url(#clip34)"><text fill="#595959" font-family="Calibri,Calibri_MSFontService,sans-serif" font-weight="400" font-size="41" transform="matrix(1 0 0 1 2627.5 2544)">pytorch</text></g><g clip-path="url(#clip35)"><rect x="2797" y="2521" width="22" height="23" fill="#C0504D"/></g><g clip-path="url(#clip36)"><text fill="#595959" font-family="Calibri,Calibri_MSFontService,sans-serif" font-weight="400" font-size="41" transform="matrix(1 0 0 1 2829.03 2544)">tensorflow</text></g><rect x="828.5" y="773.5" width="3933" height="1826" stroke="#D9D9D9" stroke-width="3.4375" stroke-linejoin="round" stroke-miterlimit="10" fill="none"/></g></svg>