<svg width="3981" height="2244" xmlns="http://www.w3.org/2000/svg" xmlns:xlink="http://www.w3.org/1999/xlink" overflow="hidden"><defs><clipPath id="clip0"><rect x="1212" y="171" width="3981" height="2244"/></clipPath><clipPath id="clip1"><rect x="1213" y="171" width="3977" height="2242"/></clipPath><clipPath id="clip2"><rect x="1441" y="341" width="3581" height="1795"/></clipPath><clipPath id="clip3"><rect x="1441" y="341" width="3581" height="1795"/></clipPath><clipPath id="clip4"><rect x="1213" y="171" width="3977" height="2242"/></clipPath><clipPath id="clip5"><rect x="1213" y="171" width="3977" height="2242"/></clipPath><clipPath id="clip6"><rect x="1213" y="171" width="3977" height="2242"/></clipPath><clipPath id="clip7"><rect x="1213" y="171" width="3977" height="2242"/></clipPath><clipPath id="clip8"><rect x="1213" y="171" width="3977" height="2242"/></clipPath><clipPath id="clip9"><rect x="1213" y="171" width="3977" height="2242"/></clipPath><clipPath id="clip10"><rect x="1213" y="171" width="3977" height="2242"/></clipPath><clipPath id="clip11"><rect x="1213" y="171" width="3977" height="2242"/></clipPath><clipPath id="clip12"><rect x="1213" y="171" width="3977" height="2242"/></clipPath><clipPath id="clip13"><rect x="1213" y="171" width="3977" height="2242"/></clipPath><clipPath id="clip14"><rect x="1213" y="171" width="3977" height="2242"/></clipPath><clipPath id="clip15"><rect x="1213" y="171" width="3977" height="2242"/></clipPath><clipPath id="clip16"><rect x="1213" y="171" width="3977" height="2242"/></clipPath><clipPath id="clip17"><rect x="1213" y="171" width="3977" height="2242"/></clipPath><clipPath id="clip18"><rect x="1213" y="171" width="3977" height="2242"/></clipPath><clipPath id="clip19"><rect x="1213" y="171" width="3977" height="2242"/></clipPath><clipPath id="clip20"><rect x="1213" y="171" width="3977" height="2242"/></clipPath><clipPath id="clip21"><rect x="1213" y="171" width="3977" height="2242"/></clipPath><clipPath id="clip22"><rect x="1213" y="171" width="3977" height="2242"/></clipPath><clipPath id="clip23"><rect x="1213" y="171" width="3977" height="2242"/></clipPath><clipPath id="clip24"><rect x="1213" y="171" width="3977" height="2242"/></clipPath><clipPath id="clip25"><rect x="1213" y="171" width="3977" height="2242"/></clipPath><clipPath id="clip26"><rect x="1213" y="171" width="3977" height="2242"/></clipPath><clipPath id="clip27"><rect x="1213" y="171" width="3977" height="2242"/></clipPath><clipPath id="clip28"><rect x="1213" y="171" width="3977" height="2242"/></clipPath><clipPath id="clip29"><rect x="1213" y="171" width="3977" height="2242"/></clipPath><clipPath id="clip30"><rect x="1213" y="171" width="3977" height="2242"/></clipPath><clipPath id="clip31"><rect x="1213" y="171" width="3977" height="2242"/></clipPath><clipPath id="clip32"><rect x="1213" y="171" width="3977" height="2242"/></clipPath><clipPath id="clip33"><rect x="1213" y="171" width="3977" height="2242"/></clipPath><clipPath id="clip34"><rect x="1213" y="171" width="3977" height="2242"/></clipPath><clipPath id="clip35"><rect x="1213" y="171" width="3977" height="2242"/></clipPath><clipPath id="clip36"><rect x="1213" y="171" width="3977" height="2242"/></clipPath><clipPath id="clip37"><rect x="1213" y="171" width="3977" height="2242"/></clipPath><clipPath id="clip38"><rect x="1213" y="171" width="3977" height="2242"/></clipPath><clipPath id="clip39"><rect x="1213" y="171" width="3977" height="2242"/></clipPath><clipPath id="clip40"><rect x="1213" y="171" width="3977" height="2242"/></clipPath><clipPath id="clip41"><rect x="1213" y="171" width="3977" height="2242"/></clipPath><clipPath id="clip42"><rect x="1213" y="171" width="3977" height="2242"/></clipPath><clipPath id="clip43"><rect x="1213" y="171" width="3977" height="2242"/></clipPath><clipPath id="clip44"><rect x="1213" y="171" width="3977" height="2242"/></clipPath><clipPath id="clip45"><rect x="1213" y="171" width="3977" height="2242"/></clipPath><clipPath id="clip46"><rect x="1213" y="171" width="3977" height="2242"/></clipPath><clipPath id="clip47"><rect x="1213" y="171" width="3977" height="2242"/></clipPath><clipPath id="clip48"><rect x="1213" y="171" width="3977" height="2242"/></clipPath><clipPath id="clip49"><rect x="1213" y="171" width="3977" height="2242"/></clipPath><clipPath id="clip50"><rect x="1213" y="171" width="3977" height="2242"/></clipPath><clipPath id="clip51"><rect x="1213" y="171" width="3977" height="2242"/></clipPath><clipPath id="clip52"><rect x="1213" y="171" width="3977" height="2242"/></clipPath><clipPath id="clip53"><rect x="1213" y="171" width="3977" height="2242"/></clipPath><clipPath id="clip54"><rect x="1213" y="171" width="3977" height="2242"/></clipPath><clipPath id="clip55"><rect x="1213" y="171" width="3977" height="2242"/></clipPath><clipPath id="clip56"><rect x="1213" y="171" width="3977" height="2242"/></clipPath><clipPath id="clip57"><rect x="1213" y="171" width="3977" height="2242"/></clipPath></defs><g clip-path="url(#clip0)" transform="translate(-1212 -171)"><rect x="1213" y="172" width="3978" height="2241" fill="#FFFFFF"/><g clip-path="url(#clip1)"><path d="M1441.5 1909.56 5018.5 1909.56M1441.5 1685.56 5018.5 1685.56M1441.5 1461.55 5018.5 1461.55M1441.5 1237.54 5018.5 1237.54M1441.5 1013.53 5018.5 1013.53M1441.5 789.526 5018.5 789.526M1441.5 565.519 5018.5 565.519M1441.5 341.5 5018.5 341.5" stroke="#D9D9D9" stroke-width="3.4375" stroke-linejoin="round" stroke-miterlimit="10" fill="none"/></g><g clip-path="url(#clip2)"><path d="M1529.05 2063.07 1609.05 2063.07 1609.05 2133 1529.05 2133ZM1887.06 1788.06 1967.06 1788.06 1967.06 2133 1887.06 2133ZM2245.07 2057.07 2325.08 2057.07 2325.08 2133 2245.07 2133ZM2602.09 1705.06 2683.09 1705.06 2683.09 2133 2602.09 2133ZM2960.1 2021.07 3040.1 2021.07 3040.1 2133 2960.1 2133ZM3318.11 1395.05 3398.11 1395.05 3398.11 2133 3318.11 2133ZM3676.12 1884.06 3756.12 1884.06 3756.12 2133 3676.12 2133ZM4033.13 662.022 4114.13 662.022 4114.13 2133 4033.13 2133ZM4391.14 1762.06 4471.15 1762.06 4471.15 2133 4391.14 2133ZM4749.16 444.015 4829.16 444.015 4829.16 2133 4749.16 2133Z" fill="#4F81BD"/></g><g clip-path="url(#clip3)"><path d="M1631.05 2055.07 1711.06 2055.07 1711.06 2133 1631.05 2133ZM1989.07 1781.06 2069.07 1781.06 2069.07 2133 1989.07 2133ZM2347.08 2045.07 2427.08 2045.07 2427.08 2133 2347.08 2133ZM2704.09 1756.06 2785.09 1756.06 2785.09 2133 2704.09 2133ZM3062.1 1994.07 3142.1 1994.07 3142.1 2133 3062.1 2133ZM3420.11 1466.05 3500.11 1466.05 3500.11 2133 3420.11 2133ZM3778.12 1856.06 3858.13 1856.06 3858.13 2133 3778.12 2133ZM4135.14 1206.04 4215.14 1206.04 4215.14 2133 4135.14 2133ZM4493.15 1533.05 4573.15 1533.05 4573.15 2133 4493.15 2133ZM4851.16 1077.04 4931.16 1077.04 4931.16 2133 4851.16 2133Z" fill="#C0504D"/></g><g clip-path="url(#clip4)"><path d="M1441.5 2133.5 5018.5 2133.5" stroke="#D9D9D9" stroke-width="3.4375" stroke-linejoin="round" stroke-miterlimit="10" fill="none" fill-rule="evenodd"/></g><g clip-path="url(#clip5)"><path d="M1441.5 2133.5 1441.5 2213.5M2156.57 2133.5 2156.57 2213.5M2872.59 2133.5 2872.59 2213.5M3587.62 2133.5 3587.62 2213.5M4303.64 2133.5 4303.64 2213.5M5018.5 2133.5 5018.5 2213.5" stroke="#D9D9D9" stroke-width="3.4375" stroke-linejoin="round" stroke-miterlimit="10" fill="none"/></g><g clip-path="url(#clip6)"><path d="M1441.5 2213.5 1441.5 2293.5M2156.57 2213.5 2156.57 2293.5M2872.59 2213.5 2872.59 2293.5M3587.62 2213.5 3587.62 2293.5M4303.64 2213.5 4303.64 2293.5M5018.5 2213.5 5018.5 2293.5" stroke="#D9D9D9" stroke-width="3.4375" stroke-linejoin="round" stroke-miterlimit="10" fill="none"/></g><g clip-path="url(#clip7)"><text fill="#404040" font-family="Calibri,Calibri_MSFontService,sans-serif" font-weight="400" font-size="41" transform="matrix(1 0 0 1 1548.43 2031)">16</text></g><g clip-path="url(#clip8)"><text fill="#404040" font-family="Calibri,Calibri_MSFontService,sans-serif" font-weight="400" font-size="41" transform="matrix(1 0 0 1 1906.19 1757)">77</text></g><g clip-path="url(#clip9)"><text fill="#404040" font-family="Calibri,Calibri_MSFontService,sans-serif" font-weight="400" font-size="41" transform="matrix(1 0 0 1 2263.95 2025)">17</text></g><g clip-path="url(#clip10)"><text fill="#404040" font-family="Calibri,Calibri_MSFontService,sans-serif" font-weight="400" font-size="41" transform="matrix(1 0 0 1 2621.71 1673)">96</text></g><g clip-path="url(#clip11)"><text fill="#404040" font-family="Calibri,Calibri_MSFontService,sans-serif" font-weight="400" font-size="41" transform="matrix(1 0 0 1 2979.47 1989)">25</text></g><g clip-path="url(#clip12)"><text fill="#404040" font-family="Calibri,Calibri_MSFontService,sans-serif" font-weight="400" font-size="41" transform="matrix(1 0 0 1 3326.78 1363)">165</text></g><g clip-path="url(#clip13)"><text fill="#404040" font-family="Calibri,Calibri_MSFontService,sans-serif" font-weight="400" font-size="41" transform="matrix(1 0 0 1 3694.99 1852)">56</text></g><g clip-path="url(#clip14)"><text fill="#404040" font-family="Calibri,Calibri_MSFontService,sans-serif" font-weight="400" font-size="41" transform="matrix(1 0 0 1 4042.31 630)">329</text></g><g clip-path="url(#clip15)"><text fill="#404040" font-family="Calibri,Calibri_MSFontService,sans-serif" font-weight="400" font-size="41" transform="matrix(1 0 0 1 4410.52 1730)">83</text></g><g clip-path="url(#clip16)"><text fill="#404040" font-family="Calibri,Calibri_MSFontService,sans-serif" font-weight="400" font-size="41" transform="matrix(1 0 0 1 4757.83 412)">377</text></g><g clip-path="url(#clip17)"><text fill="#404040" font-family="Calibri,Calibri_MSFontService,sans-serif" font-weight="400" font-size="41" transform="matrix(1 0 0 1 1650.3 2023)">17</text></g><g clip-path="url(#clip18)"><text fill="#404040" font-family="Calibri,Calibri_MSFontService,sans-serif" font-weight="400" font-size="41" transform="matrix(1 0 0 1 2008.06 1749)">79</text></g><g clip-path="url(#clip19)"><text fill="#404040" font-family="Calibri,Calibri_MSFontService,sans-serif" font-weight="400" font-size="41" transform="matrix(1 0 0 1 2365.82 2014)">20</text></g><g clip-path="url(#clip20)"><text fill="#404040" font-family="Calibri,Calibri_MSFontService,sans-serif" font-weight="400" font-size="41" transform="matrix(1 0 0 1 2723.59 1724)">84</text></g><g clip-path="url(#clip21)"><text fill="#404040" font-family="Calibri,Calibri_MSFontService,sans-serif" font-weight="400" font-size="41" transform="matrix(1 0 0 1 3081.35 1962)">31</text></g><g clip-path="url(#clip22)"><text fill="#404040" font-family="Calibri,Calibri_MSFontService,sans-serif" font-weight="400" font-size="41" transform="matrix(1 0 0 1 3428.66 1434)">149</text></g><g clip-path="url(#clip23)"><text fill="#404040" font-family="Calibri,Calibri_MSFontService,sans-serif" font-weight="400" font-size="41" transform="matrix(1 0 0 1 3796.87 1824)">62</text></g><g clip-path="url(#clip24)"><text fill="#404040" font-family="Calibri,Calibri_MSFontService,sans-serif" font-weight="400" font-size="41" transform="matrix(1 0 0 1 4144.18 1174)">207</text></g><g clip-path="url(#clip25)"><text fill="#404040" font-family="Calibri,Calibri_MSFontService,sans-serif" font-weight="400" font-size="41" transform="matrix(1 0 0 1 4501.94 1501)">134</text></g><g clip-path="url(#clip26)"><text fill="#404040" font-family="Calibri,Calibri_MSFontService,sans-serif" font-weight="400" font-size="41" transform="matrix(1 0 0 1 4859.7 1045)">236</text></g><g clip-path="url(#clip27)"><text fill="#595959" font-family="Calibri,Calibri_MSFontService,sans-serif" font-weight="400" font-size="41" transform="matrix(1 0 0 1 1382.22 2145)">0</text></g><g clip-path="url(#clip28)"><text fill="#595959" font-family="Calibri,Calibri_MSFontService,sans-serif" font-weight="400" font-size="41" transform="matrix(1 0 0 1 1361.32 1921)">50</text></g><g clip-path="url(#clip29)"><text fill="#595959" font-family="Calibri,Calibri_MSFontService,sans-serif" font-weight="400" font-size="41" transform="matrix(1 0 0 1 1340.42 1697)">100</text></g><g clip-path="url(#clip30)"><text fill="#595959" font-family="Calibri,Calibri_MSFontService,sans-serif" font-weight="400" font-size="41" transform="matrix(1 0 0 1 1340.42 1473)">150</text></g><g clip-path="url(#clip31)"><text fill="#595959" font-family="Calibri,Calibri_MSFontService,sans-serif" font-weight="400" font-size="41" transform="matrix(1 0 0 1 1340.42 1249)">200</text></g><g clip-path="url(#clip32)"><text fill="#595959" font-family="Calibri,Calibri_MSFontService,sans-serif" font-weight="400" font-size="41" transform="matrix(1 0 0 1 1340.42 1025)">250</text></g><g clip-path="url(#clip33)"><text fill="#595959" font-family="Calibri,Calibri_MSFontService,sans-serif" font-weight="400" font-size="41" transform="matrix(1 0 0 1 1340.42 801)">300</text></g><g clip-path="url(#clip34)"><text fill="#595959" font-family="Calibri,Calibri_MSFontService,sans-serif" font-weight="400" font-size="41" transform="matrix(1 0 0 1 1340.42 577)">350</text></g><g clip-path="url(#clip35)"><text fill="#595959" font-family="Calibri,Calibri_MSFontService,sans-serif" font-weight="400" font-size="41" transform="matrix(1 0 0 1 1340.42 353)">400</text></g><g clip-path="url(#clip36)"><text fill="#595959" font-family="Calibri,Calibri_MSFontService,sans-serif" font-weight="400" font-size="41" transform="matrix(1 0 0 1 1555.55 2198)">pytorch</text></g><g clip-path="url(#clip37)"><text fill="#595959" font-family="Calibri,Calibri_MSFontService,sans-serif" font-weight="400" font-size="41" transform="matrix(1 0 0 1 1887.23 2198)">tensorflow</text></g><g clip-path="url(#clip38)"><text fill="#595959" font-family="Calibri,Calibri_MSFontService,sans-serif" font-weight="400" font-size="41" transform="matrix(1 0 0 1 2271.07 2198)">pytorch</text></g><g clip-path="url(#clip39)"><text fill="#595959" font-family="Calibri,Calibri_MSFontService,sans-serif" font-weight="400" font-size="41" transform="matrix(1 0 0 1 2602.75 2198)">tensorflow</text></g><g clip-path="url(#clip40)"><text fill="#595959" font-family="Calibri,Calibri_MSFontService,sans-serif" font-weight="400" font-size="41" transform="matrix(1 0 0 1 2986.59 2198)">pytorch</text></g><g clip-path="url(#clip41)"><text fill="#595959" font-family="Calibri,Calibri_MSFontService,sans-serif" font-weight="400" font-size="41" transform="matrix(1 0 0 1 3318.27 2198)">tensorflow</text></g><g clip-path="url(#clip42)"><text fill="#595959" font-family="Calibri,Calibri_MSFontService,sans-serif" font-weight="400" font-size="41" transform="matrix(1 0 0 1 3702.11 2198)">pytorch</text></g><g clip-path="url(#clip43)"><text fill="#595959" font-family="Calibri,Calibri_MSFontService,sans-serif" font-weight="400" font-size="41" transform="matrix(1 0 0 1 4033.8 2198)">tensorflow</text></g><g clip-path="url(#clip44)"><text fill="#595959" font-family="Calibri,Calibri_MSFontService,sans-serif" font-weight="400" font-size="41" transform="matrix(1 0 0 1 4417.64 2198)">pytorch</text></g><g clip-path="url(#clip45)"><text fill="#595959" font-family="Calibri,Calibri_MSFontService,sans-serif" font-weight="400" font-size="41" transform="matrix(1 0 0 1 4749.32 2198)">tensorflow</text></g><g clip-path="url(#clip46)"><text fill="#595959" font-family="Calibri,Calibri_MSFontService,sans-serif" font-weight="400" font-size="41" transform="matrix(1 0 0 1 1778.25 2278)">20</text></g><g clip-path="url(#clip47)"><text fill="#595959" font-family="Calibri,Calibri_MSFontService,sans-serif" font-weight="400" font-size="41" transform="matrix(1 0 0 1 2493.77 2278)">32</text></g><g clip-path="url(#clip48)"><text fill="#595959" font-family="Calibri,Calibri_MSFontService,sans-serif" font-weight="400" font-size="41" transform="matrix(1 0 0 1 3198.84 2278)">128</text></g><g clip-path="url(#clip49)"><text fill="#595959" font-family="Calibri,Calibri_MSFontService,sans-serif" font-weight="400" font-size="41" transform="matrix(1 0 0 1 3914.36 2278)">384</text></g><g clip-path="url(#clip50)"><text fill="#595959" font-family="Calibri,Calibri_MSFontService,sans-serif" font-weight="400" font-size="41" transform="matrix(1 0 0 1 4629.88 2278)">512</text></g><g clip-path="url(#clip51)"><text fill="#595959" font-family="Calibri,Calibri_MSFontService,sans-serif" font-weight="400" font-size="46" transform="matrix(6.12323e-17 -1 1 6.12323e-17 1314.73 1356)">Latency (ms)</text></g><g clip-path="url(#clip52)"><text fill="#595959" font-family="Calibri,Calibri_MSFontService,sans-serif" font-weight="400" font-size="46" transform="matrix(1 0 0 1 3075.25 2344)">Sequence length</text></g><g clip-path="url(#clip53)"><text fill="#595959" font-family="Calibri,Calibri_MSFontService,sans-serif" font-weight="400" font-size="64" transform="matrix(1 0 0 1 2378.54 267)">Latency impact of using 1 or 2 hardware thread(s) per CPU core</text></g><g clip-path="url(#clip54)"><rect x="5091" y="1302" width="23" height="23" fill="#4F81BD"/></g><g clip-path="url(#clip55)"><text fill="#595959" font-family="Calibri,Calibri_MSFontService,sans-serif" font-weight="400" font-size="41" transform="matrix(1 0 0 1 5123.32 1325)">1</text></g><g clip-path="url(#clip56)"><rect x="5091" y="1380" width="23" height="22" fill="#C0504D"/></g><g clip-path="url(#clip57)"><text fill="#595959" font-family="Calibri,Calibri_MSFontService,sans-serif" font-weight="400" font-size="41" transform="matrix(1 0 0 1 5123.32 1403)">2</text></g><rect x="1213.5" y="172.5" width="3978" height="2241" stroke="#D9D9D9" stroke-width="3.4375" stroke-linejoin="round" stroke-miterlimit="10" fill="none"/></g></svg>