<svg height="62" viewBox="0 0 78 62" width="78" xmlns="http://www.w3.org/2000/svg"><g fill="none" transform="translate(2 2)"><path d="m14.563 0h44.874c4.285 0 6.348.399 8.493 1.545 1.9269512 1.02182087 3.5031791 2.59804876 4.525 4.525 1.145 2.145 1.545 4.208 1.545 8.493v28.874c0 4.285-.399 6.348-1.545 8.493-1.0218209 1.9269512-2.5980488 3.5031791-4.525 4.525-2.145 1.145-4.208 1.545-8.493 1.545h-44.874c-4.285 0-6.348-.399-8.493-1.545-1.92695124-1.0218209-3.50317913-2.5980488-4.525-4.525-1.145-2.145-1.545-4.208-1.545-8.493v-28.874c0-4.285.399-6.348 1.545-8.493 1.02182087-1.92695124 2.59804876-3.50317913 4.525-4.525 2.145-1.145 4.208-1.545 8.493-1.545z" fill="#7ac70c" stroke="#fff" stroke-width="4"/><path d="m14.563 2h22.437v27c0 2.209139-1.790861 4-4 4h-31v-18.437c0-4.368.455-5.953 1.309-7.55.83539321-1.57809455 2.12590545-2.86860679 3.704-3.704 1.597-.854 3.182-1.309 7.55-1.309z" fill="#eee"/><path d="m18.597 24.712-3.418 1.797c-.717704.3770958-1.5872543.3140516-2.2430579-.1626264-.6558037-.476678-.9841317-1.2843246-.8469421-2.0833736l.652-3.805c.0479305-.2812266-.0455532-.5680346-.25-.767l-2.764-2.695c-.58109163-.5657996-.79043279-1.4125091-.53995116-2.1839076.25048163-.7713986.91731336-1.333605 1.71995116-1.4500924l3.821-.555c.2824071-.0409118.5266002-.2181667.653-.474l1.709-3.462c.3588378-.72699182 1.0992709-1.1872381 1.91-1.1872381s1.5511622.46024628 1.91 1.1872381l1.709 3.462c.126.256.37.433.653.474l3.82.555c.8026378.1164874 1.4694695.6786938 1.7199512 1.4500924.2504816.7713985.0411404 1.618108-.5399512 2.1839076l-2.764 2.695c-.2044468.1989654-.2979305.4857734-.25.767l.654 3.805c.1374654.7993361-.1909642 1.6073735-.8471079 2.0841443-.6561436.4767708-1.5261164.5395234-2.2438921.1618557l-3.418-1.797c-.252337-.1324723-.553663-.1324723-.806 0z" fill="#7ac70c"/></g></svg>