<svg width="1300" height="650" viewBox="0 0 1300 650" fill="none" xmlns="http://www.w3.org/2000/svg">
<path d="M561.16 324.72C558.4 324.72 555.9 324.12 553.66 322.92C551.46 321.68 549.7 319.9 548.38 317.58C547.1 315.22 546.46 312.4 546.46 309.12C546.46 305.8 547.18 302.98 548.62 300.66C550.06 298.34 551.96 296.58 554.32 295.38C556.68 294.14 559.22 293.52 561.94 293.52C563.78 293.52 565.4 293.82 566.8 294.42C568.24 295.02 569.52 295.78 570.64 296.7L566.5 302.4C565.1 301.24 563.76 300.66 562.48 300.66C560.36 300.66 558.66 301.42 557.38 302.94C556.14 304.46 555.52 306.52 555.52 309.12C555.52 311.68 556.14 313.74 557.38 315.3C558.66 316.82 560.26 317.58 562.18 317.58C563.14 317.58 564.08 317.38 565 316.98C565.92 316.54 566.76 316.02 567.52 315.42L571 321.18C569.52 322.46 567.92 323.38 566.2 323.94C564.48 324.46 562.8 324.72 561.16 324.72ZM588.489 324.72C585.969 324.72 583.589 324.12 581.349 322.92C579.149 321.68 577.369 319.9 576.009 317.58C574.649 315.22 573.969 312.4 573.969 309.12C573.969 305.8 574.649 302.98 576.009 300.66C577.369 298.34 579.149 296.58 581.349 295.38C583.589 294.14 585.969 293.52 588.489 293.52C591.009 293.52 593.369 294.14 595.569 295.38C597.769 296.58 599.549 298.34 600.909 300.66C602.269 302.98 602.949 305.8 602.949 309.12C602.949 312.4 602.269 315.22 600.909 317.58C599.549 319.9 597.769 321.68 595.569 322.92C593.369 324.12 591.009 324.72 588.489 324.72ZM588.489 317.58C590.289 317.58 591.649 316.82 592.569 315.3C593.489 313.74 593.949 311.68 593.949 309.12C593.949 306.52 593.489 304.46 592.569 302.94C591.649 301.42 590.289 300.66 588.489 300.66C586.649 300.66 585.269 301.42 584.349 302.94C583.469 304.46 583.029 306.52 583.029 309.12C583.029 311.68 583.469 313.74 584.349 315.3C585.269 316.82 586.649 317.58 588.489 317.58ZM610.19 324V294.24H617.39L617.99 298.02H618.23C619.51 296.82 620.91 295.78 622.43 294.9C623.99 293.98 625.77 293.52 627.77 293.52C631.01 293.52 633.35 294.6 634.79 296.76C636.27 298.88 637.01 301.8 637.01 305.52V324H628.19V306.66C628.19 304.5 627.89 303.02 627.29 302.22C626.73 301.42 625.81 301.02 624.53 301.02C623.41 301.02 622.45 301.28 621.65 301.8C620.85 302.28 619.97 302.98 619.01 303.9V324H610.19ZM657.186 324.72C653.506 324.72 650.866 323.66 649.266 321.54C647.706 319.42 646.926 316.64 646.926 313.2V301.14H642.846V294.6L647.406 294.24L648.426 286.32H655.746V294.24H662.886V301.14H655.746V313.08C655.746 314.76 656.086 315.98 656.766 316.74C657.486 317.46 658.426 317.82 659.586 317.82C660.066 317.82 660.546 317.76 661.026 317.64C661.546 317.52 662.006 317.38 662.406 317.22L663.786 323.64C663.026 323.88 662.086 324.12 660.966 324.36C659.886 324.6 658.626 324.72 657.186 324.72ZM682.16 324.72C679.32 324.72 676.76 324.1 674.48 322.86C672.2 321.62 670.4 319.84 669.08 317.52C667.76 315.2 667.1 312.4 667.1 309.12C667.1 305.88 667.76 303.1 669.08 300.78C670.44 298.46 672.2 296.68 674.36 295.44C676.52 294.16 678.78 293.52 681.14 293.52C683.98 293.52 686.32 294.16 688.16 295.44C690.04 296.68 691.44 298.38 692.36 300.54C693.32 302.66 693.8 305.08 693.8 307.8C693.8 308.56 693.76 309.32 693.68 310.08C693.6 310.8 693.52 311.34 693.44 311.7H675.62C676.02 313.86 676.92 315.46 678.32 316.5C679.72 317.5 681.4 318 683.36 318C685.48 318 687.62 317.34 689.78 316.02L692.72 321.36C691.2 322.4 689.5 323.22 687.62 323.82C685.74 324.42 683.92 324.72 682.16 324.72ZM675.56 305.88H686.3C686.3 304.24 685.9 302.9 685.1 301.86C684.34 300.78 683.08 300.24 681.32 300.24C679.96 300.24 678.74 300.72 677.66 301.68C676.58 302.6 675.88 304 675.56 305.88ZM701.095 324V294.24H708.295L708.895 298.02H709.135C710.415 296.82 711.815 295.78 713.335 294.9C714.895 293.98 716.675 293.52 718.675 293.52C721.915 293.52 724.255 294.6 725.695 296.76C727.175 298.88 727.915 301.8 727.915 305.52V324H719.095V306.66C719.095 304.5 718.795 303.02 718.195 302.22C717.635 301.42 716.715 301.02 715.435 301.02C714.315 301.02 713.355 301.28 712.555 301.8C711.755 302.28 710.875 302.98 709.915 303.9V324H701.095ZM748.091 324.72C744.411 324.72 741.771 323.66 740.171 321.54C738.611 319.42 737.831 316.64 737.831 313.2V301.14H733.751V294.6L738.311 294.24L739.331 286.32H746.651V294.24H753.791V301.14H746.651V313.08C746.651 314.76 746.991 315.98 747.671 316.74C748.391 317.46 749.331 317.82 750.491 317.82C750.971 317.82 751.451 317.76 751.931 317.64C752.451 317.52 752.911 317.38 753.311 317.22L754.691 323.64C753.931 323.88 752.991 324.12 751.871 324.36C750.791 324.6 749.531 324.72 748.091 324.72Z" fill="white"/>
<rect x="56" y="88" width="1188" height="473" rx="9" stroke="#F3F3F3" stroke-width="2"/>
<defs>
<linearGradient id="paint0_linear_351_40" x1="0" y1="0" x2="517.441" y2="1038.08" gradientUnits="userSpaceOnUse">
<stop stop-color="#FFDEAB"/>
<stop offset="0.462123" stop-color="#DBA9DD"/>
<stop offset="1" stop-color="#775DDC"/>
</linearGradient>
</defs>
</svg>
