<svg width="4625" height="2487" xmlns="http://www.w3.org/2000/svg" xmlns:xlink="http://www.w3.org/1999/xlink" overflow="hidden"><defs><clipPath id="clip0"><rect x="2338" y="93" width="4625" height="2487"/></clipPath><clipPath id="clip1"><rect x="2338" y="93" width="4622" height="2485"/></clipPath><clipPath id="clip2"><rect x="2598" y="263" width="4034" height="1958"/></clipPath><clipPath id="clip3"><rect x="2598" y="263" width="4034" height="1958"/></clipPath><linearGradient x1="2705" y1="2206.5" x2="2750" y2="2206.5" gradientUnits="userSpaceOnUse" spreadMethod="reflect" id="fill4"><stop offset="0" stop-color="#FFC000"/><stop offset="1" stop-color="#FFC000"/></linearGradient><clipPath id="clip5"><rect x="2598" y="263" width="4034" height="1958"/></clipPath><linearGradient x1="2906" y1="2176.5" x2="2952" y2="2176.5" gradientUnits="userSpaceOnUse" spreadMethod="reflect" id="fill6"><stop offset="0" stop-color="#FFC000"/><stop offset="1" stop-color="#FFC000"/></linearGradient><clipPath id="clip7"><rect x="2598" y="263" width="4034" height="1958"/></clipPath><linearGradient x1="3108" y1="2125" x2="3153" y2="2125" gradientUnits="userSpaceOnUse" spreadMethod="reflect" id="fill8"><stop offset="0" stop-color="#FFC000"/><stop offset="1" stop-color="#FFC000"/></linearGradient><clipPath id="clip9"><rect x="2598" y="263" width="4034" height="1958"/></clipPath><linearGradient x1="3309" y1="2037.5" x2="3355" y2="2037.5" gradientUnits="userSpaceOnUse" spreadMethod="reflect" id="fill10"><stop offset="0" stop-color="#FFC000"/><stop offset="1" stop-color="#FFC000"/></linearGradient><clipPath id="clip11"><rect x="2598" y="263" width="4034" height="1958"/></clipPath><linearGradient x1="3511" y1="2207" x2="3556" y2="2207" gradientUnits="userSpaceOnUse" spreadMethod="reflect" id="fill12"><stop offset="0" stop-color="#FFC000"/><stop offset="1" stop-color="#FFC000"/></linearGradient><clipPath id="clip13"><rect x="2598" y="263" width="4034" height="1958"/></clipPath><linearGradient x1="3713" y1="2187" x2="3758" y2="2187" gradientUnits="userSpaceOnUse" spreadMethod="reflect" id="fill14"><stop offset="0" stop-color="#FFC000"/><stop offset="1" stop-color="#FFC000"/></linearGradient><clipPath id="clip15"><rect x="2598" y="263" width="4034" height="1958"/></clipPath><linearGradient x1="3914" y1="2141" x2="3959" y2="2141" gradientUnits="userSpaceOnUse" spreadMethod="reflect" id="fill16"><stop offset="0" stop-color="#FFC000"/><stop offset="1" stop-color="#FFC000"/></linearGradient><clipPath id="clip17"><rect x="2598" y="263" width="4034" height="1958"/></clipPath><linearGradient x1="4116" y1="2037.5" x2="4161" y2="2037.5" gradientUnits="userSpaceOnUse" spreadMethod="reflect" id="fill18"><stop offset="0" stop-color="#FFC000"/><stop offset="1" stop-color="#FFC000"/></linearGradient><clipPath id="clip19"><rect x="2598" y="263" width="4034" height="1958"/></clipPath><linearGradient x1="4317" y1="2210" x2="4362" y2="2210" gradientUnits="userSpaceOnUse" spreadMethod="reflect" id="fill20"><stop offset="0" stop-color="#FFC000"/><stop offset="1" stop-color="#FFC000"/></linearGradient><clipPath id="clip21"><rect x="2598" y="263" width="4034" height="1958"/></clipPath><linearGradient x1="4519" y1="2200" x2="4564" y2="2200" gradientUnits="userSpaceOnUse" spreadMethod="reflect" id="fill22"><stop offset="0" stop-color="#FFC000"/><stop offset="1" stop-color="#FFC000"/></linearGradient><clipPath id="clip23"><rect x="2598" y="263" width="4034" height="1958"/></clipPath><linearGradient x1="4720" y1="2179" x2="4765" y2="2179" gradientUnits="userSpaceOnUse" spreadMethod="reflect" id="fill24"><stop offset="0" stop-color="#FFC000"/><stop offset="1" stop-color="#FFC000"/></linearGradient><clipPath id="clip25"><rect x="2598" y="263" width="4034" height="1958"/></clipPath><linearGradient x1="4922" y1="2144.5" x2="4967" y2="2144.5" gradientUnits="userSpaceOnUse" spreadMethod="reflect" id="fill26"><stop offset="0" stop-color="#FFC000"/><stop offset="1" stop-color="#FFC000"/></linearGradient><clipPath id="clip27"><rect x="2598" y="263" width="4034" height="1958"/></clipPath><linearGradient x1="5123" y1="2216" x2="5168" y2="2216" gradientUnits="userSpaceOnUse" spreadMethod="reflect" id="fill28"><stop offset="0" stop-color="#FFC000"/><stop offset="1" stop-color="#FFC000"/></linearGradient><clipPath id="clip29"><rect x="2598" y="263" width="4034" height="1958"/></clipPath><linearGradient x1="5325" y1="2209" x2="5370" y2="2209" gradientUnits="userSpaceOnUse" spreadMethod="reflect" id="fill30"><stop offset="0" stop-color="#FFC000"/><stop offset="1" stop-color="#FFC000"/></linearGradient><clipPath id="clip31"><rect x="2598" y="263" width="4034" height="1958"/></clipPath><linearGradient x1="5526" y1="2197" x2="5571" y2="2197" gradientUnits="userSpaceOnUse" spreadMethod="reflect" id="fill32"><stop offset="0" stop-color="#FFC000"/><stop offset="1" stop-color="#FFC000"/></linearGradient><clipPath id="clip33"><rect x="2598" y="263" width="4034" height="1958"/></clipPath><linearGradient x1="5728" y1="2174.5" x2="5773" y2="2174.5" gradientUnits="userSpaceOnUse" spreadMethod="reflect" id="fill34"><stop offset="0" stop-color="#FFC000"/><stop offset="1" stop-color="#FFC000"/></linearGradient><clipPath id="clip35"><rect x="2598" y="263" width="4034" height="1958"/></clipPath><linearGradient x1="5929" y1="2216.5" x2="5975" y2="2216.5" gradientUnits="userSpaceOnUse" spreadMethod="reflect" id="fill36"><stop offset="0" stop-color="#FFC000"/><stop offset="1" stop-color="#FFC000"/></linearGradient><clipPath id="clip37"><rect x="2598" y="263" width="4034" height="1958"/></clipPath><linearGradient x1="6131" y1="2211" x2="6176" y2="2211" gradientUnits="userSpaceOnUse" spreadMethod="reflect" id="fill38"><stop offset="0" stop-color="#FFC000"/><stop offset="1" stop-color="#FFC000"/></linearGradient><clipPath id="clip39"><rect x="2598" y="263" width="4034" height="1958"/></clipPath><linearGradient x1="6332" y1="2198.5" x2="6378" y2="2198.5" gradientUnits="userSpaceOnUse" spreadMethod="reflect" id="fill40"><stop offset="0" stop-color="#FFC000"/><stop offset="1" stop-color="#FFC000"/></linearGradient><clipPath id="clip41"><rect x="2598" y="263" width="4034" height="1958"/></clipPath><linearGradient x1="6534" y1="2173" x2="6579" y2="2173" gradientUnits="userSpaceOnUse" spreadMethod="reflect" id="fill42"><stop offset="0" stop-color="#FFC000"/><stop offset="1" stop-color="#FFC000"/></linearGradient><clipPath id="clip43"><rect x="2338" y="93" width="4622" height="2485"/></clipPath><clipPath id="clip44"><rect x="2338" y="93" width="4622" height="2485"/></clipPath><clipPath id="clip45"><rect x="2338" y="93" width="4622" height="2485"/></clipPath><clipPath id="clip46"><rect x="2338" y="93" width="4622" height="2485"/></clipPath><clipPath id="clip47"><rect x="2338" y="93" width="4622" height="2485"/></clipPath><clipPath id="clip48"><rect x="2338" y="93" width="4622" height="2485"/></clipPath><clipPath id="clip49"><rect x="2338" y="93" width="4622" height="2485"/></clipPath><clipPath id="clip50"><rect x="2338" y="93" width="4622" height="2485"/></clipPath><clipPath id="clip51"><rect x="2338" y="93" width="4622" height="2485"/></clipPath><clipPath id="clip52"><rect x="2338" y="93" width="4622" height="2485"/></clipPath><clipPath id="clip53"><rect x="2338" y="93" width="4622" height="2485"/></clipPath><clipPath id="clip54"><rect x="2338" y="93" width="4622" height="2485"/></clipPath><clipPath id="clip55"><rect x="2338" y="93" width="4622" height="2485"/></clipPath><clipPath id="clip56"><rect x="2338" y="93" width="4622" height="2485"/></clipPath><clipPath id="clip57"><rect x="2338" y="93" width="4622" height="2485"/></clipPath><clipPath id="clip58"><rect x="2338" y="93" width="4622" height="2485"/></clipPath><clipPath id="clip59"><rect x="2338" y="93" width="4622" height="2485"/></clipPath><clipPath id="clip60"><rect x="2338" y="93" width="4622" height="2485"/></clipPath><clipPath id="clip61"><rect x="2338" y="93" width="4622" height="2485"/></clipPath><clipPath id="clip62"><rect x="2338" y="93" width="4622" height="2485"/></clipPath><clipPath id="clip63"><rect x="2338" y="93" width="4622" height="2485"/></clipPath><clipPath id="clip64"><rect x="2338" y="93" width="4622" height="2485"/></clipPath><clipPath id="clip65"><rect x="2338" y="93" width="4622" height="2485"/></clipPath><clipPath id="clip66"><rect x="2338" y="93" width="4622" height="2485"/></clipPath><clipPath id="clip67"><rect x="2338" y="93" width="4622" height="2485"/></clipPath><clipPath id="clip68"><rect x="2338" y="93" width="4622" height="2485"/></clipPath><clipPath id="clip69"><rect x="2338" y="93" width="4622" height="2485"/></clipPath><clipPath id="clip70"><rect x="2338" y="93" width="4622" height="2485"/></clipPath><clipPath id="clip71"><rect x="2338" y="93" width="4622" height="2485"/></clipPath><clipPath id="clip72"><rect x="2338" y="93" width="4622" height="2485"/></clipPath><clipPath id="clip73"><rect x="2338" y="93" width="4622" height="2485"/></clipPath><clipPath id="clip74"><rect x="2338" y="93" width="4622" height="2485"/></clipPath><clipPath id="clip75"><rect x="2338" y="93" width="4622" height="2485"/></clipPath><clipPath id="clip76"><rect x="2338" y="93" width="4622" height="2485"/></clipPath><clipPath id="clip77"><rect x="2338" y="93" width="4622" height="2485"/></clipPath><clipPath id="clip78"><rect x="2338" y="93" width="4622" height="2485"/></clipPath><clipPath id="clip79"><rect x="2338" y="93" width="4622" height="2485"/></clipPath><clipPath id="clip80"><rect x="2338" y="93" width="4622" height="2485"/></clipPath><clipPath id="clip81"><rect x="2338" y="93" width="4622" height="2485"/></clipPath><clipPath id="clip82"><rect x="2338" y="93" width="4622" height="2485"/></clipPath><clipPath id="clip83"><rect x="2338" y="93" width="4622" height="2485"/></clipPath><clipPath id="clip84"><rect x="2338" y="93" width="4622" height="2485"/></clipPath><clipPath id="clip85"><rect x="2338" y="93" width="4622" height="2485"/></clipPath><clipPath id="clip86"><rect x="2338" y="93" width="4622" height="2485"/></clipPath><clipPath id="clip87"><rect x="2338" y="93" width="4622" height="2485"/></clipPath><clipPath id="clip88"><rect x="2338" y="93" width="4622" height="2485"/></clipPath><clipPath id="clip89"><rect x="2338" y="93" width="4622" height="2485"/></clipPath><clipPath id="clip90"><rect x="2338" y="93" width="4622" height="2485"/></clipPath><clipPath id="clip91"><rect x="2338" y="93" width="4622" height="2485"/></clipPath><clipPath id="clip92"><rect x="2338" y="93" width="4622" height="2485"/></clipPath><clipPath id="clip93"><rect x="2338" y="93" width="4622" height="2485"/></clipPath><clipPath id="clip94"><rect x="2338" y="93" width="4622" height="2485"/></clipPath><clipPath id="clip95"><rect x="2338" y="93" width="4622" height="2485"/></clipPath><clipPath id="clip96"><rect x="2338" y="93" width="4622" height="2485"/></clipPath><clipPath id="clip97"><rect x="2338" y="93" width="4622" height="2485"/></clipPath><clipPath id="clip98"><rect x="2338" y="93" width="4622" height="2485"/></clipPath><clipPath id="clip99"><rect x="2338" y="93" width="4622" height="2485"/></clipPath><clipPath id="clip100"><rect x="2338" y="93" width="4622" height="2485"/></clipPath><clipPath id="clip101"><rect x="2338" y="93" width="4622" height="2485"/></clipPath><clipPath id="clip102"><rect x="2338" y="93" width="4622" height="2485"/></clipPath><clipPath id="clip103"><rect x="2338" y="93" width="4622" height="2485"/></clipPath><clipPath id="clip104"><rect x="2338" y="93" width="4622" height="2485"/></clipPath><clipPath id="clip105"><rect x="2338" y="93" width="4622" height="2485"/></clipPath><clipPath id="clip106"><rect x="2338" y="93" width="4622" height="2485"/></clipPath><clipPath id="clip107"><rect x="2338" y="93" width="4622" height="2485"/></clipPath><clipPath id="clip108"><rect x="2338" y="93" width="4622" height="2485"/></clipPath><clipPath id="clip109"><rect x="2338" y="93" width="4622" height="2485"/></clipPath><clipPath id="clip110"><rect x="2338" y="93" width="4622" height="2485"/></clipPath><clipPath id="clip111"><rect x="2338" y="93" width="4622" height="2485"/></clipPath><clipPath id="clip112"><rect x="2338" y="93" width="4622" height="2485"/></clipPath><clipPath id="clip113"><rect x="2338" y="93" width="4622" height="2485"/></clipPath><clipPath id="clip114"><rect x="2338" y="93" width="4622" height="2485"/></clipPath><clipPath id="clip115"><rect x="2338" y="93" width="4622" height="2485"/></clipPath><clipPath id="clip116"><rect x="2338" y="93" width="4622" height="2485"/></clipPath><clipPath id="clip117"><rect x="2338" y="93" width="4622" height="2485"/></clipPath><clipPath id="clip118"><rect x="2338" y="93" width="4622" height="2485"/></clipPath><clipPath id="clip119"><rect x="2338" y="93" width="4622" height="2485"/></clipPath><clipPath id="clip120"><rect x="2338" y="93" width="4622" height="2485"/></clipPath><clipPath id="clip121"><rect x="2338" y="93" width="4622" height="2485"/></clipPath><clipPath id="clip122"><rect x="2338" y="93" width="4622" height="2485"/></clipPath><clipPath id="clip123"><rect x="2338" y="93" width="4622" height="2485"/></clipPath><clipPath id="clip124"><rect x="2338" y="93" width="4622" height="2485"/></clipPath><clipPath id="clip125"><rect x="2338" y="93" width="4622" height="2485"/></clipPath><clipPath id="clip126"><rect x="2338" y="93" width="4622" height="2485"/></clipPath><clipPath id="clip127"><rect x="2338" y="93" width="4622" height="2485"/></clipPath><clipPath id="clip128"><rect x="2338" y="93" width="4622" height="2485"/></clipPath><clipPath id="clip129"><rect x="2338" y="93" width="4622" height="2485"/></clipPath><clipPath id="clip130"><rect x="2338" y="93" width="4622" height="2485"/></clipPath><clipPath id="clip131"><rect x="2338" y="93" width="4622" height="2485"/></clipPath><clipPath id="clip132"><rect x="2338" y="93" width="4622" height="2485"/></clipPath><clipPath id="clip133"><rect x="2338" y="93" width="4622" height="2485"/></clipPath><clipPath id="clip134"><rect x="2338" y="93" width="4622" height="2485"/></clipPath><clipPath id="clip135"><rect x="2338" y="93" width="4622" height="2485"/></clipPath><clipPath id="clip136"><rect x="2338" y="93" width="4622" height="2485"/></clipPath><clipPath id="clip137"><rect x="2338" y="93" width="4622" height="2485"/></clipPath><clipPath id="clip138"><rect x="2338" y="93" width="4622" height="2485"/></clipPath><clipPath id="clip139"><rect x="2338" y="93" width="4622" height="2485"/></clipPath><clipPath id="clip140"><rect x="2338" y="93" width="4622" height="2485"/></clipPath><clipPath id="clip141"><rect x="2338" y="93" width="4622" height="2485"/></clipPath><clipPath id="clip142"><rect x="2338" y="93" width="4622" height="2485"/></clipPath><clipPath id="clip143"><rect x="2338" y="93" width="4622" height="2485"/></clipPath><clipPath id="clip144"><rect x="2338" y="93" width="4622" height="2485"/></clipPath><linearGradient x1="6701" y1="1434.5" x2="6723" y2="1434.5" gradientUnits="userSpaceOnUse" spreadMethod="reflect" id="fill145"><stop offset="0" stop-color="#FFC000"/><stop offset="1" stop-color="#FFC000"/></linearGradient><clipPath id="clip146"><rect x="2338" y="93" width="4622" height="2485"/></clipPath></defs><g clip-path="url(#clip0)" transform="translate(-2338 -93)"><rect x="2339" y="93.9998" width="4622" height="2484" fill="#FFFFFF"/><g clip-path="url(#clip1)"><path d="M2598.5 1892.56 6628.5 1892.56M2598.5 1566.55 6628.5 1566.55M2598.5 1240.54 6628.5 1240.54M2598.5 915.53 6628.5 915.53M2598.5 589.52 6628.5 589.52M2598.5 263.5 6628.5 263.5" stroke="#D9D9D9" stroke-width="3.4375" stroke-linejoin="round" stroke-miterlimit="10" fill="none"/></g><g clip-path="url(#clip2)"><path d="M2647.09 2051.07 2693.09 2051.07 2693.09 2218 2647.09 2218ZM2849.09 1630.05 2894.09 1630.05 2894.09 2218 2849.09 2218ZM3050.1 1104.04 3096.1 1104.04 3096.1 2218 3050.1 2218ZM3252.11 377.012 3297.11 377.012 3297.11 2218 3252.11 2218ZM3453.11 2029.07 3499.11 2029.07 3499.11 2218 3453.11 2218ZM3655.12 1727.06 3700.12 1727.06 3700.12 2218 3655.12 2218ZM3857.13 1230.04 3902.13 1230.04 3902.13 2218 3857.13 2218ZM4058.13 537.018 4103.13 537.018 4103.13 2218 4058.13 2218ZM4260.14 2149.07 4305.14 2149.07 4305.14 2218 4260.14 2218ZM4461.15 2002.07 4506.15 2002.07 4506.15 2218 4461.15 2218ZM4663.15 1697.06 4708.15 1697.06 4708.15 2218 4663.15 2218ZM4864.16 1217.04 4909.16 1217.04 4909.16 2218 4864.16 2218ZM5066.17 2206.07 5111.17 2206.07 5111.17 2218 5066.17 2218ZM5267.17 2145.07 5312.17 2145.07 5312.17 2218 5267.17 2218ZM5469.18 2041.07 5514.18 2041.07 5514.18 2218 5469.18 2218ZM5670.19 1862.06 5715.19 1862.06 5715.19 2218 5670.19 2218ZM5872.19 2210.07 5917.19 2210.07 5917.19 2218 5872.19 2218ZM6073.2 2180.07 6118.2 2180.07 6118.2 2218 6073.2 2218ZM6275.21 2096.07 6320.21 2096.07 6320.21 2218 6275.21 2218ZM6476.21 1990.07 6522.21 1990.07 6522.21 2218 6476.21 2218Z" fill="#C00000"/></g><g clip-path="url(#clip3)"><rect x="2705" y="2195" width="45" height="23" fill="url(#fill4)"/></g><g clip-path="url(#clip5)"><rect x="2906" y="2135" width="46" height="82.9998" fill="url(#fill6)"/></g><g clip-path="url(#clip7)"><rect x="3108" y="2032" width="45" height="186" fill="url(#fill8)"/></g><g clip-path="url(#clip9)"><rect x="3309" y="1857" width="46" height="361" fill="url(#fill10)"/></g><g clip-path="url(#clip11)"><rect x="3511" y="2196" width="45" height="22" fill="url(#fill12)"/></g><g clip-path="url(#clip13)"><rect x="3713" y="2156" width="45" height="61.9998" fill="url(#fill14)"/></g><g clip-path="url(#clip15)"><rect x="3914" y="2064" width="45" height="154" fill="url(#fill16)"/></g><g clip-path="url(#clip17)"><rect x="4116" y="1857" width="45" height="361" fill="url(#fill18)"/></g><g clip-path="url(#clip19)"><rect x="4317" y="2202" width="44.9995" height="15.9998" fill="url(#fill20)"/></g><g clip-path="url(#clip21)"><rect x="4519" y="2182" width="45" height="35.9998" fill="url(#fill22)"/></g><g clip-path="url(#clip23)"><rect x="4720" y="2140" width="45" height="78" fill="url(#fill24)"/></g><g clip-path="url(#clip25)"><rect x="4922" y="2071" width="44.9995" height="147" fill="url(#fill26)"/></g><g clip-path="url(#clip27)"><rect x="5123" y="2214" width="45" height="3.99976" fill="url(#fill28)"/></g><g clip-path="url(#clip29)"><rect x="5325" y="2200" width="45" height="17.9998" fill="url(#fill30)"/></g><g clip-path="url(#clip31)"><rect x="5526" y="2176" width="45" height="42" fill="url(#fill32)"/></g><g clip-path="url(#clip33)"><rect x="5728" y="2131" width="45" height="87" fill="url(#fill34)"/></g><g clip-path="url(#clip35)"><rect x="5929" y="2215" width="46" height="2.99976" fill="url(#fill36)"/></g><g clip-path="url(#clip37)"><rect x="6131" y="2204" width="45" height="13.9998" fill="url(#fill38)"/></g><g clip-path="url(#clip39)"><rect x="6332" y="2179" width="46" height="38.9998" fill="url(#fill40)"/></g><g clip-path="url(#clip41)"><rect x="6534" y="2128" width="45" height="89.9998" fill="url(#fill42)"/></g><g clip-path="url(#clip43)"><path d="M2598.5 2218.5 6628.5 2218.5" stroke="#D9D9D9" stroke-width="3.4375" stroke-linejoin="round" stroke-miterlimit="10" fill="none" fill-rule="evenodd"/></g><g clip-path="url(#clip44)"><path d="M2598.5 2218.5 2598.5 2298.5M2799.59 2218.5 2799.59 2298.5M3000.6 2218.5 3000.6 2298.5M3202.61 2218.5 3202.61 2298.5M3404.61 2218.5 3404.61 2298.5M3605.62 2218.5 3605.62 2298.5M3807.63 2218.5 3807.63 2298.5M4008.63 2218.5 4008.63 2298.5M4210.64 2218.5 4210.64 2298.5M4411.65 2218.5 4411.65 2298.5M4613.65 2218.5 4613.65 2298.5M4814.66 2218.5 4814.66 2298.5M5016.67 2218.5 5016.67 2298.5M5217.67 2218.5 5217.67 2298.5M5419.68 2218.5 5419.68 2298.5M5620.68 2218.5 5620.68 2298.5M5822.69 2218.5 5822.69 2298.5M6023.7 2218.5 6023.7 2298.5M6225.7 2218.5 6225.7 2298.5M6426.71 2218.5 6426.71 2298.5M6628.5 2218.5 6628.5 2298.5" stroke="#D9D9D9" stroke-width="3.4375" stroke-linejoin="round" stroke-miterlimit="10" fill="none"/></g><g clip-path="url(#clip45)"><path d="M2598.5 2298.5 2598.5 2378.5M2799.59 2298.5 2799.59 2378.5M3000.6 2298.5 3000.6 2378.5M3202.61 2298.5 3202.61 2378.5M3404.61 2298.5 3404.61 2378.5M3605.62 2298.5 3605.62 2378.5M3807.63 2298.5 3807.63 2378.5M4008.63 2298.5 4008.63 2378.5M4210.64 2298.5 4210.64 2378.5M4411.65 2298.5 4411.65 2378.5M4613.65 2298.5 4613.65 2378.5M4814.66 2298.5 4814.66 2378.5M5016.67 2298.5 5016.67 2378.5M5217.67 2298.5 5217.67 2378.5M5419.68 2298.5 5419.68 2378.5M5620.68 2298.5 5620.68 2378.5M5822.69 2298.5 5822.69 2378.5M6023.7 2298.5 6023.7 2378.5M6225.7 2298.5 6225.7 2378.5M6426.71 2298.5 6426.71 2378.5M6628.5 2298.5 6628.5 2378.5" stroke="#D9D9D9" stroke-width="3.4375" stroke-linejoin="round" stroke-miterlimit="10" fill="none"/></g><g clip-path="url(#clip46)"><path d="M2598.5 2378.5 2598.5 2458.5M3404.61 2378.5 3404.61 2458.5M4210.64 2378.5 4210.64 2458.5M5016.67 2378.5 5016.67 2458.5M5822.69 2378.5 5822.69 2458.5M6628.5 2378.5 6628.5 2458.5" stroke="#D9D9D9" stroke-width="3.4375" stroke-linejoin="round" stroke-miterlimit="10" fill="none"/></g><g clip-path="url(#clip47)"><text fill="#404040" font-family="Calibri,Calibri_MSFontService,sans-serif" font-weight="400" font-size="41" transform="matrix(1 0 0 1 2633.59 2019)">25,6</text></g><g clip-path="url(#clip48)"><text fill="#404040" font-family="Calibri,Calibri_MSFontService,sans-serif" font-weight="400" font-size="41" transform="matrix(1 0 0 1 2835.12 1598)">90,2</text></g><g clip-path="url(#clip49)"><text fill="#404040" font-family="Calibri,Calibri_MSFontService,sans-serif" font-weight="400" font-size="41" transform="matrix(1 0 0 1 3026.2 1072)">171,0</text></g><g clip-path="url(#clip50)"><text fill="#404040" font-family="Calibri,Calibri_MSFontService,sans-serif" font-weight="400" font-size="41" transform="matrix(1 0 0 1 3227.73 345)">282,6</text></g><g clip-path="url(#clip51)"><text fill="#404040" font-family="Calibri,Calibri_MSFontService,sans-serif" font-weight="400" font-size="41" transform="matrix(1 0 0 1 3439.71 1997)">29,0</text></g><g clip-path="url(#clip52)"><text fill="#404040" font-family="Calibri,Calibri_MSFontService,sans-serif" font-weight="400" font-size="41" transform="matrix(1 0 0 1 3641.24 1695)">75,4</text></g><g clip-path="url(#clip53)"><text fill="#404040" font-family="Calibri,Calibri_MSFontService,sans-serif" font-weight="400" font-size="41" transform="matrix(1 0 0 1 3832.32 1198)">151,6</text></g><g clip-path="url(#clip54)"><text fill="#404040" font-family="Calibri,Calibri_MSFontService,sans-serif" font-weight="400" font-size="41" transform="matrix(1 0 0 1 4033.85 505)">258,0</text></g><g clip-path="url(#clip55)"><text fill="#404040" font-family="Calibri,Calibri_MSFontService,sans-serif" font-weight="400" font-size="41" transform="matrix(1 0 0 1 4245.83 2117)">10,6</text></g><g clip-path="url(#clip56)"><text fill="#404040" font-family="Calibri,Calibri_MSFontService,sans-serif" font-weight="400" font-size="41" transform="matrix(1 0 0 1 4447.36 1970)">33,2</text></g><g clip-path="url(#clip57)"><text fill="#404040" font-family="Calibri,Calibri_MSFontService,sans-serif" font-weight="400" font-size="41" transform="matrix(1 0 0 1 4648.89 1665)">80,0</text></g><g clip-path="url(#clip58)"><text fill="#404040" font-family="Calibri,Calibri_MSFontService,sans-serif" font-weight="400" font-size="41" transform="matrix(1 0 0 1 4839.97 1185)">153,6</text></g><g clip-path="url(#clip59)"><text fill="#404040" font-family="Calibri,Calibri_MSFontService,sans-serif" font-weight="400" font-size="41" transform="matrix(1 0 0 1 5062.4 2174)">1,8</text></g><g clip-path="url(#clip60)"><text fill="#404040" font-family="Calibri,Calibri_MSFontService,sans-serif" font-weight="400" font-size="41" transform="matrix(1 0 0 1 5253.48 2113)">11,2</text></g><g clip-path="url(#clip61)"><text fill="#404040" font-family="Calibri,Calibri_MSFontService,sans-serif" font-weight="400" font-size="41" transform="matrix(1 0 0 1 5455.01 2009)">27,2</text></g><g clip-path="url(#clip62)"><text fill="#404040" font-family="Calibri,Calibri_MSFontService,sans-serif" font-weight="400" font-size="41" transform="matrix(1 0 0 1 5656.54 1830)">54,6</text></g><g clip-path="url(#clip63)"><text fill="#404040" font-family="Calibri,Calibri_MSFontService,sans-serif" font-weight="400" font-size="41" transform="matrix(1 0 0 1 5868.52 2178)">1,2</text></g><g clip-path="url(#clip64)"><text fill="#404040" font-family="Calibri,Calibri_MSFontService,sans-serif" font-weight="400" font-size="41" transform="matrix(1 0 0 1 6070.05 2148)">5,8</text></g><g clip-path="url(#clip65)"><text fill="#404040" font-family="Calibri,Calibri_MSFontService,sans-serif" font-weight="400" font-size="41" transform="matrix(1 0 0 1 6261.13 2064)">18,8</text></g><g clip-path="url(#clip66)"><text fill="#404040" font-family="Calibri,Calibri_MSFontService,sans-serif" font-weight="400" font-size="41" transform="matrix(1 0 0 1 6462.66 1958)">35,0</text></g><g clip-path="url(#clip67)"><text fill="#404040" font-family="Calibri,Calibri_MSFontService,sans-serif" font-weight="400" font-size="41" transform="matrix(1 0 0 1 2701.43 2163)">3,6</text></g><g clip-path="url(#clip68)"><text fill="#404040" font-family="Calibri,Calibri_MSFontService,sans-serif" font-weight="400" font-size="41" transform="matrix(1 0 0 1 2892.51 2103)">12,8</text></g><g clip-path="url(#clip69)"><text fill="#404040" font-family="Calibri,Calibri_MSFontService,sans-serif" font-weight="400" font-size="41" transform="matrix(1 0 0 1 3094.04 2000)">28,6</text></g><g clip-path="url(#clip70)"><text fill="#404040" font-family="Calibri,Calibri_MSFontService,sans-serif" font-weight="400" font-size="41" transform="matrix(1 0 0 1 3295.57 1825)">55,4</text></g><g clip-path="url(#clip71)"><text fill="#404040" font-family="Calibri,Calibri_MSFontService,sans-serif" font-weight="400" font-size="41" transform="matrix(1 0 0 1 3507.55 2164)">3,4</text></g><g clip-path="url(#clip72)"><text fill="#404040" font-family="Calibri,Calibri_MSFontService,sans-serif" font-weight="400" font-size="41" transform="matrix(1 0 0 1 3709.08 2124)">9,6</text></g><g clip-path="url(#clip73)"><text fill="#404040" font-family="Calibri,Calibri_MSFontService,sans-serif" font-weight="400" font-size="41" transform="matrix(1 0 0 1 3900.16 2032)">23,6</text></g><g clip-path="url(#clip74)"><text fill="#404040" font-family="Calibri,Calibri_MSFontService,sans-serif" font-weight="400" font-size="41" transform="matrix(1 0 0 1 4101.69 1825)">55,4</text></g><g clip-path="url(#clip75)"><text fill="#404040" font-family="Calibri,Calibri_MSFontService,sans-serif" font-weight="400" font-size="41" transform="matrix(1 0 0 1 4313.67 2170)">2,4</text></g><g clip-path="url(#clip76)"><text fill="#404040" font-family="Calibri,Calibri_MSFontService,sans-serif" font-weight="400" font-size="41" transform="matrix(1 0 0 1 4515.2 2150)">5,6</text></g><g clip-path="url(#clip77)"><text fill="#404040" font-family="Calibri,Calibri_MSFontService,sans-serif" font-weight="400" font-size="41" transform="matrix(1 0 0 1 4706.28 2108)">12,0</text></g><g clip-path="url(#clip78)"><text fill="#404040" font-family="Calibri,Calibri_MSFontService,sans-serif" font-weight="400" font-size="41" transform="matrix(1 0 0 1 4907.81 2039)">22,6</text></g><g clip-path="url(#clip79)"><text fill="#404040" font-family="Calibri,Calibri_MSFontService,sans-serif" font-weight="400" font-size="41" transform="matrix(1 0 0 1 5119.79 2182)">0,6</text></g><g clip-path="url(#clip80)"><text fill="#404040" font-family="Calibri,Calibri_MSFontService,sans-serif" font-weight="400" font-size="41" transform="matrix(1 0 0 1 5321.32 2168)">2,8</text></g><g clip-path="url(#clip81)"><text fill="#404040" font-family="Calibri,Calibri_MSFontService,sans-serif" font-weight="400" font-size="41" transform="matrix(1 0 0 1 5522.85 2144)">6,4</text></g><g clip-path="url(#clip82)"><text fill="#404040" font-family="Calibri,Calibri_MSFontService,sans-serif" font-weight="400" font-size="41" transform="matrix(1 0 0 1 5713.93 2099)">13,4</text></g><g clip-path="url(#clip83)"><text fill="#404040" font-family="Calibri,Calibri_MSFontService,sans-serif" font-weight="400" font-size="41" transform="matrix(1 0 0 1 5925.91 2184)">0,4</text></g><g clip-path="url(#clip84)"><text fill="#404040" font-family="Calibri,Calibri_MSFontService,sans-serif" font-weight="400" font-size="41" transform="matrix(1 0 0 1 6127.44 2172)">2,2</text></g><g clip-path="url(#clip85)"><text fill="#404040" font-family="Calibri,Calibri_MSFontService,sans-serif" font-weight="400" font-size="41" transform="matrix(1 0 0 1 6328.97 2147)">6,0</text></g><g clip-path="url(#clip86)"><text fill="#404040" font-family="Calibri,Calibri_MSFontService,sans-serif" font-weight="400" font-size="41" transform="matrix(1 0 0 1 6520.05 2096)">13,8</text></g><g clip-path="url(#clip87)"><text fill="#595959" font-family="Calibri,Calibri_MSFontService,sans-serif" font-weight="400" font-size="41" transform="matrix(1 0 0 1 2507.66 2230)">0,0</text></g><g clip-path="url(#clip88)"><text fill="#595959" font-family="Calibri,Calibri_MSFontService,sans-serif" font-weight="400" font-size="41" transform="matrix(1 0 0 1 2486.76 1904)">50,0</text></g><g clip-path="url(#clip89)"><text fill="#595959" font-family="Calibri,Calibri_MSFontService,sans-serif" font-weight="400" font-size="41" transform="matrix(1 0 0 1 2465.86 1578)">100,0</text></g><g clip-path="url(#clip90)"><text fill="#595959" font-family="Calibri,Calibri_MSFontService,sans-serif" font-weight="400" font-size="41" transform="matrix(1 0 0 1 2465.86 1252)">150,0</text></g><g clip-path="url(#clip91)"><text fill="#595959" font-family="Calibri,Calibri_MSFontService,sans-serif" font-weight="400" font-size="41" transform="matrix(1 0 0 1 2465.86 927)">200,0</text></g><g clip-path="url(#clip92)"><text fill="#595959" font-family="Calibri,Calibri_MSFontService,sans-serif" font-weight="400" font-size="41" transform="matrix(1 0 0 1 2465.86 601)">250,0</text></g><g clip-path="url(#clip93)"><text fill="#595959" font-family="Calibri,Calibri_MSFontService,sans-serif" font-weight="400" font-size="41" transform="matrix(1 0 0 1 2465.86 275)">300,0</text></g><g clip-path="url(#clip94)"><text fill="#595959" font-family="Calibri,Calibri_MSFontService,sans-serif" font-weight="400" font-size="41" transform="matrix(1 0 0 1 2677.88 2283)">48</text></g><g clip-path="url(#clip95)"><text fill="#595959" font-family="Calibri,Calibri_MSFontService,sans-serif" font-weight="400" font-size="41" transform="matrix(1 0 0 1 2879.41 2283)">24</text></g><g clip-path="url(#clip96)"><text fill="#595959" font-family="Calibri,Calibri_MSFontService,sans-serif" font-weight="400" font-size="41" transform="matrix(1 0 0 1 3080.94 2283)">12</text></g><g clip-path="url(#clip97)"><text fill="#595959" font-family="Calibri,Calibri_MSFontService,sans-serif" font-weight="400" font-size="41" transform="matrix(1 0 0 1 3292.92 2283)">6</text></g><g clip-path="url(#clip98)"><text fill="#595959" font-family="Calibri,Calibri_MSFontService,sans-serif" font-weight="400" font-size="41" transform="matrix(1 0 0 1 3484 2283)">48</text></g><g clip-path="url(#clip99)"><text fill="#595959" font-family="Calibri,Calibri_MSFontService,sans-serif" font-weight="400" font-size="41" transform="matrix(1 0 0 1 3685.53 2283)">24</text></g><g clip-path="url(#clip100)"><text fill="#595959" font-family="Calibri,Calibri_MSFontService,sans-serif" font-weight="400" font-size="41" transform="matrix(1 0 0 1 3887.06 2283)">12</text></g><g clip-path="url(#clip101)"><text fill="#595959" font-family="Calibri,Calibri_MSFontService,sans-serif" font-weight="400" font-size="41" transform="matrix(1 0 0 1 4099.04 2283)">6</text></g><g clip-path="url(#clip102)"><text fill="#595959" font-family="Calibri,Calibri_MSFontService,sans-serif" font-weight="400" font-size="41" transform="matrix(1 0 0 1 4290.12 2283)">48</text></g><g clip-path="url(#clip103)"><text fill="#595959" font-family="Calibri,Calibri_MSFontService,sans-serif" font-weight="400" font-size="41" transform="matrix(1 0 0 1 4491.65 2283)">24</text></g><g clip-path="url(#clip104)"><text fill="#595959" font-family="Calibri,Calibri_MSFontService,sans-serif" font-weight="400" font-size="41" transform="matrix(1 0 0 1 4693.18 2283)">12</text></g><g clip-path="url(#clip105)"><text fill="#595959" font-family="Calibri,Calibri_MSFontService,sans-serif" font-weight="400" font-size="41" transform="matrix(1 0 0 1 4905.16 2283)">6</text></g><g clip-path="url(#clip106)"><text fill="#595959" font-family="Calibri,Calibri_MSFontService,sans-serif" font-weight="400" font-size="41" transform="matrix(1 0 0 1 5096.24 2283)">48</text></g><g clip-path="url(#clip107)"><text fill="#595959" font-family="Calibri,Calibri_MSFontService,sans-serif" font-weight="400" font-size="41" transform="matrix(1 0 0 1 5297.77 2283)">24</text></g><g clip-path="url(#clip108)"><text fill="#595959" font-family="Calibri,Calibri_MSFontService,sans-serif" font-weight="400" font-size="41" transform="matrix(1 0 0 1 5499.3 2283)">12</text></g><g clip-path="url(#clip109)"><text fill="#595959" font-family="Calibri,Calibri_MSFontService,sans-serif" font-weight="400" font-size="41" transform="matrix(1 0 0 1 5711.28 2283)">6</text></g><g clip-path="url(#clip110)"><text fill="#595959" font-family="Calibri,Calibri_MSFontService,sans-serif" font-weight="400" font-size="41" transform="matrix(1 0 0 1 5902.36 2283)">48</text></g><g clip-path="url(#clip111)"><text fill="#595959" font-family="Calibri,Calibri_MSFontService,sans-serif" font-weight="400" font-size="41" transform="matrix(1 0 0 1 6103.89 2283)">24</text></g><g clip-path="url(#clip112)"><text fill="#595959" font-family="Calibri,Calibri_MSFontService,sans-serif" font-weight="400" font-size="41" transform="matrix(1 0 0 1 6305.42 2283)">12</text></g><g clip-path="url(#clip113)"><text fill="#595959" font-family="Calibri,Calibri_MSFontService,sans-serif" font-weight="400" font-size="41" transform="matrix(1 0 0 1 6517.4 2283)">6</text></g><g clip-path="url(#clip114)"><text fill="#595959" font-family="Calibri,Calibri_MSFontService,sans-serif" font-weight="400" font-size="41" transform="matrix(1 0 0 1 2688.33 2363)">1</text></g><g clip-path="url(#clip115)"><text fill="#595959" font-family="Calibri,Calibri_MSFontService,sans-serif" font-weight="400" font-size="41" transform="matrix(1 0 0 1 2889.86 2363)">2</text></g><g clip-path="url(#clip116)"><text fill="#595959" font-family="Calibri,Calibri_MSFontService,sans-serif" font-weight="400" font-size="41" transform="matrix(1 0 0 1 3091.39 2363)">4</text></g><g clip-path="url(#clip117)"><text fill="#595959" font-family="Calibri,Calibri_MSFontService,sans-serif" font-weight="400" font-size="41" transform="matrix(1 0 0 1 3292.92 2363)">8</text></g><g clip-path="url(#clip118)"><text fill="#595959" font-family="Calibri,Calibri_MSFontService,sans-serif" font-weight="400" font-size="41" transform="matrix(1 0 0 1 3494.45 2363)">1</text></g><g clip-path="url(#clip119)"><text fill="#595959" font-family="Calibri,Calibri_MSFontService,sans-serif" font-weight="400" font-size="41" transform="matrix(1 0 0 1 3695.98 2363)">2</text></g><g clip-path="url(#clip120)"><text fill="#595959" font-family="Calibri,Calibri_MSFontService,sans-serif" font-weight="400" font-size="41" transform="matrix(1 0 0 1 3897.51 2363)">4</text></g><g clip-path="url(#clip121)"><text fill="#595959" font-family="Calibri,Calibri_MSFontService,sans-serif" font-weight="400" font-size="41" transform="matrix(1 0 0 1 4099.04 2363)">8</text></g><g clip-path="url(#clip122)"><text fill="#595959" font-family="Calibri,Calibri_MSFontService,sans-serif" font-weight="400" font-size="41" transform="matrix(1 0 0 1 4300.57 2363)">1</text></g><g clip-path="url(#clip123)"><text fill="#595959" font-family="Calibri,Calibri_MSFontService,sans-serif" font-weight="400" font-size="41" transform="matrix(1 0 0 1 4502.1 2363)">2</text></g><g clip-path="url(#clip124)"><text fill="#595959" font-family="Calibri,Calibri_MSFontService,sans-serif" font-weight="400" font-size="41" transform="matrix(1 0 0 1 4703.63 2363)">4</text></g><g clip-path="url(#clip125)"><text fill="#595959" font-family="Calibri,Calibri_MSFontService,sans-serif" font-weight="400" font-size="41" transform="matrix(1 0 0 1 4905.16 2363)">8</text></g><g clip-path="url(#clip126)"><text fill="#595959" font-family="Calibri,Calibri_MSFontService,sans-serif" font-weight="400" font-size="41" transform="matrix(1 0 0 1 5106.69 2363)">1</text></g><g clip-path="url(#clip127)"><text fill="#595959" font-family="Calibri,Calibri_MSFontService,sans-serif" font-weight="400" font-size="41" transform="matrix(1 0 0 1 5308.22 2363)">2</text></g><g clip-path="url(#clip128)"><text fill="#595959" font-family="Calibri,Calibri_MSFontService,sans-serif" font-weight="400" font-size="41" transform="matrix(1 0 0 1 5509.75 2363)">4</text></g><g clip-path="url(#clip129)"><text fill="#595959" font-family="Calibri,Calibri_MSFontService,sans-serif" font-weight="400" font-size="41" transform="matrix(1 0 0 1 5711.28 2363)">8</text></g><g clip-path="url(#clip130)"><text fill="#595959" font-family="Calibri,Calibri_MSFontService,sans-serif" font-weight="400" font-size="41" transform="matrix(1 0 0 1 5912.81 2363)">1</text></g><g clip-path="url(#clip131)"><text fill="#595959" font-family="Calibri,Calibri_MSFontService,sans-serif" font-weight="400" font-size="41" transform="matrix(1 0 0 1 6114.34 2363)">2</text></g><g clip-path="url(#clip132)"><text fill="#595959" font-family="Calibri,Calibri_MSFontService,sans-serif" font-weight="400" font-size="41" transform="matrix(1 0 0 1 6315.87 2363)">4</text></g><g clip-path="url(#clip133)"><text fill="#595959" font-family="Calibri,Calibri_MSFontService,sans-serif" font-weight="400" font-size="41" transform="matrix(1 0 0 1 6517.4 2363)">8</text></g><g clip-path="url(#clip134)"><text fill="#595959" font-family="Calibri,Calibri_MSFontService,sans-serif" font-weight="400" font-size="41" transform="matrix(1 0 0 1 2980.17 2443)">20</text></g><g clip-path="url(#clip135)"><text fill="#595959" font-family="Calibri,Calibri_MSFontService,sans-serif" font-weight="400" font-size="41" transform="matrix(1 0 0 1 3786.29 2443)">32</text></g><g clip-path="url(#clip136)"><text fill="#595959" font-family="Calibri,Calibri_MSFontService,sans-serif" font-weight="400" font-size="41" transform="matrix(1 0 0 1 4581.96 2443)">128</text></g><g clip-path="url(#clip137)"><text fill="#595959" font-family="Calibri,Calibri_MSFontService,sans-serif" font-weight="400" font-size="41" transform="matrix(1 0 0 1 5388.08 2443)">384</text></g><g clip-path="url(#clip138)"><text fill="#595959" font-family="Calibri,Calibri_MSFontService,sans-serif" font-weight="400" font-size="41" transform="matrix(1 0 0 1 6194.2 2443)">512</text></g><g clip-path="url(#clip139)"><text fill="#595959" font-family="Calibri,Calibri_MSFontService,sans-serif" font-weight="400" font-size="46" transform="matrix(6.12323e-17 -1 1 6.12323e-17 2440.17 1405)">Max Latency (ms)</text></g><g clip-path="url(#clip140)"><text fill="#595959" font-family="Calibri,Calibri_MSFontService,sans-serif" font-weight="400" font-size="46" transform="matrix(1 0 0 1 3833.95 2509)">Sequence Length / Number of Instance(s) and implied number of cores per instance</text></g><g clip-path="url(#clip141)"><text fill="#595959" font-family="Calibri,Calibri_MSFontService,sans-serif" font-weight="400" font-size="64" transform="matrix(1 0 0 1 3214.81 189)">Throughput sum over each instance for various problem sizes and number of cores for PyTorch and Tensorflow</text></g><g clip-path="url(#clip142)"><rect x="6701" y="1346" width="22" height="22" fill="#C00000"/></g><g clip-path="url(#clip143)"><text fill="#595959" font-family="Calibri,Calibri_MSFontService,sans-serif" font-weight="400" font-size="41" transform="matrix(1 0 0 1 6732.94 1368)">pytorch</text></g><g clip-path="url(#clip144)"><rect x="6701" y="1423" width="22" height="23" fill="url(#fill145)"/></g><g clip-path="url(#clip146)"><text fill="#595959" font-family="Calibri,Calibri_MSFontService,sans-serif" font-weight="400" font-size="41" transform="matrix(1 0 0 1 6732.94 1446)">tensorflow</text></g><rect x="2339.5" y="94.5" width="4622" height="2484" stroke="#D9D9D9" stroke-width="3.4375" stroke-linejoin="round" stroke-miterlimit="10" fill="none"/></g></svg>