<svg width="4708" height="2261" xmlns="http://www.w3.org/2000/svg" xmlns:xlink="http://www.w3.org/1999/xlink" overflow="hidden"><defs><clipPath id="clip0"><rect x="13" y="-1" width="4708" height="2261"/></clipPath><clipPath id="clip1"><rect x="13" y="0" width="4706" height="2257"/></clipPath><clipPath id="clip2"><rect x="332" y="169" width="4058" height="1650"/></clipPath><clipPath id="clip3"><rect x="332" y="169" width="4058" height="1650"/></clipPath><linearGradient x1="478" y1="1730" x2="435" y2="1730" gradientUnits="userSpaceOnUse" spreadMethod="reflect" id="fill4"><stop offset="0" stop-color="#FF7101"/><stop offset="0.98" stop-color="#FF8F00"/><stop offset="1" stop-color="#FF8F00"/></linearGradient><clipPath id="clip5"><rect x="332" y="169" width="4058" height="1650"/></clipPath><linearGradient x1="671" y1="1623.5" x2="628" y2="1623.5" gradientUnits="userSpaceOnUse" spreadMethod="reflect" id="fill6"><stop offset="0" stop-color="#FF7101"/><stop offset="0.98" stop-color="#FF8F00"/><stop offset="1" stop-color="#FF8F00"/></linearGradient><clipPath id="clip7"><rect x="332" y="169" width="4058" height="1650"/></clipPath><linearGradient x1="864" y1="1667.5" x2="821" y2="1667.5" gradientUnits="userSpaceOnUse" spreadMethod="reflect" id="fill8"><stop offset="0" stop-color="#FF7101"/><stop offset="0.98" stop-color="#FF8F00"/><stop offset="1" stop-color="#FF8F00"/></linearGradient><clipPath id="clip9"><rect x="332" y="169" width="4058" height="1650"/></clipPath><linearGradient x1="1057" y1="1731" x2="1014" y2="1731" gradientUnits="userSpaceOnUse" spreadMethod="reflect" id="fill10"><stop offset="0" stop-color="#FF7101"/><stop offset="0.98" stop-color="#FF8F00"/><stop offset="1" stop-color="#FF8F00"/></linearGradient><clipPath id="clip11"><rect x="332" y="169" width="4058" height="1650"/></clipPath><linearGradient x1="1250" y1="1736.5" x2="1207" y2="1736.5" gradientUnits="userSpaceOnUse" spreadMethod="reflect" id="fill12"><stop offset="0" stop-color="#FF7101"/><stop offset="0.98" stop-color="#FF8F00"/><stop offset="1" stop-color="#FF8F00"/></linearGradient><clipPath id="clip13"><rect x="332" y="169" width="4058" height="1650"/></clipPath><linearGradient x1="1443" y1="1730.5" x2="1400" y2="1730.5" gradientUnits="userSpaceOnUse" spreadMethod="reflect" id="fill14"><stop offset="0" stop-color="#FF7101"/><stop offset="0.98" stop-color="#FF8F00"/><stop offset="1" stop-color="#FF8F00"/></linearGradient><clipPath id="clip15"><rect x="332" y="169" width="4058" height="1650"/></clipPath><linearGradient x1="1636" y1="1732" x2="1593" y2="1732" gradientUnits="userSpaceOnUse" spreadMethod="reflect" id="fill16"><stop offset="0" stop-color="#FF7101"/><stop offset="0.98" stop-color="#FF8F00"/><stop offset="1" stop-color="#FF8F00"/></linearGradient><clipPath id="clip17"><rect x="332" y="169" width="4058" height="1650"/></clipPath><linearGradient x1="1829" y1="1649" x2="1786" y2="1649" gradientUnits="userSpaceOnUse" spreadMethod="reflect" id="fill18"><stop offset="0" stop-color="#FF7101"/><stop offset="0.98" stop-color="#FF8F00"/><stop offset="1" stop-color="#FF8F00"/></linearGradient><clipPath id="clip19"><rect x="332" y="169" width="4058" height="1650"/></clipPath><linearGradient x1="2023" y1="1483" x2="1979" y2="1483" gradientUnits="userSpaceOnUse" spreadMethod="reflect" id="fill20"><stop offset="0" stop-color="#FF7101"/><stop offset="0.98" stop-color="#FF8F00"/><stop offset="1" stop-color="#FF8F00"/></linearGradient><clipPath id="clip21"><rect x="332" y="169" width="4058" height="1650"/></clipPath><linearGradient x1="2216" y1="1546" x2="2172" y2="1546" gradientUnits="userSpaceOnUse" spreadMethod="reflect" id="fill22"><stop offset="0" stop-color="#FF7101"/><stop offset="0.98" stop-color="#FF8F00"/><stop offset="1" stop-color="#FF8F00"/></linearGradient><clipPath id="clip23"><rect x="332" y="169" width="4058" height="1650"/></clipPath><linearGradient x1="2409" y1="1599" x2="2365" y2="1599" gradientUnits="userSpaceOnUse" spreadMethod="reflect" id="fill24"><stop offset="0" stop-color="#FF7101"/><stop offset="0.98" stop-color="#FF8F00"/><stop offset="1" stop-color="#FF8F00"/></linearGradient><clipPath id="clip25"><rect x="332" y="169" width="4058" height="1650"/></clipPath><linearGradient x1="2602" y1="1661.5" x2="2558" y2="1661.5" gradientUnits="userSpaceOnUse" spreadMethod="reflect" id="fill26"><stop offset="0" stop-color="#FF7101"/><stop offset="0.98" stop-color="#FF8F00"/><stop offset="1" stop-color="#FF8F00"/></linearGradient><clipPath id="clip27"><rect x="332" y="169" width="4058" height="1650"/></clipPath><linearGradient x1="2795" y1="1687" x2="2751" y2="1687" gradientUnits="userSpaceOnUse" spreadMethod="reflect" id="fill28"><stop offset="0" stop-color="#FF7101"/><stop offset="0.98" stop-color="#FF8F00"/><stop offset="1" stop-color="#FF8F00"/></linearGradient><clipPath id="clip29"><rect x="332" y="169" width="4058" height="1650"/></clipPath><linearGradient x1="2988" y1="1671" x2="2945" y2="1671" gradientUnits="userSpaceOnUse" spreadMethod="reflect" id="fill30"><stop offset="0" stop-color="#FF7101"/><stop offset="0.98" stop-color="#FF8F00"/><stop offset="1" stop-color="#FF8F00"/></linearGradient><clipPath id="clip31"><rect x="332" y="169" width="4058" height="1650"/></clipPath><linearGradient x1="3181" y1="1209.5" x2="3138" y2="1209.5" gradientUnits="userSpaceOnUse" spreadMethod="reflect" id="fill32"><stop offset="0" stop-color="#FF7101"/><stop offset="0.98" stop-color="#FF8F00"/><stop offset="1" stop-color="#FF8F00"/></linearGradient><clipPath id="clip33"><rect x="332" y="169" width="4058" height="1650"/></clipPath><linearGradient x1="3374" y1="1157.5" x2="3331" y2="1157.5" gradientUnits="userSpaceOnUse" spreadMethod="reflect" id="fill34"><stop offset="0" stop-color="#FF7101"/><stop offset="0.98" stop-color="#FF8F00"/><stop offset="1" stop-color="#FF8F00"/></linearGradient><clipPath id="clip35"><rect x="332" y="169" width="4058" height="1650"/></clipPath><linearGradient x1="3567" y1="1318.5" x2="3524" y2="1318.5" gradientUnits="userSpaceOnUse" spreadMethod="reflect" id="fill36"><stop offset="0" stop-color="#FF7101"/><stop offset="0.98" stop-color="#FF8F00"/><stop offset="1" stop-color="#FF8F00"/></linearGradient><clipPath id="clip37"><rect x="332" y="169" width="4058" height="1650"/></clipPath><linearGradient x1="3760" y1="1409" x2="3717" y2="1409" gradientUnits="userSpaceOnUse" spreadMethod="reflect" id="fill38"><stop offset="0" stop-color="#FF7101"/><stop offset="0.98" stop-color="#FF8F00"/><stop offset="1" stop-color="#FF8F00"/></linearGradient><clipPath id="clip39"><rect x="332" y="169" width="4058" height="1650"/></clipPath><linearGradient x1="3953" y1="1497.5" x2="3910" y2="1497.5" gradientUnits="userSpaceOnUse" spreadMethod="reflect" id="fill40"><stop offset="0" stop-color="#FF7101"/><stop offset="0.98" stop-color="#FF8F00"/><stop offset="1" stop-color="#FF8F00"/></linearGradient><clipPath id="clip41"><rect x="332" y="169" width="4058" height="1650"/></clipPath><linearGradient x1="4146" y1="1509.5" x2="4103" y2="1509.5" gradientUnits="userSpaceOnUse" spreadMethod="reflect" id="fill42"><stop offset="0" stop-color="#FF7101"/><stop offset="0.98" stop-color="#FF8F00"/><stop offset="1" stop-color="#FF8F00"/></linearGradient><clipPath id="clip43"><rect x="332" y="169" width="4058" height="1650"/></clipPath><linearGradient x1="4339" y1="1529.5" x2="4296" y2="1529.5" gradientUnits="userSpaceOnUse" spreadMethod="reflect" id="fill44"><stop offset="0" stop-color="#FF7101"/><stop offset="0.98" stop-color="#FF8F00"/><stop offset="1" stop-color="#FF8F00"/></linearGradient><clipPath id="clip45"><rect x="13" y="0" width="4706" height="2257"/></clipPath><clipPath id="clip46"><rect x="13" y="0" width="4706" height="2257"/></clipPath><clipPath id="clip47"><rect x="13" y="0" width="4706" height="2257"/></clipPath><clipPath id="clip48"><rect x="13" y="0" width="4706" height="2257"/></clipPath><clipPath id="clip49"><rect x="13" y="0" width="4706" height="2257"/></clipPath><clipPath id="clip50"><rect x="13" y="0" width="4706" height="2257"/></clipPath><clipPath id="clip51"><rect x="13" y="0" width="4706" height="2257"/></clipPath><clipPath id="clip52"><rect x="13" y="0" width="4706" height="2257"/></clipPath><clipPath id="clip53"><rect x="13" y="0" width="4706" height="2257"/></clipPath><clipPath id="clip54"><rect x="13" y="0" width="4706" height="2257"/></clipPath><clipPath id="clip55"><rect x="13" y="0" width="4706" height="2257"/></clipPath><clipPath id="clip56"><rect x="13" y="0" width="4706" height="2257"/></clipPath><clipPath id="clip57"><rect x="13" y="0" width="4706" height="2257"/></clipPath><clipPath id="clip58"><rect x="13" y="0" width="4706" height="2257"/></clipPath><clipPath id="clip59"><rect x="13" y="0" width="4706" height="2257"/></clipPath><clipPath id="clip60"><rect x="13" y="0" width="4706" height="2257"/></clipPath><clipPath id="clip61"><rect x="13" y="0" width="4706" height="2257"/></clipPath><clipPath id="clip62"><rect x="13" y="0" width="4706" height="2257"/></clipPath><clipPath id="clip63"><rect x="13" y="0" width="4706" height="2257"/></clipPath><clipPath id="clip64"><rect x="13" y="0" width="4706" height="2257"/></clipPath><clipPath id="clip65"><rect x="13" y="0" width="4706" height="2257"/></clipPath><clipPath id="clip66"><rect x="13" y="0" width="4706" height="2257"/></clipPath><clipPath id="clip67"><rect x="13" y="0" width="4706" height="2257"/></clipPath><clipPath id="clip68"><rect x="13" y="0" width="4706" height="2257"/></clipPath><clipPath id="clip69"><rect x="13" y="0" width="4706" height="2257"/></clipPath><clipPath id="clip70"><rect x="13" y="0" width="4706" height="2257"/></clipPath><clipPath id="clip71"><rect x="13" y="0" width="4706" height="2257"/></clipPath><clipPath id="clip72"><rect x="13" y="0" width="4706" height="2257"/></clipPath><clipPath id="clip73"><rect x="13" y="0" width="4706" height="2257"/></clipPath><clipPath id="clip74"><rect x="13" y="0" width="4706" height="2257"/></clipPath><clipPath id="clip75"><rect x="13" y="0" width="4706" height="2257"/></clipPath><clipPath id="clip76"><rect x="13" y="0" width="4706" height="2257"/></clipPath><clipPath id="clip77"><rect x="13" y="0" width="4706" height="2257"/></clipPath><clipPath id="clip78"><rect x="13" y="0" width="4706" height="2257"/></clipPath><clipPath id="clip79"><rect x="13" y="0" width="4706" height="2257"/></clipPath><clipPath id="clip80"><rect x="13" y="0" width="4706" height="2257"/></clipPath><clipPath id="clip81"><rect x="13" y="0" width="4706" height="2257"/></clipPath><clipPath id="clip82"><rect x="13" y="0" width="4706" height="2257"/></clipPath><clipPath id="clip83"><rect x="13" y="0" width="4706" height="2257"/></clipPath><clipPath id="clip84"><rect x="13" y="0" width="4706" height="2257"/></clipPath><clipPath id="clip85"><rect x="13" y="0" width="4706" height="2257"/></clipPath><clipPath id="clip86"><rect x="13" y="0" width="4706" height="2257"/></clipPath><clipPath id="clip87"><rect x="13" y="0" width="4706" height="2257"/></clipPath><clipPath id="clip88"><rect x="13" y="0" width="4706" height="2257"/></clipPath><clipPath id="clip89"><rect x="13" y="0" width="4706" height="2257"/></clipPath><clipPath id="clip90"><rect x="13" y="0" width="4706" height="2257"/></clipPath><clipPath id="clip91"><rect x="13" y="0" width="4706" height="2257"/></clipPath><clipPath id="clip92"><rect x="13" y="0" width="4706" height="2257"/></clipPath><clipPath id="clip93"><rect x="13" y="0" width="4706" height="2257"/></clipPath><clipPath id="clip94"><rect x="13" y="0" width="4706" height="2257"/></clipPath><clipPath id="clip95"><rect x="13" y="0" width="4706" height="2257"/></clipPath><clipPath id="clip96"><rect x="13" y="0" width="4706" height="2257"/></clipPath><clipPath id="clip97"><rect x="13" y="0" width="4706" height="2257"/></clipPath><clipPath id="clip98"><rect x="13" y="0" width="4706" height="2257"/></clipPath><clipPath id="clip99"><rect x="13" y="0" width="4706" height="2257"/></clipPath><clipPath id="clip100"><rect x="13" y="0" width="4706" height="2257"/></clipPath><clipPath id="clip101"><rect x="13" y="0" width="4706" height="2257"/></clipPath><clipPath id="clip102"><rect x="13" y="0" width="4706" height="2257"/></clipPath><linearGradient x1="129" y1="2103.5" x2="106" y2="2103.5" gradientUnits="userSpaceOnUse" spreadMethod="reflect" id="fill103"><stop offset="0" stop-color="#FF7101"/><stop offset="0.98" stop-color="#FF8F00"/><stop offset="1" stop-color="#FF8F00"/></linearGradient><clipPath id="clip104"><rect x="13" y="0" width="4706" height="2257"/></clipPath><clipPath id="clip105"><rect x="13" y="0" width="4706" height="2257"/></clipPath><clipPath id="clip106"><rect x="13" y="0" width="4706" height="2257"/></clipPath><clipPath id="clip107"><rect x="13" y="0" width="4706" height="2257"/></clipPath><clipPath id="clip108"><rect x="13" y="0" width="4706" height="2257"/></clipPath><clipPath id="clip109"><rect x="13" y="0" width="4706" height="2257"/></clipPath><clipPath id="clip110"><rect x="13" y="0" width="4706" height="2257"/></clipPath><clipPath id="clip111"><rect x="13" y="0" width="4706" height="2257"/></clipPath><clipPath id="clip112"><rect x="13" y="0" width="4706" height="2257"/></clipPath><clipPath id="clip113"><rect x="13" y="0" width="4706" height="2257"/></clipPath><clipPath id="clip114"><rect x="13" y="0" width="4706" height="2257"/></clipPath><clipPath id="clip115"><rect x="13" y="0" width="4706" height="2257"/></clipPath><clipPath id="clip116"><rect x="13" y="0" width="4706" height="2257"/></clipPath><clipPath id="clip117"><rect x="13" y="0" width="4706" height="2257"/></clipPath><clipPath id="clip118"><rect x="13" y="0" width="4706" height="2257"/></clipPath><clipPath id="clip119"><rect x="13" y="0" width="4706" height="2257"/></clipPath><clipPath id="clip120"><rect x="13" y="0" width="4706" height="2257"/></clipPath><clipPath id="clip121"><rect x="13" y="0" width="4706" height="2257"/></clipPath><clipPath id="clip122"><rect x="13" y="0" width="4706" height="2257"/></clipPath><clipPath id="clip123"><rect x="13" y="0" width="4706" height="2257"/></clipPath><clipPath id="clip124"><rect x="13" y="0" width="4706" height="2257"/></clipPath><clipPath id="clip125"><rect x="13" y="0" width="4706" height="2257"/></clipPath><clipPath id="clip126"><rect x="13" y="0" width="4706" height="2257"/></clipPath><clipPath id="clip127"><rect x="13" y="0" width="4706" height="2257"/></clipPath><clipPath id="clip128"><rect x="13" y="0" width="4706" height="2257"/></clipPath><clipPath id="clip129"><rect x="13" y="0" width="4706" height="2257"/></clipPath><clipPath id="clip130"><rect x="13" y="0" width="4706" height="2257"/></clipPath><clipPath id="clip131"><rect x="13" y="0" width="4706" height="2257"/></clipPath><clipPath id="clip132"><rect x="13" y="0" width="4706" height="2257"/></clipPath><clipPath id="clip133"><rect x="13" y="0" width="4706" height="2257"/></clipPath><clipPath id="clip134"><rect x="13" y="0" width="4706" height="2257"/></clipPath><clipPath id="clip135"><rect x="13" y="0" width="4706" height="2257"/></clipPath><clipPath id="clip136"><rect x="13" y="0" width="4706" height="2257"/></clipPath><clipPath id="clip137"><rect x="13" y="0" width="4706" height="2257"/></clipPath><clipPath id="clip138"><rect x="13" y="0" width="4706" height="2257"/></clipPath><clipPath id="clip139"><rect x="13" y="0" width="4706" height="2257"/></clipPath><linearGradient x1="4481" y1="1227.5" x2="4459" y2="1227.5" gradientUnits="userSpaceOnUse" spreadMethod="reflect" id="fill140"><stop offset="0" stop-color="#FF7101"/><stop offset="0.98" stop-color="#FF8F00"/><stop offset="1" stop-color="#FF8F00"/></linearGradient><clipPath id="clip141"><rect x="13" y="0" width="4706" height="2257"/></clipPath></defs><g clip-path="url(#clip0)" transform="translate(-13 1)"><rect x="14.0001" y="0" width="4705" height="2258" fill="#FFFFFF"/><g clip-path="url(#clip1)"><path d="M332.5 1541.55 4386.5 1541.55M332.5 1267.54 4386.5 1267.54M332.5 992.533 4386.5 992.533M332.5 718.524 4386.5 718.524M332.5 444.515 4386.5 444.515M332.5 169.5 4386.5 169.5" stroke="#D9D9D9" stroke-width="3.4375" stroke-linejoin="round" stroke-miterlimit="10" fill="none"/></g><g clip-path="url(#clip2)"><path d="M380.012 1701.06 423.014 1701.06 423.014 1816 380.012 1816ZM573.019 1733.06 616.02 1733.06 616.02 1816 573.019 1816ZM766.025 1766.06 809.027 1766.06 809.027 1816 766.025 1816ZM959.031 1783.06 1002.03 1783.06 1002.03 1816 959.031 1816ZM1152.04 1790.06 1195.04 1790.06 1195.04 1816 1152.04 1816ZM1345.04 1791.06 1388.05 1791.06 1388.05 1816 1345.04 1816ZM1538.05 1789.06 1581.05 1789.06 1581.05 1816 1538.05 1816ZM1731.06 1576.05 1774.06 1576.05 1774.06 1816 1731.06 1816ZM1924.06 1665.05 1967.06 1665.05 1967.06 1816 1924.06 1816ZM2117.07 1722.06 2161.07 1722.06 2161.07 1816 2117.07 1816ZM2310.08 1758.06 2354.08 1758.06 2354.08 1816 2310.08 1816ZM2503.08 1772.06 2547.08 1772.06 2547.08 1816 2503.08 1816ZM2696.09 1777.06 2740.09 1777.06 2740.09 1816 2696.09 1816ZM2889.09 1771.06 2933.1 1771.06 2933.1 1816 2889.09 1816ZM3083.1 757.025 3126.1 757.025 3126.1 1816 3083.1 1816ZM3276.11 1228.04 3319.11 1228.04 3319.11 1816 3276.11 1816ZM3469.11 1503.05 3512.12 1503.05 3512.12 1816 3469.11 1816ZM3662.12 1615.05 3705.12 1615.05 3705.12 1816 3662.12 1816ZM3855.13 1690.06 3898.13 1690.06 3898.13 1816 3855.13 1816ZM4048.13 1669.05 4091.13 1669.05 4091.13 1816 4048.13 1816ZM4241.14 1725.06 4284.14 1725.06 4284.14 1816 4241.14 1816Z" fill="#C00000"/></g><g clip-path="url(#clip3)"><rect x="435" y="1644" width="43.0003" height="172" fill="url(#fill4)"/></g><g clip-path="url(#clip5)"><rect x="628" y="1431" width="42.9999" height="385" fill="url(#fill6)"/></g><g clip-path="url(#clip7)"><rect x="821" y="1519" width="42.9999" height="297" fill="url(#fill8)"/></g><g clip-path="url(#clip9)"><rect x="1014" y="1646" width="42.9999" height="170" fill="url(#fill10)"/></g><g clip-path="url(#clip11)"><rect x="1207" y="1657" width="43" height="159" fill="url(#fill12)"/></g><g clip-path="url(#clip13)"><rect x="1400" y="1645" width="43" height="171" fill="url(#fill14)"/></g><g clip-path="url(#clip15)"><rect x="1593" y="1648" width="43" height="168" fill="url(#fill16)"/></g><g clip-path="url(#clip17)"><rect x="1786" y="1482" width="43" height="334" fill="url(#fill18)"/></g><g clip-path="url(#clip19)"><rect x="1979" y="1150" width="44" height="666" fill="url(#fill20)"/></g><g clip-path="url(#clip21)"><rect x="2172" y="1276" width="44" height="540" fill="url(#fill22)"/></g><g clip-path="url(#clip23)"><rect x="2365" y="1382" width="44" height="434" fill="url(#fill24)"/></g><g clip-path="url(#clip25)"><rect x="2558" y="1507" width="44" height="309" fill="url(#fill26)"/></g><g clip-path="url(#clip27)"><rect x="2751" y="1558" width="44" height="258" fill="url(#fill28)"/></g><g clip-path="url(#clip29)"><rect x="2945" y="1526" width="43" height="290" fill="url(#fill30)"/></g><g clip-path="url(#clip31)"><rect x="3138" y="603" width="43" height="1213" fill="url(#fill32)"/></g><g clip-path="url(#clip33)"><rect x="3331" y="499" width="43" height="1317" fill="url(#fill34)"/></g><g clip-path="url(#clip35)"><rect x="3524" y="821" width="43" height="995" fill="url(#fill36)"/></g><g clip-path="url(#clip37)"><rect x="3717" y="1002" width="43" height="814" fill="url(#fill38)"/></g><g clip-path="url(#clip39)"><rect x="3910" y="1179" width="43" height="637" fill="url(#fill40)"/></g><g clip-path="url(#clip41)"><rect x="4103" y="1203" width="43" height="613" fill="url(#fill42)"/></g><g clip-path="url(#clip43)"><rect x="4296" y="1243" width="43.0005" height="573" fill="url(#fill44)"/></g><g clip-path="url(#clip45)"><path d="M332.5 1815.5 4386.5 1815.5" stroke="#D9D9D9" stroke-width="3.4375" stroke-linejoin="round" stroke-miterlimit="10" fill="none" fill-rule="evenodd"/></g><g clip-path="url(#clip46)"><path d="M332.5 1815.5 4386.5 1815.5" stroke="#D9D9D9" stroke-width="3.4375" stroke-linejoin="round" stroke-miterlimit="10" fill="none" fill-rule="evenodd"/></g><g clip-path="url(#clip47)"><path d="M332.5 1815.5 4386.5 1815.5" stroke="#D9D9D9" stroke-width="3.4375" stroke-linejoin="round" stroke-miterlimit="10" fill="none" fill-rule="evenodd"/></g><g clip-path="url(#clip48)"><path d="M332.5 1815.5 4386.5 1815.5" stroke="#D9D9D9" stroke-width="3.4375" stroke-linejoin="round" stroke-miterlimit="10" fill="none" fill-rule="evenodd"/></g><g clip-path="url(#clip49)"><path d="M332.5 1815.5 332.5 1879.5M332.5 1815.5 332.5 1879.5M525.517 1815.5 525.517 1879.5M525.517 1815.5 525.517 1879.5M718.524 1815.5 718.524 1879.5M718.524 1815.5 718.524 1879.5M911.53 1815.5 911.53 1879.5M911.53 1815.5 911.53 1879.5M1104.54 1815.5 1104.54 1879.5M1104.54 1815.5 1104.54 1879.5M1297.54 1815.5 1297.54 1879.5M1297.54 1815.5 1297.54 1879.5M1490.55 1815.5 1490.55 1879.5M1490.55 1815.5 1490.55 1879.5M1683.56 1815.5 1683.56 1879.5M1683.56 1815.5 1683.56 1879.5M1876.56 1815.5 1876.56 1879.5M1876.56 1815.5 1876.56 1879.5M2069.57 1815.5 2069.57 1879.5M2069.57 1815.5 2069.57 1879.5M2262.57 1815.5 2262.57 1879.5M2262.57 1815.5 2262.57 1879.5M2455.58 1815.5 2455.58 1879.5M2455.58 1815.5 2455.58 1879.5M2649.59 1815.5 2649.59 1879.5M2649.59 1815.5 2649.59 1879.5M2842.59 1815.5 2842.59 1879.5M2842.59 1815.5 2842.59 1879.5M3035.6 1815.5 3035.6 1879.5M3035.6 1815.5 3035.6 1879.5M3228.61 1815.5 3228.61 1879.5M3228.61 1815.5 3228.61 1879.5M3421.61 1815.5 3421.61 1879.5M3421.61 1815.5 3421.61 1879.5M3614.62 1815.5 3614.62 1879.5M3614.62 1815.5 3614.62 1879.5M3807.63 1815.5 3807.63 1879.5M3807.63 1815.5 3807.63 1879.5M4000.63 1815.5 4000.63 1879.5M4000.63 1815.5 4000.63 1879.5M4193.64 1815.5 4193.64 1879.5M4193.64 1815.5 4193.64 1879.5M4386.5 1815.5 4386.5 1879.5M4386.5 1815.5 4386.5 1879.5" stroke="#D9D9D9" stroke-width="3.4375" stroke-linejoin="round" stroke-miterlimit="10" fill="none"/></g><g clip-path="url(#clip50)"><text fill="#595959" font-family="Calibri,Calibri_MSFontService,sans-serif" font-weight="400" font-size="41" transform="matrix(1 0 0 1 418.405 1859)">1</text></g><g clip-path="url(#clip51)"><text fill="#595959" font-family="Calibri,Calibri_MSFontService,sans-serif" font-weight="400" font-size="41" transform="matrix(1 0 0 1 611.469 1859)">2</text></g><g clip-path="url(#clip52)"><text fill="#595959" font-family="Calibri,Calibri_MSFontService,sans-serif" font-weight="400" font-size="41" transform="matrix(1 0 0 1 804.534 1859)">4</text></g><g clip-path="url(#clip53)"><text fill="#595959" font-family="Calibri,Calibri_MSFontService,sans-serif" font-weight="400" font-size="41" transform="matrix(1 0 0 1 997.599 1859)">8</text></g><g clip-path="url(#clip54)"><text fill="#595959" font-family="Calibri,Calibri_MSFontService,sans-serif" font-weight="400" font-size="41" transform="matrix(1 0 0 1 1180.21 1859)">16</text></g><g clip-path="url(#clip55)"><text fill="#595959" font-family="Calibri,Calibri_MSFontService,sans-serif" font-weight="400" font-size="41" transform="matrix(1 0 0 1 1373.28 1859)">24</text></g><g clip-path="url(#clip56)"><text fill="#595959" font-family="Calibri,Calibri_MSFontService,sans-serif" font-weight="400" font-size="41" transform="matrix(1 0 0 1 1566.34 1859)">48</text></g><g clip-path="url(#clip57)"><text fill="#595959" font-family="Calibri,Calibri_MSFontService,sans-serif" font-weight="400" font-size="41" transform="matrix(1 0 0 1 1769.86 1859)">1</text></g><g clip-path="url(#clip58)"><text fill="#595959" font-family="Calibri,Calibri_MSFontService,sans-serif" font-weight="400" font-size="41" transform="matrix(1 0 0 1 1962.92 1859)">2</text></g><g clip-path="url(#clip59)"><text fill="#595959" font-family="Calibri,Calibri_MSFontService,sans-serif" font-weight="400" font-size="41" transform="matrix(1 0 0 1 2155.99 1859)">4</text></g><g clip-path="url(#clip60)"><text fill="#595959" font-family="Calibri,Calibri_MSFontService,sans-serif" font-weight="400" font-size="41" transform="matrix(1 0 0 1 2349.05 1859)">8</text></g><g clip-path="url(#clip61)"><text fill="#595959" font-family="Calibri,Calibri_MSFontService,sans-serif" font-weight="400" font-size="41" transform="matrix(1 0 0 1 2531.66 1859)">16</text></g><g clip-path="url(#clip62)"><text fill="#595959" font-family="Calibri,Calibri_MSFontService,sans-serif" font-weight="400" font-size="41" transform="matrix(1 0 0 1 2724.73 1859)">24</text></g><g clip-path="url(#clip63)"><text fill="#595959" font-family="Calibri,Calibri_MSFontService,sans-serif" font-weight="400" font-size="41" transform="matrix(1 0 0 1 2917.79 1859)">48</text></g><g clip-path="url(#clip64)"><text fill="#595959" font-family="Calibri,Calibri_MSFontService,sans-serif" font-weight="400" font-size="41" transform="matrix(1 0 0 1 3121.31 1859)">1</text></g><g clip-path="url(#clip65)"><text fill="#595959" font-family="Calibri,Calibri_MSFontService,sans-serif" font-weight="400" font-size="41" transform="matrix(1 0 0 1 3314.37 1859)">2</text></g><g clip-path="url(#clip66)"><text fill="#595959" font-family="Calibri,Calibri_MSFontService,sans-serif" font-weight="400" font-size="41" transform="matrix(1 0 0 1 3507.44 1859)">4</text></g><g clip-path="url(#clip67)"><text fill="#595959" font-family="Calibri,Calibri_MSFontService,sans-serif" font-weight="400" font-size="41" transform="matrix(1 0 0 1 3700.5 1859)">8</text></g><g clip-path="url(#clip68)"><text fill="#595959" font-family="Calibri,Calibri_MSFontService,sans-serif" font-weight="400" font-size="41" transform="matrix(1 0 0 1 3883.12 1859)">16</text></g><g clip-path="url(#clip69)"><text fill="#595959" font-family="Calibri,Calibri_MSFontService,sans-serif" font-weight="400" font-size="41" transform="matrix(1 0 0 1 4076.18 1859)">24</text></g><g clip-path="url(#clip70)"><text fill="#595959" font-family="Calibri,Calibri_MSFontService,sans-serif" font-weight="400" font-size="41" transform="matrix(1 0 0 1 4269.24 1859)">48</text></g><g clip-path="url(#clip71)"><path d="M332.5 1879.5 332.5 1942.5M1683.56 1879.5 1683.56 1942.5M3035.6 1879.5 3035.6 1942.5M4386.5 1879.5 4386.5 1942.5" stroke="#D9D9D9" stroke-width="3.4375" stroke-linejoin="round" stroke-miterlimit="10" fill="none"/></g><g clip-path="url(#clip72)"><text fill="#595959" font-family="Calibri,Calibri_MSFontService,sans-serif" font-weight="400" font-size="41" transform="matrix(1 0 0 1 987.149 1922)">32</text></g><g clip-path="url(#clip73)"><text fill="#595959" font-family="Calibri,Calibri_MSFontService,sans-serif" font-weight="400" font-size="41" transform="matrix(1 0 0 1 2328.15 1922)">128</text></g><g clip-path="url(#clip74)"><text fill="#595959" font-family="Calibri,Calibri_MSFontService,sans-serif" font-weight="400" font-size="41" transform="matrix(1 0 0 1 3679.6 1922)">512</text></g><g clip-path="url(#clip75)"><path d="M332.5 1942.5 332.5 2006.5M4386.5 1942.5 4386.5 2006.5" stroke="#D9D9D9" stroke-width="3.4375" stroke-linejoin="round" stroke-miterlimit="10" fill="none"/></g><g clip-path="url(#clip76)"><text fill="#595959" font-family="Calibri,Calibri_MSFontService,sans-serif" font-weight="400" font-size="41" transform="matrix(1 0 0 1 2349.05 1986)">1</text></g><g clip-path="url(#clip77)"><path d="M91.4999 2006.5 4386.5 2006.5M91.4999 2006.5 91.4999 2071.5M332.511 2006.5 332.511 2071.5M332.511 2006.5 332.511 2071.5M525.517 2006.5 525.517 2071.5M525.517 2006.5 525.517 2071.5M718.524 2006.5 718.524 2071.5M718.524 2006.5 718.524 2071.5M911.53 2006.5 911.53 2071.5M911.53 2006.5 911.53 2071.5M1104.54 2006.5 1104.54 2071.5M1104.54 2006.5 1104.54 2071.5M1297.54 2006.5 1297.54 2071.5M1297.54 2006.5 1297.54 2071.5M1490.55 2006.5 1490.55 2071.5M1490.55 2006.5 1490.55 2071.5M1683.56 2006.5 1683.56 2071.5M1683.56 2006.5 1683.56 2071.5M1876.56 2006.5 1876.56 2071.5M1876.56 2006.5 1876.56 2071.5M2069.57 2006.5 2069.57 2071.5M2069.57 2006.5 2069.57 2071.5M2262.57 2006.5 2262.57 2071.5M2262.57 2006.5 2262.57 2071.5M2455.58 2006.5 2455.58 2071.5M2455.58 2006.5 2455.58 2071.5M2649.59 2006.5 2649.59 2071.5M2649.59 2006.5 2649.59 2071.5M2842.59 2006.5 2842.59 2071.5M2842.59 2006.5 2842.59 2071.5M3035.6 2006.5 3035.6 2071.5M3035.6 2006.5 3035.6 2071.5M3228.61 2006.5 3228.61 2071.5M3228.61 2006.5 3228.61 2071.5M3421.61 2006.5 3421.61 2071.5M3421.61 2006.5 3421.61 2071.5M3614.62 2006.5 3614.62 2071.5M3614.62 2006.5 3614.62 2071.5M3807.63 2006.5 3807.63 2071.5M3807.63 2006.5 3807.63 2071.5M4000.63 2006.5 4000.63 2071.5M4000.63 2006.5 4000.63 2071.5M4193.64 2006.5 4193.64 2071.5M4193.64 2006.5 4193.64 2071.5M4386.5 2006.5 4386.5 2071.5M4386.5 2006.5 4386.5 2071.5" stroke="#D9D9D9" stroke-width="3.4375" stroke-linejoin="round" stroke-miterlimit="10" fill="none"/></g><g clip-path="url(#clip78)"><rect x="106" y="2026" width="23" height="23.0001" fill="#C00000"/></g><g clip-path="url(#clip79)"><text fill="#595959" font-family="Calibri,Calibri_MSFontService,sans-serif" font-weight="400" font-size="41" transform="matrix(1 0 0 1 138.699 2049)">pytorch</text></g><g clip-path="url(#clip80)"><text fill="#595959" font-family="Calibri,Calibri_MSFontService,sans-serif" font-weight="400" font-size="41" transform="matrix(1 0 0 1 407.955 2050)">84</text></g><g clip-path="url(#clip81)"><text fill="#595959" font-family="Calibri,Calibri_MSFontService,sans-serif" font-weight="400" font-size="41" transform="matrix(1 0 0 1 601.019 2050)">60</text></g><g clip-path="url(#clip82)"><text fill="#595959" font-family="Calibri,Calibri_MSFontService,sans-serif" font-weight="400" font-size="41" transform="matrix(1 0 0 1 794.084 2050)">36</text></g><g clip-path="url(#clip83)"><text fill="#595959" font-family="Calibri,Calibri_MSFontService,sans-serif" font-weight="400" font-size="41" transform="matrix(1 0 0 1 987.149 2050)">24</text></g><g clip-path="url(#clip84)"><text fill="#595959" font-family="Calibri,Calibri_MSFontService,sans-serif" font-weight="400" font-size="41" transform="matrix(1 0 0 1 1180.21 2050)">19</text></g><g clip-path="url(#clip85)"><text fill="#595959" font-family="Calibri,Calibri_MSFontService,sans-serif" font-weight="400" font-size="41" transform="matrix(1 0 0 1 1373.28 2050)">18</text></g><g clip-path="url(#clip86)"><text fill="#595959" font-family="Calibri,Calibri_MSFontService,sans-serif" font-weight="400" font-size="41" transform="matrix(1 0 0 1 1566.34 2050)">20</text></g><g clip-path="url(#clip87)"><text fill="#595959" font-family="Calibri,Calibri_MSFontService,sans-serif" font-weight="400" font-size="41" transform="matrix(1 0 0 1 1748.96 2050)">175</text></g><g clip-path="url(#clip88)"><text fill="#595959" font-family="Calibri,Calibri_MSFontService,sans-serif" font-weight="400" font-size="41" transform="matrix(1 0 0 1 1942.02 2050)">110</text></g><g clip-path="url(#clip89)"><text fill="#595959" font-family="Calibri,Calibri_MSFontService,sans-serif" font-weight="400" font-size="41" transform="matrix(1 0 0 1 2145.54 2050)">69</text></g><g clip-path="url(#clip90)"><text fill="#595959" font-family="Calibri,Calibri_MSFontService,sans-serif" font-weight="400" font-size="41" transform="matrix(1 0 0 1 2338.6 2050)">42</text></g><g clip-path="url(#clip91)"><text fill="#595959" font-family="Calibri,Calibri_MSFontService,sans-serif" font-weight="400" font-size="41" transform="matrix(1 0 0 1 2531.66 2050)">32</text></g><g clip-path="url(#clip92)"><text fill="#595959" font-family="Calibri,Calibri_MSFontService,sans-serif" font-weight="400" font-size="41" transform="matrix(1 0 0 1 2724.73 2050)">28</text></g><g clip-path="url(#clip93)"><text fill="#595959" font-family="Calibri,Calibri_MSFontService,sans-serif" font-weight="400" font-size="41" transform="matrix(1 0 0 1 2917.79 2050)">33</text></g><g clip-path="url(#clip94)"><text fill="#595959" font-family="Calibri,Calibri_MSFontService,sans-serif" font-weight="400" font-size="41" transform="matrix(1 0 0 1 3100.41 2050)">772</text></g><g clip-path="url(#clip95)"><text fill="#595959" font-family="Calibri,Calibri_MSFontService,sans-serif" font-weight="400" font-size="41" transform="matrix(1 0 0 1 3293.47 2050)">428</text></g><g clip-path="url(#clip96)"><text fill="#595959" font-family="Calibri,Calibri_MSFontService,sans-serif" font-weight="400" font-size="41" transform="matrix(1 0 0 1 3486.54 2050)">228</text></g><g clip-path="url(#clip97)"><text fill="#595959" font-family="Calibri,Calibri_MSFontService,sans-serif" font-weight="400" font-size="41" transform="matrix(1 0 0 1 3679.6 2050)">146</text></g><g clip-path="url(#clip98)"><text fill="#595959" font-family="Calibri,Calibri_MSFontService,sans-serif" font-weight="400" font-size="41" transform="matrix(1 0 0 1 3883.12 2050)">92</text></g><g clip-path="url(#clip99)"><text fill="#595959" font-family="Calibri,Calibri_MSFontService,sans-serif" font-weight="400" font-size="41" transform="matrix(1 0 0 1 4065.73 2050)">107</text></g><g clip-path="url(#clip100)"><text fill="#595959" font-family="Calibri,Calibri_MSFontService,sans-serif" font-weight="400" font-size="41" transform="matrix(1 0 0 1 4269.24 2050)">66</text></g><g clip-path="url(#clip101)"><path d="M91.4999 2071.5 4386.5 2071.5M91.4999 2071.5 91.4999 2137.5M91.4999 2137.5 4386.5 2137.5M332.511 2071.5 332.511 2137.5M332.511 2071.5 332.511 2137.5M525.517 2071.5 525.517 2137.5M525.517 2071.5 525.517 2137.5M718.524 2071.5 718.524 2137.5M718.524 2071.5 718.524 2137.5M911.53 2071.5 911.53 2137.5M911.53 2071.5 911.53 2137.5M1104.54 2071.5 1104.54 2137.5M1104.54 2071.5 1104.54 2137.5M1297.54 2071.5 1297.54 2137.5M1297.54 2071.5 1297.54 2137.5M1490.55 2071.5 1490.55 2137.5M1490.55 2071.5 1490.55 2137.5M1683.56 2071.5 1683.56 2137.5M1683.56 2071.5 1683.56 2137.5M1876.56 2071.5 1876.56 2137.5M1876.56 2071.5 1876.56 2137.5M2069.57 2071.5 2069.57 2137.5M2069.57 2071.5 2069.57 2137.5M2262.57 2071.5 2262.57 2137.5M2262.57 2071.5 2262.57 2137.5M2455.58 2071.5 2455.58 2137.5M2455.58 2071.5 2455.58 2137.5M2649.59 2071.5 2649.59 2137.5M2649.59 2071.5 2649.59 2137.5M2842.59 2071.5 2842.59 2137.5M2842.59 2071.5 2842.59 2137.5M3035.6 2071.5 3035.6 2137.5M3035.6 2071.5 3035.6 2137.5M3228.61 2071.5 3228.61 2137.5M3228.61 2071.5 3228.61 2137.5M3421.61 2071.5 3421.61 2137.5M3421.61 2071.5 3421.61 2137.5M3614.62 2071.5 3614.62 2137.5M3614.62 2071.5 3614.62 2137.5M3807.63 2071.5 3807.63 2137.5M3807.63 2071.5 3807.63 2137.5M4000.63 2071.5 4000.63 2137.5M4000.63 2071.5 4000.63 2137.5M4193.64 2071.5 4193.64 2137.5M4193.64 2071.5 4193.64 2137.5M4386.5 2071.5 4386.5 2137.5M4386.5 2071.5 4386.5 2137.5" stroke="#D9D9D9" stroke-width="3.4375" stroke-linejoin="round" stroke-miterlimit="10" fill="none"/></g><g clip-path="url(#clip102)"><rect x="106" y="2092" width="23" height="23" fill="url(#fill103)"/></g><g clip-path="url(#clip104)"><text fill="#595959" font-family="Calibri,Calibri_MSFontService,sans-serif" font-weight="400" font-size="41" transform="matrix(1 0 0 1 138.699 2115)">tensorflow</text></g><g clip-path="url(#clip105)"><text fill="#595959" font-family="Calibri,Calibri_MSFontService,sans-serif" font-weight="400" font-size="41" transform="matrix(1 0 0 1 397.505 2116)">125</text></g><g clip-path="url(#clip106)"><text fill="#595959" font-family="Calibri,Calibri_MSFontService,sans-serif" font-weight="400" font-size="41" transform="matrix(1 0 0 1 590.569 2116)">280</text></g><g clip-path="url(#clip107)"><text fill="#595959" font-family="Calibri,Calibri_MSFontService,sans-serif" font-weight="400" font-size="41" transform="matrix(1 0 0 1 783.634 2116)">217</text></g><g clip-path="url(#clip108)"><text fill="#595959" font-family="Calibri,Calibri_MSFontService,sans-serif" font-weight="400" font-size="41" transform="matrix(1 0 0 1 976.699 2116)">123</text></g><g clip-path="url(#clip109)"><text fill="#595959" font-family="Calibri,Calibri_MSFontService,sans-serif" font-weight="400" font-size="41" transform="matrix(1 0 0 1 1169.76 2116)">115</text></g><g clip-path="url(#clip110)"><text fill="#595959" font-family="Calibri,Calibri_MSFontService,sans-serif" font-weight="400" font-size="41" transform="matrix(1 0 0 1 1362.83 2116)">124</text></g><g clip-path="url(#clip111)"><text fill="#595959" font-family="Calibri,Calibri_MSFontService,sans-serif" font-weight="400" font-size="41" transform="matrix(1 0 0 1 1555.89 2116)">122</text></g><g clip-path="url(#clip112)"><text fill="#595959" font-family="Calibri,Calibri_MSFontService,sans-serif" font-weight="400" font-size="41" transform="matrix(1 0 0 1 1748.96 2116)">243</text></g><g clip-path="url(#clip113)"><text fill="#595959" font-family="Calibri,Calibri_MSFontService,sans-serif" font-weight="400" font-size="41" transform="matrix(1 0 0 1 1942.02 2116)">486</text></g><g clip-path="url(#clip114)"><text fill="#595959" font-family="Calibri,Calibri_MSFontService,sans-serif" font-weight="400" font-size="41" transform="matrix(1 0 0 1 2135.09 2116)">393</text></g><g clip-path="url(#clip115)"><text fill="#595959" font-family="Calibri,Calibri_MSFontService,sans-serif" font-weight="400" font-size="41" transform="matrix(1 0 0 1 2328.15 2116)">317</text></g><g clip-path="url(#clip116)"><text fill="#595959" font-family="Calibri,Calibri_MSFontService,sans-serif" font-weight="400" font-size="41" transform="matrix(1 0 0 1 2521.21 2116)">225</text></g><g clip-path="url(#clip117)"><text fill="#595959" font-family="Calibri,Calibri_MSFontService,sans-serif" font-weight="400" font-size="41" transform="matrix(1 0 0 1 2714.28 2116)">188</text></g><g clip-path="url(#clip118)"><text fill="#595959" font-family="Calibri,Calibri_MSFontService,sans-serif" font-weight="400" font-size="41" transform="matrix(1 0 0 1 2907.34 2116)">211</text></g><g clip-path="url(#clip119)"><text fill="#595959" font-family="Calibri,Calibri_MSFontService,sans-serif" font-weight="400" font-size="41" transform="matrix(1 0 0 1 3100.41 2116)">884</text></g><g clip-path="url(#clip120)"><text fill="#595959" font-family="Calibri,Calibri_MSFontService,sans-serif" font-weight="400" font-size="41" transform="matrix(1 0 0 1 3293.47 2116)">960</text></g><g clip-path="url(#clip121)"><text fill="#595959" font-family="Calibri,Calibri_MSFontService,sans-serif" font-weight="400" font-size="41" transform="matrix(1 0 0 1 3486.54 2116)">726</text></g><g clip-path="url(#clip122)"><text fill="#595959" font-family="Calibri,Calibri_MSFontService,sans-serif" font-weight="400" font-size="41" transform="matrix(1 0 0 1 3679.6 2116)">593</text></g><g clip-path="url(#clip123)"><text fill="#595959" font-family="Calibri,Calibri_MSFontService,sans-serif" font-weight="400" font-size="41" transform="matrix(1 0 0 1 3872.67 2116)">464</text></g><g clip-path="url(#clip124)"><text fill="#595959" font-family="Calibri,Calibri_MSFontService,sans-serif" font-weight="400" font-size="41" transform="matrix(1 0 0 1 4065.73 2116)">447</text></g><g clip-path="url(#clip125)"><text fill="#595959" font-family="Calibri,Calibri_MSFontService,sans-serif" font-weight="400" font-size="41" transform="matrix(1 0 0 1 4258.79 2116)">418</text></g><g clip-path="url(#clip126)"><text fill="#595959" font-family="Calibri,Calibri_MSFontService,sans-serif" font-weight="400" font-size="41" transform="matrix(1 0 0 1 273.156 1827)">0</text></g><g clip-path="url(#clip127)"><text fill="#595959" font-family="Calibri,Calibri_MSFontService,sans-serif" font-weight="400" font-size="41" transform="matrix(1 0 0 1 231.356 1553)">200</text></g><g clip-path="url(#clip128)"><text fill="#595959" font-family="Calibri,Calibri_MSFontService,sans-serif" font-weight="400" font-size="41" transform="matrix(1 0 0 1 231.356 1279)">400</text></g><g clip-path="url(#clip129)"><text fill="#595959" font-family="Calibri,Calibri_MSFontService,sans-serif" font-weight="400" font-size="41" transform="matrix(1 0 0 1 231.356 1004)">600</text></g><g clip-path="url(#clip130)"><text fill="#595959" font-family="Calibri,Calibri_MSFontService,sans-serif" font-weight="400" font-size="41" transform="matrix(1 0 0 1 231.356 730)">800</text></g><g clip-path="url(#clip131)"><text fill="#595959" font-family="Calibri,Calibri_MSFontService,sans-serif" font-weight="400" font-size="41" transform="matrix(1 0 0 1 210.456 456)">1000</text></g><g clip-path="url(#clip132)"><text fill="#595959" font-family="Calibri,Calibri_MSFontService,sans-serif" font-weight="400" font-size="41" transform="matrix(1 0 0 1 210.456 182)">1200</text></g><g clip-path="url(#clip133)"><text fill="#595959" font-family="Calibri,Calibri_MSFontService,sans-serif" font-weight="400" font-size="46" transform="matrix(6.12323e-17 -1 1 6.12323e-17 115.042 1111)">Latency (ms)</text></g><g clip-path="url(#clip134)"><text fill="#595959" font-family="Calibri,Calibri_MSFontService,sans-serif" font-weight="400" font-size="46" transform="matrix(1 0 0 1 1773.91 2189)">Sequence Length / Number of thread for computations kernels</text></g><g clip-path="url(#clip135)"><text fill="#595959" font-family="Calibri,Calibri_MSFontService,sans-serif" font-weight="400" font-size="64" transform="matrix(1 0 0 1 690.009 95)">Impact of the number of threads involved in the computation kernels with respect to the problem size (batch &amp; sequence length</text></g><g clip-path="url(#clip136)"><text fill="#595959" font-family="Calibri,Calibri_MSFontService,sans-serif" font-weight="400" font-size="64" transform="matrix(1 0 0 1 4023.28 95)">)</text></g><g clip-path="url(#clip137)"><rect x="4459" y="1139" width="22" height="22" fill="#C00000"/></g><g clip-path="url(#clip138)"><text fill="#595959" font-family="Calibri,Calibri_MSFontService,sans-serif" font-weight="400" font-size="41" transform="matrix(1 0 0 1 4491 1162)">pytorch</text></g><g clip-path="url(#clip139)"><rect x="4459" y="1216" width="22" height="23" fill="url(#fill140)"/></g><g clip-path="url(#clip141)"><text fill="#595959" font-family="Calibri,Calibri_MSFontService,sans-serif" font-weight="400" font-size="41" transform="matrix(1 0 0 1 4491 1239)">tensorflow</text></g><rect x="14.4999" y="0.499836" width="4705" height="2258" stroke="#D9D9D9" stroke-width="3.4375" stroke-linejoin="round" stroke-miterlimit="10" fill="none"/></g></svg>