<svg width="3624" height="2445" xmlns="http://www.w3.org/2000/svg" xmlns:xlink="http://www.w3.org/1999/xlink" overflow="hidden"><defs><clipPath id="clip0"><rect x="159" y="87" width="3624" height="2445"/></clipPath><clipPath id="clip1"><rect x="159" y="88" width="3622" height="2442"/></clipPath><clipPath id="clip2"><rect x="661" y="257" width="2608" height="1829"/></clipPath><clipPath id="clip3"><rect x="661" y="257" width="2608" height="1829"/></clipPath><clipPath id="clip4"><rect x="661" y="257" width="2608" height="1829"/></clipPath><clipPath id="clip5"><rect x="661" y="257" width="2608" height="1829"/></clipPath><clipPath id="clip6"><rect x="159" y="88" width="3622" height="2442"/></clipPath><clipPath id="clip7"><rect x="159" y="88" width="3622" height="2442"/></clipPath><clipPath id="clip8"><rect x="159" y="88" width="3622" height="2442"/></clipPath><clipPath id="clip9"><rect x="159" y="88" width="3622" height="2442"/></clipPath><clipPath id="clip10"><rect x="159" y="88" width="3622" height="2442"/></clipPath><clipPath id="clip11"><rect x="159" y="88" width="3622" height="2442"/></clipPath><clipPath id="clip12"><rect x="159" y="88" width="3622" height="2442"/></clipPath><clipPath id="clip13"><rect x="159" y="88" width="3622" height="2442"/></clipPath><clipPath id="clip14"><rect x="159" y="88" width="3622" height="2442"/></clipPath><clipPath id="clip15"><rect x="159" y="88" width="3622" height="2442"/></clipPath><clipPath id="clip16"><rect x="159" y="88" width="3622" height="2442"/></clipPath><clipPath id="clip17"><rect x="159" y="88" width="3622" height="2442"/></clipPath><clipPath id="clip18"><rect x="159" y="88" width="3622" height="2442"/></clipPath><clipPath id="clip19"><rect x="159" y="88" width="3622" height="2442"/></clipPath><clipPath id="clip20"><rect x="159" y="88" width="3622" height="2442"/></clipPath><clipPath id="clip21"><rect x="159" y="88" width="3622" height="2442"/></clipPath><clipPath id="clip22"><rect x="159" y="88" width="3622" height="2442"/></clipPath><clipPath id="clip23"><rect x="159" y="88" width="3622" height="2442"/></clipPath><clipPath id="clip24"><rect x="159" y="88" width="3622" height="2442"/></clipPath><clipPath id="clip25"><rect x="159" y="88" width="3622" height="2442"/></clipPath><clipPath id="clip26"><rect x="159" y="88" width="3622" height="2442"/></clipPath><clipPath id="clip27"><rect x="159" y="88" width="3622" height="2442"/></clipPath><clipPath id="clip28"><rect x="159" y="88" width="3622" height="2442"/></clipPath><clipPath id="clip29"><rect x="159" y="88" width="3622" height="2442"/></clipPath><clipPath id="clip30"><rect x="159" y="88" width="3622" height="2442"/></clipPath><clipPath id="clip31"><rect x="159" y="88" width="3622" height="2442"/></clipPath><clipPath id="clip32"><rect x="159" y="88" width="3622" height="2442"/></clipPath><clipPath id="clip33"><rect x="159" y="88" width="3622" height="2442"/></clipPath><clipPath id="clip34"><rect x="159" y="88" width="3622" height="2442"/></clipPath><clipPath id="clip35"><rect x="159" y="88" width="3622" height="2442"/></clipPath><clipPath id="clip36"><rect x="159" y="88" width="3622" height="2442"/></clipPath><clipPath id="clip37"><rect x="159" y="88" width="3622" height="2442"/></clipPath><clipPath id="clip38"><rect x="159" y="88" width="3622" height="2442"/></clipPath><clipPath id="clip39"><rect x="159" y="88" width="3622" height="2442"/></clipPath><clipPath id="clip40"><rect x="159" y="88" width="3622" height="2442"/></clipPath><clipPath id="clip41"><rect x="159" y="88" width="3622" height="2442"/></clipPath><clipPath id="clip42"><rect x="159" y="88" width="3622" height="2442"/></clipPath><clipPath id="clip43"><rect x="159" y="88" width="3622" height="2442"/></clipPath><clipPath id="clip44"><rect x="159" y="88" width="3622" height="2442"/></clipPath><clipPath id="clip45"><rect x="159" y="88" width="3622" height="2442"/></clipPath><clipPath id="clip46"><rect x="159" y="88" width="3622" height="2442"/></clipPath><clipPath id="clip47"><rect x="159" y="88" width="3622" height="2442"/></clipPath><clipPath id="clip48"><rect x="159" y="88" width="3622" height="2442"/></clipPath><clipPath id="clip49"><rect x="159" y="88" width="3622" height="2442"/></clipPath><clipPath id="clip50"><rect x="159" y="88" width="3622" height="2442"/></clipPath><clipPath id="clip51"><rect x="159" y="88" width="3622" height="2442"/></clipPath><clipPath id="clip52"><rect x="159" y="88" width="3622" height="2442"/></clipPath><clipPath id="clip53"><rect x="159" y="88" width="3622" height="2442"/></clipPath><clipPath id="clip54"><rect x="159" y="88" width="3622" height="2442"/></clipPath><clipPath id="clip55"><rect x="159" y="88" width="3622" height="2442"/></clipPath><clipPath id="clip56"><rect x="159" y="88" width="3622" height="2442"/></clipPath><clipPath id="clip57"><rect x="159" y="88" width="3622" height="2442"/></clipPath><clipPath id="clip58"><rect x="159" y="88" width="3622" height="2442"/></clipPath><clipPath id="clip59"><rect x="159" y="88" width="3622" height="2442"/></clipPath><clipPath id="clip60"><rect x="159" y="88" width="3622" height="2442"/></clipPath><clipPath id="clip61"><rect x="159" y="88" width="3622" height="2442"/></clipPath><clipPath id="clip62"><rect x="159" y="88" width="3622" height="2442"/></clipPath><clipPath id="clip63"><rect x="159" y="88" width="3622" height="2442"/></clipPath><clipPath id="clip64"><rect x="159" y="88" width="3622" height="2442"/></clipPath><clipPath id="clip65"><rect x="159" y="88" width="3622" height="2442"/></clipPath><clipPath id="clip66"><rect x="159" y="88" width="3622" height="2442"/></clipPath><clipPath id="clip67"><rect x="159" y="88" width="3622" height="2442"/></clipPath></defs><g clip-path="url(#clip0)" transform="translate(-159 -87)"><rect x="160" y="88" width="3621" height="2442" fill="#FFFFFF"/><g clip-path="url(#clip1)"><path d="M661.5 1900.56 3265.5 1900.56M661.5 1718.56 3265.5 1718.56M661.5 1535.55 3265.5 1535.55M661.5 1353.54 3265.5 1353.54M661.5 1170.54 3265.5 1170.54M661.5 988.533 3265.5 988.533M661.5 805.527 3265.5 805.527M661.5 623.521 3265.5 623.521M661.5 440.515 3265.5 440.515M661.5 257.5 3265.5 257.5" stroke="#D9D9D9" stroke-width="3.4375" stroke-linejoin="round" stroke-miterlimit="10" fill="none"/></g><g clip-path="url(#clip2)"><path d="M743.024 2026.07 817.027 2026.07 817.027 2083 743.024 2083ZM1264.04 2020.07 1338.04 2020.07 1338.04 2083 1264.04 2083ZM1784.06 1990.07 1859.06 1990.07 1859.06 2083 1784.06 2083ZM2305.08 1887.06 2380.08 1887.06 2380.08 2083 2305.08 2083ZM2826.09 1773.06 2901.1 1773.06 2901.1 2083 2826.09 2083Z" fill="#4F81BD"/></g><g clip-path="url(#clip3)"><path d="M837.027 2013.07 912.03 2013.07 912.03 2083 837.027 2083ZM1358.04 2006.07 1432.05 2006.07 1432.05 2083 1358.04 2083ZM1879.06 1968.06 1953.06 1968.06 1953.06 2083 1879.06 2083ZM2400.08 1831.06 2474.08 1831.06 2474.08 2083 2400.08 2083ZM2921.1 1662.05 2995.1 1662.05 2995.1 2083 2921.1 2083Z" fill="#C0504D"/></g><g clip-path="url(#clip4)"><path d="M932.031 1718.06 1006.03 1718.06 1006.03 2083 932.031 2083ZM1453.05 1647.05 1527.05 1647.05 1527.05 2083 1453.05 2083ZM1973.06 1195.04 2048.07 1195.04 2048.07 2083 1973.06 2083ZM2494.08 726.024 2569.08 726.024 2569.08 2083 2494.08 2083ZM3015.1 592.019 3090.1 592.019 3090.1 2083 3015.1 2083Z" fill="#9BBB59"/></g><g clip-path="url(#clip5)"><path d="M1026.03 1718.06 1101.04 1718.06 1101.04 2083 1026.03 2083ZM1547.05 1657.05 1622.05 1657.05 1622.05 2083 1547.05 2083ZM2068.07 1428.05 2142.07 1428.05 2142.07 2083 2068.07 2083ZM2589.08 630.021 2663.09 630.021 2663.09 2083 2589.08 2083ZM3110.1 364.012 3184.1 364.012 3184.1 2083 3110.1 2083Z" fill="#8064A2"/></g><g clip-path="url(#clip6)"><path d="M661.5 2083.5 3265.5 2083.5" stroke="#D9D9D9" stroke-width="3.4375" stroke-linejoin="round" stroke-miterlimit="10" fill="none" fill-rule="evenodd"/></g><g clip-path="url(#clip7)"><path d="M661.5 2083.5 3265.5 2083.5" stroke="#D9D9D9" stroke-width="3.4375" stroke-linejoin="round" stroke-miterlimit="10" fill="none" fill-rule="evenodd"/></g><g clip-path="url(#clip8)"><path d="M661.5 2083.5 661.5 2146.5M1182.54 2083.5 1182.54 2146.5M1702.56 2083.5 1702.56 2146.5M2223.57 2083.5 2223.57 2146.5M2744.59 2083.5 2744.59 2146.5M3265.5 2083.5 3265.5 2146.5" stroke="#D9D9D9" stroke-width="3.4375" stroke-linejoin="round" stroke-miterlimit="10" fill="none"/></g><g clip-path="url(#clip9)"><text fill="#595959" font-family="Calibri,Calibri_MSFontService,sans-serif" font-weight="400" font-size="41" transform="matrix(1 0 0 1 900.761 2126)">20</text></g><g clip-path="url(#clip10)"><text fill="#595959" font-family="Calibri,Calibri_MSFontService,sans-serif" font-weight="400" font-size="41" transform="matrix(1 0 0 1 1421.68 2126)">32</text></g><g clip-path="url(#clip11)"><text fill="#595959" font-family="Calibri,Calibri_MSFontService,sans-serif" font-weight="400" font-size="41" transform="matrix(1 0 0 1 1932.15 2126)">128</text></g><g clip-path="url(#clip12)"><text fill="#595959" font-family="Calibri,Calibri_MSFontService,sans-serif" font-weight="400" font-size="41" transform="matrix(1 0 0 1 2453.07 2126)">384</text></g><g clip-path="url(#clip13)"><text fill="#595959" font-family="Calibri,Calibri_MSFontService,sans-serif" font-weight="400" font-size="41" transform="matrix(1 0 0 1 2973.99 2126)">512</text></g><g clip-path="url(#clip14)"><path d="M237.5 2146.5 3265.5 2146.5M237.5 2146.5 237.5 2212.5M661.522 2146.5 661.522 2212.5M661.522 2146.5 661.522 2212.5M1182.54 2146.5 1182.54 2212.5M1182.54 2146.5 1182.54 2212.5M1702.56 2146.5 1702.56 2212.5M1702.56 2146.5 1702.56 2212.5M2223.57 2146.5 2223.57 2212.5M2223.57 2146.5 2223.57 2212.5M2744.59 2146.5 2744.59 2212.5M2744.59 2146.5 2744.59 2212.5M3265.5 2146.5 3265.5 2212.5M3265.5 2146.5 3265.5 2212.5" stroke="#D9D9D9" stroke-width="3.4375" stroke-linejoin="round" stroke-miterlimit="10" fill="none"/></g><g clip-path="url(#clip15)"><rect x="252" y="2167" width="23" height="23" fill="#4F81BD"/></g><g clip-path="url(#clip16)"><text fill="#595959" font-family="Calibri,Calibri_MSFontService,sans-serif" font-weight="400" font-size="41" transform="matrix(1 0 0 1 284.449 2190)">pytorch - phy</text></g><g clip-path="url(#clip17)"><text fill="#595959" font-family="Calibri,Calibri_MSFontService,sans-serif" font-weight="400" font-size="41" transform="matrix(1 0 0 1 832.916 2191)">15,578318</text></g><g clip-path="url(#clip18)"><text fill="#595959" font-family="Calibri,Calibri_MSFontService,sans-serif" font-weight="400" font-size="41" transform="matrix(1 0 0 1 1332.94 2191)">17,17560018</text></g><g clip-path="url(#clip19)"><text fill="#595959" font-family="Calibri,Calibri_MSFontService,sans-serif" font-weight="400" font-size="41" transform="matrix(1 0 0 1 1853.85 2191)">25,59967854</text></g><g clip-path="url(#clip20)"><text fill="#595959" font-family="Calibri,Calibri_MSFontService,sans-serif" font-weight="400" font-size="41" transform="matrix(1 0 0 1 2374.77 2191)">53,71471864</text></g><g clip-path="url(#clip21)"><text fill="#595959" font-family="Calibri,Calibri_MSFontService,sans-serif" font-weight="400" font-size="41" transform="matrix(1 0 0 1 2895.69 2191)">85,06589473</text></g><g clip-path="url(#clip22)"><path d="M237.5 2212.5 3265.5 2212.5M237.5 2212.5 237.5 2278.5M661.522 2212.5 661.522 2278.5M661.522 2212.5 661.522 2278.5M1182.54 2212.5 1182.54 2278.5M1182.54 2212.5 1182.54 2278.5M1702.56 2212.5 1702.56 2278.5M1702.56 2212.5 1702.56 2278.5M2223.57 2212.5 2223.57 2278.5M2223.57 2212.5 2223.57 2278.5M2744.59 2212.5 2744.59 2278.5M2744.59 2212.5 2744.59 2278.5M3265.5 2212.5 3265.5 2278.5M3265.5 2212.5 3265.5 2278.5" stroke="#D9D9D9" stroke-width="3.4375" stroke-linejoin="round" stroke-miterlimit="10" fill="none"/></g><g clip-path="url(#clip23)"><rect x="252" y="2233" width="23" height="23" fill="#C0504D"/></g><g clip-path="url(#clip24)"><text fill="#595959" font-family="Calibri,Calibri_MSFontService,sans-serif" font-weight="400" font-size="41" transform="matrix(1 0 0 1 284.449 2256)">pytorch - phy + log</text></g><g clip-path="url(#clip25)"><text fill="#595959" font-family="Calibri,Calibri_MSFontService,sans-serif" font-weight="400" font-size="41" transform="matrix(1 0 0 1 812.016 2257)">19,29680426</text></g><g clip-path="url(#clip26)"><text fill="#595959" font-family="Calibri,Calibri_MSFontService,sans-serif" font-weight="400" font-size="41" transform="matrix(1 0 0 1 1332.94 2257)">21,21653945</text></g><g clip-path="url(#clip27)"><text fill="#595959" font-family="Calibri,Calibri_MSFontService,sans-serif" font-weight="400" font-size="41" transform="matrix(1 0 0 1 1853.85 2257)">31,65865435</text></g><g clip-path="url(#clip28)"><text fill="#595959" font-family="Calibri,Calibri_MSFontService,sans-serif" font-weight="400" font-size="41" transform="matrix(1 0 0 1 2374.77 2257)">69,03209386</text></g><g clip-path="url(#clip29)"><text fill="#595959" font-family="Calibri,Calibri_MSFontService,sans-serif" font-weight="400" font-size="41" transform="matrix(1 0 0 1 2895.69 2257)">115,3377389</text></g><g clip-path="url(#clip30)"><path d="M237.5 2278.5 3265.5 2278.5M237.5 2278.5 237.5 2344.5M661.522 2278.5 661.522 2344.5M661.522 2278.5 661.522 2344.5M1182.54 2278.5 1182.54 2344.5M1182.54 2278.5 1182.54 2344.5M1702.56 2278.5 1702.56 2344.5M1702.56 2278.5 1702.56 2344.5M2223.57 2278.5 2223.57 2344.5M2223.57 2278.5 2223.57 2344.5M2744.59 2278.5 2744.59 2344.5M2744.59 2278.5 2744.59 2344.5M3265.5 2278.5 3265.5 2344.5M3265.5 2278.5 3265.5 2344.5" stroke="#D9D9D9" stroke-width="3.4375" stroke-linejoin="round" stroke-miterlimit="10" fill="none"/></g><g clip-path="url(#clip31)"><rect x="252" y="2299" width="23" height="22" fill="#9BBB59"/></g><g clip-path="url(#clip32)"><text fill="#595959" font-family="Calibri,Calibri_MSFontService,sans-serif" font-weight="400" font-size="41" transform="matrix(1 0 0 1 284.449 2322)">tensorflow - phy</text></g><g clip-path="url(#clip33)"><text fill="#595959" font-family="Calibri,Calibri_MSFontService,sans-serif" font-weight="400" font-size="41" transform="matrix(1 0 0 1 822.466 2323)">99,9794168</text></g><g clip-path="url(#clip34)"><text fill="#595959" font-family="Calibri,Calibri_MSFontService,sans-serif" font-weight="400" font-size="41" transform="matrix(1 0 0 1 1332.94 2323)">119,5502107</text></g><g clip-path="url(#clip35)"><text fill="#595959" font-family="Calibri,Calibri_MSFontService,sans-serif" font-weight="400" font-size="41" transform="matrix(1 0 0 1 1864.31 2323)">243,354251</text></g><g clip-path="url(#clip36)"><text fill="#595959" font-family="Calibri,Calibri_MSFontService,sans-serif" font-weight="400" font-size="41" transform="matrix(1 0 0 1 2374.77 2323)">371,6528869</text></g><g clip-path="url(#clip37)"><text fill="#595959" font-family="Calibri,Calibri_MSFontService,sans-serif" font-weight="400" font-size="41" transform="matrix(1 0 0 1 2895.69 2323)">408,3654702</text></g><g clip-path="url(#clip38)"><path d="M237.5 2344.5 3265.5 2344.5M237.5 2344.5 237.5 2409.5M237.5 2409.5 3265.5 2409.5M661.522 2344.5 661.522 2409.5M661.522 2344.5 661.522 2409.5M1182.54 2344.5 1182.54 2409.5M1182.54 2344.5 1182.54 2409.5M1702.56 2344.5 1702.56 2409.5M1702.56 2344.5 1702.56 2409.5M2223.57 2344.5 2223.57 2409.5M2223.57 2344.5 2223.57 2409.5M2744.59 2344.5 2744.59 2409.5M2744.59 2344.5 2744.59 2409.5M3265.5 2344.5 3265.5 2409.5M3265.5 2344.5 3265.5 2409.5" stroke="#D9D9D9" stroke-width="3.4375" stroke-linejoin="round" stroke-miterlimit="10" fill="none"/></g><g clip-path="url(#clip39)"><rect x="252" y="2365" width="23" height="22" fill="#8064A2"/></g><g clip-path="url(#clip40)"><text fill="#595959" font-family="Calibri,Calibri_MSFontService,sans-serif" font-weight="400" font-size="41" transform="matrix(1 0 0 1 284.449 2387)">tensorflow - phy + log</text></g><g clip-path="url(#clip41)"><text fill="#595959" font-family="Calibri,Calibri_MSFontService,sans-serif" font-weight="400" font-size="41" transform="matrix(1 0 0 1 812.016 2389)">100,0154353</text></g><g clip-path="url(#clip42)"><text fill="#595959" font-family="Calibri,Calibri_MSFontService,sans-serif" font-weight="400" font-size="41" transform="matrix(1 0 0 1 1343.39 2389)">116,729468</text></g><g clip-path="url(#clip43)"><text fill="#595959" font-family="Calibri,Calibri_MSFontService,sans-serif" font-weight="400" font-size="41" transform="matrix(1 0 0 1 1853.85 2389)">179,5540641</text></g><g clip-path="url(#clip44)"><text fill="#595959" font-family="Calibri,Calibri_MSFontService,sans-serif" font-weight="400" font-size="41" transform="matrix(1 0 0 1 2374.77 2389)">398,1204662</text></g><g clip-path="url(#clip45)"><text fill="#595959" font-family="Calibri,Calibri_MSFontService,sans-serif" font-weight="400" font-size="41" transform="matrix(1 0 0 1 2895.69 2389)">470,9277504</text></g><g clip-path="url(#clip46)"><text fill="#595959" font-family="Calibri,Calibri_MSFontService,sans-serif" font-weight="400" font-size="41" transform="matrix(1 0 0 1 602.034 2095)">0</text></g><g clip-path="url(#clip47)"><text fill="#595959" font-family="Calibri,Calibri_MSFontService,sans-serif" font-weight="400" font-size="41" transform="matrix(1 0 0 1 581.135 1912)">50</text></g><g clip-path="url(#clip48)"><text fill="#595959" font-family="Calibri,Calibri_MSFontService,sans-serif" font-weight="400" font-size="41" transform="matrix(1 0 0 1 560.234 1730)">100</text></g><g clip-path="url(#clip49)"><text fill="#595959" font-family="Calibri,Calibri_MSFontService,sans-serif" font-weight="400" font-size="41" transform="matrix(1 0 0 1 560.234 1547)">150</text></g><g clip-path="url(#clip50)"><text fill="#595959" font-family="Calibri,Calibri_MSFontService,sans-serif" font-weight="400" font-size="41" transform="matrix(1 0 0 1 560.234 1365)">200</text></g><g clip-path="url(#clip51)"><text fill="#595959" font-family="Calibri,Calibri_MSFontService,sans-serif" font-weight="400" font-size="41" transform="matrix(1 0 0 1 560.234 1182)">250</text></g><g clip-path="url(#clip52)"><text fill="#595959" font-family="Calibri,Calibri_MSFontService,sans-serif" font-weight="400" font-size="41" transform="matrix(1 0 0 1 560.234 1000)">300</text></g><g clip-path="url(#clip53)"><text fill="#595959" font-family="Calibri,Calibri_MSFontService,sans-serif" font-weight="400" font-size="41" transform="matrix(1 0 0 1 560.234 817)">350</text></g><g clip-path="url(#clip54)"><text fill="#595959" font-family="Calibri,Calibri_MSFontService,sans-serif" font-weight="400" font-size="41" transform="matrix(1 0 0 1 560.234 635)">400</text></g><g clip-path="url(#clip55)"><text fill="#595959" font-family="Calibri,Calibri_MSFontService,sans-serif" font-weight="400" font-size="41" transform="matrix(1 0 0 1 560.234 452)">450</text></g><g clip-path="url(#clip56)"><text fill="#595959" font-family="Calibri,Calibri_MSFontService,sans-serif" font-weight="400" font-size="41" transform="matrix(1 0 0 1 560.234 270)">500</text></g><g clip-path="url(#clip57)"><text fill="#595959" font-family="Calibri,Calibri_MSFontService,sans-serif" font-weight="400" font-size="46" transform="matrix(6.12323e-17 -1 1 6.12323e-17 260.792 1289)">Latency (ms)</text></g><g clip-path="url(#clip58)"><text fill="#595959" font-family="Calibri,Calibri_MSFontService,sans-serif" font-weight="400" font-size="46" transform="matrix(1 0 0 1 1804.18 2461)">Sequence Length</text></g><g clip-path="url(#clip59)"><text fill="#595959" font-family="Calibri,Calibri_MSFontService,sans-serif" font-weight="400" font-size="64" transform="matrix(1 0 0 1 699.44 183)">Impact of using Physical+Logical cores against using only Physical cores for PyTorch and Tensorflow</text></g><g clip-path="url(#clip60)"><rect x="3338" y="1241" width="22.9998" height="23" fill="#4F81BD"/></g><g clip-path="url(#clip61)"><text fill="#595959" font-family="Calibri,Calibri_MSFontService,sans-serif" font-weight="400" font-size="41" transform="matrix(1 0 0 1 3370.12 1264)">pytorch - phy</text></g><g clip-path="url(#clip62)"><rect x="3338" y="1319" width="22.9998" height="22" fill="#C0504D"/></g><g clip-path="url(#clip63)"><text fill="#595959" font-family="Calibri,Calibri_MSFontService,sans-serif" font-weight="400" font-size="41" transform="matrix(1 0 0 1 3370.12 1342)">pytorch - phy + log</text></g><g clip-path="url(#clip64)"><rect x="3338" y="1396" width="22.9998" height="23" fill="#9BBB59"/></g><g clip-path="url(#clip65)"><text fill="#595959" font-family="Calibri,Calibri_MSFontService,sans-serif" font-weight="400" font-size="41" transform="matrix(1 0 0 1 3370.12 1419)">tensorflow - phy</text></g><g clip-path="url(#clip66)"><rect x="3338" y="1473" width="22.9998" height="23" fill="#8064A2"/></g><g clip-path="url(#clip67)"><text fill="#595959" font-family="Calibri,Calibri_MSFontService,sans-serif" font-weight="400" font-size="41" transform="matrix(1 0 0 1 3370.12 1496)">tensorflow - phy + log</text></g><rect x="160.5" y="88.4998" width="3621" height="2442" stroke="#D9D9D9" stroke-width="3.4375" stroke-linejoin="round" stroke-miterlimit="10" fill="none"/></g></svg>