<svg width="3639" height="2114" xmlns="http://www.w3.org/2000/svg" xmlns:xlink="http://www.w3.org/1999/xlink" overflow="hidden"><defs><clipPath id="clip0"><rect x="656" y="-1" width="3639" height="2114"/></clipPath><clipPath id="clip1"><rect x="657" y="0" width="3636" height="2111"/></clipPath><clipPath id="clip2"><rect x="975" y="169" width="2989" height="1567"/></clipPath><clipPath id="clip3"><rect x="975" y="169" width="2989" height="1567"/></clipPath><linearGradient x1="1081" y1="1707" x2="1126" y2="1707" gradientUnits="userSpaceOnUse" spreadMethod="reflect" id="fill4"><stop offset="0" stop-color="#FF7101"/><stop offset="1" stop-color="#FF8F00"/></linearGradient><clipPath id="clip5"><rect x="975" y="169" width="2989" height="1567"/></clipPath><linearGradient x1="1280" y1="1704.5" x2="1325" y2="1704.5" gradientUnits="userSpaceOnUse" spreadMethod="reflect" id="fill6"><stop offset="0" stop-color="#FF7101"/><stop offset="1" stop-color="#FF8F00"/></linearGradient><clipPath id="clip7"><rect x="975" y="169" width="2989" height="1567"/></clipPath><linearGradient x1="1479" y1="1670" x2="1524" y2="1670" gradientUnits="userSpaceOnUse" spreadMethod="reflect" id="fill8"><stop offset="0" stop-color="#FF7101"/><stop offset="1" stop-color="#FF8F00"/></linearGradient><clipPath id="clip9"><rect x="975" y="169" width="2989" height="1567"/></clipPath><linearGradient x1="1678" y1="1637" x2="1723" y2="1637" gradientUnits="userSpaceOnUse" spreadMethod="reflect" id="fill10"><stop offset="0" stop-color="#FF7101"/><stop offset="1" stop-color="#FF8F00"/></linearGradient><clipPath id="clip11"><rect x="975" y="169" width="2989" height="1567"/></clipPath><linearGradient x1="1877" y1="1627" x2="1922" y2="1627" gradientUnits="userSpaceOnUse" spreadMethod="reflect" id="fill12"><stop offset="0" stop-color="#FF7101"/><stop offset="1" stop-color="#FF8F00"/></linearGradient><clipPath id="clip13"><rect x="975" y="169" width="2989" height="1567"/></clipPath><linearGradient x1="2076" y1="1693" x2="2121" y2="1693" gradientUnits="userSpaceOnUse" spreadMethod="reflect" id="fill14"><stop offset="0" stop-color="#FF7101"/><stop offset="1" stop-color="#FF8F00"/></linearGradient><clipPath id="clip15"><rect x="975" y="169" width="2989" height="1567"/></clipPath><linearGradient x1="2275" y1="1673" x2="2320" y2="1673" gradientUnits="userSpaceOnUse" spreadMethod="reflect" id="fill16"><stop offset="0" stop-color="#FF7101"/><stop offset="1" stop-color="#FF8F00"/></linearGradient><clipPath id="clip17"><rect x="975" y="169" width="2989" height="1567"/></clipPath><linearGradient x1="2474" y1="1637" x2="2519" y2="1637" gradientUnits="userSpaceOnUse" spreadMethod="reflect" id="fill18"><stop offset="0" stop-color="#FF7101"/><stop offset="1" stop-color="#FF8F00"/></linearGradient><clipPath id="clip19"><rect x="975" y="169" width="2989" height="1567"/></clipPath><linearGradient x1="2674" y1="1554" x2="2718" y2="1554" gradientUnits="userSpaceOnUse" spreadMethod="reflect" id="fill20"><stop offset="0" stop-color="#FF7101"/><stop offset="1" stop-color="#FF8F00"/></linearGradient><clipPath id="clip21"><rect x="975" y="169" width="2989" height="1567"/></clipPath><linearGradient x1="2873" y1="1505.5" x2="2917" y2="1505.5" gradientUnits="userSpaceOnUse" spreadMethod="reflect" id="fill22"><stop offset="0" stop-color="#FF7101"/><stop offset="1" stop-color="#FF8F00"/></linearGradient><clipPath id="clip23"><rect x="975" y="169" width="2989" height="1567"/></clipPath><linearGradient x1="3072" y1="1670" x2="3116" y2="1670" gradientUnits="userSpaceOnUse" spreadMethod="reflect" id="fill24"><stop offset="0" stop-color="#FF7101"/><stop offset="1" stop-color="#FF8F00"/></linearGradient><clipPath id="clip25"><rect x="975" y="169" width="2989" height="1567"/></clipPath><linearGradient x1="3271" y1="1660" x2="3315" y2="1660" gradientUnits="userSpaceOnUse" spreadMethod="reflect" id="fill26"><stop offset="0" stop-color="#FF7101"/><stop offset="1" stop-color="#FF8F00"/></linearGradient><clipPath id="clip27"><rect x="975" y="169" width="2989" height="1567"/></clipPath><linearGradient x1="3470" y1="1614.5" x2="3514" y2="1614.5" gradientUnits="userSpaceOnUse" spreadMethod="reflect" id="fill28"><stop offset="0" stop-color="#FF7101"/><stop offset="1" stop-color="#FF8F00"/></linearGradient><clipPath id="clip29"><rect x="975" y="169" width="2989" height="1567"/></clipPath><linearGradient x1="3669" y1="1273" x2="3713" y2="1273" gradientUnits="userSpaceOnUse" spreadMethod="reflect" id="fill30"><stop offset="0" stop-color="#FF7101"/><stop offset="1" stop-color="#FF8F00"/></linearGradient><clipPath id="clip31"><rect x="975" y="169" width="2989" height="1567"/></clipPath><linearGradient x1="3868" y1="1050.5" x2="3912" y2="1050.5" gradientUnits="userSpaceOnUse" spreadMethod="reflect" id="fill32"><stop offset="0" stop-color="#FF7101"/><stop offset="1" stop-color="#FF8F00"/></linearGradient><clipPath id="clip33"><rect x="657" y="0" width="3636" height="2111"/></clipPath><clipPath id="clip34"><rect x="657" y="0" width="3636" height="2111"/></clipPath><clipPath id="clip35"><rect x="657" y="0" width="3636" height="2111"/></clipPath><clipPath id="clip36"><rect x="657" y="0" width="3636" height="2111"/></clipPath><clipPath id="clip37"><rect x="657" y="0" width="3636" height="2111"/></clipPath><clipPath id="clip38"><rect x="657" y="0" width="3636" height="2111"/></clipPath><clipPath id="clip39"><rect x="657" y="0" width="3636" height="2111"/></clipPath><clipPath id="clip40"><rect x="657" y="0" width="3636" height="2111"/></clipPath><clipPath id="clip41"><rect x="657" y="0" width="3636" height="2111"/></clipPath><clipPath id="clip42"><rect x="657" y="0" width="3636" height="2111"/></clipPath><clipPath id="clip43"><rect x="657" y="0" width="3636" height="2111"/></clipPath><clipPath id="clip44"><rect x="657" y="0" width="3636" height="2111"/></clipPath><clipPath id="clip45"><rect x="657" y="0" width="3636" height="2111"/></clipPath><clipPath id="clip46"><rect x="657" y="0" width="3636" height="2111"/></clipPath><clipPath id="clip47"><rect x="657" y="0" width="3636" height="2111"/></clipPath><clipPath id="clip48"><rect x="657" y="0" width="3636" height="2111"/></clipPath><clipPath id="clip49"><rect x="657" y="0" width="3636" height="2111"/></clipPath><clipPath id="clip50"><rect x="657" y="0" width="3636" height="2111"/></clipPath><clipPath id="clip51"><rect x="657" y="0" width="3636" height="2111"/></clipPath><clipPath id="clip52"><rect x="657" y="0" width="3636" height="2111"/></clipPath><clipPath id="clip53"><rect x="657" y="0" width="3636" height="2111"/></clipPath><clipPath id="clip54"><rect x="657" y="0" width="3636" height="2111"/></clipPath><clipPath id="clip55"><rect x="657" y="0" width="3636" height="2111"/></clipPath><clipPath id="clip56"><rect x="657" y="0" width="3636" height="2111"/></clipPath><clipPath id="clip57"><rect x="657" y="0" width="3636" height="2111"/></clipPath><clipPath id="clip58"><rect x="657" y="0" width="3636" height="2111"/></clipPath><clipPath id="clip59"><rect x="657" y="0" width="3636" height="2111"/></clipPath><clipPath id="clip60"><rect x="657" y="0" width="3636" height="2111"/></clipPath><clipPath id="clip61"><rect x="657" y="0" width="3636" height="2111"/></clipPath><clipPath id="clip62"><rect x="657" y="0" width="3636" height="2111"/></clipPath><clipPath id="clip63"><rect x="657" y="0" width="3636" height="2111"/></clipPath><clipPath id="clip64"><rect x="657" y="0" width="3636" height="2111"/></clipPath><clipPath id="clip65"><rect x="657" y="0" width="3636" height="2111"/></clipPath><clipPath id="clip66"><rect x="657" y="0" width="3636" height="2111"/></clipPath><clipPath id="clip67"><rect x="657" y="0" width="3636" height="2111"/></clipPath><clipPath id="clip68"><rect x="657" y="0" width="3636" height="2111"/></clipPath><clipPath id="clip69"><rect x="657" y="0" width="3636" height="2111"/></clipPath><clipPath id="clip70"><rect x="657" y="0" width="3636" height="2111"/></clipPath><clipPath id="clip71"><rect x="657" y="0" width="3636" height="2111"/></clipPath><clipPath id="clip72"><rect x="657" y="0" width="3636" height="2111"/></clipPath><clipPath id="clip73"><rect x="657" y="0" width="3636" height="2111"/></clipPath><clipPath id="clip74"><rect x="657" y="0" width="3636" height="2111"/></clipPath><clipPath id="clip75"><rect x="657" y="0" width="3636" height="2111"/></clipPath><linearGradient x1="750" y1="1957.5" x2="773" y2="1957.5" gradientUnits="userSpaceOnUse" spreadMethod="reflect" id="fill76"><stop offset="0" stop-color="#FF7101"/><stop offset="1" stop-color="#FF8F00"/></linearGradient><clipPath id="clip77"><rect x="657" y="0" width="3636" height="2111"/></clipPath><clipPath id="clip78"><rect x="657" y="0" width="3636" height="2111"/></clipPath><clipPath id="clip79"><rect x="657" y="0" width="3636" height="2111"/></clipPath><clipPath id="clip80"><rect x="657" y="0" width="3636" height="2111"/></clipPath><clipPath id="clip81"><rect x="657" y="0" width="3636" height="2111"/></clipPath><clipPath id="clip82"><rect x="657" y="0" width="3636" height="2111"/></clipPath><clipPath id="clip83"><rect x="657" y="0" width="3636" height="2111"/></clipPath><clipPath id="clip84"><rect x="657" y="0" width="3636" height="2111"/></clipPath><clipPath id="clip85"><rect x="657" y="0" width="3636" height="2111"/></clipPath><clipPath id="clip86"><rect x="657" y="0" width="3636" height="2111"/></clipPath><clipPath id="clip87"><rect x="657" y="0" width="3636" height="2111"/></clipPath><clipPath id="clip88"><rect x="657" y="0" width="3636" height="2111"/></clipPath><clipPath id="clip89"><rect x="657" y="0" width="3636" height="2111"/></clipPath><clipPath id="clip90"><rect x="657" y="0" width="3636" height="2111"/></clipPath><clipPath id="clip91"><rect x="657" y="0" width="3636" height="2111"/></clipPath><clipPath id="clip92"><rect x="657" y="0" width="3636" height="2111"/></clipPath><clipPath id="clip93"><rect x="657" y="0" width="3636" height="2111"/></clipPath><clipPath id="clip94"><rect x="657" y="0" width="3636" height="2111"/></clipPath><clipPath id="clip95"><rect x="657" y="0" width="3636" height="2111"/></clipPath><clipPath id="clip96"><rect x="657" y="0" width="3636" height="2111"/></clipPath><clipPath id="clip97"><rect x="657" y="0" width="3636" height="2111"/></clipPath><clipPath id="clip98"><rect x="657" y="0" width="3636" height="2111"/></clipPath><clipPath id="clip99"><rect x="657" y="0" width="3636" height="2111"/></clipPath><clipPath id="clip100"><rect x="657" y="0" width="3636" height="2111"/></clipPath><clipPath id="clip101"><rect x="657" y="0" width="3636" height="2111"/></clipPath><clipPath id="clip102"><rect x="657" y="0" width="3636" height="2111"/></clipPath><clipPath id="clip103"><rect x="657" y="0" width="3636" height="2111"/></clipPath><clipPath id="clip104"><rect x="657" y="0" width="3636" height="2111"/></clipPath><clipPath id="clip105"><rect x="657" y="0" width="3636" height="2111"/></clipPath><clipPath id="clip106"><rect x="657" y="0" width="3636" height="2111"/></clipPath><clipPath id="clip107"><rect x="657" y="0" width="3636" height="2111"/></clipPath><clipPath id="clip108"><rect x="657" y="0" width="3636" height="2111"/></clipPath><linearGradient x1="4033" y1="1154" x2="4056" y2="1154" gradientUnits="userSpaceOnUse" spreadMethod="reflect" id="fill109"><stop offset="0" stop-color="#FF7101"/><stop offset="1" stop-color="#FF8F00"/></linearGradient><clipPath id="clip110"><rect x="657" y="0" width="3636" height="2111"/></clipPath></defs><g clip-path="url(#clip0)" transform="translate(-656 1)"><rect x="657" y="0" width="3636" height="2111" fill="#FFFFFF"/><g clip-path="url(#clip1)"><path d="M975.5 1509.55 3961.5 1509.55M975.5 1286.54 3961.5 1286.54M975.5 1062.54 3961.5 1062.54M975.5 839.528 3961.5 839.528M975.5 616.52 3961.5 616.52M975.5 393.513 3961.5 393.513M975.5 169.5 3961.5 169.5" stroke="#D9D9D9" stroke-width="3.4375" stroke-linejoin="round" stroke-miterlimit="10" fill="none"/></g><g clip-path="url(#clip2)"><path d="M1025.03 1691.06 1069.04 1691.06 1069.04 1733 1025.03 1733ZM1224.04 1689.06 1268.04 1689.06 1268.04 1733 1224.04 1733ZM1423.05 1665.05 1467.05 1665.05 1467.05 1733 1423.05 1733ZM1622.05 1659.05 1666.05 1659.05 1666.05 1733 1622.05 1733ZM1821.06 1645.05 1865.06 1645.05 1865.06 1733 1821.06 1733ZM2020.07 1664.05 2064.07 1664.05 2064.07 1733 2020.07 1733ZM2219.07 1667.05 2263.07 1667.05 2263.07 1733 2219.07 1733ZM2418.08 1656.05 2462.08 1656.05 2462.08 1733 2418.08 1733ZM2617.09 1635.05 2661.09 1635.05 2661.09 1733 2617.09 1733ZM2816.09 1548.05 2860.09 1548.05 2860.09 1733 2816.09 1733ZM3015.1 1661.05 3059.1 1661.05 3059.1 1733 3015.1 1733ZM3214.11 1662.05 3258.11 1662.05 3258.11 1733 3214.11 1733ZM3413.11 1659.05 3457.11 1659.05 3457.11 1733 3413.11 1733ZM3612.12 1481.05 3656.12 1481.05 3656.12 1733 3612.12 1733ZM3811.12 1344.04 3855.13 1344.04 3855.13 1733 3811.12 1733Z" fill="#C00000"/></g><g clip-path="url(#clip3)"><rect x="1081" y="1681" width="45" height="51.9999" fill="url(#fill4)"/></g><g clip-path="url(#clip5)"><rect x="1280" y="1676" width="45" height="56.9998" fill="url(#fill6)"/></g><g clip-path="url(#clip7)"><rect x="1479" y="1607" width="44.9996" height="126" fill="url(#fill8)"/></g><g clip-path="url(#clip9)"><rect x="1678" y="1541" width="45" height="192" fill="url(#fill10)"/></g><g clip-path="url(#clip11)"><rect x="1877" y="1521" width="45" height="212" fill="url(#fill12)"/></g><g clip-path="url(#clip13)"><rect x="2076" y="1653" width="45" height="79.9998" fill="url(#fill14)"/></g><g clip-path="url(#clip15)"><rect x="2275" y="1613" width="45" height="120" fill="url(#fill16)"/></g><g clip-path="url(#clip17)"><rect x="2474" y="1541" width="45" height="192" fill="url(#fill18)"/></g><g clip-path="url(#clip19)"><rect x="2674" y="1375" width="44" height="358" fill="url(#fill20)"/></g><g clip-path="url(#clip21)"><rect x="2873" y="1278" width="44" height="455" fill="url(#fill22)"/></g><g clip-path="url(#clip23)"><rect x="3072" y="1607" width="44" height="126" fill="url(#fill24)"/></g><g clip-path="url(#clip25)"><rect x="3271" y="1587" width="44" height="146" fill="url(#fill26)"/></g><g clip-path="url(#clip27)"><rect x="3470" y="1496" width="44" height="237" fill="url(#fill28)"/></g><g clip-path="url(#clip29)"><rect x="3669" y="813" width="44" height="920" fill="url(#fill30)"/></g><g clip-path="url(#clip31)"><rect x="3868" y="368" width="44" height="1365" fill="url(#fill32)"/></g><g clip-path="url(#clip33)"><path d="M975.5 1732.5 3961.5 1732.5" stroke="#D9D9D9" stroke-width="3.4375" stroke-linejoin="round" stroke-miterlimit="10" fill="none" fill-rule="evenodd"/></g><g clip-path="url(#clip34)"><path d="M975.5 1732.5 3961.5 1732.5" stroke="#D9D9D9" stroke-width="3.4375" stroke-linejoin="round" stroke-miterlimit="10" fill="none" fill-rule="evenodd"/></g><g clip-path="url(#clip35)"><path d="M975.5 1732.5 3961.5 1732.5" stroke="#D9D9D9" stroke-width="3.4375" stroke-linejoin="round" stroke-miterlimit="10" fill="none" fill-rule="evenodd"/></g><g clip-path="url(#clip36)"><path d="M975.5 1732.5 975.5 1796.5M975.5 1732.5 975.5 1796.5M1174.54 1732.5 1174.54 1796.5M1174.54 1732.5 1174.54 1796.5M1373.55 1732.5 1373.55 1796.5M1373.55 1732.5 1373.55 1796.5M1572.55 1732.5 1572.55 1796.5M1572.55 1732.5 1572.55 1796.5M1771.56 1732.5 1771.56 1796.5M1771.56 1732.5 1771.56 1796.5M1970.56 1732.5 1970.56 1796.5M1970.56 1732.5 1970.56 1796.5M2169.57 1732.5 2169.57 1796.5M2169.57 1732.5 2169.57 1796.5M2368.58 1732.5 2368.58 1796.5M2368.58 1732.5 2368.58 1796.5M2567.58 1732.5 2567.58 1796.5M2567.58 1732.5 2567.58 1796.5M2766.59 1732.5 2766.59 1796.5M2766.59 1732.5 2766.59 1796.5M2965.6 1732.5 2965.6 1796.5M2965.6 1732.5 2965.6 1796.5M3164.6 1732.5 3164.6 1796.5M3164.6 1732.5 3164.6 1796.5M3363.61 1732.5 3363.61 1796.5M3363.61 1732.5 3363.61 1796.5M3562.62 1732.5 3562.62 1796.5M3562.62 1732.5 3562.62 1796.5M3761.62 1732.5 3761.62 1796.5M3761.62 1732.5 3761.62 1796.5M3961.5 1732.5 3961.5 1796.5M3961.5 1732.5 3961.5 1796.5" stroke="#D9D9D9" stroke-width="3.4375" stroke-linejoin="round" stroke-miterlimit="10" fill="none"/></g><g clip-path="url(#clip37)"><text fill="#595959" font-family="Calibri,Calibri_MSFontService,sans-serif" font-weight="400" font-size="41" transform="matrix(1 0 0 1 1054.43 1776)">20</text></g><g clip-path="url(#clip38)"><text fill="#595959" font-family="Calibri,Calibri_MSFontService,sans-serif" font-weight="400" font-size="41" transform="matrix(1 0 0 1 1253.45 1776)">32</text></g><g clip-path="url(#clip39)"><text fill="#595959" font-family="Calibri,Calibri_MSFontService,sans-serif" font-weight="400" font-size="41" transform="matrix(1 0 0 1 1442.02 1776)">128</text></g><g clip-path="url(#clip40)"><text fill="#595959" font-family="Calibri,Calibri_MSFontService,sans-serif" font-weight="400" font-size="41" transform="matrix(1 0 0 1 1641.04 1776)">384</text></g><g clip-path="url(#clip41)"><text fill="#595959" font-family="Calibri,Calibri_MSFontService,sans-serif" font-weight="400" font-size="41" transform="matrix(1 0 0 1 1840.06 1776)">512</text></g><g clip-path="url(#clip42)"><text fill="#595959" font-family="Calibri,Calibri_MSFontService,sans-serif" font-weight="400" font-size="41" transform="matrix(1 0 0 1 2049.53 1776)">20</text></g><g clip-path="url(#clip43)"><text fill="#595959" font-family="Calibri,Calibri_MSFontService,sans-serif" font-weight="400" font-size="41" transform="matrix(1 0 0 1 2248.55 1776)">32</text></g><g clip-path="url(#clip44)"><text fill="#595959" font-family="Calibri,Calibri_MSFontService,sans-serif" font-weight="400" font-size="41" transform="matrix(1 0 0 1 2437.12 1776)">128</text></g><g clip-path="url(#clip45)"><text fill="#595959" font-family="Calibri,Calibri_MSFontService,sans-serif" font-weight="400" font-size="41" transform="matrix(1 0 0 1 2636.14 1776)">384</text></g><g clip-path="url(#clip46)"><text fill="#595959" font-family="Calibri,Calibri_MSFontService,sans-serif" font-weight="400" font-size="41" transform="matrix(1 0 0 1 2835.16 1776)">512</text></g><g clip-path="url(#clip47)"><text fill="#595959" font-family="Calibri,Calibri_MSFontService,sans-serif" font-weight="400" font-size="41" transform="matrix(1 0 0 1 3044.63 1776)">20</text></g><g clip-path="url(#clip48)"><text fill="#595959" font-family="Calibri,Calibri_MSFontService,sans-serif" font-weight="400" font-size="41" transform="matrix(1 0 0 1 3243.65 1776)">32</text></g><g clip-path="url(#clip49)"><text fill="#595959" font-family="Calibri,Calibri_MSFontService,sans-serif" font-weight="400" font-size="41" transform="matrix(1 0 0 1 3432.22 1776)">128</text></g><g clip-path="url(#clip50)"><text fill="#595959" font-family="Calibri,Calibri_MSFontService,sans-serif" font-weight="400" font-size="41" transform="matrix(1 0 0 1 3631.24 1776)">384</text></g><g clip-path="url(#clip51)"><text fill="#595959" font-family="Calibri,Calibri_MSFontService,sans-serif" font-weight="400" font-size="41" transform="matrix(1 0 0 1 3830.25 1776)">512</text></g><g clip-path="url(#clip52)"><path d="M975.5 1796.5 975.5 1859.5M1970.56 1796.5 1970.56 1859.5M2965.6 1796.5 2965.6 1859.5M3961.5 1796.5 3961.5 1859.5" stroke="#D9D9D9" stroke-width="3.4375" stroke-linejoin="round" stroke-miterlimit="10" fill="none"/></g><g clip-path="url(#clip53)"><text fill="#595959" font-family="Calibri,Calibri_MSFontService,sans-serif" font-weight="400" font-size="41" transform="matrix(1 0 0 1 1462.92 1839)">1</text></g><g clip-path="url(#clip54)"><text fill="#595959" font-family="Calibri,Calibri_MSFontService,sans-serif" font-weight="400" font-size="41" transform="matrix(1 0 0 1 2458.02 1839)">4</text></g><g clip-path="url(#clip55)"><text fill="#595959" font-family="Calibri,Calibri_MSFontService,sans-serif" font-weight="400" font-size="41" transform="matrix(1 0 0 1 3453.12 1839)">8</text></g><g clip-path="url(#clip56)"><path d="M735.5 1859.5 3961.5 1859.5M735.5 1859.5 735.5 1925.5M975.532 1859.5 975.532 1925.5M975.532 1859.5 975.532 1925.5M1174.54 1859.5 1174.54 1925.5M1174.54 1859.5 1174.54 1925.5M1373.55 1859.5 1373.55 1925.5M1373.55 1859.5 1373.55 1925.5M1572.55 1859.5 1572.55 1925.5M1572.55 1859.5 1572.55 1925.5M1771.56 1859.5 1771.56 1925.5M1771.56 1859.5 1771.56 1925.5M1970.56 1859.5 1970.56 1925.5M1970.56 1859.5 1970.56 1925.5M2169.57 1859.5 2169.57 1925.5M2169.57 1859.5 2169.57 1925.5M2368.58 1859.5 2368.58 1925.5M2368.58 1859.5 2368.58 1925.5M2567.58 1859.5 2567.58 1925.5M2567.58 1859.5 2567.58 1925.5M2766.59 1859.5 2766.59 1925.5M2766.59 1859.5 2766.59 1925.5M2965.6 1859.5 2965.6 1925.5M2965.6 1859.5 2965.6 1925.5M3164.6 1859.5 3164.6 1925.5M3164.6 1859.5 3164.6 1925.5M3363.61 1859.5 3363.61 1925.5M3363.61 1859.5 3363.61 1925.5M3562.62 1859.5 3562.62 1925.5M3562.62 1859.5 3562.62 1925.5M3761.62 1859.5 3761.62 1925.5M3761.62 1859.5 3761.62 1925.5M3961.5 1859.5 3961.5 1925.5M3961.5 1859.5 3961.5 1925.5" stroke="#D9D9D9" stroke-width="3.4375" stroke-linejoin="round" stroke-miterlimit="10" fill="none"/></g><g clip-path="url(#clip57)"><rect x="750" y="1880" width="23.0001" height="23" fill="#C00000"/></g><g clip-path="url(#clip58)"><text fill="#595959" font-family="Calibri,Calibri_MSFontService,sans-serif" font-weight="400" font-size="41" transform="matrix(1 0 0 1 782.198 1903)">pytorch</text></g><g clip-path="url(#clip59)"><text fill="#595959" font-family="Calibri,Calibri_MSFontService,sans-serif" font-weight="400" font-size="41" transform="matrix(1 0 0 1 1054.43 1904)">93</text></g><g clip-path="url(#clip60)"><text fill="#595959" font-family="Calibri,Calibri_MSFontService,sans-serif" font-weight="400" font-size="41" transform="matrix(1 0 0 1 1253.45 1904)">99</text></g><g clip-path="url(#clip61)"><text fill="#595959" font-family="Calibri,Calibri_MSFontService,sans-serif" font-weight="400" font-size="41" transform="matrix(1 0 0 1 1442.02 1904)">151</text></g><g clip-path="url(#clip62)"><text fill="#595959" font-family="Calibri,Calibri_MSFontService,sans-serif" font-weight="400" font-size="41" transform="matrix(1 0 0 1 1641.04 1904)">164</text></g><g clip-path="url(#clip63)"><text fill="#595959" font-family="Calibri,Calibri_MSFontService,sans-serif" font-weight="400" font-size="41" transform="matrix(1 0 0 1 1840.06 1904)">196</text></g><g clip-path="url(#clip64)"><text fill="#595959" font-family="Calibri,Calibri_MSFontService,sans-serif" font-weight="400" font-size="41" transform="matrix(1 0 0 1 2039.08 1904)">153</text></g><g clip-path="url(#clip65)"><text fill="#595959" font-family="Calibri,Calibri_MSFontService,sans-serif" font-weight="400" font-size="41" transform="matrix(1 0 0 1 2238.1 1904)">147</text></g><g clip-path="url(#clip66)"><text fill="#595959" font-family="Calibri,Calibri_MSFontService,sans-serif" font-weight="400" font-size="41" transform="matrix(1 0 0 1 2437.12 1904)">171</text></g><g clip-path="url(#clip67)"><text fill="#595959" font-family="Calibri,Calibri_MSFontService,sans-serif" font-weight="400" font-size="41" transform="matrix(1 0 0 1 2636.14 1904)">218</text></g><g clip-path="url(#clip68)"><text fill="#595959" font-family="Calibri,Calibri_MSFontService,sans-serif" font-weight="400" font-size="41" transform="matrix(1 0 0 1 2835.16 1904)">413</text></g><g clip-path="url(#clip69)"><text fill="#595959" font-family="Calibri,Calibri_MSFontService,sans-serif" font-weight="400" font-size="41" transform="matrix(1 0 0 1 3034.18 1904)">161</text></g><g clip-path="url(#clip70)"><text fill="#595959" font-family="Calibri,Calibri_MSFontService,sans-serif" font-weight="400" font-size="41" transform="matrix(1 0 0 1 3233.2 1904)">159</text></g><g clip-path="url(#clip71)"><text fill="#595959" font-family="Calibri,Calibri_MSFontService,sans-serif" font-weight="400" font-size="41" transform="matrix(1 0 0 1 3432.22 1904)">166</text></g><g clip-path="url(#clip72)"><text fill="#595959" font-family="Calibri,Calibri_MSFontService,sans-serif" font-weight="400" font-size="41" transform="matrix(1 0 0 1 3631.24 1904)">564</text></g><g clip-path="url(#clip73)"><text fill="#595959" font-family="Calibri,Calibri_MSFontService,sans-serif" font-weight="400" font-size="41" transform="matrix(1 0 0 1 3830.25 1904)">871</text></g><g clip-path="url(#clip74)"><path d="M735.5 1925.5 3961.5 1925.5M735.5 1925.5 735.5 1991.5M735.5 1991.5 3961.5 1991.5M975.532 1925.5 975.532 1991.5M975.532 1925.5 975.532 1991.5M1174.54 1925.5 1174.54 1991.5M1174.54 1925.5 1174.54 1991.5M1373.55 1925.5 1373.55 1991.5M1373.55 1925.5 1373.55 1991.5M1572.55 1925.5 1572.55 1991.5M1572.55 1925.5 1572.55 1991.5M1771.56 1925.5 1771.56 1991.5M1771.56 1925.5 1771.56 1991.5M1970.56 1925.5 1970.56 1991.5M1970.56 1925.5 1970.56 1991.5M2169.57 1925.5 2169.57 1991.5M2169.57 1925.5 2169.57 1991.5M2368.58 1925.5 2368.58 1991.5M2368.58 1925.5 2368.58 1991.5M2567.58 1925.5 2567.58 1991.5M2567.58 1925.5 2567.58 1991.5M2766.59 1925.5 2766.59 1991.5M2766.59 1925.5 2766.59 1991.5M2965.6 1925.5 2965.6 1991.5M2965.6 1925.5 2965.6 1991.5M3164.6 1925.5 3164.6 1991.5M3164.6 1925.5 3164.6 1991.5M3363.61 1925.5 3363.61 1991.5M3363.61 1925.5 3363.61 1991.5M3562.62 1925.5 3562.62 1991.5M3562.62 1925.5 3562.62 1991.5M3761.62 1925.5 3761.62 1991.5M3761.62 1925.5 3761.62 1991.5M3961.5 1925.5 3961.5 1991.5M3961.5 1925.5 3961.5 1991.5" stroke="#D9D9D9" stroke-width="3.4375" stroke-linejoin="round" stroke-miterlimit="10" fill="none"/></g><g clip-path="url(#clip75)"><rect x="750" y="1946" width="23.0001" height="23" fill="url(#fill76)"/></g><g clip-path="url(#clip77)"><text fill="#595959" font-family="Calibri,Calibri_MSFontService,sans-serif" font-weight="400" font-size="41" transform="matrix(1 0 0 1 782.198 1969)">tensorflow</text></g><g clip-path="url(#clip78)"><text fill="#595959" font-family="Calibri,Calibri_MSFontService,sans-serif" font-weight="400" font-size="41" transform="matrix(1 0 0 1 1043.98 1970)">115</text></g><g clip-path="url(#clip79)"><text fill="#595959" font-family="Calibri,Calibri_MSFontService,sans-serif" font-weight="400" font-size="41" transform="matrix(1 0 0 1 1243 1970)">127</text></g><g clip-path="url(#clip80)"><text fill="#595959" font-family="Calibri,Calibri_MSFontService,sans-serif" font-weight="400" font-size="41" transform="matrix(1 0 0 1 1442.02 1970)">280</text></g><g clip-path="url(#clip81)"><text fill="#595959" font-family="Calibri,Calibri_MSFontService,sans-serif" font-weight="400" font-size="41" transform="matrix(1 0 0 1 1641.04 1970)">429</text></g><g clip-path="url(#clip82)"><text fill="#595959" font-family="Calibri,Calibri_MSFontService,sans-serif" font-weight="400" font-size="41" transform="matrix(1 0 0 1 1840.06 1970)">474</text></g><g clip-path="url(#clip83)"><text fill="#595959" font-family="Calibri,Calibri_MSFontService,sans-serif" font-weight="400" font-size="41" transform="matrix(1 0 0 1 2039.08 1970)">178</text></g><g clip-path="url(#clip84)"><text fill="#595959" font-family="Calibri,Calibri_MSFontService,sans-serif" font-weight="400" font-size="41" transform="matrix(1 0 0 1 2238.1 1970)">269</text></g><g clip-path="url(#clip85)"><text fill="#595959" font-family="Calibri,Calibri_MSFontService,sans-serif" font-weight="400" font-size="41" transform="matrix(1 0 0 1 2437.12 1970)">429</text></g><g clip-path="url(#clip86)"><text fill="#595959" font-family="Calibri,Calibri_MSFontService,sans-serif" font-weight="400" font-size="41" transform="matrix(1 0 0 1 2636.14 1970)">802</text></g><g clip-path="url(#clip87)"><text fill="#595959" font-family="Calibri,Calibri_MSFontService,sans-serif" font-weight="400" font-size="41" transform="matrix(1 0 0 1 2824.71 1970)">1019</text></g><g clip-path="url(#clip88)"><text fill="#595959" font-family="Calibri,Calibri_MSFontService,sans-serif" font-weight="400" font-size="41" transform="matrix(1 0 0 1 3034.18 1970)">281</text></g><g clip-path="url(#clip89)"><text fill="#595959" font-family="Calibri,Calibri_MSFontService,sans-serif" font-weight="400" font-size="41" transform="matrix(1 0 0 1 3233.2 1970)">325</text></g><g clip-path="url(#clip90)"><text fill="#595959" font-family="Calibri,Calibri_MSFontService,sans-serif" font-weight="400" font-size="41" transform="matrix(1 0 0 1 3432.22 1970)">531</text></g><g clip-path="url(#clip91)"><text fill="#595959" font-family="Calibri,Calibri_MSFontService,sans-serif" font-weight="400" font-size="41" transform="matrix(1 0 0 1 3620.79 1970)">2060</text></g><g clip-path="url(#clip92)"><text fill="#595959" font-family="Calibri,Calibri_MSFontService,sans-serif" font-weight="400" font-size="41" transform="matrix(1 0 0 1 3819.8 1970)">3056</text></g><g clip-path="url(#clip93)"><text fill="#595959" font-family="Calibri,Calibri_MSFontService,sans-serif" font-weight="400" font-size="41" transform="matrix(1 0 0 1 916.656 1744)">0</text></g><g clip-path="url(#clip94)"><text fill="#595959" font-family="Calibri,Calibri_MSFontService,sans-serif" font-weight="400" font-size="41" transform="matrix(1 0 0 1 874.856 1521)">500</text></g><g clip-path="url(#clip95)"><text fill="#595959" font-family="Calibri,Calibri_MSFontService,sans-serif" font-weight="400" font-size="41" transform="matrix(1 0 0 1 853.956 1298)">1000</text></g><g clip-path="url(#clip96)"><text fill="#595959" font-family="Calibri,Calibri_MSFontService,sans-serif" font-weight="400" font-size="41" transform="matrix(1 0 0 1 853.956 1075)">1500</text></g><g clip-path="url(#clip97)"><text fill="#595959" font-family="Calibri,Calibri_MSFontService,sans-serif" font-weight="400" font-size="41" transform="matrix(1 0 0 1 853.956 851)">2000</text></g><g clip-path="url(#clip98)"><text fill="#595959" font-family="Calibri,Calibri_MSFontService,sans-serif" font-weight="400" font-size="41" transform="matrix(1 0 0 1 853.956 628)">2500</text></g><g clip-path="url(#clip99)"><text fill="#595959" font-family="Calibri,Calibri_MSFontService,sans-serif" font-weight="400" font-size="41" transform="matrix(1 0 0 1 853.956 405)">3000</text></g><g clip-path="url(#clip100)"><text fill="#595959" font-family="Calibri,Calibri_MSFontService,sans-serif" font-weight="400" font-size="41" transform="matrix(1 0 0 1 853.956 182)">3500</text></g><g clip-path="url(#clip101)"><text fill="#595959" font-family="Calibri,Calibri_MSFontService,sans-serif" font-weight="400" font-size="46" transform="matrix(6.12323e-17 -1 1 6.12323e-17 758.542 1069)">Latency (ms)</text></g><g clip-path="url(#clip102)"><text fill="#595959" font-family="Calibri,Calibri_MSFontService,sans-serif" font-weight="400" font-size="46" transform="matrix(1 0 0 1 2197.24 2042)">Batch size / Sequence Length</text></g><g clip-path="url(#clip103)"><text fill="#595959" font-family="Calibri,Calibri_MSFontService,sans-serif" font-weight="400" font-size="64" transform="matrix(1 0 0 1 1143.32 95)">PyTorch &amp; TensorFlow Eager </text></g><g clip-path="url(#clip104)"><text fill="#595959" font-family="Calibri,Calibri_MSFontService,sans-serif" font-weight="400" font-size="64" transform="matrix(1 0 0 1 1890.5 95)">-</text></g><g clip-path="url(#clip105)"><text fill="#595959" font-family="Calibri,Calibri_MSFontService,sans-serif" font-weight="400" font-size="64" transform="matrix(1 0 0 1 1924.64 95)">Latency measurement for small batch size and default threading settings </text></g><g clip-path="url(#clip106)"><rect x="4033" y="1065" width="23" height="23" fill="#C00000"/></g><g clip-path="url(#clip107)"><text fill="#595959" font-family="Calibri,Calibri_MSFontService,sans-serif" font-weight="400" font-size="41" transform="matrix(1 0 0 1 4065.44 1088)">pytorch</text></g><g clip-path="url(#clip108)"><rect x="4033" y="1143" width="23" height="22" fill="url(#fill109)"/></g><g clip-path="url(#clip110)"><text fill="#595959" font-family="Calibri,Calibri_MSFontService,sans-serif" font-weight="400" font-size="41" transform="matrix(1 0 0 1 4065.44 1166)">tensorflow</text></g><rect x="657.5" y="0.499836" width="3636" height="2111" stroke="#D9D9D9" stroke-width="3.4375" stroke-linejoin="round" stroke-miterlimit="10" fill="none"/></g></svg>