<svg width="3517" height="2547" xmlns="http://www.w3.org/2000/svg" xmlns:xlink="http://www.w3.org/1999/xlink" overflow="hidden"><defs><clipPath id="clip0"><rect x="43" y="21" width="3517" height="2547"/></clipPath><clipPath id="clip1"><rect x="44" y="22" width="3513" height="2543"/></clipPath><clipPath id="clip2"><rect x="332" y="270" width="2926" height="1920"/></clipPath><clipPath id="clip3"><rect x="332" y="270" width="2926" height="1920"/></clipPath><clipPath id="clip4"><rect x="44" y="22" width="3513" height="2543"/></clipPath><clipPath id="clip5"><rect x="44" y="22" width="3513" height="2543"/></clipPath><clipPath id="clip6"><rect x="44" y="22" width="3513" height="2543"/></clipPath><clipPath id="clip7"><rect x="44" y="22" width="3513" height="2543"/></clipPath><clipPath id="clip8"><rect x="44" y="22" width="3513" height="2543"/></clipPath><clipPath id="clip9"><rect x="44" y="22" width="3513" height="2543"/></clipPath><clipPath id="clip10"><rect x="44" y="22" width="3513" height="2543"/></clipPath><clipPath id="clip11"><rect x="44" y="22" width="3513" height="2543"/></clipPath><clipPath id="clip12"><rect x="44" y="22" width="3513" height="2543"/></clipPath><clipPath id="clip13"><rect x="44" y="22" width="3513" height="2543"/></clipPath><clipPath id="clip14"><rect x="44" y="22" width="3513" height="2543"/></clipPath><clipPath id="clip15"><rect x="44" y="22" width="3513" height="2543"/></clipPath><clipPath id="clip16"><rect x="44" y="22" width="3513" height="2543"/></clipPath><clipPath id="clip17"><rect x="44" y="22" width="3513" height="2543"/></clipPath><clipPath id="clip18"><rect x="44" y="22" width="3513" height="2543"/></clipPath><clipPath id="clip19"><rect x="44" y="22" width="3513" height="2543"/></clipPath><clipPath id="clip20"><rect x="44" y="22" width="3513" height="2543"/></clipPath><clipPath id="clip21"><rect x="44" y="22" width="3513" height="2543"/></clipPath><clipPath id="clip22"><rect x="44" y="22" width="3513" height="2543"/></clipPath><clipPath id="clip23"><rect x="44" y="22" width="3513" height="2543"/></clipPath><clipPath id="clip24"><rect x="44" y="22" width="3513" height="2543"/></clipPath><clipPath id="clip25"><rect x="44" y="22" width="3513" height="2543"/></clipPath><clipPath id="clip26"><rect x="44" y="22" width="3513" height="2543"/></clipPath><clipPath id="clip27"><rect x="44" y="22" width="3513" height="2543"/></clipPath><clipPath id="clip28"><rect x="44" y="22" width="3513" height="2543"/></clipPath><clipPath id="clip29"><rect x="44" y="22" width="3513" height="2543"/></clipPath><clipPath id="clip30"><rect x="44" y="22" width="3513" height="2543"/></clipPath><clipPath id="clip31"><rect x="44" y="22" width="3513" height="2543"/></clipPath><clipPath id="clip32"><rect x="44" y="22" width="3513" height="2543"/></clipPath><clipPath id="clip33"><rect x="44" y="22" width="3513" height="2543"/></clipPath><clipPath id="clip34"><rect x="44" y="22" width="3513" height="2543"/></clipPath><clipPath id="clip35"><rect x="44" y="22" width="3513" height="2543"/></clipPath><clipPath id="clip36"><rect x="44" y="22" width="3513" height="2543"/></clipPath><clipPath id="clip37"><rect x="44" y="22" width="3513" height="2543"/></clipPath><clipPath id="clip38"><rect x="44" y="22" width="3513" height="2543"/></clipPath><clipPath id="clip39"><rect x="44" y="22" width="3513" height="2543"/></clipPath><clipPath id="clip40"><rect x="44" y="22" width="3513" height="2543"/></clipPath><clipPath id="clip41"><rect x="44" y="22" width="3513" height="2543"/></clipPath><clipPath id="clip42"><rect x="44" y="22" width="3513" height="2543"/></clipPath><clipPath id="clip43"><rect x="44" y="22" width="3513" height="2543"/></clipPath><clipPath id="clip44"><rect x="44" y="22" width="3513" height="2543"/></clipPath><clipPath id="clip45"><rect x="44" y="22" width="3513" height="2543"/></clipPath><clipPath id="clip46"><rect x="44" y="22" width="3513" height="2543"/></clipPath><clipPath id="clip47"><rect x="44" y="22" width="3513" height="2543"/></clipPath><clipPath id="clip48"><rect x="44" y="22" width="3513" height="2543"/></clipPath><clipPath id="clip49"><rect x="44" y="22" width="3513" height="2543"/></clipPath><clipPath id="clip50"><rect x="44" y="22" width="3513" height="2543"/></clipPath><clipPath id="clip51"><rect x="44" y="22" width="3513" height="2543"/></clipPath><clipPath id="clip52"><rect x="44" y="22" width="3513" height="2543"/></clipPath><clipPath id="clip53"><rect x="44" y="22" width="3513" height="2543"/></clipPath><clipPath id="clip54"><rect x="44" y="22" width="3513" height="2543"/></clipPath><clipPath id="clip55"><rect x="44" y="22" width="3513" height="2543"/></clipPath><clipPath id="clip56"><rect x="44" y="22" width="3513" height="2543"/></clipPath><clipPath id="clip57"><rect x="44" y="22" width="3513" height="2543"/></clipPath><clipPath id="clip58"><rect x="44" y="22" width="3513" height="2543"/></clipPath><clipPath id="clip59"><rect x="44" y="22" width="3513" height="2543"/></clipPath><clipPath id="clip60"><rect x="44" y="22" width="3513" height="2543"/></clipPath><clipPath id="clip61"><rect x="44" y="22" width="3513" height="2543"/></clipPath><clipPath id="clip62"><rect x="44" y="22" width="3513" height="2543"/></clipPath><clipPath id="clip63"><rect x="44" y="22" width="3513" height="2543"/></clipPath><clipPath id="clip64"><rect x="44" y="22" width="3513" height="2543"/></clipPath><clipPath id="clip65"><rect x="44" y="22" width="3513" height="2543"/></clipPath><clipPath id="clip66"><rect x="44" y="22" width="3513" height="2543"/></clipPath><clipPath id="clip67"><rect x="44" y="22" width="3513" height="2543"/></clipPath><clipPath id="clip68"><rect x="44" y="22" width="3513" height="2543"/></clipPath></defs><g clip-path="url(#clip0)" transform="translate(-43 -21)"><rect x="44" y="22" width="3514" height="2544" fill="#FFFFFF"/><g clip-path="url(#clip1)"><path d="M332.5 1995.57 3255.5 1995.57M332.5 1803.56 3255.5 1803.56M332.5 1612.55 3255.5 1612.55M332.5 1420.55 3255.5 1420.55M332.5 1228.54 3255.5 1228.54M332.5 1037.53 3255.5 1037.53M332.5 845.528 3255.5 845.528M332.5 653.522 3255.5 653.522M332.5 461.515 3255.5 461.515M332.5 270.5 3255.5 270.5" stroke="#D9D9D9" stroke-width="3.4375" stroke-linejoin="round" stroke-miterlimit="10" fill="none"/></g><g clip-path="url(#clip2)"><path d="M405.013 2127.07 470.015 2127.07 470.015 2187 405.013 2187ZM697.023 1804.06 762.025 1804.06 762.025 2187 697.023 2187ZM989.032 2121.07 1055.03 2121.07 1055.03 2187 989.032 2187ZM1281.04 1729.06 1347.04 1729.06 1347.04 2187 1281.04 2187ZM1573.05 2089.07 1639.05 2089.07 1639.05 2187 1573.05 2187ZM1866.06 1254.04 1931.06 1254.04 1931.06 2187 1866.06 2187ZM2158.07 1981.07 2223.07 1981.07 2223.07 2187 2158.07 2187ZM2450.08 762.025 2516.08 762.025 2516.08 2187 2450.08 2187ZM2742.09 1861.06 2808.09 1861.06 2808.09 2187 2742.09 2187ZM3035.1 622.02 3100.1 622.02 3100.1 2187 3035.1 2187Z" fill="#4F81BD"/></g><g clip-path="url(#clip3)"><path d="M488.016 2113.07 553.018 2113.07 553.018 2187 488.016 2187ZM780.026 1804.06 846.028 1804.06 846.028 2187 780.026 2187ZM1072.04 2106.07 1138.04 2106.07 1138.04 2187 1072.04 2187ZM1364.04 1740.06 1430.05 1740.06 1430.05 2187 1364.04 2187ZM1657.05 2066.07 1722.06 2066.07 1722.06 2187 1657.05 2187ZM1949.06 1499.05 2014.07 1499.05 2014.07 2187 1949.06 2187ZM2241.07 1922.06 2307.08 1922.06 2307.08 2187 2241.07 2187ZM2533.08 661.022 2599.09 661.022 2599.09 2187 2533.08 2187ZM2826.09 1745.06 2891.09 1745.06 2891.09 2187 2826.09 2187ZM3118.1 382.013 3183.1 382.013 3183.1 2187 3118.1 2187Z" fill="#C0504D"/></g><g clip-path="url(#clip4)"><path d="M332.5 2187.5 3255.5 2187.5" stroke="#D9D9D9" stroke-width="3.4375" stroke-linejoin="round" stroke-miterlimit="10" fill="none" fill-rule="evenodd"/></g><g clip-path="url(#clip5)"><path d="M332.5 2187.5 3255.5 2187.5" stroke="#D9D9D9" stroke-width="3.4375" stroke-linejoin="round" stroke-miterlimit="10" fill="none" fill-rule="evenodd"/></g><g clip-path="url(#clip6)"><path d="M332.5 2187.5 3255.5 2187.5" stroke="#D9D9D9" stroke-width="3.4375" stroke-linejoin="round" stroke-miterlimit="10" fill="none" fill-rule="evenodd"/></g><g clip-path="url(#clip7)"><path d="M332.5 2187.5 332.5 2250.5M332.5 2187.5 332.5 2250.5M625.521 2187.5 625.521 2250.5M625.521 2187.5 625.521 2250.5M917.53 2187.5 917.53 2250.5M917.53 2187.5 917.53 2250.5M1209.54 2187.5 1209.54 2250.5M1209.54 2187.5 1209.54 2250.5M1501.55 2187.5 1501.55 2250.5M1501.55 2187.5 1501.55 2250.5M1793.56 2187.5 1793.56 2250.5M1793.56 2187.5 1793.56 2250.5M2086.57 2187.5 2086.57 2250.5M2086.57 2187.5 2086.57 2250.5M2378.58 2187.5 2378.58 2250.5M2378.58 2187.5 2378.58 2250.5M2670.59 2187.5 2670.59 2250.5M2670.59 2187.5 2670.59 2250.5M2962.6 2187.5 2962.6 2250.5M2962.6 2187.5 2962.6 2250.5M3255.5 2187.5 3255.5 2250.5M3255.5 2187.5 3255.5 2250.5" stroke="#D9D9D9" stroke-width="3.4375" stroke-linejoin="round" stroke-miterlimit="10" fill="none"/></g><g clip-path="url(#clip8)"><text fill="#595959" font-family="Calibri,Calibri_MSFontService,sans-serif" font-weight="400" font-size="41" transform="matrix(1 0 0 1 414.23 2230)">pytorch</text></g><g clip-path="url(#clip9)"><text fill="#595959" font-family="Calibri,Calibri_MSFontService,sans-serif" font-weight="400" font-size="41" transform="matrix(1 0 0 1 680.392 2230)">tensorflow</text></g><g clip-path="url(#clip10)"><text fill="#595959" font-family="Calibri,Calibri_MSFontService,sans-serif" font-weight="400" font-size="41" transform="matrix(1 0 0 1 998.712 2230)">pytorch</text></g><g clip-path="url(#clip11)"><text fill="#595959" font-family="Calibri,Calibri_MSFontService,sans-serif" font-weight="400" font-size="41" transform="matrix(1 0 0 1 1264.87 2230)">tensorflow</text></g><g clip-path="url(#clip12)"><text fill="#595959" font-family="Calibri,Calibri_MSFontService,sans-serif" font-weight="400" font-size="41" transform="matrix(1 0 0 1 1583.19 2230)">pytorch</text></g><g clip-path="url(#clip13)"><text fill="#595959" font-family="Calibri,Calibri_MSFontService,sans-serif" font-weight="400" font-size="41" transform="matrix(1 0 0 1 1849.36 2230)">tensorflow</text></g><g clip-path="url(#clip14)"><text fill="#595959" font-family="Calibri,Calibri_MSFontService,sans-serif" font-weight="400" font-size="41" transform="matrix(1 0 0 1 2167.68 2230)">pytorch</text></g><g clip-path="url(#clip15)"><text fill="#595959" font-family="Calibri,Calibri_MSFontService,sans-serif" font-weight="400" font-size="41" transform="matrix(1 0 0 1 2433.84 2230)">tensorflow</text></g><g clip-path="url(#clip16)"><text fill="#595959" font-family="Calibri,Calibri_MSFontService,sans-serif" font-weight="400" font-size="41" transform="matrix(1 0 0 1 2752.16 2230)">pytorch</text></g><g clip-path="url(#clip17)"><text fill="#595959" font-family="Calibri,Calibri_MSFontService,sans-serif" font-weight="400" font-size="41" transform="matrix(1 0 0 1 3018.32 2230)">tensorflow</text></g><g clip-path="url(#clip18)"><path d="M332.5 2250.5 332.5 2314.5M917.53 2250.5 917.53 2314.5M1501.55 2250.5 1501.55 2314.5M2086.57 2250.5 2086.57 2314.5M2670.59 2250.5 2670.59 2314.5M3255.5 2250.5 3255.5 2314.5" stroke="#D9D9D9" stroke-width="3.4375" stroke-linejoin="round" stroke-miterlimit="10" fill="none"/></g><g clip-path="url(#clip19)"><text fill="#595959" font-family="Calibri,Calibri_MSFontService,sans-serif" font-weight="400" font-size="41" transform="matrix(1 0 0 1 604.168 2294)">20</text></g><g clip-path="url(#clip20)"><text fill="#595959" font-family="Calibri,Calibri_MSFontService,sans-serif" font-weight="400" font-size="41" transform="matrix(1 0 0 1 1188.65 2294)">32</text></g><g clip-path="url(#clip21)"><text fill="#595959" font-family="Calibri,Calibri_MSFontService,sans-serif" font-weight="400" font-size="41" transform="matrix(1 0 0 1 1762.68 2294)">128</text></g><g clip-path="url(#clip22)"><text fill="#595959" font-family="Calibri,Calibri_MSFontService,sans-serif" font-weight="400" font-size="41" transform="matrix(1 0 0 1 2347.16 2294)">384</text></g><g clip-path="url(#clip23)"><text fill="#595959" font-family="Calibri,Calibri_MSFontService,sans-serif" font-weight="400" font-size="41" transform="matrix(1 0 0 1 2931.64 2294)">512</text></g><g clip-path="url(#clip24)"><path d="M121.5 2314.5 3255.5 2314.5M121.5 2314.5 121.5 2379.5M332.511 2314.5 332.511 2379.5M332.511 2314.5 332.511 2379.5M625.521 2314.5 625.521 2379.5M625.521 2314.5 625.521 2379.5M917.53 2314.5 917.53 2379.5M917.53 2314.5 917.53 2379.5M1209.54 2314.5 1209.54 2379.5M1209.54 2314.5 1209.54 2379.5M1501.55 2314.5 1501.55 2379.5M1501.55 2314.5 1501.55 2379.5M1793.56 2314.5 1793.56 2379.5M1793.56 2314.5 1793.56 2379.5M2086.57 2314.5 2086.57 2379.5M2086.57 2314.5 2086.57 2379.5M2378.58 2314.5 2378.58 2379.5M2378.58 2314.5 2378.58 2379.5M2670.59 2314.5 2670.59 2379.5M2670.59 2314.5 2670.59 2379.5M2962.6 2314.5 2962.6 2379.5M2962.6 2314.5 2962.6 2379.5M3255.5 2314.5 3255.5 2379.5M3255.5 2314.5 3255.5 2379.5" stroke="#D9D9D9" stroke-width="3.4375" stroke-linejoin="round" stroke-miterlimit="10" fill="none"/></g><g clip-path="url(#clip25)"><rect x="137" y="2334" width="22" height="23" fill="#4F81BD"/></g><g clip-path="url(#clip26)"><text fill="#595959" font-family="Calibri,Calibri_MSFontService,sans-serif" font-weight="400" font-size="41" transform="matrix(1 0 0 1 168.949 2357)">phy</text></g><g clip-path="url(#clip27)"><text fill="#595959" font-family="Calibri,Calibri_MSFontService,sans-serif" font-weight="400" font-size="41" transform="matrix(1 0 0 1 458.047 2358)">16</text></g><g clip-path="url(#clip28)"><text fill="#595959" font-family="Calibri,Calibri_MSFontService,sans-serif" font-weight="400" font-size="41" transform="matrix(1 0 0 1 739.838 2358)">100</text></g><g clip-path="url(#clip29)"><text fill="#595959" font-family="Calibri,Calibri_MSFontService,sans-serif" font-weight="400" font-size="41" transform="matrix(1 0 0 1 1042.53 2358)">17</text></g><g clip-path="url(#clip30)"><text fill="#595959" font-family="Calibri,Calibri_MSFontService,sans-serif" font-weight="400" font-size="41" transform="matrix(1 0 0 1 1324.32 2358)">120</text></g><g clip-path="url(#clip31)"><text fill="#595959" font-family="Calibri,Calibri_MSFontService,sans-serif" font-weight="400" font-size="41" transform="matrix(1 0 0 1 1627.01 2358)">26</text></g><g clip-path="url(#clip32)"><text fill="#595959" font-family="Calibri,Calibri_MSFontService,sans-serif" font-weight="400" font-size="41" transform="matrix(1 0 0 1 1908.8 2358)">243</text></g><g clip-path="url(#clip33)"><text fill="#595959" font-family="Calibri,Calibri_MSFontService,sans-serif" font-weight="400" font-size="41" transform="matrix(1 0 0 1 2211.49 2358)">54</text></g><g clip-path="url(#clip34)"><text fill="#595959" font-family="Calibri,Calibri_MSFontService,sans-serif" font-weight="400" font-size="41" transform="matrix(1 0 0 1 2493.28 2358)">372</text></g><g clip-path="url(#clip35)"><text fill="#595959" font-family="Calibri,Calibri_MSFontService,sans-serif" font-weight="400" font-size="41" transform="matrix(1 0 0 1 2795.97 2358)">85</text></g><g clip-path="url(#clip36)"><text fill="#595959" font-family="Calibri,Calibri_MSFontService,sans-serif" font-weight="400" font-size="41" transform="matrix(1 0 0 1 3077.77 2358)">408</text></g><g clip-path="url(#clip37)"><path d="M121.5 2379.5 3255.5 2379.5M121.5 2379.5 121.5 2445.5M121.5 2445.5 3255.5 2445.5M332.511 2379.5 332.511 2445.5M332.511 2379.5 332.511 2445.5M625.521 2379.5 625.521 2445.5M625.521 2379.5 625.521 2445.5M917.53 2379.5 917.53 2445.5M917.53 2379.5 917.53 2445.5M1209.54 2379.5 1209.54 2445.5M1209.54 2379.5 1209.54 2445.5M1501.55 2379.5 1501.55 2445.5M1501.55 2379.5 1501.55 2445.5M1793.56 2379.5 1793.56 2445.5M1793.56 2379.5 1793.56 2445.5M2086.57 2379.5 2086.57 2445.5M2086.57 2379.5 2086.57 2445.5M2378.58 2379.5 2378.58 2445.5M2378.58 2379.5 2378.58 2445.5M2670.59 2379.5 2670.59 2445.5M2670.59 2379.5 2670.59 2445.5M2962.6 2379.5 2962.6 2445.5M2962.6 2379.5 2962.6 2445.5M3255.5 2379.5 3255.5 2445.5M3255.5 2379.5 3255.5 2445.5" stroke="#D9D9D9" stroke-width="3.4375" stroke-linejoin="round" stroke-miterlimit="10" fill="none"/></g><g clip-path="url(#clip38)"><rect x="137" y="2400" width="22" height="23" fill="#C0504D"/></g><g clip-path="url(#clip39)"><text fill="#595959" font-family="Calibri,Calibri_MSFontService,sans-serif" font-weight="400" font-size="41" transform="matrix(1 0 0 1 168.949 2423)">phy + log</text></g><g clip-path="url(#clip40)"><text fill="#595959" font-family="Calibri,Calibri_MSFontService,sans-serif" font-weight="400" font-size="41" transform="matrix(1 0 0 1 458.047 2424)">19</text></g><g clip-path="url(#clip41)"><text fill="#595959" font-family="Calibri,Calibri_MSFontService,sans-serif" font-weight="400" font-size="41" transform="matrix(1 0 0 1 739.838 2424)">100</text></g><g clip-path="url(#clip42)"><text fill="#595959" font-family="Calibri,Calibri_MSFontService,sans-serif" font-weight="400" font-size="41" transform="matrix(1 0 0 1 1042.53 2424)">21</text></g><g clip-path="url(#clip43)"><text fill="#595959" font-family="Calibri,Calibri_MSFontService,sans-serif" font-weight="400" font-size="41" transform="matrix(1 0 0 1 1324.32 2424)">117</text></g><g clip-path="url(#clip44)"><text fill="#595959" font-family="Calibri,Calibri_MSFontService,sans-serif" font-weight="400" font-size="41" transform="matrix(1 0 0 1 1627.01 2424)">32</text></g><g clip-path="url(#clip45)"><text fill="#595959" font-family="Calibri,Calibri_MSFontService,sans-serif" font-weight="400" font-size="41" transform="matrix(1 0 0 1 1908.8 2424)">180</text></g><g clip-path="url(#clip46)"><text fill="#595959" font-family="Calibri,Calibri_MSFontService,sans-serif" font-weight="400" font-size="41" transform="matrix(1 0 0 1 2211.49 2424)">69</text></g><g clip-path="url(#clip47)"><text fill="#595959" font-family="Calibri,Calibri_MSFontService,sans-serif" font-weight="400" font-size="41" transform="matrix(1 0 0 1 2493.28 2424)">398</text></g><g clip-path="url(#clip48)"><text fill="#595959" font-family="Calibri,Calibri_MSFontService,sans-serif" font-weight="400" font-size="41" transform="matrix(1 0 0 1 2785.52 2424)">115</text></g><g clip-path="url(#clip49)"><text fill="#595959" font-family="Calibri,Calibri_MSFontService,sans-serif" font-weight="400" font-size="41" transform="matrix(1 0 0 1 3077.77 2424)">471</text></g><g clip-path="url(#clip50)"><text fill="#595959" font-family="Calibri,Calibri_MSFontService,sans-serif" font-weight="400" font-size="41" transform="matrix(1 0 0 1 273.66 2199)">0</text></g><g clip-path="url(#clip51)"><text fill="#595959" font-family="Calibri,Calibri_MSFontService,sans-serif" font-weight="400" font-size="41" transform="matrix(1 0 0 1 252.76 2007)">50</text></g><g clip-path="url(#clip52)"><text fill="#595959" font-family="Calibri,Calibri_MSFontService,sans-serif" font-weight="400" font-size="41" transform="matrix(1 0 0 1 231.86 1815)">100</text></g><g clip-path="url(#clip53)"><text fill="#595959" font-family="Calibri,Calibri_MSFontService,sans-serif" font-weight="400" font-size="41" transform="matrix(1 0 0 1 231.86 1624)">150</text></g><g clip-path="url(#clip54)"><text fill="#595959" font-family="Calibri,Calibri_MSFontService,sans-serif" font-weight="400" font-size="41" transform="matrix(1 0 0 1 231.86 1432)">200</text></g><g clip-path="url(#clip55)"><text fill="#595959" font-family="Calibri,Calibri_MSFontService,sans-serif" font-weight="400" font-size="41" transform="matrix(1 0 0 1 231.86 1240)">250</text></g><g clip-path="url(#clip56)"><text fill="#595959" font-family="Calibri,Calibri_MSFontService,sans-serif" font-weight="400" font-size="41" transform="matrix(1 0 0 1 231.86 1049)">300</text></g><g clip-path="url(#clip57)"><text fill="#595959" font-family="Calibri,Calibri_MSFontService,sans-serif" font-weight="400" font-size="41" transform="matrix(1 0 0 1 231.86 857)">350</text></g><g clip-path="url(#clip58)"><text fill="#595959" font-family="Calibri,Calibri_MSFontService,sans-serif" font-weight="400" font-size="41" transform="matrix(1 0 0 1 231.86 665)">400</text></g><g clip-path="url(#clip59)"><text fill="#595959" font-family="Calibri,Calibri_MSFontService,sans-serif" font-weight="400" font-size="41" transform="matrix(1 0 0 1 231.86 474)">450</text></g><g clip-path="url(#clip60)"><text fill="#595959" font-family="Calibri,Calibri_MSFontService,sans-serif" font-weight="400" font-size="41" transform="matrix(1 0 0 1 231.86 282)">500</text></g><g clip-path="url(#clip61)"><text fill="#595959" font-family="Calibri,Calibri_MSFontService,sans-serif" font-weight="400" font-size="46" transform="matrix(6.12323e-17 -1 1 6.12323e-17 145.292 1347)">Latency (ms)</text></g><g clip-path="url(#clip62)"><text fill="#595959" font-family="Calibri,Calibri_MSFontService,sans-serif" font-weight="400" font-size="46" transform="matrix(1 0 0 1 1634.71 2497)">Sequence Length</text></g><g clip-path="url(#clip63)"><text fill="#595959" font-family="Calibri,Calibri_MSFontService,sans-serif" font-weight="400" font-size="64" transform="matrix(1 0 0 1 515.396 117)">Impact of using physical &amp; logical cores against using only Physical cores for PyTorch and Tensorflow</text></g><g clip-path="url(#clip64)"><text fill="#595959" font-family="Calibri,Calibri_MSFontService,sans-serif" font-weight="400" font-size="64" transform="matrix(1 0 0 1 1586.45 195)">(Lower is better)</text></g><g clip-path="url(#clip65)"><rect x="3327" y="1343" width="22.9998" height="22" fill="#4F81BD"/></g><g clip-path="url(#clip66)"><text fill="#595959" font-family="Calibri,Calibri_MSFontService,sans-serif" font-weight="400" font-size="41" transform="matrix(1 0 0 1 3359.56 1366)">phy</text></g><g clip-path="url(#clip67)"><rect x="3327" y="1420" width="22.9998" height="23" fill="#C0504D"/></g><g clip-path="url(#clip68)"><text fill="#595959" font-family="Calibri,Calibri_MSFontService,sans-serif" font-weight="400" font-size="41" transform="matrix(1 0 0 1 3359.56 1443)">phy + log</text></g><rect x="44.4998" y="22.4998" width="3514" height="2544" stroke="#D9D9D9" stroke-width="3.4375" stroke-linejoin="round" stroke-miterlimit="10" fill="none"/></g></svg>