<svg width="3571" height="2114" xmlns="http://www.w3.org/2000/svg" xmlns:xlink="http://www.w3.org/1999/xlink" overflow="hidden"><defs><clipPath id="clip0"><rect x="656" y="-1" width="3571" height="2114"/></clipPath><clipPath id="clip1"><rect x="657" y="0" width="3567" height="2111"/></clipPath><clipPath id="clip2"><rect x="975" y="169" width="2920" height="1567"/></clipPath><clipPath id="clip3"><rect x="975" y="169" width="2920" height="1567"/></clipPath><linearGradient x1="1079" y1="1726.5" x2="1123" y2="1726.5" gradientUnits="userSpaceOnUse" spreadMethod="reflect" id="fill4"><stop offset="0" stop-color="#FF7101"/><stop offset="1" stop-color="#FF8F00"/></linearGradient><clipPath id="clip5"><rect x="975" y="169" width="2920" height="1567"/></clipPath><linearGradient x1="1273" y1="1726" x2="1317" y2="1726" gradientUnits="userSpaceOnUse" spreadMethod="reflect" id="fill6"><stop offset="0" stop-color="#FF7101"/><stop offset="1" stop-color="#FF8F00"/></linearGradient><clipPath id="clip7"><rect x="975" y="169" width="2920" height="1567"/></clipPath><linearGradient x1="1468" y1="1720.5" x2="1511" y2="1720.5" gradientUnits="userSpaceOnUse" spreadMethod="reflect" id="fill8"><stop offset="0" stop-color="#FF7101"/><stop offset="1" stop-color="#FF8F00"/></linearGradient><clipPath id="clip9"><rect x="975" y="169" width="2920" height="1567"/></clipPath><linearGradient x1="1662" y1="1673.5" x2="1706" y2="1673.5" gradientUnits="userSpaceOnUse" spreadMethod="reflect" id="fill10"><stop offset="0" stop-color="#FF7101"/><stop offset="1" stop-color="#FF8F00"/></linearGradient><clipPath id="clip11"><rect x="975" y="169" width="2920" height="1567"/></clipPath><linearGradient x1="1857" y1="1633" x2="1900" y2="1633" gradientUnits="userSpaceOnUse" spreadMethod="reflect" id="fill12"><stop offset="0" stop-color="#FF7101"/><stop offset="1" stop-color="#FF8F00"/></linearGradient><clipPath id="clip13"><rect x="975" y="169" width="2920" height="1567"/></clipPath><linearGradient x1="2051" y1="1725.5" x2="2095" y2="1725.5" gradientUnits="userSpaceOnUse" spreadMethod="reflect" id="fill14"><stop offset="0" stop-color="#FF7101"/><stop offset="1" stop-color="#FF8F00"/></linearGradient><clipPath id="clip15"><rect x="975" y="169" width="2920" height="1567"/></clipPath><linearGradient x1="2246" y1="1724.5" x2="2289" y2="1724.5" gradientUnits="userSpaceOnUse" spreadMethod="reflect" id="fill16"><stop offset="0" stop-color="#FF7101"/><stop offset="1" stop-color="#FF8F00"/></linearGradient><clipPath id="clip17"><rect x="975" y="169" width="2920" height="1567"/></clipPath><linearGradient x1="2440" y1="1706.5" x2="2484" y2="1706.5" gradientUnits="userSpaceOnUse" spreadMethod="reflect" id="fill18"><stop offset="0" stop-color="#FF7101"/><stop offset="1" stop-color="#FF8F00"/></linearGradient><clipPath id="clip19"><rect x="975" y="169" width="2920" height="1567"/></clipPath><linearGradient x1="2634" y1="1613" x2="2678" y2="1613" gradientUnits="userSpaceOnUse" spreadMethod="reflect" id="fill20"><stop offset="0" stop-color="#FF7101"/><stop offset="1" stop-color="#FF8F00"/></linearGradient><clipPath id="clip21"><rect x="975" y="169" width="2920" height="1567"/></clipPath><linearGradient x1="2829" y1="1528" x2="2872" y2="1528" gradientUnits="userSpaceOnUse" spreadMethod="reflect" id="fill22"><stop offset="0" stop-color="#FF7101"/><stop offset="1" stop-color="#FF8F00"/></linearGradient><clipPath id="clip23"><rect x="975" y="169" width="2920" height="1567"/></clipPath><linearGradient x1="3023" y1="1718" x2="3067" y2="1718" gradientUnits="userSpaceOnUse" spreadMethod="reflect" id="fill24"><stop offset="0" stop-color="#FF7101"/><stop offset="1" stop-color="#FF8F00"/></linearGradient><clipPath id="clip25"><rect x="975" y="169" width="2920" height="1567"/></clipPath><linearGradient x1="3218" y1="1708" x2="3261" y2="1708" gradientUnits="userSpaceOnUse" spreadMethod="reflect" id="fill26"><stop offset="0" stop-color="#FF7101"/><stop offset="1" stop-color="#FF8F00"/></linearGradient><clipPath id="clip27"><rect x="975" y="169" width="2920" height="1567"/></clipPath><linearGradient x1="3412" y1="1620" x2="3456" y2="1620" gradientUnits="userSpaceOnUse" spreadMethod="reflect" id="fill28"><stop offset="0" stop-color="#FF7101"/><stop offset="1" stop-color="#FF8F00"/></linearGradient><clipPath id="clip29"><rect x="975" y="169" width="2920" height="1567"/></clipPath><linearGradient x1="3607" y1="1337" x2="3650" y2="1337" gradientUnits="userSpaceOnUse" spreadMethod="reflect" id="fill30"><stop offset="0" stop-color="#FF7101"/><stop offset="1" stop-color="#FF8F00"/></linearGradient><clipPath id="clip31"><rect x="975" y="169" width="2920" height="1567"/></clipPath><linearGradient x1="3801" y1="1015.5" x2="3845" y2="1015.5" gradientUnits="userSpaceOnUse" spreadMethod="reflect" id="fill32"><stop offset="0" stop-color="#FF7101"/><stop offset="1" stop-color="#FF8F00"/></linearGradient><clipPath id="clip33"><rect x="657" y="0" width="3567" height="2111"/></clipPath><clipPath id="clip34"><rect x="657" y="0" width="3567" height="2111"/></clipPath><clipPath id="clip35"><rect x="657" y="0" width="3567" height="2111"/></clipPath><clipPath id="clip36"><rect x="657" y="0" width="3567" height="2111"/></clipPath><clipPath id="clip37"><rect x="657" y="0" width="3567" height="2111"/></clipPath><clipPath id="clip38"><rect x="657" y="0" width="3567" height="2111"/></clipPath><clipPath id="clip39"><rect x="657" y="0" width="3567" height="2111"/></clipPath><clipPath id="clip40"><rect x="657" y="0" width="3567" height="2111"/></clipPath><clipPath id="clip41"><rect x="657" y="0" width="3567" height="2111"/></clipPath><clipPath id="clip42"><rect x="657" y="0" width="3567" height="2111"/></clipPath><clipPath id="clip43"><rect x="657" y="0" width="3567" height="2111"/></clipPath><clipPath id="clip44"><rect x="657" y="0" width="3567" height="2111"/></clipPath><clipPath id="clip45"><rect x="657" y="0" width="3567" height="2111"/></clipPath><clipPath id="clip46"><rect x="657" y="0" width="3567" height="2111"/></clipPath><clipPath id="clip47"><rect x="657" y="0" width="3567" height="2111"/></clipPath><clipPath id="clip48"><rect x="657" y="0" width="3567" height="2111"/></clipPath><clipPath id="clip49"><rect x="657" y="0" width="3567" height="2111"/></clipPath><clipPath id="clip50"><rect x="657" y="0" width="3567" height="2111"/></clipPath><clipPath id="clip51"><rect x="657" y="0" width="3567" height="2111"/></clipPath><clipPath id="clip52"><rect x="657" y="0" width="3567" height="2111"/></clipPath><clipPath id="clip53"><rect x="657" y="0" width="3567" height="2111"/></clipPath><clipPath id="clip54"><rect x="657" y="0" width="3567" height="2111"/></clipPath><clipPath id="clip55"><rect x="657" y="0" width="3567" height="2111"/></clipPath><clipPath id="clip56"><rect x="657" y="0" width="3567" height="2111"/></clipPath><clipPath id="clip57"><rect x="657" y="0" width="3567" height="2111"/></clipPath><clipPath id="clip58"><rect x="657" y="0" width="3567" height="2111"/></clipPath><clipPath id="clip59"><rect x="657" y="0" width="3567" height="2111"/></clipPath><clipPath id="clip60"><rect x="657" y="0" width="3567" height="2111"/></clipPath><clipPath id="clip61"><rect x="657" y="0" width="3567" height="2111"/></clipPath><clipPath id="clip62"><rect x="657" y="0" width="3567" height="2111"/></clipPath><clipPath id="clip63"><rect x="657" y="0" width="3567" height="2111"/></clipPath><clipPath id="clip64"><rect x="657" y="0" width="3567" height="2111"/></clipPath><clipPath id="clip65"><rect x="657" y="0" width="3567" height="2111"/></clipPath><clipPath id="clip66"><rect x="657" y="0" width="3567" height="2111"/></clipPath><clipPath id="clip67"><rect x="657" y="0" width="3567" height="2111"/></clipPath><clipPath id="clip68"><rect x="657" y="0" width="3567" height="2111"/></clipPath><clipPath id="clip69"><rect x="657" y="0" width="3567" height="2111"/></clipPath><clipPath id="clip70"><rect x="657" y="0" width="3567" height="2111"/></clipPath><clipPath id="clip71"><rect x="657" y="0" width="3567" height="2111"/></clipPath><clipPath id="clip72"><rect x="657" y="0" width="3567" height="2111"/></clipPath><clipPath id="clip73"><rect x="657" y="0" width="3567" height="2111"/></clipPath><clipPath id="clip74"><rect x="657" y="0" width="3567" height="2111"/></clipPath><clipPath id="clip75"><rect x="657" y="0" width="3567" height="2111"/></clipPath><linearGradient x1="750" y1="1957.5" x2="773" y2="1957.5" gradientUnits="userSpaceOnUse" spreadMethod="reflect" id="fill76"><stop offset="0" stop-color="#FF7101"/><stop offset="1" stop-color="#FF8F00"/></linearGradient><clipPath id="clip77"><rect x="657" y="0" width="3567" height="2111"/></clipPath><clipPath id="clip78"><rect x="657" y="0" width="3567" height="2111"/></clipPath><clipPath id="clip79"><rect x="657" y="0" width="3567" height="2111"/></clipPath><clipPath id="clip80"><rect x="657" y="0" width="3567" height="2111"/></clipPath><clipPath id="clip81"><rect x="657" y="0" width="3567" height="2111"/></clipPath><clipPath id="clip82"><rect x="657" y="0" width="3567" height="2111"/></clipPath><clipPath id="clip83"><rect x="657" y="0" width="3567" height="2111"/></clipPath><clipPath id="clip84"><rect x="657" y="0" width="3567" height="2111"/></clipPath><clipPath id="clip85"><rect x="657" y="0" width="3567" height="2111"/></clipPath><clipPath id="clip86"><rect x="657" y="0" width="3567" height="2111"/></clipPath><clipPath id="clip87"><rect x="657" y="0" width="3567" height="2111"/></clipPath><clipPath id="clip88"><rect x="657" y="0" width="3567" height="2111"/></clipPath><clipPath id="clip89"><rect x="657" y="0" width="3567" height="2111"/></clipPath><clipPath id="clip90"><rect x="657" y="0" width="3567" height="2111"/></clipPath><clipPath id="clip91"><rect x="657" y="0" width="3567" height="2111"/></clipPath><clipPath id="clip92"><rect x="657" y="0" width="3567" height="2111"/></clipPath><clipPath id="clip93"><rect x="657" y="0" width="3567" height="2111"/></clipPath><clipPath id="clip94"><rect x="657" y="0" width="3567" height="2111"/></clipPath><clipPath id="clip95"><rect x="657" y="0" width="3567" height="2111"/></clipPath><clipPath id="clip96"><rect x="657" y="0" width="3567" height="2111"/></clipPath><clipPath id="clip97"><rect x="657" y="0" width="3567" height="2111"/></clipPath><clipPath id="clip98"><rect x="657" y="0" width="3567" height="2111"/></clipPath><clipPath id="clip99"><rect x="657" y="0" width="3567" height="2111"/></clipPath><clipPath id="clip100"><rect x="657" y="0" width="3567" height="2111"/></clipPath><clipPath id="clip101"><rect x="657" y="0" width="3567" height="2111"/></clipPath><clipPath id="clip102"><rect x="657" y="0" width="3567" height="2111"/></clipPath><clipPath id="clip103"><rect x="657" y="0" width="3567" height="2111"/></clipPath><clipPath id="clip104"><rect x="657" y="0" width="3567" height="2111"/></clipPath><clipPath id="clip105"><rect x="657" y="0" width="3567" height="2111"/></clipPath><clipPath id="clip106"><rect x="657" y="0" width="3567" height="2111"/></clipPath><clipPath id="clip107"><rect x="657" y="0" width="3567" height="2111"/></clipPath><clipPath id="clip108"><rect x="657" y="0" width="3567" height="2111"/></clipPath><clipPath id="clip109"><rect x="657" y="0" width="3567" height="2111"/></clipPath><clipPath id="clip110"><rect x="657" y="0" width="3567" height="2111"/></clipPath><linearGradient x1="3964" y1="1154" x2="3987" y2="1154" gradientUnits="userSpaceOnUse" spreadMethod="reflect" id="fill111"><stop offset="0" stop-color="#FF7101"/><stop offset="1" stop-color="#FF8F00"/></linearGradient><clipPath id="clip112"><rect x="657" y="0" width="3567" height="2111"/></clipPath></defs><g clip-path="url(#clip0)" transform="translate(-656 1)"><rect x="657" y="0" width="3568" height="2111" fill="#FFFFFF"/><g clip-path="url(#clip1)"><path d="M975.5 1559.55 3892.5 1559.55M975.5 1385.55 3892.5 1385.55M975.5 1211.54 3892.5 1211.54M975.5 1038.53 3892.5 1038.53M975.5 864.529 3892.5 864.529M975.5 690.523 3892.5 690.523M975.5 517.517 3892.5 517.517M975.5 343.511 3892.5 343.511M975.5 169.5 3892.5 169.5" stroke="#D9D9D9" stroke-width="3.4375" stroke-linejoin="round" stroke-miterlimit="10" fill="none"/></g><g clip-path="url(#clip2)"><path d="M1024.03 1727.06 1067.04 1727.06 1067.04 1733 1024.03 1733ZM1218.04 1727.06 1262.04 1727.06 1262.04 1733 1218.04 1733ZM1412.05 1726.06 1456.05 1726.06 1456.05 1733 1412.05 1733ZM1607.05 1694.06 1650.05 1694.06 1650.05 1733 1607.05 1733ZM1801.06 1708.06 1845.06 1708.06 1845.06 1733 1801.06 1733ZM1996.07 1727.06 2039.07 1727.06 2039.07 1733 1996.07 1733ZM2190.07 1727.06 2234.07 1727.06 2234.07 1733 2190.07 1733ZM2385.08 1720.06 2428.08 1720.06 2428.08 1733 2385.08 1733ZM2579.08 1704.06 2623.09 1704.06 2623.09 1733 2579.08 1733ZM2773.09 1690.06 2817.09 1690.06 2817.09 1733 2773.09 1733ZM2968.1 1725.06 3011.1 1725.06 3011.1 1733 2968.1 1733ZM3162.1 1721.06 3206.1 1721.06 3206.1 1733 3162.1 1733ZM3357.11 1684.06 3400.11 1684.06 3400.11 1733 3357.11 1733ZM3551.12 1386.05 3595.12 1386.05 3595.12 1733 3551.12 1733ZM3746.12 1213.04 3789.12 1213.04 3789.12 1733 3746.12 1733Z" fill="#C00000"/></g><g clip-path="url(#clip3)"><rect x="1079" y="1720" width="44" height="12.9998" fill="url(#fill4)"/></g><g clip-path="url(#clip5)"><rect x="1273" y="1719" width="44" height="13.9998" fill="url(#fill6)"/></g><g clip-path="url(#clip7)"><rect x="1468" y="1708" width="43" height="24.9998" fill="url(#fill8)"/></g><g clip-path="url(#clip9)"><rect x="1662" y="1614" width="44" height="119" fill="url(#fill10)"/></g><g clip-path="url(#clip11)"><rect x="1857" y="1533" width="43" height="200" fill="url(#fill12)"/></g><g clip-path="url(#clip13)"><rect x="2051" y="1718" width="44" height="14.9998" fill="url(#fill14)"/></g><g clip-path="url(#clip15)"><rect x="2246" y="1716" width="43" height="16.9999" fill="url(#fill16)"/></g><g clip-path="url(#clip17)"><rect x="2440" y="1680" width="44" height="52.9999" fill="url(#fill18)"/></g><g clip-path="url(#clip19)"><rect x="2634" y="1493" width="44" height="240" fill="url(#fill20)"/></g><g clip-path="url(#clip21)"><rect x="2829" y="1323" width="43" height="410" fill="url(#fill22)"/></g><g clip-path="url(#clip23)"><rect x="3023" y="1703" width="44" height="29.9999" fill="url(#fill24)"/></g><g clip-path="url(#clip25)"><rect x="3218" y="1683" width="43.0002" height="49.9999" fill="url(#fill26)"/></g><g clip-path="url(#clip27)"><rect x="3412" y="1507" width="44" height="226" fill="url(#fill28)"/></g><g clip-path="url(#clip29)"><rect x="3607" y="941" width="43" height="792" fill="url(#fill30)"/></g><g clip-path="url(#clip31)"><rect x="3801" y="298" width="44" height="1435" fill="url(#fill32)"/></g><g clip-path="url(#clip33)"><path d="M975.5 1732.5 3892.5 1732.5" stroke="#D9D9D9" stroke-width="3.4375" stroke-linejoin="round" stroke-miterlimit="10" fill="none" fill-rule="evenodd"/></g><g clip-path="url(#clip34)"><path d="M975.5 1732.5 3892.5 1732.5" stroke="#D9D9D9" stroke-width="3.4375" stroke-linejoin="round" stroke-miterlimit="10" fill="none" fill-rule="evenodd"/></g><g clip-path="url(#clip35)"><path d="M975.5 1732.5 3892.5 1732.5" stroke="#D9D9D9" stroke-width="3.4375" stroke-linejoin="round" stroke-miterlimit="10" fill="none" fill-rule="evenodd"/></g><g clip-path="url(#clip36)"><path d="M975.5 1732.5 975.5 1796.5M975.5 1732.5 975.5 1796.5M1170.54 1732.5 1170.54 1796.5M1170.54 1732.5 1170.54 1796.5M1364.54 1732.5 1364.54 1796.5M1364.54 1732.5 1364.54 1796.5M1559.55 1732.5 1559.55 1796.5M1559.55 1732.5 1559.55 1796.5M1753.56 1732.5 1753.56 1796.5M1753.56 1732.5 1753.56 1796.5M1947.56 1732.5 1947.56 1796.5M1947.56 1732.5 1947.56 1796.5M2142.57 1732.5 2142.57 1796.5M2142.57 1732.5 2142.57 1796.5M2336.58 1732.5 2336.58 1796.5M2336.58 1732.5 2336.58 1796.5M2531.58 1732.5 2531.58 1796.5M2531.58 1732.5 2531.58 1796.5M2725.59 1732.5 2725.59 1796.5M2725.59 1732.5 2725.59 1796.5M2920.6 1732.5 2920.6 1796.5M2920.6 1732.5 2920.6 1796.5M3114.6 1732.5 3114.6 1796.5M3114.6 1732.5 3114.6 1796.5M3308.61 1732.5 3308.61 1796.5M3308.61 1732.5 3308.61 1796.5M3503.61 1732.5 3503.61 1796.5M3503.61 1732.5 3503.61 1796.5M3697.62 1732.5 3697.62 1796.5M3697.62 1732.5 3697.62 1796.5M3892.5 1732.5 3892.5 1796.5M3892.5 1732.5 3892.5 1796.5" stroke="#D9D9D9" stroke-width="3.4375" stroke-linejoin="round" stroke-miterlimit="10" fill="none"/></g><g clip-path="url(#clip37)"><text fill="#595959" font-family="Calibri,Calibri_MSFontService,sans-serif" font-weight="400" font-size="41" transform="matrix(1 0 0 1 1052.14 1776)">20</text></g><g clip-path="url(#clip38)"><text fill="#595959" font-family="Calibri,Calibri_MSFontService,sans-serif" font-weight="400" font-size="41" transform="matrix(1 0 0 1 1246.58 1776)">32</text></g><g clip-path="url(#clip39)"><text fill="#595959" font-family="Calibri,Calibri_MSFontService,sans-serif" font-weight="400" font-size="41" transform="matrix(1 0 0 1 1430.56 1776)">128</text></g><g clip-path="url(#clip40)"><text fill="#595959" font-family="Calibri,Calibri_MSFontService,sans-serif" font-weight="400" font-size="41" transform="matrix(1 0 0 1 1625 1776)">384</text></g><g clip-path="url(#clip41)"><text fill="#595959" font-family="Calibri,Calibri_MSFontService,sans-serif" font-weight="400" font-size="41" transform="matrix(1 0 0 1 1819.44 1776)">512</text></g><g clip-path="url(#clip42)"><text fill="#595959" font-family="Calibri,Calibri_MSFontService,sans-serif" font-weight="400" font-size="41" transform="matrix(1 0 0 1 2024.32 1776)">20</text></g><g clip-path="url(#clip43)"><text fill="#595959" font-family="Calibri,Calibri_MSFontService,sans-serif" font-weight="400" font-size="41" transform="matrix(1 0 0 1 2218.76 1776)">32</text></g><g clip-path="url(#clip44)"><text fill="#595959" font-family="Calibri,Calibri_MSFontService,sans-serif" font-weight="400" font-size="41" transform="matrix(1 0 0 1 2402.74 1776)">128</text></g><g clip-path="url(#clip45)"><text fill="#595959" font-family="Calibri,Calibri_MSFontService,sans-serif" font-weight="400" font-size="41" transform="matrix(1 0 0 1 2597.18 1776)">384</text></g><g clip-path="url(#clip46)"><text fill="#595959" font-family="Calibri,Calibri_MSFontService,sans-serif" font-weight="400" font-size="41" transform="matrix(1 0 0 1 2791.62 1776)">512</text></g><g clip-path="url(#clip47)"><text fill="#595959" font-family="Calibri,Calibri_MSFontService,sans-serif" font-weight="400" font-size="41" transform="matrix(1 0 0 1 2996.5 1776)">20</text></g><g clip-path="url(#clip48)"><text fill="#595959" font-family="Calibri,Calibri_MSFontService,sans-serif" font-weight="400" font-size="41" transform="matrix(1 0 0 1 3190.94 1776)">32</text></g><g clip-path="url(#clip49)"><text fill="#595959" font-family="Calibri,Calibri_MSFontService,sans-serif" font-weight="400" font-size="41" transform="matrix(1 0 0 1 3374.92 1776)">128</text></g><g clip-path="url(#clip50)"><text fill="#595959" font-family="Calibri,Calibri_MSFontService,sans-serif" font-weight="400" font-size="41" transform="matrix(1 0 0 1 3569.36 1776)">384</text></g><g clip-path="url(#clip51)"><text fill="#595959" font-family="Calibri,Calibri_MSFontService,sans-serif" font-weight="400" font-size="41" transform="matrix(1 0 0 1 3763.8 1776)">512</text></g><g clip-path="url(#clip52)"><path d="M975.5 1796.5 975.5 1859.5M1947.56 1796.5 1947.56 1859.5M2920.6 1796.5 2920.6 1859.5M3892.5 1796.5 3892.5 1859.5" stroke="#D9D9D9" stroke-width="3.4375" stroke-linejoin="round" stroke-miterlimit="10" fill="none"/></g><g clip-path="url(#clip53)"><text fill="#595959" font-family="Calibri,Calibri_MSFontService,sans-serif" font-weight="400" font-size="41" transform="matrix(1 0 0 1 1441.01 1839)">16</text></g><g clip-path="url(#clip54)"><text fill="#595959" font-family="Calibri,Calibri_MSFontService,sans-serif" font-weight="400" font-size="41" transform="matrix(1 0 0 1 2413.19 1839)">32</text></g><g clip-path="url(#clip55)"><text fill="#595959" font-family="Calibri,Calibri_MSFontService,sans-serif" font-weight="400" font-size="41" transform="matrix(1 0 0 1 3374.92 1839)">128</text></g><g clip-path="url(#clip56)"><path d="M735.5 1859.5 3892.5 1859.5M735.5 1859.5 735.5 1925.5M975.532 1859.5 975.532 1925.5M975.532 1859.5 975.532 1925.5M1170.54 1859.5 1170.54 1925.5M1170.54 1859.5 1170.54 1925.5M1364.54 1859.5 1364.54 1925.5M1364.54 1859.5 1364.54 1925.5M1559.55 1859.5 1559.55 1925.5M1559.55 1859.5 1559.55 1925.5M1753.56 1859.5 1753.56 1925.5M1753.56 1859.5 1753.56 1925.5M1947.56 1859.5 1947.56 1925.5M1947.56 1859.5 1947.56 1925.5M2142.57 1859.5 2142.57 1925.5M2142.57 1859.5 2142.57 1925.5M2336.58 1859.5 2336.58 1925.5M2336.58 1859.5 2336.58 1925.5M2531.58 1859.5 2531.58 1925.5M2531.58 1859.5 2531.58 1925.5M2725.59 1859.5 2725.59 1925.5M2725.59 1859.5 2725.59 1925.5M2920.6 1859.5 2920.6 1925.5M2920.6 1859.5 2920.6 1925.5M3114.6 1859.5 3114.6 1925.5M3114.6 1859.5 3114.6 1925.5M3308.61 1859.5 3308.61 1925.5M3308.61 1859.5 3308.61 1925.5M3503.62 1859.5 3503.62 1925.5M3503.62 1859.5 3503.62 1925.5M3697.62 1859.5 3697.62 1925.5M3697.62 1859.5 3697.62 1925.5M3892.5 1859.5 3892.5 1925.5M3892.5 1859.5 3892.5 1925.5" stroke="#D9D9D9" stroke-width="3.4375" stroke-linejoin="round" stroke-miterlimit="10" fill="none"/></g><g clip-path="url(#clip57)"><rect x="750" y="1880" width="23.0001" height="23" fill="#C00000"/></g><g clip-path="url(#clip58)"><text fill="#595959" font-family="Calibri,Calibri_MSFontService,sans-serif" font-weight="400" font-size="41" transform="matrix(1 0 0 1 782.198 1903)">pytorch</text></g><g clip-path="url(#clip59)"><text fill="#595959" font-family="Calibri,Calibri_MSFontService,sans-serif" font-weight="400" font-size="41" transform="matrix(1 0 0 1 1041.69 1904)">157</text></g><g clip-path="url(#clip60)"><text fill="#595959" font-family="Calibri,Calibri_MSFontService,sans-serif" font-weight="400" font-size="41" transform="matrix(1 0 0 1 1236.13 1904)">153</text></g><g clip-path="url(#clip61)"><text fill="#595959" font-family="Calibri,Calibri_MSFontService,sans-serif" font-weight="400" font-size="41" transform="matrix(1 0 0 1 1430.56 1904)">182</text></g><g clip-path="url(#clip62)"><text fill="#595959" font-family="Calibri,Calibri_MSFontService,sans-serif" font-weight="400" font-size="41" transform="matrix(1 0 0 1 1614.55 1904)">1106</text></g><g clip-path="url(#clip63)"><text fill="#595959" font-family="Calibri,Calibri_MSFontService,sans-serif" font-weight="400" font-size="41" transform="matrix(1 0 0 1 1819.44 1904)">716</text></g><g clip-path="url(#clip64)"><text fill="#595959" font-family="Calibri,Calibri_MSFontService,sans-serif" font-weight="400" font-size="41" transform="matrix(1 0 0 1 2013.87 1904)">151</text></g><g clip-path="url(#clip65)"><text fill="#595959" font-family="Calibri,Calibri_MSFontService,sans-serif" font-weight="400" font-size="41" transform="matrix(1 0 0 1 2208.31 1904)">161</text></g><g clip-path="url(#clip66)"><text fill="#595959" font-family="Calibri,Calibri_MSFontService,sans-serif" font-weight="400" font-size="41" transform="matrix(1 0 0 1 2402.74 1904)">376</text></g><g clip-path="url(#clip67)"><text fill="#595959" font-family="Calibri,Calibri_MSFontService,sans-serif" font-weight="400" font-size="41" transform="matrix(1 0 0 1 2597.18 1904)">820</text></g><g clip-path="url(#clip68)"><text fill="#595959" font-family="Calibri,Calibri_MSFontService,sans-serif" font-weight="400" font-size="41" transform="matrix(1 0 0 1 2781.17 1904)">1222</text></g><g clip-path="url(#clip69)"><text fill="#595959" font-family="Calibri,Calibri_MSFontService,sans-serif" font-weight="400" font-size="41" transform="matrix(1 0 0 1 2986.05 1904)">227</text></g><g clip-path="url(#clip70)"><text fill="#595959" font-family="Calibri,Calibri_MSFontService,sans-serif" font-weight="400" font-size="41" transform="matrix(1 0 0 1 3180.49 1904)">328</text></g><g clip-path="url(#clip71)"><text fill="#595959" font-family="Calibri,Calibri_MSFontService,sans-serif" font-weight="400" font-size="41" transform="matrix(1 0 0 1 3364.47 1904)">1403</text></g><g clip-path="url(#clip72)"><text fill="#595959" font-family="Calibri,Calibri_MSFontService,sans-serif" font-weight="400" font-size="41" transform="matrix(1 0 0 1 3558.91 1904)">9977</text></g><g clip-path="url(#clip73)"><text fill="#595959" font-family="Calibri,Calibri_MSFontService,sans-serif" font-weight="400" font-size="41" transform="matrix(1 0 0 1 3742.9 1904)">14966</text></g><g clip-path="url(#clip74)"><path d="M735.5 1925.5 3892.5 1925.5M735.5 1925.5 735.5 1991.5M735.5 1991.5 3892.5 1991.5M975.532 1925.5 975.532 1991.5M975.532 1925.5 975.532 1991.5M1170.54 1925.5 1170.54 1991.5M1170.54 1925.5 1170.54 1991.5M1364.54 1925.5 1364.54 1991.5M1364.54 1925.5 1364.54 1991.5M1559.55 1925.5 1559.55 1991.5M1559.55 1925.5 1559.55 1991.5M1753.56 1925.5 1753.56 1991.5M1753.56 1925.5 1753.56 1991.5M1947.56 1925.5 1947.56 1991.5M1947.56 1925.5 1947.56 1991.5M2142.57 1925.5 2142.57 1991.5M2142.57 1925.5 2142.57 1991.5M2336.58 1925.5 2336.58 1991.5M2336.58 1925.5 2336.58 1991.5M2531.58 1925.5 2531.58 1991.5M2531.58 1925.5 2531.58 1991.5M2725.59 1925.5 2725.59 1991.5M2725.59 1925.5 2725.59 1991.5M2920.6 1925.5 2920.6 1991.5M2920.6 1925.5 2920.6 1991.5M3114.6 1925.5 3114.6 1991.5M3114.6 1925.5 3114.6 1991.5M3308.61 1925.5 3308.61 1991.5M3308.61 1925.5 3308.61 1991.5M3503.62 1925.5 3503.62 1991.5M3503.62 1925.5 3503.62 1991.5M3697.62 1925.5 3697.62 1991.5M3697.62 1925.5 3697.62 1991.5M3892.5 1925.5 3892.5 1991.5M3892.5 1925.5 3892.5 1991.5" stroke="#D9D9D9" stroke-width="3.4375" stroke-linejoin="round" stroke-miterlimit="10" fill="none"/></g><g clip-path="url(#clip75)"><rect x="750" y="1946" width="23.0001" height="23" fill="url(#fill76)"/></g><g clip-path="url(#clip77)"><text fill="#595959" font-family="Calibri,Calibri_MSFontService,sans-serif" font-weight="400" font-size="41" transform="matrix(1 0 0 1 782.198 1969)">tensorflow</text></g><g clip-path="url(#clip78)"><text fill="#595959" font-family="Calibri,Calibri_MSFontService,sans-serif" font-weight="400" font-size="41" transform="matrix(1 0 0 1 1041.69 1970)">378</text></g><g clip-path="url(#clip79)"><text fill="#595959" font-family="Calibri,Calibri_MSFontService,sans-serif" font-weight="400" font-size="41" transform="matrix(1 0 0 1 1236.13 1970)">401</text></g><g clip-path="url(#clip80)"><text fill="#595959" font-family="Calibri,Calibri_MSFontService,sans-serif" font-weight="400" font-size="41" transform="matrix(1 0 0 1 1430.56 1970)">701</text></g><g clip-path="url(#clip81)"><text fill="#595959" font-family="Calibri,Calibri_MSFontService,sans-serif" font-weight="400" font-size="41" transform="matrix(1 0 0 1 1614.55 1970)">3417</text></g><g clip-path="url(#clip82)"><text fill="#595959" font-family="Calibri,Calibri_MSFontService,sans-serif" font-weight="400" font-size="41" transform="matrix(1 0 0 1 1808.99 1970)">5747</text></g><g clip-path="url(#clip83)"><text fill="#595959" font-family="Calibri,Calibri_MSFontService,sans-serif" font-weight="400" font-size="41" transform="matrix(1 0 0 1 2013.87 1970)">426</text></g><g clip-path="url(#clip84)"><text fill="#595959" font-family="Calibri,Calibri_MSFontService,sans-serif" font-weight="400" font-size="41" transform="matrix(1 0 0 1 2208.31 1970)">493</text></g><g clip-path="url(#clip85)"><text fill="#595959" font-family="Calibri,Calibri_MSFontService,sans-serif" font-weight="400" font-size="41" transform="matrix(1 0 0 1 2392.29 1970)">1518</text></g><g clip-path="url(#clip86)"><text fill="#595959" font-family="Calibri,Calibri_MSFontService,sans-serif" font-weight="400" font-size="41" transform="matrix(1 0 0 1 2586.73 1970)">6905</text></g><g clip-path="url(#clip87)"><text fill="#595959" font-family="Calibri,Calibri_MSFontService,sans-serif" font-weight="400" font-size="41" transform="matrix(1 0 0 1 2770.72 1970)">11800</text></g><g clip-path="url(#clip88)"><text fill="#595959" font-family="Calibri,Calibri_MSFontService,sans-serif" font-weight="400" font-size="41" transform="matrix(1 0 0 1 2986.05 1970)">855</text></g><g clip-path="url(#clip89)"><text fill="#595959" font-family="Calibri,Calibri_MSFontService,sans-serif" font-weight="400" font-size="41" transform="matrix(1 0 0 1 3170.04 1970)">1434</text></g><g clip-path="url(#clip90)"><text fill="#595959" font-family="Calibri,Calibri_MSFontService,sans-serif" font-weight="400" font-size="41" transform="matrix(1 0 0 1 3364.47 1970)">6513</text></g><g clip-path="url(#clip91)"><text fill="#595959" font-family="Calibri,Calibri_MSFontService,sans-serif" font-weight="400" font-size="41" transform="matrix(1 0 0 1 3548.46 1970)">22800</text></g><g clip-path="url(#clip92)"><text fill="#595959" font-family="Calibri,Calibri_MSFontService,sans-serif" font-weight="400" font-size="41" transform="matrix(1 0 0 1 3742.9 1970)">41311</text></g><g clip-path="url(#clip93)"><text fill="#595959" font-family="Calibri,Calibri_MSFontService,sans-serif" font-weight="400" font-size="41" transform="matrix(1 0 0 1 916.656 1744)">0</text></g><g clip-path="url(#clip94)"><text fill="#595959" font-family="Calibri,Calibri_MSFontService,sans-serif" font-weight="400" font-size="41" transform="matrix(1 0 0 1 853.956 1571)">5000</text></g><g clip-path="url(#clip95)"><text fill="#595959" font-family="Calibri,Calibri_MSFontService,sans-serif" font-weight="400" font-size="41" transform="matrix(1 0 0 1 833.056 1397)">10000</text></g><g clip-path="url(#clip96)"><text fill="#595959" font-family="Calibri,Calibri_MSFontService,sans-serif" font-weight="400" font-size="41" transform="matrix(1 0 0 1 833.056 1223)">15000</text></g><g clip-path="url(#clip97)"><text fill="#595959" font-family="Calibri,Calibri_MSFontService,sans-serif" font-weight="400" font-size="41" transform="matrix(1 0 0 1 833.056 1050)">20000</text></g><g clip-path="url(#clip98)"><text fill="#595959" font-family="Calibri,Calibri_MSFontService,sans-serif" font-weight="400" font-size="41" transform="matrix(1 0 0 1 833.056 876)">25000</text></g><g clip-path="url(#clip99)"><text fill="#595959" font-family="Calibri,Calibri_MSFontService,sans-serif" font-weight="400" font-size="41" transform="matrix(1 0 0 1 833.056 702)">30000</text></g><g clip-path="url(#clip100)"><text fill="#595959" font-family="Calibri,Calibri_MSFontService,sans-serif" font-weight="400" font-size="41" transform="matrix(1 0 0 1 833.056 529)">35000</text></g><g clip-path="url(#clip101)"><text fill="#595959" font-family="Calibri,Calibri_MSFontService,sans-serif" font-weight="400" font-size="41" transform="matrix(1 0 0 1 833.056 355)">40000</text></g><g clip-path="url(#clip102)"><text fill="#595959" font-family="Calibri,Calibri_MSFontService,sans-serif" font-weight="400" font-size="41" transform="matrix(1 0 0 1 833.056 182)">45000</text></g><g clip-path="url(#clip103)"><text fill="#595959" font-family="Calibri,Calibri_MSFontService,sans-serif" font-weight="400" font-size="46" transform="matrix(6.12323e-17 -1 1 6.12323e-17 758.542 1069)">Latency (ms)</text></g><g clip-path="url(#clip104)"><text fill="#595959" font-family="Calibri,Calibri_MSFontService,sans-serif" font-weight="400" font-size="46" transform="matrix(1 0 0 1 2162.86 2042)">Batch size / Sequence Length</text></g><g clip-path="url(#clip105)"><text fill="#595959" font-family="Calibri,Calibri_MSFontService,sans-serif" font-weight="400" font-size="64" transform="matrix(1 0 0 1 1137.9 95)">PyTorch &amp; TensorFlow Eager </text></g><g clip-path="url(#clip106)"><text fill="#595959" font-family="Calibri,Calibri_MSFontService,sans-serif" font-weight="400" font-size="64" transform="matrix(1 0 0 1 1885.08 95)">-</text></g><g clip-path="url(#clip107)"><text fill="#595959" font-family="Calibri,Calibri_MSFontService,sans-serif" font-weight="400" font-size="64" transform="matrix(1 0 0 1 1919.22 95)">Latency measurement for big batch size and default threading settings </text></g><g clip-path="url(#clip108)"><rect x="3964" y="1065" width="23" height="23" fill="#C00000"/></g><g clip-path="url(#clip109)"><text fill="#595959" font-family="Calibri,Calibri_MSFontService,sans-serif" font-weight="400" font-size="41" transform="matrix(1 0 0 1 3996.69 1088)">pytorch</text></g><g clip-path="url(#clip110)"><rect x="3964" y="1143" width="23" height="22" fill="url(#fill111)"/></g><g clip-path="url(#clip112)"><text fill="#595959" font-family="Calibri,Calibri_MSFontService,sans-serif" font-weight="400" font-size="41" transform="matrix(1 0 0 1 3996.69 1166)">tensorflow</text></g><rect x="657.5" y="0.499836" width="3568" height="2111" stroke="#D9D9D9" stroke-width="3.4375" stroke-linejoin="round" stroke-miterlimit="10" fill="none"/></g></svg>