<svg width="5567" height="3205" xmlns="http://www.w3.org/2000/svg" xmlns:xlink="http://www.w3.org/1999/xlink" overflow="hidden"><defs><clipPath id="clip0"><rect x="557" y="48" width="5567" height="3205"/></clipPath><clipPath id="clip1"><rect x="557" y="49" width="5564" height="3202"/></clipPath><clipPath id="clip2"><rect x="800" y="514" width="5274" height="2466"/></clipPath><linearGradient x1="879.5" y1="2808" x2="879.5" y2="2977" gradientUnits="userSpaceOnUse" spreadMethod="reflect" id="fill3"><stop offset="0" stop-color="#6083CB"/><stop offset="0.5" stop-color="#3E70CA"/><stop offset="1" stop-color="#2E61BA"/></linearGradient><clipPath id="clip4"><rect x="800" y="514" width="5274" height="2466"/></clipPath><linearGradient x1="1231" y1="2876" x2="1231" y2="2977" gradientUnits="userSpaceOnUse" spreadMethod="reflect" id="fill5"><stop offset="0" stop-color="#6083CB"/><stop offset="0.5" stop-color="#3E70CA"/><stop offset="1" stop-color="#2E61BA"/></linearGradient><clipPath id="clip6"><rect x="800" y="514" width="5274" height="2466"/></clipPath><linearGradient x1="1582" y1="2883" x2="1582" y2="2977" gradientUnits="userSpaceOnUse" spreadMethod="reflect" id="fill7"><stop offset="0" stop-color="#6083CB"/><stop offset="0.5" stop-color="#3E70CA"/><stop offset="1" stop-color="#2E61BA"/></linearGradient><clipPath id="clip8"><rect x="800" y="514" width="5274" height="2466"/></clipPath><linearGradient x1="1933.5" y1="2883" x2="1933.5" y2="2977" gradientUnits="userSpaceOnUse" spreadMethod="reflect" id="fill9"><stop offset="0" stop-color="#6083CB"/><stop offset="0.5" stop-color="#3E70CA"/><stop offset="1" stop-color="#2E61BA"/></linearGradient><clipPath id="clip10"><rect x="800" y="514" width="5274" height="2466"/></clipPath><linearGradient x1="2285" y1="2883" x2="2285" y2="2977" gradientUnits="userSpaceOnUse" spreadMethod="reflect" id="fill11"><stop offset="0" stop-color="#6083CB"/><stop offset="0.5" stop-color="#3E70CA"/><stop offset="1" stop-color="#2E61BA"/></linearGradient><clipPath id="clip12"><rect x="800" y="514" width="5274" height="2466"/></clipPath><linearGradient x1="2636" y1="2606" x2="2636" y2="2977" gradientUnits="userSpaceOnUse" spreadMethod="reflect" id="fill13"><stop offset="0" stop-color="#6083CB"/><stop offset="0.5" stop-color="#3E70CA"/><stop offset="1" stop-color="#2E61BA"/></linearGradient><clipPath id="clip14"><rect x="800" y="514" width="5274" height="2466"/></clipPath><linearGradient x1="2987.5" y1="2714" x2="2987.5" y2="2977" gradientUnits="userSpaceOnUse" spreadMethod="reflect" id="fill15"><stop offset="0" stop-color="#6083CB"/><stop offset="0.5" stop-color="#3E70CA"/><stop offset="1" stop-color="#2E61BA"/></linearGradient><clipPath id="clip16"><rect x="800" y="514" width="5274" height="2466"/></clipPath><linearGradient x1="3339" y1="2701" x2="3339" y2="2977" gradientUnits="userSpaceOnUse" spreadMethod="reflect" id="fill17"><stop offset="0" stop-color="#6083CB"/><stop offset="0.5" stop-color="#3E70CA"/><stop offset="1" stop-color="#2E61BA"/></linearGradient><clipPath id="clip18"><rect x="800" y="514" width="5274" height="2466"/></clipPath><linearGradient x1="3690.5" y1="2688" x2="3690.5" y2="2977" gradientUnits="userSpaceOnUse" spreadMethod="reflect" id="fill19"><stop offset="0" stop-color="#6083CB"/><stop offset="0.5" stop-color="#3E70CA"/><stop offset="1" stop-color="#2E61BA"/></linearGradient><clipPath id="clip20"><rect x="800" y="514" width="5274" height="2466"/></clipPath><linearGradient x1="4041.5" y1="2688" x2="4041.5" y2="2977" gradientUnits="userSpaceOnUse" spreadMethod="reflect" id="fill21"><stop offset="0" stop-color="#6083CB"/><stop offset="0.5" stop-color="#3E70CA"/><stop offset="1" stop-color="#2E61BA"/></linearGradient><clipPath id="clip22"><rect x="800" y="514" width="5274" height="2466"/></clipPath><linearGradient x1="4393" y1="859" x2="4393" y2="2977" gradientUnits="userSpaceOnUse" spreadMethod="reflect" id="fill23"><stop offset="0" stop-color="#6083CB"/><stop offset="0.5" stop-color="#3E70CA"/><stop offset="1" stop-color="#2E61BA"/></linearGradient><clipPath id="clip24"><rect x="800" y="514" width="5274" height="2466"/></clipPath><linearGradient x1="4744.5" y1="1833" x2="4744.5" y2="2977" gradientUnits="userSpaceOnUse" spreadMethod="reflect" id="fill25"><stop offset="0" stop-color="#6083CB"/><stop offset="0.5" stop-color="#3E70CA"/><stop offset="1" stop-color="#2E61BA"/></linearGradient><clipPath id="clip26"><rect x="800" y="514" width="5274" height="2466"/></clipPath><linearGradient x1="5096" y1="1843" x2="5096" y2="2977" gradientUnits="userSpaceOnUse" spreadMethod="reflect" id="fill27"><stop offset="0" stop-color="#6083CB"/><stop offset="0.5" stop-color="#3E70CA"/><stop offset="1" stop-color="#2E61BA"/></linearGradient><clipPath id="clip28"><rect x="800" y="514" width="5274" height="2466"/></clipPath><linearGradient x1="5447" y1="1769" x2="5447" y2="2977" gradientUnits="userSpaceOnUse" spreadMethod="reflect" id="fill29"><stop offset="0" stop-color="#6083CB"/><stop offset="0.5" stop-color="#3E70CA"/><stop offset="1" stop-color="#2E61BA"/></linearGradient><clipPath id="clip30"><rect x="800" y="514" width="5274" height="2466"/></clipPath><linearGradient x1="5798.5" y1="1706" x2="5798.5" y2="2977" gradientUnits="userSpaceOnUse" spreadMethod="reflect" id="fill31"><stop offset="0" stop-color="#6083CB"/><stop offset="0.5" stop-color="#3E70CA"/><stop offset="1" stop-color="#2E61BA"/></linearGradient><clipPath id="clip32"><rect x="800" y="514" width="5274" height="2466"/></clipPath><linearGradient x1="976.5" y1="2795" x2="976.5" y2="2977" gradientUnits="userSpaceOnUse" spreadMethod="reflect" id="fill33"><stop offset="0" stop-color="#F18C55"/><stop offset="0.5" stop-color="#F67B28"/><stop offset="1" stop-color="#E56B17"/></linearGradient><clipPath id="clip34"><rect x="800" y="514" width="5274" height="2466"/></clipPath><linearGradient x1="1328" y1="2877" x2="1328" y2="2977" gradientUnits="userSpaceOnUse" spreadMethod="reflect" id="fill35"><stop offset="0" stop-color="#F18C55"/><stop offset="0.5" stop-color="#F67B28"/><stop offset="1" stop-color="#E56B17"/></linearGradient><clipPath id="clip36"><rect x="800" y="514" width="5274" height="2466"/></clipPath><linearGradient x1="1679.5" y1="2884" x2="1679.5" y2="2977" gradientUnits="userSpaceOnUse" spreadMethod="reflect" id="fill37"><stop offset="0" stop-color="#F18C55"/><stop offset="0.5" stop-color="#F67B28"/><stop offset="1" stop-color="#E56B17"/></linearGradient><clipPath id="clip38"><rect x="800" y="514" width="5274" height="2466"/></clipPath><linearGradient x1="2031" y1="2885" x2="2031" y2="2977" gradientUnits="userSpaceOnUse" spreadMethod="reflect" id="fill39"><stop offset="0" stop-color="#F18C55"/><stop offset="0.5" stop-color="#F67B28"/><stop offset="1" stop-color="#E56B17"/></linearGradient><clipPath id="clip40"><rect x="800" y="514" width="5274" height="2466"/></clipPath><linearGradient x1="2382" y1="2886" x2="2382" y2="2977" gradientUnits="userSpaceOnUse" spreadMethod="reflect" id="fill41"><stop offset="0" stop-color="#F18C55"/><stop offset="0.5" stop-color="#F67B28"/><stop offset="1" stop-color="#E56B17"/></linearGradient><clipPath id="clip42"><rect x="800" y="514" width="5274" height="2466"/></clipPath><linearGradient x1="2733.5" y1="2559" x2="2733.5" y2="2977" gradientUnits="userSpaceOnUse" spreadMethod="reflect" id="fill43"><stop offset="0" stop-color="#F18C55"/><stop offset="0.5" stop-color="#F67B28"/><stop offset="1" stop-color="#E56B17"/></linearGradient><clipPath id="clip44"><rect x="800" y="514" width="5274" height="2466"/></clipPath><linearGradient x1="3085" y1="2716" x2="3085" y2="2977" gradientUnits="userSpaceOnUse" spreadMethod="reflect" id="fill45"><stop offset="0" stop-color="#F18C55"/><stop offset="0.5" stop-color="#F67B28"/><stop offset="1" stop-color="#E56B17"/></linearGradient><clipPath id="clip46"><rect x="800" y="514" width="5274" height="2466"/></clipPath><linearGradient x1="3436" y1="2702" x2="3436" y2="2977" gradientUnits="userSpaceOnUse" spreadMethod="reflect" id="fill47"><stop offset="0" stop-color="#F18C55"/><stop offset="0.5" stop-color="#F67B28"/><stop offset="1" stop-color="#E56B17"/></linearGradient><clipPath id="clip48"><rect x="800" y="514" width="5274" height="2466"/></clipPath><linearGradient x1="3787.5" y1="2693" x2="3787.5" y2="2977" gradientUnits="userSpaceOnUse" spreadMethod="reflect" id="fill49"><stop offset="0" stop-color="#F18C55"/><stop offset="0.5" stop-color="#F67B28"/><stop offset="1" stop-color="#E56B17"/></linearGradient><clipPath id="clip50"><rect x="800" y="514" width="5274" height="2466"/></clipPath><linearGradient x1="4139" y1="2690" x2="4139" y2="2977" gradientUnits="userSpaceOnUse" spreadMethod="reflect" id="fill51"><stop offset="0" stop-color="#F18C55"/><stop offset="0.5" stop-color="#F67B28"/><stop offset="1" stop-color="#E56B17"/></linearGradient><clipPath id="clip52"><rect x="800" y="514" width="5274" height="2466"/></clipPath><linearGradient x1="4490.5" y1="856" x2="4490.5" y2="2977" gradientUnits="userSpaceOnUse" spreadMethod="reflect" id="fill53"><stop offset="0" stop-color="#F18C55"/><stop offset="0.5" stop-color="#F67B28"/><stop offset="1" stop-color="#E56B17"/></linearGradient><clipPath id="clip54"><rect x="800" y="514" width="5274" height="2466"/></clipPath><linearGradient x1="4841.5" y1="1833" x2="4841.5" y2="2977" gradientUnits="userSpaceOnUse" spreadMethod="reflect" id="fill55"><stop offset="0" stop-color="#F18C55"/><stop offset="0.5" stop-color="#F67B28"/><stop offset="1" stop-color="#E56B17"/></linearGradient><clipPath id="clip56"><rect x="800" y="514" width="5274" height="2466"/></clipPath><linearGradient x1="5193" y1="1844" x2="5193" y2="2977" gradientUnits="userSpaceOnUse" spreadMethod="reflect" id="fill57"><stop offset="0" stop-color="#F18C55"/><stop offset="0.5" stop-color="#F67B28"/><stop offset="1" stop-color="#E56B17"/></linearGradient><clipPath id="clip58"><rect x="800" y="514" width="5274" height="2466"/></clipPath><linearGradient x1="5544.5" y1="1783" x2="5544.5" y2="2977" gradientUnits="userSpaceOnUse" spreadMethod="reflect" id="fill59"><stop offset="0" stop-color="#F18C55"/><stop offset="0.5" stop-color="#F67B28"/><stop offset="1" stop-color="#E56B17"/></linearGradient><clipPath id="clip60"><rect x="800" y="514" width="5274" height="2466"/></clipPath><linearGradient x1="5896" y1="1715" x2="5896" y2="2977" gradientUnits="userSpaceOnUse" spreadMethod="reflect" id="fill61"><stop offset="0" stop-color="#F18C55"/><stop offset="0.5" stop-color="#F67B28"/><stop offset="1" stop-color="#E56B17"/></linearGradient><clipPath id="clip62"><rect x="800" y="514" width="5274" height="2466"/></clipPath><linearGradient x1="1074" y1="2801" x2="1074" y2="2977" gradientUnits="userSpaceOnUse" spreadMethod="reflect" id="fill63"><stop offset="0" stop-color="#AFAFAF"/><stop offset="0.5" stop-color="#A5A5A5"/><stop offset="1" stop-color="#929292"/></linearGradient><clipPath id="clip64"><rect x="800" y="514" width="5274" height="2466"/></clipPath><linearGradient x1="1425" y1="2876" x2="1425" y2="2977" gradientUnits="userSpaceOnUse" spreadMethod="reflect" id="fill65"><stop offset="0" stop-color="#AFAFAF"/><stop offset="0.5" stop-color="#A5A5A5"/><stop offset="1" stop-color="#929292"/></linearGradient><clipPath id="clip66"><rect x="800" y="514" width="5274" height="2466"/></clipPath><linearGradient x1="1776.5" y1="2884" x2="1776.5" y2="2977" gradientUnits="userSpaceOnUse" spreadMethod="reflect" id="fill67"><stop offset="0" stop-color="#AFAFAF"/><stop offset="0.5" stop-color="#A5A5A5"/><stop offset="1" stop-color="#929292"/></linearGradient><clipPath id="clip68"><rect x="800" y="514" width="5274" height="2466"/></clipPath><linearGradient x1="2128" y1="2885" x2="2128" y2="2977" gradientUnits="userSpaceOnUse" spreadMethod="reflect" id="fill69"><stop offset="0" stop-color="#AFAFAF"/><stop offset="0.5" stop-color="#A5A5A5"/><stop offset="1" stop-color="#929292"/></linearGradient><clipPath id="clip70"><rect x="800" y="514" width="5274" height="2466"/></clipPath><linearGradient x1="2479.5" y1="2884" x2="2479.5" y2="2977" gradientUnits="userSpaceOnUse" spreadMethod="reflect" id="fill71"><stop offset="0" stop-color="#AFAFAF"/><stop offset="0.5" stop-color="#A5A5A5"/><stop offset="1" stop-color="#929292"/></linearGradient><clipPath id="clip72"><rect x="800" y="514" width="5274" height="2466"/></clipPath><linearGradient x1="2831" y1="2603" x2="2831" y2="2977" gradientUnits="userSpaceOnUse" spreadMethod="reflect" id="fill73"><stop offset="0" stop-color="#AFAFAF"/><stop offset="0.5" stop-color="#A5A5A5"/><stop offset="1" stop-color="#929292"/></linearGradient><clipPath id="clip74"><rect x="800" y="514" width="5274" height="2466"/></clipPath><linearGradient x1="3182" y1="2716" x2="3182" y2="2977" gradientUnits="userSpaceOnUse" spreadMethod="reflect" id="fill75"><stop offset="0" stop-color="#AFAFAF"/><stop offset="0.5" stop-color="#A5A5A5"/><stop offset="1" stop-color="#929292"/></linearGradient><clipPath id="clip76"><rect x="800" y="514" width="5274" height="2466"/></clipPath><linearGradient x1="3533.5" y1="2699" x2="3533.5" y2="2977" gradientUnits="userSpaceOnUse" spreadMethod="reflect" id="fill77"><stop offset="0" stop-color="#AFAFAF"/><stop offset="0.5" stop-color="#A5A5A5"/><stop offset="1" stop-color="#929292"/></linearGradient><clipPath id="clip78"><rect x="800" y="514" width="5274" height="2466"/></clipPath><linearGradient x1="3885" y1="2690" x2="3885" y2="2977" gradientUnits="userSpaceOnUse" spreadMethod="reflect" id="fill79"><stop offset="0" stop-color="#AFAFAF"/><stop offset="0.5" stop-color="#A5A5A5"/><stop offset="1" stop-color="#929292"/></linearGradient><clipPath id="clip80"><rect x="800" y="514" width="5274" height="2466"/></clipPath><linearGradient x1="4236" y1="2687" x2="4236" y2="2977" gradientUnits="userSpaceOnUse" spreadMethod="reflect" id="fill81"><stop offset="0" stop-color="#AFAFAF"/><stop offset="0.5" stop-color="#A5A5A5"/><stop offset="1" stop-color="#929292"/></linearGradient><clipPath id="clip82"><rect x="800" y="514" width="5274" height="2466"/></clipPath><linearGradient x1="4587.5" y1="816" x2="4587.5" y2="2977" gradientUnits="userSpaceOnUse" spreadMethod="reflect" id="fill83"><stop offset="0" stop-color="#AFAFAF"/><stop offset="0.5" stop-color="#A5A5A5"/><stop offset="1" stop-color="#929292"/></linearGradient><clipPath id="clip84"><rect x="800" y="514" width="5274" height="2466"/></clipPath><linearGradient x1="4939" y1="1835" x2="4939" y2="2977" gradientUnits="userSpaceOnUse" spreadMethod="reflect" id="fill85"><stop offset="0" stop-color="#AFAFAF"/><stop offset="0.5" stop-color="#A5A5A5"/><stop offset="1" stop-color="#929292"/></linearGradient><clipPath id="clip86"><rect x="800" y="514" width="5274" height="2466"/></clipPath><linearGradient x1="5290.5" y1="1832" x2="5290.5" y2="2977" gradientUnits="userSpaceOnUse" spreadMethod="reflect" id="fill87"><stop offset="0" stop-color="#AFAFAF"/><stop offset="0.5" stop-color="#A5A5A5"/><stop offset="1" stop-color="#929292"/></linearGradient><clipPath id="clip88"><rect x="800" y="514" width="5274" height="2466"/></clipPath><linearGradient x1="5641.5" y1="1773" x2="5641.5" y2="2977" gradientUnits="userSpaceOnUse" spreadMethod="reflect" id="fill89"><stop offset="0" stop-color="#AFAFAF"/><stop offset="0.5" stop-color="#A5A5A5"/><stop offset="1" stop-color="#929292"/></linearGradient><clipPath id="clip90"><rect x="800" y="514" width="5274" height="2466"/></clipPath><linearGradient x1="5993" y1="1707" x2="5993" y2="2977" gradientUnits="userSpaceOnUse" spreadMethod="reflect" id="fill91"><stop offset="0" stop-color="#AFAFAF"/><stop offset="0.5" stop-color="#A5A5A5"/><stop offset="1" stop-color="#929292"/></linearGradient><clipPath id="clip92"><rect x="557" y="49" width="5564" height="3202"/></clipPath><clipPath id="clip93"><rect x="557" y="49" width="5564" height="3202"/></clipPath><clipPath id="clip94"><rect x="557" y="49" width="5564" height="3202"/></clipPath><clipPath id="clip95"><rect x="557" y="49" width="5564" height="3202"/></clipPath><clipPath id="clip96"><rect x="557" y="49" width="5564" height="3202"/></clipPath><clipPath id="clip97"><rect x="557" y="49" width="5564" height="3202"/></clipPath><clipPath id="clip98"><rect x="557" y="49" width="5564" height="3202"/></clipPath><clipPath id="clip99"><rect x="557" y="49" width="5564" height="3202"/></clipPath><clipPath id="clip100"><rect x="557" y="49" width="5564" height="3202"/></clipPath><clipPath id="clip101"><rect x="557" y="49" width="5564" height="3202"/></clipPath><clipPath id="clip102"><rect x="557" y="49" width="5564" height="3202"/></clipPath><clipPath id="clip103"><rect x="557" y="49" width="5564" height="3202"/></clipPath><clipPath id="clip104"><rect x="557" y="49" width="5564" height="3202"/></clipPath><clipPath id="clip105"><rect x="557" y="49" width="5564" height="3202"/></clipPath><clipPath id="clip106"><rect x="557" y="49" width="5564" height="3202"/></clipPath><clipPath id="clip107"><rect x="557" y="49" width="5564" height="3202"/></clipPath><clipPath id="clip108"><rect x="557" y="49" width="5564" height="3202"/></clipPath><clipPath id="clip109"><rect x="557" y="49" width="5564" height="3202"/></clipPath><clipPath id="clip110"><rect x="557" y="49" width="5564" height="3202"/></clipPath><clipPath id="clip111"><rect x="557" y="49" width="5564" height="3202"/></clipPath><clipPath id="clip112"><rect x="557" y="49" width="5564" height="3202"/></clipPath><clipPath id="clip113"><rect x="557" y="49" width="5564" height="3202"/></clipPath><clipPath id="clip114"><rect x="557" y="49" width="5564" height="3202"/></clipPath><clipPath id="clip115"><rect x="557" y="49" width="5564" height="3202"/></clipPath><clipPath id="clip116"><rect x="557" y="49" width="5564" height="3202"/></clipPath><clipPath id="clip117"><rect x="557" y="49" width="5564" height="3202"/></clipPath><clipPath id="clip118"><rect x="557" y="49" width="5564" height="3202"/></clipPath><clipPath id="clip119"><rect x="557" y="49" width="5564" height="3202"/></clipPath><clipPath id="clip120"><rect x="557" y="49" width="5564" height="3202"/></clipPath><clipPath id="clip121"><rect x="557" y="49" width="5564" height="3202"/></clipPath><clipPath id="clip122"><rect x="557" y="49" width="5564" height="3202"/></clipPath><clipPath id="clip123"><rect x="557" y="49" width="5564" height="3202"/></clipPath><clipPath id="clip124"><rect x="557" y="49" width="5564" height="3202"/></clipPath><clipPath id="clip125"><rect x="557" y="49" width="5564" height="3202"/></clipPath><clipPath id="clip126"><rect x="557" y="49" width="5564" height="3202"/></clipPath><clipPath id="clip127"><rect x="557" y="49" width="5564" height="3202"/></clipPath><clipPath id="clip128"><rect x="557" y="49" width="5564" height="3202"/></clipPath><clipPath id="clip129"><rect x="557" y="49" width="5564" height="3202"/></clipPath><clipPath id="clip130"><rect x="557" y="49" width="5564" height="3202"/></clipPath><clipPath id="clip131"><rect x="557" y="49" width="5564" height="3202"/></clipPath><clipPath id="clip132"><rect x="557" y="49" width="5564" height="3202"/></clipPath><clipPath id="clip133"><rect x="557" y="49" width="5564" height="3202"/></clipPath><clipPath id="clip134"><rect x="557" y="49" width="5564" height="3202"/></clipPath><clipPath id="clip135"><rect x="557" y="49" width="5564" height="3202"/></clipPath><clipPath id="clip136"><rect x="557" y="49" width="5564" height="3202"/></clipPath><clipPath id="clip137"><rect x="557" y="49" width="5564" height="3202"/></clipPath><clipPath id="clip138"><rect x="557" y="49" width="5564" height="3202"/></clipPath><clipPath id="clip139"><rect x="557" y="49" width="5564" height="3202"/></clipPath><clipPath id="clip140"><rect x="557" y="49" width="5564" height="3202"/></clipPath><clipPath id="clip141"><rect x="557" y="49" width="5564" height="3202"/></clipPath><clipPath id="clip142"><rect x="557" y="49" width="5564" height="3202"/></clipPath><clipPath id="clip143"><rect x="557" y="49" width="5564" height="3202"/></clipPath><clipPath id="clip144"><rect x="557" y="49" width="5564" height="3202"/></clipPath><clipPath id="clip145"><rect x="557" y="49" width="5564" height="3202"/></clipPath><clipPath id="clip146"><rect x="557" y="49" width="5564" height="3202"/></clipPath><clipPath id="clip147"><rect x="557" y="49" width="5564" height="3202"/></clipPath><clipPath id="clip148"><rect x="557" y="49" width="5564" height="3202"/></clipPath><clipPath id="clip149"><rect x="557" y="49" width="5564" height="3202"/></clipPath><clipPath id="clip150"><rect x="557" y="49" width="5564" height="3202"/></clipPath><clipPath id="clip151"><rect x="557" y="49" width="5564" height="3202"/></clipPath><clipPath id="clip152"><rect x="557" y="49" width="5564" height="3202"/></clipPath><clipPath id="clip153"><rect x="557" y="49" width="5564" height="3202"/></clipPath><clipPath id="clip154"><rect x="557" y="49" width="5564" height="3202"/></clipPath><clipPath id="clip155"><rect x="557" y="49" width="5564" height="3202"/></clipPath><clipPath id="clip156"><rect x="557" y="49" width="5564" height="3202"/></clipPath><clipPath id="clip157"><rect x="557" y="49" width="5564" height="3202"/></clipPath><clipPath id="clip158"><rect x="557" y="49" width="5564" height="3202"/></clipPath><clipPath id="clip159"><rect x="557" y="49" width="5564" height="3202"/></clipPath><clipPath id="clip160"><rect x="557" y="49" width="5564" height="3202"/></clipPath><clipPath id="clip161"><rect x="557" y="49" width="5564" height="3202"/></clipPath><clipPath id="clip162"><rect x="557" y="49" width="5564" height="3202"/></clipPath><clipPath id="clip163"><rect x="557" y="49" width="5564" height="3202"/></clipPath><clipPath id="clip164"><rect x="557" y="49" width="5564" height="3202"/></clipPath><clipPath id="clip165"><rect x="557" y="49" width="5564" height="3202"/></clipPath><clipPath id="clip166"><rect x="557" y="49" width="5564" height="3202"/></clipPath><clipPath id="clip167"><rect x="557" y="49" width="5564" height="3202"/></clipPath><clipPath id="clip168"><rect x="557" y="49" width="5564" height="3202"/></clipPath><clipPath id="clip169"><rect x="557" y="49" width="5564" height="3202"/></clipPath><clipPath id="clip170"><rect x="557" y="49" width="5564" height="3202"/></clipPath><clipPath id="clip171"><rect x="557" y="49" width="5564" height="3202"/></clipPath><clipPath id="clip172"><rect x="557" y="49" width="5564" height="3202"/></clipPath><clipPath id="clip173"><rect x="557" y="49" width="5564" height="3202"/></clipPath><clipPath id="clip174"><rect x="557" y="49" width="5564" height="3202"/></clipPath><clipPath id="clip175"><rect x="557" y="49" width="5564" height="3202"/></clipPath><linearGradient x1="3092.5" y1="414" x2="3092.5" y2="436" gradientUnits="userSpaceOnUse" spreadMethod="reflect" id="fill176"><stop offset="0" stop-color="#6083CB"/><stop offset="0.5" stop-color="#3E70CA"/><stop offset="1" stop-color="#2E61BA"/></linearGradient><clipPath id="clip177"><rect x="557" y="49" width="5564" height="3202"/></clipPath><clipPath id="clip178"><rect x="557" y="49" width="5564" height="3202"/></clipPath><linearGradient x1="3240.5" y1="414" x2="3240.5" y2="436" gradientUnits="userSpaceOnUse" spreadMethod="reflect" id="fill179"><stop offset="0" stop-color="#F18C55"/><stop offset="0.5" stop-color="#F67B28"/><stop offset="1" stop-color="#E56B17"/></linearGradient><clipPath id="clip180"><rect x="557" y="49" width="5564" height="3202"/></clipPath><clipPath id="clip181"><rect x="557" y="49" width="5564" height="3202"/></clipPath><linearGradient x1="3451.5" y1="414" x2="3451.5" y2="436" gradientUnits="userSpaceOnUse" spreadMethod="reflect" id="fill182"><stop offset="0" stop-color="#AFAFAF"/><stop offset="0.5" stop-color="#A5A5A5"/><stop offset="1" stop-color="#929292"/></linearGradient><clipPath id="clip183"><rect x="557" y="49" width="5564" height="3202"/></clipPath></defs><g clip-path="url(#clip0)" transform="translate(-557 -48)"><rect x="558" y="49.0002" width="5564" height="3202" fill="#FFFFFF"/><g clip-path="url(#clip1)"><path d="M800.5 2703.59 6071.5 2703.59M800.5 2429.58 6071.5 2429.58M800.5 2155.57 6071.5 2155.57M800.5 1882.56 6071.5 1882.56M800.5 1608.55 6071.5 1608.55M800.5 1335.54 6071.5 1335.54M800.5 1061.54 6071.5 1061.54M800.5 787.526 6071.5 787.526M800.5 514.5 6071.5 514.5" stroke="#E0E5EB" stroke-width="3.4375" stroke-linejoin="round" stroke-miterlimit="10" fill="none"/></g><g clip-path="url(#clip2)"><rect x="840" y="2808" width="78.9997" height="169" fill="url(#fill3)"/></g><g clip-path="url(#clip4)"><rect x="1192" y="2876" width="78" height="101" fill="url(#fill5)"/></g><g clip-path="url(#clip6)"><rect x="1543" y="2883" width="78" height="93.9998" fill="url(#fill7)"/></g><g clip-path="url(#clip8)"><rect x="1894" y="2883" width="79.0001" height="93.9998" fill="url(#fill9)"/></g><g clip-path="url(#clip10)"><rect x="2246" y="2883" width="78" height="93.9998" fill="url(#fill11)"/></g><g clip-path="url(#clip12)"><rect x="2597" y="2606" width="78" height="371" fill="url(#fill13)"/></g><g clip-path="url(#clip14)"><rect x="2948" y="2714" width="79" height="263" fill="url(#fill15)"/></g><g clip-path="url(#clip16)"><rect x="3300" y="2701" width="78" height="276" fill="url(#fill17)"/></g><g clip-path="url(#clip18)"><rect x="3651" y="2688" width="79" height="289" fill="url(#fill19)"/></g><g clip-path="url(#clip20)"><rect x="4002" y="2688" width="79" height="289" fill="url(#fill21)"/></g><g clip-path="url(#clip22)"><rect x="4354" y="859" width="78" height="2118" fill="url(#fill23)"/></g><g clip-path="url(#clip24)"><rect x="4705" y="1833" width="79" height="1144" fill="url(#fill25)"/></g><g clip-path="url(#clip26)"><rect x="5057" y="1843" width="78" height="1134" fill="url(#fill27)"/></g><g clip-path="url(#clip28)"><rect x="5408" y="1769" width="78" height="1208" fill="url(#fill29)"/></g><g clip-path="url(#clip30)"><rect x="5759" y="1706" width="79" height="1271" fill="url(#fill31)"/></g><g clip-path="url(#clip32)"><rect x="937" y="2795" width="79.0001" height="182" fill="url(#fill33)"/></g><g clip-path="url(#clip34)"><rect x="1289" y="2877" width="78" height="100" fill="url(#fill35)"/></g><g clip-path="url(#clip36)"><rect x="1640" y="2884" width="79.0001" height="92.9998" fill="url(#fill37)"/></g><g clip-path="url(#clip38)"><rect x="1992" y="2885" width="78" height="91.9998" fill="url(#fill39)"/></g><g clip-path="url(#clip40)"><rect x="2343" y="2886" width="78" height="90.9998" fill="url(#fill41)"/></g><g clip-path="url(#clip42)"><rect x="2694" y="2559" width="79" height="418" fill="url(#fill43)"/></g><g clip-path="url(#clip44)"><rect x="3046" y="2716" width="78" height="261" fill="url(#fill45)"/></g><g clip-path="url(#clip46)"><rect x="3397" y="2702" width="78" height="275" fill="url(#fill47)"/></g><g clip-path="url(#clip48)"><rect x="3748" y="2693" width="79" height="284" fill="url(#fill49)"/></g><g clip-path="url(#clip50)"><rect x="4100" y="2690" width="78" height="287" fill="url(#fill51)"/></g><g clip-path="url(#clip52)"><rect x="4451" y="856" width="79" height="2121" fill="url(#fill53)"/></g><g clip-path="url(#clip54)"><rect x="4802" y="1833" width="79" height="1144" fill="url(#fill55)"/></g><g clip-path="url(#clip56)"><rect x="5154" y="1844" width="78" height="1133" fill="url(#fill57)"/></g><g clip-path="url(#clip58)"><rect x="5505" y="1783" width="78.9995" height="1194" fill="url(#fill59)"/></g><g clip-path="url(#clip60)"><rect x="5857" y="1715" width="77.9995" height="1262" fill="url(#fill61)"/></g><g clip-path="url(#clip62)"><rect x="1035" y="2801" width="78" height="176" fill="url(#fill63)"/></g><g clip-path="url(#clip64)"><rect x="1386" y="2876" width="78" height="101" fill="url(#fill65)"/></g><g clip-path="url(#clip66)"><rect x="1737" y="2884" width="79.0001" height="92.9998" fill="url(#fill67)"/></g><g clip-path="url(#clip68)"><rect x="2089" y="2885" width="78" height="91.9998" fill="url(#fill69)"/></g><g clip-path="url(#clip70)"><rect x="2440" y="2884" width="79" height="92.9998" fill="url(#fill71)"/></g><g clip-path="url(#clip72)"><rect x="2792" y="2603" width="78" height="374" fill="url(#fill73)"/></g><g clip-path="url(#clip74)"><rect x="3143" y="2716" width="78" height="261" fill="url(#fill75)"/></g><g clip-path="url(#clip76)"><rect x="3494" y="2699" width="79" height="278" fill="url(#fill77)"/></g><g clip-path="url(#clip78)"><rect x="3846" y="2690" width="78" height="287" fill="url(#fill79)"/></g><g clip-path="url(#clip80)"><rect x="4197" y="2687" width="78" height="290" fill="url(#fill81)"/></g><g clip-path="url(#clip82)"><rect x="4548" y="816" width="78.9995" height="2161" fill="url(#fill83)"/></g><g clip-path="url(#clip84)"><rect x="4900" y="1835" width="77.9995" height="1142" fill="url(#fill85)"/></g><g clip-path="url(#clip86)"><rect x="5251" y="1832" width="78.9995" height="1145" fill="url(#fill87)"/></g><g clip-path="url(#clip88)"><rect x="5602" y="1773" width="79" height="1204" fill="url(#fill89)"/></g><g clip-path="url(#clip90)"><rect x="5954" y="1707" width="78" height="1270" fill="url(#fill91)"/></g><g clip-path="url(#clip92)"><path d="M800.5 2976.5 6071.5 2976.5" stroke="#E0E5EB" stroke-width="3.4375" stroke-linejoin="round" stroke-miterlimit="10" fill="none" fill-rule="evenodd"/></g><g clip-path="url(#clip93)"><path d="M800.5 2976.5 800.5 3056.5M2557.58 2976.5 2557.58 3056.5M4314.64 2976.5 4314.64 3056.5M6071.5 2976.5 6071.5 3056.5" stroke="#E0E5EB" stroke-width="3.4375" stroke-linejoin="round" stroke-miterlimit="10" fill="none"/></g><g clip-path="url(#clip94)"><path d="M800.5 3056.5 800.5 3136.5M2557.58 3056.5 2557.58 3136.5M4314.64 3056.5 4314.64 3136.5M6071.5 3056.5 6071.5 3136.5" stroke="#E0E5EB" stroke-width="3.4375" stroke-linejoin="round" stroke-miterlimit="10" fill="none"/></g><g clip-path="url(#clip95)"><text fill="#44546A" font-family="Calibri,Calibri_MSFontService,sans-serif" font-weight="400" font-size="41" transform="matrix(1 0 0 1 848.006 2776)">124</text></g><g clip-path="url(#clip96)"><text fill="#44546A" font-family="Calibri,Calibri_MSFontService,sans-serif" font-weight="400" font-size="41" transform="matrix(1 0 0 1 1209.83 2844)">73</text></g><g clip-path="url(#clip97)"><text fill="#44546A" font-family="Calibri,Calibri_MSFontService,sans-serif" font-weight="400" font-size="41" transform="matrix(1 0 0 1 1561.2 2851)">69</text></g><g clip-path="url(#clip98)"><text fill="#44546A" font-family="Calibri,Calibri_MSFontService,sans-serif" font-weight="400" font-size="41" transform="matrix(1 0 0 1 1912.57 2851)">69</text></g><g clip-path="url(#clip99)"><text fill="#44546A" font-family="Calibri,Calibri_MSFontService,sans-serif" font-weight="400" font-size="41" transform="matrix(1 0 0 1 2263.94 2851)">69</text></g><g clip-path="url(#clip100)"><text fill="#44546A" font-family="Calibri,Calibri_MSFontService,sans-serif" font-weight="400" font-size="41" transform="matrix(1 0 0 1 2604.87 2574)">271</text></g><g clip-path="url(#clip101)"><text fill="#44546A" font-family="Calibri,Calibri_MSFontService,sans-serif" font-weight="400" font-size="41" transform="matrix(1 0 0 1 2956.24 2682)">192</text></g><g clip-path="url(#clip102)"><text fill="#44546A" font-family="Calibri,Calibri_MSFontService,sans-serif" font-weight="400" font-size="41" transform="matrix(1 0 0 1 3307.61 2669)">202</text></g><g clip-path="url(#clip103)"><text fill="#44546A" font-family="Calibri,Calibri_MSFontService,sans-serif" font-weight="400" font-size="41" transform="matrix(1 0 0 1 3658.98 2656)">211</text></g><g clip-path="url(#clip104)"><text fill="#44546A" font-family="Calibri,Calibri_MSFontService,sans-serif" font-weight="400" font-size="41" transform="matrix(1 0 0 1 4010.35 2656)">211</text></g><g clip-path="url(#clip105)"><text fill="#44546A" font-family="Calibri,Calibri_MSFontService,sans-serif" font-weight="400" font-size="41" transform="matrix(1 0 0 1 4351.28 828)">1548</text></g><g clip-path="url(#clip106)"><text fill="#44546A" font-family="Calibri,Calibri_MSFontService,sans-serif" font-weight="400" font-size="41" transform="matrix(1 0 0 1 4713.1 1801)">836</text></g><g clip-path="url(#clip107)"><text fill="#44546A" font-family="Calibri,Calibri_MSFontService,sans-serif" font-weight="400" font-size="41" transform="matrix(1 0 0 1 5064.47 1811)">829</text></g><g clip-path="url(#clip108)"><text fill="#44546A" font-family="Calibri,Calibri_MSFontService,sans-serif" font-weight="400" font-size="41" transform="matrix(1 0 0 1 5415.84 1737)">883</text></g><g clip-path="url(#clip109)"><text fill="#44546A" font-family="Calibri,Calibri_MSFontService,sans-serif" font-weight="400" font-size="41" transform="matrix(1 0 0 1 5767.21 1674)">929</text></g><g clip-path="url(#clip110)"><text fill="#44546A" font-family="Calibri,Calibri_MSFontService,sans-serif" font-weight="400" font-size="41" transform="matrix(1 0 0 1 945.261 2763)">133</text></g><g clip-path="url(#clip111)"><text fill="#44546A" font-family="Calibri,Calibri_MSFontService,sans-serif" font-weight="400" font-size="41" transform="matrix(1 0 0 1 1307.08 2845)">73</text></g><g clip-path="url(#clip112)"><text fill="#44546A" font-family="Calibri,Calibri_MSFontService,sans-serif" font-weight="400" font-size="41" transform="matrix(1 0 0 1 1658.45 2852)">68</text></g><g clip-path="url(#clip113)"><text fill="#44546A" font-family="Calibri,Calibri_MSFontService,sans-serif" font-weight="400" font-size="41" transform="matrix(1 0 0 1 2009.83 2853)">67</text></g><g clip-path="url(#clip114)"><text fill="#44546A" font-family="Calibri,Calibri_MSFontService,sans-serif" font-weight="400" font-size="41" transform="matrix(1 0 0 1 2361.2 2854)">67</text></g><g clip-path="url(#clip115)"><text fill="#44546A" font-family="Calibri,Calibri_MSFontService,sans-serif" font-weight="400" font-size="41" transform="matrix(1 0 0 1 2702.12 2527)">305</text></g><g clip-path="url(#clip116)"><text fill="#44546A" font-family="Calibri,Calibri_MSFontService,sans-serif" font-weight="400" font-size="41" transform="matrix(1 0 0 1 3053.49 2684)">190</text></g><g clip-path="url(#clip117)"><text fill="#44546A" font-family="Calibri,Calibri_MSFontService,sans-serif" font-weight="400" font-size="41" transform="matrix(1 0 0 1 3404.86 2671)">200</text></g><g clip-path="url(#clip118)"><text fill="#44546A" font-family="Calibri,Calibri_MSFontService,sans-serif" font-weight="400" font-size="41" transform="matrix(1 0 0 1 3756.24 2661)">207</text></g><g clip-path="url(#clip119)"><text fill="#44546A" font-family="Calibri,Calibri_MSFontService,sans-serif" font-weight="400" font-size="41" transform="matrix(1 0 0 1 4107.61 2658)">210</text></g><g clip-path="url(#clip120)"><text fill="#44546A" font-family="Calibri,Calibri_MSFontService,sans-serif" font-weight="400" font-size="41" transform="matrix(1 0 0 1 4448.53 824)">1550</text></g><g clip-path="url(#clip121)"><text fill="#44546A" font-family="Calibri,Calibri_MSFontService,sans-serif" font-weight="400" font-size="41" transform="matrix(1 0 0 1 4810.35 1801)">836</text></g><g clip-path="url(#clip122)"><text fill="#44546A" font-family="Calibri,Calibri_MSFontService,sans-serif" font-weight="400" font-size="41" transform="matrix(1 0 0 1 5161.73 1812)">828</text></g><g clip-path="url(#clip123)"><text fill="#44546A" font-family="Calibri,Calibri_MSFontService,sans-serif" font-weight="400" font-size="41" transform="matrix(1 0 0 1 5513.1 1751)">873</text></g><g clip-path="url(#clip124)"><text fill="#44546A" font-family="Calibri,Calibri_MSFontService,sans-serif" font-weight="400" font-size="41" transform="matrix(1 0 0 1 5864.47 1683)">922</text></g><g clip-path="url(#clip125)"><text fill="#44546A" font-family="Calibri,Calibri_MSFontService,sans-serif" font-weight="400" font-size="41" transform="matrix(1 0 0 1 1042.52 2769)">128</text></g><g clip-path="url(#clip126)"><text fill="#44546A" font-family="Calibri,Calibri_MSFontService,sans-serif" font-weight="400" font-size="41" transform="matrix(1 0 0 1 1404.34 2844)">73</text></g><g clip-path="url(#clip127)"><text fill="#44546A" font-family="Calibri,Calibri_MSFontService,sans-serif" font-weight="400" font-size="41" transform="matrix(1 0 0 1 1755.71 2852)">68</text></g><g clip-path="url(#clip128)"><text fill="#44546A" font-family="Calibri,Calibri_MSFontService,sans-serif" font-weight="400" font-size="41" transform="matrix(1 0 0 1 2107.08 2853)">67</text></g><g clip-path="url(#clip129)"><text fill="#44546A" font-family="Calibri,Calibri_MSFontService,sans-serif" font-weight="400" font-size="41" transform="matrix(1 0 0 1 2458.45 2852)">68</text></g><g clip-path="url(#clip130)"><text fill="#44546A" font-family="Calibri,Calibri_MSFontService,sans-serif" font-weight="400" font-size="41" transform="matrix(1 0 0 1 2799.38 2571)">273</text></g><g clip-path="url(#clip131)"><text fill="#44546A" font-family="Calibri,Calibri_MSFontService,sans-serif" font-weight="400" font-size="41" transform="matrix(1 0 0 1 3150.75 2684)">191</text></g><g clip-path="url(#clip132)"><text fill="#44546A" font-family="Calibri,Calibri_MSFontService,sans-serif" font-weight="400" font-size="41" transform="matrix(1 0 0 1 3502.12 2667)">203</text></g><g clip-path="url(#clip133)"><text fill="#44546A" font-family="Calibri,Calibri_MSFontService,sans-serif" font-weight="400" font-size="41" transform="matrix(1 0 0 1 3853.49 2658)">209</text></g><g clip-path="url(#clip134)"><text fill="#44546A" font-family="Calibri,Calibri_MSFontService,sans-serif" font-weight="400" font-size="41" transform="matrix(1 0 0 1 4204.86 2655)">212</text></g><g clip-path="url(#clip135)"><text fill="#44546A" font-family="Calibri,Calibri_MSFontService,sans-serif" font-weight="400" font-size="41" transform="matrix(1 0 0 1 4545.79 784)">1580</text></g><g clip-path="url(#clip136)"><text fill="#44546A" font-family="Calibri,Calibri_MSFontService,sans-serif" font-weight="400" font-size="41" transform="matrix(1 0 0 1 4907.61 1803)">835</text></g><g clip-path="url(#clip137)"><text fill="#44546A" font-family="Calibri,Calibri_MSFontService,sans-serif" font-weight="400" font-size="41" transform="matrix(1 0 0 1 5258.98 1800)">837</text></g><g clip-path="url(#clip138)"><text fill="#44546A" font-family="Calibri,Calibri_MSFontService,sans-serif" font-weight="400" font-size="41" transform="matrix(1 0 0 1 5610.35 1741)">880</text></g><g clip-path="url(#clip139)"><text fill="#44546A" font-family="Calibri,Calibri_MSFontService,sans-serif" font-weight="400" font-size="41" transform="matrix(1 0 0 1 5961.72 1675)">928</text></g><g clip-path="url(#clip140)"><text fill="#44546A" font-family="Calibri,Calibri_MSFontService,sans-serif" font-weight="400" font-size="41" transform="matrix(1 0 0 1 741.758 2988)">0</text></g><g clip-path="url(#clip141)"><text fill="#44546A" font-family="Calibri,Calibri_MSFontService,sans-serif" font-weight="400" font-size="41" transform="matrix(1 0 0 1 699.958 2715)">200</text></g><g clip-path="url(#clip142)"><text fill="#44546A" font-family="Calibri,Calibri_MSFontService,sans-serif" font-weight="400" font-size="41" transform="matrix(1 0 0 1 699.958 2441)">400</text></g><g clip-path="url(#clip143)"><text fill="#44546A" font-family="Calibri,Calibri_MSFontService,sans-serif" font-weight="400" font-size="41" transform="matrix(1 0 0 1 699.958 2167)">600</text></g><g clip-path="url(#clip144)"><text fill="#44546A" font-family="Calibri,Calibri_MSFontService,sans-serif" font-weight="400" font-size="41" transform="matrix(1 0 0 1 699.958 1894)">800</text></g><g clip-path="url(#clip145)"><text fill="#44546A" font-family="Calibri,Calibri_MSFontService,sans-serif" font-weight="400" font-size="41" transform="matrix(1 0 0 1 679.058 1620)">1000</text></g><g clip-path="url(#clip146)"><text fill="#44546A" font-family="Calibri,Calibri_MSFontService,sans-serif" font-weight="400" font-size="41" transform="matrix(1 0 0 1 679.058 1347)">1200</text></g><g clip-path="url(#clip147)"><text fill="#44546A" font-family="Calibri,Calibri_MSFontService,sans-serif" font-weight="400" font-size="41" transform="matrix(1 0 0 1 679.058 1073)">1400</text></g><g clip-path="url(#clip148)"><text fill="#44546A" font-family="Calibri,Calibri_MSFontService,sans-serif" font-weight="400" font-size="41" transform="matrix(1 0 0 1 679.058 799)">1600</text></g><g clip-path="url(#clip149)"><text fill="#44546A" font-family="Calibri,Calibri_MSFontService,sans-serif" font-weight="400" font-size="41" transform="matrix(1 0 0 1 679.058 526)">1800</text></g><g clip-path="url(#clip150)"><text fill="#44546A" font-family="Calibri,Calibri_MSFontService,sans-serif" font-weight="400" font-size="41" transform="matrix(1 0 0 1 966.161 3042)">1</text></g><g clip-path="url(#clip151)"><text fill="#44546A" font-family="Calibri,Calibri_MSFontService,sans-serif" font-weight="400" font-size="41" transform="matrix(1 0 0 1 1317.53 3042)">4</text></g><g clip-path="url(#clip152)"><text fill="#44546A" font-family="Calibri,Calibri_MSFontService,sans-serif" font-weight="400" font-size="41" transform="matrix(1 0 0 1 1658.45 3042)">16</text></g><g clip-path="url(#clip153)"><text fill="#44546A" font-family="Calibri,Calibri_MSFontService,sans-serif" font-weight="400" font-size="41" transform="matrix(1 0 0 1 2009.83 3042)">40</text></g><g clip-path="url(#clip154)"><text fill="#44546A" font-family="Calibri,Calibri_MSFontService,sans-serif" font-weight="400" font-size="41" transform="matrix(1 0 0 1 2361.2 3042)">80</text></g><g clip-path="url(#clip155)"><text fill="#44546A" font-family="Calibri,Calibri_MSFontService,sans-serif" font-weight="400" font-size="41" transform="matrix(1 0 0 1 2723.02 3042)">1</text></g><g clip-path="url(#clip156)"><text fill="#44546A" font-family="Calibri,Calibri_MSFontService,sans-serif" font-weight="400" font-size="41" transform="matrix(1 0 0 1 3074.39 3042)">4</text></g><g clip-path="url(#clip157)"><text fill="#44546A" font-family="Calibri,Calibri_MSFontService,sans-serif" font-weight="400" font-size="41" transform="matrix(1 0 0 1 3415.32 3042)">16</text></g><g clip-path="url(#clip158)"><text fill="#44546A" font-family="Calibri,Calibri_MSFontService,sans-serif" font-weight="400" font-size="41" transform="matrix(1 0 0 1 3766.69 3042)">40</text></g><g clip-path="url(#clip159)"><text fill="#44546A" font-family="Calibri,Calibri_MSFontService,sans-serif" font-weight="400" font-size="41" transform="matrix(1 0 0 1 4118.06 3042)">80</text></g><g clip-path="url(#clip160)"><text fill="#44546A" font-family="Calibri,Calibri_MSFontService,sans-serif" font-weight="400" font-size="41" transform="matrix(1 0 0 1 4479.88 3042)">1</text></g><g clip-path="url(#clip161)"><text fill="#44546A" font-family="Calibri,Calibri_MSFontService,sans-serif" font-weight="400" font-size="41" transform="matrix(1 0 0 1 4831.25 3042)">4</text></g><g clip-path="url(#clip162)"><text fill="#44546A" font-family="Calibri,Calibri_MSFontService,sans-serif" font-weight="400" font-size="41" transform="matrix(1 0 0 1 5172.18 3042)">16</text></g><g clip-path="url(#clip163)"><text fill="#44546A" font-family="Calibri,Calibri_MSFontService,sans-serif" font-weight="400" font-size="41" transform="matrix(1 0 0 1 5523.55 3042)">40</text></g><g clip-path="url(#clip164)"><text fill="#44546A" font-family="Calibri,Calibri_MSFontService,sans-serif" font-weight="400" font-size="41" transform="matrix(1 0 0 1 5874.92 3042)">80</text></g><g clip-path="url(#clip165)"><text fill="#44546A" font-family="Calibri,Calibri_MSFontService,sans-serif" font-weight="400" font-size="41" transform="matrix(1 0 0 1 1658.45 3122)">32</text></g><g clip-path="url(#clip166)"><text fill="#44546A" font-family="Calibri,Calibri_MSFontService,sans-serif" font-weight="400" font-size="41" transform="matrix(1 0 0 1 3404.87 3122)">128</text></g><g clip-path="url(#clip167)"><text fill="#44546A" font-family="Calibri,Calibri_MSFontService,sans-serif" font-weight="400" font-size="41" transform="matrix(1 0 0 1 5161.73 3122)">512</text></g><g clip-path="url(#clip168)"><text fill="#44546A" font-family="Calibri,Calibri_MSFontService,sans-serif" font-weight="700" font-size="41" transform="matrix(6.12323e-17 -1 1 6.12323e-17 653.964 1854)">Latency (ms)</text></g><g clip-path="url(#clip169)"><text fill="#44546A" font-family="Calibri,Calibri_MSFontService,sans-serif" font-weight="700" font-size="41" transform="matrix(1 0 0 1 3295.32 3183)">Sequence Length</text></g><g clip-path="url(#clip170)"><text fill="#44546A" font-family="Calibri,Calibri_MSFontService,sans-serif" font-weight="700" font-size="73" transform="matrix(1 0 0 1 2362.61 154)">Intel Ice lake Xeon 8380 </text></g><g clip-path="url(#clip171)"><text fill="#44546A" font-family="Calibri,Calibri_MSFontService,sans-serif" font-weight="700" font-size="73" transform="matrix(1 0 0 1 3097.96 154)">-</text></g><g clip-path="url(#clip172)"><text fill="#44546A" font-family="Calibri,Calibri_MSFontService,sans-serif" font-weight="700" font-size="73" transform="matrix(1 0 0 1 3136.98 154)">TensorFlow Graph + oneDNN (&gt;= 2.5.0)</text></g><g clip-path="url(#clip173)"><text fill="#44546A" font-family="Calibri,Calibri_MSFontService,sans-serif" font-weight="700" font-size="73" transform="matrix(1 0 0 1 1581.06 243)">Latency Benchmark with varying number of CPU cores involved in the computation and different memory allocators</text></g><g clip-path="url(#clip174)"><text fill="#44546A" font-family="Calibri,Calibri_MSFontService,sans-serif" font-weight="700" font-size="73" transform="matrix(1 0 0 1 2247.34 333)">(some data might be missing indicating benchmark crashed during runs)</text></g><g clip-path="url(#clip175)"><rect x="3081" y="414" width="23" height="22" fill="url(#fill176)"/></g><g clip-path="url(#clip177)"><text fill="#44546A" font-family="Calibri,Calibri_MSFontService,sans-serif" font-weight="400" font-size="41" transform="matrix(1 0 0 1 3113.63 437)">glibc</text></g><g clip-path="url(#clip178)"><rect x="3229" y="414" width="23" height="22" fill="url(#fill179)"/></g><g clip-path="url(#clip180)"><text fill="#44546A" font-family="Calibri,Calibri_MSFontService,sans-serif" font-weight="400" font-size="41" transform="matrix(1 0 0 1 3261.24 437)">jemalloc</text></g><g clip-path="url(#clip181)"><rect x="3440" y="414" width="23" height="22" fill="url(#fill182)"/></g><g clip-path="url(#clip183)"><text fill="#44546A" font-family="Calibri,Calibri_MSFontService,sans-serif" font-weight="400" font-size="41" transform="matrix(1 0 0 1 3472.62 437)">tcmalloc</text></g><rect x="558.5" y="49.5" width="5564" height="3202" stroke="#E0E5EB" stroke-width="3.4375" stroke-linejoin="round" stroke-miterlimit="10" fill="none"/></g></svg>