<svg width="5651" height="3205" xmlns="http://www.w3.org/2000/svg" xmlns:xlink="http://www.w3.org/1999/xlink" overflow="hidden"><defs><clipPath id="clip0"><rect x="1267" y="174" width="5651" height="3205"/></clipPath><clipPath id="clip1"><rect x="1268" y="175" width="5648" height="3202"/></clipPath><clipPath id="clip2"><rect x="1511" y="640" width="5358" height="2415"/></clipPath><linearGradient x1="1591.5" y1="2869" x2="1591.5" y2="3053" gradientUnits="userSpaceOnUse" spreadMethod="reflect" id="fill3"><stop offset="0" stop-color="#6083CB"/><stop offset="0.5" stop-color="#3E70CA"/><stop offset="1" stop-color="#2E61BA"/></linearGradient><clipPath id="clip4"><rect x="1511" y="640" width="5358" height="2415"/></clipPath><linearGradient x1="1948" y1="2934" x2="1948" y2="3053" gradientUnits="userSpaceOnUse" spreadMethod="reflect" id="fill5"><stop offset="0" stop-color="#6083CB"/><stop offset="0.5" stop-color="#3E70CA"/><stop offset="1" stop-color="#2E61BA"/></linearGradient><clipPath id="clip6"><rect x="1511" y="640" width="5358" height="2415"/></clipPath><linearGradient x1="2305" y1="2968" x2="2305" y2="3053" gradientUnits="userSpaceOnUse" spreadMethod="reflect" id="fill7"><stop offset="0" stop-color="#6083CB"/><stop offset="0.5" stop-color="#3E70CA"/><stop offset="1" stop-color="#2E61BA"/></linearGradient><clipPath id="clip8"><rect x="1511" y="640" width="5358" height="2415"/></clipPath><linearGradient x1="2662" y1="2978" x2="2662" y2="3053" gradientUnits="userSpaceOnUse" spreadMethod="reflect" id="fill9"><stop offset="0" stop-color="#6083CB"/><stop offset="0.5" stop-color="#3E70CA"/><stop offset="1" stop-color="#2E61BA"/></linearGradient><clipPath id="clip10"><rect x="1511" y="640" width="5358" height="2415"/></clipPath><linearGradient x1="3019" y1="2969" x2="3019" y2="3053" gradientUnits="userSpaceOnUse" spreadMethod="reflect" id="fill11"><stop offset="0" stop-color="#6083CB"/><stop offset="0.5" stop-color="#3E70CA"/><stop offset="1" stop-color="#2E61BA"/></linearGradient><clipPath id="clip12"><rect x="1511" y="640" width="5358" height="2415"/></clipPath><linearGradient x1="3376" y1="2638" x2="3376" y2="3053" gradientUnits="userSpaceOnUse" spreadMethod="reflect" id="fill13"><stop offset="0" stop-color="#6083CB"/><stop offset="0.5" stop-color="#3E70CA"/><stop offset="1" stop-color="#2E61BA"/></linearGradient><clipPath id="clip14"><rect x="1511" y="640" width="5358" height="2415"/></clipPath><linearGradient x1="3733" y1="2851" x2="3733" y2="3053" gradientUnits="userSpaceOnUse" spreadMethod="reflect" id="fill15"><stop offset="0" stop-color="#6083CB"/><stop offset="0.5" stop-color="#3E70CA"/><stop offset="1" stop-color="#2E61BA"/></linearGradient><clipPath id="clip16"><rect x="1511" y="640" width="5358" height="2415"/></clipPath><linearGradient x1="4090" y1="2918" x2="4090" y2="3053" gradientUnits="userSpaceOnUse" spreadMethod="reflect" id="fill17"><stop offset="0" stop-color="#6083CB"/><stop offset="0.5" stop-color="#3E70CA"/><stop offset="1" stop-color="#2E61BA"/></linearGradient><clipPath id="clip18"><rect x="1511" y="640" width="5358" height="2415"/></clipPath><linearGradient x1="4447" y1="2952" x2="4447" y2="3053" gradientUnits="userSpaceOnUse" spreadMethod="reflect" id="fill19"><stop offset="0" stop-color="#6083CB"/><stop offset="0.5" stop-color="#3E70CA"/><stop offset="1" stop-color="#2E61BA"/></linearGradient><clipPath id="clip20"><rect x="1511" y="640" width="5358" height="2415"/></clipPath><linearGradient x1="4804" y1="2917" x2="4804" y2="3053" gradientUnits="userSpaceOnUse" spreadMethod="reflect" id="fill21"><stop offset="0" stop-color="#6083CB"/><stop offset="0.5" stop-color="#3E70CA"/><stop offset="1" stop-color="#2E61BA"/></linearGradient><clipPath id="clip22"><rect x="1511" y="640" width="5358" height="2415"/></clipPath><linearGradient x1="5161" y1="1113" x2="5161" y2="3053" gradientUnits="userSpaceOnUse" spreadMethod="reflect" id="fill23"><stop offset="0" stop-color="#6083CB"/><stop offset="0.5" stop-color="#3E70CA"/><stop offset="1" stop-color="#2E61BA"/></linearGradient><clipPath id="clip24"><rect x="1511" y="640" width="5358" height="2415"/></clipPath><linearGradient x1="5518" y1="2533" x2="5518" y2="3053" gradientUnits="userSpaceOnUse" spreadMethod="reflect" id="fill25"><stop offset="0" stop-color="#6083CB"/><stop offset="0.5" stop-color="#3E70CA"/><stop offset="1" stop-color="#2E61BA"/></linearGradient><clipPath id="clip26"><rect x="1511" y="640" width="5358" height="2415"/></clipPath><linearGradient x1="5875" y1="2823" x2="5875" y2="3053" gradientUnits="userSpaceOnUse" spreadMethod="reflect" id="fill27"><stop offset="0" stop-color="#6083CB"/><stop offset="0.5" stop-color="#3E70CA"/><stop offset="1" stop-color="#2E61BA"/></linearGradient><clipPath id="clip28"><rect x="1511" y="640" width="5358" height="2415"/></clipPath><linearGradient x1="6231.5" y1="2905" x2="6231.5" y2="3053" gradientUnits="userSpaceOnUse" spreadMethod="reflect" id="fill29"><stop offset="0" stop-color="#6083CB"/><stop offset="0.5" stop-color="#3E70CA"/><stop offset="1" stop-color="#2E61BA"/></linearGradient><clipPath id="clip30"><rect x="1511" y="640" width="5358" height="2415"/></clipPath><linearGradient x1="6588.5" y1="2871" x2="6588.5" y2="3053" gradientUnits="userSpaceOnUse" spreadMethod="reflect" id="fill31"><stop offset="0" stop-color="#6083CB"/><stop offset="0.5" stop-color="#3E70CA"/><stop offset="1" stop-color="#2E61BA"/></linearGradient><clipPath id="clip32"><rect x="1511" y="640" width="5358" height="2415"/></clipPath><linearGradient x1="1690" y1="2839" x2="1690" y2="3053" gradientUnits="userSpaceOnUse" spreadMethod="reflect" id="fill33"><stop offset="0" stop-color="#F18C55"/><stop offset="0.5" stop-color="#F67B28"/><stop offset="1" stop-color="#E56B17"/></linearGradient><clipPath id="clip34"><rect x="1511" y="640" width="5358" height="2415"/></clipPath><linearGradient x1="2047" y1="2938" x2="2047" y2="3053" gradientUnits="userSpaceOnUse" spreadMethod="reflect" id="fill35"><stop offset="0" stop-color="#F18C55"/><stop offset="0.5" stop-color="#F67B28"/><stop offset="1" stop-color="#E56B17"/></linearGradient><clipPath id="clip36"><rect x="1511" y="640" width="5358" height="2415"/></clipPath><linearGradient x1="2404" y1="2969" x2="2404" y2="3053" gradientUnits="userSpaceOnUse" spreadMethod="reflect" id="fill37"><stop offset="0" stop-color="#F18C55"/><stop offset="0.5" stop-color="#F67B28"/><stop offset="1" stop-color="#E56B17"/></linearGradient><clipPath id="clip38"><rect x="1511" y="640" width="5358" height="2415"/></clipPath><linearGradient x1="2761" y1="2977" x2="2761" y2="3053" gradientUnits="userSpaceOnUse" spreadMethod="reflect" id="fill39"><stop offset="0" stop-color="#F18C55"/><stop offset="0.5" stop-color="#F67B28"/><stop offset="1" stop-color="#E56B17"/></linearGradient><clipPath id="clip40"><rect x="1511" y="640" width="5358" height="2415"/></clipPath><linearGradient x1="3118" y1="2967" x2="3118" y2="3053" gradientUnits="userSpaceOnUse" spreadMethod="reflect" id="fill41"><stop offset="0" stop-color="#F18C55"/><stop offset="0.5" stop-color="#F67B28"/><stop offset="1" stop-color="#E56B17"/></linearGradient><clipPath id="clip42"><rect x="1511" y="640" width="5358" height="2415"/></clipPath><linearGradient x1="3475" y1="2527" x2="3475" y2="3053" gradientUnits="userSpaceOnUse" spreadMethod="reflect" id="fill43"><stop offset="0" stop-color="#F18C55"/><stop offset="0.5" stop-color="#F67B28"/><stop offset="1" stop-color="#E56B17"/></linearGradient><clipPath id="clip44"><rect x="1511" y="640" width="5358" height="2415"/></clipPath><linearGradient x1="3832" y1="2860" x2="3832" y2="3053" gradientUnits="userSpaceOnUse" spreadMethod="reflect" id="fill45"><stop offset="0" stop-color="#F18C55"/><stop offset="0.5" stop-color="#F67B28"/><stop offset="1" stop-color="#E56B17"/></linearGradient><clipPath id="clip46"><rect x="1511" y="640" width="5358" height="2415"/></clipPath><linearGradient x1="4189" y1="2925" x2="4189" y2="3053" gradientUnits="userSpaceOnUse" spreadMethod="reflect" id="fill47"><stop offset="0" stop-color="#F18C55"/><stop offset="0.5" stop-color="#F67B28"/><stop offset="1" stop-color="#E56B17"/></linearGradient><clipPath id="clip48"><rect x="1511" y="640" width="5358" height="2415"/></clipPath><linearGradient x1="4546" y1="2953" x2="4546" y2="3053" gradientUnits="userSpaceOnUse" spreadMethod="reflect" id="fill49"><stop offset="0" stop-color="#F18C55"/><stop offset="0.5" stop-color="#F67B28"/><stop offset="1" stop-color="#E56B17"/></linearGradient><clipPath id="clip50"><rect x="1511" y="640" width="5358" height="2415"/></clipPath><linearGradient x1="4902.5" y1="2916" x2="4902.5" y2="3053" gradientUnits="userSpaceOnUse" spreadMethod="reflect" id="fill51"><stop offset="0" stop-color="#F18C55"/><stop offset="0.5" stop-color="#F67B28"/><stop offset="1" stop-color="#E56B17"/></linearGradient><clipPath id="clip52"><rect x="1511" y="640" width="5358" height="2415"/></clipPath><linearGradient x1="5259.5" y1="826" x2="5259.5" y2="3053" gradientUnits="userSpaceOnUse" spreadMethod="reflect" id="fill53"><stop offset="0" stop-color="#F18C55"/><stop offset="0.5" stop-color="#F67B28"/><stop offset="1" stop-color="#E56B17"/></linearGradient><clipPath id="clip54"><rect x="1511" y="640" width="5358" height="2415"/></clipPath><linearGradient x1="5616.5" y1="2575" x2="5616.5" y2="3053" gradientUnits="userSpaceOnUse" spreadMethod="reflect" id="fill55"><stop offset="0" stop-color="#F18C55"/><stop offset="0.5" stop-color="#F67B28"/><stop offset="1" stop-color="#E56B17"/></linearGradient><clipPath id="clip56"><rect x="1511" y="640" width="5358" height="2415"/></clipPath><linearGradient x1="5973.5" y1="2836" x2="5973.5" y2="3053" gradientUnits="userSpaceOnUse" spreadMethod="reflect" id="fill57"><stop offset="0" stop-color="#F18C55"/><stop offset="0.5" stop-color="#F67B28"/><stop offset="1" stop-color="#E56B17"/></linearGradient><clipPath id="clip58"><rect x="1511" y="640" width="5358" height="2415"/></clipPath><linearGradient x1="6330.5" y1="2913" x2="6330.5" y2="3053" gradientUnits="userSpaceOnUse" spreadMethod="reflect" id="fill59"><stop offset="0" stop-color="#F18C55"/><stop offset="0.5" stop-color="#F67B28"/><stop offset="1" stop-color="#E56B17"/></linearGradient><clipPath id="clip60"><rect x="1511" y="640" width="5358" height="2415"/></clipPath><linearGradient x1="6687.5" y1="2869" x2="6687.5" y2="3053" gradientUnits="userSpaceOnUse" spreadMethod="reflect" id="fill61"><stop offset="0" stop-color="#F18C55"/><stop offset="0.5" stop-color="#F67B28"/><stop offset="1" stop-color="#E56B17"/></linearGradient><clipPath id="clip62"><rect x="1511" y="640" width="5358" height="2415"/></clipPath><linearGradient x1="1789" y1="2870" x2="1789" y2="3053" gradientUnits="userSpaceOnUse" spreadMethod="reflect" id="fill63"><stop offset="0" stop-color="#AFAFAF"/><stop offset="0.5" stop-color="#A5A5A5"/><stop offset="1" stop-color="#929292"/></linearGradient><clipPath id="clip64"><rect x="1511" y="640" width="5358" height="2415"/></clipPath><linearGradient x1="2146" y1="2936" x2="2146" y2="3053" gradientUnits="userSpaceOnUse" spreadMethod="reflect" id="fill65"><stop offset="0" stop-color="#AFAFAF"/><stop offset="0.5" stop-color="#A5A5A5"/><stop offset="1" stop-color="#929292"/></linearGradient><clipPath id="clip66"><rect x="1511" y="640" width="5358" height="2415"/></clipPath><linearGradient x1="2503" y1="2971" x2="2503" y2="3053" gradientUnits="userSpaceOnUse" spreadMethod="reflect" id="fill67"><stop offset="0" stop-color="#AFAFAF"/><stop offset="0.5" stop-color="#A5A5A5"/><stop offset="1" stop-color="#929292"/></linearGradient><clipPath id="clip68"><rect x="1511" y="640" width="5358" height="2415"/></clipPath><linearGradient x1="2860" y1="2980" x2="2860" y2="3053" gradientUnits="userSpaceOnUse" spreadMethod="reflect" id="fill69"><stop offset="0" stop-color="#AFAFAF"/><stop offset="0.5" stop-color="#A5A5A5"/><stop offset="1" stop-color="#929292"/></linearGradient><clipPath id="clip70"><rect x="1511" y="640" width="5358" height="2415"/></clipPath><linearGradient x1="3217" y1="2968" x2="3217" y2="3053" gradientUnits="userSpaceOnUse" spreadMethod="reflect" id="fill71"><stop offset="0" stop-color="#AFAFAF"/><stop offset="0.5" stop-color="#A5A5A5"/><stop offset="1" stop-color="#929292"/></linearGradient><clipPath id="clip72"><rect x="1511" y="640" width="5358" height="2415"/></clipPath><linearGradient x1="3574" y1="2636" x2="3574" y2="3053" gradientUnits="userSpaceOnUse" spreadMethod="reflect" id="fill73"><stop offset="0" stop-color="#AFAFAF"/><stop offset="0.5" stop-color="#A5A5A5"/><stop offset="1" stop-color="#929292"/></linearGradient><clipPath id="clip74"><rect x="1511" y="640" width="5358" height="2415"/></clipPath><linearGradient x1="3930.5" y1="2857" x2="3930.5" y2="3053" gradientUnits="userSpaceOnUse" spreadMethod="reflect" id="fill75"><stop offset="0" stop-color="#AFAFAF"/><stop offset="0.5" stop-color="#A5A5A5"/><stop offset="1" stop-color="#929292"/></linearGradient><clipPath id="clip76"><rect x="1511" y="640" width="5358" height="2415"/></clipPath><linearGradient x1="4287.5" y1="2925" x2="4287.5" y2="3053" gradientUnits="userSpaceOnUse" spreadMethod="reflect" id="fill77"><stop offset="0" stop-color="#AFAFAF"/><stop offset="0.5" stop-color="#A5A5A5"/><stop offset="1" stop-color="#929292"/></linearGradient><clipPath id="clip78"><rect x="1511" y="640" width="5358" height="2415"/></clipPath><linearGradient x1="4644.5" y1="2953" x2="4644.5" y2="3053" gradientUnits="userSpaceOnUse" spreadMethod="reflect" id="fill79"><stop offset="0" stop-color="#AFAFAF"/><stop offset="0.5" stop-color="#A5A5A5"/><stop offset="1" stop-color="#929292"/></linearGradient><clipPath id="clip80"><rect x="1511" y="640" width="5358" height="2415"/></clipPath><linearGradient x1="5001.5" y1="2921" x2="5001.5" y2="3053" gradientUnits="userSpaceOnUse" spreadMethod="reflect" id="fill81"><stop offset="0" stop-color="#AFAFAF"/><stop offset="0.5" stop-color="#A5A5A5"/><stop offset="1" stop-color="#929292"/></linearGradient><clipPath id="clip82"><rect x="1511" y="640" width="5358" height="2415"/></clipPath><linearGradient x1="5358.5" y1="1251" x2="5358.5" y2="3053" gradientUnits="userSpaceOnUse" spreadMethod="reflect" id="fill83"><stop offset="0" stop-color="#AFAFAF"/><stop offset="0.5" stop-color="#A5A5A5"/><stop offset="1" stop-color="#929292"/></linearGradient><clipPath id="clip84"><rect x="1511" y="640" width="5358" height="2415"/></clipPath><linearGradient x1="5715" y1="2572" x2="5715" y2="3053" gradientUnits="userSpaceOnUse" spreadMethod="reflect" id="fill85"><stop offset="0" stop-color="#AFAFAF"/><stop offset="0.5" stop-color="#A5A5A5"/><stop offset="1" stop-color="#929292"/></linearGradient><clipPath id="clip86"><rect x="1511" y="640" width="5358" height="2415"/></clipPath><linearGradient x1="6072" y1="2836" x2="6072" y2="3053" gradientUnits="userSpaceOnUse" spreadMethod="reflect" id="fill87"><stop offset="0" stop-color="#AFAFAF"/><stop offset="0.5" stop-color="#A5A5A5"/><stop offset="1" stop-color="#929292"/></linearGradient><clipPath id="clip88"><rect x="1511" y="640" width="5358" height="2415"/></clipPath><linearGradient x1="6429" y1="2913" x2="6429" y2="3053" gradientUnits="userSpaceOnUse" spreadMethod="reflect" id="fill89"><stop offset="0" stop-color="#AFAFAF"/><stop offset="0.5" stop-color="#A5A5A5"/><stop offset="1" stop-color="#929292"/></linearGradient><clipPath id="clip90"><rect x="1511" y="640" width="5358" height="2415"/></clipPath><linearGradient x1="6786" y1="2878" x2="6786" y2="3053" gradientUnits="userSpaceOnUse" spreadMethod="reflect" id="fill91"><stop offset="0" stop-color="#AFAFAF"/><stop offset="0.5" stop-color="#A5A5A5"/><stop offset="1" stop-color="#929292"/></linearGradient><clipPath id="clip92"><rect x="1268" y="175" width="5648" height="3202"/></clipPath><clipPath id="clip93"><rect x="1268" y="175" width="5648" height="3202"/></clipPath><clipPath id="clip94"><rect x="1268" y="175" width="5648" height="3202"/></clipPath><clipPath id="clip95"><rect x="1268" y="175" width="5648" height="3202"/></clipPath><clipPath id="clip96"><rect x="1268" y="175" width="5648" height="3202"/></clipPath><clipPath id="clip97"><rect x="1268" y="175" width="5648" height="3202"/></clipPath><clipPath id="clip98"><rect x="1268" y="175" width="5648" height="3202"/></clipPath><clipPath id="clip99"><rect x="1268" y="175" width="5648" height="3202"/></clipPath><clipPath id="clip100"><rect x="1268" y="175" width="5648" height="3202"/></clipPath><clipPath id="clip101"><rect x="1268" y="175" width="5648" height="3202"/></clipPath><clipPath id="clip102"><rect x="1268" y="175" width="5648" height="3202"/></clipPath><clipPath id="clip103"><rect x="1268" y="175" width="5648" height="3202"/></clipPath><clipPath id="clip104"><rect x="1268" y="175" width="5648" height="3202"/></clipPath><clipPath id="clip105"><rect x="1268" y="175" width="5648" height="3202"/></clipPath><clipPath id="clip106"><rect x="1268" y="175" width="5648" height="3202"/></clipPath><clipPath id="clip107"><rect x="1268" y="175" width="5648" height="3202"/></clipPath><clipPath id="clip108"><rect x="1268" y="175" width="5648" height="3202"/></clipPath><clipPath id="clip109"><rect x="1268" y="175" width="5648" height="3202"/></clipPath><clipPath id="clip110"><rect x="1268" y="175" width="5648" height="3202"/></clipPath><clipPath id="clip111"><rect x="1268" y="175" width="5648" height="3202"/></clipPath><clipPath id="clip112"><rect x="1268" y="175" width="5648" height="3202"/></clipPath><clipPath id="clip113"><rect x="1268" y="175" width="5648" height="3202"/></clipPath><clipPath id="clip114"><rect x="1268" y="175" width="5648" height="3202"/></clipPath><clipPath id="clip115"><rect x="1268" y="175" width="5648" height="3202"/></clipPath><clipPath id="clip116"><rect x="1268" y="175" width="5648" height="3202"/></clipPath><clipPath id="clip117"><rect x="1268" y="175" width="5648" height="3202"/></clipPath><clipPath id="clip118"><rect x="1268" y="175" width="5648" height="3202"/></clipPath><clipPath id="clip119"><rect x="1268" y="175" width="5648" height="3202"/></clipPath><clipPath id="clip120"><rect x="1268" y="175" width="5648" height="3202"/></clipPath><clipPath id="clip121"><rect x="1268" y="175" width="5648" height="3202"/></clipPath><clipPath id="clip122"><rect x="1268" y="175" width="5648" height="3202"/></clipPath><clipPath id="clip123"><rect x="1268" y="175" width="5648" height="3202"/></clipPath><clipPath id="clip124"><rect x="1268" y="175" width="5648" height="3202"/></clipPath><clipPath id="clip125"><rect x="1268" y="175" width="5648" height="3202"/></clipPath><clipPath id="clip126"><rect x="1268" y="175" width="5648" height="3202"/></clipPath><clipPath id="clip127"><rect x="1268" y="175" width="5648" height="3202"/></clipPath><clipPath id="clip128"><rect x="1268" y="175" width="5648" height="3202"/></clipPath><clipPath id="clip129"><rect x="1268" y="175" width="5648" height="3202"/></clipPath><clipPath id="clip130"><rect x="1268" y="175" width="5648" height="3202"/></clipPath><clipPath id="clip131"><rect x="1268" y="175" width="5648" height="3202"/></clipPath><clipPath id="clip132"><rect x="1268" y="175" width="5648" height="3202"/></clipPath><clipPath id="clip133"><rect x="1268" y="175" width="5648" height="3202"/></clipPath><clipPath id="clip134"><rect x="1268" y="175" width="5648" height="3202"/></clipPath><clipPath id="clip135"><rect x="1268" y="175" width="5648" height="3202"/></clipPath><clipPath id="clip136"><rect x="1268" y="175" width="5648" height="3202"/></clipPath><clipPath id="clip137"><rect x="1268" y="175" width="5648" height="3202"/></clipPath><clipPath id="clip138"><rect x="1268" y="175" width="5648" height="3202"/></clipPath><clipPath id="clip139"><rect x="1268" y="175" width="5648" height="3202"/></clipPath><clipPath id="clip140"><rect x="1268" y="175" width="5648" height="3202"/></clipPath><clipPath id="clip141"><rect x="1268" y="175" width="5648" height="3202"/></clipPath><clipPath id="clip142"><rect x="1268" y="175" width="5648" height="3202"/></clipPath><clipPath id="clip143"><rect x="1268" y="175" width="5648" height="3202"/></clipPath><clipPath id="clip144"><rect x="1268" y="175" width="5648" height="3202"/></clipPath><clipPath id="clip145"><rect x="1268" y="175" width="5648" height="3202"/></clipPath><clipPath id="clip146"><rect x="1268" y="175" width="5648" height="3202"/></clipPath><clipPath id="clip147"><rect x="1268" y="175" width="5648" height="3202"/></clipPath><clipPath id="clip148"><rect x="1268" y="175" width="5648" height="3202"/></clipPath><clipPath id="clip149"><rect x="1268" y="175" width="5648" height="3202"/></clipPath><clipPath id="clip150"><rect x="1268" y="175" width="5648" height="3202"/></clipPath><clipPath id="clip151"><rect x="1268" y="175" width="5648" height="3202"/></clipPath><clipPath id="clip152"><rect x="1268" y="175" width="5648" height="3202"/></clipPath><clipPath id="clip153"><rect x="1268" y="175" width="5648" height="3202"/></clipPath><clipPath id="clip154"><rect x="1268" y="175" width="5648" height="3202"/></clipPath><clipPath id="clip155"><rect x="1268" y="175" width="5648" height="3202"/></clipPath><clipPath id="clip156"><rect x="1268" y="175" width="5648" height="3202"/></clipPath><clipPath id="clip157"><rect x="1268" y="175" width="5648" height="3202"/></clipPath><clipPath id="clip158"><rect x="1268" y="175" width="5648" height="3202"/></clipPath><clipPath id="clip159"><rect x="1268" y="175" width="5648" height="3202"/></clipPath><clipPath id="clip160"><rect x="1268" y="175" width="5648" height="3202"/></clipPath><clipPath id="clip161"><rect x="1268" y="175" width="5648" height="3202"/></clipPath><clipPath id="clip162"><rect x="1268" y="175" width="5648" height="3202"/></clipPath><clipPath id="clip163"><rect x="1268" y="175" width="5648" height="3202"/></clipPath><clipPath id="clip164"><rect x="1268" y="175" width="5648" height="3202"/></clipPath><clipPath id="clip165"><rect x="1268" y="175" width="5648" height="3202"/></clipPath><clipPath id="clip166"><rect x="1268" y="175" width="5648" height="3202"/></clipPath><clipPath id="clip167"><rect x="1268" y="175" width="5648" height="3202"/></clipPath><clipPath id="clip168"><rect x="1268" y="175" width="5648" height="3202"/></clipPath><clipPath id="clip169"><rect x="1268" y="175" width="5648" height="3202"/></clipPath><clipPath id="clip170"><rect x="1268" y="175" width="5648" height="3202"/></clipPath><clipPath id="clip171"><rect x="1268" y="175" width="5648" height="3202"/></clipPath><clipPath id="clip172"><rect x="1268" y="175" width="5648" height="3202"/></clipPath><clipPath id="clip173"><rect x="1268" y="175" width="5648" height="3202"/></clipPath><linearGradient x1="3845.5" y1="540" x2="3845.5" y2="563" gradientUnits="userSpaceOnUse" spreadMethod="reflect" id="fill174"><stop offset="0" stop-color="#6083CB"/><stop offset="0.5" stop-color="#3E70CA"/><stop offset="1" stop-color="#2E61BA"/></linearGradient><clipPath id="clip175"><rect x="1268" y="175" width="5648" height="3202"/></clipPath><clipPath id="clip176"><rect x="1268" y="175" width="5648" height="3202"/></clipPath><linearGradient x1="3993" y1="540" x2="3993" y2="563" gradientUnits="userSpaceOnUse" spreadMethod="reflect" id="fill177"><stop offset="0" stop-color="#F18C55"/><stop offset="0.5" stop-color="#F67B28"/><stop offset="1" stop-color="#E56B17"/></linearGradient><clipPath id="clip178"><rect x="1268" y="175" width="5648" height="3202"/></clipPath><clipPath id="clip179"><rect x="1268" y="175" width="5648" height="3202"/></clipPath><linearGradient x1="4204.5" y1="540" x2="4204.5" y2="563" gradientUnits="userSpaceOnUse" spreadMethod="reflect" id="fill180"><stop offset="0" stop-color="#AFAFAF"/><stop offset="0.5" stop-color="#A5A5A5"/><stop offset="1" stop-color="#929292"/></linearGradient><clipPath id="clip181"><rect x="1268" y="175" width="5648" height="3202"/></clipPath></defs><g clip-path="url(#clip0)" transform="translate(-1267 -174)"><rect x="1268" y="175" width="5648" height="3202" fill="#FFFFFF"/><g clip-path="url(#clip1)"><path d="M1511.5 2650.59 6865.5 2650.59M1511.5 2248.57 6865.5 2248.57M1511.5 1846.56 6865.5 1846.56M1511.5 1444.55 6865.5 1444.55M1511.5 1042.53 6865.5 1042.53M1511.5 640.5 6865.5 640.5" stroke="#E0E5EB" stroke-width="3.4375" stroke-linejoin="round" stroke-miterlimit="10" fill="none"/></g><g clip-path="url(#clip2)"><rect x="1552" y="2869" width="79.0001" height="184" fill="url(#fill3)"/></g><g clip-path="url(#clip4)"><rect x="1908" y="2934" width="79.9998" height="119" fill="url(#fill5)"/></g><g clip-path="url(#clip6)"><rect x="2265" y="2968" width="80" height="85" fill="url(#fill7)"/></g><g clip-path="url(#clip8)"><rect x="2622" y="2978" width="79.9998" height="75" fill="url(#fill9)"/></g><g clip-path="url(#clip10)"><rect x="2979" y="2969" width="80" height="83.9998" fill="url(#fill11)"/></g><g clip-path="url(#clip12)"><rect x="3336" y="2638" width="79.9998" height="415" fill="url(#fill13)"/></g><g clip-path="url(#clip14)"><rect x="3693" y="2851" width="80" height="202" fill="url(#fill15)"/></g><g clip-path="url(#clip16)"><rect x="4050" y="2918" width="80" height="135" fill="url(#fill17)"/></g><g clip-path="url(#clip18)"><rect x="4407" y="2952" width="80" height="101" fill="url(#fill19)"/></g><g clip-path="url(#clip20)"><rect x="4764" y="2917" width="80" height="136" fill="url(#fill21)"/></g><g clip-path="url(#clip22)"><rect x="5121" y="1113" width="80" height="1940" fill="url(#fill23)"/></g><g clip-path="url(#clip24)"><rect x="5478" y="2533" width="80" height="520" fill="url(#fill25)"/></g><g clip-path="url(#clip26)"><rect x="5835" y="2823" width="79.9995" height="230" fill="url(#fill27)"/></g><g clip-path="url(#clip28)"><rect x="6192" y="2905" width="79" height="148" fill="url(#fill29)"/></g><g clip-path="url(#clip30)"><rect x="6549" y="2871" width="78.9995" height="182" fill="url(#fill31)"/></g><g clip-path="url(#clip32)"><rect x="1650" y="2839" width="80.0001" height="214" fill="url(#fill33)"/></g><g clip-path="url(#clip34)"><rect x="2007" y="2938" width="79.9996" height="115" fill="url(#fill35)"/></g><g clip-path="url(#clip36)"><rect x="2364" y="2969" width="80" height="83.9998" fill="url(#fill37)"/></g><g clip-path="url(#clip38)"><rect x="2721" y="2977" width="79.9998" height="76" fill="url(#fill39)"/></g><g clip-path="url(#clip40)"><rect x="3078" y="2967" width="80" height="86" fill="url(#fill41)"/></g><g clip-path="url(#clip42)"><rect x="3435" y="2527" width="79.9998" height="526" fill="url(#fill43)"/></g><g clip-path="url(#clip44)"><rect x="3792" y="2860" width="80" height="193" fill="url(#fill45)"/></g><g clip-path="url(#clip46)"><rect x="4149" y="2925" width="80" height="128" fill="url(#fill47)"/></g><g clip-path="url(#clip48)"><rect x="4506" y="2953" width="80" height="99.9998" fill="url(#fill49)"/></g><g clip-path="url(#clip50)"><rect x="4863" y="2916" width="79" height="137" fill="url(#fill51)"/></g><g clip-path="url(#clip52)"><rect x="5220" y="826" width="79" height="2227" fill="url(#fill53)"/></g><g clip-path="url(#clip54)"><rect x="5577" y="2575" width="79" height="478" fill="url(#fill55)"/></g><g clip-path="url(#clip56)"><rect x="5934" y="2836" width="78.9995" height="217" fill="url(#fill57)"/></g><g clip-path="url(#clip58)"><rect x="6291" y="2913" width="79" height="140" fill="url(#fill59)"/></g><g clip-path="url(#clip60)"><rect x="6648" y="2869" width="78.9995" height="184" fill="url(#fill61)"/></g><g clip-path="url(#clip62)"><rect x="1749" y="2870" width="80.0001" height="183" fill="url(#fill63)"/></g><g clip-path="url(#clip64)"><rect x="2106" y="2936" width="79.9998" height="117" fill="url(#fill65)"/></g><g clip-path="url(#clip66)"><rect x="2463" y="2971" width="80" height="81.9998" fill="url(#fill67)"/></g><g clip-path="url(#clip68)"><rect x="2820" y="2980" width="79.9998" height="72.9998" fill="url(#fill69)"/></g><g clip-path="url(#clip70)"><rect x="3177" y="2968" width="80" height="85" fill="url(#fill71)"/></g><g clip-path="url(#clip72)"><rect x="3534" y="2636" width="79.9998" height="417" fill="url(#fill73)"/></g><g clip-path="url(#clip74)"><rect x="3891" y="2857" width="79" height="196" fill="url(#fill75)"/></g><g clip-path="url(#clip76)"><rect x="4248" y="2925" width="79" height="128" fill="url(#fill77)"/></g><g clip-path="url(#clip78)"><rect x="4605" y="2953" width="79" height="99.9998" fill="url(#fill79)"/></g><g clip-path="url(#clip80)"><rect x="4962" y="2921" width="79" height="132" fill="url(#fill81)"/></g><g clip-path="url(#clip82)"><rect x="5319" y="1251" width="79" height="1802" fill="url(#fill83)"/></g><g clip-path="url(#clip84)"><rect x="5675" y="2572" width="80" height="481" fill="url(#fill85)"/></g><g clip-path="url(#clip86)"><rect x="6032" y="2836" width="79.9995" height="217" fill="url(#fill87)"/></g><g clip-path="url(#clip88)"><rect x="6389" y="2913" width="80" height="140" fill="url(#fill89)"/></g><g clip-path="url(#clip90)"><rect x="6746" y="2878" width="79.9995" height="175" fill="url(#fill91)"/></g><g clip-path="url(#clip92)"><path d="M1511.5 3052.5 6865.5 3052.5" stroke="#E0E5EB" stroke-width="3.4375" stroke-linejoin="round" stroke-miterlimit="10" fill="none" fill-rule="evenodd"/></g><g clip-path="url(#clip93)"><path d="M1511.5 3052.5 1511.5 3132.5M3296.61 3052.5 3296.61 3132.5M5080.67 3052.5 5080.67 3132.5M6865.5 3052.5 6865.5 3132.5" stroke="#E0E5EB" stroke-width="3.4375" stroke-linejoin="round" stroke-miterlimit="10" fill="none"/></g><g clip-path="url(#clip94)"><path d="M1511.5 3132.5 1511.5 3212.5M3296.61 3132.5 3296.61 3212.5M5080.67 3132.5 5080.67 3212.5M6865.5 3132.5 6865.5 3212.5" stroke="#E0E5EB" stroke-width="3.4375" stroke-linejoin="round" stroke-miterlimit="10" fill="none"/></g><g clip-path="url(#clip95)"><text fill="#44546A" font-family="Calibri,Calibri_MSFontService,sans-serif" font-weight="400" font-size="41" transform="matrix(1 0 0 1 1560.02 2837)">228</text></g><g clip-path="url(#clip96)"><text fill="#44546A" font-family="Calibri,Calibri_MSFontService,sans-serif" font-weight="400" font-size="41" transform="matrix(1 0 0 1 1916.96 2902)">148</text></g><g clip-path="url(#clip97)"><text fill="#44546A" font-family="Calibri,Calibri_MSFontService,sans-serif" font-weight="400" font-size="41" transform="matrix(1 0 0 1 2273.9 2936)">105</text></g><g clip-path="url(#clip98)"><text fill="#44546A" font-family="Calibri,Calibri_MSFontService,sans-serif" font-weight="400" font-size="41" transform="matrix(1 0 0 1 2641.3 2946)">93</text></g><g clip-path="url(#clip99)"><text fill="#44546A" font-family="Calibri,Calibri_MSFontService,sans-serif" font-weight="400" font-size="41" transform="matrix(1 0 0 1 2987.79 2937)">104</text></g><g clip-path="url(#clip100)"><text fill="#44546A" font-family="Calibri,Calibri_MSFontService,sans-serif" font-weight="400" font-size="41" transform="matrix(1 0 0 1 3344.73 2606)">516</text></g><g clip-path="url(#clip101)"><text fill="#44546A" font-family="Calibri,Calibri_MSFontService,sans-serif" font-weight="400" font-size="41" transform="matrix(1 0 0 1 3701.67 2819)">250</text></g><g clip-path="url(#clip102)"><text fill="#44546A" font-family="Calibri,Calibri_MSFontService,sans-serif" font-weight="400" font-size="41" transform="matrix(1 0 0 1 4058.62 2886)">167</text></g><g clip-path="url(#clip103)"><text fill="#44546A" font-family="Calibri,Calibri_MSFontService,sans-serif" font-weight="400" font-size="41" transform="matrix(1 0 0 1 4415.56 2920)">126</text></g><g clip-path="url(#clip104)"><text fill="#44546A" font-family="Calibri,Calibri_MSFontService,sans-serif" font-weight="400" font-size="41" transform="matrix(1 0 0 1 4772.5 2885)">169</text></g><g clip-path="url(#clip105)"><text fill="#44546A" font-family="Calibri,Calibri_MSFontService,sans-serif" font-weight="400" font-size="41" transform="matrix(1 0 0 1 5118.99 1081)">2412</text></g><g clip-path="url(#clip106)"><text fill="#44546A" font-family="Calibri,Calibri_MSFontService,sans-serif" font-weight="400" font-size="41" transform="matrix(1 0 0 1 5486.39 2501)">646</text></g><g clip-path="url(#clip107)"><text fill="#44546A" font-family="Calibri,Calibri_MSFontService,sans-serif" font-weight="400" font-size="41" transform="matrix(1 0 0 1 5843.33 2791)">286</text></g><g clip-path="url(#clip108)"><text fill="#44546A" font-family="Calibri,Calibri_MSFontService,sans-serif" font-weight="400" font-size="41" transform="matrix(1 0 0 1 6200.27 2873)">184</text></g><g clip-path="url(#clip109)"><text fill="#44546A" font-family="Calibri,Calibri_MSFontService,sans-serif" font-weight="400" font-size="41" transform="matrix(1 0 0 1 6557.21 2839)">226</text></g><g clip-path="url(#clip110)"><text fill="#44546A" font-family="Calibri,Calibri_MSFontService,sans-serif" font-weight="400" font-size="41" transform="matrix(1 0 0 1 1658.81 2807)">266</text></g><g clip-path="url(#clip111)"><text fill="#44546A" font-family="Calibri,Calibri_MSFontService,sans-serif" font-weight="400" font-size="41" transform="matrix(1 0 0 1 2015.76 2906)">143</text></g><g clip-path="url(#clip112)"><text fill="#44546A" font-family="Calibri,Calibri_MSFontService,sans-serif" font-weight="400" font-size="41" transform="matrix(1 0 0 1 2372.7 2937)">103</text></g><g clip-path="url(#clip113)"><text fill="#44546A" font-family="Calibri,Calibri_MSFontService,sans-serif" font-weight="400" font-size="41" transform="matrix(1 0 0 1 2740.09 2945)">93</text></g><g clip-path="url(#clip114)"><text fill="#44546A" font-family="Calibri,Calibri_MSFontService,sans-serif" font-weight="400" font-size="41" transform="matrix(1 0 0 1 3086.59 2935)">107</text></g><g clip-path="url(#clip115)"><text fill="#44546A" font-family="Calibri,Calibri_MSFontService,sans-serif" font-weight="400" font-size="41" transform="matrix(1 0 0 1 3443.53 2495)">653</text></g><g clip-path="url(#clip116)"><text fill="#44546A" font-family="Calibri,Calibri_MSFontService,sans-serif" font-weight="400" font-size="41" transform="matrix(1 0 0 1 3800.47 2828)">239</text></g><g clip-path="url(#clip117)"><text fill="#44546A" font-family="Calibri,Calibri_MSFontService,sans-serif" font-weight="400" font-size="41" transform="matrix(1 0 0 1 4157.41 2893)">159</text></g><g clip-path="url(#clip118)"><text fill="#44546A" font-family="Calibri,Calibri_MSFontService,sans-serif" font-weight="400" font-size="41" transform="matrix(1 0 0 1 4514.36 2921)">124</text></g><g clip-path="url(#clip119)"><text fill="#44546A" font-family="Calibri,Calibri_MSFontService,sans-serif" font-weight="400" font-size="41" transform="matrix(1 0 0 1 4871.3 2884)">170</text></g><g clip-path="url(#clip120)"><text fill="#44546A" font-family="Calibri,Calibri_MSFontService,sans-serif" font-weight="400" font-size="41" transform="matrix(1 0 0 1 5217.79 794)">2769</text></g><g clip-path="url(#clip121)"><text fill="#44546A" font-family="Calibri,Calibri_MSFontService,sans-serif" font-weight="400" font-size="41" transform="matrix(1 0 0 1 5585.18 2543)">594</text></g><g clip-path="url(#clip122)"><text fill="#44546A" font-family="Calibri,Calibri_MSFontService,sans-serif" font-weight="400" font-size="41" transform="matrix(1 0 0 1 5942.13 2804)">269</text></g><g clip-path="url(#clip123)"><text fill="#44546A" font-family="Calibri,Calibri_MSFontService,sans-serif" font-weight="400" font-size="41" transform="matrix(1 0 0 1 6299.07 2881)">173</text></g><g clip-path="url(#clip124)"><text fill="#44546A" font-family="Calibri,Calibri_MSFontService,sans-serif" font-weight="400" font-size="41" transform="matrix(1 0 0 1 6656.01 2837)">228</text></g><g clip-path="url(#clip125)"><text fill="#44546A" font-family="Calibri,Calibri_MSFontService,sans-serif" font-weight="400" font-size="41" transform="matrix(1 0 0 1 1757.61 2838)">227</text></g><g clip-path="url(#clip126)"><text fill="#44546A" font-family="Calibri,Calibri_MSFontService,sans-serif" font-weight="400" font-size="41" transform="matrix(1 0 0 1 2114.55 2904)">144</text></g><g clip-path="url(#clip127)"><text fill="#44546A" font-family="Calibri,Calibri_MSFontService,sans-serif" font-weight="400" font-size="41" transform="matrix(1 0 0 1 2471.5 2939)">102</text></g><g clip-path="url(#clip128)"><text fill="#44546A" font-family="Calibri,Calibri_MSFontService,sans-serif" font-weight="400" font-size="41" transform="matrix(1 0 0 1 2838.89 2948)">90</text></g><g clip-path="url(#clip129)"><text fill="#44546A" font-family="Calibri,Calibri_MSFontService,sans-serif" font-weight="400" font-size="41" transform="matrix(1 0 0 1 3185.38 2936)">105</text></g><g clip-path="url(#clip130)"><text fill="#44546A" font-family="Calibri,Calibri_MSFontService,sans-serif" font-weight="400" font-size="41" transform="matrix(1 0 0 1 3542.32 2604)">518</text></g><g clip-path="url(#clip131)"><text fill="#44546A" font-family="Calibri,Calibri_MSFontService,sans-serif" font-weight="400" font-size="41" transform="matrix(1 0 0 1 3899.27 2825)">243</text></g><g clip-path="url(#clip132)"><text fill="#44546A" font-family="Calibri,Calibri_MSFontService,sans-serif" font-weight="400" font-size="41" transform="matrix(1 0 0 1 4256.21 2893)">158</text></g><g clip-path="url(#clip133)"><text fill="#44546A" font-family="Calibri,Calibri_MSFontService,sans-serif" font-weight="400" font-size="41" transform="matrix(1 0 0 1 4613.15 2921)">123</text></g><g clip-path="url(#clip134)"><text fill="#44546A" font-family="Calibri,Calibri_MSFontService,sans-serif" font-weight="400" font-size="41" transform="matrix(1 0 0 1 4970.09 2889)">164</text></g><g clip-path="url(#clip135)"><text fill="#44546A" font-family="Calibri,Calibri_MSFontService,sans-serif" font-weight="400" font-size="41" transform="matrix(1 0 0 1 5316.59 1219)">2241</text></g><g clip-path="url(#clip136)"><text fill="#44546A" font-family="Calibri,Calibri_MSFontService,sans-serif" font-weight="400" font-size="41" transform="matrix(1 0 0 1 5683.98 2540)">597</text></g><g clip-path="url(#clip137)"><text fill="#44546A" font-family="Calibri,Calibri_MSFontService,sans-serif" font-weight="400" font-size="41" transform="matrix(1 0 0 1 6040.92 2804)">269</text></g><g clip-path="url(#clip138)"><text fill="#44546A" font-family="Calibri,Calibri_MSFontService,sans-serif" font-weight="400" font-size="41" transform="matrix(1 0 0 1 6397.87 2881)">174</text></g><g clip-path="url(#clip139)"><text fill="#44546A" font-family="Calibri,Calibri_MSFontService,sans-serif" font-weight="400" font-size="41" transform="matrix(1 0 0 1 6754.81 2846)">217</text></g><g clip-path="url(#clip140)"><text fill="#44546A" font-family="Calibri,Calibri_MSFontService,sans-serif" font-weight="400" font-size="41" transform="matrix(1 0 0 1 1452.53 3064)">0</text></g><g clip-path="url(#clip141)"><text fill="#44546A" font-family="Calibri,Calibri_MSFontService,sans-serif" font-weight="400" font-size="41" transform="matrix(1 0 0 1 1410.73 2662)">500</text></g><g clip-path="url(#clip142)"><text fill="#44546A" font-family="Calibri,Calibri_MSFontService,sans-serif" font-weight="400" font-size="41" transform="matrix(1 0 0 1 1389.83 2260)">1000</text></g><g clip-path="url(#clip143)"><text fill="#44546A" font-family="Calibri,Calibri_MSFontService,sans-serif" font-weight="400" font-size="41" transform="matrix(1 0 0 1 1389.83 1858)">1500</text></g><g clip-path="url(#clip144)"><text fill="#44546A" font-family="Calibri,Calibri_MSFontService,sans-serif" font-weight="400" font-size="41" transform="matrix(1 0 0 1 1389.83 1456)">2000</text></g><g clip-path="url(#clip145)"><text fill="#44546A" font-family="Calibri,Calibri_MSFontService,sans-serif" font-weight="400" font-size="41" transform="matrix(1 0 0 1 1389.83 1054)">2500</text></g><g clip-path="url(#clip146)"><text fill="#44546A" font-family="Calibri,Calibri_MSFontService,sans-serif" font-weight="400" font-size="41" transform="matrix(1 0 0 1 1389.83 652)">3000</text></g><g clip-path="url(#clip147)"><text fill="#44546A" font-family="Calibri,Calibri_MSFontService,sans-serif" font-weight="400" font-size="41" transform="matrix(1 0 0 1 1679.72 3118)">1</text></g><g clip-path="url(#clip148)"><text fill="#44546A" font-family="Calibri,Calibri_MSFontService,sans-serif" font-weight="400" font-size="41" transform="matrix(1 0 0 1 2036.66 3118)">4</text></g><g clip-path="url(#clip149)"><text fill="#44546A" font-family="Calibri,Calibri_MSFontService,sans-serif" font-weight="400" font-size="41" transform="matrix(1 0 0 1 2383.15 3118)">16</text></g><g clip-path="url(#clip150)"><text fill="#44546A" font-family="Calibri,Calibri_MSFontService,sans-serif" font-weight="400" font-size="41" transform="matrix(1 0 0 1 2740.09 3118)">40</text></g><g clip-path="url(#clip151)"><text fill="#44546A" font-family="Calibri,Calibri_MSFontService,sans-serif" font-weight="400" font-size="41" transform="matrix(1 0 0 1 3097.04 3118)">80</text></g><g clip-path="url(#clip152)"><text fill="#44546A" font-family="Calibri,Calibri_MSFontService,sans-serif" font-weight="400" font-size="41" transform="matrix(1 0 0 1 3464.43 3118)">1</text></g><g clip-path="url(#clip153)"><text fill="#44546A" font-family="Calibri,Calibri_MSFontService,sans-serif" font-weight="400" font-size="41" transform="matrix(1 0 0 1 3821.37 3118)">4</text></g><g clip-path="url(#clip154)"><text fill="#44546A" font-family="Calibri,Calibri_MSFontService,sans-serif" font-weight="400" font-size="41" transform="matrix(1 0 0 1 4167.86 3118)">16</text></g><g clip-path="url(#clip155)"><text fill="#44546A" font-family="Calibri,Calibri_MSFontService,sans-serif" font-weight="400" font-size="41" transform="matrix(1 0 0 1 4524.81 3118)">40</text></g><g clip-path="url(#clip156)"><text fill="#44546A" font-family="Calibri,Calibri_MSFontService,sans-serif" font-weight="400" font-size="41" transform="matrix(1 0 0 1 4881.75 3118)">80</text></g><g clip-path="url(#clip157)"><text fill="#44546A" font-family="Calibri,Calibri_MSFontService,sans-serif" font-weight="400" font-size="41" transform="matrix(1 0 0 1 5249.14 3118)">1</text></g><g clip-path="url(#clip158)"><text fill="#44546A" font-family="Calibri,Calibri_MSFontService,sans-serif" font-weight="400" font-size="41" transform="matrix(1 0 0 1 5606.08 3118)">4</text></g><g clip-path="url(#clip159)"><text fill="#44546A" font-family="Calibri,Calibri_MSFontService,sans-serif" font-weight="400" font-size="41" transform="matrix(1 0 0 1 5952.58 3118)">16</text></g><g clip-path="url(#clip160)"><text fill="#44546A" font-family="Calibri,Calibri_MSFontService,sans-serif" font-weight="400" font-size="41" transform="matrix(1 0 0 1 6309.52 3118)">40</text></g><g clip-path="url(#clip161)"><text fill="#44546A" font-family="Calibri,Calibri_MSFontService,sans-serif" font-weight="400" font-size="41" transform="matrix(1 0 0 1 6666.46 3118)">80</text></g><g clip-path="url(#clip162)"><text fill="#44546A" font-family="Calibri,Calibri_MSFontService,sans-serif" font-weight="400" font-size="41" transform="matrix(1 0 0 1 2383.15 3198)">32</text></g><g clip-path="url(#clip163)"><text fill="#44546A" font-family="Calibri,Calibri_MSFontService,sans-serif" font-weight="400" font-size="41" transform="matrix(1 0 0 1 4157.41 3198)">128</text></g><g clip-path="url(#clip164)"><text fill="#44546A" font-family="Calibri,Calibri_MSFontService,sans-serif" font-weight="400" font-size="41" transform="matrix(1 0 0 1 5942.13 3198)">512</text></g><g clip-path="url(#clip165)"><text fill="#44546A" font-family="Calibri,Calibri_MSFontService,sans-serif" font-weight="700" font-size="41" transform="matrix(6.12323e-17 -1 1 6.12323e-17 1364.73 1955)">Latency (ms)</text></g><g clip-path="url(#clip166)"><text fill="#44546A" font-family="Calibri,Calibri_MSFontService,sans-serif" font-weight="700" font-size="41" transform="matrix(1 0 0 1 4043.64 3258)">Number of Cores</text></g><g clip-path="url(#clip167)"><text fill="#44546A" font-family="Calibri,Calibri_MSFontService,sans-serif" font-weight="700" font-size="41" transform="matrix(1 0 0 1 4043.21 3309)">Sequence Length</text></g><g clip-path="url(#clip168)"><text fill="#44546A" font-family="Calibri,Calibri_MSFontService,sans-serif" font-weight="700" font-size="73" transform="matrix(1 0 0 1 3531.88 280)">Intel Ice lake Xeon 8380 </text></g><g clip-path="url(#clip169)"><text fill="#44546A" font-family="Calibri,Calibri_MSFontService,sans-serif" font-weight="700" font-size="73" transform="matrix(1 0 0 1 4267.23 280)">-</text></g><g clip-path="url(#clip170)"><text fill="#44546A" font-family="Calibri,Calibri_MSFontService,sans-serif" font-weight="700" font-size="73" transform="matrix(1 0 0 1 4306.26 280)">TensorFlow</text></g><g clip-path="url(#clip171)"><text fill="#44546A" font-family="Calibri,Calibri_MSFontService,sans-serif" font-weight="700" font-size="73" transform="matrix(1 0 0 1 2318.97 369)">Latency Benchmark with varying number of CPU cores involved in the computations and different memory allocators</text></g><g clip-path="url(#clip172)"><text fill="#44546A" font-family="Calibri,Calibri_MSFontService,sans-serif" font-weight="700" font-size="73" transform="matrix(1 0 0 1 2999.87 459)">(some data might be missing indicating benchmark crashed during runs)</text></g><g clip-path="url(#clip173)"><rect x="3834" y="540" width="23" height="23.0001" fill="url(#fill174)"/></g><g clip-path="url(#clip175)"><text fill="#44546A" font-family="Calibri,Calibri_MSFontService,sans-serif" font-weight="400" font-size="41" transform="matrix(1 0 0 1 3866.18 563)">glibc</text></g><g clip-path="url(#clip176)"><rect x="3982" y="540" width="22" height="23.0001" fill="url(#fill177)"/></g><g clip-path="url(#clip178)"><text fill="#44546A" font-family="Calibri,Calibri_MSFontService,sans-serif" font-weight="400" font-size="41" transform="matrix(1 0 0 1 4013.79 563)">jemalloc</text></g><g clip-path="url(#clip179)"><rect x="4193" y="540" width="23" height="23.0001" fill="url(#fill180)"/></g><g clip-path="url(#clip181)"><text fill="#44546A" font-family="Calibri,Calibri_MSFontService,sans-serif" font-weight="400" font-size="41" transform="matrix(1 0 0 1 4225.17 563)">tcmalloc</text></g><rect x="1268.5" y="175.5" width="5648" height="3202" stroke="#E0E5EB" stroke-width="3.4375" stroke-linejoin="round" stroke-miterlimit="10" fill="none"/></g></svg>