<svg width="5468" height="3205" xmlns="http://www.w3.org/2000/svg" xmlns:xlink="http://www.w3.org/1999/xlink" overflow="hidden"><defs><clipPath id="clip0"><rect x="811" y="96" width="5468" height="3205"/></clipPath><clipPath id="clip1"><rect x="812" y="97" width="5464" height="3202"/></clipPath><clipPath id="clip2"><rect x="1055" y="562" width="5174" height="2466"/></clipPath><linearGradient x1="1132.5" y1="2795" x2="1132.5" y2="3025" gradientUnits="userSpaceOnUse" spreadMethod="reflect" id="fill3"><stop offset="0" stop-color="#6083CB"/><stop offset="0.5" stop-color="#3E70CA"/><stop offset="1" stop-color="#2E61BA"/></linearGradient><clipPath id="clip4"><rect x="1055" y="562" width="5174" height="2466"/></clipPath><linearGradient x1="1477" y1="2882" x2="1477" y2="3025" gradientUnits="userSpaceOnUse" spreadMethod="reflect" id="fill5"><stop offset="0" stop-color="#6083CB"/><stop offset="0.5" stop-color="#3E70CA"/><stop offset="1" stop-color="#2E61BA"/></linearGradient><clipPath id="clip6"><rect x="1055" y="562" width="5174" height="2466"/></clipPath><linearGradient x1="1821.5" y1="2892" x2="1821.5" y2="3025" gradientUnits="userSpaceOnUse" spreadMethod="reflect" id="fill7"><stop offset="0" stop-color="#6083CB"/><stop offset="0.5" stop-color="#3E70CA"/><stop offset="1" stop-color="#2E61BA"/></linearGradient><clipPath id="clip8"><rect x="1055" y="562" width="5174" height="2466"/></clipPath><linearGradient x1="2166.5" y1="2891" x2="2166.5" y2="3025" gradientUnits="userSpaceOnUse" spreadMethod="reflect" id="fill9"><stop offset="0" stop-color="#6083CB"/><stop offset="0.5" stop-color="#3E70CA"/><stop offset="1" stop-color="#2E61BA"/></linearGradient><clipPath id="clip10"><rect x="1055" y="562" width="5174" height="2466"/></clipPath><linearGradient x1="2511.5" y1="2892" x2="2511.5" y2="3025" gradientUnits="userSpaceOnUse" spreadMethod="reflect" id="fill11"><stop offset="0" stop-color="#6083CB"/><stop offset="0.5" stop-color="#3E70CA"/><stop offset="1" stop-color="#2E61BA"/></linearGradient><clipPath id="clip12"><rect x="1055" y="562" width="5174" height="2466"/></clipPath><linearGradient x1="2855.5" y1="2569" x2="2855.5" y2="3025" gradientUnits="userSpaceOnUse" spreadMethod="reflect" id="fill13"><stop offset="0" stop-color="#6083CB"/><stop offset="0.5" stop-color="#3E70CA"/><stop offset="1" stop-color="#2E61BA"/></linearGradient><clipPath id="clip14"><rect x="1055" y="562" width="5174" height="2466"/></clipPath><linearGradient x1="3200.5" y1="2730" x2="3200.5" y2="3025" gradientUnits="userSpaceOnUse" spreadMethod="reflect" id="fill15"><stop offset="0" stop-color="#6083CB"/><stop offset="0.5" stop-color="#3E70CA"/><stop offset="1" stop-color="#2E61BA"/></linearGradient><clipPath id="clip16"><rect x="1055" y="562" width="5174" height="2466"/></clipPath><linearGradient x1="3545.5" y1="2744" x2="3545.5" y2="3025" gradientUnits="userSpaceOnUse" spreadMethod="reflect" id="fill17"><stop offset="0" stop-color="#6083CB"/><stop offset="0.5" stop-color="#3E70CA"/><stop offset="1" stop-color="#2E61BA"/></linearGradient><clipPath id="clip18"><rect x="1055" y="562" width="5174" height="2466"/></clipPath><linearGradient x1="3890.5" y1="2737" x2="3890.5" y2="3025" gradientUnits="userSpaceOnUse" spreadMethod="reflect" id="fill19"><stop offset="0" stop-color="#6083CB"/><stop offset="0.5" stop-color="#3E70CA"/><stop offset="1" stop-color="#2E61BA"/></linearGradient><clipPath id="clip20"><rect x="1055" y="562" width="5174" height="2466"/></clipPath><linearGradient x1="4234.5" y1="2736" x2="4234.5" y2="3025" gradientUnits="userSpaceOnUse" spreadMethod="reflect" id="fill21"><stop offset="0" stop-color="#6083CB"/><stop offset="0.5" stop-color="#3E70CA"/><stop offset="1" stop-color="#2E61BA"/></linearGradient><clipPath id="clip22"><rect x="1055" y="562" width="5174" height="2466"/></clipPath><linearGradient x1="4579.5" y1="1061" x2="4579.5" y2="3025" gradientUnits="userSpaceOnUse" spreadMethod="reflect" id="fill23"><stop offset="0" stop-color="#6083CB"/><stop offset="0.5" stop-color="#3E70CA"/><stop offset="1" stop-color="#2E61BA"/></linearGradient><clipPath id="clip24"><rect x="1055" y="562" width="5174" height="2466"/></clipPath><linearGradient x1="4924.5" y1="1969" x2="4924.5" y2="3025" gradientUnits="userSpaceOnUse" spreadMethod="reflect" id="fill25"><stop offset="0" stop-color="#6083CB"/><stop offset="0.5" stop-color="#3E70CA"/><stop offset="1" stop-color="#2E61BA"/></linearGradient><clipPath id="clip26"><rect x="1055" y="562" width="5174" height="2466"/></clipPath><linearGradient x1="5268.5" y1="2015" x2="5268.5" y2="3025" gradientUnits="userSpaceOnUse" spreadMethod="reflect" id="fill27"><stop offset="0" stop-color="#6083CB"/><stop offset="0.5" stop-color="#3E70CA"/><stop offset="1" stop-color="#2E61BA"/></linearGradient><clipPath id="clip28"><rect x="1055" y="562" width="5174" height="2466"/></clipPath><linearGradient x1="5613.5" y1="1993" x2="5613.5" y2="3025" gradientUnits="userSpaceOnUse" spreadMethod="reflect" id="fill29"><stop offset="0" stop-color="#6083CB"/><stop offset="0.5" stop-color="#3E70CA"/><stop offset="1" stop-color="#2E61BA"/></linearGradient><clipPath id="clip30"><rect x="1055" y="562" width="5174" height="2466"/></clipPath><linearGradient x1="5958.5" y1="1944" x2="5958.5" y2="3025" gradientUnits="userSpaceOnUse" spreadMethod="reflect" id="fill31"><stop offset="0" stop-color="#6083CB"/><stop offset="0.5" stop-color="#3E70CA"/><stop offset="1" stop-color="#2E61BA"/></linearGradient><clipPath id="clip32"><rect x="1055" y="562" width="5174" height="2466"/></clipPath><linearGradient x1="1227.5" y1="2785" x2="1227.5" y2="3025" gradientUnits="userSpaceOnUse" spreadMethod="reflect" id="fill33"><stop offset="0" stop-color="#F18C55"/><stop offset="0.5" stop-color="#F67B28"/><stop offset="1" stop-color="#E56B17"/></linearGradient><clipPath id="clip34"><rect x="1055" y="562" width="5174" height="2466"/></clipPath><linearGradient x1="1572.5" y1="2884" x2="1572.5" y2="3025" gradientUnits="userSpaceOnUse" spreadMethod="reflect" id="fill35"><stop offset="0" stop-color="#F18C55"/><stop offset="0.5" stop-color="#F67B28"/><stop offset="1" stop-color="#E56B17"/></linearGradient><clipPath id="clip36"><rect x="1055" y="562" width="5174" height="2466"/></clipPath><linearGradient x1="1917.5" y1="2895" x2="1917.5" y2="3025" gradientUnits="userSpaceOnUse" spreadMethod="reflect" id="fill37"><stop offset="0" stop-color="#F18C55"/><stop offset="0.5" stop-color="#F67B28"/><stop offset="1" stop-color="#E56B17"/></linearGradient><clipPath id="clip38"><rect x="1055" y="562" width="5174" height="2466"/></clipPath><linearGradient x1="2261.5" y1="2892" x2="2261.5" y2="3025" gradientUnits="userSpaceOnUse" spreadMethod="reflect" id="fill39"><stop offset="0" stop-color="#F18C55"/><stop offset="0.5" stop-color="#F67B28"/><stop offset="1" stop-color="#E56B17"/></linearGradient><clipPath id="clip40"><rect x="1055" y="562" width="5174" height="2466"/></clipPath><linearGradient x1="2606.5" y1="2892" x2="2606.5" y2="3025" gradientUnits="userSpaceOnUse" spreadMethod="reflect" id="fill41"><stop offset="0" stop-color="#F18C55"/><stop offset="0.5" stop-color="#F67B28"/><stop offset="1" stop-color="#E56B17"/></linearGradient><clipPath id="clip42"><rect x="1055" y="562" width="5174" height="2466"/></clipPath><linearGradient x1="2951.5" y1="2540" x2="2951.5" y2="3025" gradientUnits="userSpaceOnUse" spreadMethod="reflect" id="fill43"><stop offset="0" stop-color="#F18C55"/><stop offset="0.5" stop-color="#F67B28"/><stop offset="1" stop-color="#E56B17"/></linearGradient><clipPath id="clip44"><rect x="1055" y="562" width="5174" height="2466"/></clipPath><linearGradient x1="3296" y1="2733" x2="3296" y2="3025" gradientUnits="userSpaceOnUse" spreadMethod="reflect" id="fill45"><stop offset="0" stop-color="#F18C55"/><stop offset="0.5" stop-color="#F67B28"/><stop offset="1" stop-color="#E56B17"/></linearGradient><clipPath id="clip46"><rect x="1055" y="562" width="5174" height="2466"/></clipPath><linearGradient x1="3640.5" y1="2745" x2="3640.5" y2="3025" gradientUnits="userSpaceOnUse" spreadMethod="reflect" id="fill47"><stop offset="0" stop-color="#F18C55"/><stop offset="0.5" stop-color="#F67B28"/><stop offset="1" stop-color="#E56B17"/></linearGradient><clipPath id="clip48"><rect x="1055" y="562" width="5174" height="2466"/></clipPath><linearGradient x1="3985.5" y1="2738" x2="3985.5" y2="3025" gradientUnits="userSpaceOnUse" spreadMethod="reflect" id="fill49"><stop offset="0" stop-color="#F18C55"/><stop offset="0.5" stop-color="#F67B28"/><stop offset="1" stop-color="#E56B17"/></linearGradient><clipPath id="clip50"><rect x="1055" y="562" width="5174" height="2466"/></clipPath><linearGradient x1="4330.5" y1="2735" x2="4330.5" y2="3025" gradientUnits="userSpaceOnUse" spreadMethod="reflect" id="fill51"><stop offset="0" stop-color="#F18C55"/><stop offset="0.5" stop-color="#F67B28"/><stop offset="1" stop-color="#E56B17"/></linearGradient><clipPath id="clip52"><rect x="1055" y="562" width="5174" height="2466"/></clipPath><linearGradient x1="4674.5" y1="1017" x2="4674.5" y2="3025" gradientUnits="userSpaceOnUse" spreadMethod="reflect" id="fill53"><stop offset="0" stop-color="#F18C55"/><stop offset="0.5" stop-color="#F67B28"/><stop offset="1" stop-color="#E56B17"/></linearGradient><clipPath id="clip54"><rect x="1055" y="562" width="5174" height="2466"/></clipPath><linearGradient x1="5019.5" y1="1969" x2="5019.5" y2="3025" gradientUnits="userSpaceOnUse" spreadMethod="reflect" id="fill55"><stop offset="0" stop-color="#F18C55"/><stop offset="0.5" stop-color="#F67B28"/><stop offset="1" stop-color="#E56B17"/></linearGradient><clipPath id="clip56"><rect x="1055" y="562" width="5174" height="2466"/></clipPath><linearGradient x1="5364.5" y1="2016" x2="5364.5" y2="3025" gradientUnits="userSpaceOnUse" spreadMethod="reflect" id="fill57"><stop offset="0" stop-color="#F18C55"/><stop offset="0.5" stop-color="#F67B28"/><stop offset="1" stop-color="#E56B17"/></linearGradient><clipPath id="clip58"><rect x="1055" y="562" width="5174" height="2466"/></clipPath><linearGradient x1="5709.5" y1="2006" x2="5709.5" y2="3025" gradientUnits="userSpaceOnUse" spreadMethod="reflect" id="fill59"><stop offset="0" stop-color="#F18C55"/><stop offset="0.5" stop-color="#F67B28"/><stop offset="1" stop-color="#E56B17"/></linearGradient><clipPath id="clip60"><rect x="1055" y="562" width="5174" height="2466"/></clipPath><linearGradient x1="6053.5" y1="1953" x2="6053.5" y2="3025" gradientUnits="userSpaceOnUse" spreadMethod="reflect" id="fill61"><stop offset="0" stop-color="#F18C55"/><stop offset="0.5" stop-color="#F67B28"/><stop offset="1" stop-color="#E56B17"/></linearGradient><clipPath id="clip62"><rect x="1055" y="562" width="5174" height="2466"/></clipPath><linearGradient x1="1323.5" y1="2797" x2="1323.5" y2="3025" gradientUnits="userSpaceOnUse" spreadMethod="reflect" id="fill63"><stop offset="0" stop-color="#AFAFAF"/><stop offset="0.5" stop-color="#A5A5A5"/><stop offset="1" stop-color="#929292"/></linearGradient><clipPath id="clip64"><rect x="1055" y="562" width="5174" height="2466"/></clipPath><linearGradient x1="1667.5" y1="2885" x2="1667.5" y2="3025" gradientUnits="userSpaceOnUse" spreadMethod="reflect" id="fill65"><stop offset="0" stop-color="#AFAFAF"/><stop offset="0.5" stop-color="#A5A5A5"/><stop offset="1" stop-color="#929292"/></linearGradient><clipPath id="clip66"><rect x="1055" y="562" width="5174" height="2466"/></clipPath><linearGradient x1="2012.5" y1="2892" x2="2012.5" y2="3025" gradientUnits="userSpaceOnUse" spreadMethod="reflect" id="fill67"><stop offset="0" stop-color="#AFAFAF"/><stop offset="0.5" stop-color="#A5A5A5"/><stop offset="1" stop-color="#929292"/></linearGradient><clipPath id="clip68"><rect x="1055" y="562" width="5174" height="2466"/></clipPath><linearGradient x1="2357.5" y1="2893" x2="2357.5" y2="3025" gradientUnits="userSpaceOnUse" spreadMethod="reflect" id="fill69"><stop offset="0" stop-color="#AFAFAF"/><stop offset="0.5" stop-color="#A5A5A5"/><stop offset="1" stop-color="#929292"/></linearGradient><clipPath id="clip70"><rect x="1055" y="562" width="5174" height="2466"/></clipPath><linearGradient x1="2702" y1="2894" x2="2702" y2="3025" gradientUnits="userSpaceOnUse" spreadMethod="reflect" id="fill71"><stop offset="0" stop-color="#AFAFAF"/><stop offset="0.5" stop-color="#A5A5A5"/><stop offset="1" stop-color="#929292"/></linearGradient><clipPath id="clip72"><rect x="1055" y="562" width="5174" height="2466"/></clipPath><linearGradient x1="3046.5" y1="2572" x2="3046.5" y2="3025" gradientUnits="userSpaceOnUse" spreadMethod="reflect" id="fill73"><stop offset="0" stop-color="#AFAFAF"/><stop offset="0.5" stop-color="#A5A5A5"/><stop offset="1" stop-color="#929292"/></linearGradient><clipPath id="clip74"><rect x="1055" y="562" width="5174" height="2466"/></clipPath><linearGradient x1="3391.5" y1="2735" x2="3391.5" y2="3025" gradientUnits="userSpaceOnUse" spreadMethod="reflect" id="fill75"><stop offset="0" stop-color="#AFAFAF"/><stop offset="0.5" stop-color="#A5A5A5"/><stop offset="1" stop-color="#929292"/></linearGradient><clipPath id="clip76"><rect x="1055" y="562" width="5174" height="2466"/></clipPath><linearGradient x1="3736.5" y1="2743" x2="3736.5" y2="3025" gradientUnits="userSpaceOnUse" spreadMethod="reflect" id="fill77"><stop offset="0" stop-color="#AFAFAF"/><stop offset="0.5" stop-color="#A5A5A5"/><stop offset="1" stop-color="#929292"/></linearGradient><clipPath id="clip78"><rect x="1055" y="562" width="5174" height="2466"/></clipPath><linearGradient x1="4080.5" y1="2736" x2="4080.5" y2="3025" gradientUnits="userSpaceOnUse" spreadMethod="reflect" id="fill79"><stop offset="0" stop-color="#AFAFAF"/><stop offset="0.5" stop-color="#A5A5A5"/><stop offset="1" stop-color="#929292"/></linearGradient><clipPath id="clip80"><rect x="1055" y="562" width="5174" height="2466"/></clipPath><linearGradient x1="4425.5" y1="2737" x2="4425.5" y2="3025" gradientUnits="userSpaceOnUse" spreadMethod="reflect" id="fill81"><stop offset="0" stop-color="#AFAFAF"/><stop offset="0.5" stop-color="#A5A5A5"/><stop offset="1" stop-color="#929292"/></linearGradient><clipPath id="clip82"><rect x="1055" y="562" width="5174" height="2466"/></clipPath><linearGradient x1="4770.5" y1="1086" x2="4770.5" y2="3025" gradientUnits="userSpaceOnUse" spreadMethod="reflect" id="fill83"><stop offset="0" stop-color="#AFAFAF"/><stop offset="0.5" stop-color="#A5A5A5"/><stop offset="1" stop-color="#929292"/></linearGradient><clipPath id="clip84"><rect x="1055" y="562" width="5174" height="2466"/></clipPath><linearGradient x1="5115.5" y1="1977" x2="5115.5" y2="3025" gradientUnits="userSpaceOnUse" spreadMethod="reflect" id="fill85"><stop offset="0" stop-color="#AFAFAF"/><stop offset="0.5" stop-color="#A5A5A5"/><stop offset="1" stop-color="#929292"/></linearGradient><clipPath id="clip86"><rect x="1055" y="562" width="5174" height="2466"/></clipPath><linearGradient x1="5459.5" y1="2009" x2="5459.5" y2="3025" gradientUnits="userSpaceOnUse" spreadMethod="reflect" id="fill87"><stop offset="0" stop-color="#AFAFAF"/><stop offset="0.5" stop-color="#A5A5A5"/><stop offset="1" stop-color="#929292"/></linearGradient><clipPath id="clip88"><rect x="1055" y="562" width="5174" height="2466"/></clipPath><linearGradient x1="5804.5" y1="2006" x2="5804.5" y2="3025" gradientUnits="userSpaceOnUse" spreadMethod="reflect" id="fill89"><stop offset="0" stop-color="#AFAFAF"/><stop offset="0.5" stop-color="#A5A5A5"/><stop offset="1" stop-color="#929292"/></linearGradient><clipPath id="clip90"><rect x="1055" y="562" width="5174" height="2466"/></clipPath><linearGradient x1="6149.5" y1="1951" x2="6149.5" y2="3025" gradientUnits="userSpaceOnUse" spreadMethod="reflect" id="fill91"><stop offset="0" stop-color="#AFAFAF"/><stop offset="0.5" stop-color="#A5A5A5"/><stop offset="1" stop-color="#929292"/></linearGradient><clipPath id="clip92"><rect x="812" y="97" width="5464" height="3202"/></clipPath><clipPath id="clip93"><rect x="812" y="97" width="5464" height="3202"/></clipPath><clipPath id="clip94"><rect x="812" y="97" width="5464" height="3202"/></clipPath><clipPath id="clip95"><rect x="812" y="97" width="5464" height="3202"/></clipPath><clipPath id="clip96"><rect x="812" y="97" width="5464" height="3202"/></clipPath><clipPath id="clip97"><rect x="812" y="97" width="5464" height="3202"/></clipPath><clipPath id="clip98"><rect x="812" y="97" width="5464" height="3202"/></clipPath><clipPath id="clip99"><rect x="812" y="97" width="5464" height="3202"/></clipPath><clipPath id="clip100"><rect x="812" y="97" width="5464" height="3202"/></clipPath><clipPath id="clip101"><rect x="812" y="97" width="5464" height="3202"/></clipPath><clipPath id="clip102"><rect x="812" y="97" width="5464" height="3202"/></clipPath><clipPath id="clip103"><rect x="812" y="97" width="5464" height="3202"/></clipPath><clipPath id="clip104"><rect x="812" y="97" width="5464" height="3202"/></clipPath><clipPath id="clip105"><rect x="812" y="97" width="5464" height="3202"/></clipPath><clipPath id="clip106"><rect x="812" y="97" width="5464" height="3202"/></clipPath><clipPath id="clip107"><rect x="812" y="97" width="5464" height="3202"/></clipPath><clipPath id="clip108"><rect x="812" y="97" width="5464" height="3202"/></clipPath><clipPath id="clip109"><rect x="812" y="97" width="5464" height="3202"/></clipPath><clipPath id="clip110"><rect x="812" y="97" width="5464" height="3202"/></clipPath><clipPath id="clip111"><rect x="812" y="97" width="5464" height="3202"/></clipPath><clipPath id="clip112"><rect x="812" y="97" width="5464" height="3202"/></clipPath><clipPath id="clip113"><rect x="812" y="97" width="5464" height="3202"/></clipPath><clipPath id="clip114"><rect x="812" y="97" width="5464" height="3202"/></clipPath><clipPath id="clip115"><rect x="812" y="97" width="5464" height="3202"/></clipPath><clipPath id="clip116"><rect x="812" y="97" width="5464" height="3202"/></clipPath><clipPath id="clip117"><rect x="812" y="97" width="5464" height="3202"/></clipPath><clipPath id="clip118"><rect x="812" y="97" width="5464" height="3202"/></clipPath><clipPath id="clip119"><rect x="812" y="97" width="5464" height="3202"/></clipPath><clipPath id="clip120"><rect x="812" y="97" width="5464" height="3202"/></clipPath><clipPath id="clip121"><rect x="812" y="97" width="5464" height="3202"/></clipPath><clipPath id="clip122"><rect x="812" y="97" width="5464" height="3202"/></clipPath><clipPath id="clip123"><rect x="812" y="97" width="5464" height="3202"/></clipPath><clipPath id="clip124"><rect x="812" y="97" width="5464" height="3202"/></clipPath><clipPath id="clip125"><rect x="812" y="97" width="5464" height="3202"/></clipPath><clipPath id="clip126"><rect x="812" y="97" width="5464" height="3202"/></clipPath><clipPath id="clip127"><rect x="812" y="97" width="5464" height="3202"/></clipPath><clipPath id="clip128"><rect x="812" y="97" width="5464" height="3202"/></clipPath><clipPath id="clip129"><rect x="812" y="97" width="5464" height="3202"/></clipPath><clipPath id="clip130"><rect x="812" y="97" width="5464" height="3202"/></clipPath><clipPath id="clip131"><rect x="812" y="97" width="5464" height="3202"/></clipPath><clipPath id="clip132"><rect x="812" y="97" width="5464" height="3202"/></clipPath><clipPath id="clip133"><rect x="812" y="97" width="5464" height="3202"/></clipPath><clipPath id="clip134"><rect x="812" y="97" width="5464" height="3202"/></clipPath><clipPath id="clip135"><rect x="812" y="97" width="5464" height="3202"/></clipPath><clipPath id="clip136"><rect x="812" y="97" width="5464" height="3202"/></clipPath><clipPath id="clip137"><rect x="812" y="97" width="5464" height="3202"/></clipPath><clipPath id="clip138"><rect x="812" y="97" width="5464" height="3202"/></clipPath><clipPath id="clip139"><rect x="812" y="97" width="5464" height="3202"/></clipPath><clipPath id="clip140"><rect x="812" y="97" width="5464" height="3202"/></clipPath><clipPath id="clip141"><rect x="812" y="97" width="5464" height="3202"/></clipPath><clipPath id="clip142"><rect x="812" y="97" width="5464" height="3202"/></clipPath><clipPath id="clip143"><rect x="812" y="97" width="5464" height="3202"/></clipPath><clipPath id="clip144"><rect x="812" y="97" width="5464" height="3202"/></clipPath><clipPath id="clip145"><rect x="812" y="97" width="5464" height="3202"/></clipPath><clipPath id="clip146"><rect x="812" y="97" width="5464" height="3202"/></clipPath><clipPath id="clip147"><rect x="812" y="97" width="5464" height="3202"/></clipPath><clipPath id="clip148"><rect x="812" y="97" width="5464" height="3202"/></clipPath><clipPath id="clip149"><rect x="812" y="97" width="5464" height="3202"/></clipPath><clipPath id="clip150"><rect x="812" y="97" width="5464" height="3202"/></clipPath><clipPath id="clip151"><rect x="812" y="97" width="5464" height="3202"/></clipPath><clipPath id="clip152"><rect x="812" y="97" width="5464" height="3202"/></clipPath><clipPath id="clip153"><rect x="812" y="97" width="5464" height="3202"/></clipPath><clipPath id="clip154"><rect x="812" y="97" width="5464" height="3202"/></clipPath><clipPath id="clip155"><rect x="812" y="97" width="5464" height="3202"/></clipPath><clipPath id="clip156"><rect x="812" y="97" width="5464" height="3202"/></clipPath><clipPath id="clip157"><rect x="812" y="97" width="5464" height="3202"/></clipPath><clipPath id="clip158"><rect x="812" y="97" width="5464" height="3202"/></clipPath><clipPath id="clip159"><rect x="812" y="97" width="5464" height="3202"/></clipPath><clipPath id="clip160"><rect x="812" y="97" width="5464" height="3202"/></clipPath><clipPath id="clip161"><rect x="812" y="97" width="5464" height="3202"/></clipPath><clipPath id="clip162"><rect x="812" y="97" width="5464" height="3202"/></clipPath><clipPath id="clip163"><rect x="812" y="97" width="5464" height="3202"/></clipPath><clipPath id="clip164"><rect x="812" y="97" width="5464" height="3202"/></clipPath><clipPath id="clip165"><rect x="812" y="97" width="5464" height="3202"/></clipPath><clipPath id="clip166"><rect x="812" y="97" width="5464" height="3202"/></clipPath><clipPath id="clip167"><rect x="812" y="97" width="5464" height="3202"/></clipPath><clipPath id="clip168"><rect x="812" y="97" width="5464" height="3202"/></clipPath><clipPath id="clip169"><rect x="812" y="97" width="5464" height="3202"/></clipPath><clipPath id="clip170"><rect x="812" y="97" width="5464" height="3202"/></clipPath><clipPath id="clip171"><rect x="812" y="97" width="5464" height="3202"/></clipPath><linearGradient x1="3297.5" y1="462" x2="3297.5" y2="485" gradientUnits="userSpaceOnUse" spreadMethod="reflect" id="fill172"><stop offset="0" stop-color="#6083CB"/><stop offset="0.5" stop-color="#3E70CA"/><stop offset="1" stop-color="#2E61BA"/></linearGradient><clipPath id="clip173"><rect x="812" y="97" width="5464" height="3202"/></clipPath><clipPath id="clip174"><rect x="812" y="97" width="5464" height="3202"/></clipPath><linearGradient x1="3445" y1="462" x2="3445" y2="485" gradientUnits="userSpaceOnUse" spreadMethod="reflect" id="fill175"><stop offset="0" stop-color="#F18C55"/><stop offset="0.5" stop-color="#F67B28"/><stop offset="1" stop-color="#E56B17"/></linearGradient><clipPath id="clip176"><rect x="812" y="97" width="5464" height="3202"/></clipPath><clipPath id="clip177"><rect x="812" y="97" width="5464" height="3202"/></clipPath><linearGradient x1="3656.5" y1="462" x2="3656.5" y2="485" gradientUnits="userSpaceOnUse" spreadMethod="reflect" id="fill178"><stop offset="0" stop-color="#AFAFAF"/><stop offset="0.5" stop-color="#A5A5A5"/><stop offset="1" stop-color="#929292"/></linearGradient><clipPath id="clip179"><rect x="812" y="97" width="5464" height="3202"/></clipPath></defs><g clip-path="url(#clip0)" transform="translate(-811 -96)"><rect x="812" y="96.9999" width="5465" height="3202" fill="#FFFFFF"/><g clip-path="url(#clip1)"><path d="M1055.5 2532.58 6226.5 2532.58M1055.5 2039.57 6226.5 2039.57M1055.5 1547.55 6226.5 1547.55M1055.5 1054.53 6226.5 1054.53M1055.5 562.5 6226.5 562.5" stroke="#E0E5EB" stroke-width="3.4375" stroke-linejoin="round" stroke-miterlimit="10" fill="none"/></g><g clip-path="url(#clip2)"><rect x="1094" y="2795" width="77" height="230" fill="url(#fill3)"/></g><g clip-path="url(#clip4)"><rect x="1439" y="2882" width="76" height="143" fill="url(#fill5)"/></g><g clip-path="url(#clip6)"><rect x="1783" y="2892" width="77" height="133" fill="url(#fill7)"/></g><g clip-path="url(#clip8)"><rect x="2128" y="2891" width="77" height="134" fill="url(#fill9)"/></g><g clip-path="url(#clip10)"><rect x="2473" y="2892" width="77" height="133" fill="url(#fill11)"/></g><g clip-path="url(#clip12)"><rect x="2817" y="2569" width="77" height="456" fill="url(#fill13)"/></g><g clip-path="url(#clip14)"><rect x="3162" y="2730" width="77" height="295" fill="url(#fill15)"/></g><g clip-path="url(#clip16)"><rect x="3507" y="2744" width="77" height="281" fill="url(#fill17)"/></g><g clip-path="url(#clip18)"><rect x="3852" y="2737" width="77" height="288" fill="url(#fill19)"/></g><g clip-path="url(#clip20)"><rect x="4196" y="2736" width="77" height="289" fill="url(#fill21)"/></g><g clip-path="url(#clip22)"><rect x="4541" y="1061" width="77" height="1964" fill="url(#fill23)"/></g><g clip-path="url(#clip24)"><rect x="4886" y="1969" width="77" height="1056" fill="url(#fill25)"/></g><g clip-path="url(#clip26)"><rect x="5230" y="2015" width="77" height="1010" fill="url(#fill27)"/></g><g clip-path="url(#clip28)"><rect x="5575" y="1993" width="77" height="1032" fill="url(#fill29)"/></g><g clip-path="url(#clip30)"><rect x="5920" y="1944" width="77" height="1081" fill="url(#fill31)"/></g><g clip-path="url(#clip32)"><rect x="1189" y="2785" width="77" height="240" fill="url(#fill33)"/></g><g clip-path="url(#clip34)"><rect x="1534" y="2884" width="77" height="141" fill="url(#fill35)"/></g><g clip-path="url(#clip36)"><rect x="1879" y="2895" width="77" height="130" fill="url(#fill37)"/></g><g clip-path="url(#clip38)"><rect x="2223" y="2892" width="77" height="133" fill="url(#fill39)"/></g><g clip-path="url(#clip40)"><rect x="2568" y="2892" width="77" height="133" fill="url(#fill41)"/></g><g clip-path="url(#clip42)"><rect x="2913" y="2540" width="77" height="485" fill="url(#fill43)"/></g><g clip-path="url(#clip44)"><rect x="3258" y="2733" width="76" height="292" fill="url(#fill45)"/></g><g clip-path="url(#clip46)"><rect x="3602" y="2745" width="77" height="280" fill="url(#fill47)"/></g><g clip-path="url(#clip48)"><rect x="3947" y="2738" width="77" height="287" fill="url(#fill49)"/></g><g clip-path="url(#clip50)"><rect x="4292" y="2735" width="77" height="290" fill="url(#fill51)"/></g><g clip-path="url(#clip52)"><rect x="4636" y="1017" width="77" height="2008" fill="url(#fill53)"/></g><g clip-path="url(#clip54)"><rect x="4981" y="1969" width="77" height="1056" fill="url(#fill55)"/></g><g clip-path="url(#clip56)"><rect x="5326" y="2016" width="77" height="1009" fill="url(#fill57)"/></g><g clip-path="url(#clip58)"><rect x="5671" y="2006" width="77" height="1019" fill="url(#fill59)"/></g><g clip-path="url(#clip60)"><rect x="6015" y="1953" width="77" height="1072" fill="url(#fill61)"/></g><g clip-path="url(#clip62)"><rect x="1285" y="2797" width="77" height="228" fill="url(#fill63)"/></g><g clip-path="url(#clip64)"><rect x="1629" y="2885" width="77" height="140" fill="url(#fill65)"/></g><g clip-path="url(#clip66)"><rect x="1974" y="2892" width="76.9999" height="133" fill="url(#fill67)"/></g><g clip-path="url(#clip68)"><rect x="2319" y="2893" width="77" height="132" fill="url(#fill69)"/></g><g clip-path="url(#clip70)"><rect x="2664" y="2894" width="76" height="131" fill="url(#fill71)"/></g><g clip-path="url(#clip72)"><rect x="3008" y="2572" width="77" height="453" fill="url(#fill73)"/></g><g clip-path="url(#clip74)"><rect x="3353" y="2735" width="77" height="290" fill="url(#fill75)"/></g><g clip-path="url(#clip76)"><rect x="3698" y="2743" width="77" height="282" fill="url(#fill77)"/></g><g clip-path="url(#clip78)"><rect x="4042" y="2736" width="76.9998" height="289" fill="url(#fill79)"/></g><g clip-path="url(#clip80)"><rect x="4387" y="2737" width="77" height="288" fill="url(#fill81)"/></g><g clip-path="url(#clip82)"><rect x="4732" y="1086" width="77" height="1939" fill="url(#fill83)"/></g><g clip-path="url(#clip84)"><rect x="5077" y="1977" width="77" height="1048" fill="url(#fill85)"/></g><g clip-path="url(#clip86)"><rect x="5421" y="2009" width="77" height="1016" fill="url(#fill87)"/></g><g clip-path="url(#clip88)"><rect x="5766" y="2006" width="77" height="1019" fill="url(#fill89)"/></g><g clip-path="url(#clip90)"><rect x="6111" y="1951" width="77" height="1074" fill="url(#fill91)"/></g><g clip-path="url(#clip92)"><path d="M1055.5 3024.5 6226.5 3024.5" stroke="#E0E5EB" stroke-width="3.4375" stroke-linejoin="round" stroke-miterlimit="10" fill="none" fill-rule="evenodd"/></g><g clip-path="url(#clip93)"><path d="M1055.5 3024.5 1055.5 3104.5M2778.59 3024.5 2778.59 3104.5M4502.65 3024.5 4502.65 3104.5M6226.5 3024.5 6226.5 3104.5" stroke="#E0E5EB" stroke-width="3.4375" stroke-linejoin="round" stroke-miterlimit="10" fill="none"/></g><g clip-path="url(#clip94)"><path d="M1055.5 3104.5 1055.5 3184.5M2778.59 3104.5 2778.59 3184.5M4502.65 3104.5 4502.65 3184.5M6226.5 3104.5 6226.5 3184.5" stroke="#E0E5EB" stroke-width="3.4375" stroke-linejoin="round" stroke-miterlimit="10" fill="none"/></g><g clip-path="url(#clip95)"><text fill="#44546A" font-family="Calibri,Calibri_MSFontService,sans-serif" font-weight="400" font-size="41" transform="matrix(1 0 0 1 1100.9 2764)">233</text></g><g clip-path="url(#clip96)"><text fill="#44546A" font-family="Calibri,Calibri_MSFontService,sans-serif" font-weight="400" font-size="41" transform="matrix(1 0 0 1 1445.62 2850)">145</text></g><g clip-path="url(#clip97)"><text fill="#44546A" font-family="Calibri,Calibri_MSFontService,sans-serif" font-weight="400" font-size="41" transform="matrix(1 0 0 1 1790.35 2860)">134</text></g><g clip-path="url(#clip98)"><text fill="#44546A" font-family="Calibri,Calibri_MSFontService,sans-serif" font-weight="400" font-size="41" transform="matrix(1 0 0 1 2135.08 2859)">136</text></g><g clip-path="url(#clip99)"><text fill="#44546A" font-family="Calibri,Calibri_MSFontService,sans-serif" font-weight="400" font-size="41" transform="matrix(1 0 0 1 2479.8 2860)">135</text></g><g clip-path="url(#clip100)"><text fill="#44546A" font-family="Calibri,Calibri_MSFontService,sans-serif" font-weight="400" font-size="41" transform="matrix(1 0 0 1 2824.53 2537)">463</text></g><g clip-path="url(#clip101)"><text fill="#44546A" font-family="Calibri,Calibri_MSFontService,sans-serif" font-weight="400" font-size="41" transform="matrix(1 0 0 1 3169.26 2698)">299</text></g><g clip-path="url(#clip102)"><text fill="#44546A" font-family="Calibri,Calibri_MSFontService,sans-serif" font-weight="400" font-size="41" transform="matrix(1 0 0 1 3513.98 2712)">285</text></g><g clip-path="url(#clip103)"><text fill="#44546A" font-family="Calibri,Calibri_MSFontService,sans-serif" font-weight="400" font-size="41" transform="matrix(1 0 0 1 3858.71 2705)">293</text></g><g clip-path="url(#clip104)"><text fill="#44546A" font-family="Calibri,Calibri_MSFontService,sans-serif" font-weight="400" font-size="41" transform="matrix(1 0 0 1 4203.43 2704)">293</text></g><g clip-path="url(#clip105)"><text fill="#44546A" font-family="Calibri,Calibri_MSFontService,sans-serif" font-weight="400" font-size="41" transform="matrix(1 0 0 1 4537.71 1029)">1993</text></g><g clip-path="url(#clip106)"><text fill="#44546A" font-family="Calibri,Calibri_MSFontService,sans-serif" font-weight="400" font-size="41" transform="matrix(1 0 0 1 4882.44 1937)">1072</text></g><g clip-path="url(#clip107)"><text fill="#44546A" font-family="Calibri,Calibri_MSFontService,sans-serif" font-weight="400" font-size="41" transform="matrix(1 0 0 1 5227.16 1983)">1026</text></g><g clip-path="url(#clip108)"><text fill="#44546A" font-family="Calibri,Calibri_MSFontService,sans-serif" font-weight="400" font-size="41" transform="matrix(1 0 0 1 5571.89 1961)">1048</text></g><g clip-path="url(#clip109)"><text fill="#44546A" font-family="Calibri,Calibri_MSFontService,sans-serif" font-weight="400" font-size="41" transform="matrix(1 0 0 1 5916.61 1912)">1097</text></g><g clip-path="url(#clip110)"><text fill="#44546A" font-family="Calibri,Calibri_MSFontService,sans-serif" font-weight="400" font-size="41" transform="matrix(1 0 0 1 1196.31 2753)">244</text></g><g clip-path="url(#clip111)"><text fill="#44546A" font-family="Calibri,Calibri_MSFontService,sans-serif" font-weight="400" font-size="41" transform="matrix(1 0 0 1 1541.04 2853)">143</text></g><g clip-path="url(#clip112)"><text fill="#44546A" font-family="Calibri,Calibri_MSFontService,sans-serif" font-weight="400" font-size="41" transform="matrix(1 0 0 1 1885.77 2863)">132</text></g><g clip-path="url(#clip113)"><text fill="#44546A" font-family="Calibri,Calibri_MSFontService,sans-serif" font-weight="400" font-size="41" transform="matrix(1 0 0 1 2230.49 2860)">135</text></g><g clip-path="url(#clip114)"><text fill="#44546A" font-family="Calibri,Calibri_MSFontService,sans-serif" font-weight="400" font-size="41" transform="matrix(1 0 0 1 2575.22 2860)">135</text></g><g clip-path="url(#clip115)"><text fill="#44546A" font-family="Calibri,Calibri_MSFontService,sans-serif" font-weight="400" font-size="41" transform="matrix(1 0 0 1 2919.94 2508)">492</text></g><g clip-path="url(#clip116)"><text fill="#44546A" font-family="Calibri,Calibri_MSFontService,sans-serif" font-weight="400" font-size="41" transform="matrix(1 0 0 1 3264.67 2701)">297</text></g><g clip-path="url(#clip117)"><text fill="#44546A" font-family="Calibri,Calibri_MSFontService,sans-serif" font-weight="400" font-size="41" transform="matrix(1 0 0 1 3609.4 2713)">284</text></g><g clip-path="url(#clip118)"><text fill="#44546A" font-family="Calibri,Calibri_MSFontService,sans-serif" font-weight="400" font-size="41" transform="matrix(1 0 0 1 3954.12 2706)">292</text></g><g clip-path="url(#clip119)"><text fill="#44546A" font-family="Calibri,Calibri_MSFontService,sans-serif" font-weight="400" font-size="41" transform="matrix(1 0 0 1 4298.85 2704)">294</text></g><g clip-path="url(#clip120)"><text fill="#44546A" font-family="Calibri,Calibri_MSFontService,sans-serif" font-weight="400" font-size="41" transform="matrix(1 0 0 1 4633.12 985)">2038</text></g><g clip-path="url(#clip121)"><text fill="#44546A" font-family="Calibri,Calibri_MSFontService,sans-serif" font-weight="400" font-size="41" transform="matrix(1 0 0 1 4977.85 1937)">1072</text></g><g clip-path="url(#clip122)"><text fill="#44546A" font-family="Calibri,Calibri_MSFontService,sans-serif" font-weight="400" font-size="41" transform="matrix(1 0 0 1 5322.58 1984)">1024</text></g><g clip-path="url(#clip123)"><text fill="#44546A" font-family="Calibri,Calibri_MSFontService,sans-serif" font-weight="400" font-size="41" transform="matrix(1 0 0 1 5667.3 1974)">1034</text></g><g clip-path="url(#clip124)"><text fill="#44546A" font-family="Calibri,Calibri_MSFontService,sans-serif" font-weight="400" font-size="41" transform="matrix(1 0 0 1 6012.03 1921)">1088</text></g><g clip-path="url(#clip125)"><text fill="#44546A" font-family="Calibri,Calibri_MSFontService,sans-serif" font-weight="400" font-size="41" transform="matrix(1 0 0 1 1291.73 2765)">232</text></g><g clip-path="url(#clip126)"><text fill="#44546A" font-family="Calibri,Calibri_MSFontService,sans-serif" font-weight="400" font-size="41" transform="matrix(1 0 0 1 1636.45 2853)">142</text></g><g clip-path="url(#clip127)"><text fill="#44546A" font-family="Calibri,Calibri_MSFontService,sans-serif" font-weight="400" font-size="41" transform="matrix(1 0 0 1 1981.18 2860)">135</text></g><g clip-path="url(#clip128)"><text fill="#44546A" font-family="Calibri,Calibri_MSFontService,sans-serif" font-weight="400" font-size="41" transform="matrix(1 0 0 1 2325.91 2861)">134</text></g><g clip-path="url(#clip129)"><text fill="#44546A" font-family="Calibri,Calibri_MSFontService,sans-serif" font-weight="400" font-size="41" transform="matrix(1 0 0 1 2670.63 2862)">133</text></g><g clip-path="url(#clip130)"><text fill="#44546A" font-family="Calibri,Calibri_MSFontService,sans-serif" font-weight="400" font-size="41" transform="matrix(1 0 0 1 3015.36 2540)">460</text></g><g clip-path="url(#clip131)"><text fill="#44546A" font-family="Calibri,Calibri_MSFontService,sans-serif" font-weight="400" font-size="41" transform="matrix(1 0 0 1 3360.09 2703)">294</text></g><g clip-path="url(#clip132)"><text fill="#44546A" font-family="Calibri,Calibri_MSFontService,sans-serif" font-weight="400" font-size="41" transform="matrix(1 0 0 1 3704.81 2711)">286</text></g><g clip-path="url(#clip133)"><text fill="#44546A" font-family="Calibri,Calibri_MSFontService,sans-serif" font-weight="400" font-size="41" transform="matrix(1 0 0 1 4049.54 2704)">293</text></g><g clip-path="url(#clip134)"><text fill="#44546A" font-family="Calibri,Calibri_MSFontService,sans-serif" font-weight="400" font-size="41" transform="matrix(1 0 0 1 4394.26 2705)">292</text></g><g clip-path="url(#clip135)"><text fill="#44546A" font-family="Calibri,Calibri_MSFontService,sans-serif" font-weight="400" font-size="41" transform="matrix(1 0 0 1 4728.54 1054)">1969</text></g><g clip-path="url(#clip136)"><text fill="#44546A" font-family="Calibri,Calibri_MSFontService,sans-serif" font-weight="400" font-size="41" transform="matrix(1 0 0 1 5073.27 1945)">1064</text></g><g clip-path="url(#clip137)"><text fill="#44546A" font-family="Calibri,Calibri_MSFontService,sans-serif" font-weight="400" font-size="41" transform="matrix(1 0 0 1 5417.99 1977)">1032</text></g><g clip-path="url(#clip138)"><text fill="#44546A" font-family="Calibri,Calibri_MSFontService,sans-serif" font-weight="400" font-size="41" transform="matrix(1 0 0 1 5762.72 1974)">1034</text></g><g clip-path="url(#clip139)"><text fill="#44546A" font-family="Calibri,Calibri_MSFontService,sans-serif" font-weight="400" font-size="41" transform="matrix(1 0 0 1 6107.45 1919)">1090</text></g><g clip-path="url(#clip140)"><text fill="#44546A" font-family="Calibri,Calibri_MSFontService,sans-serif" font-weight="400" font-size="41" transform="matrix(1 0 0 1 996.133 3036)">0</text></g><g clip-path="url(#clip141)"><text fill="#44546A" font-family="Calibri,Calibri_MSFontService,sans-serif" font-weight="400" font-size="41" transform="matrix(1 0 0 1 954.333 2544)">500</text></g><g clip-path="url(#clip142)"><text fill="#44546A" font-family="Calibri,Calibri_MSFontService,sans-serif" font-weight="400" font-size="41" transform="matrix(1 0 0 1 933.433 2051)">1000</text></g><g clip-path="url(#clip143)"><text fill="#44546A" font-family="Calibri,Calibri_MSFontService,sans-serif" font-weight="400" font-size="41" transform="matrix(1 0 0 1 933.433 1559)">1500</text></g><g clip-path="url(#clip144)"><text fill="#44546A" font-family="Calibri,Calibri_MSFontService,sans-serif" font-weight="400" font-size="41" transform="matrix(1 0 0 1 933.433 1066)">2000</text></g><g clip-path="url(#clip145)"><text fill="#44546A" font-family="Calibri,Calibri_MSFontService,sans-serif" font-weight="400" font-size="41" transform="matrix(1 0 0 1 933.433 574)">2500</text></g><g clip-path="url(#clip146)"><text fill="#44546A" font-family="Calibri,Calibri_MSFontService,sans-serif" font-weight="400" font-size="41" transform="matrix(1 0 0 1 1217.21 3090)">1</text></g><g clip-path="url(#clip147)"><text fill="#44546A" font-family="Calibri,Calibri_MSFontService,sans-serif" font-weight="400" font-size="41" transform="matrix(1 0 0 1 1561.94 3090)">4</text></g><g clip-path="url(#clip148)"><text fill="#44546A" font-family="Calibri,Calibri_MSFontService,sans-serif" font-weight="400" font-size="41" transform="matrix(1 0 0 1 1896.22 3090)">16</text></g><g clip-path="url(#clip149)"><text fill="#44546A" font-family="Calibri,Calibri_MSFontService,sans-serif" font-weight="400" font-size="41" transform="matrix(1 0 0 1 2240.94 3090)">40</text></g><g clip-path="url(#clip150)"><text fill="#44546A" font-family="Calibri,Calibri_MSFontService,sans-serif" font-weight="400" font-size="41" transform="matrix(1 0 0 1 2585.67 3090)">80</text></g><g clip-path="url(#clip151)"><text fill="#44546A" font-family="Calibri,Calibri_MSFontService,sans-serif" font-weight="400" font-size="41" transform="matrix(1 0 0 1 2940.84 3090)">1</text></g><g clip-path="url(#clip152)"><text fill="#44546A" font-family="Calibri,Calibri_MSFontService,sans-serif" font-weight="400" font-size="41" transform="matrix(1 0 0 1 3285.57 3090)">4</text></g><g clip-path="url(#clip153)"><text fill="#44546A" font-family="Calibri,Calibri_MSFontService,sans-serif" font-weight="400" font-size="41" transform="matrix(1 0 0 1 3619.85 3090)">16</text></g><g clip-path="url(#clip154)"><text fill="#44546A" font-family="Calibri,Calibri_MSFontService,sans-serif" font-weight="400" font-size="41" transform="matrix(1 0 0 1 3964.57 3090)">40</text></g><g clip-path="url(#clip155)"><text fill="#44546A" font-family="Calibri,Calibri_MSFontService,sans-serif" font-weight="400" font-size="41" transform="matrix(1 0 0 1 4309.3 3090)">80</text></g><g clip-path="url(#clip156)"><text fill="#44546A" font-family="Calibri,Calibri_MSFontService,sans-serif" font-weight="400" font-size="41" transform="matrix(1 0 0 1 4664.48 3090)">1</text></g><g clip-path="url(#clip157)"><text fill="#44546A" font-family="Calibri,Calibri_MSFontService,sans-serif" font-weight="400" font-size="41" transform="matrix(1 0 0 1 5009.2 3090)">4</text></g><g clip-path="url(#clip158)"><text fill="#44546A" font-family="Calibri,Calibri_MSFontService,sans-serif" font-weight="400" font-size="41" transform="matrix(1 0 0 1 5343.48 3090)">16</text></g><g clip-path="url(#clip159)"><text fill="#44546A" font-family="Calibri,Calibri_MSFontService,sans-serif" font-weight="400" font-size="41" transform="matrix(1 0 0 1 5688.2 3090)">40</text></g><g clip-path="url(#clip160)"><text fill="#44546A" font-family="Calibri,Calibri_MSFontService,sans-serif" font-weight="400" font-size="41" transform="matrix(1 0 0 1 6032.93 3090)">80</text></g><g clip-path="url(#clip161)"><text fill="#44546A" font-family="Calibri,Calibri_MSFontService,sans-serif" font-weight="400" font-size="41" transform="matrix(1 0 0 1 1896.22 3170)">32</text></g><g clip-path="url(#clip162)"><text fill="#44546A" font-family="Calibri,Calibri_MSFontService,sans-serif" font-weight="400" font-size="41" transform="matrix(1 0 0 1 3609.4 3170)">128</text></g><g clip-path="url(#clip163)"><text fill="#44546A" font-family="Calibri,Calibri_MSFontService,sans-serif" font-weight="400" font-size="41" transform="matrix(1 0 0 1 5333.03 3170)">512</text></g><g clip-path="url(#clip164)"><text fill="#44546A" font-family="Calibri,Calibri_MSFontService,sans-serif" font-weight="700" font-size="41" transform="matrix(6.12323e-17 -1 1 6.12323e-17 908.339 1902)">Latency (ms)</text></g><g clip-path="url(#clip165)"><text fill="#44546A" font-family="Calibri,Calibri_MSFontService,sans-serif" font-weight="700" font-size="41" transform="matrix(1 0 0 1 3499.85 3231)">Sequence Length</text></g><g clip-path="url(#clip166)"><text fill="#44546A" font-family="Calibri,Calibri_MSFontService,sans-serif" font-weight="700" font-size="73" transform="matrix(1 0 0 1 2668.47 202)">Intel Ice lake Xeon 8380 </text></g><g clip-path="url(#clip167)"><text fill="#44546A" font-family="Calibri,Calibri_MSFontService,sans-serif" font-weight="700" font-size="73" transform="matrix(1 0 0 1 3403.82 202)">-</text></g><g clip-path="url(#clip168)"><text fill="#44546A" font-family="Calibri,Calibri_MSFontService,sans-serif" font-weight="700" font-size="73" transform="matrix(1 0 0 1 3442.85 202)">TensorFlow + oneDNN (&gt;= 2.5.0)</text></g><g clip-path="url(#clip169)"><text fill="#44546A" font-family="Calibri,Calibri_MSFontService,sans-serif" font-weight="700" font-size="73" transform="matrix(1 0 0 1 1785.59 291)">Latency Benchmark with varying number of CPU cores involved in the computation and different memory allocators</text></g><g clip-path="url(#clip170)"><text fill="#44546A" font-family="Calibri,Calibri_MSFontService,sans-serif" font-weight="700" font-size="73" transform="matrix(1 0 0 1 2451.87 381)">(some data might be missing indicating benchmark crashed during runs)</text></g><g clip-path="url(#clip171)"><rect x="3286" y="462" width="23" height="23" fill="url(#fill172)"/></g><g clip-path="url(#clip173)"><text fill="#44546A" font-family="Calibri,Calibri_MSFontService,sans-serif" font-weight="400" font-size="41" transform="matrix(1 0 0 1 3318.16 485)">glibc</text></g><g clip-path="url(#clip174)"><rect x="3434" y="462" width="22" height="23" fill="url(#fill175)"/></g><g clip-path="url(#clip176)"><text fill="#44546A" font-family="Calibri,Calibri_MSFontService,sans-serif" font-weight="400" font-size="41" transform="matrix(1 0 0 1 3465.77 485)">jemalloc</text></g><g clip-path="url(#clip177)"><rect x="3645" y="462" width="23" height="23" fill="url(#fill178)"/></g><g clip-path="url(#clip179)"><text fill="#44546A" font-family="Calibri,Calibri_MSFontService,sans-serif" font-weight="400" font-size="41" transform="matrix(1 0 0 1 3677.16 485)">tcmalloc</text></g><rect x="812.5" y="97.5001" width="5465" height="3202" stroke="#E0E5EB" stroke-width="3.4375" stroke-linejoin="round" stroke-miterlimit="10" fill="none"/></g></svg>