<svg width="5651" height="3205" xmlns="http://www.w3.org/2000/svg" xmlns:xlink="http://www.w3.org/1999/xlink" overflow="hidden"><defs><clipPath id="clip0"><rect x="1274" y="174" width="5651" height="3205"/></clipPath><clipPath id="clip1"><rect x="1275" y="175" width="5648" height="3202"/></clipPath><clipPath id="clip2"><rect x="1518" y="640" width="5358" height="2415"/></clipPath><linearGradient x1="1598" y1="2887" x2="1598" y2="3053" gradientUnits="userSpaceOnUse" spreadMethod="reflect" id="fill3"><stop offset="0" stop-color="#6083CB"/><stop offset="0.5" stop-color="#3E70CA"/><stop offset="1" stop-color="#2E61BA"/></linearGradient><clipPath id="clip4"><rect x="1518" y="640" width="5358" height="2415"/></clipPath><linearGradient x1="1955" y1="3002" x2="1955" y2="3053" gradientUnits="userSpaceOnUse" spreadMethod="reflect" id="fill5"><stop offset="0" stop-color="#6083CB"/><stop offset="0.5" stop-color="#3E70CA"/><stop offset="1" stop-color="#2E61BA"/></linearGradient><clipPath id="clip6"><rect x="1518" y="640" width="5358" height="2415"/></clipPath><linearGradient x1="2312" y1="3022" x2="2312" y2="3053" gradientUnits="userSpaceOnUse" spreadMethod="reflect" id="fill7"><stop offset="0" stop-color="#6083CB"/><stop offset="0.5" stop-color="#3E70CA"/><stop offset="1" stop-color="#2E61BA"/></linearGradient><clipPath id="clip8"><rect x="1518" y="640" width="5358" height="2415"/></clipPath><linearGradient x1="2669" y1="3030" x2="2669" y2="3053" gradientUnits="userSpaceOnUse" spreadMethod="reflect" id="fill9"><stop offset="0" stop-color="#6083CB"/><stop offset="0.5" stop-color="#3E70CA"/><stop offset="1" stop-color="#2E61BA"/></linearGradient><clipPath id="clip10"><rect x="1518" y="640" width="5358" height="2415"/></clipPath><linearGradient x1="3026" y1="3026" x2="3026" y2="3053" gradientUnits="userSpaceOnUse" spreadMethod="reflect" id="fill11"><stop offset="0" stop-color="#6083CB"/><stop offset="0.5" stop-color="#3E70CA"/><stop offset="1" stop-color="#2E61BA"/></linearGradient><clipPath id="clip12"><rect x="1518" y="640" width="5358" height="2415"/></clipPath><linearGradient x1="3383" y1="2686" x2="3383" y2="3053" gradientUnits="userSpaceOnUse" spreadMethod="reflect" id="fill13"><stop offset="0" stop-color="#6083CB"/><stop offset="0.5" stop-color="#3E70CA"/><stop offset="1" stop-color="#2E61BA"/></linearGradient><clipPath id="clip14"><rect x="1518" y="640" width="5358" height="2415"/></clipPath><linearGradient x1="3740" y1="2915" x2="3740" y2="3053" gradientUnits="userSpaceOnUse" spreadMethod="reflect" id="fill15"><stop offset="0" stop-color="#6083CB"/><stop offset="0.5" stop-color="#3E70CA"/><stop offset="1" stop-color="#2E61BA"/></linearGradient><clipPath id="clip16"><rect x="1518" y="640" width="5358" height="2415"/></clipPath><linearGradient x1="4097" y1="2954" x2="4097" y2="3053" gradientUnits="userSpaceOnUse" spreadMethod="reflect" id="fill17"><stop offset="0" stop-color="#6083CB"/><stop offset="0.5" stop-color="#3E70CA"/><stop offset="1" stop-color="#2E61BA"/></linearGradient><clipPath id="clip18"><rect x="1518" y="640" width="5358" height="2415"/></clipPath><linearGradient x1="4454" y1="2973" x2="4454" y2="3053" gradientUnits="userSpaceOnUse" spreadMethod="reflect" id="fill19"><stop offset="0" stop-color="#6083CB"/><stop offset="0.5" stop-color="#3E70CA"/><stop offset="1" stop-color="#2E61BA"/></linearGradient><clipPath id="clip20"><rect x="1518" y="640" width="5358" height="2415"/></clipPath><linearGradient x1="4811" y1="2971" x2="4811" y2="3053" gradientUnits="userSpaceOnUse" spreadMethod="reflect" id="fill21"><stop offset="0" stop-color="#6083CB"/><stop offset="0.5" stop-color="#3E70CA"/><stop offset="1" stop-color="#2E61BA"/></linearGradient><clipPath id="clip22"><rect x="1518" y="640" width="5358" height="2415"/></clipPath><linearGradient x1="5168" y1="951" x2="5168" y2="3053" gradientUnits="userSpaceOnUse" spreadMethod="reflect" id="fill23"><stop offset="0" stop-color="#6083CB"/><stop offset="0.5" stop-color="#3E70CA"/><stop offset="1" stop-color="#2E61BA"/></linearGradient><clipPath id="clip24"><rect x="1518" y="640" width="5358" height="2415"/></clipPath><linearGradient x1="5524.5" y1="2576" x2="5524.5" y2="3053" gradientUnits="userSpaceOnUse" spreadMethod="reflect" id="fill25"><stop offset="0" stop-color="#6083CB"/><stop offset="0.5" stop-color="#3E70CA"/><stop offset="1" stop-color="#2E61BA"/></linearGradient><clipPath id="clip26"><rect x="1518" y="640" width="5358" height="2415"/></clipPath><linearGradient x1="5881.5" y1="2848" x2="5881.5" y2="3053" gradientUnits="userSpaceOnUse" spreadMethod="reflect" id="fill27"><stop offset="0" stop-color="#6083CB"/><stop offset="0.5" stop-color="#3E70CA"/><stop offset="1" stop-color="#2E61BA"/></linearGradient><clipPath id="clip28"><rect x="1518" y="640" width="5358" height="2415"/></clipPath><linearGradient x1="6238.5" y1="2932" x2="6238.5" y2="3053" gradientUnits="userSpaceOnUse" spreadMethod="reflect" id="fill29"><stop offset="0" stop-color="#6083CB"/><stop offset="0.5" stop-color="#3E70CA"/><stop offset="1" stop-color="#2E61BA"/></linearGradient><clipPath id="clip30"><rect x="1518" y="640" width="5358" height="2415"/></clipPath><linearGradient x1="6595.5" y1="2932" x2="6595.5" y2="3053" gradientUnits="userSpaceOnUse" spreadMethod="reflect" id="fill31"><stop offset="0" stop-color="#6083CB"/><stop offset="0.5" stop-color="#3E70CA"/><stop offset="1" stop-color="#2E61BA"/></linearGradient><clipPath id="clip32"><rect x="1518" y="640" width="5358" height="2415"/></clipPath><linearGradient x1="1697" y1="2874" x2="1697" y2="3053" gradientUnits="userSpaceOnUse" spreadMethod="reflect" id="fill33"><stop offset="0" stop-color="#F18C55"/><stop offset="0.5" stop-color="#F67B28"/><stop offset="1" stop-color="#E56B17"/></linearGradient><clipPath id="clip34"><rect x="1518" y="640" width="5358" height="2415"/></clipPath><linearGradient x1="2054" y1="3002" x2="2054" y2="3053" gradientUnits="userSpaceOnUse" spreadMethod="reflect" id="fill35"><stop offset="0" stop-color="#F18C55"/><stop offset="0.5" stop-color="#F67B28"/><stop offset="1" stop-color="#E56B17"/></linearGradient><clipPath id="clip36"><rect x="1518" y="640" width="5358" height="2415"/></clipPath><linearGradient x1="2411" y1="3022" x2="2411" y2="3053" gradientUnits="userSpaceOnUse" spreadMethod="reflect" id="fill37"><stop offset="0" stop-color="#F18C55"/><stop offset="0.5" stop-color="#F67B28"/><stop offset="1" stop-color="#E56B17"/></linearGradient><clipPath id="clip38"><rect x="1518" y="640" width="5358" height="2415"/></clipPath><linearGradient x1="2768" y1="3030" x2="2768" y2="3053" gradientUnits="userSpaceOnUse" spreadMethod="reflect" id="fill39"><stop offset="0" stop-color="#F18C55"/><stop offset="0.5" stop-color="#F67B28"/><stop offset="1" stop-color="#E56B17"/></linearGradient><clipPath id="clip40"><rect x="1518" y="640" width="5358" height="2415"/></clipPath><linearGradient x1="3125" y1="3025" x2="3125" y2="3053" gradientUnits="userSpaceOnUse" spreadMethod="reflect" id="fill41"><stop offset="0" stop-color="#F18C55"/><stop offset="0.5" stop-color="#F67B28"/><stop offset="1" stop-color="#E56B17"/></linearGradient><clipPath id="clip42"><rect x="1518" y="640" width="5358" height="2415"/></clipPath><linearGradient x1="3482" y1="2652" x2="3482" y2="3053" gradientUnits="userSpaceOnUse" spreadMethod="reflect" id="fill43"><stop offset="0" stop-color="#F18C55"/><stop offset="0.5" stop-color="#F67B28"/><stop offset="1" stop-color="#E56B17"/></linearGradient><clipPath id="clip44"><rect x="1518" y="640" width="5358" height="2415"/></clipPath><linearGradient x1="3839" y1="2917" x2="3839" y2="3053" gradientUnits="userSpaceOnUse" spreadMethod="reflect" id="fill45"><stop offset="0" stop-color="#F18C55"/><stop offset="0.5" stop-color="#F67B28"/><stop offset="1" stop-color="#E56B17"/></linearGradient><clipPath id="clip46"><rect x="1518" y="640" width="5358" height="2415"/></clipPath><linearGradient x1="4195.5" y1="2954" x2="4195.5" y2="3053" gradientUnits="userSpaceOnUse" spreadMethod="reflect" id="fill47"><stop offset="0" stop-color="#F18C55"/><stop offset="0.5" stop-color="#F67B28"/><stop offset="1" stop-color="#E56B17"/></linearGradient><clipPath id="clip48"><rect x="1518" y="640" width="5358" height="2415"/></clipPath><linearGradient x1="4552.5" y1="2974" x2="4552.5" y2="3053" gradientUnits="userSpaceOnUse" spreadMethod="reflect" id="fill49"><stop offset="0" stop-color="#F18C55"/><stop offset="0.5" stop-color="#F67B28"/><stop offset="1" stop-color="#E56B17"/></linearGradient><clipPath id="clip50"><rect x="1518" y="640" width="5358" height="2415"/></clipPath><linearGradient x1="4909.5" y1="2970" x2="4909.5" y2="3053" gradientUnits="userSpaceOnUse" spreadMethod="reflect" id="fill51"><stop offset="0" stop-color="#F18C55"/><stop offset="0.5" stop-color="#F67B28"/><stop offset="1" stop-color="#E56B17"/></linearGradient><clipPath id="clip52"><rect x="1518" y="640" width="5358" height="2415"/></clipPath><linearGradient x1="5266.5" y1="988" x2="5266.5" y2="3053" gradientUnits="userSpaceOnUse" spreadMethod="reflect" id="fill53"><stop offset="0" stop-color="#F18C55"/><stop offset="0.5" stop-color="#F67B28"/><stop offset="1" stop-color="#E56B17"/></linearGradient><clipPath id="clip54"><rect x="1518" y="640" width="5358" height="2415"/></clipPath><linearGradient x1="5623.5" y1="2578" x2="5623.5" y2="3053" gradientUnits="userSpaceOnUse" spreadMethod="reflect" id="fill55"><stop offset="0" stop-color="#F18C55"/><stop offset="0.5" stop-color="#F67B28"/><stop offset="1" stop-color="#E56B17"/></linearGradient><clipPath id="clip56"><rect x="1518" y="640" width="5358" height="2415"/></clipPath><linearGradient x1="5980.5" y1="2851" x2="5980.5" y2="3053" gradientUnits="userSpaceOnUse" spreadMethod="reflect" id="fill57"><stop offset="0" stop-color="#F18C55"/><stop offset="0.5" stop-color="#F67B28"/><stop offset="1" stop-color="#E56B17"/></linearGradient><clipPath id="clip58"><rect x="1518" y="640" width="5358" height="2415"/></clipPath><linearGradient x1="6337" y1="2936" x2="6337" y2="3053" gradientUnits="userSpaceOnUse" spreadMethod="reflect" id="fill59"><stop offset="0" stop-color="#F18C55"/><stop offset="0.5" stop-color="#F67B28"/><stop offset="1" stop-color="#E56B17"/></linearGradient><clipPath id="clip60"><rect x="1518" y="640" width="5358" height="2415"/></clipPath><linearGradient x1="6694" y1="2932" x2="6694" y2="3053" gradientUnits="userSpaceOnUse" spreadMethod="reflect" id="fill61"><stop offset="0" stop-color="#F18C55"/><stop offset="0.5" stop-color="#F67B28"/><stop offset="1" stop-color="#E56B17"/></linearGradient><clipPath id="clip62"><rect x="1518" y="640" width="5358" height="2415"/></clipPath><linearGradient x1="1796" y1="2883" x2="1796" y2="3053" gradientUnits="userSpaceOnUse" spreadMethod="reflect" id="fill63"><stop offset="0" stop-color="#AFAFAF"/><stop offset="0.5" stop-color="#A5A5A5"/><stop offset="1" stop-color="#929292"/></linearGradient><clipPath id="clip64"><rect x="1518" y="640" width="5358" height="2415"/></clipPath><linearGradient x1="2153" y1="3002" x2="2153" y2="3053" gradientUnits="userSpaceOnUse" spreadMethod="reflect" id="fill65"><stop offset="0" stop-color="#AFAFAF"/><stop offset="0.5" stop-color="#A5A5A5"/><stop offset="1" stop-color="#929292"/></linearGradient><clipPath id="clip66"><rect x="1518" y="640" width="5358" height="2415"/></clipPath><linearGradient x1="2510" y1="3022" x2="2510" y2="3053" gradientUnits="userSpaceOnUse" spreadMethod="reflect" id="fill67"><stop offset="0" stop-color="#AFAFAF"/><stop offset="0.5" stop-color="#A5A5A5"/><stop offset="1" stop-color="#929292"/></linearGradient><clipPath id="clip68"><rect x="1518" y="640" width="5358" height="2415"/></clipPath><linearGradient x1="2867" y1="3030" x2="2867" y2="3053" gradientUnits="userSpaceOnUse" spreadMethod="reflect" id="fill69"><stop offset="0" stop-color="#AFAFAF"/><stop offset="0.5" stop-color="#A5A5A5"/><stop offset="1" stop-color="#929292"/></linearGradient><clipPath id="clip70"><rect x="1518" y="640" width="5358" height="2415"/></clipPath><linearGradient x1="3223.5" y1="3024" x2="3223.5" y2="3053" gradientUnits="userSpaceOnUse" spreadMethod="reflect" id="fill71"><stop offset="0" stop-color="#AFAFAF"/><stop offset="0.5" stop-color="#A5A5A5"/><stop offset="1" stop-color="#929292"/></linearGradient><clipPath id="clip72"><rect x="1518" y="640" width="5358" height="2415"/></clipPath><linearGradient x1="3580.5" y1="2684" x2="3580.5" y2="3053" gradientUnits="userSpaceOnUse" spreadMethod="reflect" id="fill73"><stop offset="0" stop-color="#AFAFAF"/><stop offset="0.5" stop-color="#A5A5A5"/><stop offset="1" stop-color="#929292"/></linearGradient><clipPath id="clip74"><rect x="1518" y="640" width="5358" height="2415"/></clipPath><linearGradient x1="3937.5" y1="2918" x2="3937.5" y2="3053" gradientUnits="userSpaceOnUse" spreadMethod="reflect" id="fill75"><stop offset="0" stop-color="#AFAFAF"/><stop offset="0.5" stop-color="#A5A5A5"/><stop offset="1" stop-color="#929292"/></linearGradient><clipPath id="clip76"><rect x="1518" y="640" width="5358" height="2415"/></clipPath><linearGradient x1="4294.5" y1="2952" x2="4294.5" y2="3053" gradientUnits="userSpaceOnUse" spreadMethod="reflect" id="fill77"><stop offset="0" stop-color="#AFAFAF"/><stop offset="0.5" stop-color="#A5A5A5"/><stop offset="1" stop-color="#929292"/></linearGradient><clipPath id="clip78"><rect x="1518" y="640" width="5358" height="2415"/></clipPath><linearGradient x1="4651.5" y1="2971" x2="4651.5" y2="3053" gradientUnits="userSpaceOnUse" spreadMethod="reflect" id="fill79"><stop offset="0" stop-color="#AFAFAF"/><stop offset="0.5" stop-color="#A5A5A5"/><stop offset="1" stop-color="#929292"/></linearGradient><clipPath id="clip80"><rect x="1518" y="640" width="5358" height="2415"/></clipPath><linearGradient x1="5008" y1="2967" x2="5008" y2="3053" gradientUnits="userSpaceOnUse" spreadMethod="reflect" id="fill81"><stop offset="0" stop-color="#AFAFAF"/><stop offset="0.5" stop-color="#A5A5A5"/><stop offset="1" stop-color="#929292"/></linearGradient><clipPath id="clip82"><rect x="1518" y="640" width="5358" height="2415"/></clipPath><linearGradient x1="5365" y1="924" x2="5365" y2="3053" gradientUnits="userSpaceOnUse" spreadMethod="reflect" id="fill83"><stop offset="0" stop-color="#AFAFAF"/><stop offset="0.5" stop-color="#A5A5A5"/><stop offset="1" stop-color="#929292"/></linearGradient><clipPath id="clip84"><rect x="1518" y="640" width="5358" height="2415"/></clipPath><linearGradient x1="5722" y1="2580" x2="5722" y2="3053" gradientUnits="userSpaceOnUse" spreadMethod="reflect" id="fill85"><stop offset="0" stop-color="#AFAFAF"/><stop offset="0.5" stop-color="#A5A5A5"/><stop offset="1" stop-color="#929292"/></linearGradient><clipPath id="clip86"><rect x="1518" y="640" width="5358" height="2415"/></clipPath><linearGradient x1="6079" y1="2849" x2="6079" y2="3053" gradientUnits="userSpaceOnUse" spreadMethod="reflect" id="fill87"><stop offset="0" stop-color="#AFAFAF"/><stop offset="0.5" stop-color="#A5A5A5"/><stop offset="1" stop-color="#929292"/></linearGradient><clipPath id="clip88"><rect x="1518" y="640" width="5358" height="2415"/></clipPath><linearGradient x1="6436" y1="2934" x2="6436" y2="3053" gradientUnits="userSpaceOnUse" spreadMethod="reflect" id="fill89"><stop offset="0" stop-color="#AFAFAF"/><stop offset="0.5" stop-color="#A5A5A5"/><stop offset="1" stop-color="#929292"/></linearGradient><clipPath id="clip90"><rect x="1518" y="640" width="5358" height="2415"/></clipPath><linearGradient x1="6793" y1="2930" x2="6793" y2="3053" gradientUnits="userSpaceOnUse" spreadMethod="reflect" id="fill91"><stop offset="0" stop-color="#AFAFAF"/><stop offset="0.5" stop-color="#A5A5A5"/><stop offset="1" stop-color="#929292"/></linearGradient><clipPath id="clip92"><rect x="1275" y="175" width="5648" height="3202"/></clipPath><clipPath id="clip93"><rect x="1275" y="175" width="5648" height="3202"/></clipPath><clipPath id="clip94"><rect x="1275" y="175" width="5648" height="3202"/></clipPath><clipPath id="clip95"><rect x="1275" y="175" width="5648" height="3202"/></clipPath><clipPath id="clip96"><rect x="1275" y="175" width="5648" height="3202"/></clipPath><clipPath id="clip97"><rect x="1275" y="175" width="5648" height="3202"/></clipPath><clipPath id="clip98"><rect x="1275" y="175" width="5648" height="3202"/></clipPath><clipPath id="clip99"><rect x="1275" y="175" width="5648" height="3202"/></clipPath><clipPath id="clip100"><rect x="1275" y="175" width="5648" height="3202"/></clipPath><clipPath id="clip101"><rect x="1275" y="175" width="5648" height="3202"/></clipPath><clipPath id="clip102"><rect x="1275" y="175" width="5648" height="3202"/></clipPath><clipPath id="clip103"><rect x="1275" y="175" width="5648" height="3202"/></clipPath><clipPath id="clip104"><rect x="1275" y="175" width="5648" height="3202"/></clipPath><clipPath id="clip105"><rect x="1275" y="175" width="5648" height="3202"/></clipPath><clipPath id="clip106"><rect x="1275" y="175" width="5648" height="3202"/></clipPath><clipPath id="clip107"><rect x="1275" y="175" width="5648" height="3202"/></clipPath><clipPath id="clip108"><rect x="1275" y="175" width="5648" height="3202"/></clipPath><clipPath id="clip109"><rect x="1275" y="175" width="5648" height="3202"/></clipPath><clipPath id="clip110"><rect x="1275" y="175" width="5648" height="3202"/></clipPath><clipPath id="clip111"><rect x="1275" y="175" width="5648" height="3202"/></clipPath><clipPath id="clip112"><rect x="1275" y="175" width="5648" height="3202"/></clipPath><clipPath id="clip113"><rect x="1275" y="175" width="5648" height="3202"/></clipPath><clipPath id="clip114"><rect x="1275" y="175" width="5648" height="3202"/></clipPath><clipPath id="clip115"><rect x="1275" y="175" width="5648" height="3202"/></clipPath><clipPath id="clip116"><rect x="1275" y="175" width="5648" height="3202"/></clipPath><clipPath id="clip117"><rect x="1275" y="175" width="5648" height="3202"/></clipPath><clipPath id="clip118"><rect x="1275" y="175" width="5648" height="3202"/></clipPath><clipPath id="clip119"><rect x="1275" y="175" width="5648" height="3202"/></clipPath><clipPath id="clip120"><rect x="1275" y="175" width="5648" height="3202"/></clipPath><clipPath id="clip121"><rect x="1275" y="175" width="5648" height="3202"/></clipPath><clipPath id="clip122"><rect x="1275" y="175" width="5648" height="3202"/></clipPath><clipPath id="clip123"><rect x="1275" y="175" width="5648" height="3202"/></clipPath><clipPath id="clip124"><rect x="1275" y="175" width="5648" height="3202"/></clipPath><clipPath id="clip125"><rect x="1275" y="175" width="5648" height="3202"/></clipPath><clipPath id="clip126"><rect x="1275" y="175" width="5648" height="3202"/></clipPath><clipPath id="clip127"><rect x="1275" y="175" width="5648" height="3202"/></clipPath><clipPath id="clip128"><rect x="1275" y="175" width="5648" height="3202"/></clipPath><clipPath id="clip129"><rect x="1275" y="175" width="5648" height="3202"/></clipPath><clipPath id="clip130"><rect x="1275" y="175" width="5648" height="3202"/></clipPath><clipPath id="clip131"><rect x="1275" y="175" width="5648" height="3202"/></clipPath><clipPath id="clip132"><rect x="1275" y="175" width="5648" height="3202"/></clipPath><clipPath id="clip133"><rect x="1275" y="175" width="5648" height="3202"/></clipPath><clipPath id="clip134"><rect x="1275" y="175" width="5648" height="3202"/></clipPath><clipPath id="clip135"><rect x="1275" y="175" width="5648" height="3202"/></clipPath><clipPath id="clip136"><rect x="1275" y="175" width="5648" height="3202"/></clipPath><clipPath id="clip137"><rect x="1275" y="175" width="5648" height="3202"/></clipPath><clipPath id="clip138"><rect x="1275" y="175" width="5648" height="3202"/></clipPath><clipPath id="clip139"><rect x="1275" y="175" width="5648" height="3202"/></clipPath><clipPath id="clip140"><rect x="1275" y="175" width="5648" height="3202"/></clipPath><clipPath id="clip141"><rect x="1275" y="175" width="5648" height="3202"/></clipPath><clipPath id="clip142"><rect x="1275" y="175" width="5648" height="3202"/></clipPath><clipPath id="clip143"><rect x="1275" y="175" width="5648" height="3202"/></clipPath><clipPath id="clip144"><rect x="1275" y="175" width="5648" height="3202"/></clipPath><clipPath id="clip145"><rect x="1275" y="175" width="5648" height="3202"/></clipPath><clipPath id="clip146"><rect x="1275" y="175" width="5648" height="3202"/></clipPath><clipPath id="clip147"><rect x="1275" y="175" width="5648" height="3202"/></clipPath><clipPath id="clip148"><rect x="1275" y="175" width="5648" height="3202"/></clipPath><clipPath id="clip149"><rect x="1275" y="175" width="5648" height="3202"/></clipPath><clipPath id="clip150"><rect x="1275" y="175" width="5648" height="3202"/></clipPath><clipPath id="clip151"><rect x="1275" y="175" width="5648" height="3202"/></clipPath><clipPath id="clip152"><rect x="1275" y="175" width="5648" height="3202"/></clipPath><clipPath id="clip153"><rect x="1275" y="175" width="5648" height="3202"/></clipPath><clipPath id="clip154"><rect x="1275" y="175" width="5648" height="3202"/></clipPath><clipPath id="clip155"><rect x="1275" y="175" width="5648" height="3202"/></clipPath><clipPath id="clip156"><rect x="1275" y="175" width="5648" height="3202"/></clipPath><clipPath id="clip157"><rect x="1275" y="175" width="5648" height="3202"/></clipPath><clipPath id="clip158"><rect x="1275" y="175" width="5648" height="3202"/></clipPath><clipPath id="clip159"><rect x="1275" y="175" width="5648" height="3202"/></clipPath><clipPath id="clip160"><rect x="1275" y="175" width="5648" height="3202"/></clipPath><clipPath id="clip161"><rect x="1275" y="175" width="5648" height="3202"/></clipPath><clipPath id="clip162"><rect x="1275" y="175" width="5648" height="3202"/></clipPath><clipPath id="clip163"><rect x="1275" y="175" width="5648" height="3202"/></clipPath><clipPath id="clip164"><rect x="1275" y="175" width="5648" height="3202"/></clipPath><clipPath id="clip165"><rect x="1275" y="175" width="5648" height="3202"/></clipPath><clipPath id="clip166"><rect x="1275" y="175" width="5648" height="3202"/></clipPath><clipPath id="clip167"><rect x="1275" y="175" width="5648" height="3202"/></clipPath><clipPath id="clip168"><rect x="1275" y="175" width="5648" height="3202"/></clipPath><clipPath id="clip169"><rect x="1275" y="175" width="5648" height="3202"/></clipPath><clipPath id="clip170"><rect x="1275" y="175" width="5648" height="3202"/></clipPath><clipPath id="clip171"><rect x="1275" y="175" width="5648" height="3202"/></clipPath><clipPath id="clip172"><rect x="1275" y="175" width="5648" height="3202"/></clipPath><clipPath id="clip173"><rect x="1275" y="175" width="5648" height="3202"/></clipPath><clipPath id="clip174"><rect x="1275" y="175" width="5648" height="3202"/></clipPath><clipPath id="clip175"><rect x="1275" y="175" width="5648" height="3202"/></clipPath><clipPath id="clip176"><rect x="1275" y="175" width="5648" height="3202"/></clipPath><linearGradient x1="3852" y1="540" x2="3852" y2="563" gradientUnits="userSpaceOnUse" spreadMethod="reflect" id="fill177"><stop offset="0" stop-color="#6083CB"/><stop offset="0.5" stop-color="#3E70CA"/><stop offset="1" stop-color="#2E61BA"/></linearGradient><clipPath id="clip178"><rect x="1275" y="175" width="5648" height="3202"/></clipPath><clipPath id="clip179"><rect x="1275" y="175" width="5648" height="3202"/></clipPath><linearGradient x1="3999.5" y1="540" x2="3999.5" y2="563" gradientUnits="userSpaceOnUse" spreadMethod="reflect" id="fill180"><stop offset="0" stop-color="#F18C55"/><stop offset="0.5" stop-color="#F67B28"/><stop offset="1" stop-color="#E56B17"/></linearGradient><clipPath id="clip181"><rect x="1275" y="175" width="5648" height="3202"/></clipPath><clipPath id="clip182"><rect x="1275" y="175" width="5648" height="3202"/></clipPath><linearGradient x1="4211" y1="540" x2="4211" y2="563" gradientUnits="userSpaceOnUse" spreadMethod="reflect" id="fill183"><stop offset="0" stop-color="#AFAFAF"/><stop offset="0.5" stop-color="#A5A5A5"/><stop offset="1" stop-color="#929292"/></linearGradient><clipPath id="clip184"><rect x="1275" y="175" width="5648" height="3202"/></clipPath></defs><g clip-path="url(#clip0)" transform="translate(-1274 -174)"><rect x="1275" y="175" width="5648" height="3202" fill="#FFFFFF"/><g clip-path="url(#clip1)"><path d="M1518.5 2784.59 6872.5 2784.59M1518.5 2516.58 6872.5 2516.58M1518.5 2248.57 6872.5 2248.57M1518.5 1980.57 6872.5 1980.57M1518.5 1712.56 6872.5 1712.56M1518.5 1444.55 6872.5 1444.55M1518.5 1176.54 6872.5 1176.54M1518.5 908.53 6872.5 908.53M1518.5 640.5 6872.5 640.5" stroke="#E0E5EB" stroke-width="3.4375" stroke-linejoin="round" stroke-miterlimit="10" fill="none"/></g><g clip-path="url(#clip2)"><rect x="1558" y="2887" width="80.0001" height="166" fill="url(#fill3)"/></g><g clip-path="url(#clip4)"><rect x="1915" y="3002" width="80.0001" height="50.9998" fill="url(#fill5)"/></g><g clip-path="url(#clip6)"><rect x="2272" y="3022" width="80" height="31" fill="url(#fill7)"/></g><g clip-path="url(#clip8)"><rect x="2629" y="3030" width="80" height="22.9998" fill="url(#fill9)"/></g><g clip-path="url(#clip10)"><rect x="2986" y="3026" width="79.9998" height="26.9998" fill="url(#fill11)"/></g><g clip-path="url(#clip12)"><rect x="3343" y="2686" width="80" height="367" fill="url(#fill13)"/></g><g clip-path="url(#clip14)"><rect x="3700" y="2915" width="79.9998" height="138" fill="url(#fill15)"/></g><g clip-path="url(#clip16)"><rect x="4057" y="2954" width="80" height="99" fill="url(#fill17)"/></g><g clip-path="url(#clip18)"><rect x="4414" y="2973" width="79.9995" height="79.9998" fill="url(#fill19)"/></g><g clip-path="url(#clip20)"><rect x="4771" y="2971" width="80" height="81.9998" fill="url(#fill21)"/></g><g clip-path="url(#clip22)"><rect x="5128" y="951" width="80" height="2102" fill="url(#fill23)"/></g><g clip-path="url(#clip24)"><rect x="5485" y="2576" width="79" height="477" fill="url(#fill25)"/></g><g clip-path="url(#clip26)"><rect x="5842" y="2848" width="79" height="205" fill="url(#fill27)"/></g><g clip-path="url(#clip28)"><rect x="6199" y="2932" width="79" height="121" fill="url(#fill29)"/></g><g clip-path="url(#clip30)"><rect x="6556" y="2932" width="79" height="121" fill="url(#fill31)"/></g><g clip-path="url(#clip32)"><rect x="1657" y="2874" width="80.0001" height="179" fill="url(#fill33)"/></g><g clip-path="url(#clip34)"><rect x="2014" y="3002" width="80" height="50.9998" fill="url(#fill35)"/></g><g clip-path="url(#clip36)"><rect x="2371" y="3022" width="80" height="31" fill="url(#fill37)"/></g><g clip-path="url(#clip38)"><rect x="2728" y="3030" width="80" height="22.9998" fill="url(#fill39)"/></g><g clip-path="url(#clip40)"><rect x="3085" y="3025" width="79.9998" height="27.9998" fill="url(#fill41)"/></g><g clip-path="url(#clip42)"><rect x="3442" y="2652" width="80" height="401" fill="url(#fill43)"/></g><g clip-path="url(#clip44)"><rect x="3799" y="2917" width="79.9998" height="136" fill="url(#fill45)"/></g><g clip-path="url(#clip46)"><rect x="4156" y="2954" width="79" height="99" fill="url(#fill47)"/></g><g clip-path="url(#clip48)"><rect x="4513" y="2974" width="79" height="78.9998" fill="url(#fill49)"/></g><g clip-path="url(#clip50)"><rect x="4870" y="2970" width="79" height="82.9998" fill="url(#fill51)"/></g><g clip-path="url(#clip52)"><rect x="5227" y="988" width="79" height="2065" fill="url(#fill53)"/></g><g clip-path="url(#clip54)"><rect x="5584" y="2578" width="79" height="475" fill="url(#fill55)"/></g><g clip-path="url(#clip56)"><rect x="5941" y="2851" width="79" height="202" fill="url(#fill57)"/></g><g clip-path="url(#clip58)"><rect x="6297" y="2936" width="79.9995" height="117" fill="url(#fill59)"/></g><g clip-path="url(#clip60)"><rect x="6654" y="2932" width="80" height="121" fill="url(#fill61)"/></g><g clip-path="url(#clip62)"><rect x="1756" y="2883" width="80.0001" height="170" fill="url(#fill63)"/></g><g clip-path="url(#clip64)"><rect x="2113" y="3002" width="80" height="50.9998" fill="url(#fill65)"/></g><g clip-path="url(#clip66)"><rect x="2470" y="3022" width="80" height="31" fill="url(#fill67)"/></g><g clip-path="url(#clip68)"><rect x="2827" y="3030" width="80" height="22.9998" fill="url(#fill69)"/></g><g clip-path="url(#clip70)"><rect x="3184" y="3024" width="78.9998" height="28.9998" fill="url(#fill71)"/></g><g clip-path="url(#clip72)"><rect x="3541" y="2684" width="79" height="369" fill="url(#fill73)"/></g><g clip-path="url(#clip74)"><rect x="3898" y="2918" width="78.9998" height="135" fill="url(#fill75)"/></g><g clip-path="url(#clip76)"><rect x="4255" y="2952" width="79" height="101" fill="url(#fill77)"/></g><g clip-path="url(#clip78)"><rect x="4612" y="2971" width="79" height="81.9998" fill="url(#fill79)"/></g><g clip-path="url(#clip80)"><rect x="4968" y="2967" width="80" height="86" fill="url(#fill81)"/></g><g clip-path="url(#clip82)"><rect x="5325" y="924" width="80" height="2129" fill="url(#fill83)"/></g><g clip-path="url(#clip84)"><rect x="5682" y="2580" width="80" height="473" fill="url(#fill85)"/></g><g clip-path="url(#clip86)"><rect x="6039" y="2849" width="80" height="204" fill="url(#fill87)"/></g><g clip-path="url(#clip88)"><rect x="6396" y="2934" width="79.9995" height="119" fill="url(#fill89)"/></g><g clip-path="url(#clip90)"><rect x="6753" y="2930" width="80" height="123" fill="url(#fill91)"/></g><g clip-path="url(#clip92)"><path d="M1518.5 3052.5 6872.5 3052.5" stroke="#E0E5EB" stroke-width="3.4375" stroke-linejoin="round" stroke-miterlimit="10" fill="none" fill-rule="evenodd"/></g><g clip-path="url(#clip93)"><path d="M1518.5 3052.5 1518.5 3132.5M3303.61 3052.5 3303.61 3132.5M5087.67 3052.5 5087.67 3132.5M6872.5 3052.5 6872.5 3132.5" stroke="#E0E5EB" stroke-width="3.4375" stroke-linejoin="round" stroke-miterlimit="10" fill="none"/></g><g clip-path="url(#clip94)"><path d="M1518.5 3132.5 1518.5 3212.5M3303.61 3132.5 3303.61 3212.5M5087.67 3132.5 5087.67 3212.5M6872.5 3132.5 6872.5 3212.5" stroke="#E0E5EB" stroke-width="3.4375" stroke-linejoin="round" stroke-miterlimit="10" fill="none"/></g><g clip-path="url(#clip95)"><text fill="#44546A" font-family="Calibri,Calibri_MSFontService,sans-serif" font-weight="400" font-size="41" transform="matrix(1 0 0 1 1566.89 2855)">124</text></g><g clip-path="url(#clip96)"><text fill="#44546A" font-family="Calibri,Calibri_MSFontService,sans-serif" font-weight="400" font-size="41" transform="matrix(1 0 0 1 1934.29 2970)">37</text></g><g clip-path="url(#clip97)"><text fill="#44546A" font-family="Calibri,Calibri_MSFontService,sans-serif" font-weight="400" font-size="41" transform="matrix(1 0 0 1 2291.23 2990)">23</text></g><g clip-path="url(#clip98)"><text fill="#44546A" font-family="Calibri,Calibri_MSFontService,sans-serif" font-weight="400" font-size="41" transform="matrix(1 0 0 1 2648.17 2998)">17</text></g><g clip-path="url(#clip99)"><text fill="#44546A" font-family="Calibri,Calibri_MSFontService,sans-serif" font-weight="400" font-size="41" transform="matrix(1 0 0 1 3005.11 2994)">20</text></g><g clip-path="url(#clip100)"><text fill="#44546A" font-family="Calibri,Calibri_MSFontService,sans-serif" font-weight="400" font-size="41" transform="matrix(1 0 0 1 3351.61 2654)">273</text></g><g clip-path="url(#clip101)"><text fill="#44546A" font-family="Calibri,Calibri_MSFontService,sans-serif" font-weight="400" font-size="41" transform="matrix(1 0 0 1 3708.55 2883)">103</text></g><g clip-path="url(#clip102)"><text fill="#44546A" font-family="Calibri,Calibri_MSFontService,sans-serif" font-weight="400" font-size="41" transform="matrix(1 0 0 1 4075.94 2922)">74</text></g><g clip-path="url(#clip103)"><text fill="#44546A" font-family="Calibri,Calibri_MSFontService,sans-serif" font-weight="400" font-size="41" transform="matrix(1 0 0 1 4432.88 2941)">60</text></g><g clip-path="url(#clip104)"><text fill="#44546A" font-family="Calibri,Calibri_MSFontService,sans-serif" font-weight="400" font-size="41" transform="matrix(1 0 0 1 4789.83 2939)">61</text></g><g clip-path="url(#clip105)"><text fill="#44546A" font-family="Calibri,Calibri_MSFontService,sans-serif" font-weight="400" font-size="41" transform="matrix(1 0 0 1 5125.87 919)">1568</text></g><g clip-path="url(#clip106)"><text fill="#44546A" font-family="Calibri,Calibri_MSFontService,sans-serif" font-weight="400" font-size="41" transform="matrix(1 0 0 1 5493.26 2544)">356</text></g><g clip-path="url(#clip107)"><text fill="#44546A" font-family="Calibri,Calibri_MSFontService,sans-serif" font-weight="400" font-size="41" transform="matrix(1 0 0 1 5850.2 2816)">152</text></g><g clip-path="url(#clip108)"><text fill="#44546A" font-family="Calibri,Calibri_MSFontService,sans-serif" font-weight="400" font-size="41" transform="matrix(1 0 0 1 6217.6 2900)">90</text></g><g clip-path="url(#clip109)"><text fill="#44546A" font-family="Calibri,Calibri_MSFontService,sans-serif" font-weight="400" font-size="41" transform="matrix(1 0 0 1 6574.54 2900)">90</text></g><g clip-path="url(#clip110)"><text fill="#44546A" font-family="Calibri,Calibri_MSFontService,sans-serif" font-weight="400" font-size="41" transform="matrix(1 0 0 1 1665.69 2842)">133</text></g><g clip-path="url(#clip111)"><text fill="#44546A" font-family="Calibri,Calibri_MSFontService,sans-serif" font-weight="400" font-size="41" transform="matrix(1 0 0 1 2033.08 2971)">37</text></g><g clip-path="url(#clip112)"><text fill="#44546A" font-family="Calibri,Calibri_MSFontService,sans-serif" font-weight="400" font-size="41" transform="matrix(1 0 0 1 2390.03 2990)">23</text></g><g clip-path="url(#clip113)"><text fill="#44546A" font-family="Calibri,Calibri_MSFontService,sans-serif" font-weight="400" font-size="41" transform="matrix(1 0 0 1 2746.97 2998)">17</text></g><g clip-path="url(#clip114)"><text fill="#44546A" font-family="Calibri,Calibri_MSFontService,sans-serif" font-weight="400" font-size="41" transform="matrix(1 0 0 1 3103.91 2993)">21</text></g><g clip-path="url(#clip115)"><text fill="#44546A" font-family="Calibri,Calibri_MSFontService,sans-serif" font-weight="400" font-size="41" transform="matrix(1 0 0 1 3450.4 2620)">299</text></g><g clip-path="url(#clip116)"><text fill="#44546A" font-family="Calibri,Calibri_MSFontService,sans-serif" font-weight="400" font-size="41" transform="matrix(1 0 0 1 3807.35 2885)">101</text></g><g clip-path="url(#clip117)"><text fill="#44546A" font-family="Calibri,Calibri_MSFontService,sans-serif" font-weight="400" font-size="41" transform="matrix(1 0 0 1 4174.74 2922)">73</text></g><g clip-path="url(#clip118)"><text fill="#44546A" font-family="Calibri,Calibri_MSFontService,sans-serif" font-weight="400" font-size="41" transform="matrix(1 0 0 1 4531.68 2942)">59</text></g><g clip-path="url(#clip119)"><text fill="#44546A" font-family="Calibri,Calibri_MSFontService,sans-serif" font-weight="400" font-size="41" transform="matrix(1 0 0 1 4888.62 2938)">62</text></g><g clip-path="url(#clip120)"><text fill="#44546A" font-family="Calibri,Calibri_MSFontService,sans-serif" font-weight="400" font-size="41" transform="matrix(1 0 0 1 5224.67 956)">1541</text></g><g clip-path="url(#clip121)"><text fill="#44546A" font-family="Calibri,Calibri_MSFontService,sans-serif" font-weight="400" font-size="41" transform="matrix(1 0 0 1 5592.06 2546)">354</text></g><g clip-path="url(#clip122)"><text fill="#44546A" font-family="Calibri,Calibri_MSFontService,sans-serif" font-weight="400" font-size="41" transform="matrix(1 0 0 1 5949 2819)">151</text></g><g clip-path="url(#clip123)"><text fill="#44546A" font-family="Calibri,Calibri_MSFontService,sans-serif" font-weight="400" font-size="41" transform="matrix(1 0 0 1 6316.39 2904)">87</text></g><g clip-path="url(#clip124)"><text fill="#44546A" font-family="Calibri,Calibri_MSFontService,sans-serif" font-weight="400" font-size="41" transform="matrix(1 0 0 1 6673.34 2901)">90</text></g><g clip-path="url(#clip125)"><text fill="#44546A" font-family="Calibri,Calibri_MSFontService,sans-serif" font-weight="400" font-size="41" transform="matrix(1 0 0 1 1764.49 2851)">127</text></g><g clip-path="url(#clip126)"><text fill="#44546A" font-family="Calibri,Calibri_MSFontService,sans-serif" font-weight="400" font-size="41" transform="matrix(1 0 0 1 2131.88 2970)">38</text></g><g clip-path="url(#clip127)"><text fill="#44546A" font-family="Calibri,Calibri_MSFontService,sans-serif" font-weight="400" font-size="41" transform="matrix(1 0 0 1 2488.82 2990)">23</text></g><g clip-path="url(#clip128)"><text fill="#44546A" font-family="Calibri,Calibri_MSFontService,sans-serif" font-weight="400" font-size="41" transform="matrix(1 0 0 1 2845.76 2998)">17</text></g><g clip-path="url(#clip129)"><text fill="#44546A" font-family="Calibri,Calibri_MSFontService,sans-serif" font-weight="400" font-size="41" transform="matrix(1 0 0 1 3202.71 2992)">21</text></g><g clip-path="url(#clip130)"><text fill="#44546A" font-family="Calibri,Calibri_MSFontService,sans-serif" font-weight="400" font-size="41" transform="matrix(1 0 0 1 3549.2 2652)">275</text></g><g clip-path="url(#clip131)"><text fill="#44546A" font-family="Calibri,Calibri_MSFontService,sans-serif" font-weight="400" font-size="41" transform="matrix(1 0 0 1 3906.14 2886)">101</text></g><g clip-path="url(#clip132)"><text fill="#44546A" font-family="Calibri,Calibri_MSFontService,sans-serif" font-weight="400" font-size="41" transform="matrix(1 0 0 1 4273.53 2920)">75</text></g><g clip-path="url(#clip133)"><text fill="#44546A" font-family="Calibri,Calibri_MSFontService,sans-serif" font-weight="400" font-size="41" transform="matrix(1 0 0 1 4630.48 2939)">61</text></g><g clip-path="url(#clip134)"><text fill="#44546A" font-family="Calibri,Calibri_MSFontService,sans-serif" font-weight="400" font-size="41" transform="matrix(1 0 0 1 4987.42 2935)">64</text></g><g clip-path="url(#clip135)"><text fill="#44546A" font-family="Calibri,Calibri_MSFontService,sans-serif" font-weight="400" font-size="41" transform="matrix(1 0 0 1 5323.46 892)">1588</text></g><g clip-path="url(#clip136)"><text fill="#44546A" font-family="Calibri,Calibri_MSFontService,sans-serif" font-weight="400" font-size="41" transform="matrix(1 0 0 1 5690.85 2548)">352</text></g><g clip-path="url(#clip137)"><text fill="#44546A" font-family="Calibri,Calibri_MSFontService,sans-serif" font-weight="400" font-size="41" transform="matrix(1 0 0 1 6047.8 2817)">152</text></g><g clip-path="url(#clip138)"><text fill="#44546A" font-family="Calibri,Calibri_MSFontService,sans-serif" font-weight="400" font-size="41" transform="matrix(1 0 0 1 6415.19 2902)">88</text></g><g clip-path="url(#clip139)"><text fill="#44546A" font-family="Calibri,Calibri_MSFontService,sans-serif" font-weight="400" font-size="41" transform="matrix(1 0 0 1 6772.13 2898)">92</text></g><g clip-path="url(#clip140)"><text fill="#44546A" font-family="Calibri,Calibri_MSFontService,sans-serif" font-weight="400" font-size="41" transform="matrix(1 0 0 1 1459.4 3064)">0</text></g><g clip-path="url(#clip141)"><text fill="#44546A" font-family="Calibri,Calibri_MSFontService,sans-serif" font-weight="400" font-size="41" transform="matrix(1 0 0 1 1417.6 2796)">200</text></g><g clip-path="url(#clip142)"><text fill="#44546A" font-family="Calibri,Calibri_MSFontService,sans-serif" font-weight="400" font-size="41" transform="matrix(1 0 0 1 1417.6 2528)">400</text></g><g clip-path="url(#clip143)"><text fill="#44546A" font-family="Calibri,Calibri_MSFontService,sans-serif" font-weight="400" font-size="41" transform="matrix(1 0 0 1 1417.6 2260)">600</text></g><g clip-path="url(#clip144)"><text fill="#44546A" font-family="Calibri,Calibri_MSFontService,sans-serif" font-weight="400" font-size="41" transform="matrix(1 0 0 1 1417.6 1992)">800</text></g><g clip-path="url(#clip145)"><text fill="#44546A" font-family="Calibri,Calibri_MSFontService,sans-serif" font-weight="400" font-size="41" transform="matrix(1 0 0 1 1396.7 1724)">1000</text></g><g clip-path="url(#clip146)"><text fill="#44546A" font-family="Calibri,Calibri_MSFontService,sans-serif" font-weight="400" font-size="41" transform="matrix(1 0 0 1 1396.7 1456)">1200</text></g><g clip-path="url(#clip147)"><text fill="#44546A" font-family="Calibri,Calibri_MSFontService,sans-serif" font-weight="400" font-size="41" transform="matrix(1 0 0 1 1396.7 1188)">1400</text></g><g clip-path="url(#clip148)"><text fill="#44546A" font-family="Calibri,Calibri_MSFontService,sans-serif" font-weight="400" font-size="41" transform="matrix(1 0 0 1 1396.7 920)">1600</text></g><g clip-path="url(#clip149)"><text fill="#44546A" font-family="Calibri,Calibri_MSFontService,sans-serif" font-weight="400" font-size="41" transform="matrix(1 0 0 1 1396.7 652)">1800</text></g><g clip-path="url(#clip150)"><text fill="#44546A" font-family="Calibri,Calibri_MSFontService,sans-serif" font-weight="400" font-size="41" transform="matrix(1 0 0 1 1686.59 3118)">1</text></g><g clip-path="url(#clip151)"><text fill="#44546A" font-family="Calibri,Calibri_MSFontService,sans-serif" font-weight="400" font-size="41" transform="matrix(1 0 0 1 2043.53 3118)">4</text></g><g clip-path="url(#clip152)"><text fill="#44546A" font-family="Calibri,Calibri_MSFontService,sans-serif" font-weight="400" font-size="41" transform="matrix(1 0 0 1 2390.03 3118)">16</text></g><g clip-path="url(#clip153)"><text fill="#44546A" font-family="Calibri,Calibri_MSFontService,sans-serif" font-weight="400" font-size="41" transform="matrix(1 0 0 1 2746.97 3118)">40</text></g><g clip-path="url(#clip154)"><text fill="#44546A" font-family="Calibri,Calibri_MSFontService,sans-serif" font-weight="400" font-size="41" transform="matrix(1 0 0 1 3103.91 3118)">80</text></g><g clip-path="url(#clip155)"><text fill="#44546A" font-family="Calibri,Calibri_MSFontService,sans-serif" font-weight="400" font-size="41" transform="matrix(1 0 0 1 3471.3 3118)">1</text></g><g clip-path="url(#clip156)"><text fill="#44546A" font-family="Calibri,Calibri_MSFontService,sans-serif" font-weight="400" font-size="41" transform="matrix(1 0 0 1 3828.25 3118)">4</text></g><g clip-path="url(#clip157)"><text fill="#44546A" font-family="Calibri,Calibri_MSFontService,sans-serif" font-weight="400" font-size="41" transform="matrix(1 0 0 1 4174.74 3118)">16</text></g><g clip-path="url(#clip158)"><text fill="#44546A" font-family="Calibri,Calibri_MSFontService,sans-serif" font-weight="400" font-size="41" transform="matrix(1 0 0 1 4531.68 3118)">40</text></g><g clip-path="url(#clip159)"><text fill="#44546A" font-family="Calibri,Calibri_MSFontService,sans-serif" font-weight="400" font-size="41" transform="matrix(1 0 0 1 4888.62 3118)">80</text></g><g clip-path="url(#clip160)"><text fill="#44546A" font-family="Calibri,Calibri_MSFontService,sans-serif" font-weight="400" font-size="41" transform="matrix(1 0 0 1 5256.02 3118)">1</text></g><g clip-path="url(#clip161)"><text fill="#44546A" font-family="Calibri,Calibri_MSFontService,sans-serif" font-weight="400" font-size="41" transform="matrix(1 0 0 1 5612.96 3118)">4</text></g><g clip-path="url(#clip162)"><text fill="#44546A" font-family="Calibri,Calibri_MSFontService,sans-serif" font-weight="400" font-size="41" transform="matrix(1 0 0 1 5959.45 3118)">16</text></g><g clip-path="url(#clip163)"><text fill="#44546A" font-family="Calibri,Calibri_MSFontService,sans-serif" font-weight="400" font-size="41" transform="matrix(1 0 0 1 6316.39 3118)">40</text></g><g clip-path="url(#clip164)"><text fill="#44546A" font-family="Calibri,Calibri_MSFontService,sans-serif" font-weight="400" font-size="41" transform="matrix(1 0 0 1 6673.34 3118)">80</text></g><g clip-path="url(#clip165)"><text fill="#44546A" font-family="Calibri,Calibri_MSFontService,sans-serif" font-weight="400" font-size="41" transform="matrix(1 0 0 1 2390.03 3198)">32</text></g><g clip-path="url(#clip166)"><text fill="#44546A" font-family="Calibri,Calibri_MSFontService,sans-serif" font-weight="400" font-size="41" transform="matrix(1 0 0 1 4164.29 3198)">128</text></g><g clip-path="url(#clip167)"><text fill="#44546A" font-family="Calibri,Calibri_MSFontService,sans-serif" font-weight="400" font-size="41" transform="matrix(1 0 0 1 5949 3198)">512</text></g><g clip-path="url(#clip168)"><text fill="#44546A" font-family="Calibri,Calibri_MSFontService,sans-serif" font-weight="700" font-size="41" transform="matrix(6.12323e-17 -1 1 6.12323e-17 1371.61 1955)">Latency (ms)</text></g><g clip-path="url(#clip169)"><text fill="#44546A" font-family="Calibri,Calibri_MSFontService,sans-serif" font-weight="700" font-size="41" transform="matrix(1 0 0 1 4050.52 3258)">Number of Cores</text></g><g clip-path="url(#clip170)"><text fill="#44546A" font-family="Calibri,Calibri_MSFontService,sans-serif" font-weight="700" font-size="41" transform="matrix(1 0 0 1 4050.08 3309)">Sequence Length</text></g><g clip-path="url(#clip171)"><text fill="#44546A" font-family="Calibri,Calibri_MSFontService,sans-serif" font-weight="700" font-size="73" transform="matrix(1 0 0 1 3360.3 280)">Intel Ice lake Xeon 8380 </text></g><g clip-path="url(#clip172)"><text fill="#44546A" font-family="Calibri,Calibri_MSFontService,sans-serif" font-weight="700" font-size="73" transform="matrix(1 0 0 1 4095.65 280)">-</text></g><g clip-path="url(#clip173)"><text fill="#44546A" font-family="Calibri,Calibri_MSFontService,sans-serif" font-weight="700" font-size="73" transform="matrix(1 0 0 1 4134.68 280)">Intel TensorFlow Graph</text></g><g clip-path="url(#clip174)"><text fill="#44546A" font-family="Calibri,Calibri_MSFontService,sans-serif" font-weight="700" font-size="73" transform="matrix(1 0 0 1 2325.85 369)">Latency Benchmark with varying number of CPU cores involved in the computations and different memory allocators</text></g><g clip-path="url(#clip175)"><text fill="#44546A" font-family="Calibri,Calibri_MSFontService,sans-serif" font-weight="700" font-size="73" transform="matrix(1 0 0 1 3006.75 459)">(some data might be missing indicating benchmark crashed during runs)</text></g><g clip-path="url(#clip176)"><rect x="3841" y="540" width="22" height="23.0001" fill="url(#fill177)"/></g><g clip-path="url(#clip178)"><text fill="#44546A" font-family="Calibri,Calibri_MSFontService,sans-serif" font-weight="400" font-size="41" transform="matrix(1 0 0 1 3873.05 563)">glibc</text></g><g clip-path="url(#clip179)"><rect x="3988" y="540" width="23" height="23.0001" fill="url(#fill180)"/></g><g clip-path="url(#clip181)"><text fill="#44546A" font-family="Calibri,Calibri_MSFontService,sans-serif" font-weight="400" font-size="41" transform="matrix(1 0 0 1 4020.66 563)">jemalloc</text></g><g clip-path="url(#clip182)"><rect x="4200" y="540" width="22" height="23.0001" fill="url(#fill183)"/></g><g clip-path="url(#clip184)"><text fill="#44546A" font-family="Calibri,Calibri_MSFontService,sans-serif" font-weight="400" font-size="41" transform="matrix(1 0 0 1 4232.05 563)">tcmalloc</text></g><rect x="1275.5" y="175.5" width="5648" height="3202" stroke="#E0E5EB" stroke-width="3.4375" stroke-linejoin="round" stroke-miterlimit="10" fill="none"/></g></svg>