<svg version="1.1" viewBox="0.0 0.0 600.0 371.0" fill="none" stroke="none" stroke-linecap="square" stroke-miterlimit="10" width="600" height="371" xmlns:xlink="http://www.w3.org/1999/xlink" xmlns="http://www.w3.org/2000/svg"><path fill="#ffffff" d="M0 0L600.0 0L600.0 371.0L0 371.0L0 0Z" fill-rule="nonzero"/><path stroke="#333333" stroke-width="1.0" stroke-linecap="butt" d="M77.5 332.5L581.5 332.5" fill-rule="nonzero"/><path stroke="#cccccc" stroke-width="1.0" stroke-linecap="butt" d="M77.5 277.5L581.5 277.5" fill-rule="nonzero"/><path stroke="#cccccc" stroke-width="1.0" stroke-linecap="butt" d="M77.5 222.5L581.5 222.5" fill-rule="nonzero"/><path stroke="#cccccc" stroke-width="1.0" stroke-linecap="butt" d="M77.5 166.5L581.5 166.5" fill-rule="nonzero"/><path stroke="#cccccc" stroke-width="1.0" stroke-linecap="butt" d="M77.5 111.5L581.5 111.5" fill-rule="nonzero"/><clipPath id="id_0"><path d="M77.55 111.78333L581.45 111.78333L581.45 332.45L77.55 332.45L77.55 111.78333Z" clip-rule="nonzero"/></clipPath><path stroke="#000000" stroke-width="2.0" stroke-linecap="butt" stroke-opacity="0.0" clip-path="url(#id_0)" d="M178.0 332.0L131.0 332.0L131.0 181.0C131.0 179.89543 131.89543 179.0 133.0 179.0L176.0 179.0C177.10457 179.0 178.0 179.89543 178.0 181.0Z" fill-rule="nonzero"/><path fill="#85b737" clip-path="url(#id_0)" d="M178.0 332.0L131.0 332.0L131.0 181.0C131.0 179.89543 131.89543 179.0 133.0 179.0L176.0 179.0C177.10457 179.0 178.0 179.89543 178.0 181.0Z" fill-rule="nonzero"/><path stroke="#000000" stroke-width="2.0" stroke-linecap="butt" stroke-opacity="0.0" clip-path="url(#id_0)" d="M329.0 332.0L282.0 332.0L282.0 155.0C282.0 153.89543 282.89542 153.0 284.0 153.0L327.0 153.0C328.10458 153.0 329.0 153.89543 329.0 155.0Z" fill-rule="nonzero"/><path fill="#85b737" clip-path="url(#id_0)" d="M329.0 332.0L282.0 332.0L282.0 155.0C282.0 153.89543 282.89542 153.0 284.0 153.0L327.0 153.0C328.10458 153.0 329.0 153.89543 329.0 155.0Z" fill-rule="nonzero"/><path stroke="#000000" stroke-width="2.0" stroke-linecap="butt" stroke-opacity="0.0" clip-path="url(#id_0)" d="M479.0 332.0L432.0 332.0L432.0 194.0C432.0 192.89543 432.89542 192.0 434.0 192.0L477.0 192.0C478.10458 192.0 479.0 192.89543 479.0 194.0Z" fill-rule="nonzero"/><path fill="#85b737" clip-path="url(#id_0)" d="M479.0 332.0L432.0 332.0L432.0 194.0C432.0 192.89543 432.89542 192.0 434.0 192.0L477.0 192.0C478.10458 192.0 479.0 192.89543 479.0 194.0Z" fill-rule="nonzero"/><path stroke="#000000" stroke-width="2.0" stroke-linecap="butt" stroke-opacity="0.0" clip-path="url(#id_0)" d="M378.0 332.0L331.0 332.0L331.0 173.0C331.0 171.89543 331.89542 171.0 333.0 171.0L376.0 171.0C377.10458 171.0 378.0 171.89543 378.0 173.0Z" fill-rule="nonzero"/><path fill="#3d5314" clip-path="url(#id_0)" d="M378.0 332.0L331.0 332.0L331.0 173.0C331.0 171.89543 331.89542 171.0 333.0 171.0L376.0 171.0C377.10458 171.0 378.0 171.89543 378.0 173.0Z" fill-rule="nonzero"/><path stroke="#000000" stroke-width="2.0" stroke-linecap="butt" stroke-opacity="0.0" clip-path="url(#id_0)" d="M528.0 332.0L481.0 332.0L481.0 160.0C481.0 158.89543 481.89542 158.0 483.0 158.0L526.0 158.0C527.10455 158.0 528.0 158.89543 528.0 160.0Z" fill-rule="nonzero"/><path fill="#3d5314" clip-path="url(#id_0)" d="M528.0 332.0L481.0 332.0L481.0 160.0C481.0 158.89543 481.89542 158.0 483.0 158.0L526.0 158.0C527.10455 158.0 528.0 158.89543 528.0 160.0Z" fill-rule="nonzero"/><path stroke="#85b737" stroke-width="3.0" stroke-linejoin="round" stroke-linecap="round" d="M149.29688 195.53775L143.70312 195.53775L143.70312 194.7565L146.65625 191.47525Q147.3125 190.72525 147.5625 190.27213Q147.8125 189.80338 147.8125 189.30338Q147.8125 188.6315 147.40625 188.20963Q147.01562 187.77213 146.32812 187.77213Q145.53125 187.77213 145.07812 188.24088Q144.625 188.694 144.625 189.52213L143.54688 189.52213Q143.54688 188.33463 144.29688 187.61588Q145.0625 186.8815 146.32812 186.8815Q147.53125 186.8815 148.21875 187.5065Q148.90625 188.1315 148.90625 189.17838Q148.90625 190.42838 147.29688 192.17838L145.01562 194.64713L149.29688 194.64713L149.29688 195.53775ZM150.84375 194.97525Q150.84375 194.694 151.0 194.5065Q151.17188 194.319 151.5 194.319Q151.84375 194.319 152.01562 194.5065Q152.1875 194.694 152.1875 194.97525Q152.1875 195.24088 152.01562 195.42838Q151.84375 195.60025 151.5 195.60025Q151.17188 195.60025 151.0 195.42838Q150.84375 195.24088 150.84375 194.97525ZM158.89062 189.22525Q158.89062 189.86588 158.54688 190.36588Q158.20312 190.86588 157.64062 191.14713Q158.29688 191.42838 158.6875 191.99088Q159.07812 192.53775 159.07812 193.24088Q159.07812 194.33463 158.32812 195.0065Q157.59375 195.66275 156.375 195.66275Q155.14062 195.66275 154.39062 195.0065Q153.65625 194.33463 153.65625 193.24088Q153.65625 192.53775 154.03125 191.99088Q154.40625 191.42838 155.07812 191.14713Q154.51562 190.86588 154.1875 190.36588Q153.85938 189.86588 153.85938 189.22525Q153.85938 188.14713 154.54688 187.52213Q155.23438 186.8815 156.375 186.8815Q157.5 186.8815 158.1875 187.52213Q158.89062 188.14713 158.89062 189.22525ZM158.0 193.20963Q158.0 192.49088 157.54688 192.05338Q157.09375 191.60025 156.35938 191.60025Q155.625 191.60025 155.17188 192.05338Q154.73438 192.49088 154.73438 193.22525Q154.73438 193.944 155.17188 194.36588Q155.60938 194.77213 156.375 194.77213Q157.125 194.77213 157.5625 194.35025Q158.0 193.92838 158.0 193.20963ZM156.375 187.77213Q155.73438 187.77213 155.32812 188.17838Q154.9375 188.569 154.9375 189.2565Q154.9375 189.89713 155.32812 190.30338Q155.71875 190.70963 156.35938 190.70963Q157.01562 190.70963 157.40625 190.30338Q157.79688 189.89713 157.79688 189.2565Q157.79688 188.60025 157.39062 188.194Q156.98438 187.77213 156.375 187.77213ZM162.95312 191.5065L164.35938 189.194L165.625 189.194L163.54688 192.33463L165.6875 195.53775L164.4375 195.53775L162.96875 193.16275L161.5 195.53775L160.23438 195.53775L162.375 192.33463L160.3125 189.194L161.5625 189.194L162.95312 191.5065Z" fill-rule="nonzero"/><path fill="#000000" d="M149.29688 195.53775L143.70312 195.53775L143.70312 194.7565L146.65625 191.47525Q147.3125 190.72525 147.5625 190.27213Q147.8125 189.80338 147.8125 189.30338Q147.8125 188.6315 147.40625 188.20963Q147.01562 187.77213 146.32812 187.77213Q145.53125 187.77213 145.07812 188.24088Q144.625 188.694 144.625 189.52213L143.54688 189.52213Q143.54688 188.33463 144.29688 187.61588Q145.0625 186.8815 146.32812 186.8815Q147.53125 186.8815 148.21875 187.5065Q148.90625 188.1315 148.90625 189.17838Q148.90625 190.42838 147.29688 192.17838L145.01562 194.64713L149.29688 194.64713L149.29688 195.53775ZM150.84375 194.97525Q150.84375 194.694 151.0 194.5065Q151.17188 194.319 151.5 194.319Q151.84375 194.319 152.01562 194.5065Q152.1875 194.694 152.1875 194.97525Q152.1875 195.24088 152.01562 195.42838Q151.84375 195.60025 151.5 195.60025Q151.17188 195.60025 151.0 195.42838Q150.84375 195.24088 150.84375 194.97525ZM158.89062 189.22525Q158.89062 189.86588 158.54688 190.36588Q158.20312 190.86588 157.64062 191.14713Q158.29688 191.42838 158.6875 191.99088Q159.07812 192.53775 159.07812 193.24088Q159.07812 194.33463 158.32812 195.0065Q157.59375 195.66275 156.375 195.66275Q155.14062 195.66275 154.39062 195.0065Q153.65625 194.33463 153.65625 193.24088Q153.65625 192.53775 154.03125 191.99088Q154.40625 191.42838 155.07812 191.14713Q154.51562 190.86588 154.1875 190.36588Q153.85938 189.86588 153.85938 189.22525Q153.85938 188.14713 154.54688 187.52213Q155.23438 186.8815 156.375 186.8815Q157.5 186.8815 158.1875 187.52213Q158.89062 188.14713 158.89062 189.22525ZM158.0 193.20963Q158.0 192.49088 157.54688 192.05338Q157.09375 191.60025 156.35938 191.60025Q155.625 191.60025 155.17188 192.05338Q154.73438 192.49088 154.73438 193.22525Q154.73438 193.944 155.17188 194.36588Q155.60938 194.77213 156.375 194.77213Q157.125 194.77213 157.5625 194.35025Q158.0 193.92838 158.0 193.20963ZM156.375 187.77213Q155.73438 187.77213 155.32812 188.17838Q154.9375 188.569 154.9375 189.2565Q154.9375 189.89713 155.32812 190.30338Q155.71875 190.70963 156.35938 190.70963Q157.01562 190.70963 157.40625 190.30338Q157.79688 189.89713 157.79688 189.2565Q157.79688 188.60025 157.39062 188.194Q156.98438 187.77213 156.375 187.77213ZM162.95312 191.5065L164.35938 189.194L165.625 189.194L163.54688 192.33463L165.6875 195.53775L164.4375 195.53775L162.96875 193.16275L161.5 195.53775L160.23438 195.53775L162.375 192.33463L160.3125 189.194L161.5625 189.194L162.95312 191.5065Z" fill-rule="nonzero"/><path stroke="#85b737" stroke-width="3.0" stroke-linejoin="round" stroke-linecap="round" d="M296.28125 164.7518L297.09375 164.7518Q297.875 164.73618 298.3125 164.34555Q298.75 163.95493 298.75 163.28305Q298.75 161.78305 297.25 161.78305Q296.54688 161.78305 296.125 162.1893Q295.71875 162.59555 295.71875 163.2518L294.625 163.2518Q294.625 162.23618 295.35938 161.5643Q296.10938 160.89243 297.25 160.89243Q298.45312 160.89243 299.14062 161.53305Q299.82812 162.17368 299.82812 163.3143Q299.82812 163.8768 299.46875 164.39243Q299.10938 164.90805 298.48438 165.17368Q299.1875 165.39243 299.5625 165.90805Q299.95312 166.42368 299.95312 167.17368Q299.95312 168.3143 299.20312 169.0018Q298.45312 169.67368 297.25 169.67368Q296.0625 169.67368 295.29688 169.01743Q294.54688 168.36118 294.54688 167.29868L295.64062 167.29868Q295.64062 167.97055 296.07812 168.3768Q296.51562 168.78305 297.26562 168.78305Q298.04688 168.78305 298.45312 168.3768Q298.875 167.95493 298.875 167.1893Q298.875 166.45493 298.42188 166.0643Q297.96875 165.65805 297.09375 165.64243L296.28125 165.64243L296.28125 164.7518ZM301.84375 168.98618Q301.84375 168.70493 302.0 168.51743Q302.17188 168.32993 302.5 168.32993Q302.84375 168.32993 303.01562 168.51743Q303.1875 168.70493 303.1875 168.98618Q303.1875 169.2518 303.01562 169.4393Q302.84375 169.61118 302.5 169.61118Q302.17188 169.61118 302.0 169.4393Q301.84375 169.2518 301.84375 168.98618ZM306.28125 164.7518L307.09375 164.7518Q307.875 164.73618 308.3125 164.34555Q308.75 163.95493 308.75 163.28305Q308.75 161.78305 307.25 161.78305Q306.54688 161.78305 306.125 162.1893Q305.71875 162.59555 305.71875 163.2518L304.625 163.2518Q304.625 162.23618 305.35938 161.5643Q306.10938 160.89243 307.25 160.89243Q308.45312 160.89243 309.14062 161.53305Q309.82812 162.17368 309.82812 163.3143Q309.82812 163.8768 309.46875 164.39243Q309.10938 164.90805 308.48438 165.17368Q309.1875 165.39243 309.5625 165.90805Q309.95312 166.42368 309.95312 167.17368Q309.95312 168.3143 309.20312 169.0018Q308.45312 169.67368 307.25 169.67368Q306.0625 169.67368 305.29688 169.01743Q304.54688 168.36118 304.54688 167.29868L305.64062 167.29868Q305.64062 167.97055 306.07812 168.3768Q306.51562 168.78305 307.26562 168.78305Q308.04688 168.78305 308.45312 168.3768Q308.875 167.95493 308.875 167.1893Q308.875 166.45493 308.42188 166.0643Q307.96875 165.65805 307.09375 165.64243L306.28125 165.64243L306.28125 164.7518ZM313.95312 165.51743L315.35938 163.20493L316.625 163.20493L314.54688 166.34555L316.6875 169.54868L315.4375 169.54868L313.96875 167.17368L312.5 169.54868L311.23438 169.54868L313.375 166.34555L311.3125 163.20493L312.5625 163.20493L313.95312 165.51743Z" fill-rule="nonzero"/><path fill="#000000" d="M296.28125 164.7518L297.09375 164.7518Q297.875 164.73618 298.3125 164.34555Q298.75 163.95493 298.75 163.28305Q298.75 161.78305 297.25 161.78305Q296.54688 161.78305 296.125 162.1893Q295.71875 162.59555 295.71875 163.2518L294.625 163.2518Q294.625 162.23618 295.35938 161.5643Q296.10938 160.89243 297.25 160.89243Q298.45312 160.89243 299.14062 161.53305Q299.82812 162.17368 299.82812 163.3143Q299.82812 163.8768 299.46875 164.39243Q299.10938 164.90805 298.48438 165.17368Q299.1875 165.39243 299.5625 165.90805Q299.95312 166.42368 299.95312 167.17368Q299.95312 168.3143 299.20312 169.0018Q298.45312 169.67368 297.25 169.67368Q296.0625 169.67368 295.29688 169.01743Q294.54688 168.36118 294.54688 167.29868L295.64062 167.29868Q295.64062 167.97055 296.07812 168.3768Q296.51562 168.78305 297.26562 168.78305Q298.04688 168.78305 298.45312 168.3768Q298.875 167.95493 298.875 167.1893Q298.875 166.45493 298.42188 166.0643Q297.96875 165.65805 297.09375 165.64243L296.28125 165.64243L296.28125 164.7518ZM301.84375 168.98618Q301.84375 168.70493 302.0 168.51743Q302.17188 168.32993 302.5 168.32993Q302.84375 168.32993 303.01562 168.51743Q303.1875 168.70493 303.1875 168.98618Q303.1875 169.2518 303.01562 169.4393Q302.84375 169.61118 302.5 169.61118Q302.17188 169.61118 302.0 169.4393Q301.84375 169.2518 301.84375 168.98618ZM306.28125 164.7518L307.09375 164.7518Q307.875 164.73618 308.3125 164.34555Q308.75 163.95493 308.75 163.28305Q308.75 161.78305 307.25 161.78305Q306.54688 161.78305 306.125 162.1893Q305.71875 162.59555 305.71875 163.2518L304.625 163.2518Q304.625 162.23618 305.35938 161.5643Q306.10938 160.89243 307.25 160.89243Q308.45312 160.89243 309.14062 161.53305Q309.82812 162.17368 309.82812 163.3143Q309.82812 163.8768 309.46875 164.39243Q309.10938 164.90805 308.48438 165.17368Q309.1875 165.39243 309.5625 165.90805Q309.95312 166.42368 309.95312 167.17368Q309.95312 168.3143 309.20312 169.0018Q308.45312 169.67368 307.25 169.67368Q306.0625 169.67368 305.29688 169.01743Q304.54688 168.36118 304.54688 167.29868L305.64062 167.29868Q305.64062 167.97055 306.07812 168.3768Q306.51562 168.78305 307.26562 168.78305Q308.04688 168.78305 308.45312 168.3768Q308.875 167.95493 308.875 167.1893Q308.875 166.45493 308.42188 166.0643Q307.96875 165.65805 307.09375 165.64243L306.28125 165.64243L306.28125 164.7518ZM313.95312 165.51743L315.35938 163.20493L316.625 163.20493L314.54688 166.34555L316.6875 169.54868L315.4375 169.54868L313.96875 167.17368L312.5 169.54868L311.23438 169.54868L313.375 166.34555L311.3125 163.20493L312.5625 163.20493L313.95312 165.51743Z" fill-rule="nonzero"/><path stroke="#85b737" stroke-width="3.0" stroke-linejoin="round" stroke-linecap="round" d="M450.29688 209.0724L444.70312 209.0724L444.70312 208.29115L447.65625 205.0099Q448.3125 204.2599 448.5625 203.80678Q448.8125 203.33803 448.8125 202.83803Q448.8125 202.16615 448.40625 201.74428Q448.01562 201.30678 447.32812 201.30678Q446.53125 201.30678 446.07812 201.77553Q445.625 202.22865 445.625 203.05678L444.54688 203.05678Q444.54688 201.86928 445.29688 201.15053Q446.0625 200.41615 447.32812 200.41615Q448.53125 200.41615 449.21875 201.04115Q449.90625 201.66615 449.90625 202.71303Q449.90625 203.96303 448.29688 205.71303L446.01562 208.18178L450.29688 208.18178L450.29688 209.0724ZM451.84375 208.5099Q451.84375 208.22865 452.0 208.04115Q452.17188 207.85365 452.5 207.85365Q452.84375 207.85365 453.01562 208.04115Q453.1875 208.22865 453.1875 208.5099Q453.1875 208.77553 453.01562 208.96303Q452.84375 209.1349 452.5 209.1349Q452.17188 209.1349 452.0 208.96303Q451.84375 208.77553 451.84375 208.5099ZM455.20312 204.79115L455.64062 200.54115L460.01562 200.54115L460.01562 201.54115L456.5625 201.54115L456.29688 203.86928Q456.9375 203.49428 457.73438 203.49428Q458.89062 203.49428 459.57812 204.27553Q460.26562 205.04115 460.26562 206.35365Q460.26562 207.66615 459.54688 208.43178Q458.84375 209.1974 457.5625 209.1974Q456.4375 209.1974 455.71875 208.5724Q455.0 207.93178 454.90625 206.8224L455.92188 206.8224Q456.03125 207.55678 456.45312 207.93178Q456.875 208.30678 457.5625 208.30678Q458.3125 208.30678 458.75 207.79115Q459.1875 207.27553 459.1875 206.36928Q459.1875 205.5099 458.71875 204.99428Q458.25 204.47865 457.46875 204.47865Q456.76562 204.47865 456.35938 204.77553L456.07812 205.0099L455.20312 204.79115ZM463.95312 205.04115L465.35938 202.72865L466.625 202.72865L464.54688 205.86928L466.6875 209.0724L465.4375 209.0724L463.96875 206.6974L462.5 209.0724L461.23438 209.0724L463.375 205.86928L461.3125 202.72865L462.5625 202.72865L463.95312 205.04115Z" fill-rule="nonzero"/><path fill="#000000" d="M450.29688 209.0724L444.70312 209.0724L444.70312 208.29115L447.65625 205.0099Q448.3125 204.2599 448.5625 203.80678Q448.8125 203.33803 448.8125 202.83803Q448.8125 202.16615 448.40625 201.74428Q448.01562 201.30678 447.32812 201.30678Q446.53125 201.30678 446.07812 201.77553Q445.625 202.22865 445.625 203.05678L444.54688 203.05678Q444.54688 201.86928 445.29688 201.15053Q446.0625 200.41615 447.32812 200.41615Q448.53125 200.41615 449.21875 201.04115Q449.90625 201.66615 449.90625 202.71303Q449.90625 203.96303 448.29688 205.71303L446.01562 208.18178L450.29688 208.18178L450.29688 209.0724ZM451.84375 208.5099Q451.84375 208.22865 452.0 208.04115Q452.17188 207.85365 452.5 207.85365Q452.84375 207.85365 453.01562 208.04115Q453.1875 208.22865 453.1875 208.5099Q453.1875 208.77553 453.01562 208.96303Q452.84375 209.1349 452.5 209.1349Q452.17188 209.1349 452.0 208.96303Q451.84375 208.77553 451.84375 208.5099ZM455.20312 204.79115L455.64062 200.54115L460.01562 200.54115L460.01562 201.54115L456.5625 201.54115L456.29688 203.86928Q456.9375 203.49428 457.73438 203.49428Q458.89062 203.49428 459.57812 204.27553Q460.26562 205.04115 460.26562 206.35365Q460.26562 207.66615 459.54688 208.43178Q458.84375 209.1974 457.5625 209.1974Q456.4375 209.1974 455.71875 208.5724Q455.0 207.93178 454.90625 206.8224L455.92188 206.8224Q456.03125 207.55678 456.45312 207.93178Q456.875 208.30678 457.5625 208.30678Q458.3125 208.30678 458.75 207.79115Q459.1875 207.27553 459.1875 206.36928Q459.1875 205.5099 458.71875 204.99428Q458.25 204.47865 457.46875 204.47865Q456.76562 204.47865 456.35938 204.77553L456.07812 205.0099L455.20312 204.79115ZM463.95312 205.04115L465.35938 202.72865L466.625 202.72865L464.54688 205.86928L466.6875 209.0724L465.4375 209.0724L463.96875 206.6974L462.5 209.0724L461.23438 209.0724L463.375 205.86928L461.3125 202.72865L462.5625 202.72865L463.95312 205.04115Z" fill-rule="nonzero"/><path stroke="#3d5314" stroke-width="3.0" stroke-linejoin="round" stroke-linecap="round" d="M349.29688 187.4659L343.70312 187.4659L343.70312 186.68465L346.65625 183.4034Q347.3125 182.6534 347.5625 182.20027Q347.8125 181.73152 347.8125 181.23152Q347.8125 180.55965 347.40625 180.13777Q347.01562 179.70027 346.32812 179.70027Q345.53125 179.70027 345.07812 180.16902Q344.625 180.62215 344.625 181.45027L343.54688 181.45027Q343.54688 180.26277 344.29688 179.54402Q345.0625 178.80965 346.32812 178.80965Q347.53125 178.80965 348.21875 179.43465Q348.90625 180.05965 348.90625 181.10652Q348.90625 182.35652 347.29688 184.10652L345.01562 186.57527L349.29688 186.57527L349.29688 187.4659ZM350.84375 186.9034Q350.84375 186.62215 351.0 186.43465Q351.17188 186.24715 351.5 186.24715Q351.84375 186.24715 352.01562 186.43465Q352.1875 186.62215 352.1875 186.9034Q352.1875 187.16902 352.01562 187.35652Q351.84375 187.5284 351.5 187.5284Q351.17188 187.5284 351.0 187.35652Q350.84375 187.16902 350.84375 186.9034ZM357.85938 183.7159Q357.53125 184.12215 357.04688 184.37215Q356.57812 184.60652 356.01562 184.60652Q355.28125 184.60652 354.73438 184.24715Q354.1875 183.88777 353.89062 183.23152Q353.59375 182.55965 353.59375 181.76277Q353.59375 180.91902 353.90625 180.23152Q354.23438 179.54402 354.82812 179.18465Q355.4375 178.80965 356.23438 178.80965Q357.5 178.80965 358.21875 179.76277Q358.95312 180.7159 358.95312 182.3409L358.95312 182.6534Q358.95312 185.1534 357.96875 186.29402Q356.98438 187.43465 355.0 187.4659L354.78125 187.4659L354.78125 186.55965L355.01562 186.55965Q356.35938 186.5284 357.07812 185.85652Q357.79688 185.18465 357.85938 183.7159ZM356.1875 183.7159Q356.73438 183.7159 357.1875 183.38777Q357.65625 183.04402 357.875 182.55965L357.875 182.12215Q357.875 181.05965 357.40625 180.38777Q356.9375 179.7159 356.23438 179.7159Q355.51562 179.7159 355.07812 180.26277Q354.65625 180.80965 354.65625 181.7159Q354.65625 182.5909 355.0625 183.1534Q355.48438 183.7159 356.1875 183.7159ZM362.95312 183.43465L364.35938 181.12215L365.625 181.12215L363.54688 184.26277L365.6875 187.4659L364.4375 187.4659L362.96875 185.0909L361.5 187.4659L360.23438 187.4659L362.375 184.26277L360.3125 181.12215L361.5625 181.12215L362.95312 183.43465Z" fill-rule="nonzero"/><path fill="#ffffff" d="M349.29688 187.4659L343.70312 187.4659L343.70312 186.68465L346.65625 183.4034Q347.3125 182.6534 347.5625 182.20027Q347.8125 181.73152 347.8125 181.23152Q347.8125 180.55965 347.40625 180.13777Q347.01562 179.70027 346.32812 179.70027Q345.53125 179.70027 345.07812 180.16902Q344.625 180.62215 344.625 181.45027L343.54688 181.45027Q343.54688 180.26277 344.29688 179.54402Q345.0625 178.80965 346.32812 178.80965Q347.53125 178.80965 348.21875 179.43465Q348.90625 180.05965 348.90625 181.10652Q348.90625 182.35652 347.29688 184.10652L345.01562 186.57527L349.29688 186.57527L349.29688 187.4659ZM350.84375 186.9034Q350.84375 186.62215 351.0 186.43465Q351.17188 186.24715 351.5 186.24715Q351.84375 186.24715 352.01562 186.43465Q352.1875 186.62215 352.1875 186.9034Q352.1875 187.16902 352.01562 187.35652Q351.84375 187.5284 351.5 187.5284Q351.17188 187.5284 351.0 187.35652Q350.84375 187.16902 350.84375 186.9034ZM357.85938 183.7159Q357.53125 184.12215 357.04688 184.37215Q356.57812 184.60652 356.01562 184.60652Q355.28125 184.60652 354.73438 184.24715Q354.1875 183.88777 353.89062 183.23152Q353.59375 182.55965 353.59375 181.76277Q353.59375 180.91902 353.90625 180.23152Q354.23438 179.54402 354.82812 179.18465Q355.4375 178.80965 356.23438 178.80965Q357.5 178.80965 358.21875 179.76277Q358.95312 180.7159 358.95312 182.3409L358.95312 182.6534Q358.95312 185.1534 357.96875 186.29402Q356.98438 187.43465 355.0 187.4659L354.78125 187.4659L354.78125 186.55965L355.01562 186.55965Q356.35938 186.5284 357.07812 185.85652Q357.79688 185.18465 357.85938 183.7159ZM356.1875 183.7159Q356.73438 183.7159 357.1875 183.38777Q357.65625 183.04402 357.875 182.55965L357.875 182.12215Q357.875 181.05965 357.40625 180.38777Q356.9375 179.7159 356.23438 179.7159Q355.51562 179.7159 355.07812 180.26277Q354.65625 180.80965 354.65625 181.7159Q354.65625 182.5909 355.0625 183.1534Q355.48438 183.7159 356.1875 183.7159ZM362.95312 183.43465L364.35938 181.12215L365.625 181.12215L363.54688 184.26277L365.6875 187.4659L364.4375 187.4659L362.96875 185.0909L361.5 187.4659L360.23438 187.4659L362.375 184.26277L360.3125 181.12215L361.5625 181.12215L362.95312 183.43465Z" fill-rule="nonzero"/><path stroke="#3d5314" stroke-width="3.0" stroke-linejoin="round" stroke-linecap="round" d="M495.28125 169.6479L496.09375 169.6479Q496.875 169.63228 497.3125 169.24165Q497.75 168.85103 497.75 168.17915Q497.75 166.67915 496.25 166.67915Q495.54688 166.67915 495.125 167.0854Q494.71875 167.49165 494.71875 168.1479L493.625 168.1479Q493.625 167.13228 494.35938 166.4604Q495.10938 165.78853 496.25 165.78853Q497.45312 165.78853 498.14062 166.42915Q498.82812 167.06978 498.82812 168.2104Q498.82812 168.7729 498.46875 169.28853Q498.10938 169.80415 497.48438 170.06978Q498.1875 170.28853 498.5625 170.80415Q498.95312 171.31978 498.95312 172.06978Q498.95312 173.2104 498.20312 173.8979Q497.45312 174.56978 496.25 174.56978Q495.0625 174.56978 494.29688 173.91353Q493.54688 173.25728 493.54688 172.19478L494.64062 172.19478Q494.64062 172.86665 495.07812 173.2729Q495.51562 173.67915 496.26562 173.67915Q497.04688 173.67915 497.45312 173.2729Q497.875 172.85103 497.875 172.0854Q497.875 171.35103 497.42188 170.9604Q496.96875 170.55415 496.09375 170.53853L495.28125 170.53853L495.28125 169.6479ZM500.84375 173.88228Q500.84375 173.60103 501.0 173.41353Q501.17188 173.22603 501.5 173.22603Q501.84375 173.22603 502.01562 173.41353Q502.1875 173.60103 502.1875 173.88228Q502.1875 174.1479 502.01562 174.3354Q501.84375 174.50728 501.5 174.50728Q501.17188 174.50728 501.0 174.3354Q500.84375 174.1479 500.84375 173.88228ZM509.29688 174.44478L503.70312 174.44478L503.70312 173.66353L506.65625 170.38228Q507.3125 169.63228 507.5625 169.17915Q507.8125 168.7104 507.8125 168.2104Q507.8125 167.53853 507.40625 167.11665Q507.01562 166.67915 506.32812 166.67915Q505.53125 166.67915 505.07812 167.1479Q504.625 167.60103 504.625 168.42915L503.54688 168.42915Q503.54688 167.24165 504.29688 166.5229Q505.0625 165.78853 506.32812 165.78853Q507.53125 165.78853 508.21875 166.41353Q508.90625 167.03853 508.90625 168.0854Q508.90625 169.3354 507.29688 171.0854L505.01562 173.55415L509.29688 173.55415L509.29688 174.44478ZM512.9531 170.41353L514.3594 168.10103L515.625 168.10103L513.5469 171.24165L515.6875 174.44478L514.4375 174.44478L512.96875 172.06978L511.5 174.44478L510.23438 174.44478L512.375 171.24165L510.3125 168.10103L511.5625 168.10103L512.9531 170.41353Z" fill-rule="nonzero"/><path fill="#ffffff" d="M495.28125 169.6479L496.09375 169.6479Q496.875 169.63228 497.3125 169.24165Q497.75 168.85103 497.75 168.17915Q497.75 166.67915 496.25 166.67915Q495.54688 166.67915 495.125 167.0854Q494.71875 167.49165 494.71875 168.1479L493.625 168.1479Q493.625 167.13228 494.35938 166.4604Q495.10938 165.78853 496.25 165.78853Q497.45312 165.78853 498.14062 166.42915Q498.82812 167.06978 498.82812 168.2104Q498.82812 168.7729 498.46875 169.28853Q498.10938 169.80415 497.48438 170.06978Q498.1875 170.28853 498.5625 170.80415Q498.95312 171.31978 498.95312 172.06978Q498.95312 173.2104 498.20312 173.8979Q497.45312 174.56978 496.25 174.56978Q495.0625 174.56978 494.29688 173.91353Q493.54688 173.25728 493.54688 172.19478L494.64062 172.19478Q494.64062 172.86665 495.07812 173.2729Q495.51562 173.67915 496.26562 173.67915Q497.04688 173.67915 497.45312 173.2729Q497.875 172.85103 497.875 172.0854Q497.875 171.35103 497.42188 170.9604Q496.96875 170.55415 496.09375 170.53853L495.28125 170.53853L495.28125 169.6479ZM500.84375 173.88228Q500.84375 173.60103 501.0 173.41353Q501.17188 173.22603 501.5 173.22603Q501.84375 173.22603 502.01562 173.41353Q502.1875 173.60103 502.1875 173.88228Q502.1875 174.1479 502.01562 174.3354Q501.84375 174.50728 501.5 174.50728Q501.17188 174.50728 501.0 174.3354Q500.84375 174.1479 500.84375 173.88228ZM509.29688 174.44478L503.70312 174.44478L503.70312 173.66353L506.65625 170.38228Q507.3125 169.63228 507.5625 169.17915Q507.8125 168.7104 507.8125 168.2104Q507.8125 167.53853 507.40625 167.11665Q507.01562 166.67915 506.32812 166.67915Q505.53125 166.67915 505.07812 167.1479Q504.625 167.60103 504.625 168.42915L503.54688 168.42915Q503.54688 167.24165 504.29688 166.5229Q505.0625 165.78853 506.32812 165.78853Q507.53125 165.78853 508.21875 166.41353Q508.90625 167.03853 508.90625 168.0854Q508.90625 169.3354 507.29688 171.0854L505.01562 173.55415L509.29688 173.55415L509.29688 174.44478ZM512.9531 170.41353L514.3594 168.10103L515.625 168.10103L513.5469 171.24165L515.6875 174.44478L514.4375 174.44478L512.96875 172.06978L511.5 174.44478L510.23438 174.44478L512.375 171.24165L510.3125 168.10103L511.5625 168.10103L512.9531 170.41353Z" fill-rule="nonzero"/><path fill="#000000" d="M26.784388 319.5698L26.690638 318.5073Q27.346888 318.42917 27.753138 318.14792Q28.159388 317.86667 28.425013 317.28854Q28.675013 316.6948 28.675013 315.96042Q28.675013 315.3198 28.487513 314.8198Q28.284388 314.3198 27.956263 314.08542Q27.612513 313.83542 27.221888 313.83542Q26.815638 313.83542 26.518763 314.0698Q26.206263 314.30417 26.003138 314.83542Q25.862513 315.1948 25.581263 316.3823Q25.300013 317.55417 25.050013 318.02292Q24.721888 318.64792 24.253138 318.9448Q23.768763 319.24167 23.175013 319.24167Q22.534388 319.24167 21.971888 318.8823Q21.393763 318.5073 21.112513 317.80417Q20.815638 317.08542 20.815638 316.22604Q20.815638 315.27292 21.128138 314.53854Q21.425013 313.80417 22.034388 313.41354Q22.628138 313.02292 23.378138 312.99167L23.456263 314.08542Q22.643763 314.17917 22.237513 314.6948Q21.815638 315.1948 21.815638 316.17917Q21.815638 317.21042 22.190638 317.67917Q22.565638 318.14792 23.096888 318.14792Q23.565638 318.14792 23.862513 317.8198Q24.159388 317.49167 24.471888 316.11667Q24.784388 314.72604 25.018763 314.21042Q25.378138 313.46042 25.909388 313.10104Q26.425013 312.74167 27.128138 312.74167Q27.815638 312.74167 28.425013 313.1323Q29.018763 313.52292 29.362513 314.2573Q29.690638 314.99167 29.690638 315.91354Q29.690638 317.08542 29.362513 317.8823Q29.018763 318.66354 28.331263 319.11667Q27.643763 319.55417 26.784388 319.5698ZM31.940638 311.3198L23.331263 311.3198L23.331263 310.36667L24.128138 310.36667Q23.659388 310.02292 23.425013 309.60104Q23.190638 309.16354 23.190638 308.55417Q23.190638 307.7573 23.596888 307.14792Q24.003138 306.53854 24.753138 306.24167Q25.503138 305.92917 26.393763 305.92917Q27.346888 305.92917 28.112513 306.27292Q28.878138 306.60104 29.284388 307.2573Q29.690638 307.91354 29.690638 308.6323Q29.690638 309.16354 29.471888 309.58542Q29.237513 310.0073 28.909388 310.27292L31.940638 310.27292L31.940638 311.3198ZM26.471888 310.36667Q27.675013 310.36667 28.253138 309.8823Q28.815638 309.39792 28.815638 308.71042Q28.815638 308.0073 28.221888 307.5073Q27.628138 307.0073 26.378138 307.0073Q25.190638 307.0073 24.612513 307.49167Q24.018763 307.97604 24.018763 308.66354Q24.018763 309.33542 24.643763 309.85104Q25.268763 310.36667 26.471888 310.36667ZM27.550013 300.0698L27.675013 298.97604Q28.628138 299.22604 29.159388 299.92917Q29.690638 300.6323 29.690638 301.71042Q29.690638 303.0698 28.846888 303.8823Q28.003138 304.67917 26.487513 304.67917Q24.925013 304.67917 24.065638 303.86667Q23.190638 303.05417 23.190638 301.77292Q23.190638 300.52292 24.034388 299.74167Q24.878138 298.9448 26.425013 298.9448Q26.518763 298.9448 26.706263 298.9448L26.706263 303.58542Q27.737513 303.52292 28.284388 303.0073Q28.815638 302.49167 28.815638 301.71042Q28.815638 301.1323 28.518763 300.72604Q28.206263 300.30417 27.550013 300.0698ZM25.846888 303.52292L25.846888 300.05417Q25.050013 300.11667 24.659388 300.4448Q24.050013 300.96042 24.050013 301.7573Q24.050013 302.49167 24.534388 302.99167Q25.018763 303.47604 25.846888 303.52292ZM27.550013 293.0698L27.675013 291.97604Q28.628138 292.22604 29.159388 292.92917Q29.690638 293.6323 29.690638 294.71042Q29.690638 296.0698 28.846888 296.8823Q28.003138 297.67917 26.487513 297.67917Q24.925013 297.67917 24.065638 296.86667Q23.190638 296.05417 23.190638 294.77292Q23.190638 293.52292 24.034388 292.74167Q24.878138 291.9448 26.425013 291.9448Q26.518763 291.9448 26.706263 291.9448L26.706263 296.58542Q27.737513 296.52292 28.284388 296.0073Q28.815638 295.49167 28.815638 294.71042Q28.815638 294.1323 28.518763 293.72604Q28.206263 293.30417 27.550013 293.0698ZM25.846888 296.52292L25.846888 293.05417Q25.050013 293.11667 24.659388 293.4448Q24.050013 293.96042 24.050013 294.7573Q24.050013 295.49167 24.534388 295.99167Q25.018763 296.47604 25.846888 296.52292ZM29.550013 286.28854L28.768763 286.28854Q29.690638 286.8823 29.690638 288.02292Q29.690638 288.77292 29.284388 289.39792Q28.862513 290.02292 28.128138 290.36667Q27.393763 290.71042 26.440638 290.71042Q25.518763 290.71042 24.753138 290.39792Q23.987513 290.08542 23.596888 289.46042Q23.190638 288.83542 23.190638 288.0698Q23.190638 287.5073 23.425013 287.0698Q23.659388 286.6323 24.034388 286.35104L20.956263 286.35104L20.956263 285.30417L29.550013 285.30417L29.550013 286.28854ZM26.440638 289.61667Q27.643763 289.61667 28.237513 289.11667Q28.815638 288.61667 28.815638 287.92917Q28.815638 287.24167 28.253138 286.7573Q27.690638 286.27292 26.534388 286.27292Q25.253138 286.27292 24.659388 286.77292Q24.065638 287.2573 24.065638 287.97604Q24.065638 288.67917 24.643763 289.14792Q25.206263 289.61667 26.440638 289.61667ZM29.550013 279.24167L28.628138 279.24167Q29.690638 279.97604 29.690638 281.22604Q29.690638 281.77292 29.487513 282.2573Q29.268763 282.72604 28.956263 282.96042Q28.628138 283.1948 28.159388 283.28854Q27.862513 283.35104 27.175013 283.35104L23.331263 283.35104L23.331263 282.28854L26.784388 282.28854Q27.596888 282.28854 27.893763 282.22604Q28.300013 282.1323 28.550013 281.8198Q28.784388 281.49167 28.784388 281.0073Q28.784388 280.53854 28.550013 280.1323Q28.300013 279.71042 27.878138 279.53854Q27.456263 279.35104 26.659388 279.35104L23.331263 279.35104L23.331263 278.30417L29.550013 278.30417L29.550013 279.24167ZM31.940638 276.3198L23.331263 276.3198L23.331263 275.36667L24.128138 275.36667Q23.659388 275.02292 23.425013 274.60104Q23.190638 274.16354 23.190638 273.55417Q23.190638 272.7573 23.596888 272.14792Q24.003138 271.53854 24.753138 271.24167Q25.503138 270.92917 26.393763 270.92917Q27.346888 270.92917 28.112513 271.27292Q28.878138 271.60104 29.284388 272.2573Q29.690638 272.91354 29.690638 273.6323Q29.690638 274.16354 29.471888 274.58542Q29.237513 275.0073 28.909388 275.27292L31.940638 275.27292L31.940638 276.3198ZM26.471888 275.36667Q27.675013 275.36667 28.253138 274.8823Q28.815638 274.39792 28.815638 273.71042Q28.815638 273.0073 28.221888 272.5073Q27.628138 272.0073 26.378138 272.0073Q25.190638 272.0073 24.612513 272.49167Q24.018763 272.97604 24.018763 273.66354Q24.018763 274.33542 24.643763 274.85104Q25.268763 275.36667 26.471888 275.36667ZM27.268763 262.2573L27.409388 261.22604Q28.471888 261.39792 29.081263 262.10104Q29.690638 262.80417 29.690638 263.8198Q29.690638 265.10104 28.862513 265.8823Q28.018763 266.64792 26.456263 266.64792Q25.456263 266.64792 24.706263 266.3198Q23.940638 265.97604 23.565638 265.30417Q23.190638 264.61667 23.190638 263.80417Q23.190638 262.80417 23.706263 262.16354Q24.206263 261.5073 25.159388 261.3198L25.315638 262.35104Q24.690638 262.49167 24.378138 262.86667Q24.050013 263.24167 24.050013 263.77292Q24.050013 264.5698 24.628138 265.0698Q25.190638 265.5698 26.425013 265.5698Q27.690638 265.5698 28.253138 265.08542Q28.815638 264.60104 28.815638 263.83542Q28.815638 263.21042 28.440638 262.80417Q28.065638 262.3823 27.268763 262.2573ZM26.440638 260.71042Q24.706263 260.71042 23.878138 259.7573Q23.190638 258.96042 23.190638 257.80417Q23.190638 256.52292 24.034388 255.71042Q24.862513 254.8823 26.346888 254.8823Q27.550013 254.8823 28.237513 255.24167Q28.925013 255.60104 29.315638 256.30417Q29.690638 256.99167 29.690638 257.80417Q29.690638 259.10104 28.862513 259.91354Q28.018763 260.71042 26.440638 260.71042ZM26.440638 259.6323Q27.628138 259.6323 28.221888 259.11667Q28.815638 258.58542 28.815638 257.80417Q28.815638 257.0073 28.221888 256.49167Q27.628138 255.97604 26.409388 255.97604Q25.253138 255.97604 24.659388 256.5073Q24.065638 257.02292 24.065638 257.80417Q24.065638 258.58542 24.659388 259.11667Q25.237513 259.6323 26.440638 259.6323ZM29.550013 253.3198L23.331263 253.3198L23.331263 252.3823L24.206263 252.3823Q23.737513 252.08542 23.471888 251.60104Q23.190638 251.11667 23.190638 250.49167Q23.190638 249.80417 23.471888 249.36667Q23.753138 248.91354 24.268763 248.74167Q23.190638 247.99167 23.190638 246.8198Q23.190638 245.8823 23.706263 245.39792Q24.206263 244.89792 25.284388 244.89792L29.550013 244.89792L29.550013 245.9448L25.628138 245.9448Q25.003138 245.9448 24.721888 246.05417Q24.440638 246.14792 24.268763 246.41354Q24.096888 246.67917 24.096888 247.05417Q24.096888 247.71042 24.534388 248.14792Q24.971888 248.5698 25.940638 248.5698L29.550013 248.5698L29.550013 249.6323L25.503138 249.6323Q24.800013 249.6323 24.456263 249.89792Q24.096888 250.14792 24.096888 250.72604Q24.096888 251.17917 24.331263 251.55417Q24.565638 251.92917 25.018763 252.10104Q25.471888 252.27292 26.315638 252.27292L29.550013 252.27292L29.550013 253.3198ZM31.940638 242.3198L23.331263 242.3198L23.331263 241.36667L24.128138 241.36667Q23.659388 241.02292 23.425013 240.60104Q23.190638 240.16354 23.190638 239.55417Q23.190638 238.7573 23.596888 238.14792Q24.003138 237.53854 24.753138 237.24167Q25.503138 236.92917 26.393763 236.92917Q27.346888 236.92917 28.112513 237.27292Q28.878138 237.60104 29.284388 238.2573Q29.690638 238.91354 29.690638 239.6323Q29.690638 240.16354 29.471888 240.58542Q29.237513 241.0073 28.909388 241.27292L31.940638 241.27292L31.940638 242.3198ZM26.471888 241.36667Q27.675013 241.36667 28.253138 240.8823Q28.815638 240.39792 28.815638 239.71042Q28.815638 239.0073 28.221888 238.5073Q27.628138 238.0073 26.378138 238.0073Q25.190638 238.0073 24.612513 238.49167Q24.018763 238.97604 24.018763 239.66354Q24.018763 240.33542 24.643763 240.85104Q25.268763 241.36667 26.471888 241.36667ZM28.784388 231.2573Q29.284388 231.85104 29.487513 232.39792Q29.690638 232.92917 29.690638 233.55417Q29.690638 234.58542 29.190638 235.1323Q28.690638 235.67917 27.909388 235.67917Q27.456263 235.67917 27.081263 235.47604Q26.690638 235.27292 26.471888 234.92917Q26.237513 234.58542 26.128138 234.16354Q26.034388 233.86667 25.956263 233.22604Q25.815638 231.96042 25.596888 231.35104Q25.378138 231.35104 25.331263 231.35104Q24.675013 231.35104 24.409388 231.64792Q24.065638 232.05417 24.065638 232.85104Q24.065638 233.58542 24.331263 233.9448Q24.581263 234.30417 25.237513 234.47604L25.096888 235.5073Q24.440638 235.36667 24.034388 235.03854Q23.628138 234.71042 23.409388 234.10104Q23.190638 233.49167 23.190638 232.6948Q23.190638 231.89792 23.378138 231.39792Q23.565638 230.89792 23.846888 230.66354Q24.128138 230.42917 24.565638 230.33542Q24.831263 230.28854 25.534388 230.28854L26.940638 230.28854Q28.409388 230.28854 28.800013 230.22604Q29.190638 230.14792 29.550013 229.9448L29.550013 231.05417Q29.221888 231.21042 28.784388 231.2573ZM26.425013 231.35104Q26.659388 231.92917 26.831263 233.0698Q26.925013 233.72604 27.050013 233.99167Q27.159388 234.2573 27.378138 234.41354Q27.596888 234.55417 27.878138 234.55417Q28.300013 234.55417 28.581263 234.24167Q28.862513 233.91354 28.862513 233.30417Q28.862513 232.6948 28.596888 232.22604Q28.331263 231.74167 27.862513 231.52292Q27.503138 231.35104 26.815638 231.35104L26.425013 231.35104ZM29.550013 228.33542L23.331263 228.33542L23.331263 227.3823L24.268763 227.3823Q23.612513 227.02292 23.409388 226.72604Q23.190638 226.41354 23.190638 226.03854Q23.190638 225.5073 23.518763 224.96042L24.503138 225.3198Q24.268763 225.71042 24.268763 226.08542Q24.268763 226.4448 24.487513 226.72604Q24.690638 226.99167 25.065638 227.10104Q25.628138 227.28854 26.284388 227.28854L29.550013 227.28854L29.550013 228.33542ZM27.550013 220.0698L27.675013 218.97604Q28.628138 219.22604 29.159388 219.92917Q29.690638 220.6323 29.690638 221.71042Q29.690638 223.0698 28.846888 223.8823Q28.003138 224.67917 26.487513 224.67917Q24.925013 224.67917 24.065638 223.86667Q23.190638 223.05417 23.190638 221.77292Q23.190638 220.52292 24.034388 219.74167Q24.878138 218.9448 26.425013 218.9448Q26.518763 218.9448 26.706263 218.9448L26.706263 223.58542Q27.737513 223.52292 28.284388 223.0073Q28.815638 222.49167 28.815638 221.71042Q28.815638 221.1323 28.518763 220.72604Q28.206263 220.30417 27.550013 220.0698ZM25.846888 223.52292L25.846888 220.05417Q25.050013 220.11667 24.659388 220.4448Q24.050013 220.96042 24.050013 221.7573Q24.050013 222.49167 24.534388 222.99167Q25.018763 223.47604 25.846888 223.52292ZM29.550013 213.28854L28.768763 213.28854Q29.690638 213.8823 29.690638 215.02292Q29.690638 215.77292 29.284388 216.39792Q28.862513 217.02292 28.128138 217.36667Q27.393763 217.71042 26.440638 217.71042Q25.518763 217.71042 24.753138 217.39792Q23.987513 217.08542 23.596888 216.46042Q23.190638 215.83542 23.190638 215.0698Q23.190638 214.5073 23.425013 214.0698Q23.659388 213.6323 24.034388 213.35104L20.956263 213.35104L20.956263 212.30417L29.550013 212.30417L29.550013 213.28854ZM26.440638 216.61667Q27.643763 216.61667 28.237513 216.11667Q28.815638 215.61667 28.815638 214.92917Q28.815638 214.24167 28.253138 213.7573Q27.690638 213.27292 26.534388 213.27292Q25.253138 213.27292 24.659388 213.77292Q24.065638 214.2573 24.065638 214.97604Q24.065638 215.67917 24.643763 216.14792Q25.206263 216.61667 26.440638 216.61667ZM28.612513 205.02292L29.534388 204.86667Q29.628138 205.3198 29.628138 205.66354Q29.628138 206.24167 29.456263 206.55417Q29.268763 206.86667 28.971888 207.0073Q28.675013 207.1323 27.721888 207.1323L24.143763 207.1323L24.143763 207.89792L23.331263 207.89792L23.331263 207.1323L21.784388 207.1323L21.159388 206.08542L23.331263 206.08542L23.331263 205.02292L24.143763 205.02292L24.143763 206.08542L27.784388 206.08542Q28.237513 206.08542 28.362513 206.03854Q28.487513 205.97604 28.565638 205.85104Q28.643763 205.72604 28.643763 205.49167Q28.643763 205.30417 28.612513 205.02292ZM26.440638 204.71042Q24.706263 204.71042 23.878138 203.7573Q23.190638 202.96042 23.190638 201.80417Q23.190638 200.52292 24.034388 199.71042Q24.862513 198.8823 26.346888 198.8823Q27.550013 198.8823 28.237513 199.24167Q28.925013 199.60104 29.315638 200.30417Q29.690638 200.99167 29.690638 201.80417Q29.690638 203.10104 28.862513 203.91354Q28.018763 204.71042 26.440638 204.71042ZM26.440638 203.6323Q27.628138 203.6323 28.221888 203.11667Q28.815638 202.58542 28.815638 201.80417Q28.815638 201.0073 28.221888 200.49167Q27.628138 199.97604 26.409388 199.97604Q25.253138 199.97604 24.659388 200.5073Q24.065638 201.02292 24.065638 201.80417Q24.065638 202.58542 24.659388 203.11667Q25.237513 203.6323 26.440638 203.6323ZM29.550013 194.0698L24.143763 194.0698L24.143763 195.0073L23.331263 195.0073L23.331263 194.0698L22.659388 194.0698Q22.034388 194.0698 21.737513 193.96042Q21.315638 193.80417 21.065638 193.42917Q20.815638 193.03854 20.815638 192.35104Q20.815638 191.89792 20.925013 191.36667L21.831263 191.52292Q21.784388 191.85104 21.784388 192.14792Q21.784388 192.6323 21.987513 192.83542Q22.190638 193.02292 22.753138 193.02292L23.331263 193.02292L23.331263 191.80417L24.143763 191.80417L24.143763 193.02292L29.550013 193.02292L29.550013 194.0698ZM29.550013 191.33542L23.331263 191.33542L23.331263 190.3823L24.268763 190.3823Q23.612513 190.02292 23.409388 189.72604Q23.190638 189.41354 23.190638 189.03854Q23.190638 188.5073 23.518763 187.96042L24.503138 188.3198Q24.268763 188.71042 24.268763 189.08542Q24.268763 189.4448 24.487513 189.72604Q24.690638 189.99167 25.065638 190.10104Q25.628138 190.28854 26.284388 190.28854L29.550013 190.28854L29.550013 191.33542ZM28.784388 183.2573Q29.284388 183.85104 29.487513 184.39792Q29.690638 184.92917 29.690638 185.55417Q29.690638 186.58542 29.190638 187.1323Q28.690638 187.67917 27.909388 187.67917Q27.456263 187.67917 27.081263 187.47604Q26.690638 187.27292 26.471888 186.92917Q26.237513 186.58542 26.128138 186.16354Q26.034388 185.86667 25.956263 185.22604Q25.815638 183.96042 25.596888 183.35104Q25.378138 183.35104 25.331263 183.35104Q24.675013 183.35104 24.409388 183.64792Q24.065638 184.05417 24.065638 184.85104Q24.065638 185.58542 24.331263 185.9448Q24.581263 186.30417 25.237513 186.47604L25.096888 187.5073Q24.440638 187.36667 24.034388 187.03854Q23.628138 186.71042 23.409388 186.10104Q23.190638 185.49167 23.190638 184.6948Q23.190638 183.89792 23.378138 183.39792Q23.565638 182.89792 23.846888 182.66354Q24.128138 182.42917 24.565638 182.33542Q24.831263 182.28854 25.534388 182.28854L26.940638 182.28854Q28.409388 182.28854 28.800013 182.22604Q29.190638 182.14792 29.550013 181.9448L29.550013 183.05417Q29.221888 183.21042 28.784388 183.2573ZM26.425013 183.35104Q26.659388 183.92917 26.831263 185.0698Q26.925013 185.72604 27.050013 185.99167Q27.159388 186.2573 27.378138 186.41354Q27.596888 186.55417 27.878138 186.55417Q28.300013 186.55417 28.581263 186.24167Q28.862513 185.91354 28.862513 185.30417Q28.862513 184.6948 28.596888 184.22604Q28.331263 183.74167 27.862513 183.52292Q27.503138 183.35104 26.815638 183.35104L26.425013 183.35104ZM29.550013 180.3198L23.331263 180.3198L23.331263 179.3823L24.206263 179.3823Q23.737513 179.08542 23.471888 178.60104Q23.190638 178.11667 23.190638 177.49167Q23.190638 176.80417 23.471888 176.36667Q23.753138 175.91354 24.268763 175.74167Q23.190638 174.99167 23.190638 173.8198Q23.190638 172.8823 23.706263 172.39792Q24.206263 171.89792 25.284388 171.89792L29.550013 171.89792L29.550013 172.9448L25.628138 172.9448Q25.003138 172.9448 24.721888 173.05417Q24.440638 173.14792 24.268763 173.41354Q24.096888 173.67917 24.096888 174.05417Q24.096888 174.71042 24.534388 175.14792Q24.971888 175.5698 25.940638 175.5698L29.550013 175.5698L29.550013 176.6323L25.503138 176.6323Q24.800013 176.6323 24.456263 176.89792Q24.096888 177.14792 24.096888 177.72604Q24.096888 178.17917 24.331263 178.55417Q24.565638 178.92917 25.018763 179.10104Q25.471888 179.27292 26.315638 179.27292L29.550013 179.27292L29.550013 180.3198ZM27.550013 165.0698L27.675013 163.97604Q28.628138 164.22604 29.159388 164.92917Q29.690638 165.6323 29.690638 166.71042Q29.690638 168.0698 28.846888 168.8823Q28.003138 169.67917 26.487513 169.67917Q24.925013 169.67917 24.065638 168.86667Q23.190638 168.05417 23.190638 166.77292Q23.190638 165.52292 24.034388 164.74167Q24.878138 163.9448 26.425013 163.9448Q26.518763 163.9448 26.706263 163.9448L26.706263 168.58542Q27.737513 168.52292 28.284388 168.0073Q28.815638 167.49167 28.815638 166.71042Q28.815638 166.1323 28.518763 165.72604Q28.206263 165.30417 27.550013 165.0698ZM25.846888 168.52292L25.846888 165.05417Q25.050013 165.11667 24.659388 165.4448Q24.050013 165.96042 24.050013 166.7573Q24.050013 167.49167 24.534388 167.99167Q25.018763 168.47604 25.846888 168.52292ZM29.550013 161.17917L23.331263 163.08542L23.331263 161.99167L26.925013 161.0073L28.253138 160.6323Q28.159388 160.60104 26.971888 160.30417L23.331263 159.3198L23.331263 158.24167L26.940638 157.30417L28.128138 156.99167L26.925013 156.6323L23.331263 155.5698L23.331263 154.53854L29.550013 156.49167L29.550013 157.58542L25.815638 158.5698L24.768763 158.8198L29.550013 160.0698L29.550013 161.17917ZM26.440638 153.71042Q24.706263 153.71042 23.878138 152.7573Q23.190638 151.96042 23.190638 150.80417Q23.190638 149.52292 24.034388 148.71042Q24.862513 147.8823 26.346888 147.8823Q27.550013 147.8823 28.237513 148.24167Q28.925013 148.60104 29.315638 149.30417Q29.690638 149.99167 29.690638 150.80417Q29.690638 152.10104 28.862513 152.91354Q28.018763 153.71042 26.440638 153.71042ZM26.440638 152.6323Q27.628138 152.6323 28.221888 152.11667Q28.815638 151.58542 28.815638 150.80417Q28.815638 150.0073 28.221888 149.49167Q27.628138 148.97604 26.409388 148.97604Q25.253138 148.97604 24.659388 149.5073Q24.065638 150.02292 24.065638 150.80417Q24.065638 151.58542 24.659388 152.11667Q25.237513 152.6323 26.440638 152.6323ZM29.550013 146.33542L23.331263 146.33542L23.331263 145.3823L24.268763 145.3823Q23.612513 145.02292 23.409388 144.72604Q23.190638 144.41354 23.190638 144.03854Q23.190638 143.5073 23.518763 142.96042L24.503138 143.3198Q24.268763 143.71042 24.268763 144.08542Q24.268763 144.4448 24.487513 144.72604Q24.690638 144.99167 25.065638 145.10104Q25.628138 145.28854 26.284388 145.28854L29.550013 145.28854L29.550013 146.33542ZM29.550013 142.3198L20.956263 142.3198L20.956263 141.2573L25.862513 141.2573L23.331263 138.77292L23.331263 137.39792L25.628138 139.78854L29.550013 137.16354L29.550013 138.46042L26.362513 140.52292L27.081263 141.2573L29.550013 141.2573L29.550013 142.3198Z" fill-rule="nonzero"/><path fill="#000000" d="M60.05 332.21564Q60.05 330.6844 60.3625 329.7625Q60.675 328.825 61.284374 328.325Q61.909374 327.825 62.846874 327.825Q63.534374 327.825 64.05 328.10626Q64.58125 328.3875 64.925 328.91876Q65.26875 329.4344 65.45625 330.1844Q65.64375 330.9344 65.64375 332.21564Q65.64375 333.73126 65.33125 334.65314Q65.03438 335.575 64.40938 336.09064Q63.8 336.59064 62.846874 336.59064Q61.6125 336.59064 60.89375 335.7Q60.05 334.6375 60.05 332.21564ZM61.128124 332.21564Q61.128124 334.325 61.628124 335.02814Q62.128124 335.73126 62.846874 335.73126Q63.58125 335.73126 64.06563 335.02814Q64.56563 334.325 64.56563 332.21564Q64.56563 330.09064 64.06563 329.40314Q63.58125 328.7 62.83125 328.7Q62.1125 328.7 61.675 329.3094Q61.128124 330.09064 61.128124 332.21564ZM66.64375 336.45L68.90938 333.21564L66.81563 330.23126L68.12813 330.23126L69.08125 331.6844Q69.34688 332.10626 69.51875 332.3875Q69.76875 331.9969 69.9875 331.7L71.03438 330.23126L72.3 330.23126L70.14375 333.15314L72.45625 336.45L71.175 336.45L69.89375 334.5125L69.55 333.9969L67.90938 336.45L66.64375 336.45Z" fill-rule="nonzero"/><path fill="#000000" d="M64.01875 281.28333L62.971874 281.28333L62.971874 274.56458Q62.58125 274.92395 61.95625 275.29895Q61.346874 275.65833 60.8625 275.8302L60.8625 274.81458Q61.7375 274.3927 62.39375 273.81458Q63.065624 273.22083 63.346874 272.65833L64.01875 272.65833L64.01875 281.28333ZM66.64375 281.28333L68.90938 278.04895L66.81563 275.06458L68.12813 275.06458L69.08125 276.5177Q69.34688 276.93958 69.51875 277.22083Q69.76875 276.8302 69.9875 276.53333L71.03438 275.06458L72.3 275.06458L70.14375 277.98645L72.45625 281.28333L71.175 281.28333L69.89375 279.34583L69.55 278.8302L67.90938 281.28333L66.64375 281.28333Z" fill-rule="nonzero"/><path fill="#000000" d="M65.59688 225.10104L65.59688 226.11667L59.909374 226.11667Q59.909374 225.74167 60.034374 225.3823Q60.253124 224.80417 60.721874 224.24167Q61.20625 223.67917 62.1125 222.9448Q63.51875 221.78854 64.00313 221.11667Q64.50313 220.4448 64.50313 219.85104Q64.50313 219.22604 64.05 218.80417Q63.596874 218.36667 62.878124 218.36667Q62.1125 218.36667 61.659374 218.8198Q61.20625 219.27292 61.190624 220.08542L60.1125 219.97604Q60.221874 218.7573 60.940624 218.1323Q61.675 217.49167 62.909374 217.49167Q64.14375 217.49167 64.8625 218.17917Q65.58125 218.86667 65.58125 219.8823Q65.58125 220.39792 65.3625 220.89792Q65.15938 221.3823 64.65938 221.9448Q64.175 222.49167 63.05 223.4448Q62.096874 224.24167 61.815624 224.53854Q61.55 224.8198 61.378124 225.10104L65.59688 225.10104ZM66.64375 226.11667L68.90938 222.8823L66.81563 219.89792L68.12813 219.89792L69.08125 221.35104Q69.34688 221.77292 69.51875 222.05417Q69.76875 221.66354 69.9875 221.36667L71.03438 219.89792L72.3 219.89792L70.14375 222.8198L72.45625 226.11667L71.175 226.11667L69.89375 224.17917L69.55 223.66354L67.90938 226.11667L66.64375 226.11667Z" fill-rule="nonzero"/><path fill="#000000" d="M60.05 168.68437L61.1125 168.54375Q61.284374 169.43437 61.721874 169.84062Q62.159374 170.23125 62.784374 170.23125Q63.534374 170.23125 64.05 169.71562Q64.56563 169.2 64.56563 168.43437Q64.56563 167.71562 64.08125 167.24687Q63.6125 166.7625 62.878124 166.7625Q62.58125 166.7625 62.128124 166.8875L62.253124 165.95Q62.3625 165.96562 62.425 165.96562Q63.096874 165.96562 63.628124 165.62187Q64.175 165.2625 64.175 164.52812Q64.175 163.95 63.784374 163.575Q63.39375 163.18437 62.76875 163.18437Q62.159374 163.18437 61.7375 163.575Q61.33125 163.96562 61.221874 164.73125L60.159374 164.54375Q60.346874 163.49687 61.034374 162.91875Q61.721874 162.325 62.7375 162.325Q63.440624 162.325 64.03438 162.6375Q64.62813 162.93437 64.94063 163.45Q65.25313 163.96562 65.25313 164.55937Q65.25313 165.10625 64.95625 165.575Q64.65938 166.02812 64.08125 166.29375Q64.83125 166.46562 65.25313 167.02812Q65.675 167.575 65.675 168.41875Q65.675 169.54375 64.84688 170.325Q64.03438 171.10625 62.784374 171.10625Q61.659374 171.10625 60.909374 170.43437Q60.159374 169.74687 60.05 168.68437ZM66.64375 170.95L68.90938 167.71562L66.81563 164.73125L68.12813 164.73125L69.08125 166.18437Q69.34688 166.60625 69.51875 166.8875Q69.76875 166.49687 69.9875 166.2L71.03438 164.73125L72.3 164.73125L70.14375 167.65312L72.45625 170.95L71.175 170.95L69.89375 169.0125L69.55 168.49687L67.90938 170.95L66.64375 170.95Z" fill-rule="nonzero"/><path fill="#000000" d="M63.425 115.78333L63.425 113.72083L59.70625 113.72083L59.70625 112.75208L63.628124 107.18958L64.4875 107.18958L64.4875 112.75208L65.64375 112.75208L65.64375 113.72083L64.4875 113.72083L64.4875 115.78333L63.425 115.78333ZM63.425 112.75208L63.425 108.89271L60.7375 112.75208L63.425 112.75208ZM66.64375 115.78333L68.90938 112.54896L66.81563 109.56458L68.12813 109.56458L69.08125 111.01771Q69.34688 111.43958 69.51875 111.72083Q69.76875 111.33021 69.9875 111.03333L71.03438 109.56458L72.3 109.56458L70.14375 112.48646L72.45625 115.78333L71.175 115.78333L69.89375 113.84583L69.55 113.33021L67.90938 115.78333L66.64375 115.78333Z" fill-rule="nonzero"/><path fill="#000000" d="M168.95709 349.45L168.95709 347.3875L165.23834 347.3875L165.23834 346.41876L169.16022 340.85626L170.01959 340.85626L170.01959 346.41876L171.17584 346.41876L171.17584 347.3875L170.01959 347.3875L170.01959 349.45L168.95709 349.45ZM168.95709 346.41876L168.95709 342.5594L166.26959 346.41876L168.95709 346.41876ZM172.58209 345.21564Q172.58209 343.6844 172.89459 342.7625Q173.20709 341.825 173.81647 341.325Q174.44147 340.825 175.37897 340.825Q176.06647 340.825 176.58209 341.10626Q177.11334 341.3875 177.45709 341.91876Q177.80084 342.4344 177.98834 343.1844Q178.17584 343.9344 178.17584 345.21564Q178.17584 346.73126 177.86334 347.65314Q177.56647 348.575 176.94147 349.09064Q176.33209 349.59064 175.37897 349.59064Q174.14459 349.59064 173.42584 348.7Q172.58209 347.6375 172.58209 345.21564ZM173.66022 345.21564Q173.66022 347.325 174.16022 348.02814Q174.66022 348.73126 175.37897 348.73126Q176.11334 348.73126 176.59772 348.02814Q177.09772 347.325 177.09772 345.21564Q177.09772 343.09064 176.59772 342.40314Q176.11334 341.7 175.36334 341.7Q174.64459 341.7 174.20709 342.3094Q173.66022 343.09064 173.66022 345.21564ZM179.73834 347.46564L180.75397 347.3719Q180.87897 348.09064 181.23834 348.41876Q181.61334 348.73126 182.17584 348.73126Q182.66022 348.73126 183.01959 348.5125Q183.39459 348.27814 183.62897 347.91876Q183.86334 347.54376 184.01959 346.91876Q184.17584 346.27814 184.17584 345.6219Q184.17584 345.54376 184.17584 345.40314Q183.86334 345.90314 183.31647 346.23126Q182.76959 346.54376 182.12897 346.54376Q181.05084 346.54376 180.31647 345.77814Q179.58209 344.9969 179.58209 343.73126Q179.58209 342.41876 180.34772 341.6219Q181.12897 340.825 182.28522 340.825Q183.11334 340.825 183.80084 341.27814Q184.50397 341.73126 184.86334 342.575Q185.22272 343.40314 185.22272 344.98126Q185.22272 346.6219 184.86334 347.60626Q184.51959 348.575 183.80084 349.09064Q183.09772 349.59064 182.16022 349.59064Q181.14459 349.59064 180.50397 349.04376Q179.86334 348.48126 179.73834 347.46564ZM184.05084 343.66876Q184.05084 342.7625 183.56647 342.23126Q183.09772 341.7 182.41022 341.7Q181.70709 341.7 181.17584 342.27814Q180.66022 342.84064 180.66022 343.7625Q180.66022 344.575 181.16022 345.09064Q181.66022 345.60626 182.37897 345.60626Q183.11334 345.60626 183.58209 345.09064Q184.05084 344.575 184.05084 343.66876ZM186.58209 345.21564Q186.58209 343.6844 186.89459 342.7625Q187.20709 341.825 187.81647 341.325Q188.44147 340.825 189.37897 340.825Q190.06647 340.825 190.58209 341.10626Q191.11334 341.3875 191.45709 341.91876Q191.80084 342.4344 191.98834 343.1844Q192.17584 343.9344 192.17584 345.21564Q192.17584 346.73126 191.86334 347.65314Q191.56647 348.575 190.94147 349.09064Q190.33209 349.59064 189.37897 349.59064Q188.14459 349.59064 187.42584 348.7Q186.58209 347.6375 186.58209 345.21564ZM187.66022 345.21564Q187.66022 347.325 188.16022 348.02814Q188.66022 348.73126 189.37897 348.73126Q190.11334 348.73126 190.59772 348.02814Q191.09772 347.325 191.09772 345.21564Q191.09772 343.09064 190.59772 342.40314Q190.11334 341.7 189.36334 341.7Q188.64459 341.7 188.20709 342.3094Q187.66022 343.09064 187.66022 345.21564Z" fill-rule="nonzero"/><path fill="#000000" d="M315.875 349.45L315.875 340.85626L317.01562 340.85626L317.01562 348.4344L321.25 348.4344L321.25 349.45L315.875 349.45ZM325.875 349.45L325.875 347.3875L322.15625 347.3875L322.15625 346.41876L326.07812 340.85626L326.9375 340.85626L326.9375 346.41876L328.09375 346.41876L328.09375 347.3875L326.9375 347.3875L326.9375 349.45L325.875 349.45ZM325.875 346.41876L325.875 342.5594L323.1875 346.41876L325.875 346.41876ZM329.5 345.21564Q329.5 343.6844 329.8125 342.7625Q330.125 341.825 330.73438 341.325Q331.35938 340.825 332.29688 340.825Q332.98438 340.825 333.5 341.10626Q334.03125 341.3875 334.375 341.91876Q334.71875 342.4344 334.90625 343.1844Q335.09375 343.9344 335.09375 345.21564Q335.09375 346.73126 334.78125 347.65314Q334.48438 348.575 333.85938 349.09064Q333.25 349.59064 332.29688 349.59064Q331.0625 349.59064 330.34375 348.7Q329.5 347.6375 329.5 345.21564ZM330.57812 345.21564Q330.57812 347.325 331.07812 348.02814Q331.57812 348.73126 332.29688 348.73126Q333.03125 348.73126 333.51562 348.02814Q334.01562 347.325 334.01562 345.21564Q334.01562 343.09064 333.51562 342.40314Q333.03125 341.7 332.28125 341.7Q331.5625 341.7 331.125 342.3094Q330.57812 343.09064 330.57812 345.21564ZM336.54688 346.6844L337.60938 346.59064Q337.6875 347.2469 337.96875 347.65314Q338.25 348.0594 338.82812 348.325Q339.42188 348.575 340.15625 348.575Q340.79688 348.575 341.29688 348.3875Q341.79688 348.1844 342.03125 347.85626Q342.28125 347.5125 342.28125 347.1219Q342.28125 346.71564 342.04688 346.41876Q341.8125 346.10626 341.28125 345.90314Q340.92188 345.7625 339.73438 345.48126Q338.5625 345.2 338.09375 344.95Q337.46875 344.6219 337.17188 344.15314Q336.875 343.66876 336.875 343.075Q336.875 342.4344 337.23438 341.8719Q337.60938 341.29376 338.3125 341.0125Q339.03125 340.71564 339.89062 340.71564Q340.84375 340.71564 341.57812 341.02814Q342.3125 341.325 342.70312 341.9344Q343.09375 342.52814 343.125 343.27814L342.03125 343.35626Q341.9375 342.54376 341.42188 342.1375Q340.92188 341.71564 339.9375 341.71564Q338.90625 341.71564 338.4375 342.09064Q337.96875 342.46564 337.96875 342.9969Q337.96875 343.46564 338.29688 343.7625Q338.625 344.0594 340.0 344.3719Q341.39062 344.6844 341.90625 344.91876Q342.65625 345.27814 343.01562 345.8094Q343.375 346.325 343.375 347.02814Q343.375 347.71564 342.98438 348.325Q342.59375 348.91876 341.85938 349.2625Q341.125 349.59064 340.20312 349.59064Q339.03125 349.59064 338.23438 349.2625Q337.45312 348.91876 337.0 348.23126Q336.5625 347.54376 336.54688 346.6844Z" fill-rule="nonzero"/><path fill="#000000" d="M465.88666 349.45L465.88666 340.85626L467.01166 340.85626L467.01166 344.3875L471.4804 344.3875L471.4804 340.85626L472.62103 340.85626L472.62103 349.45L471.4804 349.45L471.4804 345.40314L467.01166 345.40314L467.01166 349.45L465.88666 349.45ZM478.38666 349.45L477.33978 349.45L477.33978 342.73126Q476.94916 343.09064 476.32416 343.46564Q475.71478 343.825 475.2304 343.9969L475.2304 342.98126Q476.1054 342.5594 476.76166 341.98126Q477.43353 341.3875 477.71478 340.825L478.38666 340.825L478.38666 349.45ZM481.4179 345.21564Q481.4179 343.6844 481.7304 342.7625Q482.0429 341.825 482.65228 341.325Q483.27728 340.825 484.21478 340.825Q484.90228 340.825 485.4179 341.10626Q485.94916 341.3875 486.2929 341.91876Q486.63666 342.4344 486.82416 343.1844Q487.01166 343.9344 487.01166 345.21564Q487.01166 346.73126 486.69916 347.65314Q486.40228 348.575 485.77728 349.09064Q485.1679 349.59064 484.21478 349.59064Q482.9804 349.59064 482.26166 348.7Q481.4179 347.6375 481.4179 345.21564ZM482.49603 345.21564Q482.49603 347.325 482.99603 348.02814Q483.49603 348.73126 484.21478 348.73126Q484.94916 348.73126 485.43353 348.02814Q485.93353 347.325 485.93353 345.21564Q485.93353 343.09064 485.43353 342.40314Q484.94916 341.7 484.19916 341.7Q483.4804 341.7 483.0429 342.3094Q482.49603 343.09064 482.49603 345.21564ZM488.4179 345.21564Q488.4179 343.6844 488.7304 342.7625Q489.0429 341.825 489.65228 341.325Q490.27728 340.825 491.21478 340.825Q491.90228 340.825 492.4179 341.10626Q492.94916 341.3875 493.2929 341.91876Q493.63666 342.4344 493.82416 343.1844Q494.01166 343.9344 494.01166 345.21564Q494.01166 346.73126 493.69916 347.65314Q493.40228 348.575 492.77728 349.09064Q492.1679 349.59064 491.21478 349.59064Q489.9804 349.59064 489.26166 348.7Q488.4179 347.6375 488.4179 345.21564ZM489.49603 345.21564Q489.49603 347.325 489.99603 348.02814Q490.49603 348.73126 491.21478 348.73126Q491.94916 348.73126 492.43353 348.02814Q492.93353 347.325 492.93353 345.21564Q492.93353 343.09064 492.43353 342.40314Q491.94916 341.7 491.19916 341.7Q490.4804 341.7 490.0429 342.3094Q489.49603 343.09064 489.49603 345.21564Z" fill-rule="nonzero"/><path fill="#85b737" d="M188.5 80.416664C188.5 79.86438 188.94771 79.416664 189.5 79.416664L199.5 79.416664C200.05229 79.416664 200.5 79.86438 200.5 80.416664L200.5 90.416664C200.5 90.96895 200.05229 91.416664 199.5 91.416664L189.5 91.416664C188.94771 91.416664 188.5 90.96895 188.5 90.416664Z" fill-rule="nonzero"/><path fill="#1a1a1a" d="M209.375 89.416664L209.375 80.822914L210.51562 80.822914L210.51562 88.40104L214.75 88.40104L214.75 89.416664L209.375 89.416664ZM216.375 89.416664L216.375 80.822914L217.51562 80.822914L217.51562 88.40104L221.75 88.40104L221.75 89.416664L216.375 89.416664ZM227.35938 88.65104Q226.76562 89.15104 226.21875 89.354164Q225.6875 89.55729 225.0625 89.55729Q224.03125 89.55729 223.48438 89.05729Q222.9375 88.55729 222.9375 87.77604Q222.9375 87.322914 223.14062 86.947914Q223.34375 86.55729 223.6875 86.33854Q224.03125 86.104164 224.45312 85.99479Q224.75 85.90104 225.39062 85.822914Q226.65625 85.68229 227.26562 85.46354Q227.26562 85.24479 227.26562 85.197914Q227.26562 84.541664 226.96875 84.27604Q226.5625 83.93229 225.76562 83.93229Q225.03125 83.93229 224.67188 84.197914Q224.3125 84.447914 224.14062 85.104164L223.10938 84.96354Q223.25 84.30729 223.57812 83.90104Q223.90625 83.49479 224.51562 83.27604Q225.125 83.05729 225.92188 83.05729Q226.71875 83.05729 227.21875 83.24479Q227.71875 83.43229 227.95312 83.71354Q228.1875 83.99479 228.28125 84.43229Q228.32812 84.697914 228.32812 85.40104L228.32812 86.80729Q228.32812 88.27604 228.39062 88.666664Q228.46875 89.05729 228.67188 89.416664L227.5625 89.416664Q227.40625 89.08854 227.35938 88.65104ZM227.26562 86.291664Q226.6875 86.52604 225.54688 86.697914Q224.89062 86.791664 224.625 86.916664Q224.35938 87.02604 224.20312 87.24479Q224.0625 87.46354 224.0625 87.74479Q224.0625 88.166664 224.375 88.447914Q224.70312 88.729164 225.3125 88.729164Q225.92188 88.729164 226.39062 88.46354Q226.875 88.197914 227.09375 87.729164Q227.26562 87.36979 227.26562 86.68229L227.26562 86.291664ZM230.39062 89.416664L230.39062 80.822914L232.10938 80.822914L234.14062 86.90104Q234.42188 87.760414 234.54688 88.18229Q234.6875 87.71354 235.0 86.80729L237.0625 80.822914L238.59375 80.822914L238.59375 89.416664L237.5 89.416664L237.5 82.229164L235.0 89.416664L233.96875 89.416664L231.48438 82.104164L231.48438 89.416664L230.39062 89.416664ZM238.48438 89.416664L241.78125 80.822914L243.0 80.822914L246.51562 89.416664L245.23438 89.416664L244.21875 86.80729L240.64062 86.80729L239.6875 89.416664L238.48438 89.416664ZM240.96875 85.885414L243.875 85.885414L242.98438 83.510414Q242.5625 82.43229 242.375 81.729164Q242.20312 82.55729 241.90625 83.36979L240.96875 85.885414ZM245.875 86.83854L245.875 85.77604L249.125 85.77604L249.125 86.83854L245.875 86.83854ZM255.54688 88.40104L255.54688 89.416664L249.85938 89.416664Q249.85938 89.041664 249.98438 88.68229Q250.20312 88.104164 250.67188 87.541664Q251.15625 86.979164 252.0625 86.24479Q253.46875 85.08854 253.95312 84.416664Q254.45312 83.74479 254.45312 83.15104Q254.45312 82.52604 254.0 82.104164Q253.54688 81.666664 252.82812 81.666664Q252.0625 81.666664 251.60938 82.11979Q251.15625 82.572914 251.14062 83.385414L250.0625 83.27604Q250.17188 82.05729 250.89062 81.43229Q251.625 80.791664 252.85938 80.791664Q254.09375 80.791664 254.8125 81.479164Q255.53125 82.166664 255.53125 83.18229Q255.53125 83.697914 255.3125 84.197914Q255.10938 84.68229 254.60938 85.24479Q254.125 85.791664 253.0 86.74479Q252.04688 87.541664 251.76562 87.83854Q251.5 88.11979 251.32812 88.40104L255.54688 88.40104ZM256.875 86.83854L256.875 85.77604L260.125 85.77604L260.125 86.83854L256.875 86.83854ZM261.0625 81.947914L261.0625 80.93229L266.625 80.93229L266.625 81.760414Q265.8125 82.635414 265.0 84.08854Q264.20312 85.52604 263.76562 87.05729Q263.4375 88.135414 263.35938 89.416664L262.26562 89.416664Q262.28125 88.40104 262.65625 86.96354Q263.04688 85.52604 263.75 84.197914Q264.46875 82.86979 265.28125 81.947914L261.0625 81.947914ZM269.26562 89.416664L268.28125 89.416664L268.28125 80.822914L269.34375 80.822914L269.34375 83.885414Q270.01562 83.05729 271.04688 83.05729Q271.625 83.05729 272.125 83.291664Q272.64062 83.510414 272.96875 83.93229Q273.3125 84.354164 273.5 84.947914Q273.6875 85.541664 273.6875 86.21354Q273.6875 87.80729 272.89062 88.68229Q272.09375 89.55729 271.0 89.55729Q269.89062 89.55729 269.26562 88.635414L269.26562 89.416664ZM269.25 86.260414Q269.25 87.36979 269.5625 87.86979Q270.0625 88.68229 270.90625 88.68229Q271.59375 88.68229 272.09375 88.08854Q272.60938 87.49479 272.60938 86.291664Q272.60938 85.072914 272.125 84.49479Q271.64062 83.916664 270.95312 83.916664Q270.26562 83.916664 269.75 84.52604Q269.25 85.11979 269.25 86.260414ZM274.875 86.83854L274.875 85.77604L278.125 85.77604L278.125 86.83854L274.875 86.83854ZM279.29688 89.416664L279.29688 80.822914L280.34375 80.822914L280.34375 83.90104Q281.07812 83.05729 282.20312 83.05729Q282.90625 83.05729 283.40625 83.33854Q283.92188 83.604164 284.14062 84.08854Q284.35938 84.55729 284.35938 85.479164L284.35938 89.416664L283.3125 89.416664L283.3125 85.479164Q283.3125 84.68229 282.96875 84.322914Q282.625 83.96354 282.0 83.96354Q281.53125 83.96354 281.10938 84.21354Q280.70312 84.447914 280.51562 84.86979Q280.34375 85.27604 280.34375 86.010414L280.34375 89.416664L279.29688 89.416664ZM286.54688 89.416664L286.54688 84.010414L285.60938 84.010414L285.60938 83.197914L286.54688 83.197914L286.54688 82.52604Q286.54688 81.90104 286.65625 81.604164Q286.8125 81.18229 287.1875 80.93229Q287.57812 80.68229 288.26562 80.68229Q288.71875 80.68229 289.25 80.791664L289.09375 81.697914Q288.76562 81.65104 288.46875 81.65104Q287.98438 81.65104 287.78125 81.854164Q287.59375 82.05729 287.59375 82.61979L287.59375 83.197914L288.8125 83.197914L288.8125 84.010414L287.59375 84.010414L287.59375 89.416664L286.54688 89.416664Z" fill-rule="nonzero"/><path fill="#3d5314" d="M304.5 80.416664C304.5 79.86438 304.94772 79.416664 305.5 79.416664L315.5 79.416664C316.05228 79.416664 316.5 79.86438 316.5 80.416664L316.5 90.416664C316.5 90.96895 316.05228 91.416664 315.5 91.416664L305.5 91.416664C304.94772 91.416664 304.5 90.96895 304.5 90.416664Z" fill-rule="nonzero"/><path fill="#1a1a1a" d="M325.375 89.416664L325.375 80.822914L326.51562 80.822914L326.51562 88.40104L330.75 88.40104L330.75 89.416664L325.375 89.416664ZM332.375 89.416664L332.375 80.822914L333.51562 80.822914L333.51562 88.40104L337.75 88.40104L337.75 89.416664L332.375 89.416664ZM343.35938 88.65104Q342.76562 89.15104 342.21875 89.354164Q341.6875 89.55729 341.0625 89.55729Q340.03125 89.55729 339.48438 89.05729Q338.9375 88.55729 338.9375 87.77604Q338.9375 87.322914 339.14062 86.947914Q339.34375 86.55729 339.6875 86.33854Q340.03125 86.104164 340.45312 85.99479Q340.75 85.90104 341.39062 85.822914Q342.65625 85.68229 343.26562 85.46354Q343.26562 85.24479 343.26562 85.197914Q343.26562 84.541664 342.96875 84.27604Q342.5625 83.93229 341.76562 83.93229Q341.03125 83.93229 340.67188 84.197914Q340.3125 84.447914 340.14062 85.104164L339.10938 84.96354Q339.25 84.30729 339.57812 83.90104Q339.90625 83.49479 340.51562 83.27604Q341.125 83.05729 341.92188 83.05729Q342.71875 83.05729 343.21875 83.24479Q343.71875 83.43229 343.95312 83.71354Q344.1875 83.99479 344.28125 84.43229Q344.32812 84.697914 344.32812 85.40104L344.32812 86.80729Q344.32812 88.27604 344.39062 88.666664Q344.46875 89.05729 344.67188 89.416664L343.5625 89.416664Q343.40625 89.08854 343.35938 88.65104ZM343.26562 86.291664Q342.6875 86.52604 341.54688 86.697914Q340.89062 86.791664 340.625 86.916664Q340.35938 87.02604 340.20312 87.24479Q340.0625 87.46354 340.0625 87.74479Q340.0625 88.166664 340.375 88.447914Q340.70312 88.729164 341.3125 88.729164Q341.92188 88.729164 342.39062 88.46354Q342.875 88.197914 343.09375 87.729164Q343.26562 87.36979 343.26562 86.68229L343.26562 86.291664ZM346.39062 89.416664L346.39062 80.822914L348.10938 80.822914L350.14062 86.90104Q350.42188 87.760414 350.54688 88.18229Q350.6875 87.71354 351.0 86.80729L353.0625 80.822914L354.59375 80.822914L354.59375 89.416664L353.5 89.416664L353.5 82.229164L351.0 89.416664L349.96875 89.416664L347.48438 82.104164L347.48438 89.416664L346.39062 89.416664ZM354.48438 89.416664L357.78125 80.822914L359.0 80.822914L362.51562 89.416664L361.23438 89.416664L360.21875 86.80729L356.64062 86.80729L355.6875 89.416664L354.48438 89.416664ZM356.96875 85.885414L359.875 85.885414L358.98438 83.510414Q358.5625 82.43229 358.375 81.729164Q358.20312 82.55729 357.90625 83.36979L356.96875 85.885414ZM361.875 86.83854L361.875 85.77604L365.125 85.77604L365.125 86.83854L361.875 86.83854ZM371.54688 88.40104L371.54688 89.416664L365.85938 89.416664Q365.85938 89.041664 365.98438 88.68229Q366.20312 88.104164 366.67188 87.541664Q367.15625 86.979164 368.0625 86.24479Q369.46875 85.08854 369.95312 84.416664Q370.45312 83.74479 370.45312 83.15104Q370.45312 82.52604 370.0 82.104164Q369.54688 81.666664 368.82812 81.666664Q368.0625 81.666664 367.60938 82.11979Q367.15625 82.572914 367.14062 83.385414L366.0625 83.27604Q366.17188 82.05729 366.89062 81.43229Q367.625 80.791664 368.85938 80.791664Q370.09375 80.791664 370.8125 81.479164Q371.53125 82.166664 371.53125 83.18229Q371.53125 83.697914 371.3125 84.197914Q371.10938 84.68229 370.60938 85.24479Q370.125 85.791664 369.0 86.74479Q368.04688 87.541664 367.76562 87.83854Q367.5 88.11979 367.32812 88.40104L371.54688 88.40104ZM372.875 86.83854L372.875 85.77604L376.125 85.77604L376.125 86.83854L372.875 86.83854ZM380.96875 89.416664L379.92188 89.416664L379.92188 82.697914Q379.53125 83.05729 378.90625 83.43229Q378.29688 83.791664 377.8125 83.96354L377.8125 82.947914Q378.6875 82.52604 379.34375 81.947914Q380.01562 81.354164 380.29688 80.791664L380.96875 80.791664L380.96875 89.416664ZM384.0 87.15104L385.0625 87.010414Q385.23438 87.90104 385.67188 88.30729Q386.10938 88.697914 386.73438 88.697914Q387.48438 88.697914 388.0 88.18229Q388.51562 87.666664 388.51562 86.90104Q388.51562 86.18229 388.03125 85.71354Q387.5625 85.229164 386.82812 85.229164Q386.53125 85.229164 386.07812 85.354164L386.20312 84.416664Q386.3125 84.43229 386.375 84.43229Q387.04688 84.43229 387.57812 84.08854Q388.125 83.729164 388.125 82.99479Q388.125 82.416664 387.73438 82.041664Q387.34375 81.65104 386.71875 81.65104Q386.10938 81.65104 385.6875 82.041664Q385.28125 82.43229 385.17188 83.197914L384.10938 83.010414Q384.29688 81.96354 384.98438 81.385414Q385.67188 80.791664 386.6875 80.791664Q387.39062 80.791664 387.98438 81.104164Q388.57812 81.40104 388.89062 81.916664Q389.20312 82.43229 389.20312 83.02604Q389.20312 83.572914 388.90625 84.041664Q388.60938 84.49479 388.03125 84.760414Q388.78125 84.93229 389.20312 85.49479Q389.625 86.041664 389.625 86.885414Q389.625 88.010414 388.79688 88.791664Q387.98438 89.572914 386.73438 89.572914Q385.60938 89.572914 384.85938 88.90104Q384.10938 88.21354 384.0 87.15104ZM392.26562 89.416664L391.28125 89.416664L391.28125 80.822914L392.34375 80.822914L392.34375 83.885414Q393.01562 83.05729 394.04688 83.05729Q394.625 83.05729 395.125 83.291664Q395.64062 83.510414 395.96875 83.93229Q396.3125 84.354164 396.5 84.947914Q396.6875 85.541664 396.6875 86.21354Q396.6875 87.80729 395.89062 88.68229Q395.09375 89.55729 394.0 89.55729Q392.89062 89.55729 392.26562 88.635414L392.26562 89.416664ZM392.25 86.260414Q392.25 87.36979 392.5625 87.86979Q393.0625 88.68229 393.90625 88.68229Q394.59375 88.68229 395.09375 88.08854Q395.60938 87.49479 395.60938 86.291664Q395.60938 85.072914 395.125 84.49479Q394.64062 83.916664 393.95312 83.916664Q393.26562 83.916664 392.75 84.52604Q392.25 85.11979 392.25 86.260414ZM397.875 86.83854L397.875 85.77604L401.125 85.77604L401.125 86.83854L397.875 86.83854ZM402.29688 89.416664L402.29688 80.822914L403.34375 80.822914L403.34375 83.90104Q404.07812 83.05729 405.20312 83.05729Q405.90625 83.05729 406.40625 83.33854Q406.92188 83.604164 407.14062 84.08854Q407.35938 84.55729 407.35938 85.479164L407.35938 89.416664L406.3125 89.416664L406.3125 85.479164Q406.3125 84.68229 405.96875 84.322914Q405.625 83.96354 405.0 83.96354Q404.53125 83.96354 404.10938 84.21354Q403.70312 84.447914 403.51562 84.86979Q403.34375 85.27604 403.34375 86.010414L403.34375 89.416664L402.29688 89.416664ZM409.54688 89.416664L409.54688 84.010414L408.60938 84.010414L408.60938 83.197914L409.54688 83.197914L409.54688 82.52604Q409.54688 81.90104 409.65625 81.604164Q409.8125 81.18229 410.1875 80.93229Q410.57812 80.68229 411.26562 80.68229Q411.71875 80.68229 412.25 80.791664L412.09375 81.697914Q411.76562 81.65104 411.46875 81.65104Q410.98438 81.65104 410.78125 81.854164Q410.59375 82.05729 410.59375 82.61979L410.59375 83.197914L411.8125 83.197914L411.8125 84.010414L410.59375 84.010414L410.59375 89.416664L409.54688 89.416664Z" fill-rule="nonzero"/><path fill="#999999" d="M19.58125 63.05L19.58125 53.034374L23.33125 53.034374Q24.4875 53.034374 25.175 53.346874Q25.878124 53.64375 26.26875 54.26875Q26.659374 54.89375 26.659374 55.596874Q26.659374 56.2375 26.3 56.8Q25.95625 57.3625 25.253124 57.721874Q26.159374 57.9875 26.64375 58.628124Q27.14375 59.26875 27.14375 60.14375Q27.14375 60.846874 26.846874 61.45625Q26.55 62.065624 26.1125 62.39375Q25.675 62.721874 25.003124 62.89375Q24.346874 63.05 23.39375 63.05L19.58125 63.05ZM20.909374 57.2375L23.065624 57.2375Q23.95625 57.2375 24.33125 57.128124Q24.846874 56.971874 25.096874 56.628124Q25.346874 56.26875 25.346874 55.753124Q25.346874 55.253124 25.1125 54.878124Q24.878124 54.4875 24.425 54.346874Q23.9875 54.20625 22.909374 54.20625L20.909374 54.20625L20.909374 57.2375ZM20.909374 61.8625L23.39375 61.8625Q24.034374 61.8625 24.3 61.815624Q24.753124 61.7375 25.065624 61.55Q25.378124 61.346874 25.565624 60.9875Q25.76875 60.628124 25.76875 60.14375Q25.76875 59.58125 25.471874 59.175Q25.190624 58.753124 24.675 58.596874Q24.175 58.425 23.221874 58.425L20.909374 58.425L20.909374 61.8625ZM33.20625 62.159374Q32.534374 62.7375 31.89375 62.9875Q31.26875 63.221874 30.534374 63.221874Q29.346874 63.221874 28.690624 62.64375Q28.05 62.05 28.05 61.128124Q28.05 60.596874 28.284374 60.159374Q28.534374 59.721874 28.925 59.45625Q29.33125 59.190624 29.815624 59.05Q30.175 58.95625 30.909374 58.8625Q32.409374 58.690624 33.1125 58.440624Q33.1125 58.190624 33.1125 58.128124Q33.1125 57.3625 32.76875 57.065624Q32.3 56.64375 31.3625 56.64375Q30.503124 56.64375 30.08125 56.95625Q29.675 57.253124 29.471874 58.01875L28.26875 57.8625Q28.425 57.08125 28.8 56.6125Q29.190624 56.14375 29.89375 55.89375Q30.6125 55.628124 31.55 55.628124Q32.471874 55.628124 33.05 55.846874Q33.628124 56.065624 33.89375 56.39375Q34.175 56.721874 34.284374 57.2375Q34.346874 57.55 34.346874 58.3625L34.346874 60.003124Q34.346874 61.721874 34.425 62.175Q34.503124 62.628124 34.7375 63.05L33.45625 63.05Q33.26875 62.659374 33.20625 62.159374ZM33.1125 59.409374Q32.440624 59.675 31.096874 59.878124Q30.346874 59.9875 30.01875 60.128124Q29.70625 60.253124 29.534374 60.51875Q29.3625 60.784374 29.3625 61.096874Q29.3625 61.596874 29.7375 61.925Q30.1125 62.253124 30.83125 62.253124Q31.55 62.253124 32.096874 61.940624Q32.64375 61.628124 32.909374 61.08125Q33.1125 60.675 33.1125 59.8625L33.1125 59.409374ZM39.159374 61.95625L39.33125 63.034374Q38.815624 63.14375 38.409374 63.14375Q37.7375 63.14375 37.3625 62.940624Q37.003124 62.721874 36.846874 62.378124Q36.70625 62.034374 36.70625 60.925L36.70625 56.753124L35.8 56.753124L35.8 55.784374L36.70625 55.784374L36.70625 53.9875L37.925 53.253124L37.925 55.784374L39.159374 55.784374L39.159374 56.753124L37.925 56.753124L37.925 60.9875Q37.925 61.51875 37.9875 61.675Q38.05 61.815624 38.190624 61.909374Q38.346874 62.003124 38.6125 62.003124Q38.83125 62.003124 39.159374 61.95625ZM45.20625 60.39375L46.425 60.55Q46.221874 61.8 45.39375 62.51875Q44.58125 63.221874 43.39375 63.221874Q41.909374 63.221874 41.003124 62.253124Q40.096874 61.26875 40.096874 59.440624Q40.096874 58.26875 40.4875 57.39375Q40.878124 56.503124 41.675 56.065624Q42.471874 55.628124 43.409374 55.628124Q44.58125 55.628124 45.33125 56.221874Q46.096874 56.815624 46.3 57.925L45.1125 58.1125Q44.940624 57.378124 44.503124 57.01875Q44.065624 56.64375 43.45625 56.64375Q42.51875 56.64375 41.940624 57.315624Q41.3625 57.971874 41.3625 59.409374Q41.3625 60.878124 41.925 61.55Q42.4875 62.20625 43.378124 62.20625Q44.1125 62.20625 44.596874 61.76875Q45.08125 61.315624 45.20625 60.39375ZM47.471874 63.05L47.471874 53.034374L48.70625 53.034374L48.70625 56.628124Q49.565624 55.628124 50.878124 55.628124Q51.690624 55.628124 52.284374 55.95625Q52.878124 56.26875 53.128124 56.83125Q53.39375 57.378124 53.39375 58.45625L53.39375 63.05L52.159374 63.05L52.159374 58.45625Q52.159374 57.51875 51.753124 57.1125Q51.3625 56.690624 50.628124 56.690624Q50.08125 56.690624 49.596874 56.971874Q49.1125 57.253124 48.909374 57.7375Q48.70625 58.221874 48.70625 59.08125L48.70625 63.05L47.471874 63.05ZM59.175 59.83125L60.425 59.721874Q60.51875 60.471874 60.846874 60.95625Q61.175 61.440624 61.846874 61.7375Q62.534374 62.034374 63.39375 62.034374Q64.14375 62.034374 64.72188 61.815624Q65.31563 61.58125 65.59688 61.190624Q65.87813 60.8 65.87813 60.33125Q65.87813 59.8625 65.59688 59.51875Q65.33125 59.159374 64.70625 58.909374Q64.3 58.753124 62.909374 58.425Q61.534374 58.096874 60.9875 57.8Q60.26875 57.425 59.909374 56.878124Q59.565624 56.315624 59.565624 55.6125Q59.565624 54.8625 59.9875 54.20625Q60.425 53.534374 61.253124 53.20625Q62.08125 52.8625 63.096874 52.8625Q64.20625 52.8625 65.05 53.221874Q65.90938 53.58125 66.3625 54.284374Q66.81563 54.971874 66.8625 55.846874L65.58125 55.940624Q65.4875 55.003124 64.89375 54.51875Q64.3 54.01875 63.14375 54.01875Q61.940624 54.01875 61.39375 54.471874Q60.846874 54.909374 60.846874 55.534374Q60.846874 56.065624 61.2375 56.425Q61.6125 56.76875 63.221874 57.14375Q64.84688 57.503124 65.44063 57.76875Q66.31563 58.175 66.7375 58.8Q67.15938 59.409374 67.15938 60.221874Q67.15938 61.01875 66.69063 61.7375Q66.2375 62.440624 65.37813 62.83125Q64.51875 63.221874 63.45625 63.221874Q62.096874 63.221874 61.175 62.83125Q60.253124 62.425 59.721874 61.628124Q59.20625 60.83125 59.175 59.83125ZM68.4875 54.440624L68.4875 53.034374L69.70625 53.034374L69.70625 54.440624L68.4875 54.440624ZM68.4875 63.05L68.4875 55.784374L69.70625 55.784374L69.70625 63.05L68.4875 63.05ZM70.83125 63.05L70.83125 62.05L75.44063 56.753124Q74.65938 56.784374 74.05 56.784374L71.09688 56.784374L71.09688 55.784374L77.03438 55.784374L77.03438 56.596874L73.09688 61.20625L72.34688 62.05Q73.175 61.9875 73.89375 61.9875L77.25313 61.9875L77.25313 63.05L70.83125 63.05ZM82.44063 60.70625L83.72188 60.8625Q83.40938 61.9875 82.59688 62.6125Q81.78438 63.221874 80.51875 63.221874Q78.925 63.221874 77.9875 62.2375Q77.06563 61.253124 77.06563 59.4875Q77.06563 57.64375 78.00313 56.64375Q78.95625 55.628124 80.45625 55.628124Q81.90938 55.628124 82.83125 56.628124Q83.75313 57.6125 83.75313 59.409374Q83.75313 59.51875 83.75313 59.7375L78.33125 59.7375Q78.40938 60.925 79.00313 61.565624Q79.6125 62.20625 80.53438 62.20625Q81.20625 62.20625 81.675 61.846874Q82.15938 61.4875 82.44063 60.70625ZM78.40938 58.721874L82.45625 58.721874Q82.37813 57.8 81.9875 57.346874Q81.40938 56.64375 80.47188 56.64375Q79.6125 56.64375 79.03438 57.20625Q78.47188 57.76875 78.40938 58.721874ZM95.94063 57.159374L89.33125 57.159374L89.33125 56.003124L95.94063 56.003124L95.94063 57.159374ZM95.94063 60.20625L89.33125 60.20625L89.33125 59.05L95.94063 59.05L95.94063 60.20625ZM105.76875 63.05L104.53438 63.05L104.53438 55.20625Q104.09688 55.628124 103.3625 56.065624Q102.64375 56.4875 102.08125 56.690624L102.08125 55.503124Q103.1125 55.01875 103.87813 54.33125Q104.65938 53.64375 104.97188 52.9875L105.76875 52.9875L105.76875 63.05Z" fill-rule="nonzero"/><path fill="#757575" d="M20.01875 37.55L20.01875 23.2375L21.909374 23.2375L21.909374 35.8625L28.95625 35.8625L28.95625 37.55L20.01875 37.55ZM31.01875 37.55L31.01875 23.2375L32.909374 23.2375L32.909374 35.8625L39.95625 35.8625L39.95625 37.55L31.01875 37.55ZM48.64375 36.26875Q47.659374 37.096874 46.753124 37.440624Q45.846874 37.784374 44.815624 37.784374Q43.1125 37.784374 42.190624 36.95625Q41.26875 36.1125 41.26875 34.815624Q41.26875 34.05 41.6125 33.425Q41.971874 32.8 42.534374 32.425Q43.096874 32.034374 43.8 31.83125Q44.315624 31.70625 45.3625 31.565624Q47.4875 31.315624 48.4875 30.971874Q48.503124 30.6125 48.503124 30.503124Q48.503124 29.440624 48.003124 28.9875Q47.33125 28.39375 46.003124 28.39375Q44.753124 28.39375 44.159374 28.83125Q43.58125 29.26875 43.3 30.378124L41.58125 30.14375Q41.815624 29.034374 42.346874 28.3625Q42.878124 27.675 43.89375 27.315624Q44.909374 26.940624 46.253124 26.940624Q47.58125 26.940624 48.409374 27.253124Q49.2375 27.565624 49.628124 28.05Q50.01875 28.51875 50.175 29.2375Q50.26875 29.690624 50.26875 30.8625L50.26875 33.20625Q50.26875 35.659374 50.378124 36.315624Q50.4875 36.95625 50.83125 37.55L48.9875 37.55Q48.721874 37.003124 48.64375 36.26875ZM48.4875 32.346874Q47.534374 32.7375 45.6125 33.003124Q44.534374 33.159374 44.08125 33.3625Q43.64375 33.55 43.39375 33.925Q43.14375 34.3 43.14375 34.76875Q43.14375 35.471874 43.675 35.940624Q44.20625 36.409374 45.2375 36.409374Q46.253124 36.409374 47.034374 35.971874Q47.83125 35.51875 48.20625 34.753124Q48.4875 34.14375 48.4875 32.9875L48.4875 32.346874ZM53.034374 37.55L53.034374 23.2375L55.89375 23.2375L59.26875 33.3625Q59.7375 34.784374 59.95625 35.4875Q60.20625 34.70625 60.721874 33.190624L64.14375 23.2375L66.69063 23.2375L66.69063 37.55L64.87813 37.55L64.87813 25.565624L60.70625 37.55L59.003124 37.55L54.8625 25.3625L54.8625 37.55L53.034374 37.55ZM68.51875 37.55L74.01875 23.2375L76.06563 23.2375L81.925 37.55L79.76875 37.55L78.09688 33.20625L72.1125 33.20625L70.53438 37.55L68.51875 37.55ZM72.65938 31.675L77.50313 31.675L76.01875 27.70625Q75.33125 25.89375 75.00313 24.7375Q74.72188 26.1125 74.22188 27.471874L72.65938 31.675ZM97.6125 35.8625L97.6125 37.55L88.15938 37.55Q88.14375 36.909374 88.3625 36.33125Q88.72188 35.3625 89.51875 34.425Q90.31563 33.4875 91.81563 32.253124Q94.15938 30.346874 94.97188 29.2375Q95.8 28.1125 95.8 27.1125Q95.8 26.065624 95.05 25.346874Q94.3 24.628124 93.09688 24.628124Q91.83125 24.628124 91.06563 25.39375Q90.3 26.159374 90.3 27.503124L88.4875 27.315624Q88.675 25.3 89.87813 24.2375Q91.09688 23.175 93.14375 23.175Q95.19063 23.175 96.39375 24.315624Q97.59688 25.45625 97.59688 27.14375Q97.59688 28.003124 97.2375 28.846874Q96.89375 29.675 96.08125 30.596874Q95.26875 31.503124 93.37813 33.1125Q91.78438 34.440624 91.33125 34.909374Q90.89375 35.378124 90.59688 35.8625L97.6125 35.8625ZM106.19063 37.55L106.19063 23.2375L115.84688 23.2375L115.84688 24.925L108.08125 24.925L108.08125 29.3625L114.8 29.3625L114.8 31.05L108.08125 31.05L108.08125 37.55L106.19063 37.55ZM117.87813 25.253124L117.87813 23.2375L119.64375 23.2375L119.64375 25.253124L117.87813 25.253124ZM117.87813 37.55L117.87813 27.175L119.64375 27.175L119.64375 37.55L117.87813 37.55ZM121.84688 37.55L121.84688 27.175L123.425 27.175L123.425 28.753124Q124.03438 27.64375 124.55 27.3Q125.06563 26.940624 125.675 26.940624Q126.56563 26.940624 127.4875 27.503124L126.87813 29.14375Q126.2375 28.753124 125.59688 28.753124Q125.01875 28.753124 124.55 29.1125Q124.09688 29.45625 123.89375 30.065624Q123.6125 31.003124 123.6125 32.1125L123.6125 37.55L121.84688 37.55ZM128.15938 34.45625L129.90938 34.175Q130.05 35.221874 130.72188 35.784374Q131.39375 36.33125 132.59688 36.33125Q133.8 36.33125 134.37813 35.846874Q134.97188 35.346874 134.97188 34.690624Q134.97188 34.096874 134.45625 33.753124Q134.09688 33.51875 132.65938 33.159374Q130.72188 32.659374 129.97188 32.315624Q129.2375 31.95625 128.84688 31.33125Q128.45625 30.690624 128.45625 29.925Q128.45625 29.2375 128.76875 28.64375Q129.09688 28.05 129.64375 27.659374Q130.05 27.3625 130.75313 27.159374Q131.47188 26.940624 132.28438 26.940624Q133.50313 26.940624 134.425 27.3Q135.34688 27.64375 135.78438 28.253124Q136.22188 28.846874 136.39375 29.846874L134.675 30.08125Q134.55 29.284374 133.9875 28.846874Q133.425 28.39375 132.40938 28.39375Q131.19063 28.39375 130.675 28.8Q130.15938 29.190624 130.15938 29.721874Q130.15938 30.065624 130.37813 30.346874Q130.58125 30.628124 131.05 30.815624Q131.31563 30.909374 132.59688 31.253124Q134.47188 31.753124 135.20625 32.08125Q135.94063 32.39375 136.3625 33.003124Q136.78438 33.596874 136.78438 34.503124Q136.78438 35.378124 136.26875 36.159374Q135.75313 36.940624 134.78438 37.3625Q133.81563 37.784374 132.59688 37.784374Q130.58125 37.784374 129.51875 36.940624Q128.45625 36.096874 128.15938 34.45625ZM142.70625 35.971874L142.95625 37.534374Q142.22188 37.690624 141.62813 37.690624Q140.675 37.690624 140.14375 37.39375Q139.62813 37.08125 139.40938 36.596874Q139.19063 36.096874 139.19063 34.51875L139.19063 28.55L137.90938 28.55L137.90938 27.175L139.19063 27.175L139.19063 24.6125L140.94063 23.55L140.94063 27.175L142.70625 27.175L142.70625 28.55L140.94063 28.55L140.94063 34.6125Q140.94063 35.3625 141.03438 35.58125Q141.12813 35.784374 141.33125 35.925Q141.55 36.05 141.94063 36.05Q142.22188 36.05 142.70625 35.971874ZM154.7375 37.55L154.7375 24.925L150.01875 24.925L150.01875 23.2375L161.3625 23.2375L161.3625 24.925L156.62813 24.925L156.62813 37.55L154.7375 37.55ZM162.22188 32.3625Q162.22188 29.4875 163.81563 28.096874Q165.15938 26.940624 167.08125 26.940624Q169.22188 26.940624 170.56563 28.346874Q171.925 29.753124 171.925 32.221874Q171.925 34.221874 171.33125 35.378124Q170.7375 36.51875 169.58125 37.159374Q168.44063 37.784374 167.08125 37.784374Q164.89375 37.784374 163.55 36.39375Q162.22188 34.9875 162.22188 32.3625ZM164.01875 32.3625Q164.01875 34.3625 164.87813 35.346874Q165.75313 36.33125 167.08125 36.33125Q168.39375 36.33125 169.25313 35.346874Q170.12813 34.346874 170.12813 32.3Q170.12813 30.378124 169.25313 29.39375Q168.37813 28.39375 167.08125 28.39375Q165.75313 28.39375 164.87813 29.39375Q164.01875 30.378124 164.01875 32.3625ZM173.87813 37.55L173.87813 23.2375L175.64375 23.2375L175.64375 31.39375L179.8 27.175L182.06563 27.175L178.1125 31.01875L182.47188 37.55L180.3 37.55L176.87813 32.253124L175.64375 33.440624L175.64375 37.55L173.87813 37.55ZM190.97188 34.20625L192.78438 34.440624Q192.3625 36.01875 191.19063 36.909374Q190.03438 37.784374 188.22188 37.784374Q185.95625 37.784374 184.6125 36.39375Q183.28438 34.9875 183.28438 32.45625Q183.28438 29.83125 184.62813 28.39375Q185.97188 26.940624 188.12813 26.940624Q190.20625 26.940624 191.51875 28.3625Q192.84688 29.76875 192.84688 32.346874Q192.84688 32.503124 192.83125 32.815624L185.09688 32.815624Q185.19063 34.51875 186.06563 35.425Q186.94063 36.33125 188.2375 36.33125Q189.20625 36.33125 189.87813 35.83125Q190.56563 35.315624 190.97188 34.20625ZM185.19063 31.3625L190.9875 31.3625Q190.87813 30.065624 190.33125 29.409374Q189.4875 28.39375 188.14375 28.39375Q186.94063 28.39375 186.1125 29.20625Q185.28438 30.003124 185.19063 31.3625ZM194.8625 37.55L194.8625 27.175L196.45625 27.175L196.45625 28.659374Q197.59688 26.940624 199.75313 26.940624Q200.69063 26.940624 201.47188 27.284374Q202.26875 27.6125 202.65938 28.159374Q203.05 28.70625 203.20625 29.45625Q203.3 29.95625 203.3 31.175L203.3 37.55L201.53438 37.55L201.53438 31.2375Q201.53438 30.159374 201.33125 29.628124Q201.12813 29.096874 200.59688 28.784374Q200.08125 28.471874 199.37813 28.471874Q198.25313 28.471874 197.44063 29.190624Q196.62813 29.89375 196.62813 31.878124L196.62813 37.55L194.8625 37.55ZM211.01875 37.55L211.01875 23.2375L212.90938 23.2375L212.90938 35.8625L219.95625 35.8625L219.95625 37.55L211.01875 37.55ZM228.64375 36.26875Q227.65938 37.096874 226.75313 37.440624Q225.84688 37.784374 224.81563 37.784374Q223.1125 37.784374 222.19063 36.95625Q221.26875 36.1125 221.26875 34.815624Q221.26875 34.05 221.6125 33.425Q221.97188 32.8 222.53438 32.425Q223.09688 32.034374 223.8 31.83125Q224.31563 31.70625 225.3625 31.565624Q227.4875 31.315624 228.4875 30.971874Q228.50313 30.6125 228.50313 30.503124Q228.50313 29.440624 228.00313 28.9875Q227.33125 28.39375 226.00313 28.39375Q224.75313 28.39375 224.15938 28.83125Q223.58125 29.26875 223.3 30.378124L221.58125 30.14375Q221.81563 29.034374 222.34688 28.3625Q222.87813 27.675 223.89375 27.315624Q224.90938 26.940624 226.25313 26.940624Q227.58125 26.940624 228.40938 27.253124Q229.2375 27.565624 229.62813 28.05Q230.01875 28.51875 230.175 29.2375Q230.26875 29.690624 230.26875 30.8625L230.26875 33.20625Q230.26875 35.659374 230.37813 36.315624Q230.4875 36.95625 230.83125 37.55L228.9875 37.55Q228.72188 37.003124 228.64375 36.26875ZM228.4875 32.346874Q227.53438 32.7375 225.6125 33.003124Q224.53438 33.159374 224.08125 33.3625Q223.64375 33.55 223.39375 33.925Q223.14375 34.3 223.14375 34.76875Q223.14375 35.471874 223.675 35.940624Q224.20625 36.409374 225.2375 36.409374Q226.25313 36.409374 227.03438 35.971874Q227.83125 35.51875 228.20625 34.753124Q228.4875 34.14375 228.4875 32.9875L228.4875 32.346874ZM236.70625 35.971874L236.95625 37.534374Q236.22188 37.690624 235.62813 37.690624Q234.675 37.690624 234.14375 37.39375Q233.62813 37.08125 233.40938 36.596874Q233.19063 36.096874 233.19063 34.51875L233.19063 28.55L231.90938 28.55L231.90938 27.175L233.19063 27.175L233.19063 24.6125L234.94063 23.55L234.94063 27.175L236.70625 27.175L236.70625 28.55L234.94063 28.55L234.94063 34.6125Q234.94063 35.3625 235.03438 35.58125Q235.12813 35.784374 235.33125 35.925Q235.55 36.05 235.94063 36.05Q236.22188 36.05 236.70625 35.971874ZM245.97188 34.20625L247.78438 34.440624Q247.3625 36.01875 246.19063 36.909374Q245.03438 37.784374 243.22188 37.784374Q240.95625 37.784374 239.6125 36.39375Q238.28438 34.9875 238.28438 32.45625Q238.28438 29.83125 239.62813 28.39375Q240.97188 26.940624 243.12813 26.940624Q245.20625 26.940624 246.51875 28.3625Q247.84688 29.76875 247.84688 32.346874Q247.84688 32.503124 247.83125 32.815624L240.09688 32.815624Q240.19063 34.51875 241.06563 35.425Q241.94063 36.33125 243.2375 36.33125Q244.20625 36.33125 244.87813 35.83125Q245.56563 35.315624 245.97188 34.20625ZM240.19063 31.3625L245.9875 31.3625Q245.87813 30.065624 245.33125 29.409374Q244.4875 28.39375 243.14375 28.39375Q241.94063 28.39375 241.1125 29.20625Q240.28438 30.003124 240.19063 31.3625ZM249.8625 37.55L249.8625 27.175L251.45625 27.175L251.45625 28.659374Q252.59688 26.940624 254.75313 26.940624Q255.69063 26.940624 256.47186 27.284374Q257.26874 27.6125 257.65936 28.159374Q258.05 28.70625 258.20624 29.45625Q258.3 29.95625 258.3 31.175L258.3 37.55L256.53436 37.55L256.53436 31.2375Q256.53436 30.159374 256.33124 29.628124Q256.1281 29.096874 255.59688 28.784374Q255.08125 28.471874 254.37813 28.471874Q253.25313 28.471874 252.44063 29.190624Q251.62813 29.89375 251.62813 31.878124L251.62813 37.55L249.8625 37.55ZM266.64374 33.753124L268.3625 33.971874Q268.08124 35.76875 266.90936 36.784374Q265.7531 37.784374 264.05 37.784374Q261.925 37.784374 260.6281 36.39375Q259.33124 35.003124 259.33124 32.409374Q259.33124 30.721874 259.8781 29.471874Q260.4406 28.20625 261.58124 27.58125Q262.72186 26.940624 264.0656 26.940624Q265.7531 26.940624 266.8156 27.8Q267.89374 28.659374 268.20624 30.221874L266.4875 30.4875Q266.2531 29.440624 265.6281 28.925Q265.0031 28.39375 264.1281 28.39375Q262.8 28.39375 261.97186 29.346874Q261.14374 30.3 261.14374 32.346874Q261.14374 34.440624 261.9406 35.39375Q262.7375 36.33125 264.03436 36.33125Q265.0656 36.33125 265.7531 35.70625Q266.45624 35.065624 266.64374 33.753124ZM269.78436 41.55L269.59686 39.89375Q270.175 40.05 270.59686 40.05Q271.1906 40.05 271.53436 39.846874Q271.89374 39.659374 272.1125 39.315624Q272.28436 39.05 272.65936 38.003124Q272.70624 37.846874 272.8156 37.565624L268.8781 27.175L270.76874 27.175L272.925 33.190624Q273.34686 34.33125 273.675 35.58125Q273.9875 34.378124 274.39374 33.221874L276.6125 27.175L278.3781 27.175L274.425 37.721874Q273.8 39.440624 273.4406 40.08125Q272.97186 40.95625 272.3625 41.346874Q271.76874 41.753124 270.925 41.753124Q270.40936 41.753124 269.78436 41.55Z" fill-rule="nonzero"/></svg>