<svg version="1.1" viewBox="0.0 0.0 600.0 371.0" fill="none" stroke="none" stroke-linecap="square" stroke-miterlimit="10" width="600" height="371" xmlns:xlink="http://www.w3.org/1999/xlink" xmlns="http://www.w3.org/2000/svg"><path fill="#ffffff" d="M0 0L600.0 0L600.0 371.0L0 371.0L0 0Z" fill-rule="nonzero"/><path stroke="#333333" stroke-width="1.0" stroke-linecap="butt" d="M77.5 332.5L581.5 332.5" fill-rule="nonzero"/><path stroke="#cccccc" stroke-width="1.0" stroke-linecap="butt" d="M77.5 277.5L581.5 277.5" fill-rule="nonzero"/><path stroke="#cccccc" stroke-width="1.0" stroke-linecap="butt" d="M77.5 222.5L581.5 222.5" fill-rule="nonzero"/><path stroke="#cccccc" stroke-width="1.0" stroke-linecap="butt" d="M77.5 166.5L581.5 166.5" fill-rule="nonzero"/><path stroke="#cccccc" stroke-width="1.0" stroke-linecap="butt" d="M77.5 111.5L581.5 111.5" fill-rule="nonzero"/><clipPath id="id_0"><path d="M77.55 111.78333L581.45 111.78333L581.45 332.45L77.55 332.45L77.55 111.78333Z" clip-rule="nonzero"/></clipPath><path stroke="#000000" stroke-width="2.0" stroke-linecap="butt" stroke-opacity="0.0" clip-path="url(#id_0)" d="M178.0 332.0L131.0 332.0L131.0 181.0C131.0 179.89543 131.89543 179.0 133.0 179.0L176.0 179.0C177.10457 179.0 178.0 179.89543 178.0 181.0Z" fill-rule="nonzero"/><path fill="#85b737" clip-path="url(#id_0)" d="M178.0 332.0L131.0 332.0L131.0 181.0C131.0 179.89543 131.89543 179.0 133.0 179.0L176.0 179.0C177.10457 179.0 178.0 179.89543 178.0 181.0Z" fill-rule="nonzero"/><path stroke="#000000" stroke-width="2.0" stroke-linecap="butt" stroke-opacity="0.0" clip-path="url(#id_0)" d="M329.0 332.0L282.0 332.0L282.0 155.0C282.0 153.89543 282.89542 153.0 284.0 153.0L327.0 153.0C328.10458 153.0 329.0 153.89543 329.0 155.0Z" fill-rule="nonzero"/><path fill="#85b737" clip-path="url(#id_0)" d="M329.0 332.0L282.0 332.0L282.0 155.0C282.0 153.89543 282.89542 153.0 284.0 153.0L327.0 153.0C328.10458 153.0 329.0 153.89543 329.0 155.0Z" fill-rule="nonzero"/><path stroke="#000000" stroke-width="2.0" stroke-linecap="butt" stroke-opacity="0.0" clip-path="url(#id_0)" d="M479.0 332.0L432.0 332.0L432.0 194.0C432.0 192.89543 432.89542 192.0 434.0 192.0L477.0 192.0C478.10458 192.0 479.0 192.89543 479.0 194.0Z" fill-rule="nonzero"/><path fill="#85b737" clip-path="url(#id_0)" d="M479.0 332.0L432.0 332.0L432.0 194.0C432.0 192.89543 432.89542 192.0 434.0 192.0L477.0 192.0C478.10458 192.0 479.0 192.89543 479.0 194.0Z" fill-rule="nonzero"/><path stroke="#000000" stroke-width="2.0" stroke-linecap="butt" stroke-opacity="0.0" clip-path="url(#id_0)" d="M378.0 332.0L331.0 332.0L331.0 173.0C331.0 171.89543 331.89542 171.0 333.0 171.0L376.0 171.0C377.10458 171.0 378.0 171.89543 378.0 173.0Z" fill-rule="nonzero"/><path fill="#3d5314" clip-path="url(#id_0)" d="M378.0 332.0L331.0 332.0L331.0 173.0C331.0 171.89543 331.89542 171.0 333.0 171.0L376.0 171.0C377.10458 171.0 378.0 171.89543 378.0 173.0Z" fill-rule="nonzero"/><path stroke="#000000" stroke-width="2.0" stroke-linecap="butt" stroke-opacity="0.0" clip-path="url(#id_0)" d="M528.0 332.0L481.0 332.0L481.0 160.0C481.0 158.89543 481.89542 158.0 483.0 158.0L526.0 158.0C527.10455 158.0 528.0 158.89543 528.0 160.0Z" fill-rule="nonzero"/><path fill="#3d5314" clip-path="url(#id_0)" d="M528.0 332.0L481.0 332.0L481.0 160.0C481.0 158.89543 481.89542 158.0 483.0 158.0L526.0 158.0C527.10455 158.0 528.0 158.89543 528.0 160.0Z" fill-rule="nonzero"/><path stroke="#85b737" stroke-width="3.0" stroke-linejoin="round" stroke-linecap="round" d="M149.29688 195.53775L143.70312 195.53775L143.70312 194.7565L146.65625 191.47525Q147.3125 190.72525 147.5625 190.27213Q147.8125 189.80338 147.8125 189.30338Q147.8125 188.6315 147.40625 188.20963Q147.01562 187.77213 146.32812 187.77213Q145.53125 187.77213 145.07812 188.24088Q144.625 188.694 144.625 189.52213L143.54688 189.52213Q143.54688 188.33463 144.29688 187.61588Q145.0625 186.8815 146.32812 186.8815Q147.53125 186.8815 148.21875 187.5065Q148.90625 188.1315 148.90625 189.17838Q148.90625 190.42838 147.29688 192.17838L145.01562 194.64713L149.29688 194.64713L149.29688 195.53775ZM150.84375 194.97525Q150.84375 194.694 151.0 194.5065Q151.17188 194.319 151.5 194.319Q151.84375 194.319 152.01562 194.5065Q152.1875 194.694 152.1875 194.97525Q152.1875 195.24088 152.01562 195.42838Q151.84375 195.60025 151.5 195.60025Q151.17188 195.60025 151.0 195.42838Q150.84375 195.24088 150.84375 194.97525ZM158.89062 189.22525Q158.89062 189.86588 158.54688 190.36588Q158.20312 190.86588 157.64062 191.14713Q158.29688 191.42838 158.6875 191.99088Q159.07812 192.53775 159.07812 193.24088Q159.07812 194.33463 158.32812 195.0065Q157.59375 195.66275 156.375 195.66275Q155.14062 195.66275 154.39062 195.0065Q153.65625 194.33463 153.65625 193.24088Q153.65625 192.53775 154.03125 191.99088Q154.40625 191.42838 155.07812 191.14713Q154.51562 190.86588 154.1875 190.36588Q153.85938 189.86588 153.85938 189.22525Q153.85938 188.14713 154.54688 187.52213Q155.23438 186.8815 156.375 186.8815Q157.5 186.8815 158.1875 187.52213Q158.89062 188.14713 158.89062 189.22525ZM158.0 193.20963Q158.0 192.49088 157.54688 192.05338Q157.09375 191.60025 156.35938 191.60025Q155.625 191.60025 155.17188 192.05338Q154.73438 192.49088 154.73438 193.22525Q154.73438 193.944 155.17188 194.36588Q155.60938 194.77213 156.375 194.77213Q157.125 194.77213 157.5625 194.35025Q158.0 193.92838 158.0 193.20963ZM156.375 187.77213Q155.73438 187.77213 155.32812 188.17838Q154.9375 188.569 154.9375 189.2565Q154.9375 189.89713 155.32812 190.30338Q155.71875 190.70963 156.35938 190.70963Q157.01562 190.70963 157.40625 190.30338Q157.79688 189.89713 157.79688 189.2565Q157.79688 188.60025 157.39062 188.194Q156.98438 187.77213 156.375 187.77213ZM162.95312 191.5065L164.35938 189.194L165.625 189.194L163.54688 192.33463L165.6875 195.53775L164.4375 195.53775L162.96875 193.16275L161.5 195.53775L160.23438 195.53775L162.375 192.33463L160.3125 189.194L161.5625 189.194L162.95312 191.5065Z" fill-rule="nonzero"/><path fill="#000000" d="M149.29688 195.53775L143.70312 195.53775L143.70312 194.7565L146.65625 191.47525Q147.3125 190.72525 147.5625 190.27213Q147.8125 189.80338 147.8125 189.30338Q147.8125 188.6315 147.40625 188.20963Q147.01562 187.77213 146.32812 187.77213Q145.53125 187.77213 145.07812 188.24088Q144.625 188.694 144.625 189.52213L143.54688 189.52213Q143.54688 188.33463 144.29688 187.61588Q145.0625 186.8815 146.32812 186.8815Q147.53125 186.8815 148.21875 187.5065Q148.90625 188.1315 148.90625 189.17838Q148.90625 190.42838 147.29688 192.17838L145.01562 194.64713L149.29688 194.64713L149.29688 195.53775ZM150.84375 194.97525Q150.84375 194.694 151.0 194.5065Q151.17188 194.319 151.5 194.319Q151.84375 194.319 152.01562 194.5065Q152.1875 194.694 152.1875 194.97525Q152.1875 195.24088 152.01562 195.42838Q151.84375 195.60025 151.5 195.60025Q151.17188 195.60025 151.0 195.42838Q150.84375 195.24088 150.84375 194.97525ZM158.89062 189.22525Q158.89062 189.86588 158.54688 190.36588Q158.20312 190.86588 157.64062 191.14713Q158.29688 191.42838 158.6875 191.99088Q159.07812 192.53775 159.07812 193.24088Q159.07812 194.33463 158.32812 195.0065Q157.59375 195.66275 156.375 195.66275Q155.14062 195.66275 154.39062 195.0065Q153.65625 194.33463 153.65625 193.24088Q153.65625 192.53775 154.03125 191.99088Q154.40625 191.42838 155.07812 191.14713Q154.51562 190.86588 154.1875 190.36588Q153.85938 189.86588 153.85938 189.22525Q153.85938 188.14713 154.54688 187.52213Q155.23438 186.8815 156.375 186.8815Q157.5 186.8815 158.1875 187.52213Q158.89062 188.14713 158.89062 189.22525ZM158.0 193.20963Q158.0 192.49088 157.54688 192.05338Q157.09375 191.60025 156.35938 191.60025Q155.625 191.60025 155.17188 192.05338Q154.73438 192.49088 154.73438 193.22525Q154.73438 193.944 155.17188 194.36588Q155.60938 194.77213 156.375 194.77213Q157.125 194.77213 157.5625 194.35025Q158.0 193.92838 158.0 193.20963ZM156.375 187.77213Q155.73438 187.77213 155.32812 188.17838Q154.9375 188.569 154.9375 189.2565Q154.9375 189.89713 155.32812 190.30338Q155.71875 190.70963 156.35938 190.70963Q157.01562 190.70963 157.40625 190.30338Q157.79688 189.89713 157.79688 189.2565Q157.79688 188.60025 157.39062 188.194Q156.98438 187.77213 156.375 187.77213ZM162.95312 191.5065L164.35938 189.194L165.625 189.194L163.54688 192.33463L165.6875 195.53775L164.4375 195.53775L162.96875 193.16275L161.5 195.53775L160.23438 195.53775L162.375 192.33463L160.3125 189.194L161.5625 189.194L162.95312 191.5065Z" fill-rule="nonzero"/><path stroke="#85b737" stroke-width="3.0" stroke-linejoin="round" stroke-linecap="round" d="M296.28125 164.7518L297.09375 164.7518Q297.875 164.73618 298.3125 164.34555Q298.75 163.95493 298.75 163.28305Q298.75 161.78305 297.25 161.78305Q296.54688 161.78305 296.125 162.1893Q295.71875 162.59555 295.71875 163.2518L294.625 163.2518Q294.625 162.23618 295.35938 161.5643Q296.10938 160.89243 297.25 160.89243Q298.45312 160.89243 299.14062 161.53305Q299.82812 162.17368 299.82812 163.3143Q299.82812 163.8768 299.46875 164.39243Q299.10938 164.90805 298.48438 165.17368Q299.1875 165.39243 299.5625 165.90805Q299.95312 166.42368 299.95312 167.17368Q299.95312 168.3143 299.20312 169.0018Q298.45312 169.67368 297.25 169.67368Q296.0625 169.67368 295.29688 169.01743Q294.54688 168.36118 294.54688 167.29868L295.64062 167.29868Q295.64062 167.97055 296.07812 168.3768Q296.51562 168.78305 297.26562 168.78305Q298.04688 168.78305 298.45312 168.3768Q298.875 167.95493 298.875 167.1893Q298.875 166.45493 298.42188 166.0643Q297.96875 165.65805 297.09375 165.64243L296.28125 165.64243L296.28125 164.7518ZM301.84375 168.98618Q301.84375 168.70493 302.0 168.51743Q302.17188 168.32993 302.5 168.32993Q302.84375 168.32993 303.01562 168.51743Q303.1875 168.70493 303.1875 168.98618Q303.1875 169.2518 303.01562 169.4393Q302.84375 169.61118 302.5 169.61118Q302.17188 169.61118 302.0 169.4393Q301.84375 169.2518 301.84375 168.98618ZM306.28125 164.7518L307.09375 164.7518Q307.875 164.73618 308.3125 164.34555Q308.75 163.95493 308.75 163.28305Q308.75 161.78305 307.25 161.78305Q306.54688 161.78305 306.125 162.1893Q305.71875 162.59555 305.71875 163.2518L304.625 163.2518Q304.625 162.23618 305.35938 161.5643Q306.10938 160.89243 307.25 160.89243Q308.45312 160.89243 309.14062 161.53305Q309.82812 162.17368 309.82812 163.3143Q309.82812 163.8768 309.46875 164.39243Q309.10938 164.90805 308.48438 165.17368Q309.1875 165.39243 309.5625 165.90805Q309.95312 166.42368 309.95312 167.17368Q309.95312 168.3143 309.20312 169.0018Q308.45312 169.67368 307.25 169.67368Q306.0625 169.67368 305.29688 169.01743Q304.54688 168.36118 304.54688 167.29868L305.64062 167.29868Q305.64062 167.97055 306.07812 168.3768Q306.51562 168.78305 307.26562 168.78305Q308.04688 168.78305 308.45312 168.3768Q308.875 167.95493 308.875 167.1893Q308.875 166.45493 308.42188 166.0643Q307.96875 165.65805 307.09375 165.64243L306.28125 165.64243L306.28125 164.7518ZM313.95312 165.51743L315.35938 163.20493L316.625 163.20493L314.54688 166.34555L316.6875 169.54868L315.4375 169.54868L313.96875 167.17368L312.5 169.54868L311.23438 169.54868L313.375 166.34555L311.3125 163.20493L312.5625 163.20493L313.95312 165.51743Z" fill-rule="nonzero"/><path fill="#000000" d="M296.28125 164.7518L297.09375 164.7518Q297.875 164.73618 298.3125 164.34555Q298.75 163.95493 298.75 163.28305Q298.75 161.78305 297.25 161.78305Q296.54688 161.78305 296.125 162.1893Q295.71875 162.59555 295.71875 163.2518L294.625 163.2518Q294.625 162.23618 295.35938 161.5643Q296.10938 160.89243 297.25 160.89243Q298.45312 160.89243 299.14062 161.53305Q299.82812 162.17368 299.82812 163.3143Q299.82812 163.8768 299.46875 164.39243Q299.10938 164.90805 298.48438 165.17368Q299.1875 165.39243 299.5625 165.90805Q299.95312 166.42368 299.95312 167.17368Q299.95312 168.3143 299.20312 169.0018Q298.45312 169.67368 297.25 169.67368Q296.0625 169.67368 295.29688 169.01743Q294.54688 168.36118 294.54688 167.29868L295.64062 167.29868Q295.64062 167.97055 296.07812 168.3768Q296.51562 168.78305 297.26562 168.78305Q298.04688 168.78305 298.45312 168.3768Q298.875 167.95493 298.875 167.1893Q298.875 166.45493 298.42188 166.0643Q297.96875 165.65805 297.09375 165.64243L296.28125 165.64243L296.28125 164.7518ZM301.84375 168.98618Q301.84375 168.70493 302.0 168.51743Q302.17188 168.32993 302.5 168.32993Q302.84375 168.32993 303.01562 168.51743Q303.1875 168.70493 303.1875 168.98618Q303.1875 169.2518 303.01562 169.4393Q302.84375 169.61118 302.5 169.61118Q302.17188 169.61118 302.0 169.4393Q301.84375 169.2518 301.84375 168.98618ZM306.28125 164.7518L307.09375 164.7518Q307.875 164.73618 308.3125 164.34555Q308.75 163.95493 308.75 163.28305Q308.75 161.78305 307.25 161.78305Q306.54688 161.78305 306.125 162.1893Q305.71875 162.59555 305.71875 163.2518L304.625 163.2518Q304.625 162.23618 305.35938 161.5643Q306.10938 160.89243 307.25 160.89243Q308.45312 160.89243 309.14062 161.53305Q309.82812 162.17368 309.82812 163.3143Q309.82812 163.8768 309.46875 164.39243Q309.10938 164.90805 308.48438 165.17368Q309.1875 165.39243 309.5625 165.90805Q309.95312 166.42368 309.95312 167.17368Q309.95312 168.3143 309.20312 169.0018Q308.45312 169.67368 307.25 169.67368Q306.0625 169.67368 305.29688 169.01743Q304.54688 168.36118 304.54688 167.29868L305.64062 167.29868Q305.64062 167.97055 306.07812 168.3768Q306.51562 168.78305 307.26562 168.78305Q308.04688 168.78305 308.45312 168.3768Q308.875 167.95493 308.875 167.1893Q308.875 166.45493 308.42188 166.0643Q307.96875 165.65805 307.09375 165.64243L306.28125 165.64243L306.28125 164.7518ZM313.95312 165.51743L315.35938 163.20493L316.625 163.20493L314.54688 166.34555L316.6875 169.54868L315.4375 169.54868L313.96875 167.17368L312.5 169.54868L311.23438 169.54868L313.375 166.34555L311.3125 163.20493L312.5625 163.20493L313.95312 165.51743Z" fill-rule="nonzero"/><path stroke="#85b737" stroke-width="3.0" stroke-linejoin="round" stroke-linecap="round" d="M450.29688 209.0724L444.70312 209.0724L444.70312 208.29115L447.65625 205.0099Q448.3125 204.2599 448.5625 203.80678Q448.8125 203.33803 448.8125 202.83803Q448.8125 202.16615 448.40625 201.74428Q448.01562 201.30678 447.32812 201.30678Q446.53125 201.30678 446.07812 201.77553Q445.625 202.22865 445.625 203.05678L444.54688 203.05678Q444.54688 201.86928 445.29688 201.15053Q446.0625 200.41615 447.32812 200.41615Q448.53125 200.41615 449.21875 201.04115Q449.90625 201.66615 449.90625 202.71303Q449.90625 203.96303 448.29688 205.71303L446.01562 208.18178L450.29688 208.18178L450.29688 209.0724ZM451.84375 208.5099Q451.84375 208.22865 452.0 208.04115Q452.17188 207.85365 452.5 207.85365Q452.84375 207.85365 453.01562 208.04115Q453.1875 208.22865 453.1875 208.5099Q453.1875 208.77553 453.01562 208.96303Q452.84375 209.1349 452.5 209.1349Q452.17188 209.1349 452.0 208.96303Q451.84375 208.77553 451.84375 208.5099ZM455.20312 204.79115L455.64062 200.54115L460.01562 200.54115L460.01562 201.54115L456.5625 201.54115L456.29688 203.86928Q456.9375 203.49428 457.73438 203.49428Q458.89062 203.49428 459.57812 204.27553Q460.26562 205.04115 460.26562 206.35365Q460.26562 207.66615 459.54688 208.43178Q458.84375 209.1974 457.5625 209.1974Q456.4375 209.1974 455.71875 208.5724Q455.0 207.93178 454.90625 206.8224L455.92188 206.8224Q456.03125 207.55678 456.45312 207.93178Q456.875 208.30678 457.5625 208.30678Q458.3125 208.30678 458.75 207.79115Q459.1875 207.27553 459.1875 206.36928Q459.1875 205.5099 458.71875 204.99428Q458.25 204.47865 457.46875 204.47865Q456.76562 204.47865 456.35938 204.77553L456.07812 205.0099L455.20312 204.79115ZM463.95312 205.04115L465.35938 202.72865L466.625 202.72865L464.54688 205.86928L466.6875 209.0724L465.4375 209.0724L463.96875 206.6974L462.5 209.0724L461.23438 209.0724L463.375 205.86928L461.3125 202.72865L462.5625 202.72865L463.95312 205.04115Z" fill-rule="nonzero"/><path fill="#000000" d="M450.29688 209.0724L444.70312 209.0724L444.70312 208.29115L447.65625 205.0099Q448.3125 204.2599 448.5625 203.80678Q448.8125 203.33803 448.8125 202.83803Q448.8125 202.16615 448.40625 201.74428Q448.01562 201.30678 447.32812 201.30678Q446.53125 201.30678 446.07812 201.77553Q445.625 202.22865 445.625 203.05678L444.54688 203.05678Q444.54688 201.86928 445.29688 201.15053Q446.0625 200.41615 447.32812 200.41615Q448.53125 200.41615 449.21875 201.04115Q449.90625 201.66615 449.90625 202.71303Q449.90625 203.96303 448.29688 205.71303L446.01562 208.18178L450.29688 208.18178L450.29688 209.0724ZM451.84375 208.5099Q451.84375 208.22865 452.0 208.04115Q452.17188 207.85365 452.5 207.85365Q452.84375 207.85365 453.01562 208.04115Q453.1875 208.22865 453.1875 208.5099Q453.1875 208.77553 453.01562 208.96303Q452.84375 209.1349 452.5 209.1349Q452.17188 209.1349 452.0 208.96303Q451.84375 208.77553 451.84375 208.5099ZM455.20312 204.79115L455.64062 200.54115L460.01562 200.54115L460.01562 201.54115L456.5625 201.54115L456.29688 203.86928Q456.9375 203.49428 457.73438 203.49428Q458.89062 203.49428 459.57812 204.27553Q460.26562 205.04115 460.26562 206.35365Q460.26562 207.66615 459.54688 208.43178Q458.84375 209.1974 457.5625 209.1974Q456.4375 209.1974 455.71875 208.5724Q455.0 207.93178 454.90625 206.8224L455.92188 206.8224Q456.03125 207.55678 456.45312 207.93178Q456.875 208.30678 457.5625 208.30678Q458.3125 208.30678 458.75 207.79115Q459.1875 207.27553 459.1875 206.36928Q459.1875 205.5099 458.71875 204.99428Q458.25 204.47865 457.46875 204.47865Q456.76562 204.47865 456.35938 204.77553L456.07812 205.0099L455.20312 204.79115ZM463.95312 205.04115L465.35938 202.72865L466.625 202.72865L464.54688 205.86928L466.6875 209.0724L465.4375 209.0724L463.96875 206.6974L462.5 209.0724L461.23438 209.0724L463.375 205.86928L461.3125 202.72865L462.5625 202.72865L463.95312 205.04115Z" fill-rule="nonzero"/><path stroke="#3d5314" stroke-width="3.0" stroke-linejoin="round" stroke-linecap="round" d="M349.29688 187.4659L343.70312 187.4659L343.70312 186.68465L346.65625 183.4034Q347.3125 182.6534 347.5625 182.20027Q347.8125 181.73152 347.8125 181.23152Q347.8125 180.55965 347.40625 180.13777Q347.01562 179.70027 346.32812 179.70027Q345.53125 179.70027 345.07812 180.16902Q344.625 180.62215 344.625 181.45027L343.54688 181.45027Q343.54688 180.26277 344.29688 179.54402Q345.0625 178.80965 346.32812 178.80965Q347.53125 178.80965 348.21875 179.43465Q348.90625 180.05965 348.90625 181.10652Q348.90625 182.35652 347.29688 184.10652L345.01562 186.57527L349.29688 186.57527L349.29688 187.4659ZM350.84375 186.9034Q350.84375 186.62215 351.0 186.43465Q351.17188 186.24715 351.5 186.24715Q351.84375 186.24715 352.01562 186.43465Q352.1875 186.62215 352.1875 186.9034Q352.1875 187.16902 352.01562 187.35652Q351.84375 187.5284 351.5 187.5284Q351.17188 187.5284 351.0 187.35652Q350.84375 187.16902 350.84375 186.9034ZM357.85938 183.7159Q357.53125 184.12215 357.04688 184.37215Q356.57812 184.60652 356.01562 184.60652Q355.28125 184.60652 354.73438 184.24715Q354.1875 183.88777 353.89062 183.23152Q353.59375 182.55965 353.59375 181.76277Q353.59375 180.91902 353.90625 180.23152Q354.23438 179.54402 354.82812 179.18465Q355.4375 178.80965 356.23438 178.80965Q357.5 178.80965 358.21875 179.76277Q358.95312 180.7159 358.95312 182.3409L358.95312 182.6534Q358.95312 185.1534 357.96875 186.29402Q356.98438 187.43465 355.0 187.4659L354.78125 187.4659L354.78125 186.55965L355.01562 186.55965Q356.35938 186.5284 357.07812 185.85652Q357.79688 185.18465 357.85938 183.7159ZM356.1875 183.7159Q356.73438 183.7159 357.1875 183.38777Q357.65625 183.04402 357.875 182.55965L357.875 182.12215Q357.875 181.05965 357.40625 180.38777Q356.9375 179.7159 356.23438 179.7159Q355.51562 179.7159 355.07812 180.26277Q354.65625 180.80965 354.65625 181.7159Q354.65625 182.5909 355.0625 183.1534Q355.48438 183.7159 356.1875 183.7159ZM362.95312 183.43465L364.35938 181.12215L365.625 181.12215L363.54688 184.26277L365.6875 187.4659L364.4375 187.4659L362.96875 185.0909L361.5 187.4659L360.23438 187.4659L362.375 184.26277L360.3125 181.12215L361.5625 181.12215L362.95312 183.43465Z" fill-rule="nonzero"/><path fill="#ffffff" d="M349.29688 187.4659L343.70312 187.4659L343.70312 186.68465L346.65625 183.4034Q347.3125 182.6534 347.5625 182.20027Q347.8125 181.73152 347.8125 181.23152Q347.8125 180.55965 347.40625 180.13777Q347.01562 179.70027 346.32812 179.70027Q345.53125 179.70027 345.07812 180.16902Q344.625 180.62215 344.625 181.45027L343.54688 181.45027Q343.54688 180.26277 344.29688 179.54402Q345.0625 178.80965 346.32812 178.80965Q347.53125 178.80965 348.21875 179.43465Q348.90625 180.05965 348.90625 181.10652Q348.90625 182.35652 347.29688 184.10652L345.01562 186.57527L349.29688 186.57527L349.29688 187.4659ZM350.84375 186.9034Q350.84375 186.62215 351.0 186.43465Q351.17188 186.24715 351.5 186.24715Q351.84375 186.24715 352.01562 186.43465Q352.1875 186.62215 352.1875 186.9034Q352.1875 187.16902 352.01562 187.35652Q351.84375 187.5284 351.5 187.5284Q351.17188 187.5284 351.0 187.35652Q350.84375 187.16902 350.84375 186.9034ZM357.85938 183.7159Q357.53125 184.12215 357.04688 184.37215Q356.57812 184.60652 356.01562 184.60652Q355.28125 184.60652 354.73438 184.24715Q354.1875 183.88777 353.89062 183.23152Q353.59375 182.55965 353.59375 181.76277Q353.59375 180.91902 353.90625 180.23152Q354.23438 179.54402 354.82812 179.18465Q355.4375 178.80965 356.23438 178.80965Q357.5 178.80965 358.21875 179.76277Q358.95312 180.7159 358.95312 182.3409L358.95312 182.6534Q358.95312 185.1534 357.96875 186.29402Q356.98438 187.43465 355.0 187.4659L354.78125 187.4659L354.78125 186.55965L355.01562 186.55965Q356.35938 186.5284 357.07812 185.85652Q357.79688 185.18465 357.85938 183.7159ZM356.1875 183.7159Q356.73438 183.7159 357.1875 183.38777Q357.65625 183.04402 357.875 182.55965L357.875 182.12215Q357.875 181.05965 357.40625 180.38777Q356.9375 179.7159 356.23438 179.7159Q355.51562 179.7159 355.07812 180.26277Q354.65625 180.80965 354.65625 181.7159Q354.65625 182.5909 355.0625 183.1534Q355.48438 183.7159 356.1875 183.7159ZM362.95312 183.43465L364.35938 181.12215L365.625 181.12215L363.54688 184.26277L365.6875 187.4659L364.4375 187.4659L362.96875 185.0909L361.5 187.4659L360.23438 187.4659L362.375 184.26277L360.3125 181.12215L361.5625 181.12215L362.95312 183.43465Z" fill-rule="nonzero"/><path stroke="#3d5314" stroke-width="3.0" stroke-linejoin="round" stroke-linecap="round" d="M495.28125 169.6479L496.09375 169.6479Q496.875 169.63228 497.3125 169.24165Q497.75 168.85103 497.75 168.17915Q497.75 166.67915 496.25 166.67915Q495.54688 166.67915 495.125 167.0854Q494.71875 167.49165 494.71875 168.1479L493.625 168.1479Q493.625 167.13228 494.35938 166.4604Q495.10938 165.78853 496.25 165.78853Q497.45312 165.78853 498.14062 166.42915Q498.82812 167.06978 498.82812 168.2104Q498.82812 168.7729 498.46875 169.28853Q498.10938 169.80415 497.48438 170.06978Q498.1875 170.28853 498.5625 170.80415Q498.95312 171.31978 498.95312 172.06978Q498.95312 173.2104 498.20312 173.8979Q497.45312 174.56978 496.25 174.56978Q495.0625 174.56978 494.29688 173.91353Q493.54688 173.25728 493.54688 172.19478L494.64062 172.19478Q494.64062 172.86665 495.07812 173.2729Q495.51562 173.67915 496.26562 173.67915Q497.04688 173.67915 497.45312 173.2729Q497.875 172.85103 497.875 172.0854Q497.875 171.35103 497.42188 170.9604Q496.96875 170.55415 496.09375 170.53853L495.28125 170.53853L495.28125 169.6479ZM500.84375 173.88228Q500.84375 173.60103 501.0 173.41353Q501.17188 173.22603 501.5 173.22603Q501.84375 173.22603 502.01562 173.41353Q502.1875 173.60103 502.1875 173.88228Q502.1875 174.1479 502.01562 174.3354Q501.84375 174.50728 501.5 174.50728Q501.17188 174.50728 501.0 174.3354Q500.84375 174.1479 500.84375 173.88228ZM509.29688 174.44478L503.70312 174.44478L503.70312 173.66353L506.65625 170.38228Q507.3125 169.63228 507.5625 169.17915Q507.8125 168.7104 507.8125 168.2104Q507.8125 167.53853 507.40625 167.11665Q507.01562 166.67915 506.32812 166.67915Q505.53125 166.67915 505.07812 167.1479Q504.625 167.60103 504.625 168.42915L503.54688 168.42915Q503.54688 167.24165 504.29688 166.5229Q505.0625 165.78853 506.32812 165.78853Q507.53125 165.78853 508.21875 166.41353Q508.90625 167.03853 508.90625 168.0854Q508.90625 169.3354 507.29688 171.0854L505.01562 173.55415L509.29688 173.55415L509.29688 174.44478ZM512.9531 170.41353L514.3594 168.10103L515.625 168.10103L513.5469 171.24165L515.6875 174.44478L514.4375 174.44478L512.96875 172.06978L511.5 174.44478L510.23438 174.44478L512.375 171.24165L510.3125 168.10103L511.5625 168.10103L512.9531 170.41353Z" fill-rule="nonzero"/><path fill="#ffffff" d="M495.28125 169.6479L496.09375 169.6479Q496.875 169.63228 497.3125 169.24165Q497.75 168.85103 497.75 168.17915Q497.75 166.67915 496.25 166.67915Q495.54688 166.67915 495.125 167.0854Q494.71875 167.49165 494.71875 168.1479L493.625 168.1479Q493.625 167.13228 494.35938 166.4604Q495.10938 165.78853 496.25 165.78853Q497.45312 165.78853 498.14062 166.42915Q498.82812 167.06978 498.82812 168.2104Q498.82812 168.7729 498.46875 169.28853Q498.10938 169.80415 497.48438 170.06978Q498.1875 170.28853 498.5625 170.80415Q498.95312 171.31978 498.95312 172.06978Q498.95312 173.2104 498.20312 173.8979Q497.45312 174.56978 496.25 174.56978Q495.0625 174.56978 494.29688 173.91353Q493.54688 173.25728 493.54688 172.19478L494.64062 172.19478Q494.64062 172.86665 495.07812 173.2729Q495.51562 173.67915 496.26562 173.67915Q497.04688 173.67915 497.45312 173.2729Q497.875 172.85103 497.875 172.0854Q497.875 171.35103 497.42188 170.9604Q496.96875 170.55415 496.09375 170.53853L495.28125 170.53853L495.28125 169.6479ZM500.84375 173.88228Q500.84375 173.60103 501.0 173.41353Q501.17188 173.22603 501.5 173.22603Q501.84375 173.22603 502.01562 173.41353Q502.1875 173.60103 502.1875 173.88228Q502.1875 174.1479 502.01562 174.3354Q501.84375 174.50728 501.5 174.50728Q501.17188 174.50728 501.0 174.3354Q500.84375 174.1479 500.84375 173.88228ZM509.29688 174.44478L503.70312 174.44478L503.70312 173.66353L506.65625 170.38228Q507.3125 169.63228 507.5625 169.17915Q507.8125 168.7104 507.8125 168.2104Q507.8125 167.53853 507.40625 167.11665Q507.01562 166.67915 506.32812 166.67915Q505.53125 166.67915 505.07812 167.1479Q504.625 167.60103 504.625 168.42915L503.54688 168.42915Q503.54688 167.24165 504.29688 166.5229Q505.0625 165.78853 506.32812 165.78853Q507.53125 165.78853 508.21875 166.41353Q508.90625 167.03853 508.90625 168.0854Q508.90625 169.3354 507.29688 171.0854L505.01562 173.55415L509.29688 173.55415L509.29688 174.44478ZM512.9531 170.41353L514.3594 168.10103L515.625 168.10103L513.5469 171.24165L515.6875 174.44478L514.4375 174.44478L512.96875 172.06978L511.5 174.44478L510.23438 174.44478L512.375 171.24165L510.3125 168.10103L511.5625 168.10103L512.9531 170.41353Z" fill-rule="nonzero"/><path fill="#000000" d="M26.784388 319.5698L26.690638 318.5073Q27.346888 318.42917 27.753138 318.14792Q28.159388 317.86667 28.425013 317.28854Q28.675013 316.6948 28.675013 315.96042Q28.675013 315.3198 28.487513 314.8198Q28.284388 314.3198 27.956263 314.08542Q27.612513 313.83542 27.221888 313.83542Q26.815638 313.83542 26.518763 314.0698Q26.206263 314.30417 26.003138 314.83542Q25.862513 315.1948 25.581263 316.3823Q25.300013 317.55417 25.050013 318.02292Q24.721888 318.64792 24.253138 318.9448Q23.768763 319.24167 23.175013 319.24167Q22.534388 319.24167 21.971888 318.8823Q21.393763 318.5073 21.112513 317.80417Q20.815638 317.08542 20.815638 316.22604Q20.815638 315.27292 21.128138 314.53854Q21.425013 313.80417 22.034388 313.41354Q22.628138 313.02292 23.378138 312.99167L23.456263 314.08542Q22.643763 314.17917 22.237513 314.6948Q21.815638 315.1948 21.815638 316.17917Q21.815638 317.21042 22.190638 317.67917Q22.565638 318.14792 23.096888 318.14792Q23.565638 318.14792 23.862513 317.8198Q24.159388 317.49167 24.471888 316.11667Q24.784388 314.72604 25.018763 314.21042Q25.378138 313.46042 25.909388 313.10104Q26.425013 312.74167 27.128138 312.74167Q27.815638 312.74167 28.425013 313.1323Q29.018763 313.52292 29.362513 314.2573Q29.690638 314.99167 29.690638 315.91354Q29.690638 317.08542 29.362513 317.8823Q29.018763 318.66354 28.331263 319.11667Q27.643763 319.55417 26.784388 319.5698ZM31.940638 311.3198L23.331263 311.3198L23.331263 310.36667L24.128138 310.36667Q23.659388 310.02292 23.425013 309.60104Q23.190638 309.16354 23.190638 308.55417Q23.190638 307.7573 23.596888 307.14792Q24.003138 306.53854 24.753138 306.24167Q25.503138 305.92917 26.393763 305.92917Q27.346888 305.92917 28.112513 306.27292Q28.878138 306.60104 29.284388 307.2573Q29.690638 307.91354 29.690638 308.6323Q29.690638 309.16354 29.471888 309.58542Q29.237513 310.0073 28.909388 310.27292L31.940638 310.27292L31.940638 311.3198ZM26.471888 310.36667Q27.675013 310.36667 28.253138 309.8823Q28.815638 309.39792 28.815638 308.71042Q28.815638 308.0073 28.221888 307.5073Q27.628138 307.0073 26.378138 307.0073Q25.190638 307.0073 24.612513 307.49167Q24.018763 307.97604 24.018763 308.66354Q24.018763 309.33542 24.643763 309.85104Q25.268763 310.36667 26.471888 310.36667ZM27.550013 300.0698L27.675013 298.97604Q28.628138 299.22604 29.159388 299.92917Q29.690638 300.6323 29.690638 301.71042Q29.690638 303.0698 28.846888 303.8823Q28.003138 304.67917 26.487513 304.67917Q24.925013 304.67917 24.065638 303.86667Q23.190638 303.05417 23.190638 301.77292Q23.190638 300.52292 24.034388 299.74167Q24.878138 298.9448 26.425013 298.9448Q26.518763 298.9448 26.706263 298.9448L26.706263 303.58542Q27.737513 303.52292 28.284388 303.0073Q28.815638 302.49167 28.815638 301.71042Q28.815638 301.1323 28.518763 300.72604Q28.206263 300.30417 27.550013 300.0698ZM25.846888 303.52292L25.846888 300.05417Q25.050013 300.11667 24.659388 300.4448Q24.050013 300.96042 24.050013 301.7573Q24.050013 302.49167 24.534388 302.99167Q25.018763 303.47604 25.846888 303.52292ZM27.550013 293.0698L27.675013 291.97604Q28.628138 292.22604 29.159388 292.92917Q29.690638 293.6323 29.690638 294.71042Q29.690638 296.0698 28.846888 296.8823Q28.003138 297.67917 26.487513 297.67917Q24.925013 297.67917 24.065638 296.86667Q23.190638 296.05417 23.190638 294.77292Q23.190638 293.52292 24.034388 292.74167Q24.878138 291.9448 26.425013 291.9448Q26.518763 291.9448 26.706263 291.9448L26.706263 296.58542Q27.737513 296.52292 28.284388 296.0073Q28.815638 295.49167 28.815638 294.71042Q28.815638 294.1323 28.518763 293.72604Q28.206263 293.30417 27.550013 293.0698ZM25.846888 296.52292L25.846888 293.05417Q25.050013 293.11667 24.659388 293.4448Q24.050013 293.96042 24.050013 294.7573Q24.050013 295.49167 24.534388 295.99167Q25.018763 296.47604 25.846888 296.52292ZM29.550013 286.28854L28.768763 286.28854Q29.690638 286.8823 29.690638 288.02292Q29.690638 288.77292 29.284388 289.39792Q28.862513 290.02292 28.128138 290.36667Q27.393763 290.71042 26.440638 290.71042Q25.518763 290.71042 24.753138 290.39792Q23.987513 290.08542 23.596888 289.46042Q23.190638 288.83542 23.190638 288.0698Q23.190638 287.5073 23.425013 287.0698Q23.659388 286.6323 24.034388 286.35104L20.956263 286.35104L20.956263 285.30417L29.550013 285.30417L29.550013 286.28854ZM26.440638 289.61667Q27.643763 289.61667 28.237513 289.11667Q28.815638 288.61667 28.815638 287.92917Q28.815638 287.24167 28.253138 286.7573Q27.690638 286.27292 26.534388 286.27292Q25.253138 286.27292 24.659388 286.77292Q24.065638 287.2573 24.065638 287.97604Q24.065638 288.67917 24.643763 289.14792Q25.206263 289.61667 26.440638 289.61667ZM29.550013 279.24167L28.628138 279.24167Q29.690638 279.97604 29.690638 281.22604Q29.690638 281.77292 29.487513 282.2573Q29.268763 282.72604 28.956263 282.96042Q28.628138 283.1948 28.159388 283.28854Q27.862513 283.35104 27.175013 283.35104L23.331263 283.35104L23.331263 282.28854L26.784388 282.28854Q27.596888 282.28854 27.893763 282.22604Q28.300013 282.1323 28.550013 281.8198Q28.784388 281.49167 28.784388 281.0073Q28.784388 280.53854 28.550013 280.1323Q28.300013 279.71042 27.878138 279.53854Q27.456263 279.35104 26.659388 279.35104L23.331263 279.35104L23.331263 278.30417L29.550013 278.30417L29.550013 279.24167ZM31.940638 276.3198L23.331263 276.3198L23.331263 275.36667L24.128138 275.36667Q23.659388 275.02292 23.425013 274.60104Q23.190638 274.16354 23.190638 273.55417Q23.190638 272.7573 23.596888 272.14792Q24.003138 271.53854 24.753138 271.24167Q25.503138 270.92917 26.393763 270.92917Q27.346888 270.92917 28.112513 271.27292Q28.878138 271.60104 29.284388 272.2573Q29.690638 272.91354 29.690638 273.6323Q29.690638 274.16354 29.471888 274.58542Q29.237513 275.0073 28.909388 275.27292L31.940638 275.27292L31.940638 276.3198ZM26.471888 275.36667Q27.675013 275.36667 28.253138 274.8823Q28.815638 274.39792 28.815638 273.71042Q28.815638 273.0073 28.221888 272.5073Q27.628138 272.0073 26.378138 272.0073Q25.190638 272.0073 24.612513 272.49167Q24.018763 272.97604 24.018763 273.66354Q24.018763 274.33542 24.643763 274.85104Q25.268763 275.36667 26.471888 275.36667ZM27.268763 262.2573L27.409388 261.22604Q28.471888 261.39792 29.081263 262.10104Q29.690638 262.80417 29.690638 263.8198Q29.690638 265.10104 28.862513 265.8823Q28.018763 266.64792 26.456263 266.64792Q25.456263 266.64792 24.706263 266.3198Q23.940638 265.97604 23.565638 265.30417Q23.190638 264.61667 23.190638 263.80417Q23.190638 262.80417 23.706263 262.16354Q24.206263 261.5073 25.159388 261.3198L25.315638 262.35104Q24.690638 262.49167 24.378138 262.86667Q24.050013 263.24167 24.050013 263.77292Q24.050013 264.5698 24.628138 265.0698Q25.190638 265.5698 26.425013 265.5698Q27.690638 265.5698 28.253138 265.08542Q28.815638 264.60104 28.815638 263.83542Q28.815638 263.21042 28.440638 262.80417Q28.065638 262.3823 27.268763 262.2573ZM26.440638 260.71042Q24.706263 260.71042 23.878138 259.7573Q23.190638 258.96042 23.190638 257.80417Q23.190638 256.52292 24.034388 255.71042Q24.862513 254.8823 26.346888 254.8823Q27.550013 254.8823 28.237513 255.24167Q28.925013 255.60104 29.315638 256.30417Q29.690638 256.99167 29.690638 257.80417Q29.690638 259.10104 28.862513 259.91354Q28.018763 260.71042 26.440638 260.71042ZM26.440638 259.6323Q27.628138 259.6323 28.221888 259.11667Q28.815638 258.58542 28.815638 257.80417Q28.815638 257.0073 28.221888 256.49167Q27.628138 255.97604 26.409388 255.97604Q25.253138 255.97604 24.659388 256.5073Q24.065638 257.02292 24.065638 257.80417Q24.065638 258.58542 24.659388 259.11667Q25.237513 259.6323 26.440638 259.6323ZM29.550013 253.3198L23.331263 253.3198L23.331263 252.3823L24.206263 252.3823Q23.737513 252.08542 23.471888 251.60104Q23.190638 251.11667 23.190638 250.49167Q23.190638 249.80417 23.471888 249.36667Q23.753138 248.91354 24.268763 248.74167Q23.190638 247.99167 23.190638 246.8198Q23.190638 245.8823 23.706263 245.39792Q24.206263 244.89792 25.284388 244.89792L29.550013 244.89792L29.550013 245.9448L25.628138 245.9448Q25.003138 245.9448 24.721888 246.05417Q24.440638 246.14792 24.268763 246.41354Q24.096888 246.67917 24.096888 247.05417Q24.096888 247.71042 24.534388 248.14792Q24.971888 248.5698 25.940638 248.5698L29.550013 248.5698L29.550013 249.6323L25.503138 249.6323Q24.800013 249.6323 24.456263 249.89792Q24.096888 250.14792 24.096888 250.72604Q24.096888 251.17917 24.331263 251.55417Q24.565638 251.92917 25.018763 252.10104Q25.471888 252.27292 26.315638 252.27292L29.550013 252.27292L29.550013 253.3198ZM31.940638 242.3198L23.331263 242.3198L23.331263 241.36667L24.128138 241.36667Q23.659388 241.02292 23.425013 240.60104Q23.190638 240.16354 23.190638 239.55417Q23.190638 238.7573 23.596888 238.14792Q24.003138 237.53854 24.753138 237.24167Q25.503138 236.92917 26.393763 236.92917Q27.346888 236.92917 28.112513 237.27292Q28.878138 237.60104 29.284388 238.2573Q29.690638 238.91354 29.690638 239.6323Q29.690638 240.16354 29.471888 240.58542Q29.237513 241.0073 28.909388 241.27292L31.940638 241.27292L31.940638 242.3198ZM26.471888 241.36667Q27.675013 241.36667 28.253138 240.8823Q28.815638 240.39792 28.815638 239.71042Q28.815638 239.0073 28.221888 238.5073Q27.628138 238.0073 26.378138 238.0073Q25.190638 238.0073 24.612513 238.49167Q24.018763 238.97604 24.018763 239.66354Q24.018763 240.33542 24.643763 240.85104Q25.268763 241.36667 26.471888 241.36667ZM28.784388 231.2573Q29.284388 231.85104 29.487513 232.39792Q29.690638 232.92917 29.690638 233.55417Q29.690638 234.58542 29.190638 235.1323Q28.690638 235.67917 27.909388 235.67917Q27.456263 235.67917 27.081263 235.47604Q26.690638 235.27292 26.471888 234.92917Q26.237513 234.58542 26.128138 234.16354Q26.034388 233.86667 25.956263 233.22604Q25.815638 231.96042 25.596888 231.35104Q25.378138 231.35104 25.331263 231.35104Q24.675013 231.35104 24.409388 231.64792Q24.065638 232.05417 24.065638 232.85104Q24.065638 233.58542 24.331263 233.9448Q24.581263 234.30417 25.237513 234.47604L25.096888 235.5073Q24.440638 235.36667 24.034388 235.03854Q23.628138 234.71042 23.409388 234.10104Q23.190638 233.49167 23.190638 232.6948Q23.190638 231.89792 23.378138 231.39792Q23.565638 230.89792 23.846888 230.66354Q24.128138 230.42917 24.565638 230.33542Q24.831263 230.28854 25.534388 230.28854L26.940638 230.28854Q28.409388 230.28854 28.800013 230.22604Q29.190638 230.14792 29.550013 229.9448L29.550013 231.05417Q29.221888 231.21042 28.784388 231.2573ZM26.425013 231.35104Q26.659388 231.92917 26.831263 233.0698Q26.925013 233.72604 27.050013 233.99167Q27.159388 234.2573 27.378138 234.41354Q27.596888 234.55417 27.878138 234.55417Q28.300013 234.55417 28.581263 234.24167Q28.862513 233.91354 28.862513 233.30417Q28.862513 232.6948 28.596888 232.22604Q28.331263 231.74167 27.862513 231.52292Q27.503138 231.35104 26.815638 231.35104L26.425013 231.35104ZM29.550013 228.33542L23.331263 228.33542L23.331263 227.3823L24.268763 227.3823Q23.612513 227.02292 23.409388 226.72604Q23.190638 226.41354 23.190638 226.03854Q23.190638 225.5073 23.518763 224.96042L24.503138 225.3198Q24.268763 225.71042 24.268763 226.08542Q24.268763 226.4448 24.487513 226.72604Q24.690638 226.99167 25.065638 227.10104Q25.628138 227.28854 26.284388 227.28854L29.550013 227.28854L29.550013 228.33542ZM27.550013 220.0698L27.675013 218.97604Q28.628138 219.22604 29.159388 219.92917Q29.690638 220.6323 29.690638 221.71042Q29.690638 223.0698 28.846888 223.8823Q28.003138 224.67917 26.487513 224.67917Q24.925013 224.67917 24.065638 223.86667Q23.190638 223.05417 23.190638 221.77292Q23.190638 220.52292 24.034388 219.74167Q24.878138 218.9448 26.425013 218.9448Q26.518763 218.9448 26.706263 218.9448L26.706263 223.58542Q27.737513 223.52292 28.284388 223.0073Q28.815638 222.49167 28.815638 221.71042Q28.815638 221.1323 28.518763 220.72604Q28.206263 220.30417 27.550013 220.0698ZM25.846888 223.52292L25.846888 220.05417Q25.050013 220.11667 24.659388 220.4448Q24.050013 220.96042 24.050013 221.7573Q24.050013 222.49167 24.534388 222.99167Q25.018763 223.47604 25.846888 223.52292ZM29.550013 213.28854L28.768763 213.28854Q29.690638 213.8823 29.690638 215.02292Q29.690638 215.77292 29.284388 216.39792Q28.862513 217.02292 28.128138 217.36667Q27.393763 217.71042 26.440638 217.71042Q25.518763 217.71042 24.753138 217.39792Q23.987513 217.08542 23.596888 216.46042Q23.190638 215.83542 23.190638 215.0698Q23.190638 214.5073 23.425013 214.0698Q23.659388 213.6323 24.034388 213.35104L20.956263 213.35104L20.956263 212.30417L29.550013 212.30417L29.550013 213.28854ZM26.440638 216.61667Q27.643763 216.61667 28.237513 216.11667Q28.815638 215.61667 28.815638 214.92917Q28.815638 214.24167 28.253138 213.7573Q27.690638 213.27292 26.534388 213.27292Q25.253138 213.27292 24.659388 213.77292Q24.065638 214.2573 24.065638 214.97604Q24.065638 215.67917 24.643763 216.14792Q25.206263 216.61667 26.440638 216.61667ZM28.612513 205.02292L29.534388 204.86667Q29.628138 205.3198 29.628138 205.66354Q29.628138 206.24167 29.456263 206.55417Q29.268763 206.86667 28.971888 207.0073Q28.675013 207.1323 27.721888 207.1323L24.143763 207.1323L24.143763 207.89792L23.331263 207.89792L23.331263 207.1323L21.784388 207.1323L21.159388 206.08542L23.331263 206.08542L23.331263 205.02292L24.143763 205.02292L24.143763 206.08542L27.784388 206.08542Q28.237513 206.08542 28.362513 206.03854Q28.487513 205.97604 28.565638 205.85104Q28.643763 205.72604 28.643763 205.49167Q28.643763 205.30417 28.612513 205.02292ZM26.440638 204.71042Q24.706263 204.71042 23.878138 203.7573Q23.190638 202.96042 23.190638 201.80417Q23.190638 200.52292 24.034388 199.71042Q24.862513 198.8823 26.346888 198.8823Q27.550013 198.8823 28.237513 199.24167Q28.925013 199.60104 29.315638 200.30417Q29.690638 200.99167 29.690638 201.80417Q29.690638 203.10104 28.862513 203.91354Q28.018763 204.71042 26.440638 204.71042ZM26.440638 203.6323Q27.628138 203.6323 28.221888 203.11667Q28.815638 202.58542 28.815638 201.80417Q28.815638 201.0073 28.221888 200.49167Q27.628138 199.97604 26.409388 199.97604Q25.253138 199.97604 24.659388 200.5073Q24.065638 201.02292 24.065638 201.80417Q24.065638 202.58542 24.659388 203.11667Q25.237513 203.6323 26.440638 203.6323ZM29.550013 194.0698L24.143763 194.0698L24.143763 195.0073L23.331263 195.0073L23.331263 194.0698L22.659388 194.0698Q22.034388 194.0698 21.737513 193.96042Q21.315638 193.80417 21.065638 193.42917Q20.815638 193.03854 20.815638 192.35104Q20.815638 191.89792 20.925013 191.36667L21.831263 191.52292Q21.784388 191.85104 21.784388 192.14792Q21.784388 192.6323 21.987513 192.83542Q22.190638 193.02292 22.753138 193.02292L23.331263 193.02292L23.331263 191.80417L24.143763 191.80417L24.143763 193.02292L29.550013 193.02292L29.550013 194.0698ZM29.550013 191.33542L23.331263 191.33542L23.331263 190.3823L24.268763 190.3823Q23.612513 190.02292 23.409388 189.72604Q23.190638 189.41354 23.190638 189.03854Q23.190638 188.5073 23.518763 187.96042L24.503138 188.3198Q24.268763 188.71042 24.268763 189.08542Q24.268763 189.4448 24.487513 189.72604Q24.690638 189.99167 25.065638 190.10104Q25.628138 190.28854 26.284388 190.28854L29.550013 190.28854L29.550013 191.33542ZM28.784388 183.2573Q29.284388 183.85104 29.487513 184.39792Q29.690638 184.92917 29.690638 185.55417Q29.690638 186.58542 29.190638 187.1323Q28.690638 187.67917 27.909388 187.67917Q27.456263 187.67917 27.081263 187.47604Q26.690638 187.27292 26.471888 186.92917Q26.237513 186.58542 26.128138 186.16354Q26.034388 185.86667 25.956263 185.22604Q25.815638 183.96042 25.596888 183.35104Q25.378138 183.35104 25.331263 183.35104Q24.675013 183.35104 24.409388 183.64792Q24.065638 184.05417 24.065638 184.85104Q24.065638 185.58542 24.331263 185.9448Q24.581263 186.30417 25.237513 186.47604L25.096888 187.5073Q24.440638 187.36667 24.034388 187.03854Q23.628138 186.71042 23.409388 186.10104Q23.190638 185.49167 23.190638 184.6948Q23.190638 183.89792 23.378138 183.39792Q23.565638 182.89792 23.846888 182.66354Q24.128138 182.42917 24.565638 182.33542Q24.831263 182.28854 25.534388 182.28854L26.940638 182.28854Q28.409388 182.28854 28.800013 182.22604Q29.190638 182.14792 29.550013 181.9448L29.550013 183.05417Q29.221888 183.21042 28.784388 183.2573ZM26.425013 183.35104Q26.659388 183.92917 26.831263 185.0698Q26.925013 185.72604 27.050013 185.99167Q27.159388 186.2573 27.378138 186.41354Q27.596888 186.55417 27.878138 186.55417Q28.300013 186.55417 28.581263 186.24167Q28.862513 185.91354 28.862513 185.30417Q28.862513 184.6948 28.596888 184.22604Q28.331263 183.74167 27.862513 183.52292Q27.503138 183.35104 26.815638 183.35104L26.425013 183.35104ZM29.550013 180.3198L23.331263 180.3198L23.331263 179.3823L24.206263 179.3823Q23.737513 179.08542 23.471888 178.60104Q23.190638 178.11667 23.190638 177.49167Q23.190638 176.80417 23.471888 176.36667Q23.753138 175.91354 24.268763 175.74167Q23.190638 174.99167 23.190638 173.8198Q23.190638 172.8823 23.706263 172.39792Q24.206263 171.89792 25.284388 171.89792L29.550013 171.89792L29.550013 172.9448L25.628138 172.9448Q25.003138 172.9448 24.721888 173.05417Q24.440638 173.14792 24.268763 173.41354Q24.096888 173.67917 24.096888 174.05417Q24.096888 174.71042 24.534388 175.14792Q24.971888 175.5698 25.940638 175.5698L29.550013 175.5698L29.550013 176.6323L25.503138 176.6323Q24.800013 176.6323 24.456263 176.89792Q24.096888 177.14792 24.096888 177.72604Q24.096888 178.17917 24.331263 178.55417Q24.565638 178.92917 25.018763 179.10104Q25.471888 179.27292 26.315638 179.27292L29.550013 179.27292L29.550013 180.3198ZM27.550013 165.0698L27.675013 163.97604Q28.628138 164.22604 29.159388 164.92917Q29.690638 165.6323 29.690638 166.71042Q29.690638 168.0698 28.846888 168.8823Q28.003138 169.67917 26.487513 169.67917Q24.925013 169.67917 24.065638 168.86667Q23.190638 168.05417 23.190638 166.77292Q23.190638 165.52292 24.034388 164.74167Q24.878138 163.9448 26.425013 163.9448Q26.518763 163.9448 26.706263 163.9448L26.706263 168.58542Q27.737513 168.52292 28.284388 168.0073Q28.815638 167.49167 28.815638 166.71042Q28.815638 166.1323 28.518763 165.72604Q28.206263 165.30417 27.550013 165.0698ZM25.846888 168.52292L25.846888 165.05417Q25.050013 165.11667 24.659388 165.4448Q24.050013 165.96042 24.050013 166.7573Q24.050013 167.49167 24.534388 167.99167Q25.018763 168.47604 25.846888 168.52292ZM29.550013 161.17917L23.331263 163.08542L23.331263 161.99167L26.925013 161.0073L28.253138 160.6323Q28.159388 160.60104 26.971888 160.30417L23.331263 159.3198L23.331263 158.24167L26.940638 157.30417L28.128138 156.99167L26.925013 156.6323L23.331263 155.5698L23.331263 154.53854L29.550013 156.49167L29.550013 157.58542L25.815638 158.5698L24.768763 158.8198L29.550013 160.0698L29.550013 161.17917ZM26.440638 153.71042Q24.706263 153.71042 23.878138 152.7573Q23.190638 151.96042 23.190638 150.80417Q23.190638 149.52292 24.034388 148.71042Q24.862513 147.8823 26.346888 147.8823Q27.550013 147.8823 28.237513 148.24167Q28.925013 148.60104 29.315638 149.30417Q29.690638 149.99167 29.690638 150.80417Q29.690638 152.10104 28.862513 152.91354Q28.018763 153.71042 26.440638 153.71042ZM26.440638 152.6323Q27.628138 152.6323 28.221888 152.11667Q28.815638 151.58542 28.815638 150.80417Q28.815638 150.0073 28.221888 149.49167Q27.628138 148.97604 26.409388 148.97604Q25.253138 148.97604 24.659388 149.5073Q24.065638 150.02292 24.065638 150.80417Q24.065638 151.58542 24.659388 152.11667Q25.237513 152.6323 26.440638 152.6323ZM29.550013 146.33542L23.331263 146.33542L23.331263 145.3823L24.268763 145.3823Q23.612513 145.02292 23.409388 144.72604Q23.190638 144.41354 23.190638 144.03854Q23.190638 143.5073 23.518763 142.96042L24.503138 143.3198Q24.268763 143.71042 24.268763 144.08542Q24.268763 144.4448 24.487513 144.72604Q24.690638 144.99167 25.065638 145.10104Q25.628138 145.28854 26.284388 145.28854L29.550013 145.28854L29.550013 146.33542ZM29.550013 142.3198L20.956263 142.3198L20.956263 141.2573L25.862513 141.2573L23.331263 138.77292L23.331263 137.39792L25.628138 139.78854L29.550013 137.16354L29.550013 138.46042L26.362513 140.52292L27.081263 141.2573L29.550013 141.2573L29.550013 142.3198Z" fill-rule="nonzero"/><path fill="#000000" d="M60.05 332.21564Q60.05 330.6844 60.3625 329.7625Q60.675 328.825 61.284374 328.325Q61.909374 327.825 62.846874 327.825Q63.534374 327.825 64.05 328.10626Q64.58125 328.3875 64.925 328.91876Q65.26875 329.4344 65.45625 330.1844Q65.64375 330.9344 65.64375 332.21564Q65.64375 333.73126 65.33125 334.65314Q65.03438 335.575 64.40938 336.09064Q63.8 336.59064 62.846874 336.59064Q61.6125 336.59064 60.89375 335.7Q60.05 334.6375 60.05 332.21564ZM61.128124 332.21564Q61.128124 334.325 61.628124 335.02814Q62.128124 335.73126 62.846874 335.73126Q63.58125 335.73126 64.06563 335.02814Q64.56563 334.325 64.56563 332.21564Q64.56563 330.09064 64.06563 329.40314Q63.58125 328.7 62.83125 328.7Q62.1125 328.7 61.675 329.3094Q61.128124 330.09064 61.128124 332.21564ZM66.64375 336.45L68.90938 333.21564L66.81563 330.23126L68.12813 330.23126L69.08125 331.6844Q69.34688 332.10626 69.51875 332.3875Q69.76875 331.9969 69.9875 331.7L71.03438 330.23126L72.3 330.23126L70.14375 333.15314L72.45625 336.45L71.175 336.45L69.89375 334.5125L69.55 333.9969L67.90938 336.45L66.64375 336.45Z" fill-rule="nonzero"/><path fill="#000000" d="M64.01875 281.28333L62.971874 281.28333L62.971874 274.56458Q62.58125 274.92395 61.95625 275.29895Q61.346874 275.65833 60.8625 275.8302L60.8625 274.81458Q61.7375 274.3927 62.39375 273.81458Q63.065624 273.22083 63.346874 272.65833L64.01875 272.65833L64.01875 281.28333ZM66.64375 281.28333L68.90938 278.04895L66.81563 275.06458L68.12813 275.06458L69.08125 276.5177Q69.34688 276.93958 69.51875 277.22083Q69.76875 276.8302 69.9875 276.53333L71.03438 275.06458L72.3 275.06458L70.14375 277.98645L72.45625 281.28333L71.175 281.28333L69.89375 279.34583L69.55 278.8302L67.90938 281.28333L66.64375 281.28333Z" fill-rule="nonzero"/><path fill="#000000" d="M65.59688 225.10104L65.59688 226.11667L59.909374 226.11667Q59.909374 225.74167 60.034374 225.3823Q60.253124 224.80417 60.721874 224.24167Q61.20625 223.67917 62.1125 222.9448Q63.51875 221.78854 64.00313 221.11667Q64.50313 220.4448 64.50313 219.85104Q64.50313 219.22604 64.05 218.80417Q63.596874 218.36667 62.878124 218.36667Q62.1125 218.36667 61.659374 218.8198Q61.20625 219.27292 61.190624 220.08542L60.1125 219.97604Q60.221874 218.7573 60.940624 218.1323Q61.675 217.49167 62.909374 217.49167Q64.14375 217.49167 64.8625 218.17917Q65.58125 218.86667 65.58125 219.8823Q65.58125 220.39792 65.3625 220.89792Q65.15938 221.3823 64.65938 221.9448Q64.175 222.49167 63.05 223.4448Q62.096874 224.24167 61.815624 224.53854Q61.55 224.8198 61.378124 225.10104L65.59688 225.10104ZM66.64375 226.11667L68.90938 222.8823L66.81563 219.89792L68.12813 219.89792L69.08125 221.35104Q69.34688 221.77292 69.51875 222.05417Q69.76875 221.66354 69.9875 221.36667L71.03438 219.89792L72.3 219.89792L70.14375 222.8198L72.45625 226.11667L71.175 226.11667L69.89375 224.17917L69.55 223.66354L67.90938 226.11667L66.64375 226.11667Z" fill-rule="nonzero"/><path fill="#000000" d="M60.05 168.68437L61.1125 168.54375Q61.284374 169.43437 61.721874 169.84062Q62.159374 170.23125 62.784374 170.23125Q63.534374 170.23125 64.05 169.71562Q64.56563 169.2 64.56563 168.43437Q64.56563 167.71562 64.08125 167.24687Q63.6125 166.7625 62.878124 166.7625Q62.58125 166.7625 62.128124 166.8875L62.253124 165.95Q62.3625 165.96562 62.425 165.96562Q63.096874 165.96562 63.628124 165.62187Q64.175 165.2625 64.175 164.52812Q64.175 163.95 63.784374 163.575Q63.39375 163.18437 62.76875 163.18437Q62.159374 163.18437 61.7375 163.575Q61.33125 163.96562 61.221874 164.73125L60.159374 164.54375Q60.346874 163.49687 61.034374 162.91875Q61.721874 162.325 62.7375 162.325Q63.440624 162.325 64.03438 162.6375Q64.62813 162.93437 64.94063 163.45Q65.25313 163.96562 65.25313 164.55937Q65.25313 165.10625 64.95625 165.575Q64.65938 166.02812 64.08125 166.29375Q64.83125 166.46562 65.25313 167.02812Q65.675 167.575 65.675 168.41875Q65.675 169.54375 64.84688 170.325Q64.03438 171.10625 62.784374 171.10625Q61.659374 171.10625 60.909374 170.43437Q60.159374 169.74687 60.05 168.68437ZM66.64375 170.95L68.90938 167.71562L66.81563 164.73125L68.12813 164.73125L69.08125 166.18437Q69.34688 166.60625 69.51875 166.8875Q69.76875 166.49687 69.9875 166.2L71.03438 164.73125L72.3 164.73125L70.14375 167.65312L72.45625 170.95L71.175 170.95L69.89375 169.0125L69.55 168.49687L67.90938 170.95L66.64375 170.95Z" fill-rule="nonzero"/><path fill="#000000" d="M63.425 115.78333L63.425 113.72083L59.70625 113.72083L59.70625 112.75208L63.628124 107.18958L64.4875 107.18958L64.4875 112.75208L65.64375 112.75208L65.64375 113.72083L64.4875 113.72083L64.4875 115.78333L63.425 115.78333ZM63.425 112.75208L63.425 108.89271L60.7375 112.75208L63.425 112.75208ZM66.64375 115.78333L68.90938 112.54896L66.81563 109.56458L68.12813 109.56458L69.08125 111.01771Q69.34688 111.43958 69.51875 111.72083Q69.76875 111.33021 69.9875 111.03333L71.03438 109.56458L72.3 109.56458L70.14375 112.48646L72.45625 115.78333L71.175 115.78333L69.89375 113.84583L69.55 113.33021L67.90938 115.78333L66.64375 115.78333Z" fill-rule="nonzero"/><path fill="#000000" d="M168.95709 349.45L168.95709 347.3875L165.23834 347.3875L165.23834 346.41876L169.16022 340.85626L170.01959 340.85626L170.01959 346.41876L171.17584 346.41876L171.17584 347.3875L170.01959 347.3875L170.01959 349.45L168.95709 349.45ZM168.95709 346.41876L168.95709 342.5594L166.26959 346.41876L168.95709 346.41876ZM172.58209 345.21564Q172.58209 343.6844 172.89459 342.7625Q173.20709 341.825 173.81647 341.325Q174.44147 340.825 175.37897 340.825Q176.06647 340.825 176.58209 341.10626Q177.11334 341.3875 177.45709 341.91876Q177.80084 342.4344 177.98834 343.1844Q178.17584 343.9344 178.17584 345.21564Q178.17584 346.73126 177.86334 347.65314Q177.56647 348.575 176.94147 349.09064Q176.33209 349.59064 175.37897 349.59064Q174.14459 349.59064 173.42584 348.7Q172.58209 347.6375 172.58209 345.21564ZM173.66022 345.21564Q173.66022 347.325 174.16022 348.02814Q174.66022 348.73126 175.37897 348.73126Q176.11334 348.73126 176.59772 348.02814Q177.09772 347.325 177.09772 345.21564Q177.09772 343.09064 176.59772 342.40314Q176.11334 341.7 175.36334 341.7Q174.64459 341.7 174.20709 342.3094Q173.66022 343.09064 173.66022 345.21564ZM179.73834 347.46564L180.75397 347.3719Q180.87897 348.09064 181.23834 348.41876Q181.61334 348.73126 182.17584 348.73126Q182.66022 348.73126 183.01959 348.5125Q183.39459 348.27814 183.62897 347.91876Q183.86334 347.54376 184.01959 346.91876Q184.17584 346.27814 184.17584 345.6219Q184.17584 345.54376 184.17584 345.40314Q183.86334 345.90314 183.31647 346.23126Q182.76959 346.54376 182.12897 346.54376Q181.05084 346.54376 180.31647 345.77814Q179.58209 344.9969 179.58209 343.73126Q179.58209 342.41876 180.34772 341.6219Q181.12897 340.825 182.28522 340.825Q183.11334 340.825 183.80084 341.27814Q184.50397 341.73126 184.86334 342.575Q185.22272 343.40314 185.22272 344.98126Q185.22272 346.6219 184.86334 347.60626Q184.51959 348.575 183.80084 349.09064Q183.09772 349.59064 182.16022 349.59064Q181.14459 349.59064 180.50397 349.04376Q179.86334 348.48126 179.73834 347.46564ZM184.05084 343.66876Q184.05084 342.7625 183.56647 342.23126Q183.09772 341.7 182.41022 341.7Q181.70709 341.7 181.17584 342.27814Q180.66022 342.84064 180.66022 343.7625Q180.66022 344.575 181.16022 345.09064Q181.66022 345.60626 182.37897 345.60626Q183.11334 345.60626 183.58209 345.09064Q184.05084 344.575 184.05084 343.66876ZM186.58209 345.21564Q186.58209 343.6844 186.89459 342.7625Q187.20709 341.825 187.81647 341.325Q188.44147 340.825 189.37897 340.825Q190.06647 340.825 190.58209 341.10626Q191.11334 341.3875 191.45709 341.91876Q191.80084 342.4344 191.98834 343.1844Q192.17584 343.9344 192.17584 345.21564Q192.17584 346.73126 191.86334 347.65314Q191.56647 348.575 190.94147 349.09064Q190.33209 349.59064 189.37897 349.59064Q188.14459 349.59064 187.42584 348.7Q186.58209 347.6375 186.58209 345.21564ZM187.66022 345.21564Q187.66022 347.325 188.16022 348.02814Q188.66022 348.73126 189.37897 348.73126Q190.11334 348.73126 190.59772 348.02814Q191.09772 347.325 191.09772 345.21564Q191.09772 343.09064 190.59772 342.40314Q190.11334 341.7 189.36334 341.7Q188.64459 341.7 188.20709 342.3094Q187.66022 343.09064 187.66022 345.21564Z" fill-rule="nonzero"/><path fill="#000000" d="M315.875 349.45L315.875 340.85626L317.01562 340.85626L317.01562 348.4344L321.25 348.4344L321.25 349.45L315.875 349.45ZM325.875 349.45L325.875 347.3875L322.15625 347.3875L322.15625 346.41876L326.07812 340.85626L326.9375 340.85626L326.9375 346.41876L328.09375 346.41876L328.09375 347.3875L326.9375 347.3875L326.9375 349.45L325.875 349.45ZM325.875 346.41876L325.875 342.5594L323.1875 346.41876L325.875 346.41876ZM329.5 345.21564Q329.5 343.6844 329.8125 342.7625Q330.125 341.825 330.73438 341.325Q331.35938 340.825 332.29688 340.825Q332.98438 340.825 333.5 341.10626Q334.03125 341.3875 334.375 341.91876Q334.71875 342.4344 334.90625 343.1844Q335.09375 343.9344 335.09375 345.21564Q335.09375 346.73126 334.78125 347.65314Q334.48438 348.575 333.85938 349.09064Q333.25 349.59064 332.29688 349.59064Q331.0625 349.59064 330.34375 348.7Q329.5 347.6375 329.5 345.21564ZM330.57812 345.21564Q330.57812 347.325 331.07812 348.02814Q331.57812 348.73126 332.29688 348.73126Q333.03125 348.73126 333.51562 348.02814Q334.01562 347.325 334.01562 345.21564Q334.01562 343.09064 333.51562 342.40314Q333.03125 341.7 332.28125 341.7Q331.5625 341.7 331.125 342.3094Q330.57812 343.09064 330.57812 345.21564ZM336.54688 346.6844L337.60938 346.59064Q337.6875 347.2469 337.96875 347.65314Q338.25 348.0594 338.82812 348.325Q339.42188 348.575 340.15625 348.575Q340.79688 348.575 341.29688 348.3875Q341.79688 348.1844 342.03125 347.85626Q342.28125 347.5125 342.28125 347.1219Q342.28125 346.71564 342.04688 346.41876Q341.8125 346.10626 341.28125 345.90314Q340.92188 345.7625 339.73438 345.48126Q338.5625 345.2 338.09375 344.95Q337.46875 344.6219 337.17188 344.15314Q336.875 343.66876 336.875 343.075Q336.875 342.4344 337.23438 341.8719Q337.60938 341.29376 338.3125 341.0125Q339.03125 340.71564 339.89062 340.71564Q340.84375 340.71564 341.57812 341.02814Q342.3125 341.325 342.70312 341.9344Q343.09375 342.52814 343.125 343.27814L342.03125 343.35626Q341.9375 342.54376 341.42188 342.1375Q340.92188 341.71564 339.9375 341.71564Q338.90625 341.71564 338.4375 342.09064Q337.96875 342.46564 337.96875 342.9969Q337.96875 343.46564 338.29688 343.7625Q338.625 344.0594 340.0 344.3719Q341.39062 344.6844 341.90625 344.91876Q342.65625 345.27814 343.01562 345.8094Q343.375 346.325 343.375 347.02814Q343.375 347.71564 342.98438 348.325Q342.59375 348.91876 341.85938 349.2625Q341.125 349.59064 340.20312 349.59064Q339.03125 349.59064 338.23438 349.2625Q337.45312 348.91876 337.0 348.23126Q336.5625 347.54376 336.54688 346.6844Z" fill-rule="nonzero"/><path fill="#000000" d="M465.88666 349.45L465.88666 340.85626L467.01166 340.85626L467.01166 344.3875L471.4804 344.3875L471.4804 340.85626L472.62103 340.85626L472.62103 349.45L471.4804 349.45L471.4804 345.40314L467.01166 345.40314L467.01166 349.45L465.88666 349.45ZM478.38666 349.45L477.33978 349.45L477.33978 342.73126Q476.94916 343.09064 476.32416 343.46564Q475.71478 343.825 475.2304 343.9969L475.2304 342.98126Q476.1054 342.5594 476.76166 341.98126Q477.43353 341.3875 477.71478 340.825L478.38666 340.825L478.38666 349.45ZM481.4179 345.21564Q481.4179 343.6844 481.7304 342.7625Q482.0429 341.825 482.65228 341.325Q483.27728 340.825 484.21478 340.825Q484.90228 340.825 485.4179 341.10626Q485.94916 341.3875 486.2929 341.91876Q486.63666 342.4344 486.82416 343.1844Q487.01166 343.9344 487.01166 345.21564Q487.01166 346.73126 486.69916 347.65314Q486.40228 348.575 485.77728 349.09064Q485.1679 349.59064 484.21478 349.59064Q482.9804 349.59064 482.26166 348.7Q481.4179 347.6375 481.4179 345.21564ZM482.49603 345.21564Q482.49603 347.325 482.99603 348.02814Q483.49603 348.73126 484.21478 348.73126Q484.94916 348.73126 485.43353 348.02814Q485.93353 347.325 485.93353 345.21564Q485.93353 343.09064 485.43353 342.40314Q484.94916 341.7 484.19916 341.7Q483.4804 341.7 483.0429 342.3094Q482.49603 343.09064 482.49603 345.21564ZM488.4179 345.21564Q488.4179 343.6844 488.7304 342.7625Q489.0429 341.825 489.65228 341.325Q490.27728 340.825 491.21478 340.825Q491.90228 340.825 492.4179 341.10626Q492.94916 341.3875 493.2929 341.91876Q493.63666 342.4344 493.82416 343.1844Q494.01166 343.9344 494.01166 345.21564Q494.01166 346.73126 493.69916 347.65314Q493.40228 348.575 492.77728 349.09064Q492.1679 349.59064 491.21478 349.59064Q489.9804 349.59064 489.26166 348.7Q488.4179 347.6375 488.4179 345.21564ZM489.49603 345.21564Q489.49603 347.325 489.99603 348.02814Q490.49603 348.73126 491.21478 348.73126Q491.94916 348.73126 492.43353 348.02814Q492.93353 347.325 492.93353 345.21564Q492.93353 343.09064 492.43353 342.40314Q491.94916 341.7 491.19916 341.7Q490.4804 341.7 490.0429 342.3094Q489.49603 343.09064 489.49603 345.21564Z" fill-rule="nonzero"/><path fill="#85b737" d="M213.5 80.416664C213.5 79.86438 213.94771 79.416664 214.5 79.416664L224.5 79.416664C225.05229 79.416664 225.5 79.86438 225.5 80.416664L225.5 90.416664C225.5 90.96895 225.05229 91.416664 224.5 91.416664L214.5 91.416664C213.94771 91.416664 213.5 90.96895 213.5 90.416664Z" fill-rule="nonzero"/><path fill="#1a1a1a" d="M234.375 89.416664L234.375 80.822914L235.51562 80.822914L235.51562 88.40104L239.75 88.40104L239.75 89.416664L234.375 89.416664ZM241.375 89.416664L241.375 80.822914L242.51562 80.822914L242.51562 88.40104L246.75 88.40104L246.75 89.416664L241.375 89.416664ZM252.35938 88.65104Q251.76562 89.15104 251.21875 89.354164Q250.6875 89.55729 250.0625 89.55729Q249.03125 89.55729 248.48438 89.05729Q247.9375 88.55729 247.9375 87.77604Q247.9375 87.322914 248.14062 86.947914Q248.34375 86.55729 248.6875 86.33854Q249.03125 86.104164 249.45312 85.99479Q249.75 85.90104 250.39062 85.822914Q251.65625 85.68229 252.26562 85.46354Q252.26562 85.24479 252.26562 85.197914Q252.26562 84.541664 251.96875 84.27604Q251.5625 83.93229 250.76562 83.93229Q250.03125 83.93229 249.67188 84.197914Q249.3125 84.447914 249.14062 85.104164L248.10938 84.96354Q248.25 84.30729 248.57812 83.90104Q248.90625 83.49479 249.51562 83.27604Q250.125 83.05729 250.92188 83.05729Q251.71875 83.05729 252.21875 83.24479Q252.71875 83.43229 252.95312 83.71354Q253.1875 83.99479 253.28125 84.43229Q253.32812 84.697914 253.32812 85.40104L253.32812 86.80729Q253.32812 88.27604 253.39062 88.666664Q253.46875 89.05729 253.67188 89.416664L252.5625 89.416664Q252.40625 89.08854 252.35938 88.65104ZM252.26562 86.291664Q251.6875 86.52604 250.54688 86.697914Q249.89062 86.791664 249.625 86.916664Q249.35938 87.02604 249.20312 87.24479Q249.0625 87.46354 249.0625 87.74479Q249.0625 88.166664 249.375 88.447914Q249.70312 88.729164 250.3125 88.729164Q250.92188 88.729164 251.39062 88.46354Q251.875 88.197914 252.09375 87.729164Q252.26562 87.36979 252.26562 86.68229L252.26562 86.291664ZM255.39062 89.416664L255.39062 80.822914L257.10938 80.822914L259.14062 86.90104Q259.42188 87.760414 259.54688 88.18229Q259.6875 87.71354 260.0 86.80729L262.0625 80.822914L263.59375 80.822914L263.59375 89.416664L262.5 89.416664L262.5 82.229164L260.0 89.416664L258.96875 89.416664L256.48438 82.104164L256.48438 89.416664L255.39062 89.416664ZM263.48438 89.416664L266.78125 80.822914L268.0 80.822914L271.51562 89.416664L270.23438 89.416664L269.21875 86.80729L265.64062 86.80729L264.6875 89.416664L263.48438 89.416664ZM265.96875 85.885414L268.875 85.885414L267.98438 83.510414Q267.5625 82.43229 267.375 81.729164Q267.20312 82.55729 266.90625 83.36979L265.96875 85.885414ZM270.875 86.83854L270.875 85.77604L274.125 85.77604L274.125 86.83854L270.875 86.83854ZM275.0625 81.947914L275.0625 80.93229L280.625 80.93229L280.625 81.760414Q279.8125 82.635414 279.0 84.08854Q278.20312 85.52604 277.76562 87.05729Q277.4375 88.135414 277.35938 89.416664L276.26562 89.416664Q276.28125 88.40104 276.65625 86.96354Q277.04688 85.52604 277.75 84.197914Q278.46875 82.86979 279.28125 81.947914L275.0625 81.947914ZM283.26562 89.416664L282.28125 89.416664L282.28125 80.822914L283.34375 80.822914L283.34375 83.885414Q284.01562 83.05729 285.04688 83.05729Q285.625 83.05729 286.125 83.291664Q286.64062 83.510414 286.96875 83.93229Q287.3125 84.354164 287.5 84.947914Q287.6875 85.541664 287.6875 86.21354Q287.6875 87.80729 286.89062 88.68229Q286.09375 89.55729 285.0 89.55729Q283.89062 89.55729 283.26562 88.635414L283.26562 89.416664ZM283.25 86.260414Q283.25 87.36979 283.5625 87.86979Q284.0625 88.68229 284.90625 88.68229Q285.59375 88.68229 286.09375 88.08854Q286.60938 87.49479 286.60938 86.291664Q286.60938 85.072914 286.125 84.49479Q285.64062 83.916664 284.95312 83.916664Q284.26562 83.916664 283.75 84.52604Q283.25 85.11979 283.25 86.260414Z" fill-rule="nonzero"/><path fill="#3d5314" d="M304.5 80.416664C304.5 79.86438 304.94772 79.416664 305.5 79.416664L315.5 79.416664C316.05228 79.416664 316.5 79.86438 316.5 80.416664L316.5 90.416664C316.5 90.96895 316.05228 91.416664 315.5 91.416664L305.5 91.416664C304.94772 91.416664 304.5 90.96895 304.5 90.416664Z" fill-rule="nonzero"/><path fill="#1a1a1a" d="M325.375 89.416664L325.375 80.822914L326.51562 80.822914L326.51562 88.40104L330.75 88.40104L330.75 89.416664L325.375 89.416664ZM332.375 89.416664L332.375 80.822914L333.51562 80.822914L333.51562 88.40104L337.75 88.40104L337.75 89.416664L332.375 89.416664ZM343.35938 88.65104Q342.76562 89.15104 342.21875 89.354164Q341.6875 89.55729 341.0625 89.55729Q340.03125 89.55729 339.48438 89.05729Q338.9375 88.55729 338.9375 87.77604Q338.9375 87.322914 339.14062 86.947914Q339.34375 86.55729 339.6875 86.33854Q340.03125 86.104164 340.45312 85.99479Q340.75 85.90104 341.39062 85.822914Q342.65625 85.68229 343.26562 85.46354Q343.26562 85.24479 343.26562 85.197914Q343.26562 84.541664 342.96875 84.27604Q342.5625 83.93229 341.76562 83.93229Q341.03125 83.93229 340.67188 84.197914Q340.3125 84.447914 340.14062 85.104164L339.10938 84.96354Q339.25 84.30729 339.57812 83.90104Q339.90625 83.49479 340.51562 83.27604Q341.125 83.05729 341.92188 83.05729Q342.71875 83.05729 343.21875 83.24479Q343.71875 83.43229 343.95312 83.71354Q344.1875 83.99479 344.28125 84.43229Q344.32812 84.697914 344.32812 85.40104L344.32812 86.80729Q344.32812 88.27604 344.39062 88.666664Q344.46875 89.05729 344.67188 89.416664L343.5625 89.416664Q343.40625 89.08854 343.35938 88.65104ZM343.26562 86.291664Q342.6875 86.52604 341.54688 86.697914Q340.89062 86.791664 340.625 86.916664Q340.35938 87.02604 340.20312 87.24479Q340.0625 87.46354 340.0625 87.74479Q340.0625 88.166664 340.375 88.447914Q340.70312 88.729164 341.3125 88.729164Q341.92188 88.729164 342.39062 88.46354Q342.875 88.197914 343.09375 87.729164Q343.26562 87.36979 343.26562 86.68229L343.26562 86.291664ZM346.39062 89.416664L346.39062 80.822914L348.10938 80.822914L350.14062 86.90104Q350.42188 87.760414 350.54688 88.18229Q350.6875 87.71354 351.0 86.80729L353.0625 80.822914L354.59375 80.822914L354.59375 89.416664L353.5 89.416664L353.5 82.229164L351.0 89.416664L349.96875 89.416664L347.48438 82.104164L347.48438 89.416664L346.39062 89.416664ZM354.48438 89.416664L357.78125 80.822914L359.0 80.822914L362.51562 89.416664L361.23438 89.416664L360.21875 86.80729L356.64062 86.80729L355.6875 89.416664L354.48438 89.416664ZM356.96875 85.885414L359.875 85.885414L358.98438 83.510414Q358.5625 82.43229 358.375 81.729164Q358.20312 82.55729 357.90625 83.36979L356.96875 85.885414ZM361.875 86.83854L361.875 85.77604L365.125 85.77604L365.125 86.83854L361.875 86.83854ZM369.96875 89.416664L368.92188 89.416664L368.92188 82.697914Q368.53125 83.05729 367.90625 83.43229Q367.29688 83.791664 366.8125 83.96354L366.8125 82.947914Q367.6875 82.52604 368.34375 81.947914Q369.01562 81.354164 369.29688 80.791664L369.96875 80.791664L369.96875 89.416664ZM373.0 87.15104L374.0625 87.010414Q374.23438 87.90104 374.67188 88.30729Q375.10938 88.697914 375.73438 88.697914Q376.48438 88.697914 377.0 88.18229Q377.51562 87.666664 377.51562 86.90104Q377.51562 86.18229 377.03125 85.71354Q376.5625 85.229164 375.82812 85.229164Q375.53125 85.229164 375.07812 85.354164L375.20312 84.416664Q375.3125 84.43229 375.375 84.43229Q376.04688 84.43229 376.57812 84.08854Q377.125 83.729164 377.125 82.99479Q377.125 82.416664 376.73438 82.041664Q376.34375 81.65104 375.71875 81.65104Q375.10938 81.65104 374.6875 82.041664Q374.28125 82.43229 374.17188 83.197914L373.10938 83.010414Q373.29688 81.96354 373.98438 81.385414Q374.67188 80.791664 375.6875 80.791664Q376.39062 80.791664 376.98438 81.104164Q377.57812 81.40104 377.89062 81.916664Q378.20312 82.43229 378.20312 83.02604Q378.20312 83.572914 377.90625 84.041664Q377.60938 84.49479 377.03125 84.760414Q377.78125 84.93229 378.20312 85.49479Q378.625 86.041664 378.625 86.885414Q378.625 88.010414 377.79688 88.791664Q376.98438 89.572914 375.73438 89.572914Q374.60938 89.572914 373.85938 88.90104Q373.10938 88.21354 373.0 87.15104ZM381.26562 89.416664L380.28125 89.416664L380.28125 80.822914L381.34375 80.822914L381.34375 83.885414Q382.01562 83.05729 383.04688 83.05729Q383.625 83.05729 384.125 83.291664Q384.64062 83.510414 384.96875 83.93229Q385.3125 84.354164 385.5 84.947914Q385.6875 85.541664 385.6875 86.21354Q385.6875 87.80729 384.89062 88.68229Q384.09375 89.55729 383.0 89.55729Q381.89062 89.55729 381.26562 88.635414L381.26562 89.416664ZM381.25 86.260414Q381.25 87.36979 381.5625 87.86979Q382.0625 88.68229 382.90625 88.68229Q383.59375 88.68229 384.09375 88.08854Q384.60938 87.49479 384.60938 86.291664Q384.60938 85.072914 384.125 84.49479Q383.64062 83.916664 382.95312 83.916664Q382.26562 83.916664 381.75 84.52604Q381.25 85.11979 381.25 86.260414Z" fill-rule="nonzero"/><path fill="#999999" d="M19.58125 63.05L19.58125 53.034374L23.33125 53.034374Q24.4875 53.034374 25.175 53.346874Q25.878124 53.64375 26.26875 54.26875Q26.659374 54.89375 26.659374 55.596874Q26.659374 56.2375 26.3 56.8Q25.95625 57.3625 25.253124 57.721874Q26.159374 57.9875 26.64375 58.628124Q27.14375 59.26875 27.14375 60.14375Q27.14375 60.846874 26.846874 61.45625Q26.55 62.065624 26.1125 62.39375Q25.675 62.721874 25.003124 62.89375Q24.346874 63.05 23.39375 63.05L19.58125 63.05ZM20.909374 57.2375L23.065624 57.2375Q23.95625 57.2375 24.33125 57.128124Q24.846874 56.971874 25.096874 56.628124Q25.346874 56.26875 25.346874 55.753124Q25.346874 55.253124 25.1125 54.878124Q24.878124 54.4875 24.425 54.346874Q23.9875 54.20625 22.909374 54.20625L20.909374 54.20625L20.909374 57.2375ZM20.909374 61.8625L23.39375 61.8625Q24.034374 61.8625 24.3 61.815624Q24.753124 61.7375 25.065624 61.55Q25.378124 61.346874 25.565624 60.9875Q25.76875 60.628124 25.76875 60.14375Q25.76875 59.58125 25.471874 59.175Q25.190624 58.753124 24.675 58.596874Q24.175 58.425 23.221874 58.425L20.909374 58.425L20.909374 61.8625ZM33.20625 62.159374Q32.534374 62.7375 31.89375 62.9875Q31.26875 63.221874 30.534374 63.221874Q29.346874 63.221874 28.690624 62.64375Q28.05 62.05 28.05 61.128124Q28.05 60.596874 28.284374 60.159374Q28.534374 59.721874 28.925 59.45625Q29.33125 59.190624 29.815624 59.05Q30.175 58.95625 30.909374 58.8625Q32.409374 58.690624 33.1125 58.440624Q33.1125 58.190624 33.1125 58.128124Q33.1125 57.3625 32.76875 57.065624Q32.3 56.64375 31.3625 56.64375Q30.503124 56.64375 30.08125 56.95625Q29.675 57.253124 29.471874 58.01875L28.26875 57.8625Q28.425 57.08125 28.8 56.6125Q29.190624 56.14375 29.89375 55.89375Q30.6125 55.628124 31.55 55.628124Q32.471874 55.628124 33.05 55.846874Q33.628124 56.065624 33.89375 56.39375Q34.175 56.721874 34.284374 57.2375Q34.346874 57.55 34.346874 58.3625L34.346874 60.003124Q34.346874 61.721874 34.425 62.175Q34.503124 62.628124 34.7375 63.05L33.45625 63.05Q33.26875 62.659374 33.20625 62.159374ZM33.1125 59.409374Q32.440624 59.675 31.096874 59.878124Q30.346874 59.9875 30.01875 60.128124Q29.70625 60.253124 29.534374 60.51875Q29.3625 60.784374 29.3625 61.096874Q29.3625 61.596874 29.7375 61.925Q30.1125 62.253124 30.83125 62.253124Q31.55 62.253124 32.096874 61.940624Q32.64375 61.628124 32.909374 61.08125Q33.1125 60.675 33.1125 59.8625L33.1125 59.409374ZM39.159374 61.95625L39.33125 63.034374Q38.815624 63.14375 38.409374 63.14375Q37.7375 63.14375 37.3625 62.940624Q37.003124 62.721874 36.846874 62.378124Q36.70625 62.034374 36.70625 60.925L36.70625 56.753124L35.8 56.753124L35.8 55.784374L36.70625 55.784374L36.70625 53.9875L37.925 53.253124L37.925 55.784374L39.159374 55.784374L39.159374 56.753124L37.925 56.753124L37.925 60.9875Q37.925 61.51875 37.9875 61.675Q38.05 61.815624 38.190624 61.909374Q38.346874 62.003124 38.6125 62.003124Q38.83125 62.003124 39.159374 61.95625ZM45.20625 60.39375L46.425 60.55Q46.221874 61.8 45.39375 62.51875Q44.58125 63.221874 43.39375 63.221874Q41.909374 63.221874 41.003124 62.253124Q40.096874 61.26875 40.096874 59.440624Q40.096874 58.26875 40.4875 57.39375Q40.878124 56.503124 41.675 56.065624Q42.471874 55.628124 43.409374 55.628124Q44.58125 55.628124 45.33125 56.221874Q46.096874 56.815624 46.3 57.925L45.1125 58.1125Q44.940624 57.378124 44.503124 57.01875Q44.065624 56.64375 43.45625 56.64375Q42.51875 56.64375 41.940624 57.315624Q41.3625 57.971874 41.3625 59.409374Q41.3625 60.878124 41.925 61.55Q42.4875 62.20625 43.378124 62.20625Q44.1125 62.20625 44.596874 61.76875Q45.08125 61.315624 45.20625 60.39375ZM47.471874 63.05L47.471874 53.034374L48.70625 53.034374L48.70625 56.628124Q49.565624 55.628124 50.878124 55.628124Q51.690624 55.628124 52.284374 55.95625Q52.878124 56.26875 53.128124 56.83125Q53.39375 57.378124 53.39375 58.45625L53.39375 63.05L52.159374 63.05L52.159374 58.45625Q52.159374 57.51875 51.753124 57.1125Q51.3625 56.690624 50.628124 56.690624Q50.08125 56.690624 49.596874 56.971874Q49.1125 57.253124 48.909374 57.7375Q48.70625 58.221874 48.70625 59.08125L48.70625 63.05L47.471874 63.05ZM59.175 59.83125L60.425 59.721874Q60.51875 60.471874 60.846874 60.95625Q61.175 61.440624 61.846874 61.7375Q62.534374 62.034374 63.39375 62.034374Q64.14375 62.034374 64.72188 61.815624Q65.31563 61.58125 65.59688 61.190624Q65.87813 60.8 65.87813 60.33125Q65.87813 59.8625 65.59688 59.51875Q65.33125 59.159374 64.70625 58.909374Q64.3 58.753124 62.909374 58.425Q61.534374 58.096874 60.9875 57.8Q60.26875 57.425 59.909374 56.878124Q59.565624 56.315624 59.565624 55.6125Q59.565624 54.8625 59.9875 54.20625Q60.425 53.534374 61.253124 53.20625Q62.08125 52.8625 63.096874 52.8625Q64.20625 52.8625 65.05 53.221874Q65.90938 53.58125 66.3625 54.284374Q66.81563 54.971874 66.8625 55.846874L65.58125 55.940624Q65.4875 55.003124 64.89375 54.51875Q64.3 54.01875 63.14375 54.01875Q61.940624 54.01875 61.39375 54.471874Q60.846874 54.909374 60.846874 55.534374Q60.846874 56.065624 61.2375 56.425Q61.6125 56.76875 63.221874 57.14375Q64.84688 57.503124 65.44063 57.76875Q66.31563 58.175 66.7375 58.8Q67.15938 59.409374 67.15938 60.221874Q67.15938 61.01875 66.69063 61.7375Q66.2375 62.440624 65.37813 62.83125Q64.51875 63.221874 63.45625 63.221874Q62.096874 63.221874 61.175 62.83125Q60.253124 62.425 59.721874 61.628124Q59.20625 60.83125 59.175 59.83125ZM68.4875 54.440624L68.4875 53.034374L69.70625 53.034374L69.70625 54.440624L68.4875 54.440624ZM68.4875 63.05L68.4875 55.784374L69.70625 55.784374L69.70625 63.05L68.4875 63.05ZM70.83125 63.05L70.83125 62.05L75.44063 56.753124Q74.65938 56.784374 74.05 56.784374L71.09688 56.784374L71.09688 55.784374L77.03438 55.784374L77.03438 56.596874L73.09688 61.20625L72.34688 62.05Q73.175 61.9875 73.89375 61.9875L77.25313 61.9875L77.25313 63.05L70.83125 63.05ZM82.44063 60.70625L83.72188 60.8625Q83.40938 61.9875 82.59688 62.6125Q81.78438 63.221874 80.51875 63.221874Q78.925 63.221874 77.9875 62.2375Q77.06563 61.253124 77.06563 59.4875Q77.06563 57.64375 78.00313 56.64375Q78.95625 55.628124 80.45625 55.628124Q81.90938 55.628124 82.83125 56.628124Q83.75313 57.6125 83.75313 59.409374Q83.75313 59.51875 83.75313 59.7375L78.33125 59.7375Q78.40938 60.925 79.00313 61.565624Q79.6125 62.20625 80.53438 62.20625Q81.20625 62.20625 81.675 61.846874Q82.15938 61.4875 82.44063 60.70625ZM78.40938 58.721874L82.45625 58.721874Q82.37813 57.8 81.9875 57.346874Q81.40938 56.64375 80.47188 56.64375Q79.6125 56.64375 79.03438 57.20625Q78.47188 57.76875 78.40938 58.721874ZM95.94063 57.159374L89.33125 57.159374L89.33125 56.003124L95.94063 56.003124L95.94063 57.159374ZM95.94063 60.20625L89.33125 60.20625L89.33125 59.05L95.94063 59.05L95.94063 60.20625ZM105.76875 63.05L104.53438 63.05L104.53438 55.20625Q104.09688 55.628124 103.3625 56.065624Q102.64375 56.4875 102.08125 56.690624L102.08125 55.503124Q103.1125 55.01875 103.87813 54.33125Q104.65938 53.64375 104.97188 52.9875L105.76875 52.9875L105.76875 63.05Z" fill-rule="nonzero"/><path fill="#757575" d="M20.190624 37.55L20.190624 23.2375L29.846874 23.2375L29.846874 24.925L22.08125 24.925L22.08125 29.3625L28.8 29.3625L28.8 31.05L22.08125 31.05L22.08125 37.55L20.190624 37.55ZM31.878124 25.253124L31.878124 23.2375L33.64375 23.2375L33.64375 25.253124L31.878124 25.253124ZM31.878124 37.55L31.878124 27.175L33.64375 27.175L33.64375 37.55L31.878124 37.55ZM35.846874 37.55L35.846874 27.175L37.425 27.175L37.425 28.753124Q38.034374 27.64375 38.55 27.3Q39.065624 26.940624 39.675 26.940624Q40.565624 26.940624 41.4875 27.503124L40.878124 29.14375Q40.2375 28.753124 39.596874 28.753124Q39.01875 28.753124 38.55 29.1125Q38.096874 29.45625 37.89375 30.065624Q37.6125 31.003124 37.6125 32.1125L37.6125 37.55L35.846874 37.55ZM42.159374 34.45625L43.909374 34.175Q44.05 35.221874 44.721874 35.784374Q45.39375 36.33125 46.596874 36.33125Q47.8 36.33125 48.378124 35.846874Q48.971874 35.346874 48.971874 34.690624Q48.971874 34.096874 48.45625 33.753124Q48.096874 33.51875 46.659374 33.159374Q44.721874 32.659374 43.971874 32.315624Q43.2375 31.95625 42.846874 31.33125Q42.45625 30.690624 42.45625 29.925Q42.45625 29.2375 42.76875 28.64375Q43.096874 28.05 43.64375 27.659374Q44.05 27.3625 44.753124 27.159374Q45.471874 26.940624 46.284374 26.940624Q47.503124 26.940624 48.425 27.3Q49.346874 27.64375 49.784374 28.253124Q50.221874 28.846874 50.39375 29.846874L48.675 30.08125Q48.55 29.284374 47.9875 28.846874Q47.425 28.39375 46.409374 28.39375Q45.190624 28.39375 44.675 28.8Q44.159374 29.190624 44.159374 29.721874Q44.159374 30.065624 44.378124 30.346874Q44.58125 30.628124 45.05 30.815624Q45.315624 30.909374 46.596874 31.253124Q48.471874 31.753124 49.20625 32.08125Q49.940624 32.39375 50.3625 33.003124Q50.784374 33.596874 50.784374 34.503124Q50.784374 35.378124 50.26875 36.159374Q49.753124 36.940624 48.784374 37.3625Q47.815624 37.784374 46.596874 37.784374Q44.58125 37.784374 43.51875 36.940624Q42.45625 36.096874 42.159374 34.45625ZM56.70625 35.971874L56.95625 37.534374Q56.221874 37.690624 55.628124 37.690624Q54.675 37.690624 54.14375 37.39375Q53.628124 37.08125 53.409374 36.596874Q53.190624 36.096874 53.190624 34.51875L53.190624 28.55L51.909374 28.55L51.909374 27.175L53.190624 27.175L53.190624 24.6125L54.940624 23.55L54.940624 27.175L56.70625 27.175L56.70625 28.55L54.940624 28.55L54.940624 34.6125Q54.940624 35.3625 55.034374 35.58125Q55.128124 35.784374 55.33125 35.925Q55.55 36.05 55.940624 36.05Q56.221874 36.05 56.70625 35.971874ZM68.7375 37.55L68.7375 24.925L64.01875 24.925L64.01875 23.2375L75.3625 23.2375L75.3625 24.925L70.62813 24.925L70.62813 37.55L68.7375 37.55ZM76.22188 32.3625Q76.22188 29.4875 77.81563 28.096874Q79.15938 26.940624 81.08125 26.940624Q83.22188 26.940624 84.56563 28.346874Q85.925 29.753124 85.925 32.221874Q85.925 34.221874 85.33125 35.378124Q84.7375 36.51875 83.58125 37.159374Q82.44063 37.784374 81.08125 37.784374Q78.89375 37.784374 77.55 36.39375Q76.22188 34.9875 76.22188 32.3625ZM78.01875 32.3625Q78.01875 34.3625 78.87813 35.346874Q79.75313 36.33125 81.08125 36.33125Q82.39375 36.33125 83.25313 35.346874Q84.12813 34.346874 84.12813 32.3Q84.12813 30.378124 83.25313 29.39375Q82.37813 28.39375 81.08125 28.39375Q79.75313 28.39375 78.87813 29.39375Q78.01875 30.378124 78.01875 32.3625ZM87.87813 37.55L87.87813 23.2375L89.64375 23.2375L89.64375 31.39375L93.8 27.175L96.06563 27.175L92.1125 31.01875L96.47188 37.55L94.3 37.55L90.87813 32.253124L89.64375 33.440624L89.64375 37.55L87.87813 37.55ZM104.97188 34.20625L106.78438 34.440624Q106.3625 36.01875 105.19063 36.909374Q104.03438 37.784374 102.22188 37.784374Q99.95625 37.784374 98.6125 36.39375Q97.28438 34.9875 97.28438 32.45625Q97.28438 29.83125 98.62813 28.39375Q99.97188 26.940624 102.12813 26.940624Q104.20625 26.940624 105.51875 28.3625Q106.84688 29.76875 106.84688 32.346874Q106.84688 32.503124 106.83125 32.815624L99.09688 32.815624Q99.19063 34.51875 100.06563 35.425Q100.94063 36.33125 102.2375 36.33125Q103.20625 36.33125 103.87813 35.83125Q104.56563 35.315624 104.97188 34.20625ZM99.19063 31.3625L104.9875 31.3625Q104.87813 30.065624 104.33125 29.409374Q103.4875 28.39375 102.14375 28.39375Q100.94063 28.39375 100.1125 29.20625Q99.28438 30.003124 99.19063 31.3625ZM108.8625 37.55L108.8625 27.175L110.45625 27.175L110.45625 28.659374Q111.59688 26.940624 113.75313 26.940624Q114.69063 26.940624 115.47188 27.284374Q116.26875 27.6125 116.65938 28.159374Q117.05 28.70625 117.20625 29.45625Q117.3 29.95625 117.3 31.175L117.3 37.55L115.53438 37.55L115.53438 31.2375Q115.53438 30.159374 115.33125 29.628124Q115.12813 29.096874 114.59688 28.784374Q114.08125 28.471874 113.37813 28.471874Q112.25313 28.471874 111.44063 29.190624Q110.62813 29.89375 110.62813 31.878124L110.62813 37.55L108.8625 37.55ZM125.01875 37.55L125.01875 23.2375L126.90938 23.2375L126.90938 35.8625L133.95625 35.8625L133.95625 37.55L125.01875 37.55ZM142.64375 36.26875Q141.65938 37.096874 140.75313 37.440624Q139.84688 37.784374 138.81563 37.784374Q137.1125 37.784374 136.19063 36.95625Q135.26875 36.1125 135.26875 34.815624Q135.26875 34.05 135.6125 33.425Q135.97188 32.8 136.53438 32.425Q137.09688 32.034374 137.8 31.83125Q138.31563 31.70625 139.3625 31.565624Q141.4875 31.315624 142.4875 30.971874Q142.50313 30.6125 142.50313 30.503124Q142.50313 29.440624 142.00313 28.9875Q141.33125 28.39375 140.00313 28.39375Q138.75313 28.39375 138.15938 28.83125Q137.58125 29.26875 137.3 30.378124L135.58125 30.14375Q135.81563 29.034374 136.34688 28.3625Q136.87813 27.675 137.89375 27.315624Q138.90938 26.940624 140.25313 26.940624Q141.58125 26.940624 142.40938 27.253124Q143.2375 27.565624 143.62813 28.05Q144.01875 28.51875 144.175 29.2375Q144.26875 29.690624 144.26875 30.8625L144.26875 33.20625Q144.26875 35.659374 144.37813 36.315624Q144.4875 36.95625 144.83125 37.55L142.9875 37.55Q142.72188 37.003124 142.64375 36.26875ZM142.4875 32.346874Q141.53438 32.7375 139.6125 33.003124Q138.53438 33.159374 138.08125 33.3625Q137.64375 33.55 137.39375 33.925Q137.14375 34.3 137.14375 34.76875Q137.14375 35.471874 137.675 35.940624Q138.20625 36.409374 139.2375 36.409374Q140.25313 36.409374 141.03438 35.971874Q141.83125 35.51875 142.20625 34.753124Q142.4875 34.14375 142.4875 32.9875L142.4875 32.346874ZM150.70625 35.971874L150.95625 37.534374Q150.22188 37.690624 149.62813 37.690624Q148.675 37.690624 148.14375 37.39375Q147.62813 37.08125 147.40938 36.596874Q147.19063 36.096874 147.19063 34.51875L147.19063 28.55L145.90938 28.55L145.90938 27.175L147.19063 27.175L147.19063 24.6125L148.94063 23.55L148.94063 27.175L150.70625 27.175L150.70625 28.55L148.94063 28.55L148.94063 34.6125Q148.94063 35.3625 149.03438 35.58125Q149.12813 35.784374 149.33125 35.925Q149.55 36.05 149.94063 36.05Q150.22188 36.05 150.70625 35.971874ZM159.97188 34.20625L161.78438 34.440624Q161.3625 36.01875 160.19063 36.909374Q159.03438 37.784374 157.22188 37.784374Q154.95625 37.784374 153.6125 36.39375Q152.28438 34.9875 152.28438 32.45625Q152.28438 29.83125 153.62813 28.39375Q154.97188 26.940624 157.12813 26.940624Q159.20625 26.940624 160.51875 28.3625Q161.84688 29.76875 161.84688 32.346874Q161.84688 32.503124 161.83125 32.815624L154.09688 32.815624Q154.19063 34.51875 155.06563 35.425Q155.94063 36.33125 157.2375 36.33125Q158.20625 36.33125 158.87813 35.83125Q159.56563 35.315624 159.97188 34.20625ZM154.19063 31.3625L159.9875 31.3625Q159.87813 30.065624 159.33125 29.409374Q158.4875 28.39375 157.14375 28.39375Q155.94063 28.39375 155.1125 29.20625Q154.28438 30.003124 154.19063 31.3625ZM163.8625 37.55L163.8625 27.175L165.45625 27.175L165.45625 28.659374Q166.59688 26.940624 168.75313 26.940624Q169.69063 26.940624 170.47188 27.284374Q171.26875 27.6125 171.65938 28.159374Q172.05 28.70625 172.20625 29.45625Q172.3 29.95625 172.3 31.175L172.3 37.55L170.53438 37.55L170.53438 31.2375Q170.53438 30.159374 170.33125 29.628124Q170.12813 29.096874 169.59688 28.784374Q169.08125 28.471874 168.37813 28.471874Q167.25313 28.471874 166.44063 29.190624Q165.62813 29.89375 165.62813 31.878124L165.62813 37.55L163.8625 37.55ZM180.64375 33.753124L182.3625 33.971874Q182.08125 35.76875 180.90938 36.784374Q179.75313 37.784374 178.05 37.784374Q175.925 37.784374 174.62813 36.39375Q173.33125 35.003124 173.33125 32.409374Q173.33125 30.721874 173.87813 29.471874Q174.44063 28.20625 175.58125 27.58125Q176.72188 26.940624 178.06563 26.940624Q179.75313 26.940624 180.81563 27.8Q181.89375 28.659374 182.20625 30.221874L180.4875 30.4875Q180.25313 29.440624 179.62813 28.925Q179.00313 28.39375 178.12813 28.39375Q176.8 28.39375 175.97188 29.346874Q175.14375 30.3 175.14375 32.346874Q175.14375 34.440624 175.94063 35.39375Q176.7375 36.33125 178.03438 36.33125Q179.06563 36.33125 179.75313 35.70625Q180.45625 35.065624 180.64375 33.753124ZM183.78438 41.55L183.59688 39.89375Q184.175 40.05 184.59688 40.05Q185.19063 40.05 185.53438 39.846874Q185.89375 39.659374 186.1125 39.315624Q186.28438 39.05 186.65938 38.003124Q186.70625 37.846874 186.81563 37.565624L182.87813 27.175L184.76875 27.175L186.925 33.190624Q187.34688 34.33125 187.675 35.58125Q187.9875 34.378124 188.39375 33.221874L190.6125 27.175L192.37813 27.175L188.425 37.721874Q187.8 39.440624 187.44063 40.08125Q186.97188 40.95625 186.3625 41.346874Q185.76875 41.753124 184.925 41.753124Q184.40938 41.753124 183.78438 41.55Z" fill-rule="nonzero"/></svg>