<svg version="1.1" viewBox="0.0 0.0 600.0 371.0" fill="none" stroke="none" stroke-linecap="square" stroke-miterlimit="10" width="600" height="371" xmlns:xlink="http://www.w3.org/1999/xlink" xmlns="http://www.w3.org/2000/svg"><path fill="#ffffff" d="M0 0L600.0 0L600.0 371.0L0 371.0L0 0Z" fill-rule="nonzero"/><path stroke="#333333" stroke-width="1.0" stroke-linecap="butt" d="M77.5 332.5L581.5 332.5" fill-rule="nonzero"/><path stroke="#cccccc" stroke-width="1.0" stroke-linecap="butt" d="M77.5 258.5L581.5 258.5" fill-rule="nonzero"/><path stroke="#cccccc" stroke-width="1.0" stroke-linecap="butt" d="M77.5 185.5L581.5 185.5" fill-rule="nonzero"/><path stroke="#cccccc" stroke-width="1.0" stroke-linecap="butt" d="M77.5 111.5L581.5 111.5" fill-rule="nonzero"/><clipPath id="id_0"><path d="M77.55 111.78333L581.45 111.78333L581.45 332.45L77.55 332.45L77.55 111.78333Z" clip-rule="nonzero"/></clipPath><path stroke="#000000" stroke-width="2.0" stroke-linecap="butt" stroke-opacity="0.0" clip-path="url(#id_0)" d="M178.0 332.0L131.0 332.0L131.0 315.0C131.0 313.89542 131.89543 313.0 133.0 313.0L176.0 313.0C177.10457 313.0 178.0 313.89542 178.0 315.0Z" fill-rule="nonzero"/><path fill="#85b737" clip-path="url(#id_0)" d="M178.0 332.0L131.0 332.0L131.0 315.0C131.0 313.89542 131.89543 313.0 133.0 313.0L176.0 313.0C177.10457 313.0 178.0 313.89542 178.0 315.0Z" fill-rule="nonzero"/><path stroke="#000000" stroke-width="2.0" stroke-linecap="butt" stroke-opacity="0.0" clip-path="url(#id_0)" d="M329.0 332.0L282.0 332.0L282.0 278.0C282.0 276.89542 282.89542 276.0 284.0 276.0L327.0 276.0C328.10458 276.0 329.0 276.89542 329.0 278.0Z" fill-rule="nonzero"/><path fill="#85b737" clip-path="url(#id_0)" d="M329.0 332.0L282.0 332.0L282.0 278.0C282.0 276.89542 282.89542 276.0 284.0 276.0L327.0 276.0C328.10458 276.0 329.0 276.89542 329.0 278.0Z" fill-rule="nonzero"/><path stroke="#000000" stroke-width="2.0" stroke-linecap="butt" stroke-opacity="0.0" clip-path="url(#id_0)" d="M479.0 332.0L432.0 332.0L432.0 130.0C432.0 128.89543 432.89542 128.0 434.0 128.0L477.0 128.0C478.10458 128.0 479.0 128.89543 479.0 130.0Z" fill-rule="nonzero"/><path fill="#85b737" clip-path="url(#id_0)" d="M479.0 332.0L432.0 332.0L432.0 130.0C432.0 128.89543 432.89542 128.0 434.0 128.0L477.0 128.0C478.10458 128.0 479.0 128.89543 479.0 130.0Z" fill-rule="nonzero"/><path stroke="#000000" stroke-width="2.0" stroke-linecap="butt" stroke-opacity="0.0" clip-path="url(#id_0)" d="M378.0 332.0L331.0 332.0L331.0 280.0C331.0 278.89542 331.89542 278.0 333.0 278.0L376.0 278.0C377.10458 278.0 378.0 278.89542 378.0 280.0Z" fill-rule="nonzero"/><path fill="#3d5314" clip-path="url(#id_0)" d="M378.0 332.0L331.0 332.0L331.0 280.0C331.0 278.89542 331.89542 278.0 333.0 278.0L376.0 278.0C377.10458 278.0 378.0 278.89542 378.0 280.0Z" fill-rule="nonzero"/><path stroke="#000000" stroke-width="2.0" stroke-linecap="butt" stroke-opacity="0.0" clip-path="url(#id_0)" d="M528.0 332.0L481.0 332.0L481.0 179.0C481.0 177.89543 481.89542 177.0 483.0 177.0L526.0 177.0C527.10455 177.0 528.0 177.89543 528.0 179.0Z" fill-rule="nonzero"/><path fill="#3d5314" clip-path="url(#id_0)" d="M528.0 332.0L481.0 332.0L481.0 179.0C481.0 177.89543 481.89542 177.0 483.0 177.0L526.0 177.0C527.10455 177.0 528.0 177.89543 528.0 179.0Z" fill-rule="nonzero"/><path stroke="#85b737" stroke-width="3.0" stroke-linejoin="round" stroke-linecap="round" d="M149.29688 327.281L143.70312 327.281L143.70312 326.49976L146.65625 323.2185Q147.3125 322.4685 147.5625 322.01538Q147.8125 321.54663 147.8125 321.04663Q147.8125 320.37476 147.40625 319.95288Q147.01562 319.51538 146.32812 319.51538Q145.53125 319.51538 145.07812 319.98413Q144.625 320.43726 144.625 321.26538L143.54688 321.26538Q143.54688 320.07788 144.29688 319.35913Q145.0625 318.62476 146.32812 318.62476Q147.53125 318.62476 148.21875 319.24976Q148.90625 319.87476 148.90625 320.92163Q148.90625 322.17163 147.29688 323.92163L145.01562 326.39038L149.29688 326.39038L149.29688 327.281ZM150.84375 326.7185Q150.84375 326.43726 151.0 326.24976Q151.17188 326.06226 151.5 326.06226Q151.84375 326.06226 152.01562 326.24976Q152.1875 326.43726 152.1875 326.7185Q152.1875 326.98413 152.01562 327.17163Q151.84375 327.3435 151.5 327.3435Q151.17188 327.3435 151.0 327.17163Q150.84375 326.98413 150.84375 326.7185ZM157.96875 318.74976L157.96875 319.656L157.76562 319.656Q156.5 319.68726 155.75 320.42163Q155.0 321.14038 154.875 322.45288Q155.5625 321.68726 156.71875 321.68726Q157.82812 321.68726 158.5 322.4685Q159.17188 323.24976 159.17188 324.49976Q159.17188 325.81226 158.45312 326.60913Q157.73438 327.406 156.51562 327.406Q155.29688 327.406 154.53125 326.4685Q153.78125 325.51538 153.78125 324.031L153.78125 323.62476Q153.78125 321.26538 154.78125 320.01538Q155.78125 318.76538 157.76562 318.74976L157.96875 318.74976ZM156.54688 322.5935Q155.98438 322.5935 155.51562 322.92163Q155.04688 323.24976 154.85938 323.76538L154.85938 324.156Q154.85938 325.2185 155.32812 325.85913Q155.8125 326.49976 156.51562 326.49976Q157.25 326.49976 157.67188 325.9685Q158.09375 325.42163 158.09375 324.54663Q158.09375 323.67163 157.67188 323.14038Q157.25 322.5935 156.54688 322.5935ZM162.95312 323.24976L164.35938 320.93726L165.625 320.93726L163.54688 324.07788L165.6875 327.281L164.4375 327.281L162.96875 324.906L161.5 327.281L160.23438 327.281L162.375 324.07788L160.3125 320.93726L161.5625 320.93726L162.95312 323.24976Z" fill-rule="nonzero"/><path fill="#000000" d="M149.29688 327.281L143.70312 327.281L143.70312 326.49976L146.65625 323.2185Q147.3125 322.4685 147.5625 322.01538Q147.8125 321.54663 147.8125 321.04663Q147.8125 320.37476 147.40625 319.95288Q147.01562 319.51538 146.32812 319.51538Q145.53125 319.51538 145.07812 319.98413Q144.625 320.43726 144.625 321.26538L143.54688 321.26538Q143.54688 320.07788 144.29688 319.35913Q145.0625 318.62476 146.32812 318.62476Q147.53125 318.62476 148.21875 319.24976Q148.90625 319.87476 148.90625 320.92163Q148.90625 322.17163 147.29688 323.92163L145.01562 326.39038L149.29688 326.39038L149.29688 327.281ZM150.84375 326.7185Q150.84375 326.43726 151.0 326.24976Q151.17188 326.06226 151.5 326.06226Q151.84375 326.06226 152.01562 326.24976Q152.1875 326.43726 152.1875 326.7185Q152.1875 326.98413 152.01562 327.17163Q151.84375 327.3435 151.5 327.3435Q151.17188 327.3435 151.0 327.17163Q150.84375 326.98413 150.84375 326.7185ZM157.96875 318.74976L157.96875 319.656L157.76562 319.656Q156.5 319.68726 155.75 320.42163Q155.0 321.14038 154.875 322.45288Q155.5625 321.68726 156.71875 321.68726Q157.82812 321.68726 158.5 322.4685Q159.17188 323.24976 159.17188 324.49976Q159.17188 325.81226 158.45312 326.60913Q157.73438 327.406 156.51562 327.406Q155.29688 327.406 154.53125 326.4685Q153.78125 325.51538 153.78125 324.031L153.78125 323.62476Q153.78125 321.26538 154.78125 320.01538Q155.78125 318.76538 157.76562 318.74976L157.96875 318.74976ZM156.54688 322.5935Q155.98438 322.5935 155.51562 322.92163Q155.04688 323.24976 154.85938 323.76538L154.85938 324.156Q154.85938 325.2185 155.32812 325.85913Q155.8125 326.49976 156.51562 326.49976Q157.25 326.49976 157.67188 325.9685Q158.09375 325.42163 158.09375 324.54663Q158.09375 323.67163 157.67188 323.14038Q157.25 322.5935 156.54688 322.5935ZM162.95312 323.24976L164.35938 320.93726L165.625 320.93726L163.54688 324.07788L165.6875 327.281L164.4375 327.281L162.96875 324.906L161.5 327.281L160.23438 327.281L162.375 324.07788L160.3125 320.93726L161.5625 320.93726L162.95312 323.24976Z" fill-rule="nonzero"/><path stroke="#85b737" stroke-width="3.0" stroke-linejoin="round" stroke-linecap="round" d="M300.21875 285.0247L296.6875 292.94656L295.54688 292.94656L299.0625 285.30594L294.45312 285.30594L294.45312 284.4153L300.21875 284.4153L300.21875 285.0247ZM301.84375 292.38406Q301.84375 292.1028 302.0 291.9153Q302.17188 291.7278 302.5 291.7278Q302.84375 291.7278 303.01562 291.9153Q303.1875 292.1028 303.1875 292.38406Q303.1875 292.6497 303.01562 292.8372Q302.84375 293.00906 302.5 293.00906Q302.17188 293.00906 302.0 292.8372Q301.84375 292.6497 301.84375 292.38406ZM310.21875 285.0247L306.6875 292.94656L305.54688 292.94656L309.0625 285.30594L304.45312 285.30594L304.45312 284.4153L310.21875 284.4153L310.21875 285.0247ZM313.95312 288.9153L315.35938 286.6028L316.625 286.6028L314.54688 289.74344L316.6875 292.94656L315.4375 292.94656L313.96875 290.57156L312.5 292.94656L311.23438 292.94656L313.375 289.74344L311.3125 286.6028L312.5625 286.6028L313.95312 288.9153Z" fill-rule="nonzero"/><path fill="#000000" d="M300.21875 285.0247L296.6875 292.94656L295.54688 292.94656L299.0625 285.30594L294.45312 285.30594L294.45312 284.4153L300.21875 284.4153L300.21875 285.0247ZM301.84375 292.38406Q301.84375 292.1028 302.0 291.9153Q302.17188 291.7278 302.5 291.7278Q302.84375 291.7278 303.01562 291.9153Q303.1875 292.1028 303.1875 292.38406Q303.1875 292.6497 303.01562 292.8372Q302.84375 293.00906 302.5 293.00906Q302.17188 293.00906 302.0 292.8372Q301.84375 292.6497 301.84375 292.38406ZM310.21875 285.0247L306.6875 292.94656L305.54688 292.94656L309.0625 285.30594L304.45312 285.30594L304.45312 284.4153L310.21875 284.4153L310.21875 285.0247ZM313.95312 288.9153L315.35938 286.6028L316.625 286.6028L314.54688 289.74344L316.6875 292.94656L315.4375 292.94656L313.96875 290.57156L312.5 292.94656L311.23438 292.94656L313.375 289.74344L311.3125 286.6028L312.5625 286.6028L313.95312 288.9153Z" fill-rule="nonzero"/><path stroke="#85b737" stroke-width="3.0" stroke-linejoin="round" stroke-linecap="round" d="M446.79688 144.49187L441.20312 144.49187L441.20312 143.71062L444.15625 140.42937Q444.8125 139.67937 445.0625 139.22624Q445.3125 138.75749 445.3125 138.25749Q445.3125 137.58562 444.90625 137.16374Q444.51562 136.72624 443.82812 136.72624Q443.03125 136.72624 442.57812 137.19499Q442.125 137.64812 442.125 138.47624L441.04688 138.47624Q441.04688 137.28874 441.79688 136.56999Q442.5625 135.83562 443.82812 135.83562Q445.03125 135.83562 445.71875 136.46062Q446.40625 137.08562 446.40625 138.13249Q446.40625 139.38249 444.79688 141.13249L442.51562 143.60124L446.79688 143.60124L446.79688 144.49187ZM453.71875 136.56999L450.1875 144.49187L449.04688 144.49187L452.5625 136.85124L447.95312 136.85124L447.95312 135.96062L453.71875 135.96062L453.71875 136.56999ZM455.34375 143.92937Q455.34375 143.64812 455.5 143.46062Q455.67188 143.27312 456.0 143.27312Q456.34375 143.27312 456.51562 143.46062Q456.6875 143.64812 456.6875 143.92937Q456.6875 144.19499 456.51562 144.38249Q456.34375 144.55437 456.0 144.55437Q455.67188 144.55437 455.5 144.38249Q455.34375 144.19499 455.34375 143.92937ZM463.39062 138.17937Q463.39062 138.81999 463.04688 139.31999Q462.70312 139.81999 462.14062 140.10124Q462.79688 140.38249 463.1875 140.94499Q463.57812 141.49187 463.57812 142.19499Q463.57812 143.28874 462.82812 143.96062Q462.09375 144.61687 460.875 144.61687Q459.64062 144.61687 458.89062 143.96062Q458.15625 143.28874 458.15625 142.19499Q458.15625 141.49187 458.53125 140.94499Q458.90625 140.38249 459.57812 140.10124Q459.01562 139.81999 458.6875 139.31999Q458.35938 138.81999 458.35938 138.17937Q458.35938 137.10124 459.04688 136.47624Q459.73438 135.83562 460.875 135.83562Q462.0 135.83562 462.6875 136.47624Q463.39062 137.10124 463.39062 138.17937ZM462.5 142.16374Q462.5 141.44499 462.04688 141.00749Q461.59375 140.55437 460.85938 140.55437Q460.125 140.55437 459.67188 141.00749Q459.23438 141.44499 459.23438 142.17937Q459.23438 142.89812 459.67188 143.31999Q460.10938 143.72624 460.875 143.72624Q461.625 143.72624 462.0625 143.30437Q462.5 142.88249 462.5 142.16374ZM460.875 136.72624Q460.23438 136.72624 459.82812 137.13249Q459.4375 137.52312 459.4375 138.21062Q459.4375 138.85124 459.82812 139.25749Q460.21875 139.66374 460.85938 139.66374Q461.51562 139.66374 461.90625 139.25749Q462.29688 138.85124 462.29688 138.21062Q462.29688 137.55437 461.89062 137.14812Q461.48438 136.72624 460.875 136.72624ZM467.45312 140.46062L468.85938 138.14812L470.125 138.14812L468.04688 141.28874L470.1875 144.49187L468.9375 144.49187L467.46875 142.11687L466.0 144.49187L464.73438 144.49187L466.875 141.28874L464.8125 138.14812L466.0625 138.14812L467.45312 140.46062Z" fill-rule="nonzero"/><path fill="#000000" d="M446.79688 144.49187L441.20312 144.49187L441.20312 143.71062L444.15625 140.42937Q444.8125 139.67937 445.0625 139.22624Q445.3125 138.75749 445.3125 138.25749Q445.3125 137.58562 444.90625 137.16374Q444.51562 136.72624 443.82812 136.72624Q443.03125 136.72624 442.57812 137.19499Q442.125 137.64812 442.125 138.47624L441.04688 138.47624Q441.04688 137.28874 441.79688 136.56999Q442.5625 135.83562 443.82812 135.83562Q445.03125 135.83562 445.71875 136.46062Q446.40625 137.08562 446.40625 138.13249Q446.40625 139.38249 444.79688 141.13249L442.51562 143.60124L446.79688 143.60124L446.79688 144.49187ZM453.71875 136.56999L450.1875 144.49187L449.04688 144.49187L452.5625 136.85124L447.95312 136.85124L447.95312 135.96062L453.71875 135.96062L453.71875 136.56999ZM455.34375 143.92937Q455.34375 143.64812 455.5 143.46062Q455.67188 143.27312 456.0 143.27312Q456.34375 143.27312 456.51562 143.46062Q456.6875 143.64812 456.6875 143.92937Q456.6875 144.19499 456.51562 144.38249Q456.34375 144.55437 456.0 144.55437Q455.67188 144.55437 455.5 144.38249Q455.34375 144.19499 455.34375 143.92937ZM463.39062 138.17937Q463.39062 138.81999 463.04688 139.31999Q462.70312 139.81999 462.14062 140.10124Q462.79688 140.38249 463.1875 140.94499Q463.57812 141.49187 463.57812 142.19499Q463.57812 143.28874 462.82812 143.96062Q462.09375 144.61687 460.875 144.61687Q459.64062 144.61687 458.89062 143.96062Q458.15625 143.28874 458.15625 142.19499Q458.15625 141.49187 458.53125 140.94499Q458.90625 140.38249 459.57812 140.10124Q459.01562 139.81999 458.6875 139.31999Q458.35938 138.81999 458.35938 138.17937Q458.35938 137.10124 459.04688 136.47624Q459.73438 135.83562 460.875 135.83562Q462.0 135.83562 462.6875 136.47624Q463.39062 137.10124 463.39062 138.17937ZM462.5 142.16374Q462.5 141.44499 462.04688 141.00749Q461.59375 140.55437 460.85938 140.55437Q460.125 140.55437 459.67188 141.00749Q459.23438 141.44499 459.23438 142.17937Q459.23438 142.89812 459.67188 143.31999Q460.10938 143.72624 460.875 143.72624Q461.625 143.72624 462.0625 143.30437Q462.5 142.88249 462.5 142.16374ZM460.875 136.72624Q460.23438 136.72624 459.82812 137.13249Q459.4375 137.52312 459.4375 138.21062Q459.4375 138.85124 459.82812 139.25749Q460.21875 139.66374 460.85938 139.66374Q461.51562 139.66374 461.90625 139.25749Q462.29688 138.85124 462.29688 138.21062Q462.29688 137.55437 461.89062 137.14812Q461.48438 136.72624 460.875 136.72624ZM467.45312 140.46062L468.85938 138.14812L470.125 138.14812L468.04688 141.28874L470.1875 144.49187L468.9375 144.49187L467.46875 142.11687L466.0 144.49187L464.73438 144.49187L466.875 141.28874L464.8125 138.14812L466.0625 138.14812L467.45312 140.46062Z" fill-rule="nonzero"/><path stroke="#3d5314" stroke-width="3.0" stroke-linejoin="round" stroke-linecap="round" d="M349.21875 286.51736L345.6875 294.43924L344.54688 294.43924L348.0625 286.7986L343.45312 286.7986L343.45312 285.908L349.21875 285.908L349.21875 286.51736ZM350.84375 293.87674Q350.84375 293.5955 351.0 293.408Q351.17188 293.2205 351.5 293.2205Q351.84375 293.2205 352.01562 293.408Q352.1875 293.5955 352.1875 293.87674Q352.1875 294.14236 352.01562 294.32986Q351.84375 294.50174 351.5 294.50174Q351.17188 294.50174 351.0 294.32986Q350.84375 294.14236 350.84375 293.87674ZM354.20312 290.158L354.64062 285.908L359.01562 285.908L359.01562 286.908L355.5625 286.908L355.29688 289.2361Q355.9375 288.8611 356.73438 288.8611Q357.89062 288.8611 358.57812 289.64236Q359.26562 290.408 359.26562 291.7205Q359.26562 293.033 358.54688 293.7986Q357.84375 294.56424 356.5625 294.56424Q355.4375 294.56424 354.71875 293.93924Q354.0 293.2986 353.90625 292.18924L354.92188 292.18924Q355.03125 292.9236 355.45312 293.2986Q355.875 293.6736 356.5625 293.6736Q357.3125 293.6736 357.75 293.158Q358.1875 292.64236 358.1875 291.7361Q358.1875 290.87674 357.71875 290.3611Q357.25 289.8455 356.46875 289.8455Q355.76562 289.8455 355.35938 290.14236L355.07812 290.37674L354.20312 290.158ZM362.95312 290.408L364.35938 288.0955L365.625 288.0955L363.54688 291.2361L365.6875 294.43924L364.4375 294.43924L362.96875 292.06424L361.5 294.43924L360.23438 294.43924L362.375 291.2361L360.3125 288.0955L361.5625 288.0955L362.95312 290.408Z" fill-rule="nonzero"/><path fill="#ffffff" d="M349.21875 286.51736L345.6875 294.43924L344.54688 294.43924L348.0625 286.7986L343.45312 286.7986L343.45312 285.908L349.21875 285.908L349.21875 286.51736ZM350.84375 293.87674Q350.84375 293.5955 351.0 293.408Q351.17188 293.2205 351.5 293.2205Q351.84375 293.2205 352.01562 293.408Q352.1875 293.5955 352.1875 293.87674Q352.1875 294.14236 352.01562 294.32986Q351.84375 294.50174 351.5 294.50174Q351.17188 294.50174 351.0 294.32986Q350.84375 294.14236 350.84375 293.87674ZM354.20312 290.158L354.64062 285.908L359.01562 285.908L359.01562 286.908L355.5625 286.908L355.29688 289.2361Q355.9375 288.8611 356.73438 288.8611Q357.89062 288.8611 358.57812 289.64236Q359.26562 290.408 359.26562 291.7205Q359.26562 293.033 358.54688 293.7986Q357.84375 294.56424 356.5625 294.56424Q355.4375 294.56424 354.71875 293.93924Q354.0 293.2986 353.90625 292.18924L354.92188 292.18924Q355.03125 292.9236 355.45312 293.2986Q355.875 293.6736 356.5625 293.6736Q357.3125 293.6736 357.75 293.158Q358.1875 292.64236 358.1875 291.7361Q358.1875 290.87674 357.71875 290.3611Q357.25 289.8455 356.46875 289.8455Q355.76562 289.8455 355.35938 290.14236L355.07812 290.37674L354.20312 290.158ZM362.95312 290.408L364.35938 288.0955L365.625 288.0955L363.54688 291.2361L365.6875 294.43924L364.4375 294.43924L362.96875 292.06424L361.5 294.43924L360.23438 294.43924L362.375 291.2361L360.3125 288.0955L361.5625 288.0955L362.95312 290.408Z" fill-rule="nonzero"/><path stroke="#3d5314" stroke-width="3.0" stroke-linejoin="round" stroke-linecap="round" d="M495.79688 193.9427L490.20312 193.9427L490.20312 193.16145L493.15625 189.8802Q493.8125 189.1302 494.0625 188.67708Q494.3125 188.20833 494.3125 187.70833Q494.3125 187.03645 493.90625 186.61458Q493.51562 186.17708 492.82812 186.17708Q492.03125 186.17708 491.57812 186.64583Q491.125 187.09895 491.125 187.92708L490.04688 187.92708Q490.04688 186.73958 490.79688 186.02083Q491.5625 185.28645 492.82812 185.28645Q494.03125 185.28645 494.71875 185.91145Q495.40625 186.53645 495.40625 187.58333Q495.40625 188.83333 493.79688 190.58333L491.51562 193.05208L495.79688 193.05208L495.79688 193.9427ZM500.76562 193.9427L499.6875 193.9427L499.6875 186.72395L497.5 187.52083L497.5 186.53645L500.60938 185.36458L500.76562 185.36458L500.76562 193.9427ZM504.34375 193.3802Q504.34375 193.09895 504.5 192.91145Q504.67188 192.72395 505.0 192.72395Q505.34375 192.72395 505.51562 192.91145Q505.6875 193.09895 505.6875 193.3802Q505.6875 193.64583 505.51562 193.83333Q505.34375 194.0052 505.0 194.0052Q504.67188 194.0052 504.5 193.83333Q504.34375 193.64583 504.34375 193.3802ZM510.76562 193.9427L509.6875 193.9427L509.6875 186.72395L507.5 187.52083L507.5 186.53645L510.60938 185.36458L510.76562 185.36458L510.76562 193.9427ZM516.4531 189.91145L517.8594 187.59895L519.125 187.59895L517.0469 190.73958L519.1875 193.9427L517.9375 193.9427L516.46875 191.5677L515.0 193.9427L513.7344 193.9427L515.875 190.73958L513.8125 187.59895L515.0625 187.59895L516.4531 189.91145Z" fill-rule="nonzero"/><path fill="#ffffff" d="M495.79688 193.9427L490.20312 193.9427L490.20312 193.16145L493.15625 189.8802Q493.8125 189.1302 494.0625 188.67708Q494.3125 188.20833 494.3125 187.70833Q494.3125 187.03645 493.90625 186.61458Q493.51562 186.17708 492.82812 186.17708Q492.03125 186.17708 491.57812 186.64583Q491.125 187.09895 491.125 187.92708L490.04688 187.92708Q490.04688 186.73958 490.79688 186.02083Q491.5625 185.28645 492.82812 185.28645Q494.03125 185.28645 494.71875 185.91145Q495.40625 186.53645 495.40625 187.58333Q495.40625 188.83333 493.79688 190.58333L491.51562 193.05208L495.79688 193.05208L495.79688 193.9427ZM500.76562 193.9427L499.6875 193.9427L499.6875 186.72395L497.5 187.52083L497.5 186.53645L500.60938 185.36458L500.76562 185.36458L500.76562 193.9427ZM504.34375 193.3802Q504.34375 193.09895 504.5 192.91145Q504.67188 192.72395 505.0 192.72395Q505.34375 192.72395 505.51562 192.91145Q505.6875 193.09895 505.6875 193.3802Q505.6875 193.64583 505.51562 193.83333Q505.34375 194.0052 505.0 194.0052Q504.67188 194.0052 504.5 193.83333Q504.34375 193.64583 504.34375 193.3802ZM510.76562 193.9427L509.6875 193.9427L509.6875 186.72395L507.5 187.52083L507.5 186.53645L510.60938 185.36458L510.76562 185.36458L510.76562 193.9427ZM516.4531 189.91145L517.8594 187.59895L519.125 187.59895L517.0469 190.73958L519.1875 193.9427L517.9375 193.9427L516.46875 191.5677L515.0 193.9427L513.7344 193.9427L515.875 190.73958L513.8125 187.59895L515.0625 187.59895L516.4531 189.91145Z" fill-rule="nonzero"/><path fill="#000000" d="M26.784388 319.5698L26.690638 318.5073Q27.346888 318.42917 27.753138 318.14792Q28.159388 317.86667 28.425013 317.28854Q28.675013 316.6948 28.675013 315.96042Q28.675013 315.3198 28.487513 314.8198Q28.284388 314.3198 27.956263 314.08542Q27.612513 313.83542 27.221888 313.83542Q26.815638 313.83542 26.518763 314.0698Q26.206263 314.30417 26.003138 314.83542Q25.862513 315.1948 25.581263 316.3823Q25.300013 317.55417 25.050013 318.02292Q24.721888 318.64792 24.253138 318.9448Q23.768763 319.24167 23.175013 319.24167Q22.534388 319.24167 21.971888 318.8823Q21.393763 318.5073 21.112513 317.80417Q20.815638 317.08542 20.815638 316.22604Q20.815638 315.27292 21.128138 314.53854Q21.425013 313.80417 22.034388 313.41354Q22.628138 313.02292 23.378138 312.99167L23.456263 314.08542Q22.643763 314.17917 22.237513 314.6948Q21.815638 315.1948 21.815638 316.17917Q21.815638 317.21042 22.190638 317.67917Q22.565638 318.14792 23.096888 318.14792Q23.565638 318.14792 23.862513 317.8198Q24.159388 317.49167 24.471888 316.11667Q24.784388 314.72604 25.018763 314.21042Q25.378138 313.46042 25.909388 313.10104Q26.425013 312.74167 27.128138 312.74167Q27.815638 312.74167 28.425013 313.1323Q29.018763 313.52292 29.362513 314.2573Q29.690638 314.99167 29.690638 315.91354Q29.690638 317.08542 29.362513 317.8823Q29.018763 318.66354 28.331263 319.11667Q27.643763 319.55417 26.784388 319.5698ZM31.940638 311.3198L23.331263 311.3198L23.331263 310.36667L24.128138 310.36667Q23.659388 310.02292 23.425013 309.60104Q23.190638 309.16354 23.190638 308.55417Q23.190638 307.7573 23.596888 307.14792Q24.003138 306.53854 24.753138 306.24167Q25.503138 305.92917 26.393763 305.92917Q27.346888 305.92917 28.112513 306.27292Q28.878138 306.60104 29.284388 307.2573Q29.690638 307.91354 29.690638 308.6323Q29.690638 309.16354 29.471888 309.58542Q29.237513 310.0073 28.909388 310.27292L31.940638 310.27292L31.940638 311.3198ZM26.471888 310.36667Q27.675013 310.36667 28.253138 309.8823Q28.815638 309.39792 28.815638 308.71042Q28.815638 308.0073 28.221888 307.5073Q27.628138 307.0073 26.378138 307.0073Q25.190638 307.0073 24.612513 307.49167Q24.018763 307.97604 24.018763 308.66354Q24.018763 309.33542 24.643763 309.85104Q25.268763 310.36667 26.471888 310.36667ZM27.550013 300.0698L27.675013 298.97604Q28.628138 299.22604 29.159388 299.92917Q29.690638 300.6323 29.690638 301.71042Q29.690638 303.0698 28.846888 303.8823Q28.003138 304.67917 26.487513 304.67917Q24.925013 304.67917 24.065638 303.86667Q23.190638 303.05417 23.190638 301.77292Q23.190638 300.52292 24.034388 299.74167Q24.878138 298.9448 26.425013 298.9448Q26.518763 298.9448 26.706263 298.9448L26.706263 303.58542Q27.737513 303.52292 28.284388 303.0073Q28.815638 302.49167 28.815638 301.71042Q28.815638 301.1323 28.518763 300.72604Q28.206263 300.30417 27.550013 300.0698ZM25.846888 303.52292L25.846888 300.05417Q25.050013 300.11667 24.659388 300.4448Q24.050013 300.96042 24.050013 301.7573Q24.050013 302.49167 24.534388 302.99167Q25.018763 303.47604 25.846888 303.52292ZM27.550013 293.0698L27.675013 291.97604Q28.628138 292.22604 29.159388 292.92917Q29.690638 293.6323 29.690638 294.71042Q29.690638 296.0698 28.846888 296.8823Q28.003138 297.67917 26.487513 297.67917Q24.925013 297.67917 24.065638 296.86667Q23.190638 296.05417 23.190638 294.77292Q23.190638 293.52292 24.034388 292.74167Q24.878138 291.9448 26.425013 291.9448Q26.518763 291.9448 26.706263 291.9448L26.706263 296.58542Q27.737513 296.52292 28.284388 296.0073Q28.815638 295.49167 28.815638 294.71042Q28.815638 294.1323 28.518763 293.72604Q28.206263 293.30417 27.550013 293.0698ZM25.846888 296.52292L25.846888 293.05417Q25.050013 293.11667 24.659388 293.4448Q24.050013 293.96042 24.050013 294.7573Q24.050013 295.49167 24.534388 295.99167Q25.018763 296.47604 25.846888 296.52292ZM29.550013 286.28854L28.768763 286.28854Q29.690638 286.8823 29.690638 288.02292Q29.690638 288.77292 29.284388 289.39792Q28.862513 290.02292 28.128138 290.36667Q27.393763 290.71042 26.440638 290.71042Q25.518763 290.71042 24.753138 290.39792Q23.987513 290.08542 23.596888 289.46042Q23.190638 288.83542 23.190638 288.0698Q23.190638 287.5073 23.425013 287.0698Q23.659388 286.6323 24.034388 286.35104L20.956263 286.35104L20.956263 285.30417L29.550013 285.30417L29.550013 286.28854ZM26.440638 289.61667Q27.643763 289.61667 28.237513 289.11667Q28.815638 288.61667 28.815638 287.92917Q28.815638 287.24167 28.253138 286.7573Q27.690638 286.27292 26.534388 286.27292Q25.253138 286.27292 24.659388 286.77292Q24.065638 287.2573 24.065638 287.97604Q24.065638 288.67917 24.643763 289.14792Q25.206263 289.61667 26.440638 289.61667ZM29.550013 279.24167L28.628138 279.24167Q29.690638 279.97604 29.690638 281.22604Q29.690638 281.77292 29.487513 282.2573Q29.268763 282.72604 28.956263 282.96042Q28.628138 283.1948 28.159388 283.28854Q27.862513 283.35104 27.175013 283.35104L23.331263 283.35104L23.331263 282.28854L26.784388 282.28854Q27.596888 282.28854 27.893763 282.22604Q28.300013 282.1323 28.550013 281.8198Q28.784388 281.49167 28.784388 281.0073Q28.784388 280.53854 28.550013 280.1323Q28.300013 279.71042 27.878138 279.53854Q27.456263 279.35104 26.659388 279.35104L23.331263 279.35104L23.331263 278.30417L29.550013 278.30417L29.550013 279.24167ZM31.940638 276.3198L23.331263 276.3198L23.331263 275.36667L24.128138 275.36667Q23.659388 275.02292 23.425013 274.60104Q23.190638 274.16354 23.190638 273.55417Q23.190638 272.7573 23.596888 272.14792Q24.003138 271.53854 24.753138 271.24167Q25.503138 270.92917 26.393763 270.92917Q27.346888 270.92917 28.112513 271.27292Q28.878138 271.60104 29.284388 272.2573Q29.690638 272.91354 29.690638 273.6323Q29.690638 274.16354 29.471888 274.58542Q29.237513 275.0073 28.909388 275.27292L31.940638 275.27292L31.940638 276.3198ZM26.471888 275.36667Q27.675013 275.36667 28.253138 274.8823Q28.815638 274.39792 28.815638 273.71042Q28.815638 273.0073 28.221888 272.5073Q27.628138 272.0073 26.378138 272.0073Q25.190638 272.0073 24.612513 272.49167Q24.018763 272.97604 24.018763 273.66354Q24.018763 274.33542 24.643763 274.85104Q25.268763 275.36667 26.471888 275.36667ZM27.268763 262.2573L27.409388 261.22604Q28.471888 261.39792 29.081263 262.10104Q29.690638 262.80417 29.690638 263.8198Q29.690638 265.10104 28.862513 265.8823Q28.018763 266.64792 26.456263 266.64792Q25.456263 266.64792 24.706263 266.3198Q23.940638 265.97604 23.565638 265.30417Q23.190638 264.61667 23.190638 263.80417Q23.190638 262.80417 23.706263 262.16354Q24.206263 261.5073 25.159388 261.3198L25.315638 262.35104Q24.690638 262.49167 24.378138 262.86667Q24.050013 263.24167 24.050013 263.77292Q24.050013 264.5698 24.628138 265.0698Q25.190638 265.5698 26.425013 265.5698Q27.690638 265.5698 28.253138 265.08542Q28.815638 264.60104 28.815638 263.83542Q28.815638 263.21042 28.440638 262.80417Q28.065638 262.3823 27.268763 262.2573ZM26.440638 260.71042Q24.706263 260.71042 23.878138 259.7573Q23.190638 258.96042 23.190638 257.80417Q23.190638 256.52292 24.034388 255.71042Q24.862513 254.8823 26.346888 254.8823Q27.550013 254.8823 28.237513 255.24167Q28.925013 255.60104 29.315638 256.30417Q29.690638 256.99167 29.690638 257.80417Q29.690638 259.10104 28.862513 259.91354Q28.018763 260.71042 26.440638 260.71042ZM26.440638 259.6323Q27.628138 259.6323 28.221888 259.11667Q28.815638 258.58542 28.815638 257.80417Q28.815638 257.0073 28.221888 256.49167Q27.628138 255.97604 26.409388 255.97604Q25.253138 255.97604 24.659388 256.5073Q24.065638 257.02292 24.065638 257.80417Q24.065638 258.58542 24.659388 259.11667Q25.237513 259.6323 26.440638 259.6323ZM29.550013 253.3198L23.331263 253.3198L23.331263 252.3823L24.206263 252.3823Q23.737513 252.08542 23.471888 251.60104Q23.190638 251.11667 23.190638 250.49167Q23.190638 249.80417 23.471888 249.36667Q23.753138 248.91354 24.268763 248.74167Q23.190638 247.99167 23.190638 246.8198Q23.190638 245.8823 23.706263 245.39792Q24.206263 244.89792 25.284388 244.89792L29.550013 244.89792L29.550013 245.9448L25.628138 245.9448Q25.003138 245.9448 24.721888 246.05417Q24.440638 246.14792 24.268763 246.41354Q24.096888 246.67917 24.096888 247.05417Q24.096888 247.71042 24.534388 248.14792Q24.971888 248.5698 25.940638 248.5698L29.550013 248.5698L29.550013 249.6323L25.503138 249.6323Q24.800013 249.6323 24.456263 249.89792Q24.096888 250.14792 24.096888 250.72604Q24.096888 251.17917 24.331263 251.55417Q24.565638 251.92917 25.018763 252.10104Q25.471888 252.27292 26.315638 252.27292L29.550013 252.27292L29.550013 253.3198ZM31.940638 242.3198L23.331263 242.3198L23.331263 241.36667L24.128138 241.36667Q23.659388 241.02292 23.425013 240.60104Q23.190638 240.16354 23.190638 239.55417Q23.190638 238.7573 23.596888 238.14792Q24.003138 237.53854 24.753138 237.24167Q25.503138 236.92917 26.393763 236.92917Q27.346888 236.92917 28.112513 237.27292Q28.878138 237.60104 29.284388 238.2573Q29.690638 238.91354 29.690638 239.6323Q29.690638 240.16354 29.471888 240.58542Q29.237513 241.0073 28.909388 241.27292L31.940638 241.27292L31.940638 242.3198ZM26.471888 241.36667Q27.675013 241.36667 28.253138 240.8823Q28.815638 240.39792 28.815638 239.71042Q28.815638 239.0073 28.221888 238.5073Q27.628138 238.0073 26.378138 238.0073Q25.190638 238.0073 24.612513 238.49167Q24.018763 238.97604 24.018763 239.66354Q24.018763 240.33542 24.643763 240.85104Q25.268763 241.36667 26.471888 241.36667ZM28.784388 231.2573Q29.284388 231.85104 29.487513 232.39792Q29.690638 232.92917 29.690638 233.55417Q29.690638 234.58542 29.190638 235.1323Q28.690638 235.67917 27.909388 235.67917Q27.456263 235.67917 27.081263 235.47604Q26.690638 235.27292 26.471888 234.92917Q26.237513 234.58542 26.128138 234.16354Q26.034388 233.86667 25.956263 233.22604Q25.815638 231.96042 25.596888 231.35104Q25.378138 231.35104 25.331263 231.35104Q24.675013 231.35104 24.409388 231.64792Q24.065638 232.05417 24.065638 232.85104Q24.065638 233.58542 24.331263 233.9448Q24.581263 234.30417 25.237513 234.47604L25.096888 235.5073Q24.440638 235.36667 24.034388 235.03854Q23.628138 234.71042 23.409388 234.10104Q23.190638 233.49167 23.190638 232.6948Q23.190638 231.89792 23.378138 231.39792Q23.565638 230.89792 23.846888 230.66354Q24.128138 230.42917 24.565638 230.33542Q24.831263 230.28854 25.534388 230.28854L26.940638 230.28854Q28.409388 230.28854 28.800013 230.22604Q29.190638 230.14792 29.550013 229.9448L29.550013 231.05417Q29.221888 231.21042 28.784388 231.2573ZM26.425013 231.35104Q26.659388 231.92917 26.831263 233.0698Q26.925013 233.72604 27.050013 233.99167Q27.159388 234.2573 27.378138 234.41354Q27.596888 234.55417 27.878138 234.55417Q28.300013 234.55417 28.581263 234.24167Q28.862513 233.91354 28.862513 233.30417Q28.862513 232.6948 28.596888 232.22604Q28.331263 231.74167 27.862513 231.52292Q27.503138 231.35104 26.815638 231.35104L26.425013 231.35104ZM29.550013 228.33542L23.331263 228.33542L23.331263 227.3823L24.268763 227.3823Q23.612513 227.02292 23.409388 226.72604Q23.190638 226.41354 23.190638 226.03854Q23.190638 225.5073 23.518763 224.96042L24.503138 225.3198Q24.268763 225.71042 24.268763 226.08542Q24.268763 226.4448 24.487513 226.72604Q24.690638 226.99167 25.065638 227.10104Q25.628138 227.28854 26.284388 227.28854L29.550013 227.28854L29.550013 228.33542ZM27.550013 220.0698L27.675013 218.97604Q28.628138 219.22604 29.159388 219.92917Q29.690638 220.6323 29.690638 221.71042Q29.690638 223.0698 28.846888 223.8823Q28.003138 224.67917 26.487513 224.67917Q24.925013 224.67917 24.065638 223.86667Q23.190638 223.05417 23.190638 221.77292Q23.190638 220.52292 24.034388 219.74167Q24.878138 218.9448 26.425013 218.9448Q26.518763 218.9448 26.706263 218.9448L26.706263 223.58542Q27.737513 223.52292 28.284388 223.0073Q28.815638 222.49167 28.815638 221.71042Q28.815638 221.1323 28.518763 220.72604Q28.206263 220.30417 27.550013 220.0698ZM25.846888 223.52292L25.846888 220.05417Q25.050013 220.11667 24.659388 220.4448Q24.050013 220.96042 24.050013 221.7573Q24.050013 222.49167 24.534388 222.99167Q25.018763 223.47604 25.846888 223.52292ZM29.550013 213.28854L28.768763 213.28854Q29.690638 213.8823 29.690638 215.02292Q29.690638 215.77292 29.284388 216.39792Q28.862513 217.02292 28.128138 217.36667Q27.393763 217.71042 26.440638 217.71042Q25.518763 217.71042 24.753138 217.39792Q23.987513 217.08542 23.596888 216.46042Q23.190638 215.83542 23.190638 215.0698Q23.190638 214.5073 23.425013 214.0698Q23.659388 213.6323 24.034388 213.35104L20.956263 213.35104L20.956263 212.30417L29.550013 212.30417L29.550013 213.28854ZM26.440638 216.61667Q27.643763 216.61667 28.237513 216.11667Q28.815638 215.61667 28.815638 214.92917Q28.815638 214.24167 28.253138 213.7573Q27.690638 213.27292 26.534388 213.27292Q25.253138 213.27292 24.659388 213.77292Q24.065638 214.2573 24.065638 214.97604Q24.065638 215.67917 24.643763 216.14792Q25.206263 216.61667 26.440638 216.61667ZM28.612513 205.02292L29.534388 204.86667Q29.628138 205.3198 29.628138 205.66354Q29.628138 206.24167 29.456263 206.55417Q29.268763 206.86667 28.971888 207.0073Q28.675013 207.1323 27.721888 207.1323L24.143763 207.1323L24.143763 207.89792L23.331263 207.89792L23.331263 207.1323L21.784388 207.1323L21.159388 206.08542L23.331263 206.08542L23.331263 205.02292L24.143763 205.02292L24.143763 206.08542L27.784388 206.08542Q28.237513 206.08542 28.362513 206.03854Q28.487513 205.97604 28.565638 205.85104Q28.643763 205.72604 28.643763 205.49167Q28.643763 205.30417 28.612513 205.02292ZM26.440638 204.71042Q24.706263 204.71042 23.878138 203.7573Q23.190638 202.96042 23.190638 201.80417Q23.190638 200.52292 24.034388 199.71042Q24.862513 198.8823 26.346888 198.8823Q27.550013 198.8823 28.237513 199.24167Q28.925013 199.60104 29.315638 200.30417Q29.690638 200.99167 29.690638 201.80417Q29.690638 203.10104 28.862513 203.91354Q28.018763 204.71042 26.440638 204.71042ZM26.440638 203.6323Q27.628138 203.6323 28.221888 203.11667Q28.815638 202.58542 28.815638 201.80417Q28.815638 201.0073 28.221888 200.49167Q27.628138 199.97604 26.409388 199.97604Q25.253138 199.97604 24.659388 200.5073Q24.065638 201.02292 24.065638 201.80417Q24.065638 202.58542 24.659388 203.11667Q25.237513 203.6323 26.440638 203.6323ZM29.550013 194.0698L24.143763 194.0698L24.143763 195.0073L23.331263 195.0073L23.331263 194.0698L22.659388 194.0698Q22.034388 194.0698 21.737513 193.96042Q21.315638 193.80417 21.065638 193.42917Q20.815638 193.03854 20.815638 192.35104Q20.815638 191.89792 20.925013 191.36667L21.831263 191.52292Q21.784388 191.85104 21.784388 192.14792Q21.784388 192.6323 21.987513 192.83542Q22.190638 193.02292 22.753138 193.02292L23.331263 193.02292L23.331263 191.80417L24.143763 191.80417L24.143763 193.02292L29.550013 193.02292L29.550013 194.0698ZM29.550013 191.33542L23.331263 191.33542L23.331263 190.3823L24.268763 190.3823Q23.612513 190.02292 23.409388 189.72604Q23.190638 189.41354 23.190638 189.03854Q23.190638 188.5073 23.518763 187.96042L24.503138 188.3198Q24.268763 188.71042 24.268763 189.08542Q24.268763 189.4448 24.487513 189.72604Q24.690638 189.99167 25.065638 190.10104Q25.628138 190.28854 26.284388 190.28854L29.550013 190.28854L29.550013 191.33542ZM28.784388 183.2573Q29.284388 183.85104 29.487513 184.39792Q29.690638 184.92917 29.690638 185.55417Q29.690638 186.58542 29.190638 187.1323Q28.690638 187.67917 27.909388 187.67917Q27.456263 187.67917 27.081263 187.47604Q26.690638 187.27292 26.471888 186.92917Q26.237513 186.58542 26.128138 186.16354Q26.034388 185.86667 25.956263 185.22604Q25.815638 183.96042 25.596888 183.35104Q25.378138 183.35104 25.331263 183.35104Q24.675013 183.35104 24.409388 183.64792Q24.065638 184.05417 24.065638 184.85104Q24.065638 185.58542 24.331263 185.9448Q24.581263 186.30417 25.237513 186.47604L25.096888 187.5073Q24.440638 187.36667 24.034388 187.03854Q23.628138 186.71042 23.409388 186.10104Q23.190638 185.49167 23.190638 184.6948Q23.190638 183.89792 23.378138 183.39792Q23.565638 182.89792 23.846888 182.66354Q24.128138 182.42917 24.565638 182.33542Q24.831263 182.28854 25.534388 182.28854L26.940638 182.28854Q28.409388 182.28854 28.800013 182.22604Q29.190638 182.14792 29.550013 181.9448L29.550013 183.05417Q29.221888 183.21042 28.784388 183.2573ZM26.425013 183.35104Q26.659388 183.92917 26.831263 185.0698Q26.925013 185.72604 27.050013 185.99167Q27.159388 186.2573 27.378138 186.41354Q27.596888 186.55417 27.878138 186.55417Q28.300013 186.55417 28.581263 186.24167Q28.862513 185.91354 28.862513 185.30417Q28.862513 184.6948 28.596888 184.22604Q28.331263 183.74167 27.862513 183.52292Q27.503138 183.35104 26.815638 183.35104L26.425013 183.35104ZM29.550013 180.3198L23.331263 180.3198L23.331263 179.3823L24.206263 179.3823Q23.737513 179.08542 23.471888 178.60104Q23.190638 178.11667 23.190638 177.49167Q23.190638 176.80417 23.471888 176.36667Q23.753138 175.91354 24.268763 175.74167Q23.190638 174.99167 23.190638 173.8198Q23.190638 172.8823 23.706263 172.39792Q24.206263 171.89792 25.284388 171.89792L29.550013 171.89792L29.550013 172.9448L25.628138 172.9448Q25.003138 172.9448 24.721888 173.05417Q24.440638 173.14792 24.268763 173.41354Q24.096888 173.67917 24.096888 174.05417Q24.096888 174.71042 24.534388 175.14792Q24.971888 175.5698 25.940638 175.5698L29.550013 175.5698L29.550013 176.6323L25.503138 176.6323Q24.800013 176.6323 24.456263 176.89792Q24.096888 177.14792 24.096888 177.72604Q24.096888 178.17917 24.331263 178.55417Q24.565638 178.92917 25.018763 179.10104Q25.471888 179.27292 26.315638 179.27292L29.550013 179.27292L29.550013 180.3198ZM27.550013 165.0698L27.675013 163.97604Q28.628138 164.22604 29.159388 164.92917Q29.690638 165.6323 29.690638 166.71042Q29.690638 168.0698 28.846888 168.8823Q28.003138 169.67917 26.487513 169.67917Q24.925013 169.67917 24.065638 168.86667Q23.190638 168.05417 23.190638 166.77292Q23.190638 165.52292 24.034388 164.74167Q24.878138 163.9448 26.425013 163.9448Q26.518763 163.9448 26.706263 163.9448L26.706263 168.58542Q27.737513 168.52292 28.284388 168.0073Q28.815638 167.49167 28.815638 166.71042Q28.815638 166.1323 28.518763 165.72604Q28.206263 165.30417 27.550013 165.0698ZM25.846888 168.52292L25.846888 165.05417Q25.050013 165.11667 24.659388 165.4448Q24.050013 165.96042 24.050013 166.7573Q24.050013 167.49167 24.534388 167.99167Q25.018763 168.47604 25.846888 168.52292ZM29.550013 161.17917L23.331263 163.08542L23.331263 161.99167L26.925013 161.0073L28.253138 160.6323Q28.159388 160.60104 26.971888 160.30417L23.331263 159.3198L23.331263 158.24167L26.940638 157.30417L28.128138 156.99167L26.925013 156.6323L23.331263 155.5698L23.331263 154.53854L29.550013 156.49167L29.550013 157.58542L25.815638 158.5698L24.768763 158.8198L29.550013 160.0698L29.550013 161.17917ZM26.440638 153.71042Q24.706263 153.71042 23.878138 152.7573Q23.190638 151.96042 23.190638 150.80417Q23.190638 149.52292 24.034388 148.71042Q24.862513 147.8823 26.346888 147.8823Q27.550013 147.8823 28.237513 148.24167Q28.925013 148.60104 29.315638 149.30417Q29.690638 149.99167 29.690638 150.80417Q29.690638 152.10104 28.862513 152.91354Q28.018763 153.71042 26.440638 153.71042ZM26.440638 152.6323Q27.628138 152.6323 28.221888 152.11667Q28.815638 151.58542 28.815638 150.80417Q28.815638 150.0073 28.221888 149.49167Q27.628138 148.97604 26.409388 148.97604Q25.253138 148.97604 24.659388 149.5073Q24.065638 150.02292 24.065638 150.80417Q24.065638 151.58542 24.659388 152.11667Q25.237513 152.6323 26.440638 152.6323ZM29.550013 146.33542L23.331263 146.33542L23.331263 145.3823L24.268763 145.3823Q23.612513 145.02292 23.409388 144.72604Q23.190638 144.41354 23.190638 144.03854Q23.190638 143.5073 23.518763 142.96042L24.503138 143.3198Q24.268763 143.71042 24.268763 144.08542Q24.268763 144.4448 24.487513 144.72604Q24.690638 144.99167 25.065638 145.10104Q25.628138 145.28854 26.284388 145.28854L29.550013 145.28854L29.550013 146.33542ZM29.550013 142.3198L20.956263 142.3198L20.956263 141.2573L25.862513 141.2573L23.331263 138.77292L23.331263 137.39792L25.628138 139.78854L29.550013 137.16354L29.550013 138.46042L26.362513 140.52292L27.081263 141.2573L29.550013 141.2573L29.550013 142.3198Z" fill-rule="nonzero"/><path fill="#000000" d="M60.05 332.21564Q60.05 330.6844 60.3625 329.7625Q60.675 328.825 61.284374 328.325Q61.909374 327.825 62.846874 327.825Q63.534374 327.825 64.05 328.10626Q64.58125 328.3875 64.925 328.91876Q65.26875 329.4344 65.45625 330.1844Q65.64375 330.9344 65.64375 332.21564Q65.64375 333.73126 65.33125 334.65314Q65.03438 335.575 64.40938 336.09064Q63.8 336.59064 62.846874 336.59064Q61.6125 336.59064 60.89375 335.7Q60.05 334.6375 60.05 332.21564ZM61.128124 332.21564Q61.128124 334.325 61.628124 335.02814Q62.128124 335.73126 62.846874 335.73126Q63.58125 335.73126 64.06563 335.02814Q64.56563 334.325 64.56563 332.21564Q64.56563 330.09064 64.06563 329.40314Q63.58125 328.7 62.83125 328.7Q62.1125 328.7 61.675 329.3094Q61.128124 330.09064 61.128124 332.21564ZM66.64375 336.45L68.90938 333.21564L66.81563 330.23126L68.12813 330.23126L69.08125 331.6844Q69.34688 332.10626 69.51875 332.3875Q69.76875 331.9969 69.9875 331.7L71.03438 330.23126L72.3 330.23126L70.14375 333.15314L72.45625 336.45L71.175 336.45L69.89375 334.5125L69.55 333.9969L67.90938 336.45L66.64375 336.45Z" fill-rule="nonzero"/><path fill="#000000" d="M57.01875 262.89444L55.971874 262.89444L55.971874 256.1757Q55.58125 256.53506 54.95625 256.91006Q54.346874 257.26944 53.8625 257.4413L53.8625 256.4257Q54.7375 256.0038 55.39375 255.42569Q56.065624 254.83194 56.346874 254.26944L57.01875 254.26944L57.01875 262.89444ZM60.05 258.66006Q60.05 257.1288 60.3625 256.20694Q60.675 255.26944 61.284374 254.76944Q61.909374 254.26944 62.846874 254.26944Q63.534374 254.26944 64.05 254.55069Q64.58125 254.83194 64.925 255.36319Q65.26875 255.87881 65.45625 256.6288Q65.64375 257.3788 65.64375 258.66006Q65.64375 260.1757 65.33125 261.09756Q65.03438 262.01944 64.40938 262.53506Q63.8 263.03506 62.846874 263.03506Q61.6125 263.03506 60.89375 262.14444Q60.05 261.08194 60.05 258.66006ZM61.128124 258.66006Q61.128124 260.76944 61.628124 261.47256Q62.128124 262.1757 62.846874 262.1757Q63.58125 262.1757 64.06563 261.47256Q64.56563 260.76944 64.56563 258.66006Q64.56563 256.53506 64.06563 255.84756Q63.58125 255.14444 62.83125 255.14444Q62.1125 255.14444 61.675 255.75381Q61.128124 256.53506 61.128124 258.66006ZM66.64375 262.89444L68.90938 259.66006L66.81563 256.6757L68.12813 256.6757L69.08125 258.1288Q69.34688 258.5507 69.51875 258.83194Q69.76875 258.4413 69.9875 258.14444L71.03438 256.6757L72.3 256.6757L70.14375 259.59756L72.45625 262.89444L71.175 262.89444L69.89375 260.95694L69.55 260.4413L67.90938 262.89444L66.64375 262.89444Z" fill-rule="nonzero"/><path fill="#000000" d="M58.596874 188.32326L58.596874 189.33888L52.909374 189.33888Q52.909374 188.96388 53.034374 188.6045Q53.253124 188.02638 53.721874 187.46388Q54.20625 186.90138 55.1125 186.167Q56.51875 185.01076 57.003124 184.33888Q57.503124 183.667 57.503124 183.07326Q57.503124 182.44826 57.05 182.02638Q56.596874 181.58888 55.878124 181.58888Q55.1125 181.58888 54.659374 182.042Q54.20625 182.49513 54.190624 183.30763L53.1125 183.19826Q53.221874 181.9795 53.940624 181.3545Q54.675 180.71388 55.909374 180.71388Q57.14375 180.71388 57.8625 181.40138Q58.58125 182.08888 58.58125 183.1045Q58.58125 183.62013 58.3625 184.12013Q58.159374 184.6045 57.659374 185.167Q57.175 185.71388 56.05 186.667Q55.096874 187.46388 54.815624 187.76076Q54.55 188.042 54.378124 188.32326L58.596874 188.32326ZM60.05 185.1045Q60.05 183.57326 60.3625 182.65138Q60.675 181.71388 61.284374 181.21388Q61.909374 180.71388 62.846874 180.71388Q63.534374 180.71388 64.05 180.99513Q64.58125 181.27638 64.925 181.80763Q65.26875 182.32326 65.45625 183.07326Q65.64375 183.82326 65.64375 185.1045Q65.64375 186.62013 65.33125 187.542Q65.03438 188.46388 64.40938 188.9795Q63.8 189.4795 62.846874 189.4795Q61.6125 189.4795 60.89375 188.58888Q60.05 187.52638 60.05 185.1045ZM61.128124 185.1045Q61.128124 187.21388 61.628124 187.917Q62.128124 188.62013 62.846874 188.62013Q63.58125 188.62013 64.06563 187.917Q64.56563 187.21388 64.56563 185.1045Q64.56563 182.9795 64.06563 182.292Q63.58125 181.58888 62.83125 181.58888Q62.1125 181.58888 61.675 182.19826Q61.128124 182.9795 61.128124 185.1045ZM66.64375 189.33888L68.90938 186.1045L66.81563 183.12013L68.12813 183.12013L69.08125 184.57326Q69.34688 184.99513 69.51875 185.27638Q69.76875 184.88576 69.9875 184.58888L71.03438 183.12013L72.3 183.12013L70.14375 186.042L72.45625 189.33888L71.175 189.33888L69.89375 187.40138L69.55 186.88576L67.90938 189.33888L66.64375 189.33888Z" fill-rule="nonzero"/><path fill="#000000" d="M53.05 113.51771L54.1125 113.37708Q54.284374 114.26771 54.721874 114.67396Q55.159374 115.06458 55.784374 115.06458Q56.534374 115.06458 57.05 114.54896Q57.565624 114.03333 57.565624 113.26771Q57.565624 112.54896 57.08125 112.08021Q56.6125 111.59583 55.878124 111.59583Q55.58125 111.59583 55.128124 111.72083L55.253124 110.78333Q55.3625 110.79896 55.425 110.79896Q56.096874 110.79896 56.628124 110.45521Q57.175 110.09583 57.175 109.36146Q57.175 108.78333 56.784374 108.40833Q56.39375 108.01771 55.76875 108.01771Q55.159374 108.01771 54.7375 108.40833Q54.33125 108.79896 54.221874 109.56458L53.159374 109.37708Q53.346874 108.33021 54.034374 107.75208Q54.721874 107.15833 55.7375 107.15833Q56.440624 107.15833 57.034374 107.47083Q57.628124 107.76771 57.940624 108.28333Q58.253124 108.79896 58.253124 109.39271Q58.253124 109.93958 57.95625 110.40833Q57.659374 110.86146 57.08125 111.12708Q57.83125 111.29896 58.253124 111.86146Q58.675 112.40833 58.675 113.25208Q58.675 114.37708 57.846874 115.15833Q57.034374 115.93958 55.784374 115.93958Q54.659374 115.93958 53.909374 115.26771Q53.159374 114.58021 53.05 113.51771ZM60.05 111.54896Q60.05 110.01771 60.3625 109.09583Q60.675 108.15833 61.284374 107.65833Q61.909374 107.15833 62.846874 107.15833Q63.534374 107.15833 64.05 107.43958Q64.58125 107.72083 64.925 108.25208Q65.26875 108.76771 65.45625 109.51771Q65.64375 110.26771 65.64375 111.54896Q65.64375 113.06458 65.33125 113.98646Q65.03438 114.90833 64.40938 115.42396Q63.8 115.92396 62.846874 115.92396Q61.6125 115.92396 60.89375 115.03333Q60.05 113.97083 60.05 111.54896ZM61.128124 111.54896Q61.128124 113.65833 61.628124 114.36146Q62.128124 115.06458 62.846874 115.06458Q63.58125 115.06458 64.06563 114.36146Q64.56563 113.65833 64.56563 111.54896Q64.56563 109.42396 64.06563 108.73646Q63.58125 108.03333 62.83125 108.03333Q62.1125 108.03333 61.675 108.64271Q61.128124 109.42396 61.128124 111.54896ZM66.64375 115.78333L68.90938 112.54896L66.81563 109.56458L68.12813 109.56458L69.08125 111.01771Q69.34688 111.43958 69.51875 111.72083Q69.76875 111.33021 69.9875 111.03333L71.03438 109.56458L72.3 109.56458L70.14375 112.48646L72.45625 115.78333L71.175 115.78333L69.89375 113.84583L69.55 113.33021L67.90938 115.78333L66.64375 115.78333Z" fill-rule="nonzero"/><path fill="#000000" d="M168.95709 349.45L168.95709 347.3875L165.23834 347.3875L165.23834 346.41876L169.16022 340.85626L170.01959 340.85626L170.01959 346.41876L171.17584 346.41876L171.17584 347.3875L170.01959 347.3875L170.01959 349.45L168.95709 349.45ZM168.95709 346.41876L168.95709 342.5594L166.26959 346.41876L168.95709 346.41876ZM172.58209 345.21564Q172.58209 343.6844 172.89459 342.7625Q173.20709 341.825 173.81647 341.325Q174.44147 340.825 175.37897 340.825Q176.06647 340.825 176.58209 341.10626Q177.11334 341.3875 177.45709 341.91876Q177.80084 342.4344 177.98834 343.1844Q178.17584 343.9344 178.17584 345.21564Q178.17584 346.73126 177.86334 347.65314Q177.56647 348.575 176.94147 349.09064Q176.33209 349.59064 175.37897 349.59064Q174.14459 349.59064 173.42584 348.7Q172.58209 347.6375 172.58209 345.21564ZM173.66022 345.21564Q173.66022 347.325 174.16022 348.02814Q174.66022 348.73126 175.37897 348.73126Q176.11334 348.73126 176.59772 348.02814Q177.09772 347.325 177.09772 345.21564Q177.09772 343.09064 176.59772 342.40314Q176.11334 341.7 175.36334 341.7Q174.64459 341.7 174.20709 342.3094Q173.66022 343.09064 173.66022 345.21564ZM179.73834 347.46564L180.75397 347.3719Q180.87897 348.09064 181.23834 348.41876Q181.61334 348.73126 182.17584 348.73126Q182.66022 348.73126 183.01959 348.5125Q183.39459 348.27814 183.62897 347.91876Q183.86334 347.54376 184.01959 346.91876Q184.17584 346.27814 184.17584 345.6219Q184.17584 345.54376 184.17584 345.40314Q183.86334 345.90314 183.31647 346.23126Q182.76959 346.54376 182.12897 346.54376Q181.05084 346.54376 180.31647 345.77814Q179.58209 344.9969 179.58209 343.73126Q179.58209 342.41876 180.34772 341.6219Q181.12897 340.825 182.28522 340.825Q183.11334 340.825 183.80084 341.27814Q184.50397 341.73126 184.86334 342.575Q185.22272 343.40314 185.22272 344.98126Q185.22272 346.6219 184.86334 347.60626Q184.51959 348.575 183.80084 349.09064Q183.09772 349.59064 182.16022 349.59064Q181.14459 349.59064 180.50397 349.04376Q179.86334 348.48126 179.73834 347.46564ZM184.05084 343.66876Q184.05084 342.7625 183.56647 342.23126Q183.09772 341.7 182.41022 341.7Q181.70709 341.7 181.17584 342.27814Q180.66022 342.84064 180.66022 343.7625Q180.66022 344.575 181.16022 345.09064Q181.66022 345.60626 182.37897 345.60626Q183.11334 345.60626 183.58209 345.09064Q184.05084 344.575 184.05084 343.66876ZM186.58209 345.21564Q186.58209 343.6844 186.89459 342.7625Q187.20709 341.825 187.81647 341.325Q188.44147 340.825 189.37897 340.825Q190.06647 340.825 190.58209 341.10626Q191.11334 341.3875 191.45709 341.91876Q191.80084 342.4344 191.98834 343.1844Q192.17584 343.9344 192.17584 345.21564Q192.17584 346.73126 191.86334 347.65314Q191.56647 348.575 190.94147 349.09064Q190.33209 349.59064 189.37897 349.59064Q188.14459 349.59064 187.42584 348.7Q186.58209 347.6375 186.58209 345.21564ZM187.66022 345.21564Q187.66022 347.325 188.16022 348.02814Q188.66022 348.73126 189.37897 348.73126Q190.11334 348.73126 190.59772 348.02814Q191.09772 347.325 191.09772 345.21564Q191.09772 343.09064 190.59772 342.40314Q190.11334 341.7 189.36334 341.7Q188.64459 341.7 188.20709 342.3094Q187.66022 343.09064 187.66022 345.21564Z" fill-rule="nonzero"/><path fill="#000000" d="M315.875 349.45L315.875 340.85626L317.01562 340.85626L317.01562 348.4344L321.25 348.4344L321.25 349.45L315.875 349.45ZM325.875 349.45L325.875 347.3875L322.15625 347.3875L322.15625 346.41876L326.07812 340.85626L326.9375 340.85626L326.9375 346.41876L328.09375 346.41876L328.09375 347.3875L326.9375 347.3875L326.9375 349.45L325.875 349.45ZM325.875 346.41876L325.875 342.5594L323.1875 346.41876L325.875 346.41876ZM329.5 345.21564Q329.5 343.6844 329.8125 342.7625Q330.125 341.825 330.73438 341.325Q331.35938 340.825 332.29688 340.825Q332.98438 340.825 333.5 341.10626Q334.03125 341.3875 334.375 341.91876Q334.71875 342.4344 334.90625 343.1844Q335.09375 343.9344 335.09375 345.21564Q335.09375 346.73126 334.78125 347.65314Q334.48438 348.575 333.85938 349.09064Q333.25 349.59064 332.29688 349.59064Q331.0625 349.59064 330.34375 348.7Q329.5 347.6375 329.5 345.21564ZM330.57812 345.21564Q330.57812 347.325 331.07812 348.02814Q331.57812 348.73126 332.29688 348.73126Q333.03125 348.73126 333.51562 348.02814Q334.01562 347.325 334.01562 345.21564Q334.01562 343.09064 333.51562 342.40314Q333.03125 341.7 332.28125 341.7Q331.5625 341.7 331.125 342.3094Q330.57812 343.09064 330.57812 345.21564ZM336.54688 346.6844L337.60938 346.59064Q337.6875 347.2469 337.96875 347.65314Q338.25 348.0594 338.82812 348.325Q339.42188 348.575 340.15625 348.575Q340.79688 348.575 341.29688 348.3875Q341.79688 348.1844 342.03125 347.85626Q342.28125 347.5125 342.28125 347.1219Q342.28125 346.71564 342.04688 346.41876Q341.8125 346.10626 341.28125 345.90314Q340.92188 345.7625 339.73438 345.48126Q338.5625 345.2 338.09375 344.95Q337.46875 344.6219 337.17188 344.15314Q336.875 343.66876 336.875 343.075Q336.875 342.4344 337.23438 341.8719Q337.60938 341.29376 338.3125 341.0125Q339.03125 340.71564 339.89062 340.71564Q340.84375 340.71564 341.57812 341.02814Q342.3125 341.325 342.70312 341.9344Q343.09375 342.52814 343.125 343.27814L342.03125 343.35626Q341.9375 342.54376 341.42188 342.1375Q340.92188 341.71564 339.9375 341.71564Q338.90625 341.71564 338.4375 342.09064Q337.96875 342.46564 337.96875 342.9969Q337.96875 343.46564 338.29688 343.7625Q338.625 344.0594 340.0 344.3719Q341.39062 344.6844 341.90625 344.91876Q342.65625 345.27814 343.01562 345.8094Q343.375 346.325 343.375 347.02814Q343.375 347.71564 342.98438 348.325Q342.59375 348.91876 341.85938 349.2625Q341.125 349.59064 340.20312 349.59064Q339.03125 349.59064 338.23438 349.2625Q337.45312 348.91876 337.0 348.23126Q336.5625 347.54376 336.54688 346.6844Z" fill-rule="nonzero"/><path fill="#000000" d="M465.88666 349.45L465.88666 340.85626L467.01166 340.85626L467.01166 344.3875L471.4804 344.3875L471.4804 340.85626L472.62103 340.85626L472.62103 349.45L471.4804 349.45L471.4804 345.40314L467.01166 345.40314L467.01166 349.45L465.88666 349.45ZM478.38666 349.45L477.33978 349.45L477.33978 342.73126Q476.94916 343.09064 476.32416 343.46564Q475.71478 343.825 475.2304 343.9969L475.2304 342.98126Q476.1054 342.5594 476.76166 341.98126Q477.43353 341.3875 477.71478 340.825L478.38666 340.825L478.38666 349.45ZM481.4179 345.21564Q481.4179 343.6844 481.7304 342.7625Q482.0429 341.825 482.65228 341.325Q483.27728 340.825 484.21478 340.825Q484.90228 340.825 485.4179 341.10626Q485.94916 341.3875 486.2929 341.91876Q486.63666 342.4344 486.82416 343.1844Q487.01166 343.9344 487.01166 345.21564Q487.01166 346.73126 486.69916 347.65314Q486.40228 348.575 485.77728 349.09064Q485.1679 349.59064 484.21478 349.59064Q482.9804 349.59064 482.26166 348.7Q481.4179 347.6375 481.4179 345.21564ZM482.49603 345.21564Q482.49603 347.325 482.99603 348.02814Q483.49603 348.73126 484.21478 348.73126Q484.94916 348.73126 485.43353 348.02814Q485.93353 347.325 485.93353 345.21564Q485.93353 343.09064 485.43353 342.40314Q484.94916 341.7 484.19916 341.7Q483.4804 341.7 483.0429 342.3094Q482.49603 343.09064 482.49603 345.21564ZM488.4179 345.21564Q488.4179 343.6844 488.7304 342.7625Q489.0429 341.825 489.65228 341.325Q490.27728 340.825 491.21478 340.825Q491.90228 340.825 492.4179 341.10626Q492.94916 341.3875 493.2929 341.91876Q493.63666 342.4344 493.82416 343.1844Q494.01166 343.9344 494.01166 345.21564Q494.01166 346.73126 493.69916 347.65314Q493.40228 348.575 492.77728 349.09064Q492.1679 349.59064 491.21478 349.59064Q489.9804 349.59064 489.26166 348.7Q488.4179 347.6375 488.4179 345.21564ZM489.49603 345.21564Q489.49603 347.325 489.99603 348.02814Q490.49603 348.73126 491.21478 348.73126Q491.94916 348.73126 492.43353 348.02814Q492.93353 347.325 492.93353 345.21564Q492.93353 343.09064 492.43353 342.40314Q491.94916 341.7 491.19916 341.7Q490.4804 341.7 490.0429 342.3094Q489.49603 343.09064 489.49603 345.21564Z" fill-rule="nonzero"/><path fill="#85b737" d="M188.5 80.416664C188.5 79.86438 188.94771 79.416664 189.5 79.416664L199.5 79.416664C200.05229 79.416664 200.5 79.86438 200.5 80.416664L200.5 90.416664C200.5 90.96895 200.05229 91.416664 199.5 91.416664L189.5 91.416664C188.94771 91.416664 188.5 90.96895 188.5 90.416664Z" fill-rule="nonzero"/><path fill="#1a1a1a" d="M209.375 89.416664L209.375 80.822914L210.51562 80.822914L210.51562 88.40104L214.75 88.40104L214.75 89.416664L209.375 89.416664ZM216.375 89.416664L216.375 80.822914L217.51562 80.822914L217.51562 88.40104L221.75 88.40104L221.75 89.416664L216.375 89.416664ZM227.35938 88.65104Q226.76562 89.15104 226.21875 89.354164Q225.6875 89.55729 225.0625 89.55729Q224.03125 89.55729 223.48438 89.05729Q222.9375 88.55729 222.9375 87.77604Q222.9375 87.322914 223.14062 86.947914Q223.34375 86.55729 223.6875 86.33854Q224.03125 86.104164 224.45312 85.99479Q224.75 85.90104 225.39062 85.822914Q226.65625 85.68229 227.26562 85.46354Q227.26562 85.24479 227.26562 85.197914Q227.26562 84.541664 226.96875 84.27604Q226.5625 83.93229 225.76562 83.93229Q225.03125 83.93229 224.67188 84.197914Q224.3125 84.447914 224.14062 85.104164L223.10938 84.96354Q223.25 84.30729 223.57812 83.90104Q223.90625 83.49479 224.51562 83.27604Q225.125 83.05729 225.92188 83.05729Q226.71875 83.05729 227.21875 83.24479Q227.71875 83.43229 227.95312 83.71354Q228.1875 83.99479 228.28125 84.43229Q228.32812 84.697914 228.32812 85.40104L228.32812 86.80729Q228.32812 88.27604 228.39062 88.666664Q228.46875 89.05729 228.67188 89.416664L227.5625 89.416664Q227.40625 89.08854 227.35938 88.65104ZM227.26562 86.291664Q226.6875 86.52604 225.54688 86.697914Q224.89062 86.791664 224.625 86.916664Q224.35938 87.02604 224.20312 87.24479Q224.0625 87.46354 224.0625 87.74479Q224.0625 88.166664 224.375 88.447914Q224.70312 88.729164 225.3125 88.729164Q225.92188 88.729164 226.39062 88.46354Q226.875 88.197914 227.09375 87.729164Q227.26562 87.36979 227.26562 86.68229L227.26562 86.291664ZM230.39062 89.416664L230.39062 80.822914L232.10938 80.822914L234.14062 86.90104Q234.42188 87.760414 234.54688 88.18229Q234.6875 87.71354 235.0 86.80729L237.0625 80.822914L238.59375 80.822914L238.59375 89.416664L237.5 89.416664L237.5 82.229164L235.0 89.416664L233.96875 89.416664L231.48438 82.104164L231.48438 89.416664L230.39062 89.416664ZM238.48438 89.416664L241.78125 80.822914L243.0 80.822914L246.51562 89.416664L245.23438 89.416664L244.21875 86.80729L240.64062 86.80729L239.6875 89.416664L238.48438 89.416664ZM240.96875 85.885414L243.875 85.885414L242.98438 83.510414Q242.5625 82.43229 242.375 81.729164Q242.20312 82.55729 241.90625 83.36979L240.96875 85.885414ZM245.875 86.83854L245.875 85.77604L249.125 85.77604L249.125 86.83854L245.875 86.83854ZM255.54688 88.40104L255.54688 89.416664L249.85938 89.416664Q249.85938 89.041664 249.98438 88.68229Q250.20312 88.104164 250.67188 87.541664Q251.15625 86.979164 252.0625 86.24479Q253.46875 85.08854 253.95312 84.416664Q254.45312 83.74479 254.45312 83.15104Q254.45312 82.52604 254.0 82.104164Q253.54688 81.666664 252.82812 81.666664Q252.0625 81.666664 251.60938 82.11979Q251.15625 82.572914 251.14062 83.385414L250.0625 83.27604Q250.17188 82.05729 250.89062 81.43229Q251.625 80.791664 252.85938 80.791664Q254.09375 80.791664 254.8125 81.479164Q255.53125 82.166664 255.53125 83.18229Q255.53125 83.697914 255.3125 84.197914Q255.10938 84.68229 254.60938 85.24479Q254.125 85.791664 253.0 86.74479Q252.04688 87.541664 251.76562 87.83854Q251.5 88.11979 251.32812 88.40104L255.54688 88.40104ZM256.875 86.83854L256.875 85.77604L260.125 85.77604L260.125 86.83854L256.875 86.83854ZM261.0625 81.947914L261.0625 80.93229L266.625 80.93229L266.625 81.760414Q265.8125 82.635414 265.0 84.08854Q264.20312 85.52604 263.76562 87.05729Q263.4375 88.135414 263.35938 89.416664L262.26562 89.416664Q262.28125 88.40104 262.65625 86.96354Q263.04688 85.52604 263.75 84.197914Q264.46875 82.86979 265.28125 81.947914L261.0625 81.947914ZM269.26562 89.416664L268.28125 89.416664L268.28125 80.822914L269.34375 80.822914L269.34375 83.885414Q270.01562 83.05729 271.04688 83.05729Q271.625 83.05729 272.125 83.291664Q272.64062 83.510414 272.96875 83.93229Q273.3125 84.354164 273.5 84.947914Q273.6875 85.541664 273.6875 86.21354Q273.6875 87.80729 272.89062 88.68229Q272.09375 89.55729 271.0 89.55729Q269.89062 89.55729 269.26562 88.635414L269.26562 89.416664ZM269.25 86.260414Q269.25 87.36979 269.5625 87.86979Q270.0625 88.68229 270.90625 88.68229Q271.59375 88.68229 272.09375 88.08854Q272.60938 87.49479 272.60938 86.291664Q272.60938 85.072914 272.125 84.49479Q271.64062 83.916664 270.95312 83.916664Q270.26562 83.916664 269.75 84.52604Q269.25 85.11979 269.25 86.260414ZM274.875 86.83854L274.875 85.77604L278.125 85.77604L278.125 86.83854L274.875 86.83854ZM279.29688 89.416664L279.29688 80.822914L280.34375 80.822914L280.34375 83.90104Q281.07812 83.05729 282.20312 83.05729Q282.90625 83.05729 283.40625 83.33854Q283.92188 83.604164 284.14062 84.08854Q284.35938 84.55729 284.35938 85.479164L284.35938 89.416664L283.3125 89.416664L283.3125 85.479164Q283.3125 84.68229 282.96875 84.322914Q282.625 83.96354 282.0 83.96354Q281.53125 83.96354 281.10938 84.21354Q280.70312 84.447914 280.51562 84.86979Q280.34375 85.27604 280.34375 86.010414L280.34375 89.416664L279.29688 89.416664ZM286.54688 89.416664L286.54688 84.010414L285.60938 84.010414L285.60938 83.197914L286.54688 83.197914L286.54688 82.52604Q286.54688 81.90104 286.65625 81.604164Q286.8125 81.18229 287.1875 80.93229Q287.57812 80.68229 288.26562 80.68229Q288.71875 80.68229 289.25 80.791664L289.09375 81.697914Q288.76562 81.65104 288.46875 81.65104Q287.98438 81.65104 287.78125 81.854164Q287.59375 82.05729 287.59375 82.61979L287.59375 83.197914L288.8125 83.197914L288.8125 84.010414L287.59375 84.010414L287.59375 89.416664L286.54688 89.416664Z" fill-rule="nonzero"/><path fill="#3d5314" d="M304.5 80.416664C304.5 79.86438 304.94772 79.416664 305.5 79.416664L315.5 79.416664C316.05228 79.416664 316.5 79.86438 316.5 80.416664L316.5 90.416664C316.5 90.96895 316.05228 91.416664 315.5 91.416664L305.5 91.416664C304.94772 91.416664 304.5 90.96895 304.5 90.416664Z" fill-rule="nonzero"/><path fill="#1a1a1a" d="M325.375 89.416664L325.375 80.822914L326.51562 80.822914L326.51562 88.40104L330.75 88.40104L330.75 89.416664L325.375 89.416664ZM332.375 89.416664L332.375 80.822914L333.51562 80.822914L333.51562 88.40104L337.75 88.40104L337.75 89.416664L332.375 89.416664ZM343.35938 88.65104Q342.76562 89.15104 342.21875 89.354164Q341.6875 89.55729 341.0625 89.55729Q340.03125 89.55729 339.48438 89.05729Q338.9375 88.55729 338.9375 87.77604Q338.9375 87.322914 339.14062 86.947914Q339.34375 86.55729 339.6875 86.33854Q340.03125 86.104164 340.45312 85.99479Q340.75 85.90104 341.39062 85.822914Q342.65625 85.68229 343.26562 85.46354Q343.26562 85.24479 343.26562 85.197914Q343.26562 84.541664 342.96875 84.27604Q342.5625 83.93229 341.76562 83.93229Q341.03125 83.93229 340.67188 84.197914Q340.3125 84.447914 340.14062 85.104164L339.10938 84.96354Q339.25 84.30729 339.57812 83.90104Q339.90625 83.49479 340.51562 83.27604Q341.125 83.05729 341.92188 83.05729Q342.71875 83.05729 343.21875 83.24479Q343.71875 83.43229 343.95312 83.71354Q344.1875 83.99479 344.28125 84.43229Q344.32812 84.697914 344.32812 85.40104L344.32812 86.80729Q344.32812 88.27604 344.39062 88.666664Q344.46875 89.05729 344.67188 89.416664L343.5625 89.416664Q343.40625 89.08854 343.35938 88.65104ZM343.26562 86.291664Q342.6875 86.52604 341.54688 86.697914Q340.89062 86.791664 340.625 86.916664Q340.35938 87.02604 340.20312 87.24479Q340.0625 87.46354 340.0625 87.74479Q340.0625 88.166664 340.375 88.447914Q340.70312 88.729164 341.3125 88.729164Q341.92188 88.729164 342.39062 88.46354Q342.875 88.197914 343.09375 87.729164Q343.26562 87.36979 343.26562 86.68229L343.26562 86.291664ZM346.39062 89.416664L346.39062 80.822914L348.10938 80.822914L350.14062 86.90104Q350.42188 87.760414 350.54688 88.18229Q350.6875 87.71354 351.0 86.80729L353.0625 80.822914L354.59375 80.822914L354.59375 89.416664L353.5 89.416664L353.5 82.229164L351.0 89.416664L349.96875 89.416664L347.48438 82.104164L347.48438 89.416664L346.39062 89.416664ZM354.48438 89.416664L357.78125 80.822914L359.0 80.822914L362.51562 89.416664L361.23438 89.416664L360.21875 86.80729L356.64062 86.80729L355.6875 89.416664L354.48438 89.416664ZM356.96875 85.885414L359.875 85.885414L358.98438 83.510414Q358.5625 82.43229 358.375 81.729164Q358.20312 82.55729 357.90625 83.36979L356.96875 85.885414ZM361.875 86.83854L361.875 85.77604L365.125 85.77604L365.125 86.83854L361.875 86.83854ZM371.54688 88.40104L371.54688 89.416664L365.85938 89.416664Q365.85938 89.041664 365.98438 88.68229Q366.20312 88.104164 366.67188 87.541664Q367.15625 86.979164 368.0625 86.24479Q369.46875 85.08854 369.95312 84.416664Q370.45312 83.74479 370.45312 83.15104Q370.45312 82.52604 370.0 82.104164Q369.54688 81.666664 368.82812 81.666664Q368.0625 81.666664 367.60938 82.11979Q367.15625 82.572914 367.14062 83.385414L366.0625 83.27604Q366.17188 82.05729 366.89062 81.43229Q367.625 80.791664 368.85938 80.791664Q370.09375 80.791664 370.8125 81.479164Q371.53125 82.166664 371.53125 83.18229Q371.53125 83.697914 371.3125 84.197914Q371.10938 84.68229 370.60938 85.24479Q370.125 85.791664 369.0 86.74479Q368.04688 87.541664 367.76562 87.83854Q367.5 88.11979 367.32812 88.40104L371.54688 88.40104ZM372.875 86.83854L372.875 85.77604L376.125 85.77604L376.125 86.83854L372.875 86.83854ZM380.96875 89.416664L379.92188 89.416664L379.92188 82.697914Q379.53125 83.05729 378.90625 83.43229Q378.29688 83.791664 377.8125 83.96354L377.8125 82.947914Q378.6875 82.52604 379.34375 81.947914Q380.01562 81.354164 380.29688 80.791664L380.96875 80.791664L380.96875 89.416664ZM384.0 87.15104L385.0625 87.010414Q385.23438 87.90104 385.67188 88.30729Q386.10938 88.697914 386.73438 88.697914Q387.48438 88.697914 388.0 88.18229Q388.51562 87.666664 388.51562 86.90104Q388.51562 86.18229 388.03125 85.71354Q387.5625 85.229164 386.82812 85.229164Q386.53125 85.229164 386.07812 85.354164L386.20312 84.416664Q386.3125 84.43229 386.375 84.43229Q387.04688 84.43229 387.57812 84.08854Q388.125 83.729164 388.125 82.99479Q388.125 82.416664 387.73438 82.041664Q387.34375 81.65104 386.71875 81.65104Q386.10938 81.65104 385.6875 82.041664Q385.28125 82.43229 385.17188 83.197914L384.10938 83.010414Q384.29688 81.96354 384.98438 81.385414Q385.67188 80.791664 386.6875 80.791664Q387.39062 80.791664 387.98438 81.104164Q388.57812 81.40104 388.89062 81.916664Q389.20312 82.43229 389.20312 83.02604Q389.20312 83.572914 388.90625 84.041664Q388.60938 84.49479 388.03125 84.760414Q388.78125 84.93229 389.20312 85.49479Q389.625 86.041664 389.625 86.885414Q389.625 88.010414 388.79688 88.791664Q387.98438 89.572914 386.73438 89.572914Q385.60938 89.572914 384.85938 88.90104Q384.10938 88.21354 384.0 87.15104ZM392.26562 89.416664L391.28125 89.416664L391.28125 80.822914L392.34375 80.822914L392.34375 83.885414Q393.01562 83.05729 394.04688 83.05729Q394.625 83.05729 395.125 83.291664Q395.64062 83.510414 395.96875 83.93229Q396.3125 84.354164 396.5 84.947914Q396.6875 85.541664 396.6875 86.21354Q396.6875 87.80729 395.89062 88.68229Q395.09375 89.55729 394.0 89.55729Q392.89062 89.55729 392.26562 88.635414L392.26562 89.416664ZM392.25 86.260414Q392.25 87.36979 392.5625 87.86979Q393.0625 88.68229 393.90625 88.68229Q394.59375 88.68229 395.09375 88.08854Q395.60938 87.49479 395.60938 86.291664Q395.60938 85.072914 395.125 84.49479Q394.64062 83.916664 393.95312 83.916664Q393.26562 83.916664 392.75 84.52604Q392.25 85.11979 392.25 86.260414ZM397.875 86.83854L397.875 85.77604L401.125 85.77604L401.125 86.83854L397.875 86.83854ZM402.29688 89.416664L402.29688 80.822914L403.34375 80.822914L403.34375 83.90104Q404.07812 83.05729 405.20312 83.05729Q405.90625 83.05729 406.40625 83.33854Q406.92188 83.604164 407.14062 84.08854Q407.35938 84.55729 407.35938 85.479164L407.35938 89.416664L406.3125 89.416664L406.3125 85.479164Q406.3125 84.68229 405.96875 84.322914Q405.625 83.96354 405.0 83.96354Q404.53125 83.96354 404.10938 84.21354Q403.70312 84.447914 403.51562 84.86979Q403.34375 85.27604 403.34375 86.010414L403.34375 89.416664L402.29688 89.416664ZM409.54688 89.416664L409.54688 84.010414L408.60938 84.010414L408.60938 83.197914L409.54688 83.197914L409.54688 82.52604Q409.54688 81.90104 409.65625 81.604164Q409.8125 81.18229 410.1875 80.93229Q410.57812 80.68229 411.26562 80.68229Q411.71875 80.68229 412.25 80.791664L412.09375 81.697914Q411.76562 81.65104 411.46875 81.65104Q410.98438 81.65104 410.78125 81.854164Q410.59375 82.05729 410.59375 82.61979L410.59375 83.197914L411.8125 83.197914L411.8125 84.010414L410.59375 84.010414L410.59375 89.416664L409.54688 89.416664Z" fill-rule="nonzero"/><path fill="#999999" d="M19.58125 63.05L19.58125 53.034374L23.33125 53.034374Q24.4875 53.034374 25.175 53.346874Q25.878124 53.64375 26.26875 54.26875Q26.659374 54.89375 26.659374 55.596874Q26.659374 56.2375 26.3 56.8Q25.95625 57.3625 25.253124 57.721874Q26.159374 57.9875 26.64375 58.628124Q27.14375 59.26875 27.14375 60.14375Q27.14375 60.846874 26.846874 61.45625Q26.55 62.065624 26.1125 62.39375Q25.675 62.721874 25.003124 62.89375Q24.346874 63.05 23.39375 63.05L19.58125 63.05ZM20.909374 57.2375L23.065624 57.2375Q23.95625 57.2375 24.33125 57.128124Q24.846874 56.971874 25.096874 56.628124Q25.346874 56.26875 25.346874 55.753124Q25.346874 55.253124 25.1125 54.878124Q24.878124 54.4875 24.425 54.346874Q23.9875 54.20625 22.909374 54.20625L20.909374 54.20625L20.909374 57.2375ZM20.909374 61.8625L23.39375 61.8625Q24.034374 61.8625 24.3 61.815624Q24.753124 61.7375 25.065624 61.55Q25.378124 61.346874 25.565624 60.9875Q25.76875 60.628124 25.76875 60.14375Q25.76875 59.58125 25.471874 59.175Q25.190624 58.753124 24.675 58.596874Q24.175 58.425 23.221874 58.425L20.909374 58.425L20.909374 61.8625ZM33.20625 62.159374Q32.534374 62.7375 31.89375 62.9875Q31.26875 63.221874 30.534374 63.221874Q29.346874 63.221874 28.690624 62.64375Q28.05 62.05 28.05 61.128124Q28.05 60.596874 28.284374 60.159374Q28.534374 59.721874 28.925 59.45625Q29.33125 59.190624 29.815624 59.05Q30.175 58.95625 30.909374 58.8625Q32.409374 58.690624 33.1125 58.440624Q33.1125 58.190624 33.1125 58.128124Q33.1125 57.3625 32.76875 57.065624Q32.3 56.64375 31.3625 56.64375Q30.503124 56.64375 30.08125 56.95625Q29.675 57.253124 29.471874 58.01875L28.26875 57.8625Q28.425 57.08125 28.8 56.6125Q29.190624 56.14375 29.89375 55.89375Q30.6125 55.628124 31.55 55.628124Q32.471874 55.628124 33.05 55.846874Q33.628124 56.065624 33.89375 56.39375Q34.175 56.721874 34.284374 57.2375Q34.346874 57.55 34.346874 58.3625L34.346874 60.003124Q34.346874 61.721874 34.425 62.175Q34.503124 62.628124 34.7375 63.05L33.45625 63.05Q33.26875 62.659374 33.20625 62.159374ZM33.1125 59.409374Q32.440624 59.675 31.096874 59.878124Q30.346874 59.9875 30.01875 60.128124Q29.70625 60.253124 29.534374 60.51875Q29.3625 60.784374 29.3625 61.096874Q29.3625 61.596874 29.7375 61.925Q30.1125 62.253124 30.83125 62.253124Q31.55 62.253124 32.096874 61.940624Q32.64375 61.628124 32.909374 61.08125Q33.1125 60.675 33.1125 59.8625L33.1125 59.409374ZM39.159374 61.95625L39.33125 63.034374Q38.815624 63.14375 38.409374 63.14375Q37.7375 63.14375 37.3625 62.940624Q37.003124 62.721874 36.846874 62.378124Q36.70625 62.034374 36.70625 60.925L36.70625 56.753124L35.8 56.753124L35.8 55.784374L36.70625 55.784374L36.70625 53.9875L37.925 53.253124L37.925 55.784374L39.159374 55.784374L39.159374 56.753124L37.925 56.753124L37.925 60.9875Q37.925 61.51875 37.9875 61.675Q38.05 61.815624 38.190624 61.909374Q38.346874 62.003124 38.6125 62.003124Q38.83125 62.003124 39.159374 61.95625ZM45.20625 60.39375L46.425 60.55Q46.221874 61.8 45.39375 62.51875Q44.58125 63.221874 43.39375 63.221874Q41.909374 63.221874 41.003124 62.253124Q40.096874 61.26875 40.096874 59.440624Q40.096874 58.26875 40.4875 57.39375Q40.878124 56.503124 41.675 56.065624Q42.471874 55.628124 43.409374 55.628124Q44.58125 55.628124 45.33125 56.221874Q46.096874 56.815624 46.3 57.925L45.1125 58.1125Q44.940624 57.378124 44.503124 57.01875Q44.065624 56.64375 43.45625 56.64375Q42.51875 56.64375 41.940624 57.315624Q41.3625 57.971874 41.3625 59.409374Q41.3625 60.878124 41.925 61.55Q42.4875 62.20625 43.378124 62.20625Q44.1125 62.20625 44.596874 61.76875Q45.08125 61.315624 45.20625 60.39375ZM47.471874 63.05L47.471874 53.034374L48.70625 53.034374L48.70625 56.628124Q49.565624 55.628124 50.878124 55.628124Q51.690624 55.628124 52.284374 55.95625Q52.878124 56.26875 53.128124 56.83125Q53.39375 57.378124 53.39375 58.45625L53.39375 63.05L52.159374 63.05L52.159374 58.45625Q52.159374 57.51875 51.753124 57.1125Q51.3625 56.690624 50.628124 56.690624Q50.08125 56.690624 49.596874 56.971874Q49.1125 57.253124 48.909374 57.7375Q48.70625 58.221874 48.70625 59.08125L48.70625 63.05L47.471874 63.05ZM59.175 59.83125L60.425 59.721874Q60.51875 60.471874 60.846874 60.95625Q61.175 61.440624 61.846874 61.7375Q62.534374 62.034374 63.39375 62.034374Q64.14375 62.034374 64.72188 61.815624Q65.31563 61.58125 65.59688 61.190624Q65.87813 60.8 65.87813 60.33125Q65.87813 59.8625 65.59688 59.51875Q65.33125 59.159374 64.70625 58.909374Q64.3 58.753124 62.909374 58.425Q61.534374 58.096874 60.9875 57.8Q60.26875 57.425 59.909374 56.878124Q59.565624 56.315624 59.565624 55.6125Q59.565624 54.8625 59.9875 54.20625Q60.425 53.534374 61.253124 53.20625Q62.08125 52.8625 63.096874 52.8625Q64.20625 52.8625 65.05 53.221874Q65.90938 53.58125 66.3625 54.284374Q66.81563 54.971874 66.8625 55.846874L65.58125 55.940624Q65.4875 55.003124 64.89375 54.51875Q64.3 54.01875 63.14375 54.01875Q61.940624 54.01875 61.39375 54.471874Q60.846874 54.909374 60.846874 55.534374Q60.846874 56.065624 61.2375 56.425Q61.6125 56.76875 63.221874 57.14375Q64.84688 57.503124 65.44063 57.76875Q66.31563 58.175 66.7375 58.8Q67.15938 59.409374 67.15938 60.221874Q67.15938 61.01875 66.69063 61.7375Q66.2375 62.440624 65.37813 62.83125Q64.51875 63.221874 63.45625 63.221874Q62.096874 63.221874 61.175 62.83125Q60.253124 62.425 59.721874 61.628124Q59.20625 60.83125 59.175 59.83125ZM68.4875 54.440624L68.4875 53.034374L69.70625 53.034374L69.70625 54.440624L68.4875 54.440624ZM68.4875 63.05L68.4875 55.784374L69.70625 55.784374L69.70625 63.05L68.4875 63.05ZM70.83125 63.05L70.83125 62.05L75.44063 56.753124Q74.65938 56.784374 74.05 56.784374L71.09688 56.784374L71.09688 55.784374L77.03438 55.784374L77.03438 56.596874L73.09688 61.20625L72.34688 62.05Q73.175 61.9875 73.89375 61.9875L77.25313 61.9875L77.25313 63.05L70.83125 63.05ZM82.44063 60.70625L83.72188 60.8625Q83.40938 61.9875 82.59688 62.6125Q81.78438 63.221874 80.51875 63.221874Q78.925 63.221874 77.9875 62.2375Q77.06563 61.253124 77.06563 59.4875Q77.06563 57.64375 78.00313 56.64375Q78.95625 55.628124 80.45625 55.628124Q81.90938 55.628124 82.83125 56.628124Q83.75313 57.6125 83.75313 59.409374Q83.75313 59.51875 83.75313 59.7375L78.33125 59.7375Q78.40938 60.925 79.00313 61.565624Q79.6125 62.20625 80.53438 62.20625Q81.20625 62.20625 81.675 61.846874Q82.15938 61.4875 82.44063 60.70625ZM78.40938 58.721874L82.45625 58.721874Q82.37813 57.8 81.9875 57.346874Q81.40938 56.64375 80.47188 56.64375Q79.6125 56.64375 79.03438 57.20625Q78.47188 57.76875 78.40938 58.721874ZM95.94063 57.159374L89.33125 57.159374L89.33125 56.003124L95.94063 56.003124L95.94063 57.159374ZM95.94063 60.20625L89.33125 60.20625L89.33125 59.05L95.94063 59.05L95.94063 60.20625ZM105.08125 63.05L105.08125 60.64375L100.72188 60.64375L100.72188 59.51875L105.3 53.034374L106.3 53.034374L106.3 59.51875L107.65938 59.51875L107.65938 60.64375L106.3 60.64375L106.3 63.05L105.08125 63.05ZM105.08125 59.51875L105.08125 55.003124L101.94063 59.51875L105.08125 59.51875Z" fill-rule="nonzero"/><path fill="#757575" d="M20.01875 37.55L20.01875 23.2375L21.909374 23.2375L21.909374 35.8625L28.95625 35.8625L28.95625 37.55L20.01875 37.55ZM31.01875 37.55L31.01875 23.2375L32.909374 23.2375L32.909374 35.8625L39.95625 35.8625L39.95625 37.55L31.01875 37.55ZM48.64375 36.26875Q47.659374 37.096874 46.753124 37.440624Q45.846874 37.784374 44.815624 37.784374Q43.1125 37.784374 42.190624 36.95625Q41.26875 36.1125 41.26875 34.815624Q41.26875 34.05 41.6125 33.425Q41.971874 32.8 42.534374 32.425Q43.096874 32.034374 43.8 31.83125Q44.315624 31.70625 45.3625 31.565624Q47.4875 31.315624 48.4875 30.971874Q48.503124 30.6125 48.503124 30.503124Q48.503124 29.440624 48.003124 28.9875Q47.33125 28.39375 46.003124 28.39375Q44.753124 28.39375 44.159374 28.83125Q43.58125 29.26875 43.3 30.378124L41.58125 30.14375Q41.815624 29.034374 42.346874 28.3625Q42.878124 27.675 43.89375 27.315624Q44.909374 26.940624 46.253124 26.940624Q47.58125 26.940624 48.409374 27.253124Q49.2375 27.565624 49.628124 28.05Q50.01875 28.51875 50.175 29.2375Q50.26875 29.690624 50.26875 30.8625L50.26875 33.20625Q50.26875 35.659374 50.378124 36.315624Q50.4875 36.95625 50.83125 37.55L48.9875 37.55Q48.721874 37.003124 48.64375 36.26875ZM48.4875 32.346874Q47.534374 32.7375 45.6125 33.003124Q44.534374 33.159374 44.08125 33.3625Q43.64375 33.55 43.39375 33.925Q43.14375 34.3 43.14375 34.76875Q43.14375 35.471874 43.675 35.940624Q44.20625 36.409374 45.2375 36.409374Q46.253124 36.409374 47.034374 35.971874Q47.83125 35.51875 48.20625 34.753124Q48.4875 34.14375 48.4875 32.9875L48.4875 32.346874ZM53.034374 37.55L53.034374 23.2375L55.89375 23.2375L59.26875 33.3625Q59.7375 34.784374 59.95625 35.4875Q60.20625 34.70625 60.721874 33.190624L64.14375 23.2375L66.69063 23.2375L66.69063 37.55L64.87813 37.55L64.87813 25.565624L60.70625 37.55L59.003124 37.55L54.8625 25.3625L54.8625 37.55L53.034374 37.55ZM68.51875 37.55L74.01875 23.2375L76.06563 23.2375L81.925 37.55L79.76875 37.55L78.09688 33.20625L72.1125 33.20625L70.53438 37.55L68.51875 37.55ZM72.65938 31.675L77.50313 31.675L76.01875 27.70625Q75.33125 25.89375 75.00313 24.7375Q74.72188 26.1125 74.22188 27.471874L72.65938 31.675ZM97.6125 35.8625L97.6125 37.55L88.15938 37.55Q88.14375 36.909374 88.3625 36.33125Q88.72188 35.3625 89.51875 34.425Q90.31563 33.4875 91.81563 32.253124Q94.15938 30.346874 94.97188 29.2375Q95.8 28.1125 95.8 27.1125Q95.8 26.065624 95.05 25.346874Q94.3 24.628124 93.09688 24.628124Q91.83125 24.628124 91.06563 25.39375Q90.3 26.159374 90.3 27.503124L88.4875 27.315624Q88.675 25.3 89.87813 24.2375Q91.09688 23.175 93.14375 23.175Q95.19063 23.175 96.39375 24.315624Q97.59688 25.45625 97.59688 27.14375Q97.59688 28.003124 97.2375 28.846874Q96.89375 29.675 96.08125 30.596874Q95.26875 31.503124 93.37813 33.1125Q91.78438 34.440624 91.33125 34.909374Q90.89375 35.378124 90.59688 35.8625L97.6125 35.8625ZM109.7375 37.55L109.7375 24.925L105.01875 24.925L105.01875 23.2375L116.3625 23.2375L116.3625 24.925L111.62813 24.925L111.62813 37.55L109.7375 37.55ZM117.8625 37.55L117.8625 23.2375L119.62813 23.2375L119.62813 28.3625Q120.8625 26.940624 122.7375 26.940624Q123.87813 26.940624 124.72188 27.39375Q125.58125 27.846874 125.94063 28.659374Q126.31563 29.45625 126.31563 30.971874L126.31563 37.55L124.56563 37.55L124.56563 30.971874Q124.56563 29.659374 123.9875 29.065624Q123.40938 28.45625 122.37813 28.45625Q121.59688 28.45625 120.89375 28.8625Q120.20625 29.26875 119.90938 29.971874Q119.62813 30.659374 119.62813 31.878124L119.62813 37.55L117.8625 37.55ZM127.84688 37.55L127.84688 27.175L129.425 27.175L129.425 28.753124Q130.03438 27.64375 130.55 27.3Q131.06563 26.940624 131.675 26.940624Q132.56563 26.940624 133.4875 27.503124L132.87813 29.14375Q132.2375 28.753124 131.59688 28.753124Q131.01875 28.753124 130.55 29.1125Q130.09688 29.45625 129.89375 30.065624Q129.6125 31.003124 129.6125 32.1125L129.6125 37.55L127.84688 37.55ZM134.22188 32.3625Q134.22188 29.4875 135.81563 28.096874Q137.15938 26.940624 139.08125 26.940624Q141.22188 26.940624 142.56563 28.346874Q143.925 29.753124 143.925 32.221874Q143.925 34.221874 143.33125 35.378124Q142.7375 36.51875 141.58125 37.159374Q140.44063 37.784374 139.08125 37.784374Q136.89375 37.784374 135.55 36.39375Q134.22188 34.9875 134.22188 32.3625ZM136.01875 32.3625Q136.01875 34.3625 136.87813 35.346874Q137.75313 36.33125 139.08125 36.33125Q140.39375 36.33125 141.25313 35.346874Q142.12813 34.346874 142.12813 32.3Q142.12813 30.378124 141.25313 29.39375Q140.37813 28.39375 139.08125 28.39375Q137.75313 28.39375 136.87813 29.39375Q136.01875 30.378124 136.01875 32.3625ZM152.65938 37.55L152.65938 36.01875Q151.45625 37.784374 149.37813 37.784374Q148.45625 37.784374 147.65938 37.440624Q146.8625 37.08125 146.47188 36.55Q146.09688 36.01875 145.94063 35.2375Q145.83125 34.721874 145.83125 33.596874L145.83125 27.175L147.58125 27.175L147.58125 32.925Q147.58125 34.3 147.69063 34.784374Q147.8625 35.471874 148.39375 35.878124Q148.94063 36.26875 149.72188 36.26875Q150.51875 36.26875 151.20625 35.8625Q151.90938 35.45625 152.19063 34.76875Q152.4875 34.065624 152.4875 32.7375L152.4875 27.175L154.2375 27.175L154.2375 37.55L152.65938 37.55ZM155.55 38.409374L157.25313 38.659374Q157.3625 39.45625 157.84688 39.815624Q158.50313 40.3 159.64375 40.3Q160.8625 40.3 161.51875 39.815624Q162.19063 39.33125 162.425 38.45625Q162.56563 37.909374 162.55 36.190624Q161.39375 37.55 159.675 37.55Q157.53438 37.55 156.3625 36.003124Q155.19063 34.45625 155.19063 32.3Q155.19063 30.815624 155.72188 29.565624Q156.26875 28.315624 157.28438 27.628124Q158.31563 26.940624 159.69063 26.940624Q161.51875 26.940624 162.72188 28.425L162.72188 27.175L164.33125 27.175L164.33125 36.14375Q164.33125 38.565624 163.83125 39.565624Q163.34688 40.58125 162.26875 41.159374Q161.20625 41.753124 159.64375 41.753124Q157.8 41.753124 156.64375 40.925Q155.50313 40.096874 155.55 38.409374ZM157.00313 32.175Q157.00313 34.221874 157.81563 35.159374Q158.62813 36.096874 159.84688 36.096874Q161.05 36.096874 161.8625 35.159374Q162.69063 34.221874 162.69063 32.2375Q162.69063 30.33125 161.84688 29.3625Q161.00313 28.39375 159.81563 28.39375Q158.64375 28.39375 157.81563 29.346874Q157.00313 30.3 157.00313 32.175ZM166.8625 37.55L166.8625 23.2375L168.62813 23.2375L168.62813 28.3625Q169.8625 26.940624 171.7375 26.940624Q172.87813 26.940624 173.72188 27.39375Q174.58125 27.846874 174.94063 28.659374Q175.31563 29.45625 175.31563 30.971874L175.31563 37.55L173.56563 37.55L173.56563 30.971874Q173.56563 29.659374 172.9875 29.065624Q172.40938 28.45625 171.37813 28.45625Q170.59688 28.45625 169.89375 28.8625Q169.20625 29.26875 168.90938 29.971874Q168.62813 30.659374 168.62813 31.878124L168.62813 37.55L166.8625 37.55ZM176.8625 41.51875L176.8625 27.175L178.47188 27.175L178.47188 28.51875Q179.03438 27.7375 179.7375 27.346874Q180.45625 26.940624 181.47188 26.940624Q182.8 26.940624 183.81563 27.628124Q184.83125 28.315624 185.34688 29.565624Q185.87813 30.8 185.87813 32.284374Q185.87813 33.878124 185.3 35.159374Q184.7375 36.425 183.64375 37.1125Q182.55 37.784374 181.34688 37.784374Q180.47188 37.784374 179.76875 37.409374Q179.08125 37.034374 178.62813 36.471874L178.62813 41.51875L176.8625 41.51875ZM178.45625 32.425Q178.45625 34.425 179.26875 35.378124Q180.08125 36.33125 181.2375 36.33125Q182.40938 36.33125 183.2375 35.346874Q184.08125 34.3625 184.08125 32.26875Q184.08125 30.3 183.25313 29.315624Q182.44063 28.315624 181.31563 28.315624Q180.19063 28.315624 179.31563 29.378124Q178.45625 30.425 178.45625 32.425ZM194.65938 37.55L194.65938 36.01875Q193.45625 37.784374 191.37813 37.784374Q190.45625 37.784374 189.65938 37.440624Q188.8625 37.08125 188.47188 36.55Q188.09688 36.01875 187.94063 35.2375Q187.83125 34.721874 187.83125 33.596874L187.83125 27.175L189.58125 27.175L189.58125 32.925Q189.58125 34.3 189.69063 34.784374Q189.8625 35.471874 190.39375 35.878124Q190.94063 36.26875 191.72188 36.26875Q192.51875 36.26875 193.20625 35.8625Q193.90938 35.45625 194.19063 34.76875Q194.4875 34.065624 194.4875 32.7375L194.4875 27.175L196.2375 27.175L196.2375 37.55L194.65938 37.55ZM201.70625 35.971874L201.95625 37.534374Q201.22188 37.690624 200.62813 37.690624Q199.675 37.690624 199.14375 37.39375Q198.62813 37.08125 198.40938 36.596874Q198.19063 36.096874 198.19063 34.51875L198.19063 28.55L196.90938 28.55L196.90938 27.175L198.19063 27.175L198.19063 24.6125L199.94063 23.55L199.94063 27.175L201.70625 27.175L201.70625 28.55L199.94063 28.55L199.94063 34.6125Q199.94063 35.3625 200.03438 35.58125Q200.12813 35.784374 200.33125 35.925Q200.55 36.05 200.94063 36.05Q201.22188 36.05 201.70625 35.971874Z" fill-rule="nonzero"/></svg>