<?xml version="1.0" encoding="utf-8" standalone="no"?>
<!DOCTYPE svg PUBLIC "-//W3C//DTD SVG 1.1//EN"
  "http://www.w3.org/Graphics/SVG/1.1/DTD/svg11.dtd">
<svg xmlns:xlink="http://www.w3.org/1999/xlink" width="1188pt" height="547.2pt" viewBox="0 0 1188 547.2" xmlns="http://www.w3.org/2000/svg" version="1.1">
 <metadata>
  <rdf:RDF xmlns:dc="http://purl.org/dc/elements/1.1/" xmlns:cc="http://creativecommons.org/ns#" xmlns:rdf="http://www.w3.org/1999/02/22-rdf-syntax-ns#">
   <cc:Work>
    <dc:type rdf:resource="http://purl.org/dc/dcmitype/StillImage"/>
    <dc:date>2026-06-19T17:30:37.817341</dc:date>
    <dc:format>image/svg+xml</dc:format>
    <dc:creator>
     <cc:Agent>
      <dc:title>Matplotlib v3.9.4, https://matplotlib.org/</dc:title>
     </cc:Agent>
    </dc:creator>
   </cc:Work>
  </rdf:RDF>
 </metadata>
 <defs>
  <style type="text/css">*{stroke-linejoin: round; stroke-linecap: butt}</style>
 </defs>
 <g id="figure_1">
  <g id="patch_1">
   <path d="M 0 547.2 
L 1188 547.2 
L 1188 0 
L 0 0 
L 0 547.2 
z
" style="fill: none; opacity: 0"/>
  </g>
  <g id="patch_2">
   <path d="M 41.58 547.2 
L 1146.42 547.2 
Q 1188 547.2 1188 528.048 
L 1188 19.152 
Q 1188 0 1146.42 0 
L 41.58 0 
Q 0 0 0 19.152 
L 0 528.048 
Q 0 547.2 41.58 547.2 
z
" style="fill: #0f1a30"/>
  </g>
  <g id="axes_1">
   <g id="patch_3">
    <path d="M 260.480769 238.32 
L 458.826923 238.32 
L 458.826923 30.96 
L 260.480769 30.96 
z
" style="fill: #16243f"/>
   </g>
   <g id="matplotlib.axis_1">
    <g id="xtick_1">
     <g id="line2d_1"/>
     <g id="text_1">
      <text style="fill: #b8c4d6; font: 7.5px 'Inter', 'Arial', 'DejaVu Sans', sans-serif; text-anchor: middle" x="300.884615" y="247.188359" transform="rotate(-0 300.884615 247.188359)">Gemma</text>
     </g>
    </g>
    <g id="xtick_2">
     <g id="line2d_2"/>
     <g id="text_2">
      <text style="fill: #b8c4d6; font: 7.5px 'Inter', 'Arial', 'DejaVu Sans', sans-serif; text-anchor: middle" x="359.653846" y="247.188359" transform="rotate(-0 359.653846 247.188359)">Qwen</text>
     </g>
    </g>
    <g id="xtick_3">
     <g id="line2d_3"/>
     <g id="text_3">
      <text style="fill: #b8c4d6; font: 7.5px 'Inter', 'Arial', 'DejaVu Sans', sans-serif; text-anchor: middle" x="418.423077" y="247.279766" transform="rotate(-0 418.423077 247.279766)">DeepSeek</text>
     </g>
    </g>
   </g>
   <g id="matplotlib.axis_2">
    <g id="ytick_1">
     <g id="line2d_4">
      <path d="M 260.480769 238.32 
L 458.826923 238.32 
" clip-path="url(#pc13ae81ed5)" style="fill: none; stroke: #2a3a57; stroke-width: 0.8; stroke-linecap: square"/>
     </g>
     <g id="line2d_5"/>
     <g id="text_4">
      <text style="fill: #b8c4d6; font: 7.5px 'Inter', 'Arial', 'DejaVu Sans', sans-serif; text-anchor: end" x="256.980769" y="241.00418" transform="rotate(-0 256.980769 241.00418)">0</text>
     </g>
    </g>
    <g id="ytick_2">
     <g id="line2d_6">
      <path d="M 260.480769 30.96 
L 458.826923 30.96 
" clip-path="url(#pc13ae81ed5)" style="fill: none; stroke: #2a3a57; stroke-width: 0.8; stroke-linecap: square"/>
     </g>
     <g id="line2d_7"/>
    </g>
   </g>
   <g id="patch_4">
    <path d="M 282.519231 238.32 
L 282.519231 100.374601 
L 282.519231 100.374601 
L 282.567652 99.882974 
L 282.711054 99.410239 
L 282.943927 98.974564 
L 283.257322 98.592692 
L 283.639194 98.279298 
L 284.074869 98.046425 
L 284.547603 97.903022 
L 285.039231 97.854601 
L 316.73 97.854601 
L 316.73 97.854601 
L 317.221628 97.903022 
L 317.694362 98.046425 
L 318.130037 98.279298 
L 318.511909 98.592692 
L 318.825303 98.974564 
L 319.058176 99.410239 
L 319.201579 99.882974 
L 319.25 100.374601 
L 319.25 238.32 
z
" clip-path="url(#pc13ae81ed5)" style="fill: #7c8aa2"/>
   </g>
   <g id="patch_5">
    <path d="M 341.288462 238.32 
L 341.288462 74.907787 
L 341.288462 74.907787 
L 341.336883 74.416159 
L 341.480285 73.943425 
L 341.713158 73.50775 
L 342.026552 73.125878 
L 342.408425 72.812483 
L 342.844099 72.57961 
L 343.316834 72.436208 
L 343.808462 72.387787 
L 375.499231 72.387787 
L 375.499231 72.387787 
L 375.990858 72.436208 
L 376.463593 72.57961 
L 376.899268 72.812483 
L 377.28114 73.125878 
L 377.594534 73.50775 
L 377.827407 73.943425 
L 377.97081 74.416159 
L 378.019231 74.907787 
L 378.019231 238.32 
z
" clip-path="url(#pc13ae81ed5)" style="fill: #7c8aa2"/>
   </g>
   <g id="patch_6">
    <path d="M 400.057692 238.32 
L 400.057692 54.216 
L 400.057692 54.216 
L 400.106113 53.724372 
L 400.249516 53.251638 
L 400.482389 52.815963 
L 400.795783 52.434091 
L 401.177655 52.120697 
L 401.61333 51.887824 
L 402.086065 51.744421 
L 402.577692 51.696 
L 434.268462 51.696 
L 434.268462 51.696 
L 434.760089 51.744421 
L 435.232824 51.887824 
L 435.668499 52.120697 
L 436.050371 52.434091 
L 436.363765 52.815963 
L 436.596638 53.251638 
L 436.74004 53.724372 
L 436.788462 54.216 
L 436.788462 238.32 
z
" clip-path="url(#pc13ae81ed5)" style="fill: #60a5fa"/>
   </g>
   <g id="text_5">
    <text style="fill: #b8c4d6; font: 7.5px 'Inter', 'Arial', 'DejaVu Sans', sans-serif; text-anchor: end" x="458.826923" y="16.939884" transform="rotate(-0 458.826923 16.939884)">higher is better</text>
   </g>
   <g id="text_6">
    <text style="fill: #e8eef8; font: 8px 'Inter', 'Arial', 'DejaVu Sans', sans-serif; text-anchor: middle" x="300.884615" y="92.264601" transform="rotate(-0 300.884615 92.264601)">0.706</text>
   </g>
   <g id="text_7">
    <text style="fill: #e8eef8; font: 8px 'Inter', 'Arial', 'DejaVu Sans', sans-serif; text-anchor: middle" x="359.653846" y="66.797787" transform="rotate(-0 359.653846 66.797787)">0.834</text>
   </g>
   <g id="text_8">
    <text style="fill: #e8eef8; font: 700 8px 'Inter', 'Arial', 'DejaVu Sans', sans-serif; text-anchor: middle" x="418.423077" y="46.11725" transform="rotate(-0 418.423077 46.11725)">0.938</text>
   </g>
   <g id="text_9">
    <text style="fill: #e8eef8; font: 700 11px 'Inter', 'Arial', 'DejaVu Sans', sans-serif; text-anchor: start" x="260.480769" y="20.96" transform="rotate(-0 260.480769 20.96)">Precision</text>
   </g>
   <g id="patch_7">
    <path d="M 260.480769 238.32 
L 458.826923 238.32 
L 458.826923 30.96 
L 260.480769 30.96 
L 260.480769 238.32 
z
" style="fill: none; stroke: #33445f; stroke-width: 0.8; stroke-linejoin: miter"/>
   </g>
  </g>
  <g id="axes_2">
   <g id="patch_8">
    <path d="M 494.826923 238.32 
L 693.173077 238.32 
L 693.173077 30.96 
L 494.826923 30.96 
z
" style="fill: #16243f"/>
   </g>
   <g id="matplotlib.axis_3">
    <g id="xtick_4">
     <g id="line2d_8"/>
     <g id="text_10">
      <text style="fill: #b8c4d6; font: 7.5px 'Inter', 'Arial', 'DejaVu Sans', sans-serif; text-anchor: middle" x="535.230769" y="247.188359" transform="rotate(-0 535.230769 247.188359)">Gemma</text>
     </g>
    </g>
    <g id="xtick_5">
     <g id="line2d_9"/>
     <g id="text_11">
      <text style="fill: #b8c4d6; font: 7.5px 'Inter', 'Arial', 'DejaVu Sans', sans-serif; text-anchor: middle" x="594" y="247.188359" transform="rotate(-0 594 247.188359)">Qwen</text>
     </g>
    </g>
    <g id="xtick_6">
     <g id="line2d_10"/>
     <g id="text_12">
      <text style="fill: #b8c4d6; font: 7.5px 'Inter', 'Arial', 'DejaVu Sans', sans-serif; text-anchor: middle" x="652.769231" y="247.279766" transform="rotate(-0 652.769231 247.279766)">DeepSeek</text>
     </g>
    </g>
   </g>
   <g id="matplotlib.axis_4">
    <g id="ytick_3">
     <g id="line2d_11">
      <path d="M 494.826923 238.32 
L 693.173077 238.32 
" clip-path="url(#p1f87d90b60)" style="fill: none; stroke: #2a3a57; stroke-width: 0.8; stroke-linecap: square"/>
     </g>
     <g id="line2d_12"/>
     <g id="text_13">
      <text style="fill: #b8c4d6; font: 7.5px 'Inter', 'Arial', 'DejaVu Sans', sans-serif; text-anchor: end" x="491.326923" y="241.00418" transform="rotate(-0 491.326923 241.00418)">0</text>
     </g>
    </g>
    <g id="ytick_4">
     <g id="line2d_13">
      <path d="M 494.826923 30.96 
L 693.173077 30.96 
" clip-path="url(#p1f87d90b60)" style="fill: none; stroke: #2a3a57; stroke-width: 0.8; stroke-linecap: square"/>
     </g>
     <g id="line2d_14"/>
    </g>
   </g>
   <g id="patch_9">
    <path d="M 516.865385 238.32 
L 516.865385 54.216 
L 516.865385 54.216 
L 516.913806 53.724372 
L 517.057208 53.251638 
L 517.290081 52.815963 
L 517.603476 52.434091 
L 517.985348 52.120697 
L 518.421022 51.887824 
L 518.893757 51.744421 
L 519.385385 51.696 
L 551.076154 51.696 
L 551.076154 51.696 
L 551.567781 51.744421 
L 552.040516 51.887824 
L 552.476191 52.120697 
L 552.858063 52.434091 
L 553.171457 52.815963 
L 553.40433 53.251638 
L 553.547733 53.724372 
L 553.596154 54.216 
L 553.596154 238.32 
z
" clip-path="url(#p1f87d90b60)" style="fill: #60a5fa"/>
   </g>
   <g id="patch_10">
    <path d="M 575.634615 238.32 
L 575.634615 73.208708 
L 575.634615 73.208708 
L 575.683036 72.71708 
L 575.826439 72.244346 
L 576.059312 71.808671 
L 576.372706 71.426799 
L 576.754578 71.113405 
L 577.190253 70.880532 
L 577.662988 70.737129 
L 578.154615 70.688708 
L 609.845385 70.688708 
L 609.845385 70.688708 
L 610.337012 70.737129 
L 610.809747 70.880532 
L 611.245422 71.113405 
L 611.627294 71.426799 
L 611.940688 71.808671 
L 612.173561 72.244346 
L 612.316964 72.71708 
L 612.365385 73.208708 
L 612.365385 238.32 
z
" clip-path="url(#p1f87d90b60)" style="fill: #7c8aa2"/>
   </g>
   <g id="patch_11">
    <path d="M 634.403846 238.32 
L 634.403846 93.440071 
L 634.403846 93.440071 
L 634.452267 92.948443 
L 634.59567 92.475709 
L 634.828543 92.040034 
L 635.141937 91.658162 
L 635.523809 91.344767 
L 635.959484 91.111894 
L 636.432219 90.968492 
L 636.923846 90.920071 
L 668.614615 90.920071 
L 668.614615 90.920071 
L 669.106243 90.968492 
L 669.578978 91.111894 
L 670.014652 91.344767 
L 670.396524 91.658162 
L 670.709919 92.040034 
L 670.942792 92.475709 
L 671.086194 92.948443 
L 671.134615 93.440071 
L 671.134615 238.32 
z
" clip-path="url(#p1f87d90b60)" style="fill: #7c8aa2"/>
   </g>
   <g id="text_14">
    <text style="fill: #b8c4d6; font: 7.5px 'Inter', 'Arial', 'DejaVu Sans', sans-serif; text-anchor: end" x="693.173077" y="16.939884" transform="rotate(-0 693.173077 16.939884)">higher is better</text>
   </g>
   <g id="text_15">
    <text style="fill: #e8eef8; font: 700 8px 'Inter', 'Arial', 'DejaVu Sans', sans-serif; text-anchor: middle" x="535.230769" y="46.11725" transform="rotate(-0 535.230769 46.11725)">0.904</text>
   </g>
   <g id="text_16">
    <text style="fill: #e8eef8; font: 8px 'Inter', 'Arial', 'DejaVu Sans', sans-serif; text-anchor: middle" x="594" y="65.098708" transform="rotate(-0 594 65.098708)">0.812</text>
   </g>
   <g id="text_17">
    <text style="fill: #e8eef8; font: 8px 'Inter', 'Arial', 'DejaVu Sans', sans-serif; text-anchor: middle" x="652.769231" y="85.330071" transform="rotate(-0 652.769231 85.330071)">0.714</text>
   </g>
   <g id="text_18">
    <text style="fill: #e8eef8; font: 700 11px 'Inter', 'Arial', 'DejaVu Sans', sans-serif; text-anchor: start" x="494.826923" y="20.96" transform="rotate(-0 494.826923 20.96)">Recall</text>
   </g>
   <g id="patch_12">
    <path d="M 494.826923 238.32 
L 693.173077 238.32 
L 693.173077 30.96 
L 494.826923 30.96 
L 494.826923 238.32 
z
" style="fill: none; stroke: #33445f; stroke-width: 0.8; stroke-linejoin: miter"/>
   </g>
  </g>
  <g id="axes_3">
   <g id="patch_13">
    <path d="M 729.173077 238.32 
L 927.519231 238.32 
L 927.519231 30.96 
L 729.173077 30.96 
z
" style="fill: #16243f"/>
   </g>
   <g id="matplotlib.axis_5">
    <g id="xtick_7">
     <g id="line2d_15"/>
     <g id="text_19">
      <text style="fill: #b8c4d6; font: 7.5px 'Inter', 'Arial', 'DejaVu Sans', sans-serif; text-anchor: middle" x="769.576923" y="247.188359" transform="rotate(-0 769.576923 247.188359)">Gemma</text>
     </g>
    </g>
    <g id="xtick_8">
     <g id="line2d_16"/>
     <g id="text_20">
      <text style="fill: #b8c4d6; font: 7.5px 'Inter', 'Arial', 'DejaVu Sans', sans-serif; text-anchor: middle" x="828.346154" y="247.188359" transform="rotate(-0 828.346154 247.188359)">Qwen</text>
     </g>
    </g>
    <g id="xtick_9">
     <g id="line2d_17"/>
     <g id="text_21">
      <text style="fill: #b8c4d6; font: 7.5px 'Inter', 'Arial', 'DejaVu Sans', sans-serif; text-anchor: middle" x="887.115385" y="247.279766" transform="rotate(-0 887.115385 247.279766)">DeepSeek</text>
     </g>
    </g>
   </g>
   <g id="matplotlib.axis_6">
    <g id="ytick_5">
     <g id="line2d_18">
      <path d="M 729.173077 238.32 
L 927.519231 238.32 
" clip-path="url(#pa8bee5bb95)" style="fill: none; stroke: #2a3a57; stroke-width: 0.8; stroke-linecap: square"/>
     </g>
     <g id="line2d_19"/>
     <g id="text_22">
      <text style="fill: #b8c4d6; font: 7.5px 'Inter', 'Arial', 'DejaVu Sans', sans-serif; text-anchor: end" x="725.673077" y="241.00418" transform="rotate(-0 725.673077 241.00418)">0</text>
     </g>
    </g>
    <g id="ytick_6">
     <g id="line2d_20">
      <path d="M 729.173077 30.96 
L 927.519231 30.96 
" clip-path="url(#pa8bee5bb95)" style="fill: none; stroke: #2a3a57; stroke-width: 0.8; stroke-linecap: square"/>
     </g>
     <g id="line2d_21"/>
    </g>
   </g>
   <g id="patch_14">
    <path d="M 753.415385 238.32 
L 753.415385 228.891326 
L 753.415385 228.891326 
L 753.456888 228.469931 
L 753.579805 228.06473 
L 753.77941 227.691295 
L 754.048034 227.363976 
L 754.375353 227.095352 
L 754.748788 226.895747 
L 755.15399 226.77283 
L 755.575385 226.731326 
L 767.416923 226.731326 
L 767.416923 226.731326 
L 767.838318 226.77283 
L 768.243519 226.895747 
L 768.616955 227.095352 
L 768.944274 227.363976 
L 769.212897 227.691295 
L 769.412503 228.06473 
L 769.535419 228.469931 
L 769.576923 228.891326 
L 769.576923 238.32 
z
" clip-path="url(#pa8bee5bb95)" style="fill: #93c5fd"/>
   </g>
   <g id="patch_15">
    <path d="M 812.184615 238.32 
L 812.184615 217.302653 
L 812.184615 217.302653 
L 812.226119 216.881258 
L 812.349036 216.476057 
L 812.548641 216.102621 
L 812.817265 215.775302 
L 813.144584 215.506678 
L 813.518019 215.307073 
L 813.92322 215.184157 
L 814.344615 215.142653 
L 826.186154 215.142653 
L 826.186154 215.142653 
L 826.607549 215.184157 
L 827.01275 215.307073 
L 827.386186 215.506678 
L 827.713504 215.775302 
L 827.982128 216.102621 
L 828.181734 216.476057 
L 828.30465 216.881258 
L 828.346154 217.302653 
L 828.346154 238.32 
z
" clip-path="url(#pa8bee5bb95)" style="fill: #93c5fd"/>
   </g>
   <g id="patch_16">
    <path d="M 870.953846 238.32 
L 870.953846 234.45389 
L 870.953846 234.45389 
L 870.99535 234.032495 
L 871.118266 233.627294 
L 871.317872 233.253858 
L 871.586496 232.926539 
L 871.913814 232.657915 
L 872.28725 232.45831 
L 872.692451 232.335394 
L 873.113846 232.29389 
L 884.955385 232.29389 
L 884.955385 232.29389 
L 885.37678 232.335394 
L 885.781981 232.45831 
L 886.155416 232.657915 
L 886.482735 232.926539 
L 886.751359 233.253858 
L 886.950964 233.627294 
L 887.073881 234.032495 
L 887.115385 234.45389 
L 887.115385 238.32 
z
" clip-path="url(#pa8bee5bb95)" style="fill: #93c5fd"/>
   </g>
   <g id="patch_17">
    <path d="M 769.576923 238.32 
L 769.576923 53.856 
L 769.576923 53.856 
L 769.618427 53.434605 
L 769.741343 53.029404 
L 769.940949 52.655968 
L 770.209572 52.328649 
L 770.536891 52.060026 
L 770.910327 51.86042 
L 771.315528 51.737504 
L 771.736923 51.696 
L 783.578462 51.696 
L 783.578462 51.696 
L 783.999857 51.737504 
L 784.405058 51.86042 
L 784.778493 52.060026 
L 785.105812 52.328649 
L 785.374436 52.655968 
L 785.574041 53.029404 
L 785.696958 53.434605 
L 785.738462 53.856 
L 785.738462 238.32 
z
" clip-path="url(#pa8bee5bb95)" style="fill: #60a5fa"/>
   </g>
   <g id="patch_18">
    <path d="M 828.346154 238.32 
L 828.346154 173.126629 
L 828.346154 173.126629 
L 828.387658 172.705234 
L 828.510574 172.300033 
L 828.710179 171.926597 
L 828.978803 171.599278 
L 829.306122 171.330655 
L 829.679558 171.131049 
L 830.084759 171.008133 
L 830.506154 170.966629 
L 842.347692 170.966629 
L 842.347692 170.966629 
L 842.769087 171.008133 
L 843.174289 171.131049 
L 843.547724 171.330655 
L 843.875043 171.599278 
L 844.143667 171.926597 
L 844.343272 172.300033 
L 844.466189 172.705234 
L 844.507692 173.126629 
L 844.507692 238.32 
z
" clip-path="url(#pa8bee5bb95)" style="fill: #60a5fa"/>
   </g>
   <g id="patch_19">
    <path d="M 887.115385 238.32 
L 887.115385 234.45389 
L 887.115385 234.45389 
L 887.156888 234.032495 
L 887.279805 233.627294 
L 887.47941 233.253858 
L 887.748034 232.926539 
L 888.075353 232.657915 
L 888.448788 232.45831 
L 888.85399 232.335394 
L 889.275385 232.29389 
L 901.116923 232.29389 
L 901.116923 232.29389 
L 901.538318 232.335394 
L 901.943519 232.45831 
L 902.316955 232.657915 
L 902.644274 232.926539 
L 902.912897 233.253858 
L 903.112503 233.627294 
L 903.235419 234.032495 
L 903.276923 234.45389 
L 903.276923 238.32 
z
" clip-path="url(#pa8bee5bb95)" style="fill: #60a5fa"/>
   </g>
   <g id="text_23">
    <text style="fill: #b8c4d6; font: 7.5px 'Inter', 'Arial', 'DejaVu Sans', sans-serif; text-anchor: end" x="927.519231" y="16.939884" transform="rotate(-0 927.519231 16.939884)">higher is better</text>
   </g>
   <g id="text_24">
    <text style="fill: #e8eef8; font: 8px 'Inter', 'Arial', 'DejaVu Sans', sans-serif; text-anchor: middle" x="761.496154" y="221.141326" transform="rotate(-0 761.496154 221.141326)">25</text>
   </g>
   <g id="text_25">
    <text style="fill: #e8eef8; font: 8px 'Inter', 'Arial', 'DejaVu Sans', sans-serif; text-anchor: middle" x="820.265385" y="209.552653" transform="rotate(-0 820.265385 209.552653)">50</text>
   </g>
   <g id="text_26">
    <text style="fill: #e8eef8; font: 8px 'Inter', 'Arial', 'DejaVu Sans', sans-serif; text-anchor: middle" x="879.034615" y="226.70389" transform="rotate(-0 879.034615 226.70389)">13</text>
   </g>
   <g id="text_27">
    <text style="fill: #e8eef8; font: 700 8px 'Inter', 'Arial', 'DejaVu Sans', sans-serif; text-anchor: middle" x="777.657692" y="46.11725" transform="rotate(-0 777.657692 46.11725)">403</text>
   </g>
   <g id="text_28">
    <text style="fill: #e8eef8; font: 8px 'Inter', 'Arial', 'DejaVu Sans', sans-serif; text-anchor: middle" x="836.426923" y="165.376629" transform="rotate(-0 836.426923 165.376629)">145</text>
   </g>
   <g id="text_29">
    <text style="fill: #e8eef8; font: 8px 'Inter', 'Arial', 'DejaVu Sans', sans-serif; text-anchor: middle" x="895.196154" y="226.70389" transform="rotate(-0 895.196154 226.70389)">13</text>
   </g>
   <g id="text_30">
    <text style="fill: #e8eef8; font: 700 11px 'Inter', 'Arial', 'DejaVu Sans', sans-serif; text-anchor: start" x="729.173077" y="20.96" transform="rotate(-0 729.173077 20.96)">Output tok/s</text>
   </g>
   <g id="legend_1">
    <g id="patch_20">
     <path d="M 851.021481 42.593625 
L 859.661481 42.593625 
L 859.661481 37.553625 
L 851.021481 37.553625 
z
" style="fill: #1f77b4"/>
    </g>
    <g id="text_31">
     <text style="fill: #b8c4d6; font: 7.2px 'Inter', 'Arial', 'DejaVu Sans', sans-serif; text-anchor: start" x="865.421481" y="42.593625" transform="rotate(-0 865.421481 42.593625)">Per single worker</text>
    </g>
    <g id="patch_21">
     <path d="M 851.021481 52.862625 
L 859.661481 52.862625 
L 859.661481 47.822625 
L 851.021481 47.822625 
z
" style="fill: #1f77b4"/>
    </g>
    <g id="text_32">
     <text style="fill: #b8c4d6; font: 7.2px 'Inter', 'Arial', 'DejaVu Sans', sans-serif; text-anchor: start" x="865.421481" y="52.862625" transform="rotate(-0 865.421481 52.862625)">Aggregate</text>
    </g>
   </g>
   <g id="patch_22">
    <path d="M 729.173077 238.32 
L 927.519231 238.32 
L 927.519231 30.96 
L 729.173077 30.96 
L 729.173077 238.32 
z
" style="fill: none; stroke: #33445f; stroke-width: 0.8; stroke-linejoin: miter"/>
   </g>
  </g>
  <g id="axes_4">
   <g id="patch_23">
    <path d="M 377.653846 507.6 
L 576 507.6 
L 576 300.24 
L 377.653846 300.24 
z
" style="fill: #16243f"/>
   </g>
   <g id="matplotlib.axis_7">
    <g id="xtick_10">
     <g id="line2d_22"/>
     <g id="text_33">
      <text style="fill: #b8c4d6; font: 7.5px 'Inter', 'Arial', 'DejaVu Sans', sans-serif; text-anchor: middle" x="418.057692" y="516.468359" transform="rotate(-0 418.057692 516.468359)">Gemma</text>
     </g>
    </g>
    <g id="xtick_11">
     <g id="line2d_23"/>
     <g id="text_34">
      <text style="fill: #b8c4d6; font: 7.5px 'Inter', 'Arial', 'DejaVu Sans', sans-serif; text-anchor: middle" x="476.826923" y="516.468359" transform="rotate(-0 476.826923 516.468359)">Qwen</text>
     </g>
    </g>
    <g id="xtick_12">
     <g id="line2d_24"/>
     <g id="text_35">
      <text style="fill: #b8c4d6; font: 7.5px 'Inter', 'Arial', 'DejaVu Sans', sans-serif; text-anchor: middle" x="535.596154" y="516.559766" transform="rotate(-0 535.596154 516.559766)">DeepSeek</text>
     </g>
    </g>
   </g>
   <g id="matplotlib.axis_8">
    <g id="ytick_7">
     <g id="line2d_25">
      <path d="M 377.653846 507.6 
L 576 507.6 
" clip-path="url(#p74d7326e6b)" style="fill: none; stroke: #2a3a57; stroke-width: 0.8; stroke-linecap: square"/>
     </g>
     <g id="line2d_26"/>
     <g id="text_36">
      <text style="fill: #b8c4d6; font: 7.5px 'Inter', 'Arial', 'DejaVu Sans', sans-serif; text-anchor: end" x="374.153846" y="510.28418" transform="rotate(-0 374.153846 510.28418)">0</text>
     </g>
    </g>
    <g id="ytick_8">
     <g id="line2d_27">
      <path d="M 377.653846 300.24 
L 576 300.24 
" clip-path="url(#p74d7326e6b)" style="fill: none; stroke: #2a3a57; stroke-width: 0.8; stroke-linecap: square"/>
     </g>
     <g id="line2d_28"/>
    </g>
   </g>
   <g id="patch_24">
    <path d="M 399.692308 507.6 
L 399.692308 323.496 
L 399.692308 323.496 
L 399.740729 323.004372 
L 399.884131 322.531638 
L 400.117004 322.095963 
L 400.430399 321.714091 
L 400.812271 321.400697 
L 401.247945 321.167824 
L 401.72068 321.024421 
L 402.212308 320.976 
L 433.903077 320.976 
L 433.903077 320.976 
L 434.394705 321.024421 
L 434.867439 321.167824 
L 435.303114 321.400697 
L 435.684986 321.714091 
L 435.99838 322.095963 
L 436.231253 322.531638 
L 436.374656 323.004372 
L 436.423077 323.496 
L 436.423077 507.6 
z
" clip-path="url(#p74d7326e6b)" style="fill: #60a5fa"/>
   </g>
   <g id="patch_25">
    <path d="M 458.461538 507.6 
L 458.461538 463.464 
L 458.461538 463.464 
L 458.50996 462.972372 
L 458.653362 462.499638 
L 458.886235 462.063963 
L 459.199629 461.682091 
L 459.581501 461.368697 
L 460.017176 461.135824 
L 460.489911 460.992421 
L 460.981538 460.944 
L 492.672308 460.944 
L 492.672308 460.944 
L 493.163935 460.992421 
L 493.63667 461.135824 
L 494.072345 461.368697 
L 494.454217 461.682091 
L 494.767611 462.063963 
L 495.000484 462.499638 
L 495.143887 462.972372 
L 495.192308 463.464 
L 495.192308 507.6 
z
" clip-path="url(#p74d7326e6b)" style="fill: #7c8aa2"/>
   </g>
   <g id="patch_26">
    <path d="M 517.230769 507.6 
L 517.230769 498.456 
L 517.230769 498.456 
L 517.27919 497.964372 
L 517.422593 497.491638 
L 517.655466 497.055963 
L 517.96886 496.674091 
L 518.350732 496.360697 
L 518.786407 496.127824 
L 519.259142 495.984421 
L 519.750769 495.936 
L 551.441538 495.936 
L 551.441538 495.936 
L 551.933166 495.984421 
L 552.405901 496.127824 
L 552.841575 496.360697 
L 553.223448 496.674091 
L 553.536842 497.055963 
L 553.769715 497.491638 
L 553.913117 497.964372 
L 553.961538 498.456 
L 553.961538 507.6 
z
" clip-path="url(#p74d7326e6b)" style="fill: #7c8aa2"/>
   </g>
   <g id="text_37">
    <text style="fill: #e8eef8; font: 700 8px 'Inter', 'Arial', 'DejaVu Sans', sans-serif; text-anchor: middle" x="418.057692" y="315.39725" transform="rotate(-0 418.057692 315.39725)">16</text>
   </g>
   <g id="text_38">
    <text style="fill: #e8eef8; font: 8px 'Inter', 'Arial', 'DejaVu Sans', sans-serif; text-anchor: middle" x="476.826923" y="455.354" transform="rotate(-0 476.826923 455.354)">4</text>
   </g>
   <g id="text_39">
    <text style="fill: #e8eef8; font: 8px 'Inter', 'Arial', 'DejaVu Sans', sans-serif; text-anchor: middle" x="535.596154" y="490.346" transform="rotate(-0 535.596154 490.346)">1</text>
   </g>
   <g id="text_40">
    <text style="fill: #e8eef8; font: 700 11px 'Inter', 'Arial', 'DejaVu Sans', sans-serif; text-anchor: start" x="377.653846" y="290.24" transform="rotate(-0 377.653846 290.24)">Concurrency</text>
   </g>
   <g id="patch_27">
    <path d="M 377.653846 507.6 
L 576 507.6 
L 576 300.24 
L 377.653846 300.24 
L 377.653846 507.6 
z
" style="fill: none; stroke: #33445f; stroke-width: 0.8; stroke-linejoin: miter"/>
   </g>
  </g>
  <g id="axes_5">
   <g id="patch_28">
    <path d="M 612 507.6 
L 810.346154 507.6 
L 810.346154 300.24 
L 612 300.24 
z
" style="fill: #16243f"/>
   </g>
   <g id="matplotlib.axis_9">
    <g id="xtick_13">
     <g id="line2d_29"/>
     <g id="text_41">
      <text style="fill: #b8c4d6; font: 7.5px 'Inter', 'Arial', 'DejaVu Sans', sans-serif; text-anchor: middle" x="652.403846" y="516.468359" transform="rotate(-0 652.403846 516.468359)">Gemma</text>
     </g>
    </g>
    <g id="xtick_14">
     <g id="line2d_30"/>
     <g id="text_42">
      <text style="fill: #b8c4d6; font: 7.5px 'Inter', 'Arial', 'DejaVu Sans', sans-serif; text-anchor: middle" x="711.173077" y="516.468359" transform="rotate(-0 711.173077 516.468359)">Qwen</text>
     </g>
    </g>
    <g id="xtick_15">
     <g id="line2d_31"/>
     <g id="text_43">
      <text style="fill: #b8c4d6; font: 7.5px 'Inter', 'Arial', 'DejaVu Sans', sans-serif; text-anchor: middle" x="769.942308" y="516.559766" transform="rotate(-0 769.942308 516.559766)">DeepSeek</text>
     </g>
    </g>
   </g>
   <g id="matplotlib.axis_10">
    <g id="ytick_9">
     <g id="line2d_32">
      <path d="M 612 507.6 
L 810.346154 507.6 
" clip-path="url(#pbf335e9c73)" style="fill: none; stroke: #2a3a57; stroke-width: 0.8; stroke-linecap: square"/>
     </g>
     <g id="line2d_33"/>
     <g id="text_44">
      <text style="fill: #b8c4d6; font: 7.5px 'Inter', 'Arial', 'DejaVu Sans', sans-serif; text-anchor: end" x="608.5" y="510.28418" transform="rotate(-0 608.5 510.28418)">0</text>
     </g>
    </g>
    <g id="ytick_10">
     <g id="line2d_34">
      <path d="M 612 300.24 
L 810.346154 300.24 
" clip-path="url(#pbf335e9c73)" style="fill: none; stroke: #2a3a57; stroke-width: 0.8; stroke-linecap: square"/>
     </g>
     <g id="line2d_35"/>
    </g>
   </g>
   <g id="patch_29">
    <path d="M 636.242308 507.6 
L 636.242308 492.674704 
L 636.242308 492.674704 
L 636.283811 492.253309 
L 636.406728 491.848108 
L 636.606333 491.474673 
L 636.874957 491.147354 
L 637.202276 490.87873 
L 637.575711 490.679124 
L 637.980913 490.556208 
L 638.402308 490.514704 
L 650.243846 490.514704 
L 650.243846 490.514704 
L 650.665241 490.556208 
L 651.070442 490.679124 
L 651.443878 490.87873 
L 651.771197 491.147354 
L 652.039821 491.474673 
L 652.239426 491.848108 
L 652.362342 492.253309 
L 652.403846 492.674704 
L 652.403846 507.6 
z
" clip-path="url(#pbf335e9c73)" style="fill: #60a5fa"/>
   </g>
   <g id="patch_30">
    <path d="M 695.011538 507.6 
L 695.011538 486.760563 
L 695.011538 486.760563 
L 695.053042 486.339168 
L 695.175959 485.933967 
L 695.375564 485.560532 
L 695.644188 485.233213 
L 695.971507 484.964589 
L 696.344942 484.764984 
L 696.750143 484.642067 
L 697.171538 484.600563 
L 709.013077 484.600563 
L 709.013077 484.600563 
L 709.434472 484.642067 
L 709.839673 484.764984 
L 710.213109 484.964589 
L 710.540428 485.233213 
L 710.809051 485.560532 
L 711.008657 485.933967 
L 711.131573 486.339168 
L 711.173077 486.760563 
L 711.173077 507.6 
z
" clip-path="url(#pbf335e9c73)" style="fill: #60a5fa"/>
   </g>
   <g id="patch_31">
    <path d="M 753.780769 507.6 
L 753.780769 323.136 
L 753.780769 323.136 
L 753.822273 322.714605 
L 753.945189 322.309404 
L 754.144795 321.935968 
L 754.413419 321.608649 
L 754.740738 321.340026 
L 755.114173 321.14042 
L 755.519374 321.017504 
L 755.940769 320.976 
L 767.782308 320.976 
L 767.782308 320.976 
L 768.203703 321.017504 
L 768.608904 321.14042 
L 768.982339 321.340026 
L 769.309658 321.608649 
L 769.578282 321.935968 
L 769.777887 322.309404 
L 769.900804 322.714605 
L 769.942308 323.136 
L 769.942308 507.6 
z
" clip-path="url(#pbf335e9c73)" style="fill: #60a5fa"/>
   </g>
   <g id="patch_32">
    <path d="M 652.403846 507.6 
L 652.403846 506.285746 
L 652.403846 506.285746 
L 652.429099 506.029348 
L 652.503888 505.782803 
L 652.625338 505.555586 
L 652.788782 505.356429 
L 652.98794 505.192985 
L 653.215157 505.071535 
L 653.461702 504.996746 
L 653.7181 504.971493 
L 667.251131 504.971493 
L 667.251131 504.971493 
L 667.507529 504.996746 
L 667.754074 505.071535 
L 667.981291 505.192985 
L 668.180449 505.356429 
L 668.343893 505.555586 
L 668.465343 505.782803 
L 668.540132 506.029348 
L 668.565385 506.285746 
L 668.565385 507.6 
z
" clip-path="url(#pbf335e9c73)" style="fill: #93c5fd"/>
   </g>
   <g id="patch_33">
    <path d="M 711.173077 507.6 
L 711.173077 506.61431 
L 711.173077 506.61431 
L 711.192017 506.422011 
L 711.248108 506.237103 
L 711.339196 506.06669 
L 711.461779 505.917322 
L 711.611147 505.794738 
L 711.78156 505.703651 
L 711.966468 505.647559 
L 712.158767 505.62862 
L 726.348925 505.62862 
L 726.348925 505.62862 
L 726.541224 505.647559 
L 726.726133 505.703651 
L 726.896545 505.794738 
L 727.045913 505.917322 
L 727.168497 506.06669 
L 727.259584 506.237103 
L 727.315676 506.422011 
L 727.334615 506.61431 
L 727.334615 507.6 
z
" clip-path="url(#pbf335e9c73)" style="fill: #93c5fd"/>
   </g>
   <g id="patch_34">
    <path d="M 769.942308 507.6 
L 769.942308 501.217352 
L 769.942308 501.217352 
L 769.983811 500.795957 
L 770.106728 500.390756 
L 770.306333 500.01732 
L 770.574957 499.690001 
L 770.902276 499.421378 
L 771.275711 499.221772 
L 771.680913 499.098856 
L 772.102308 499.057352 
L 783.943846 499.057352 
L 783.943846 499.057352 
L 784.365241 499.098856 
L 784.770442 499.221772 
L 785.143878 499.421378 
L 785.471197 499.690001 
L 785.739821 500.01732 
L 785.939426 500.390756 
L 786.062342 500.795957 
L 786.103846 501.217352 
L 786.103846 507.6 
z
" clip-path="url(#pbf335e9c73)" style="fill: #93c5fd"/>
   </g>
   <g id="text_45">
    <text style="fill: #e8eef8; font: 8px 'Inter', 'Arial', 'DejaVu Sans', sans-serif; text-anchor: middle" x="644.323077" y="484.924704" transform="rotate(-0 644.323077 484.924704)">26B</text>
   </g>
   <g id="text_46">
    <text style="fill: #e8eef8; font: 8px 'Inter', 'Arial', 'DejaVu Sans', sans-serif; text-anchor: middle" x="703.092308" y="479.010563" transform="rotate(-0 703.092308 479.010563)">35B</text>
   </g>
   <g id="text_47">
    <text style="fill: #e8eef8; font: 700 8px 'Inter', 'Arial', 'DejaVu Sans', sans-serif; text-anchor: middle" x="761.861538" y="315.39725" transform="rotate(-0 761.861538 315.39725)">284B</text>
   </g>
   <g id="text_48">
    <text style="fill: #e8eef8; font: 8px 'Inter', 'Arial', 'DejaVu Sans', sans-serif; text-anchor: middle" x="660.484615" y="499.381493" transform="rotate(-0 660.484615 499.381493)">4B</text>
   </g>
   <g id="text_49">
    <text style="fill: #e8eef8; font: 8px 'Inter', 'Arial', 'DejaVu Sans', sans-serif; text-anchor: middle" x="719.253846" y="500.03862" transform="rotate(-0 719.253846 500.03862)">3B</text>
   </g>
   <g id="text_50">
    <text style="fill: #e8eef8; font: 8px 'Inter', 'Arial', 'DejaVu Sans', sans-serif; text-anchor: middle" x="778.023077" y="493.467352" transform="rotate(-0 778.023077 493.467352)">13B</text>
   </g>
   <g id="text_51">
    <text style="fill: #e8eef8; font: 700 11px 'Inter', 'Arial', 'DejaVu Sans', sans-serif; text-anchor: start" x="612" y="290.24" transform="rotate(-0 612 290.24)">Parameters</text>
   </g>
   <g id="legend_2">
    <g id="patch_35">
     <path d="M 618.75 312.358359 
L 627.75 312.358359 
L 627.75 307.108359 
L 618.75 307.108359 
z
" style="fill: #1f77b4"/>
    </g>
    <g id="text_52">
     <text style="fill: #b8c4d6; font: 7.5px 'Inter', 'Arial', 'DejaVu Sans', sans-serif; text-anchor: start" x="633.75" y="312.358359" transform="rotate(-0 633.75 312.358359)">Total</text>
    </g>
    <g id="patch_36">
     <path d="M 655.587891 312.358359 
L 664.587891 312.358359 
L 664.587891 307.108359 
L 655.587891 307.108359 
z
" style="fill: #1f77b4"/>
    </g>
    <g id="text_53">
     <text style="fill: #b8c4d6; font: 7.5px 'Inter', 'Arial', 'DejaVu Sans', sans-serif; text-anchor: start" x="670.587891" y="312.358359" transform="rotate(-0 670.587891 312.358359)">Active</text>
    </g>
   </g>
   <g id="patch_37">
    <path d="M 612 507.6 
L 810.346154 507.6 
L 810.346154 300.24 
L 612 300.24 
L 612 507.6 
z
" style="fill: none; stroke: #33445f; stroke-width: 0.8; stroke-linejoin: miter"/>
   </g>
  </g>
 </g>
 <defs>
  <clipPath id="pc13ae81ed5">
   <rect x="260.480769" y="30.96" width="198.346154" height="207.36"/>
  </clipPath>
  <clipPath id="p1f87d90b60">
   <rect x="494.826923" y="30.96" width="198.346154" height="207.36"/>
  </clipPath>
  <clipPath id="pa8bee5bb95">
   <rect x="729.173077" y="30.96" width="198.346154" height="207.36"/>
  </clipPath>
  <clipPath id="p74d7326e6b">
   <rect x="377.653846" y="300.24" width="198.346154" height="207.36"/>
  </clipPath>
  <clipPath id="pbf335e9c73">
   <rect x="612" y="300.24" width="198.346154" height="207.36"/>
  </clipPath>
 </defs>
</svg>
