<?xml version="1.0" encoding="UTF-8"?>
<svg xmlns="http://www.w3.org/2000/svg" width="900" height="1610" viewBox="0 0 900 1610">
  <defs>
    <marker id="arrow" markerWidth="10" markerHeight="10" refX="8" refY="3" orient="auto" markerUnits="strokeWidth">
      <path d="M0,0 L0,6 L9,3 z" fill="#1e1e1e"/>
    </marker>
    <style>
      .zone { fill: #fff9db; stroke: #8d7b00; stroke-width: 1.4; }
      .box { fill: #f4f0ff; stroke: #5f3dc4; stroke-width: 1.4; rx: 8; }
      .text { font-family: Virgil, Comic Sans MS, Bradley Hand, sans-serif; font-size: 18px; fill: #1e1e1e; text-anchor: middle; dominant-baseline: middle; }
      .small { font-size: 16px; }
      .label { fill: #eeeeee; opacity: 0.9; }
      .arrow { stroke: #1e1e1e; stroke-width: 1.5; fill: none; marker-end: url(#arrow); }
      .dash { stroke-dasharray: 5 5; }
    </style>
  </defs>
  <rect class="zone" x="310" y="20" width="260" height="120" rx="4"/><text class="text small" style="text-anchor: start;" x="326" y="38">Source</text>
  <rect class="box" x="365" y="62" width="150" height="56" rx="8"/><text class="text" x="440" y="90">GitHub</text>
  <rect class="zone" x="90" y="230" width="700" height="1160" rx="4"/><text class="text small" style="text-anchor: start;" x="106" y="248">Local machine</text>
  <rect class="box" x="365" y="300" width="150" height="56" rx="8"/><text class="text" x="440" y="328">gitcrawl</text>
  <rect class="box" x="340" y="420" width="200" height="60" rx="8"/><text class="text" x="440" y="450">SQLite queue</text>
  <rect class="box" x="315" y="545" width="250" height="62" rx="8"/><text class="text" x="440" y="576">Localpager worker</text>
  <rect class="zone" x="130" y="705" width="620" height="300" rx="4"/><text class="text small" style="text-anchor: start;" x="146" y="723">localpager-agent</text>
  <rect class="box" x="150" y="785" width="160" height="58" rx="8"/><text class="text" x="230" y="814">Gemma 4 E4B</text>
  <rect class="box" x="360" y="785" width="160" height="58" rx="8"/><text class="text" x="440" y="814">Pi harness</text>
  <rect class="box" x="570" y="785" width="150" height="58" rx="8"/><text class="text" x="645" y="814">reposhell</text>
  <rect class="box" x="365" y="920" width="150" height="58" rx="8"/><text class="text" x="440" y="949">final_json</text>
  <rect class="box" x="340" y="1065" width="200" height="60" rx="8"/><text class="text" x="440" y="1095">SQLite results</text>
  <polygon class="box" points="440,1190 525,1255 440,1320 355,1255"/><text class="text" x="440" y="1255">Match?</text>
  <rect class="zone" x="310" y="1450" width="260" height="120" rx="4"/><text class="text small" style="text-anchor: start;" x="326" y="1468">Destination</text>
  <rect class="box" x="365" y="1492" width="150" height="56" rx="8"/><text class="text" x="440" y="1520">Discord</text>
  <line class="arrow" x1="440" y1="118" x2="440" y2="300"/><rect class="label" x="340" y="184" width="200" height="26"/><text class="text small" x="440" y="197">PRs and issues</text>
  <line class="arrow" x1="440" y1="356" x2="440" y2="420"/><rect class="label" x="340" y="375" width="200" height="26"/><text class="text small" x="440" y="388">mirror updates</text>
  <line class="arrow" x1="440" y1="480" x2="440" y2="545"/><rect class="label" x="340" y="499.5" width="200" height="26"/><text class="text small" x="440" y="512.5">claim job</text>
  <line class="arrow" x1="440" y1="607" x2="440" y2="785"/><rect class="label" x="340" y="667" width="200" height="26"/><text class="text small" x="440" y="680">prompt + schema</text>
  <line class="arrow dash" x1="310" y1="814" x2="360" y2="814"/><rect class="label" x="235" y="731" width="200" height="26"/><text class="text small" x="335" y="744">inference</text>
  <line class="arrow dash" x1="570" y1="814" x2="520" y2="814"/><rect class="label" x="445" y="731" width="200" height="26"/><text class="text small" x="545" y="744">repo context</text>
  <line class="arrow" x1="440" y1="843" x2="440" y2="920"/><rect class="label" x="340" y="868.5" width="200" height="26"/><text class="text small" x="440" y="881.5">structured output</text>
  <line class="arrow" x1="440" y1="978" x2="440" y2="1065"/><rect class="label" x="340" y="1008.5" width="200" height="26"/><text class="text small" x="440" y="1021.5">classification JSON</text>
  <line class="arrow" x1="440" y1="1125" x2="440" y2="1190"/><rect class="label" x="340" y="1144.5" width="200" height="26"/><text class="text small" x="440" y="1157.5">notify_topics_any</text>
  <line class="arrow" x1="440" y1="1320" x2="440" y2="1492"/><rect class="label" x="340" y="1403" width="200" height="26"/><text class="text small" x="440" y="1416">matching topics only</text>
</svg>