<svg width="378" height="378" viewBox="0 0 378 378" fill="none" xmlns="http://www.w3.org/2000/svg">
<path d="M199.198 251.609L151.52 258.553L270.254 377.296L251.158 303.56L199.198 251.609Z" fill="#FFFFFF"/>
<path d="M377.269 0.00756836L0 107.04L118.725 225.757L129.882 174.601L78.7869 123.507L322.092 55.02C322.092 55.02 370.402 6.97819 377.278 0.0162252L377.269 0.00756836Z" fill="#FFFFFF"/>
<path d="M322.089 55.0124L251.164 303.559L270.259 377.286L377.283 0C370.408 6.96196 322.098 55.0038 322.098 55.0038L322.089 55.0124Z" fill="#FFFFFF"/>
<path d="M168.263 209.015L151.52 258.553L199.199 251.608L242.034 135.495L241.654 135.625L168.263 209.015Z" fill="#FFFFFF"/>
<path d="M129.874 174.597L118.717 225.761L168.264 209.018L241.654 135.627L129.874 174.597Z" fill="#FFFFFF"/>
</svg>
