<svg width="1963" height="427" viewBox="0 0 1963 427" fill="none" xmlns="http://www.w3.org/2000/svg">
<path d="M199.198 251.609L151.52 258.553L270.254 377.296L251.158 303.56L199.198 251.609Z" fill="#FFFFFF"/>
<path d="M377.269 0.00756836L0 107.04L118.725 225.757L129.882 174.601L78.7869 123.507L322.092 55.02C322.092 55.02 370.402 6.97819 377.278 0.0162252L377.269 0.00756836Z" fill="#FFFFFF"/>
<path d="M322.089 55.0124L251.164 303.559L270.259 377.286L377.283 0C370.408 6.96196 322.098 55.0038 322.098 55.0038L322.089 55.0124Z" fill="#FFFFFF"/>
<path d="M168.263 209.015L151.52 258.553L199.199 251.608L242.034 135.495L241.654 135.625L168.263 209.015Z" fill="#FFFFFF"/>
<path d="M129.874 174.597L118.717 225.761L168.264 209.018L241.654 135.627L129.874 174.597Z" fill="#FFFFFF"/>
<path d="M663.108 259.549C663.108 247.969 659.017 239.078 650.845 232.877C642.672 226.676 627.952 220.138 606.695 213.254C585.437 206.379 568.607 199.598 556.214 192.922C522.417 174.665 505.526 150.069 505.526 119.143C505.526 103.065 510.058 88.7264 519.122 76.1171C528.185 63.5164 541.192 53.6659 558.16 46.5829C575.128 39.4999 594.163 35.9541 615.283 35.9541C636.402 35.9541 655.48 39.8026 672.102 47.4997C688.724 55.1967 701.636 66.0677 710.83 80.0953C720.023 94.1316 724.624 110.071 724.624 127.921H663.307C663.307 114.3 659.017 103.705 650.43 96.138C641.842 88.5707 629.786 84.7914 614.253 84.7914C598.721 84.7914 587.616 87.9567 579.305 94.2959C570.994 100.635 566.834 108.981 566.834 119.333C566.834 129.01 571.704 137.114 581.45 143.652C591.188 150.19 605.536 156.322 624.476 162.047C659.355 172.538 684.772 185.553 700.711 201.086C716.65 216.618 724.624 235.965 724.624 259.134C724.624 284.888 714.877 305.091 695.401 319.733C675.916 334.383 649.686 341.708 616.71 341.708C593.817 341.708 572.975 337.522 554.165 329.142C535.355 320.762 521.016 309.285 511.139 294.704C501.263 280.123 496.324 263.233 496.324 244.016H557.84C557.84 276.854 577.463 293.277 616.701 293.277C631.282 293.277 642.655 290.311 650.836 284.387C659.017 278.463 663.099 270.186 663.099 259.557L663.108 259.549Z" fill="#FFFFFF"/>
<path d="M832.094 248.921L810.837 270.178V337.627H751.768V23.6914H810.837V197.627L822.278 182.908L878.89 116.48H949.816L869.905 208.654L956.769 337.618H888.914L832.094 248.912V248.921Z" fill="#FFFFFF"/>
<path d="M1047.48 254.033L1088.36 116.481H1151.72L1062.81 371.962L1057.91 383.612C1044.69 412.497 1022.89 426.94 992.509 426.94C983.921 426.94 975.204 425.643 966.348 423.057V378.293L975.342 378.501C986.516 378.501 994.861 376.797 1000.38 373.389C1005.9 369.982 1010.22 364.326 1013.36 356.421L1020.31 338.234L942.85 116.473H1006.42L1047.5 254.025L1047.48 254.033Z" fill="#FFFFFF"/>
<path d="M1229.73 232.78V337.633H1168.42V40.043H1284.5C1306.85 40.043 1326.51 44.1336 1343.47 52.3063C1360.43 60.479 1373.48 72.1024 1382.61 87.1506C1391.73 102.207 1396.3 119.34 1396.3 138.556C1396.3 167.719 1386.32 190.706 1366.36 207.536C1346.4 224.365 1318.77 232.78 1283.48 232.78H1229.73ZM1229.73 183.113H1284.51C1300.73 183.113 1313.09 179.299 1321.6 171.671C1330.11 164.043 1334.38 153.146 1334.38 138.972C1334.38 124.797 1330.09 112.603 1321.5 103.617C1312.91 94.6314 1301.06 89.9959 1285.94 89.7191H1229.73V183.121V183.113Z" fill="#FFFFFF"/>
<path d="M1423.66 59.2601C1423.66 50.4041 1426.62 43.1136 1432.55 37.3884C1438.47 31.6631 1446.55 28.8005 1456.76 28.8005C1466.98 28.8005 1474.88 31.6631 1480.88 37.3884C1486.88 43.1136 1489.88 50.4041 1489.88 59.2601C1489.88 68.116 1486.84 75.6141 1480.78 81.3307C1474.72 87.0559 1466.71 89.9185 1456.76 89.9185C1446.82 89.9185 1438.81 87.0559 1432.75 81.3307C1426.68 75.6054 1423.65 68.2544 1423.65 59.2601H1423.66ZM1486.4 337.633H1427.13V116.486H1486.4V337.633Z" fill="#FFFFFF"/>
<path d="M1586.92 337.627H1527.65V23.6914H1586.92V337.627Z" fill="#FFFFFF"/>
<path d="M1615.9 225.011C1615.9 203.078 1620.12 183.524 1628.57 166.349C1637.02 149.182 1649.18 135.898 1665.05 126.497C1680.92 117.096 1699.35 112.392 1720.34 112.392C1750.17 112.392 1774.53 121.524 1793.41 139.781C1812.28 158.038 1822.8 182.841 1824.98 214.174L1825.39 229.3C1825.39 263.228 1815.92 290.444 1796.98 310.949C1778.04 331.454 1752.63 341.711 1720.74 341.711C1688.86 341.711 1663.41 331.489 1644.4 311.053C1625.4 290.617 1615.89 262.821 1615.89 227.666V225.011H1615.9ZM1674.97 229.205C1674.97 250.22 1678.92 266.289 1686.82 277.411C1694.73 288.533 1706.03 294.094 1720.75 294.094C1735.47 294.094 1746.23 288.602 1754.27 277.618C1762.31 266.635 1766.33 249.062 1766.33 224.907C1766.33 204.306 1762.31 188.333 1754.27 177.003C1746.23 165.683 1734.93 160.018 1720.35 160.018C1705.76 160.018 1694.73 165.648 1686.82 176.908C1678.92 188.169 1674.97 205.604 1674.97 229.205Z" fill="#FFFFFF"/>
<path d="M1922.04 62.1255V116.489H1959.85V159.817H1922.04V270.188C1922.04 278.36 1923.61 284.224 1926.75 287.761C1929.88 291.307 1935.87 293.071 1944.73 293.071C1951.27 293.071 1957.07 292.596 1962.11 291.644V336.408C1950.53 339.954 1938.6 341.718 1926.34 341.718C1884.91 341.718 1863.79 320.807 1862.98 278.974V159.817H1830.69V116.489H1862.98V62.1255H1922.05H1922.04Z" fill="#FFFFFF"/>
</svg>
