<svg width="2224" height="1111" xmlns="http://www.w3.org/2000/svg" xmlns:xlink="http://www.w3.org/1999/xlink" xml:space="preserve" overflow="hidden"><defs><clipPath id="clip0"><rect x="1808" y="521" width="2224" height="1111"/></clipPath></defs><g clip-path="url(#clip0)" transform="translate(-1808 -521)"><rect x="1809" y="522" width="2221" height="1108" fill="#FFFFFF"/><g><path d="M2502.58 792.5 2502.58 1336.5M2994.6 792.5 2994.6 1336.5M3486.61 792.5 3486.61 1336.5M3979.5 792.5 3979.5 1336.5" stroke="#D9D9D9" stroke-width="3.4375" stroke-linejoin="round" stroke-miterlimit="10" fill="none"/></g><g><path d="M2129.07 1168.04 2182.07 1168.04 2182.07 1336 2129.07 1336ZM2621.09 1105.04 2674.09 1105.04 2674.09 1336 2621.09 1336ZM3113.1 1047.03 3166.1 1047.03 3166.1 1336 3113.1 1336ZM3605.12 983.032 3658.12 983.032 3658.12 1336 3605.12 1336Z" fill="#156082"/></g><g><path d="M2230.07 1138.04 2283.07 1138.04 2283.07 1336 2230.07 1336ZM2722.09 1054.03 2775.09 1054.03 2775.09 1336 2722.09 1336ZM3214.11 980.032 3268.11 980.032 3268.11 1336 3214.11 1336ZM3706.12 884.029 3760.12 884.029 3760.12 1336 3706.12 1336Z" fill="#E97132"/></g><g><path d="M2331.08 1132.04 2384.08 1132.04 2384.08 1336 2331.08 1336ZM2823.09 1056.03 2877.09 1056.03 2877.09 1336 2823.09 1336ZM3315.11 960.031 3369.11 960.031 3369.11 1336 3315.11 1336ZM3808.12 881.029 3861.13 881.029 3861.13 1336 3808.12 1336Z" fill="#196B24"/></g><g><path d="M0 0 0.000360892 544" stroke="#D9D9D9" stroke-width="3.4375" stroke-linejoin="round" stroke-miterlimit="10" fill="none" fill-rule="evenodd" transform="matrix(1 0 0 -1 2010.5 1336.5)"/></g><g><path d="M1997.5 1336.5 2010.5 1336.5M1997.5 1268.54 2010.5 1268.54M1997.5 1200.54 2010.5 1200.54M1997.5 1132.54 2010.5 1132.54M1997.5 1064.54 2010.5 1064.54M1997.5 996.533 2010.5 996.533M1997.5 928.531 2010.5 928.531M1997.5 860.528 2010.5 860.528M1997.5 792.5 2010.5 792.5" stroke="#D9D9D9" stroke-width="3.4375" stroke-linejoin="round" stroke-miterlimit="10" fill="none"/></g><g><path d="M2010.5 1336.5 3979.5 1336.5" stroke="#D9D9D9" stroke-width="3.4375" stroke-linejoin="round" stroke-miterlimit="10" fill="none" fill-rule="evenodd"/></g><g><text fill="#7F7F7F" font-family="Aptos Narrow,Aptos Narrow_MSFontService,sans-serif" font-weight="400" font-stretch="semi-condensed" font-size="37" transform="matrix(6.12323e-17 -1 1 6.12323e-17 2167.06 1140)">+0%</text></g><g><text fill="#7F7F7F" font-family="Aptos Narrow,Aptos Narrow_MSFontService,sans-serif" font-weight="400" font-stretch="semi-condensed" font-size="37" transform="matrix(6.12323e-17 -1 1 6.12323e-17 2659.23 1078)">+0%</text></g><g><text fill="#7F7F7F" font-family="Aptos Narrow,Aptos Narrow_MSFontService,sans-serif" font-weight="400" font-stretch="semi-condensed" font-size="37" transform="matrix(6.12323e-17 -1 1 6.12323e-17 3151.41 1019)">+0%</text></g><g><text fill="#7F7F7F" font-family="Aptos Narrow,Aptos Narrow_MSFontService,sans-serif" font-weight="400" font-stretch="semi-condensed" font-size="37" transform="matrix(6.12323e-17 -1 1 6.12323e-17 3643.59 955)">+0%</text></g><g><text fill="#7F7F7F" font-family="Aptos Narrow,Aptos Narrow_MSFontService,sans-serif" font-weight="400" font-stretch="semi-condensed" font-size="37" transform="matrix(6.12323e-17 -1 1 6.12323e-17 2268.26 1110)">+18%</text></g><g><text fill="#7F7F7F" font-family="Aptos Narrow,Aptos Narrow_MSFontService,sans-serif" font-weight="400" font-stretch="semi-condensed" font-size="37" transform="matrix(6.12323e-17 -1 1 6.12323e-17 2760.44 1026)">+22%</text></g><g><text fill="#7F7F7F" font-family="Aptos Narrow,Aptos Narrow_MSFontService,sans-serif" font-weight="400" font-stretch="semi-condensed" font-size="37" transform="matrix(6.12323e-17 -1 1 6.12323e-17 3252.61 953)">+23%</text></g><g><text fill="#7F7F7F" font-family="Aptos Narrow,Aptos Narrow_MSFontService,sans-serif" font-weight="400" font-stretch="semi-condensed" font-size="37" transform="matrix(6.12323e-17 -1 1 6.12323e-17 3744.79 856)">+28%</text></g><g><text fill="#7F7F7F" font-family="Aptos Narrow,Aptos Narrow_MSFontService,sans-serif" font-weight="400" font-stretch="semi-condensed" font-size="37" transform="matrix(6.12323e-17 -1 1 6.12323e-17 2369.47 1105)">+21%</text></g><g><text fill="#7F7F7F" font-family="Aptos Narrow,Aptos Narrow_MSFontService,sans-serif" font-weight="400" font-stretch="semi-condensed" font-size="37" transform="matrix(6.12323e-17 -1 1 6.12323e-17 2861.64 1029)">+21%</text></g><g><text fill="#7F7F7F" font-family="Aptos Narrow,Aptos Narrow_MSFontService,sans-serif" font-weight="400" font-stretch="semi-condensed" font-size="37" transform="matrix(6.12323e-17 -1 1 6.12323e-17 3353.82 932)">+30%</text></g><g><text fill="#7F7F7F" font-family="Aptos Narrow,Aptos Narrow_MSFontService,sans-serif" font-weight="400" font-stretch="semi-condensed" font-size="37" transform="matrix(6.12323e-17 -1 1 6.12323e-17 3846 853)">+29%</text></g><g><text fill="#595959" font-family="Aptos Narrow,Aptos Narrow_MSFontService,sans-serif" font-weight="400" font-stretch="semi-condensed" font-size="41" transform="matrix(1 0 0 1 1951.56 1348)">0</text></g><g><text fill="#595959" font-family="Aptos Narrow,Aptos Narrow_MSFontService,sans-serif" font-weight="400" font-stretch="semi-condensed" font-size="41" transform="matrix(1 0 0 1 1951.56 1280)">5</text></g><g><text fill="#595959" font-family="Aptos Narrow,Aptos Narrow_MSFontService,sans-serif" font-weight="400" font-stretch="semi-condensed" font-size="41" transform="matrix(1 0 0 1 1930.66 1212)">10</text></g><g><text fill="#595959" font-family="Aptos Narrow,Aptos Narrow_MSFontService,sans-serif" font-weight="400" font-stretch="semi-condensed" font-size="41" transform="matrix(1 0 0 1 1930.66 1144)">15</text></g><g><text fill="#595959" font-family="Aptos Narrow,Aptos Narrow_MSFontService,sans-serif" font-weight="400" font-stretch="semi-condensed" font-size="41" transform="matrix(1 0 0 1 1930.66 1076)">20</text></g><g><text fill="#595959" font-family="Aptos Narrow,Aptos Narrow_MSFontService,sans-serif" font-weight="400" font-stretch="semi-condensed" font-size="41" transform="matrix(1 0 0 1 1930.66 1008)">25</text></g><g><text fill="#595959" font-family="Aptos Narrow,Aptos Narrow_MSFontService,sans-serif" font-weight="400" font-stretch="semi-condensed" font-size="41" transform="matrix(1 0 0 1 1930.66 940)">30</text></g><g><text fill="#595959" font-family="Aptos Narrow,Aptos Narrow_MSFontService,sans-serif" font-weight="400" font-stretch="semi-condensed" font-size="41" transform="matrix(1 0 0 1 1930.66 872)">35</text></g><g><text fill="#595959" font-family="Aptos Narrow,Aptos Narrow_MSFontService,sans-serif" font-weight="400" font-stretch="semi-condensed" font-size="41" transform="matrix(1 0 0 1 1930.66 804)">40</text></g><g><text fill="#595959" font-family="Aptos Narrow,Aptos Narrow_MSFontService,sans-serif" font-weight="400" font-stretch="semi-condensed" font-size="37" transform="matrix(1 0 0 1 2202.19 1393)">(1, 4)</text></g><g><text fill="#595959" font-family="Aptos Narrow,Aptos Narrow_MSFontService,sans-serif" font-weight="400" font-stretch="semi-condensed" font-size="37" transform="matrix(1 0 0 1 2694.37 1393)">(4, 4)</text></g><g><text fill="#595959" font-family="Aptos Narrow,Aptos Narrow_MSFontService,sans-serif" font-weight="400" font-stretch="semi-condensed" font-size="37" transform="matrix(1 0 0 1 3186.55 1393)">(1, 1)</text></g><g><text fill="#595959" font-family="Aptos Narrow,Aptos Narrow_MSFontService,sans-serif" font-weight="400" font-stretch="semi-condensed" font-size="37" transform="matrix(1 0 0 1 3678.72 1393)">(4, 1)</text></g><g><text fill="#595959" font-family="Aptos Narrow,Aptos Narrow_MSFontService,sans-serif" font-weight="400" font-stretch="semi-condensed" font-size="41" transform="matrix(6.12323e-17 -1 1 6.12323e-17 1905.57 1178)">IMAGES / SEC</text></g><g><text fill="#595959" font-family="Aptos Narrow,Aptos Narrow_MSFontService,sans-serif" font-weight="400" font-stretch="semi-condensed" font-size="41" transform="matrix(1 0 0 1 2863.5 1457)">(BATCH, STEPS)</text></g><g><text fill="#595959" font-family="Aptos Narrow,Aptos Narrow_MSFontService,sans-serif" font-weight="700" font-stretch="semi-condensed" font-size="73" transform="matrix(1 0 0 1 2460.52 625)">SD TURBO (STATIC SHAPE)</text></g><g><text fill="#595959" font-family="Aptos Narrow,Aptos Narrow_MSFontService,sans-serif" font-weight="700" font-stretch="semi-condensed" font-size="73" transform="matrix(1 0 0 1 2308.92 714)">(A100</text></g><g><text fill="#595959" font-family="Aptos Narrow,Aptos Narrow_MSFontService,sans-serif" font-weight="700" font-stretch="semi-condensed" font-size="73" transform="matrix(1 0 0 1 2510.96 714)">-</text></g><g><text fill="#595959" font-family="Aptos Narrow,Aptos Narrow_MSFontService,sans-serif" font-weight="700" font-stretch="semi-condensed" font-size="73" transform="matrix(1 0 0 1 2539.28 714)">SXM4</text></g><g><text fill="#595959" font-family="Aptos Narrow,Aptos Narrow_MSFontService,sans-serif" font-weight="700" font-stretch="semi-condensed" font-size="73" transform="matrix(1 0 0 1 2730.36 714)">-</text></g><g><text fill="#595959" font-family="Aptos Narrow,Aptos Narrow_MSFontService,sans-serif" font-weight="700" font-stretch="semi-condensed" font-size="73" transform="matrix(1 0 0 1 2758.32 714)">80GB, 512X512, FP16)</text></g><g><rect x="2392" y="1553" width="22.9998" height="22" fill="#156082"/></g><g><text fill="#595959" font-family="Aptos Narrow,Aptos Narrow_MSFontService,sans-serif" font-weight="400" font-stretch="semi-condensed" font-size="41" transform="matrix(1 0 0 1 2424.2 1576)">Torch (Compile)</text></g><g><rect x="2751" y="1553" width="23" height="22" fill="#E97132"/></g><g><text fill="#595959" font-family="Aptos Narrow,Aptos Narrow_MSFontService,sans-serif" font-weight="400" font-stretch="semi-condensed" font-size="41" transform="matrix(1 0 0 1 2783.67 1576)">ORT_CUDA (Static)</text></g><g><rect x="3159" y="1553" width="23" height="22" fill="#196B24"/></g><g><text fill="#595959" font-family="Aptos Narrow,Aptos Narrow_MSFontService,sans-serif" font-weight="400" font-stretch="semi-condensed" font-size="41" transform="matrix(1 0 0 1 3191.25 1576)">ORT_TRT (Static)</text></g><rect x="1809.5" y="522.5" width="2221" height="1108" stroke="#D9D9D9" stroke-width="3.4375" stroke-linejoin="round" stroke-miterlimit="10" fill="none"/></g></svg>