<svg width="2148" height="1178" xmlns="http://www.w3.org/2000/svg" xmlns:xlink="http://www.w3.org/1999/xlink" xml:space="preserve" overflow="hidden"><g transform="translate(1 1)"><rect x="0" y="0" width="2145" height="1175" fill="#FFFFFF"/><g><path d="M698.523 270.5 698.523 880.5M1163.54 270.5 1163.54 880.5M1629.55 270.5 1629.55 880.5M2094.5 270.5 2094.5 880.5" stroke="#D9D9D9" stroke-width="3.4375" stroke-linejoin="round" stroke-miterlimit="10" fill="none"/></g><g><path d="M312.01 590.019 348.011 590.019 348.011 881 312.01 881ZM777.026 692.023 813.027 692.023 813.027 881 777.026 881ZM1243.04 798.026 1279.04 798.026 1279.04 881 1243.04 881ZM1708.06 821.027 1744.06 821.027 1744.06 881 1708.06 881Z" fill="#4472C4"/></g><g><path d="M380.012 403.013 416.014 403.013 416.014 881 380.012 881ZM845.028 640.021 881.029 640.021 881.029 881 845.028 881ZM1311.04 739.024 1346.04 739.024 1346.04 881 1311.04 881ZM1776.06 798.026 1812.06 798.026 1812.06 881 1776.06 881Z" fill="#ED7D31"/></g><g><path d="M448.015 373.012 483.016 373.012 483.016 881 448.015 881ZM913.03 617.02 949.031 617.02 949.031 881 913.03 881ZM1379.05 732.024 1414.05 732.024 1414.05 881 1379.05 881ZM1844.06 799.026 1880.06 799.026 1880.06 881 1844.06 881Z" fill="#A5A5A5"/></g><g><path d="M515.017 372.012 551.018 372.012 551.018 881 515.017 881ZM981.032 611.02 1017.03 611.02 1017.03 881 981.032 881ZM1446.05 736.024 1482.05 736.024 1482.05 881 1446.05 881ZM1912.06 795.026 1947.06 795.026 1947.06 881 1912.06 881Z" fill="#FFC000"/></g><g><path d="M583.019 324.011 619.02 324.011 619.02 881 583.019 881ZM1049.03 617.02 1084.04 617.02 1084.04 881 1049.03 881ZM1514.05 722.024 1550.05 722.024 1550.05 881 1514.05 881ZM1980.06 789.026 2015.07 789.026 2015.07 881 1980.06 881Z" fill="#5B9BD5"/></g><g><path d="M0 0 0.000360892 610" stroke="#D9D9D9" stroke-width="3.4375" stroke-linejoin="round" stroke-miterlimit="10" fill="none" fill-rule="evenodd" transform="matrix(1 0 0 -1 232.5 880.5)"/></g><g><path d="M219.5 880.5 232.5 880.5M219.5 793.526 232.5 793.526M219.5 706.523 232.5 706.523M219.5 619.521 232.5 619.521M219.5 532.518 232.5 532.518M219.5 445.515 232.5 445.515M219.5 357.512 232.5 357.512M219.5 270.5 232.5 270.5" stroke="#D9D9D9" stroke-width="3.4375" stroke-linejoin="round" stroke-miterlimit="10" fill="none"/></g><g><path d="M232.5 880.5 2094.5 880.5" stroke="#D9D9D9" stroke-width="3.4375" stroke-linejoin="round" stroke-miterlimit="10" fill="none" fill-rule="evenodd"/></g><g><text fill="#7F7F7F" font-family="Calibri,Calibri_MSFontService,sans-serif" font-weight="400" font-size="37" transform="matrix(6.12323e-17 -1 1 6.12323e-17 342.465 562)">1.0X</text></g><g><text fill="#7F7F7F" font-family="Calibri,Calibri_MSFontService,sans-serif" font-weight="400" font-size="37" transform="matrix(6.12323e-17 -1 1 6.12323e-17 807.921 665)">1.0X</text></g><g><text fill="#7F7F7F" font-family="Calibri,Calibri_MSFontService,sans-serif" font-weight="400" font-size="37" transform="matrix(6.12323e-17 -1 1 6.12323e-17 1273.38 770)">1.0X</text></g><g><text fill="#7F7F7F" font-family="Calibri,Calibri_MSFontService,sans-serif" font-weight="400" font-size="37" transform="matrix(6.12323e-17 -1 1 6.12323e-17 1738.83 793)">1.0X</text></g><g><text fill="#7F7F7F" font-family="Calibri,Calibri_MSFontService,sans-serif" font-weight="400" font-size="37" transform="matrix(6.12323e-17 -1 1 6.12323e-17 410.285 375)">1.6X</text></g><g><text fill="#7F7F7F" font-family="Calibri,Calibri_MSFontService,sans-serif" font-weight="400" font-size="37" transform="matrix(6.12323e-17 -1 1 6.12323e-17 875.74 613)">1.3X</text></g><g><text fill="#7F7F7F" font-family="Calibri,Calibri_MSFontService,sans-serif" font-weight="400" font-size="37" transform="matrix(6.12323e-17 -1 1 6.12323e-17 1341.2 711)">1.7X</text></g><g><text fill="#7F7F7F" font-family="Calibri,Calibri_MSFontService,sans-serif" font-weight="400" font-size="37" transform="matrix(6.12323e-17 -1 1 6.12323e-17 1806.65 771)">1.4X</text></g><g><text fill="#7F7F7F" font-family="Calibri,Calibri_MSFontService,sans-serif" font-weight="400" font-size="37" transform="matrix(6.12323e-17 -1 1 6.12323e-17 478.104 345)">1.7X</text></g><g><text fill="#7F7F7F" font-family="Calibri,Calibri_MSFontService,sans-serif" font-weight="400" font-size="37" transform="matrix(6.12323e-17 -1 1 6.12323e-17 943.56 589)">1.4X</text></g><g><text fill="#7F7F7F" font-family="Calibri,Calibri_MSFontService,sans-serif" font-weight="400" font-size="37" transform="matrix(6.12323e-17 -1 1 6.12323e-17 1409.02 704)">1.8X</text></g><g><text fill="#7F7F7F" font-family="Calibri,Calibri_MSFontService,sans-serif" font-weight="400" font-size="37" transform="matrix(6.12323e-17 -1 1 6.12323e-17 1874.47 772)">1.4X</text></g><g><text fill="#7F7F7F" font-family="Calibri,Calibri_MSFontService,sans-serif" font-weight="400" font-size="37" transform="matrix(6.12323e-17 -1 1 6.12323e-17 545.924 344)">1.7X</text></g><g><text fill="#7F7F7F" font-family="Calibri,Calibri_MSFontService,sans-serif" font-weight="400" font-size="37" transform="matrix(6.12323e-17 -1 1 6.12323e-17 1011.38 584)">1.4X</text></g><g><text fill="#7F7F7F" font-family="Calibri,Calibri_MSFontService,sans-serif" font-weight="400" font-size="37" transform="matrix(6.12323e-17 -1 1 6.12323e-17 1476.83 708)">1.7X</text></g><g><text fill="#7F7F7F" font-family="Calibri,Calibri_MSFontService,sans-serif" font-weight="400" font-size="37" transform="matrix(6.12323e-17 -1 1 6.12323e-17 1942.29 768)">1.4X</text></g><g><text fill="#7F7F7F" font-family="Calibri,Calibri_MSFontService,sans-serif" font-weight="400" font-size="37" transform="matrix(6.12323e-17 -1 1 6.12323e-17 613.743 297)">1.9X</text></g><g><text fill="#7F7F7F" font-family="Calibri,Calibri_MSFontService,sans-serif" font-weight="400" font-size="37" transform="matrix(6.12323e-17 -1 1 6.12323e-17 1079.2 590)">1.4X</text></g><g><text fill="#7F7F7F" font-family="Calibri,Calibri_MSFontService,sans-serif" font-weight="400" font-size="37" transform="matrix(6.12323e-17 -1 1 6.12323e-17 1544.65 694)">1.9X</text></g><g><text fill="#7F7F7F" font-family="Calibri,Calibri_MSFontService,sans-serif" font-weight="400" font-size="37" transform="matrix(6.12323e-17 -1 1 6.12323e-17 2010.11 761)">1.5X</text></g><g><text fill="#595959" font-family="Calibri,Calibri_MSFontService,sans-serif" font-weight="400" font-size="41" transform="matrix(1 0 0 1 142.29 892)">0.0</text></g><g><text fill="#595959" font-family="Calibri,Calibri_MSFontService,sans-serif" font-weight="400" font-size="41" transform="matrix(1 0 0 1 142.29 805)">5.0</text></g><g><text fill="#595959" font-family="Calibri,Calibri_MSFontService,sans-serif" font-weight="400" font-size="41" transform="matrix(1 0 0 1 121.39 718)">10.0</text></g><g><text fill="#595959" font-family="Calibri,Calibri_MSFontService,sans-serif" font-weight="400" font-size="41" transform="matrix(1 0 0 1 121.39 631)">15.0</text></g><g><text fill="#595959" font-family="Calibri,Calibri_MSFontService,sans-serif" font-weight="400" font-size="41" transform="matrix(1 0 0 1 121.39 544)">20.0</text></g><g><text fill="#595959" font-family="Calibri,Calibri_MSFontService,sans-serif" font-weight="400" font-size="41" transform="matrix(1 0 0 1 121.39 457)">25.0</text></g><g><text fill="#595959" font-family="Calibri,Calibri_MSFontService,sans-serif" font-weight="400" font-size="41" transform="matrix(1 0 0 1 121.39 369)">30.0</text></g><g><text fill="#595959" font-family="Calibri,Calibri_MSFontService,sans-serif" font-weight="400" font-size="41" transform="matrix(1 0 0 1 121.39 282)">35.0</text></g><g><text fill="#595959" font-family="Calibri,Calibri_MSFontService,sans-serif" font-weight="400" font-size="37" transform="matrix(1 0 0 1 410.569 939)">(1, 1)</text></g><g><text fill="#595959" font-family="Calibri,Calibri_MSFontService,sans-serif" font-weight="400" font-size="37" transform="matrix(1 0 0 1 876.025 939)">(1, 4)</text></g><g><text fill="#595959" font-family="Calibri,Calibri_MSFontService,sans-serif" font-weight="400" font-size="37" transform="matrix(1 0 0 1 1341.48 939)">(4, 1)</text></g><g><text fill="#595959" font-family="Calibri,Calibri_MSFontService,sans-serif" font-weight="400" font-size="37" transform="matrix(1 0 0 1 1806.94 939)">(4, 4)</text></g><g><text fill="#595959" font-family="Calibri,Calibri_MSFontService,sans-serif" font-weight="400" font-size="41" transform="matrix(6.12323e-17 -1 1 6.12323e-17 96.2958 755)">IMAGES PER SECOND</text></g><g><text fill="#595959" font-family="Calibri,Calibri_MSFontService,sans-serif" font-weight="400" font-size="41" transform="matrix(1 0 0 1 1034.57 1002)">(BATCH, STEPS)</text></g><g><text fill="#595959" font-family="Calibri,Calibri_MSFontService,sans-serif" font-weight="700" font-size="73" transform="matrix(1 0 0 1 893.692 104)">SD TURBO</text></g><g><text fill="#595959" font-family="Calibri,Calibri_MSFontService,sans-serif" font-weight="700" font-size="73" transform="matrix(1 0 0 1 595.982 193)">(RTX</text></g><g><text fill="#595959" font-family="Calibri,Calibri_MSFontService,sans-serif" font-weight="700" font-size="73" transform="matrix(1 0 0 1 758.117 193)">-</text></g><g><text fill="#595959" font-family="Calibri,Calibri_MSFontService,sans-serif" font-weight="700" font-size="73" transform="matrix(1 0 0 1 786.076 193)">4090, 512X512, FP16)</text></g><g><rect x="152" y="1098" width="22" height="22" fill="#4472C4"/></g><g><text fill="#595959" font-family="Calibri,Calibri_MSFontService,sans-serif" font-weight="400" font-size="41" transform="matrix(1 0 0 1 183.929 1121)">Torch Compile</text></g><g><rect x="469" y="1098" width="23" height="22" fill="#ED7D31"/></g><g><text fill="#595959" font-family="Calibri,Calibri_MSFontService,sans-serif" font-weight="400" font-size="41" transform="matrix(1 0 0 1 501.417 1121)">ORT_CUDA (dynamic)</text></g><g><rect x="908" y="1098" width="23.0001" height="22" fill="#A5A5A5"/></g><g><text fill="#595959" font-family="Calibri,Calibri_MSFontService,sans-serif" font-weight="400" font-size="41" transform="matrix(1 0 0 1 940.432 1121)">ORT_TRT (dynamic)</text></g><g><rect x="1312" y="1098" width="23" height="22" fill="#FFC000"/></g><g><text fill="#595959" font-family="Calibri,Calibri_MSFontService,sans-serif" font-weight="400" font-size="41" transform="matrix(1 0 0 1 1344.32 1121)">ORT_CUDA (static)</text></g><g><rect x="1700" y="1098" width="23" height="22" fill="#5B9BD5"/></g><g><text fill="#595959" font-family="Calibri,Calibri_MSFontService,sans-serif" font-weight="400" font-size="41" transform="matrix(1 0 0 1 1732.11 1121)">ORT_TRT (static)</text></g><rect x="0.499836" y="0.499836" width="2145" height="1175" stroke="#D9D9D9" stroke-width="3.4375" stroke-linejoin="round" stroke-miterlimit="10" fill="none"/></g></svg>