<svg width="2148" height="1030" xmlns="http://www.w3.org/2000/svg" xmlns:xlink="http://www.w3.org/1999/xlink" xml:space="preserve" overflow="hidden"><g transform="translate(1 1)"><rect x="0" y="0" width="2145" height="1027" fill="#FFFFFF"/><g><path d="M713.524 248.5 713.524 732.5M1174.54 248.5 1174.54 732.5M1634.55 248.5 1634.55 732.5M2094.5 248.5 2094.5 732.5" stroke="#D9D9D9" stroke-width="3.4375" stroke-linejoin="round" stroke-miterlimit="10" fill="none"/></g><g><path d="M332.011 614.02 367.012 614.02 367.012 732 332.011 732ZM792.026 570.019 828.027 570.019 828.027 732 792.026 732ZM1252.04 437.014 1288.04 437.014 1288.04 732 1252.04 732ZM1713.06 325.011 1748.06 325.011 1748.06 732 1713.06 732Z" fill="#4472C4"/></g><g><path d="M399.013 679.022 434.014 679.022 434.014 732 399.013 732ZM859.028 625.021 895.029 625.021 895.029 732 859.028 732ZM1319.04 573.019 1355.04 573.019 1355.04 732 1319.04 732ZM1780.06 434.014 1815.06 434.014 1815.06 732 1780.06 732Z" fill="#ED7D31"/></g><g><path d="M466.015 684.022 501.016 684.022 501.016 732 466.015 732ZM926.03 639.021 962.032 639.021 962.032 732 926.03 732ZM1387.05 596.02 1422.05 596.02 1422.05 732 1387.05 732ZM1847.06 493.016 1882.06 493.016 1882.06 732 1847.06 732Z" fill="#A5A5A5"/></g><g><path d="M533.017 687.023 568.019 687.023 568.019 732 533.017 732ZM993.033 646.021 1029.03 646.021 1029.03 732 993.033 732ZM1454.05 598.02 1489.05 598.02 1489.05 732 1454.05 732ZM1914.06 500.016 1949.06 500.016 1949.06 732 1914.06 732Z" fill="#FFC000"/></g><g><path d="M600.02 690.023 636.021 690.023 636.021 732 600.02 732ZM1060.03 649.021 1096.04 649.021 1096.04 732 1060.03 732ZM1521.05 598.02 1556.05 598.02 1556.05 732 1521.05 732ZM1981.06 500.016 2016.07 500.016 2016.07 732 1981.06 732Z" fill="#5B9BD5"/></g><g><path d="M0 0 0.000360892 484" stroke="#D9D9D9" stroke-width="3.4375" stroke-linejoin="round" stroke-miterlimit="10" fill="none" fill-rule="evenodd" transform="matrix(1 0 0 -1 253.5 732.5)"/></g><g><path d="M240.5 732.5 253.5 732.5M240.5 663.522 253.5 663.522M240.5 594.52 253.5 594.52M240.5 524.517 253.5 524.517M240.5 455.515 253.5 455.515M240.5 386.513 253.5 386.513M240.5 317.511 253.5 317.511M240.5 248.5 253.5 248.5" stroke="#D9D9D9" stroke-width="3.4375" stroke-linejoin="round" stroke-miterlimit="10" fill="none"/></g><g><path d="M253.5 732.5 2094.5 732.5" stroke="#D9D9D9" stroke-width="3.4375" stroke-linejoin="round" stroke-miterlimit="10" fill="none" fill-rule="evenodd"/></g><g><text fill="#7F7F7F" font-family="Calibri,Calibri_MSFontService,sans-serif" font-weight="400" font-size="37" transform="matrix(6.12323e-17 -1 1 6.12323e-17 362.275 587)">1.0X</text></g><g><text fill="#7F7F7F" font-family="Calibri,Calibri_MSFontService,sans-serif" font-weight="400" font-size="37" transform="matrix(6.12323e-17 -1 1 6.12323e-17 822.506 543)">1.0X</text></g><g><text fill="#7F7F7F" font-family="Calibri,Calibri_MSFontService,sans-serif" font-weight="400" font-size="37" transform="matrix(6.12323e-17 -1 1 6.12323e-17 1282.74 409)">1.0X</text></g><g><text fill="#7F7F7F" font-family="Calibri,Calibri_MSFontService,sans-serif" font-weight="400" font-size="37" transform="matrix(6.12323e-17 -1 1 6.12323e-17 1742.97 298)">1.0X</text></g><g><text fill="#7F7F7F" font-family="Calibri,Calibri_MSFontService,sans-serif" font-weight="400" font-size="37" transform="matrix(6.12323e-17 -1 1 6.12323e-17 429.334 652)">2.2X</text></g><g><text fill="#7F7F7F" font-family="Calibri,Calibri_MSFontService,sans-serif" font-weight="400" font-size="37" transform="matrix(6.12323e-17 -1 1 6.12323e-17 889.564 597)">1.5X</text></g><g><text fill="#7F7F7F" font-family="Calibri,Calibri_MSFontService,sans-serif" font-weight="400" font-size="37" transform="matrix(6.12323e-17 -1 1 6.12323e-17 1349.79 546)">1.9X</text></g><g><text fill="#7F7F7F" font-family="Calibri,Calibri_MSFontService,sans-serif" font-weight="400" font-size="37" transform="matrix(6.12323e-17 -1 1 6.12323e-17 1810.03 407)">1.4X</text></g><g><text fill="#7F7F7F" font-family="Calibri,Calibri_MSFontService,sans-serif" font-weight="400" font-size="37" transform="matrix(6.12323e-17 -1 1 6.12323e-17 496.392 657)">2.4X</text></g><g><text fill="#7F7F7F" font-family="Calibri,Calibri_MSFontService,sans-serif" font-weight="400" font-size="37" transform="matrix(6.12323e-17 -1 1 6.12323e-17 956.622 612)">1.7X</text></g><g><text fill="#7F7F7F" font-family="Calibri,Calibri_MSFontService,sans-serif" font-weight="400" font-size="37" transform="matrix(6.12323e-17 -1 1 6.12323e-17 1416.85 569)">2.2X</text></g><g><text fill="#7F7F7F" font-family="Calibri,Calibri_MSFontService,sans-serif" font-weight="400" font-size="37" transform="matrix(6.12323e-17 -1 1 6.12323e-17 1877.08 466)">1.7X</text></g><g><text fill="#7F7F7F" font-family="Calibri,Calibri_MSFontService,sans-serif" font-weight="400" font-size="37" transform="matrix(6.12323e-17 -1 1 6.12323e-17 563.45 659)">2.6X</text></g><g><text fill="#7F7F7F" font-family="Calibri,Calibri_MSFontService,sans-serif" font-weight="400" font-size="37" transform="matrix(6.12323e-17 -1 1 6.12323e-17 1023.68 618)">1.9X</text></g><g><text fill="#7F7F7F" font-family="Calibri,Calibri_MSFontService,sans-serif" font-weight="400" font-size="37" transform="matrix(6.12323e-17 -1 1 6.12323e-17 1483.91 570)">2.2X</text></g><g><text fill="#7F7F7F" font-family="Calibri,Calibri_MSFontService,sans-serif" font-weight="400" font-size="37" transform="matrix(6.12323e-17 -1 1 6.12323e-17 1944.14 472)">1.7X</text></g><g><text fill="#7F7F7F" font-family="Calibri,Calibri_MSFontService,sans-serif" font-weight="400" font-size="37" transform="matrix(6.12323e-17 -1 1 6.12323e-17 630.508 663)">2.8X</text></g><g><text fill="#7F7F7F" font-family="Calibri,Calibri_MSFontService,sans-serif" font-weight="400" font-size="37" transform="matrix(6.12323e-17 -1 1 6.12323e-17 1090.74 622)">1.9X</text></g><g><text fill="#7F7F7F" font-family="Calibri,Calibri_MSFontService,sans-serif" font-weight="400" font-size="37" transform="matrix(6.12323e-17 -1 1 6.12323e-17 1550.97 570)">2.2X</text></g><g><text fill="#7F7F7F" font-family="Calibri,Calibri_MSFontService,sans-serif" font-weight="400" font-size="37" transform="matrix(6.12323e-17 -1 1 6.12323e-17 2011.2 473)">1.8X</text></g><g><text fill="#595959" font-family="Calibri,Calibri_MSFontService,sans-serif" font-weight="400" font-size="41" transform="matrix(1 0 0 1 163.19 744)">0.0</text></g><g><text fill="#595959" font-family="Calibri,Calibri_MSFontService,sans-serif" font-weight="400" font-size="41" transform="matrix(1 0 0 1 142.29 675)">50.0</text></g><g><text fill="#595959" font-family="Calibri,Calibri_MSFontService,sans-serif" font-weight="400" font-size="41" transform="matrix(1 0 0 1 121.39 606)">100.0</text></g><g><text fill="#595959" font-family="Calibri,Calibri_MSFontService,sans-serif" font-weight="400" font-size="41" transform="matrix(1 0 0 1 121.39 536)">150.0</text></g><g><text fill="#595959" font-family="Calibri,Calibri_MSFontService,sans-serif" font-weight="400" font-size="41" transform="matrix(1 0 0 1 121.39 467)">200.0</text></g><g><text fill="#595959" font-family="Calibri,Calibri_MSFontService,sans-serif" font-weight="400" font-size="41" transform="matrix(1 0 0 1 121.39 398)">250.0</text></g><g><text fill="#595959" font-family="Calibri,Calibri_MSFontService,sans-serif" font-weight="400" font-size="41" transform="matrix(1 0 0 1 121.39 329)">300.0</text></g><g><text fill="#595959" font-family="Calibri,Calibri_MSFontService,sans-serif" font-weight="400" font-size="41" transform="matrix(1 0 0 1 121.39 260)">350.0</text></g><g><text fill="#595959" font-family="Calibri,Calibri_MSFontService,sans-serif" font-weight="400" font-size="37" transform="matrix(1 0 0 1 428.857 791)">(1, 1)</text></g><g><text fill="#595959" font-family="Calibri,Calibri_MSFontService,sans-serif" font-weight="400" font-size="37" transform="matrix(1 0 0 1 889.087 791)">(1, 4)</text></g><g><text fill="#595959" font-family="Calibri,Calibri_MSFontService,sans-serif" font-weight="400" font-size="37" transform="matrix(1 0 0 1 1349.32 791)">(4, 1)</text></g><g><text fill="#595959" font-family="Calibri,Calibri_MSFontService,sans-serif" font-weight="400" font-size="37" transform="matrix(1 0 0 1 1809.55 791)">(4, 4)</text></g><g><text fill="#595959" font-family="Calibri,Calibri_MSFontService,sans-serif" font-weight="400" font-size="41" transform="matrix(6.12323e-17 -1 1 6.12323e-17 96.2958 610)">LATENCY (MS)</text></g><g><text fill="#595959" font-family="Calibri,Calibri_MSFontService,sans-serif" font-weight="400" font-size="41" transform="matrix(1 0 0 1 1045.02 853)">(BATCH, STEPS)</text></g><g><text fill="#595959" font-family="Calibri,Calibri_MSFontService,sans-serif" font-weight="700" font-size="64" transform="matrix(1 0 0 1 913.275 95)">SD TURBO</text></g><g><text fill="#595959" font-family="Calibri,Calibri_MSFontService,sans-serif" font-weight="700" font-size="64" transform="matrix(1 0 0 1 521.423 173)">(A100</text></g><g><text fill="#595959" font-family="Calibri,Calibri_MSFontService,sans-serif" font-weight="700" font-size="64" transform="matrix(1 0 0 1 705.352 173)">-</text></g><g><text fill="#595959" font-family="Calibri,Calibri_MSFontService,sans-serif" font-weight="700" font-size="64" transform="matrix(1 0 0 1 730.491 173)">SXM4</text></g><g><text fill="#595959" font-family="Calibri,Calibri_MSFontService,sans-serif" font-weight="700" font-size="64" transform="matrix(1 0 0 1 906.148 173)">-</text></g><g><text fill="#595959" font-family="Calibri,Calibri_MSFontService,sans-serif" font-weight="700" font-size="64" transform="matrix(1 0 0 1 931.287 173)">80GB, 512X512, FP16)</text></g><g><rect x="152" y="949" width="22" height="23.0001" fill="#4472C4"/></g><g><text fill="#595959" font-family="Calibri,Calibri_MSFontService,sans-serif" font-weight="400" font-size="41" transform="matrix(1 0 0 1 183.929 972)">Torch Compile</text></g><g><rect x="469" y="949" width="23" height="23.0001" fill="#ED7D31"/></g><g><text fill="#595959" font-family="Calibri,Calibri_MSFontService,sans-serif" font-weight="400" font-size="41" transform="matrix(1 0 0 1 501.417 972)">ORT_TRT (dynamic)</text></g><g><rect x="873" y="949" width="23.0001" height="23.0001" fill="#A5A5A5"/></g><g><text fill="#595959" font-family="Calibri,Calibri_MSFontService,sans-serif" font-weight="400" font-size="41" transform="matrix(1 0 0 1 905.301 972)">ORT_CUDA (dynamic)</text></g><g><rect x="1312" y="949" width="23" height="23.0001" fill="#FFC000"/></g><g><text fill="#595959" font-family="Calibri,Calibri_MSFontService,sans-serif" font-weight="400" font-size="41" transform="matrix(1 0 0 1 1344.32 972)">ORT_CUDA (static)</text></g><g><rect x="1700" y="949" width="23" height="23.0001" fill="#5B9BD5"/></g><g><text fill="#595959" font-family="Calibri,Calibri_MSFontService,sans-serif" font-weight="400" font-size="41" transform="matrix(1 0 0 1 1732.11 972)">ORT_TRT (static)</text></g><rect x="0.499836" y="0.499836" width="2145" height="1027" stroke="#D9D9D9" stroke-width="3.4375" stroke-linejoin="round" stroke-miterlimit="10" fill="none"/></g></svg>