<svg width="2351" height="1115" xmlns="http://www.w3.org/2000/svg" xmlns:xlink="http://www.w3.org/1999/xlink" xml:space="preserve" overflow="hidden"><defs><clipPath id="clip0"><rect x="1908" y="523" width="2351" height="1115"/></clipPath></defs><g clip-path="url(#clip0)" transform="translate(-1908 -523)"><rect x="1909" y="524" width="2348" height="1112" fill="#FFFFFF"/><g><path d="M2634.59 794.5 2634.59 1341.5M3158.6 794.5 3158.6 1341.5M3682.62 794.5 3682.62 1341.5M4206.5 794.5 4206.5 1341.5" stroke="#D9D9D9" stroke-width="3.4375" stroke-linejoin="round" stroke-miterlimit="10" fill="none"/></g><g><path d="M2236.07 1259.04 2293.08 1259.04 2293.08 1342 2236.07 1342ZM2760.09 1159.04 2817.09 1159.04 2817.09 1342 2760.09 1342ZM3284.11 1168.04 3341.11 1168.04 3341.11 1342 3284.11 1342ZM3808.12 1046.03 3865.13 1046.03 3865.13 1342 3808.12 1342Z" fill="#156082"/></g><g><path d="M2344.08 1131.04 2400.08 1131.04 2400.08 1342 2344.08 1342ZM2868.09 1021.03 2924.1 1021.03 2924.1 1342 2868.09 1342ZM3392.11 960.031 3448.11 960.031 3448.11 1342 3392.11 1342ZM3916.13 830.027 3972.13 830.027 3972.13 1342 3916.13 1342Z" fill="#E97132"/></g><g><path d="M2452.08 1157.04 2508.08 1157.04 2508.08 1342 2452.08 1342ZM2975.1 1081.04 3032.1 1081.04 3032.1 1342 2975.1 1342ZM3499.11 984.032 3556.12 984.032 3556.12 1342 3499.11 1342ZM4023.13 882.029 4080.13 882.029 4080.13 1342 4023.13 1342Z" fill="#196B24"/></g><g><path d="M0 0 0.000360892 547" stroke="#D9D9D9" stroke-width="3.4375" stroke-linejoin="round" stroke-miterlimit="10" fill="none" fill-rule="evenodd" transform="matrix(1 0 0 -1 2110.5 1341.5)"/></g><g><path d="M2097.5 1341.5 2110.5 1341.5M2097.5 1263.54 2110.5 1263.54M2097.5 1185.54 2110.5 1185.54M2097.5 1107.54 2110.5 1107.54M2097.5 1028.53 2110.5 1028.53M2097.5 950.531 2110.5 950.531M2097.5 872.529 2110.5 872.529M2097.5 794.5 2110.5 794.5" stroke="#D9D9D9" stroke-width="3.4375" stroke-linejoin="round" stroke-miterlimit="10" fill="none"/></g><g><path d="M2110.5 1341.5 4206.5 1341.5" stroke="#D9D9D9" stroke-width="3.4375" stroke-linejoin="round" stroke-miterlimit="10" fill="none" fill-rule="evenodd"/></g><g><text fill="#7F7F7F" font-family="Aptos Narrow,Aptos Narrow_MSFontService,sans-serif" font-weight="400" font-stretch="semi-condensed" font-size="37" transform="matrix(6.12323e-17 -1 1 6.12323e-17 2276.1 1231)">+0%</text></g><g><text fill="#7F7F7F" font-family="Aptos Narrow,Aptos Narrow_MSFontService,sans-serif" font-weight="400" font-stretch="semi-condensed" font-size="37" transform="matrix(6.12323e-17 -1 1 6.12323e-17 2800.08 1131)">+0%</text></g><g><text fill="#7F7F7F" font-family="Aptos Narrow,Aptos Narrow_MSFontService,sans-serif" font-weight="400" font-stretch="semi-condensed" font-size="37" transform="matrix(6.12323e-17 -1 1 6.12323e-17 3324.05 1141)">+0%</text></g><g><text fill="#7F7F7F" font-family="Aptos Narrow,Aptos Narrow_MSFontService,sans-serif" font-weight="400" font-stretch="semi-condensed" font-size="37" transform="matrix(6.12323e-17 -1 1 6.12323e-17 3848.02 1019)">+0%</text></g><g><text fill="#7F7F7F" font-family="Aptos Narrow,Aptos Narrow_MSFontService,sans-serif" font-weight="400" font-stretch="semi-condensed" font-size="37" transform="matrix(6.12323e-17 -1 1 6.12323e-17 2383.85 1103)">+155%</text></g><g><text fill="#7F7F7F" font-family="Aptos Narrow,Aptos Narrow_MSFontService,sans-serif" font-weight="400" font-stretch="semi-condensed" font-size="37" transform="matrix(6.12323e-17 -1 1 6.12323e-17 2907.82 994)">+75%</text></g><g><text fill="#7F7F7F" font-family="Aptos Narrow,Aptos Narrow_MSFontService,sans-serif" font-weight="400" font-stretch="semi-condensed" font-size="37" transform="matrix(6.12323e-17 -1 1 6.12323e-17 3431.79 933)">+120%</text></g><g><text fill="#7F7F7F" font-family="Aptos Narrow,Aptos Narrow_MSFontService,sans-serif" font-weight="400" font-stretch="semi-condensed" font-size="37" transform="matrix(6.12323e-17 -1 1 6.12323e-17 3955.77 803)">+73%</text></g><g><text fill="#7F7F7F" font-family="Aptos Narrow,Aptos Narrow_MSFontService,sans-serif" font-weight="400" font-stretch="semi-condensed" font-size="37" transform="matrix(6.12323e-17 -1 1 6.12323e-17 2491.59 1130)">+123%</text></g><g><text fill="#7F7F7F" font-family="Aptos Narrow,Aptos Narrow_MSFontService,sans-serif" font-weight="400" font-stretch="semi-condensed" font-size="37" transform="matrix(6.12323e-17 -1 1 6.12323e-17 3015.56 1053)">+43%</text></g><g><text fill="#7F7F7F" font-family="Aptos Narrow,Aptos Narrow_MSFontService,sans-serif" font-weight="400" font-stretch="semi-condensed" font-size="37" transform="matrix(6.12323e-17 -1 1 6.12323e-17 3539.54 956)">+106%</text></g><g><text fill="#7F7F7F" font-family="Aptos Narrow,Aptos Narrow_MSFontService,sans-serif" font-weight="400" font-stretch="semi-condensed" font-size="37" transform="matrix(6.12323e-17 -1 1 6.12323e-17 4063.51 854)">+56%</text></g><g><text fill="#595959" font-family="Aptos Narrow,Aptos Narrow_MSFontService,sans-serif" font-weight="400" font-stretch="semi-condensed" font-size="41" transform="matrix(1 0 0 1 2051.25 1353)">0</text></g><g><text fill="#595959" font-family="Aptos Narrow,Aptos Narrow_MSFontService,sans-serif" font-weight="400" font-stretch="semi-condensed" font-size="41" transform="matrix(1 0 0 1 2051.25 1275)">5</text></g><g><text fill="#595959" font-family="Aptos Narrow,Aptos Narrow_MSFontService,sans-serif" font-weight="400" font-stretch="semi-condensed" font-size="41" transform="matrix(1 0 0 1 2030.35 1197)">10</text></g><g><text fill="#595959" font-family="Aptos Narrow,Aptos Narrow_MSFontService,sans-serif" font-weight="400" font-stretch="semi-condensed" font-size="41" transform="matrix(1 0 0 1 2030.35 1119)">15</text></g><g><text fill="#595959" font-family="Aptos Narrow,Aptos Narrow_MSFontService,sans-serif" font-weight="400" font-stretch="semi-condensed" font-size="41" transform="matrix(1 0 0 1 2030.35 1041)">20</text></g><g><text fill="#595959" font-family="Aptos Narrow,Aptos Narrow_MSFontService,sans-serif" font-weight="400" font-stretch="semi-condensed" font-size="41" transform="matrix(1 0 0 1 2030.35 962)">25</text></g><g><text fill="#595959" font-family="Aptos Narrow,Aptos Narrow_MSFontService,sans-serif" font-weight="400" font-stretch="semi-condensed" font-size="41" transform="matrix(1 0 0 1 2030.35 884)">30</text></g><g><text fill="#595959" font-family="Aptos Narrow,Aptos Narrow_MSFontService,sans-serif" font-weight="400" font-stretch="semi-condensed" font-size="41" transform="matrix(1 0 0 1 2030.35 806)">35</text></g><g><text fill="#595959" font-family="Aptos Narrow,Aptos Narrow_MSFontService,sans-serif" font-weight="400" font-stretch="semi-condensed" font-size="37" transform="matrix(1 0 0 1 2317.78 1399)">(1, 4)</text></g><g><text fill="#595959" font-family="Aptos Narrow,Aptos Narrow_MSFontService,sans-serif" font-weight="400" font-stretch="semi-condensed" font-size="37" transform="matrix(1 0 0 1 2841.75 1399)">(4, 4)</text></g><g><text fill="#595959" font-family="Aptos Narrow,Aptos Narrow_MSFontService,sans-serif" font-weight="400" font-stretch="semi-condensed" font-size="37" transform="matrix(1 0 0 1 3365.73 1399)">(1, 1)</text></g><g><text fill="#595959" font-family="Aptos Narrow,Aptos Narrow_MSFontService,sans-serif" font-weight="400" font-stretch="semi-condensed" font-size="37" transform="matrix(1 0 0 1 3889.7 1399)">(4, 1)</text></g><g><text fill="#595959" font-family="Aptos Narrow,Aptos Narrow_MSFontService,sans-serif" font-weight="400" font-stretch="semi-condensed" font-size="41" transform="matrix(6.12323e-17 -1 1 6.12323e-17 2005.25 1182)">IMAGES / SEC</text></g><g><text fill="#595959" font-family="Aptos Narrow,Aptos Narrow_MSFontService,sans-serif" font-weight="400" font-stretch="semi-condensed" font-size="41" transform="matrix(1 0 0 1 3026.78 1462)">(BATCH, STEPS)</text></g><g><text fill="#595959" font-family="Aptos Narrow,Aptos Narrow_MSFontService,sans-serif" font-weight="700" font-stretch="semi-condensed" font-size="73" transform="matrix(1 0 0 1 2578.24 627)">SD TURBO (DYNAMIC SHAPE)</text></g><g><text fill="#595959" font-family="Aptos Narrow,Aptos Narrow_MSFontService,sans-serif" font-weight="700" font-stretch="semi-condensed" font-size="73" transform="matrix(1 0 0 1 2472.2 716)">(A100</text></g><g><text fill="#595959" font-family="Aptos Narrow,Aptos Narrow_MSFontService,sans-serif" font-weight="700" font-stretch="semi-condensed" font-size="73" transform="matrix(1 0 0 1 2674.24 716)">-</text></g><g><text fill="#595959" font-family="Aptos Narrow,Aptos Narrow_MSFontService,sans-serif" font-weight="700" font-stretch="semi-condensed" font-size="73" transform="matrix(1 0 0 1 2702.56 716)">SXM4</text></g><g><text fill="#595959" font-family="Aptos Narrow,Aptos Narrow_MSFontService,sans-serif" font-weight="700" font-stretch="semi-condensed" font-size="73" transform="matrix(1 0 0 1 2893.64 716)">-</text></g><g><text fill="#595959" font-family="Aptos Narrow,Aptos Narrow_MSFontService,sans-serif" font-weight="700" font-stretch="semi-condensed" font-size="73" transform="matrix(1 0 0 1 2921.6 716)">80GB, 512X512, FP16)</text></g><g><rect x="2526" y="1558" width="23" height="23" fill="#156082"/></g><g><text fill="#595959" font-family="Aptos Narrow,Aptos Narrow_MSFontService,sans-serif" font-weight="400" font-stretch="semi-condensed" font-size="41" transform="matrix(1 0 0 1 2558.12 1581)">Torch (Eager)</text></g><g><rect x="2841" y="1558" width="22" height="23" fill="#E97132"/></g><g><text fill="#595959" font-family="Aptos Narrow,Aptos Narrow_MSFontService,sans-serif" font-weight="400" font-stretch="semi-condensed" font-size="41" transform="matrix(1 0 0 1 2872.9 1581)">ORT_CUDA (Dynamic)</text></g><g><rect x="3301" y="1558" width="23" height="23" fill="#196B24"/></g><g><text fill="#595959" font-family="Aptos Narrow,Aptos Narrow_MSFontService,sans-serif" font-weight="400" font-stretch="semi-condensed" font-size="41" transform="matrix(1 0 0 1 3333.53 1581)">ORT_TRT (Dynamic)</text></g><rect x="1909.5" y="524.5" width="2348" height="1112" stroke="#D9D9D9" stroke-width="3.4375" stroke-linejoin="round" stroke-miterlimit="10" fill="none"/></g></svg>