<svg width="2148" height="1033" xmlns="http://www.w3.org/2000/svg" xmlns:xlink="http://www.w3.org/1999/xlink" xml:space="preserve" overflow="hidden"><g transform="translate(1 1)"><rect x="0" y="0" width="2145" height="1030" fill="#FFFFFF"/><g><path d="M713.524 248.5 713.524 735.5M1174.54 248.5 1174.54 735.5M1634.55 248.5 1634.55 735.5M2094.5 248.5 2094.5 735.5" stroke="#D9D9D9" stroke-width="3.4375" stroke-linejoin="round" stroke-miterlimit="10" fill="none"/></g><g><path d="M332.011 652.021 367.012 652.021 367.012 736 332.011 736ZM792.026 607.02 828.027 607.02 828.027 736 792.026 736ZM1252.04 443.015 1288.04 443.015 1288.04 736 1252.04 736ZM1713.06 332.011 1748.06 332.011 1748.06 736 1713.06 736Z" fill="#4472C4"/></g><g><path d="M399.013 685.022 434.014 685.022 434.014 736 399.013 736ZM859.028 635.021 895.029 635.021 895.029 736 859.028 736ZM1319.04 565.019 1355.04 565.019 1355.04 736 1319.04 736ZM1780.06 442.014 1815.06 442.014 1815.06 736 1780.06 736Z" fill="#ED7D31"/></g><g><path d="M466.015 688.023 501.016 688.023 501.016 736 466.015 736ZM926.03 644.021 962.032 644.021 962.032 736 926.03 736ZM1387.05 573.019 1422.05 573.019 1422.05 736 1387.05 736ZM1847.06 439.014 1882.06 439.014 1882.06 736 1847.06 736Z" fill="#A5A5A5"/></g><g><path d="M533.017 688.023 568.019 688.023 568.019 736 533.017 736ZM993.033 646.021 1029.03 646.021 1029.03 736 993.033 736ZM1454.05 569.019 1489.05 569.019 1489.05 736 1454.05 736ZM1914.06 453.015 1949.06 453.015 1949.06 736 1914.06 736Z" fill="#FFC000"/></g><g><path d="M600.02 692.023 636.021 692.023 636.021 736 600.02 736ZM1060.03 644.021 1096.04 644.021 1096.04 736 1060.03 736ZM1521.05 583.019 1556.05 583.019 1556.05 736 1521.05 736ZM1981.06 472.016 2016.07 472.016 2016.07 736 1981.06 736Z" fill="#5B9BD5"/></g><g><path d="M0 0 0.000360892 487" stroke="#D9D9D9" stroke-width="3.4375" stroke-linejoin="round" stroke-miterlimit="10" fill="none" fill-rule="evenodd" transform="matrix(1 0 0 -1 253.5 735.5)"/></g><g><path d="M240.5 735.5 253.5 735.5M240.5 666.522 253.5 666.522M240.5 596.52 253.5 596.52M240.5 526.517 253.5 526.517M240.5 457.515 253.5 457.515M240.5 387.513 253.5 387.513M240.5 317.511 253.5 317.511M240.5 248.5 253.5 248.5" stroke="#D9D9D9" stroke-width="3.4375" stroke-linejoin="round" stroke-miterlimit="10" fill="none"/></g><g><path d="M253.5 735.5 2094.5 735.5" stroke="#D9D9D9" stroke-width="3.4375" stroke-linejoin="round" stroke-miterlimit="10" fill="none" fill-rule="evenodd"/></g><g><text fill="#7F7F7F" font-family="Calibri,Calibri_MSFontService,sans-serif" font-weight="400" font-size="37" transform="matrix(6.12323e-17 -1 1 6.12323e-17 362.275 625)">1.0X</text></g><g><text fill="#7F7F7F" font-family="Calibri,Calibri_MSFontService,sans-serif" font-weight="400" font-size="37" transform="matrix(6.12323e-17 -1 1 6.12323e-17 822.506 580)">1.0X</text></g><g><text fill="#7F7F7F" font-family="Calibri,Calibri_MSFontService,sans-serif" font-weight="400" font-size="37" transform="matrix(6.12323e-17 -1 1 6.12323e-17 1282.74 416)">1.0X</text></g><g><text fill="#7F7F7F" font-family="Calibri,Calibri_MSFontService,sans-serif" font-weight="400" font-size="37" transform="matrix(6.12323e-17 -1 1 6.12323e-17 1742.97 304)">1.0X</text></g><g><text fill="#7F7F7F" font-family="Calibri,Calibri_MSFontService,sans-serif" font-weight="400" font-size="37" transform="matrix(6.12323e-17 -1 1 6.12323e-17 429.334 658)">1.6X</text></g><g><text fill="#7F7F7F" font-family="Calibri,Calibri_MSFontService,sans-serif" font-weight="400" font-size="37" transform="matrix(6.12323e-17 -1 1 6.12323e-17 889.564 608)">1.3X</text></g><g><text fill="#7F7F7F" font-family="Calibri,Calibri_MSFontService,sans-serif" font-weight="400" font-size="37" transform="matrix(6.12323e-17 -1 1 6.12323e-17 1349.79 537)">1.7X</text></g><g><text fill="#7F7F7F" font-family="Calibri,Calibri_MSFontService,sans-serif" font-weight="400" font-size="37" transform="matrix(6.12323e-17 -1 1 6.12323e-17 1810.03 414)">1.4X</text></g><g><text fill="#7F7F7F" font-family="Calibri,Calibri_MSFontService,sans-serif" font-weight="400" font-size="37" transform="matrix(6.12323e-17 -1 1 6.12323e-17 496.392 661)">1.7X</text></g><g><text fill="#7F7F7F" font-family="Calibri,Calibri_MSFontService,sans-serif" font-weight="400" font-size="37" transform="matrix(6.12323e-17 -1 1 6.12323e-17 956.622 616)">1.4X</text></g><g><text fill="#7F7F7F" font-family="Calibri,Calibri_MSFontService,sans-serif" font-weight="400" font-size="37" transform="matrix(6.12323e-17 -1 1 6.12323e-17 1416.85 546)">1.8X</text></g><g><text fill="#7F7F7F" font-family="Calibri,Calibri_MSFontService,sans-serif" font-weight="400" font-size="37" transform="matrix(6.12323e-17 -1 1 6.12323e-17 1877.08 411)">1.4X</text></g><g><text fill="#7F7F7F" font-family="Calibri,Calibri_MSFontService,sans-serif" font-weight="400" font-size="37" transform="matrix(6.12323e-17 -1 1 6.12323e-17 563.45 661)">1.7X</text></g><g><text fill="#7F7F7F" font-family="Calibri,Calibri_MSFontService,sans-serif" font-weight="400" font-size="37" transform="matrix(6.12323e-17 -1 1 6.12323e-17 1023.68 618)">1.4X</text></g><g><text fill="#7F7F7F" font-family="Calibri,Calibri_MSFontService,sans-serif" font-weight="400" font-size="37" transform="matrix(6.12323e-17 -1 1 6.12323e-17 1483.91 541)">1.7X</text></g><g><text fill="#7F7F7F" font-family="Calibri,Calibri_MSFontService,sans-serif" font-weight="400" font-size="37" transform="matrix(6.12323e-17 -1 1 6.12323e-17 1944.14 425)">1.4X</text></g><g><text fill="#7F7F7F" font-family="Calibri,Calibri_MSFontService,sans-serif" font-weight="400" font-size="37" transform="matrix(6.12323e-17 -1 1 6.12323e-17 630.508 665)">1.9X</text></g><g><text fill="#7F7F7F" font-family="Calibri,Calibri_MSFontService,sans-serif" font-weight="400" font-size="37" transform="matrix(6.12323e-17 -1 1 6.12323e-17 1090.74 616)">1.4X</text></g><g><text fill="#7F7F7F" font-family="Calibri,Calibri_MSFontService,sans-serif" font-weight="400" font-size="37" transform="matrix(6.12323e-17 -1 1 6.12323e-17 1550.97 556)">1.9X</text></g><g><text fill="#7F7F7F" font-family="Calibri,Calibri_MSFontService,sans-serif" font-weight="400" font-size="37" transform="matrix(6.12323e-17 -1 1 6.12323e-17 2011.2 445)">1.5X</text></g><g><text fill="#595959" font-family="Calibri,Calibri_MSFontService,sans-serif" font-weight="400" font-size="41" transform="matrix(1 0 0 1 163.19 747)">0.0</text></g><g><text fill="#595959" font-family="Calibri,Calibri_MSFontService,sans-serif" font-weight="400" font-size="41" transform="matrix(1 0 0 1 142.29 678)">50.0</text></g><g><text fill="#595959" font-family="Calibri,Calibri_MSFontService,sans-serif" font-weight="400" font-size="41" transform="matrix(1 0 0 1 121.39 608)">100.0</text></g><g><text fill="#595959" font-family="Calibri,Calibri_MSFontService,sans-serif" font-weight="400" font-size="41" transform="matrix(1 0 0 1 121.39 538)">150.0</text></g><g><text fill="#595959" font-family="Calibri,Calibri_MSFontService,sans-serif" font-weight="400" font-size="41" transform="matrix(1 0 0 1 121.39 469)">200.0</text></g><g><text fill="#595959" font-family="Calibri,Calibri_MSFontService,sans-serif" font-weight="400" font-size="41" transform="matrix(1 0 0 1 121.39 399)">250.0</text></g><g><text fill="#595959" font-family="Calibri,Calibri_MSFontService,sans-serif" font-weight="400" font-size="41" transform="matrix(1 0 0 1 121.39 330)">300.0</text></g><g><text fill="#595959" font-family="Calibri,Calibri_MSFontService,sans-serif" font-weight="400" font-size="41" transform="matrix(1 0 0 1 121.39 260)">350.0</text></g><g><text fill="#595959" font-family="Calibri,Calibri_MSFontService,sans-serif" font-weight="400" font-size="37" transform="matrix(1 0 0 1 428.857 794)">(1, 1)</text></g><g><text fill="#595959" font-family="Calibri,Calibri_MSFontService,sans-serif" font-weight="400" font-size="37" transform="matrix(1 0 0 1 889.087 794)">(1, 4)</text></g><g><text fill="#595959" font-family="Calibri,Calibri_MSFontService,sans-serif" font-weight="400" font-size="37" transform="matrix(1 0 0 1 1349.32 794)">(4, 1)</text></g><g><text fill="#595959" font-family="Calibri,Calibri_MSFontService,sans-serif" font-weight="400" font-size="37" transform="matrix(1 0 0 1 1809.55 794)">(4, 4)</text></g><g><text fill="#595959" font-family="Calibri,Calibri_MSFontService,sans-serif" font-weight="400" font-size="41" transform="matrix(6.12323e-17 -1 1 6.12323e-17 96.2958 611)">LATENCY (MS)</text></g><g><text fill="#595959" font-family="Calibri,Calibri_MSFontService,sans-serif" font-weight="400" font-size="41" transform="matrix(1 0 0 1 1045.02 857)">(BATCH, STEPS)</text></g><g><text fill="#595959" font-family="Calibri,Calibri_MSFontService,sans-serif" font-weight="700" font-size="64" transform="matrix(1 0 0 1 913.286 95)">SD TURBO</text></g><g><text fill="#595959" font-family="Calibri,Calibri_MSFontService,sans-serif" font-weight="700" font-size="64" transform="matrix(1 0 0 1 647.017 173)">(RTX</text></g><g><text fill="#595959" font-family="Calibri,Calibri_MSFontService,sans-serif" font-weight="700" font-size="64" transform="matrix(1 0 0 1 791.599 173)">-</text></g><g><text fill="#595959" font-family="Calibri,Calibri_MSFontService,sans-serif" font-weight="700" font-size="64" transform="matrix(1 0 0 1 816.738 173)">4090, 512X512, FP16)</text></g><g><rect x="152" y="953" width="22" height="22" fill="#4472C4"/></g><g><text fill="#595959" font-family="Calibri,Calibri_MSFontService,sans-serif" font-weight="400" font-size="41" transform="matrix(1 0 0 1 183.929 975)">Torch Compile</text></g><g><rect x="469" y="953" width="23" height="22" fill="#ED7D31"/></g><g><text fill="#595959" font-family="Calibri,Calibri_MSFontService,sans-serif" font-weight="400" font-size="41" transform="matrix(1 0 0 1 501.417 975)">ORT_CUDA (dynamic)</text></g><g><rect x="908" y="953" width="23.0001" height="22" fill="#A5A5A5"/></g><g><text fill="#595959" font-family="Calibri,Calibri_MSFontService,sans-serif" font-weight="400" font-size="41" transform="matrix(1 0 0 1 940.432 975)">ORT_TRT (dynamic)</text></g><g><rect x="1312" y="953" width="23" height="22" fill="#FFC000"/></g><g><text fill="#595959" font-family="Calibri,Calibri_MSFontService,sans-serif" font-weight="400" font-size="41" transform="matrix(1 0 0 1 1344.32 975)">ORT_CUDA (static)</text></g><g><rect x="1700" y="953" width="23" height="22" fill="#5B9BD5"/></g><g><text fill="#595959" font-family="Calibri,Calibri_MSFontService,sans-serif" font-weight="400" font-size="41" transform="matrix(1 0 0 1 1732.11 975)">ORT_TRT (static)</text></g><rect x="0.499836" y="0.499836" width="2145" height="1030" stroke="#D9D9D9" stroke-width="3.4375" stroke-linejoin="round" stroke-miterlimit="10" fill="none"/></g></svg>