<svg width="2226" height="1117" xmlns="http://www.w3.org/2000/svg" xmlns:xlink="http://www.w3.org/1999/xlink" xml:space="preserve" overflow="hidden"><defs><clipPath id="clip0"><rect x="1847" y="521" width="2226" height="1117"/></clipPath></defs><g clip-path="url(#clip0)" transform="translate(-1847 -521)"><rect x="1848" y="522" width="2223" height="1114" fill="#FFFFFF"/><g><path d="M2542.58 792.5 2542.58 1341.5M3034.6 792.5 3034.6 1341.5M3527.62 792.5 3527.62 1341.5M4020.5 792.5 4020.5 1341.5" stroke="#D9D9D9" stroke-width="3.4375" stroke-linejoin="round" stroke-miterlimit="10" fill="none"/></g><g><path d="M2168.07 1149.04 2221.07 1149.04 2221.07 1342 2168.07 1342ZM2661.09 1105.04 2714.09 1105.04 2714.09 1342 2661.09 1342ZM3153.1 1014.03 3207.11 1014.03 3207.11 1342 3153.1 1342ZM3646.12 982.032 3699.12 982.032 3699.12 1342 3646.12 1342Z" fill="#156082"/></g><g><path d="M2269.07 1116.04 2322.08 1116.04 2322.08 1342 2269.07 1342ZM2762.09 1051.03 2815.09 1051.03 2815.09 1342 2762.09 1342ZM3255.11 923.03 3308.11 923.03 3308.11 1342 3255.11 1342ZM3747.12 869.029 3801.12 869.029 3801.12 1342 3747.12 1342Z" fill="#E97132"/></g><g><path d="M2370.08 1121.04 2424.08 1121.04 2424.08 1342 2370.08 1342ZM2863.09 1075.04 2917.1 1075.04 2917.1 1342 2863.09 1342ZM3356.11 912.03 3409.11 912.03 3409.11 1342 3356.11 1342ZM3849.13 865.028 3902.13 865.028 3902.13 1342 3849.13 1342Z" fill="#196B24"/></g><g><path d="M0 0 0.000360892 549" stroke="#D9D9D9" stroke-width="3.4375" stroke-linejoin="round" stroke-miterlimit="10" fill="none" fill-rule="evenodd" transform="matrix(1 0 0 -1 2049.5 1341.5)"/></g><g><path d="M2036.5 1341.5 2049.5 1341.5M2036.5 1263.54 2049.5 1263.54M2036.5 1184.54 2049.5 1184.54M2036.5 1106.54 2049.5 1106.54M2036.5 1027.53 2049.5 1027.53M2036.5 949.531 2049.5 949.531M2036.5 870.529 2049.5 870.529M2036.5 792.5 2049.5 792.5" stroke="#D9D9D9" stroke-width="3.4375" stroke-linejoin="round" stroke-miterlimit="10" fill="none"/></g><g><path d="M2049.5 1341.5 4020.5 1341.5" stroke="#D9D9D9" stroke-width="3.4375" stroke-linejoin="round" stroke-miterlimit="10" fill="none" fill-rule="evenodd"/></g><g><text fill="#7F7F7F" font-family="Aptos Narrow,Aptos Narrow_MSFontService,sans-serif" font-weight="400" font-stretch="semi-condensed" font-size="37" transform="matrix(6.12323e-17 -1 1 6.12323e-17 2206.18 1121)">+0%</text></g><g><text fill="#7F7F7F" font-family="Aptos Narrow,Aptos Narrow_MSFontService,sans-serif" font-weight="400" font-stretch="semi-condensed" font-size="37" transform="matrix(6.12323e-17 -1 1 6.12323e-17 2698.93 1077)">+0%</text></g><g><text fill="#7F7F7F" font-family="Aptos Narrow,Aptos Narrow_MSFontService,sans-serif" font-weight="400" font-stretch="semi-condensed" font-size="37" transform="matrix(6.12323e-17 -1 1 6.12323e-17 3191.68 986)">+0%</text></g><g><text fill="#7F7F7F" font-family="Aptos Narrow,Aptos Narrow_MSFontService,sans-serif" font-weight="400" font-stretch="semi-condensed" font-size="37" transform="matrix(6.12323e-17 -1 1 6.12323e-17 3684.43 955)">+0%</text></g><g><text fill="#7F7F7F" font-family="Aptos Narrow,Aptos Narrow_MSFontService,sans-serif" font-weight="400" font-stretch="semi-condensed" font-size="37" transform="matrix(6.12323e-17 -1 1 6.12323e-17 2307.51 1088)">+17%</text></g><g><text fill="#7F7F7F" font-family="Aptos Narrow,Aptos Narrow_MSFontService,sans-serif" font-weight="400" font-stretch="semi-condensed" font-size="37" transform="matrix(6.12323e-17 -1 1 6.12323e-17 2800.26 1024)">+23%</text></g><g><text fill="#7F7F7F" font-family="Aptos Narrow,Aptos Narrow_MSFontService,sans-serif" font-weight="400" font-stretch="semi-condensed" font-size="37" transform="matrix(6.12323e-17 -1 1 6.12323e-17 3293.01 895)">+28%</text></g><g><text fill="#7F7F7F" font-family="Aptos Narrow,Aptos Narrow_MSFontService,sans-serif" font-weight="400" font-stretch="semi-condensed" font-size="37" transform="matrix(6.12323e-17 -1 1 6.12323e-17 3785.75 842)">+31%</text></g><g><text fill="#7F7F7F" font-family="Aptos Narrow,Aptos Narrow_MSFontService,sans-serif" font-weight="400" font-stretch="semi-condensed" font-size="37" transform="matrix(6.12323e-17 -1 1 6.12323e-17 2408.83 1093)">+15%</text></g><g><text fill="#7F7F7F" font-family="Aptos Narrow,Aptos Narrow_MSFontService,sans-serif" font-weight="400" font-stretch="semi-condensed" font-size="37" transform="matrix(6.12323e-17 -1 1 6.12323e-17 2901.58 1048)">+13%</text></g><g><text fill="#7F7F7F" font-family="Aptos Narrow,Aptos Narrow_MSFontService,sans-serif" font-weight="400" font-stretch="semi-condensed" font-size="37" transform="matrix(6.12323e-17 -1 1 6.12323e-17 3394.33 884)">+31%</text></g><g><text fill="#7F7F7F" font-family="Aptos Narrow,Aptos Narrow_MSFontService,sans-serif" font-weight="400" font-stretch="semi-condensed" font-size="37" transform="matrix(6.12323e-17 -1 1 6.12323e-17 3887.08 837)">+33%</text></g><g><text fill="#595959" font-family="Aptos Narrow,Aptos Narrow_MSFontService,sans-serif" font-weight="400" font-stretch="semi-condensed" font-size="41" transform="matrix(1 0 0 1 1990.52 1353)">0</text></g><g><text fill="#595959" font-family="Aptos Narrow,Aptos Narrow_MSFontService,sans-serif" font-weight="400" font-stretch="semi-condensed" font-size="41" transform="matrix(1 0 0 1 1990.52 1275)">5</text></g><g><text fill="#595959" font-family="Aptos Narrow,Aptos Narrow_MSFontService,sans-serif" font-weight="400" font-stretch="semi-condensed" font-size="41" transform="matrix(1 0 0 1 1969.62 1196)">10</text></g><g><text fill="#595959" font-family="Aptos Narrow,Aptos Narrow_MSFontService,sans-serif" font-weight="400" font-stretch="semi-condensed" font-size="41" transform="matrix(1 0 0 1 1969.62 1118)">15</text></g><g><text fill="#595959" font-family="Aptos Narrow,Aptos Narrow_MSFontService,sans-serif" font-weight="400" font-stretch="semi-condensed" font-size="41" transform="matrix(1 0 0 1 1969.62 1040)">20</text></g><g><text fill="#595959" font-family="Aptos Narrow,Aptos Narrow_MSFontService,sans-serif" font-weight="400" font-stretch="semi-condensed" font-size="41" transform="matrix(1 0 0 1 1969.62 961)">25</text></g><g><text fill="#595959" font-family="Aptos Narrow,Aptos Narrow_MSFontService,sans-serif" font-weight="400" font-stretch="semi-condensed" font-size="41" transform="matrix(1 0 0 1 1969.62 883)">30</text></g><g><text fill="#595959" font-family="Aptos Narrow,Aptos Narrow_MSFontService,sans-serif" font-weight="400" font-stretch="semi-condensed" font-size="41" transform="matrix(1 0 0 1 1969.62 804)">35</text></g><g><text fill="#595959" font-family="Aptos Narrow,Aptos Narrow_MSFontService,sans-serif" font-weight="400" font-stretch="semi-condensed" font-size="37" transform="matrix(1 0 0 1 2241.44 1399)">(1, 4)</text></g><g><text fill="#595959" font-family="Aptos Narrow,Aptos Narrow_MSFontService,sans-serif" font-weight="400" font-stretch="semi-condensed" font-size="37" transform="matrix(1 0 0 1 2734.19 1399)">(4, 4)</text></g><g><text fill="#595959" font-family="Aptos Narrow,Aptos Narrow_MSFontService,sans-serif" font-weight="400" font-stretch="semi-condensed" font-size="37" transform="matrix(1 0 0 1 3226.94 1399)">(1, 1)</text></g><g><text fill="#595959" font-family="Aptos Narrow,Aptos Narrow_MSFontService,sans-serif" font-weight="400" font-stretch="semi-condensed" font-size="37" transform="matrix(1 0 0 1 3719.69 1399)">(4, 1)</text></g><g><text fill="#595959" font-family="Aptos Narrow,Aptos Narrow_MSFontService,sans-serif" font-weight="400" font-stretch="semi-condensed" font-size="41" transform="matrix(6.12323e-17 -1 1 6.12323e-17 1944.52 1181)">IMAGES / SEC</text></g><g><text fill="#595959" font-family="Aptos Narrow,Aptos Narrow_MSFontService,sans-serif" font-weight="400" font-stretch="semi-condensed" font-size="41" transform="matrix(1 0 0 1 2903.61 1462)">(BATCH, STEPS)</text></g><g><text fill="#595959" font-family="Aptos Narrow,Aptos Narrow_MSFontService,sans-serif" font-weight="700" font-stretch="semi-condensed" font-size="73" transform="matrix(1 0 0 1 2500.62 625)">SD TURBO (STATIC SHAPE)</text></g><g><text fill="#595959" font-family="Aptos Narrow,Aptos Narrow_MSFontService,sans-serif" font-weight="700" font-stretch="semi-condensed" font-size="73" transform="matrix(1 0 0 1 2488.02 714)">(RTX</text></g><g><text fill="#595959" font-family="Aptos Narrow,Aptos Narrow_MSFontService,sans-serif" font-weight="700" font-stretch="semi-condensed" font-size="73" transform="matrix(1 0 0 1 2644.51 714)">-</text></g><g><text fill="#595959" font-family="Aptos Narrow,Aptos Narrow_MSFontService,sans-serif" font-weight="700" font-stretch="semi-condensed" font-size="73" transform="matrix(1 0 0 1 2672.47 714)">4090, 512X512, FP16)</text></g><g><rect x="2432" y="1558" width="23" height="23" fill="#156082"/></g><g><text fill="#595959" font-family="Aptos Narrow,Aptos Narrow_MSFontService,sans-serif" font-weight="400" font-stretch="semi-condensed" font-size="41" transform="matrix(1 0 0 1 2464.31 1581)">Torch (Compile)</text></g><g><rect x="2792" y="1558" width="22" height="23" fill="#E97132"/></g><g><text fill="#595959" font-family="Aptos Narrow,Aptos Narrow_MSFontService,sans-serif" font-weight="400" font-stretch="semi-condensed" font-size="41" transform="matrix(1 0 0 1 2823.77 1581)">ORT_CUDA (Static)</text></g><g><rect x="3199" y="1558" width="23" height="23" fill="#196B24"/></g><g><text fill="#595959" font-family="Aptos Narrow,Aptos Narrow_MSFontService,sans-serif" font-weight="400" font-stretch="semi-condensed" font-size="41" transform="matrix(1 0 0 1 3231.36 1581)">ORT_TRT (Static)</text></g><rect x="1848.5" y="522.5" width="2223" height="1114" stroke="#D9D9D9" stroke-width="3.4375" stroke-linejoin="round" stroke-miterlimit="10" fill="none"/></g></svg>