<svg width="2148" height="987" xmlns="http://www.w3.org/2000/svg" xmlns:xlink="http://www.w3.org/1999/xlink" xml:space="preserve" overflow="hidden"><g transform="translate(1 1)"><rect x="0" y="0" width="2145" height="984" fill="#FFFFFF"/><g><path d="M713.524 248.5 713.524 689.5M1174.54 248.5 1174.54 689.5M1634.55 248.5 1634.55 689.5M2094.5 248.5 2094.5 689.5" stroke="#D9D9D9" stroke-width="3.4375" stroke-linejoin="round" stroke-miterlimit="10" fill="none"/></g><g><path d="M332.011 572.019 367.012 572.019 367.012 690 332.011 690ZM792.026 504.017 828.027 504.017 828.027 690 792.026 690ZM1252.04 458.015 1288.04 458.015 1288.04 690 1252.04 690ZM1713.06 311.01 1748.06 311.01 1748.06 690 1713.06 690Z" fill="#4472C4"/></g><g><path d="M399.013 640.021 434.014 640.021 434.014 690 399.013 690ZM859.028 576.019 895.029 576.019 895.029 690 859.028 690ZM1319.04 569.019 1355.04 569.019 1355.04 690 1319.04 690ZM1780.06 407.013 1815.06 407.013 1815.06 690 1780.06 690Z" fill="#ED7D31"/></g><g><path d="M466.015 645.021 501.016 645.021 501.016 690 466.015 690ZM926.03 580.019 962.032 580.019 962.032 690 926.03 690ZM1387.05 580.019 1422.05 580.019 1422.05 690 1387.05 690ZM1847.06 434.014 1882.06 434.014 1882.06 690 1847.06 690Z" fill="#A5A5A5"/></g><g><path d="M533.017 649.021 568.019 649.021 568.019 690 533.017 690ZM993.033 591.019 1029.03 591.019 1029.03 690 993.033 690ZM1454.05 584.019 1489.05 584.019 1489.05 690 1454.05 690ZM1914.06 445.015 1949.06 445.015 1949.06 690 1914.06 690Z" fill="#FFC000"/></g><g><path d="M600.02 653.021 636.021 653.021 636.021 690 600.02 690ZM1060.03 599.02 1096.04 599.02 1096.04 690 1060.03 690ZM1521.05 590.019 1556.05 590.019 1556.05 690 1521.05 690ZM1981.06 467.015 2016.07 467.015 2016.07 690 1981.06 690Z" fill="#5B9BD5"/></g><g><path d="M0 0 0.000360892 441" stroke="#D9D9D9" stroke-width="3.4375" stroke-linejoin="round" stroke-miterlimit="10" fill="none" fill-rule="evenodd" transform="matrix(1 0 0 -1 253.5 689.5)"/></g><g><path d="M240.5 689.5 253.5 689.5M240.5 616.52 253.5 616.52M240.5 542.518 253.5 542.518M240.5 469.516 253.5 469.516M240.5 395.513 253.5 395.513M240.5 321.511 253.5 321.511M240.5 248.5 253.5 248.5" stroke="#D9D9D9" stroke-width="3.4375" stroke-linejoin="round" stroke-miterlimit="10" fill="none"/></g><g><path d="M253.5 689.5 2094.5 689.5" stroke="#D9D9D9" stroke-width="3.4375" stroke-linejoin="round" stroke-miterlimit="10" fill="none" fill-rule="evenodd"/></g><g><text fill="#7F7F7F" font-family="Calibri,Calibri_MSFontService,sans-serif" font-weight="400" font-size="37" transform="matrix(6.12323e-17 -1 1 6.12323e-17 362.275 545)">1.0X</text></g><g><text fill="#7F7F7F" font-family="Calibri,Calibri_MSFontService,sans-serif" font-weight="400" font-size="37" transform="matrix(6.12323e-17 -1 1 6.12323e-17 822.506 477)">1.0X</text></g><g><text fill="#7F7F7F" font-family="Calibri,Calibri_MSFontService,sans-serif" font-weight="400" font-size="37" transform="matrix(6.12323e-17 -1 1 6.12323e-17 1282.74 431)">1.0X</text></g><g><text fill="#7F7F7F" font-family="Calibri,Calibri_MSFontService,sans-serif" font-weight="400" font-size="37" transform="matrix(6.12323e-17 -1 1 6.12323e-17 1742.97 284)">1.0X</text></g><g><text fill="#7F7F7F" font-family="Calibri,Calibri_MSFontService,sans-serif" font-weight="400" font-size="37" transform="matrix(6.12323e-17 -1 1 6.12323e-17 429.334 613)">2.4X</text></g><g><text fill="#7F7F7F" font-family="Calibri,Calibri_MSFontService,sans-serif" font-weight="400" font-size="37" transform="matrix(6.12323e-17 -1 1 6.12323e-17 889.564 549)">1.6X</text></g><g><text fill="#7F7F7F" font-family="Calibri,Calibri_MSFontService,sans-serif" font-weight="400" font-size="37" transform="matrix(6.12323e-17 -1 1 6.12323e-17 1349.79 541)">1.9X</text></g><g><text fill="#7F7F7F" font-family="Calibri,Calibri_MSFontService,sans-serif" font-weight="400" font-size="37" transform="matrix(6.12323e-17 -1 1 6.12323e-17 1810.03 380)">1.3X</text></g><g><text fill="#7F7F7F" font-family="Calibri,Calibri_MSFontService,sans-serif" font-weight="400" font-size="37" transform="matrix(6.12323e-17 -1 1 6.12323e-17 496.392 618)">2.6X</text></g><g><text fill="#7F7F7F" font-family="Calibri,Calibri_MSFontService,sans-serif" font-weight="400" font-size="37" transform="matrix(6.12323e-17 -1 1 6.12323e-17 956.622 552)">1.7X</text></g><g><text fill="#7F7F7F" font-family="Calibri,Calibri_MSFontService,sans-serif" font-weight="400" font-size="37" transform="matrix(6.12323e-17 -1 1 6.12323e-17 1416.85 552)">2.1X</text></g><g><text fill="#7F7F7F" font-family="Calibri,Calibri_MSFontService,sans-serif" font-weight="400" font-size="37" transform="matrix(6.12323e-17 -1 1 6.12323e-17 1877.08 407)">1.5X</text></g><g><text fill="#7F7F7F" font-family="Calibri,Calibri_MSFontService,sans-serif" font-weight="400" font-size="37" transform="matrix(6.12323e-17 -1 1 6.12323e-17 563.45 622)">2.9X</text></g><g><text fill="#7F7F7F" font-family="Calibri,Calibri_MSFontService,sans-serif" font-weight="400" font-size="37" transform="matrix(6.12323e-17 -1 1 6.12323e-17 1023.68 563)">1.9X</text></g><g><text fill="#7F7F7F" font-family="Calibri,Calibri_MSFontService,sans-serif" font-weight="400" font-size="37" transform="matrix(6.12323e-17 -1 1 6.12323e-17 1483.91 556)">2.2X</text></g><g><text fill="#7F7F7F" font-family="Calibri,Calibri_MSFontService,sans-serif" font-weight="400" font-size="37" transform="matrix(6.12323e-17 -1 1 6.12323e-17 1944.14 418)">1.5X</text></g><g><text fill="#7F7F7F" font-family="Calibri,Calibri_MSFontService,sans-serif" font-weight="400" font-size="37" transform="matrix(6.12323e-17 -1 1 6.12323e-17 630.508 626)">3.2X</text></g><g><text fill="#7F7F7F" font-family="Calibri,Calibri_MSFontService,sans-serif" font-weight="400" font-size="37" transform="matrix(6.12323e-17 -1 1 6.12323e-17 1090.74 572)">2.0X</text></g><g><text fill="#7F7F7F" font-family="Calibri,Calibri_MSFontService,sans-serif" font-weight="400" font-size="37" transform="matrix(6.12323e-17 -1 1 6.12323e-17 1550.97 563)">2.3X</text></g><g><text fill="#7F7F7F" font-family="Calibri,Calibri_MSFontService,sans-serif" font-weight="400" font-size="37" transform="matrix(6.12323e-17 -1 1 6.12323e-17 2011.2 439)">1.7X</text></g><g><text fill="#595959" font-family="Calibri,Calibri_MSFontService,sans-serif" font-weight="400" font-size="41" transform="matrix(1 0 0 1 163.19 701)">0.0</text></g><g><text fill="#595959" font-family="Calibri,Calibri_MSFontService,sans-serif" font-weight="400" font-size="41" transform="matrix(1 0 0 1 121.39 628)">100.0</text></g><g><text fill="#595959" font-family="Calibri,Calibri_MSFontService,sans-serif" font-weight="400" font-size="41" transform="matrix(1 0 0 1 121.39 554)">200.0</text></g><g><text fill="#595959" font-family="Calibri,Calibri_MSFontService,sans-serif" font-weight="400" font-size="41" transform="matrix(1 0 0 1 121.39 481)">300.0</text></g><g><text fill="#595959" font-family="Calibri,Calibri_MSFontService,sans-serif" font-weight="400" font-size="41" transform="matrix(1 0 0 1 121.39 407)">400.0</text></g><g><text fill="#595959" font-family="Calibri,Calibri_MSFontService,sans-serif" font-weight="400" font-size="41" transform="matrix(1 0 0 1 121.39 333)">500.0</text></g><g><text fill="#595959" font-family="Calibri,Calibri_MSFontService,sans-serif" font-weight="400" font-size="41" transform="matrix(1 0 0 1 121.39 260)">600.0</text></g><g><text fill="#595959" font-family="Calibri,Calibri_MSFontService,sans-serif" font-weight="400" font-size="37" transform="matrix(1 0 0 1 428.857 748)">(1, 1)</text></g><g><text fill="#595959" font-family="Calibri,Calibri_MSFontService,sans-serif" font-weight="400" font-size="37" transform="matrix(1 0 0 1 889.087 748)">(1, 4)</text></g><g><text fill="#595959" font-family="Calibri,Calibri_MSFontService,sans-serif" font-weight="400" font-size="37" transform="matrix(1 0 0 1 1349.32 748)">(4, 1)</text></g><g><text fill="#595959" font-family="Calibri,Calibri_MSFontService,sans-serif" font-weight="400" font-size="37" transform="matrix(1 0 0 1 1809.55 748)">(4, 4)</text></g><g><text fill="#595959" font-family="Calibri,Calibri_MSFontService,sans-serif" font-weight="400" font-size="41" transform="matrix(6.12323e-17 -1 1 6.12323e-17 96.2962 588)">LATENCY (MS)</text></g><g><text fill="#595959" font-family="Calibri,Calibri_MSFontService,sans-serif" font-weight="400" font-size="41" transform="matrix(1 0 0 1 1045.02 811)">(BATCH, STEPS)</text></g><g><text fill="#595959" font-family="Calibri,Calibri_MSFontService,sans-serif" font-weight="700" font-size="64" transform="matrix(1 0 0 1 539.595 95)">SDXL TURBO CONTROLNET CANNY</text></g><g><text fill="#595959" font-family="Calibri,Calibri_MSFontService,sans-serif" font-weight="700" font-size="64" transform="matrix(1 0 0 1 521.423 173)">(A100</text></g><g><text fill="#595959" font-family="Calibri,Calibri_MSFontService,sans-serif" font-weight="700" font-size="64" transform="matrix(1 0 0 1 705.352 173)">-</text></g><g><text fill="#595959" font-family="Calibri,Calibri_MSFontService,sans-serif" font-weight="700" font-size="64" transform="matrix(1 0 0 1 730.491 173)">SXM4</text></g><g><text fill="#595959" font-family="Calibri,Calibri_MSFontService,sans-serif" font-weight="700" font-size="64" transform="matrix(1 0 0 1 906.148 173)">-</text></g><g><text fill="#595959" font-family="Calibri,Calibri_MSFontService,sans-serif" font-weight="700" font-size="64" transform="matrix(1 0 0 1 931.287 173)">80GB, 512X512, FP16)</text></g><g><rect x="152" y="907" width="22" height="22" fill="#4472C4"/></g><g><text fill="#595959" font-family="Calibri,Calibri_MSFontService,sans-serif" font-weight="400" font-size="41" transform="matrix(1 0 0 1 183.929 929)">Torch Compile</text></g><g><rect x="469" y="907" width="23" height="22" fill="#ED7D31"/></g><g><text fill="#595959" font-family="Calibri,Calibri_MSFontService,sans-serif" font-weight="400" font-size="41" transform="matrix(1 0 0 1 501.417 929)">ORT_TRT (dynamic)</text></g><g><rect x="873" y="907" width="23.0001" height="22" fill="#A5A5A5"/></g><g><text fill="#595959" font-family="Calibri,Calibri_MSFontService,sans-serif" font-weight="400" font-size="41" transform="matrix(1 0 0 1 905.301 929)">ORT_CUDA (dynamic)</text></g><g><rect x="1312" y="907" width="23" height="22" fill="#FFC000"/></g><g><text fill="#595959" font-family="Calibri,Calibri_MSFontService,sans-serif" font-weight="400" font-size="41" transform="matrix(1 0 0 1 1344.32 929)">ORT_CUDA (static)</text></g><g><rect x="1700" y="907" width="23" height="22" fill="#5B9BD5"/></g><g><text fill="#595959" font-family="Calibri,Calibri_MSFontService,sans-serif" font-weight="400" font-size="41" transform="matrix(1 0 0 1 1732.11 929)">ORT_TRT (static)</text></g><rect x="0.499836" y="0.499836" width="2145" height="984" stroke="#D9D9D9" stroke-width="3.4375" stroke-linejoin="round" stroke-miterlimit="10" fill="none"/></g></svg>