<svg version="1.1" viewBox="0.0 0.0 1100.0 680.0" fill="none" stroke="none" stroke-linecap="square" stroke-miterlimit="10" width="1100" height="680" xmlns:xlink="http://www.w3.org/1999/xlink" xmlns="http://www.w3.org/2000/svg"><path fill="#ffffff" d="M0 0L1100.0 0L1100.0 680.0L0 680.0L0 0Z" fill-rule="nonzero"/><path stroke="#cccccc" stroke-width="1.0" stroke-linecap="butt" d="M231.5 84.5L231.5 594.5" fill-rule="nonzero"/><path stroke="#cccccc" stroke-width="1.0" stroke-linecap="butt" d="M431.5 84.5L431.5 594.5" fill-rule="nonzero"/><path stroke="#cccccc" stroke-width="1.0" stroke-linecap="butt" d="M631.5 84.5L631.5 594.5" fill-rule="nonzero"/><path stroke="#cccccc" stroke-width="1.0" stroke-linecap="butt" d="M831.5 84.5L831.5 594.5" fill-rule="nonzero"/><path stroke="#cccccc" stroke-width="1.0" stroke-linecap="butt" d="M1032.5 84.5L1032.5 594.5" fill-rule="nonzero"/><path stroke="#cccccc" stroke-width="1.0" stroke-linecap="butt" d="M61.5 594.5L1066.5 594.5" fill-rule="nonzero"/><path stroke="#cccccc" stroke-width="1.0" stroke-linecap="butt" d="M61.5 466.5L1066.5 466.5" fill-rule="nonzero"/><path stroke="#cccccc" stroke-width="1.0" stroke-linecap="butt" d="M61.5 339.5L1066.5 339.5" fill-rule="nonzero"/><path stroke="#cccccc" stroke-width="1.0" stroke-linecap="butt" d="M61.5 212.5L1066.5 212.5" fill-rule="nonzero"/><path stroke="#cccccc" stroke-width="1.0" stroke-linecap="butt" d="M61.5 84.5L1066.5 84.5" fill-rule="nonzero"/><clipPath id="id_0"><path d="M61.0 84.666664L1066.0 84.666664L1066.0 594.0L61.0 594.0L61.0 84.666664Z" clip-rule="nonzero"/></clipPath><path stroke="#4285f4" stroke-width="2.0" stroke-linecap="butt" clip-path="url(#id_0)" d="M70.80488 335.36658L94.83878 291.94513L287.11005 247.91089L799.83344 120.06537L1056.1951 355.3529" fill-rule="nonzero"/><path fill="#4285f4" clip-path="url(#id_0)" d="M76.80488 335.36658C76.80488 338.68027 74.11858 341.36658 70.80488 341.36658C67.49117 341.36658 64.80488 338.68027 64.80488 335.36658C64.80488 332.05286 67.49117 329.36658 70.80488 329.36658C74.11858 329.36658 76.80488 332.05286 76.80488 335.36658Z" fill-rule="nonzero"/><path fill="#4285f4" clip-path="url(#id_0)" d="M100.83878 291.94513C100.83878 295.25882 98.1525 297.94513 94.83878 297.94513C91.52508 297.94513 88.83878 295.25882 88.83878 291.94513C88.83878 288.6314 91.52508 285.94513 94.83878 285.94513C98.1525 285.94513 100.83878 288.6314 100.83878 291.94513Z" fill-rule="nonzero"/><path fill="#4285f4" clip-path="url(#id_0)" d="M293.11005 247.91089C293.11005 251.2246 290.42377 253.91089 287.11005 253.91089C283.79636 253.91089 281.11005 251.2246 281.11005 247.91089C281.11005 244.59717 283.79636 241.91089 287.11005 241.91089C290.42377 241.91089 293.11005 244.59717 293.11005 247.91089Z" fill-rule="nonzero"/><path fill="#4285f4" clip-path="url(#id_0)" d="M805.83344 120.06537C805.83344 123.379074 803.14716 126.06537 799.83344 126.06537C796.5197 126.06537 793.83344 123.379074 793.83344 120.06537C793.83344 116.751656 796.5197 114.06537 799.83344 114.06537C803.14716 114.06537 805.83344 116.751656 805.83344 120.06537Z" fill-rule="nonzero"/><path fill="#4285f4" clip-path="url(#id_0)" d="M1062.1951 355.3529C1062.1951 358.66663 1059.5088 361.3529 1056.1951 361.3529C1052.8815 361.3529 1050.1951 358.66663 1050.1951 355.3529C1050.1951 352.03918 1052.8815 349.3529 1056.1951 349.3529C1059.5088 349.3529 1062.1951 352.03918 1062.1951 355.3529Z" fill-rule="nonzero"/><path fill="#000000" d="M515.5469 640.2344L516.6094 640.1406Q516.6875 640.7969 516.96875 641.2031Q517.25 641.6094 517.8281 641.875Q518.4219 642.125 519.15625 642.125Q519.7969 642.125 520.2969 641.9375Q520.7969 641.7344 521.03125 641.40625Q521.28125 641.0625 521.28125 640.6719Q521.28125 640.2656 521.0469 639.96875Q520.8125 639.65625 520.28125 639.4531Q519.9219 639.3125 518.7344 639.03125Q517.5625 638.75 517.09375 638.5Q516.46875 638.1719 516.1719 637.7031Q515.875 637.21875 515.875 636.625Q515.875 635.9844 516.2344 635.4219Q516.6094 634.84375 517.3125 634.5625Q518.03125 634.2656 518.8906 634.2656Q519.84375 634.2656 520.5781 634.5781Q521.3125 634.875 521.7031 635.4844Q522.09375 636.0781 522.125 636.8281L521.03125 636.90625Q520.9375 636.09375 520.4219 635.6875Q519.9219 635.2656 518.9375 635.2656Q517.90625 635.2656 517.4375 635.6406Q516.96875 636.0156 516.96875 636.5469Q516.96875 637.0156 517.2969 637.3125Q517.625 637.6094 519.0 637.9219Q520.3906 638.2344 520.90625 638.46875Q521.65625 638.8281 522.0156 639.3594Q522.375 639.875 522.375 640.5781Q522.375 641.2656 521.9844 641.875Q521.59375 642.46875 520.8594 642.8125Q520.125 643.1406 519.2031 643.1406Q518.03125 643.1406 517.2344 642.8125Q516.4531 642.46875 516.0 641.78125Q515.5625 641.09375 515.5469 640.2344ZM528.0469 641.0L529.1406 641.125Q528.8906 642.0781 528.1875 642.6094Q527.4844 643.1406 526.40625 643.1406Q525.0469 643.1406 524.2344 642.2969Q523.4375 641.4531 523.4375 639.9375Q523.4375 638.375 524.25 637.5156Q525.0625 636.6406 526.34375 636.6406Q527.59375 636.6406 528.375 637.4844Q529.1719 638.3281 529.1719 639.875Q529.1719 639.96875 529.1719 640.15625L524.53125 640.15625Q524.59375 641.1875 525.1094 641.7344Q525.625 642.2656 526.40625 642.2656Q526.9844 642.2656 527.3906 641.96875Q527.8125 641.65625 528.0469 641.0ZM524.59375 639.2969L528.0625 639.2969Q528.0 638.5 527.6719 638.1094Q527.15625 637.5 526.3594 637.5Q525.625 637.5 525.125 637.9844Q524.6406 638.46875 524.59375 639.2969ZM534.7656 645.3906L534.7656 642.34375Q534.5156 642.6875 534.0625 642.9219Q533.625 643.1406 533.125 643.1406Q532.0156 643.1406 531.21875 642.2656Q530.4219 641.375 530.4219 639.8281Q530.4219 638.8906 530.75 638.15625Q531.0781 637.40625 531.6875 637.03125Q532.3125 636.6406 533.0469 636.6406Q534.2031 636.6406 534.8594 637.6094L534.8594 636.78125L535.8125 636.78125L535.8125 645.3906L534.7656 645.3906ZM531.5 639.875Q531.5 641.0781 532.0 641.6719Q532.5156 642.2656 533.21875 642.2656Q533.8906 642.2656 534.375 641.7031Q534.8594 641.125 534.8594 639.96875Q534.8594 638.71875 534.34375 638.09375Q533.84375 637.46875 533.1406 637.46875Q532.46875 637.46875 531.9844 638.0625Q531.5 638.6406 531.5 639.875ZM541.875 643.0L541.875 642.0781Q541.1406 643.1406 539.8906 643.1406Q539.34375 643.1406 538.8594 642.9375Q538.3906 642.71875 538.15625 642.40625Q537.9219 642.0781 537.8281 641.6094Q537.7656 641.3125 537.7656 640.625L537.7656 636.78125L538.8281 636.78125L538.8281 640.2344Q538.8281 641.0469 538.8906 641.34375Q538.9844 641.75 539.2969 642.0Q539.625 642.2344 540.1094 642.2344Q540.5781 642.2344 540.9844 642.0Q541.40625 641.75 541.5781 641.3281Q541.7656 640.90625 541.7656 640.1094L541.7656 636.78125L542.8125 636.78125L542.8125 643.0L541.875 643.0ZM549.0469 641.0L550.1406 641.125Q549.8906 642.0781 549.1875 642.6094Q548.4844 643.1406 547.40625 643.1406Q546.0469 643.1406 545.2344 642.2969Q544.4375 641.4531 544.4375 639.9375Q544.4375 638.375 545.25 637.5156Q546.0625 636.6406 547.34375 636.6406Q548.59375 636.6406 549.375 637.4844Q550.1719 638.3281 550.1719 639.875Q550.1719 639.96875 550.1719 640.15625L545.53125 640.15625Q545.59375 641.1875 546.1094 641.7344Q546.625 642.2656 547.40625 642.2656Q547.9844 642.2656 548.3906 641.96875Q548.8125 641.65625 549.0469 641.0ZM545.59375 639.2969L549.0625 639.2969Q549.0 638.5 548.6719 638.1094Q548.15625 637.5 547.3594 637.5Q546.625 637.5 546.125 637.9844Q545.6406 638.46875 545.59375 639.2969ZM551.7969 643.0L551.7969 636.78125L552.7344 636.78125L552.7344 637.65625Q553.4219 636.6406 554.71875 636.6406Q555.28125 636.6406 555.75 636.84375Q556.2344 637.0469 556.46875 637.375Q556.7031 637.7031 556.7969 638.1406Q556.84375 638.4375 556.84375 639.1719L556.84375 643.0L555.7969 643.0L555.7969 639.21875Q555.7969 638.5625 555.6719 638.25Q555.5469 637.9375 555.2344 637.75Q554.9219 637.5469 554.5 637.5469Q553.8281 637.5469 553.3281 637.9844Q552.84375 638.40625 552.84375 639.59375L552.84375 643.0L551.7969 643.0ZM562.8594 640.71875L563.8906 640.8594Q563.71875 641.9219 563.0156 642.53125Q562.3125 643.1406 561.2969 643.1406Q560.0156 643.1406 559.2344 642.3125Q558.46875 641.46875 558.46875 639.90625Q558.46875 638.90625 558.7969 638.15625Q559.1406 637.3906 559.8125 637.0156Q560.5 636.6406 561.3125 636.6406Q562.3125 636.6406 562.9531 637.15625Q563.6094 637.65625 563.7969 638.6094L562.7656 638.7656Q562.625 638.1406 562.25 637.8281Q561.875 637.5 561.34375 637.5Q560.5469 637.5 560.0469 638.0781Q559.5469 638.6406 559.5469 639.875Q559.5469 641.1406 560.03125 641.7031Q560.5156 642.2656 561.28125 642.2656Q561.90625 642.2656 562.3125 641.8906Q562.7344 641.5156 562.8594 640.71875ZM569.0469 641.0L570.1406 641.125Q569.8906 642.0781 569.1875 642.6094Q568.4844 643.1406 567.40625 643.1406Q566.0469 643.1406 565.2344 642.2969Q564.4375 641.4531 564.4375 639.9375Q564.4375 638.375 565.25 637.5156Q566.0625 636.6406 567.34375 636.6406Q568.59375 636.6406 569.375 637.4844Q570.1719 638.3281 570.1719 639.875Q570.1719 639.96875 570.1719 640.15625L565.53125 640.15625Q565.59375 641.1875 566.1094 641.7344Q566.625 642.2656 567.40625 642.2656Q567.9844 642.2656 568.3906 641.96875Q568.8125 641.65625 569.0469 641.0ZM565.59375 639.2969L569.0625 639.2969Q569.0 638.5 568.6719 638.1094Q568.15625 637.5 567.3594 637.5Q566.625 637.5 566.125 637.9844Q565.6406 638.46875 565.59375 639.2969ZM574.875 643.0L574.875 634.40625L576.0156 634.40625L576.0156 641.9844L580.25 641.9844L580.25 643.0L574.875 643.0ZM586.0469 641.0L587.1406 641.125Q586.8906 642.0781 586.1875 642.6094Q585.4844 643.1406 584.40625 643.1406Q583.0469 643.1406 582.2344 642.2969Q581.4375 641.4531 581.4375 639.9375Q581.4375 638.375 582.25 637.5156Q583.0625 636.6406 584.34375 636.6406Q585.59375 636.6406 586.375 637.4844Q587.1719 638.3281 587.1719 639.875Q587.1719 639.96875 587.1719 640.15625L582.53125 640.15625Q582.59375 641.1875 583.1094 641.7344Q583.625 642.2656 584.40625 642.2656Q584.9844 642.2656 585.3906 641.96875Q585.8125 641.65625 586.0469 641.0ZM582.59375 639.2969L586.0625 639.2969Q586.0 638.5 585.6719 638.1094Q585.15625 637.5 584.3594 637.5Q583.625 637.5 583.125 637.9844Q582.6406 638.46875 582.59375 639.2969ZM588.7969 643.0L588.7969 636.78125L589.7344 636.78125L589.7344 637.65625Q590.4219 636.6406 591.71875 636.6406Q592.28125 636.6406 592.75 636.84375Q593.2344 637.0469 593.46875 637.375Q593.7031 637.7031 593.7969 638.1406Q593.84375 638.4375 593.84375 639.1719L593.84375 643.0L592.7969 643.0L592.7969 639.21875Q592.7969 638.5625 592.6719 638.25Q592.5469 637.9375 592.2344 637.75Q591.9219 637.5469 591.5 637.5469Q590.8281 637.5469 590.3281 637.9844Q589.84375 638.40625 589.84375 639.59375L589.84375 643.0L588.7969 643.0ZM595.59375 643.5156L596.625 643.6719Q596.6875 644.1406 596.9844 644.3594Q597.375 644.65625 598.0469 644.65625Q598.78125 644.65625 599.1719 644.3594Q599.5781 644.0625 599.71875 643.5469Q599.8125 643.21875 599.7969 642.1875Q599.1094 643.0 598.0781 643.0Q596.7969 643.0 596.09375 642.0781Q595.3906 641.1406 595.3906 639.8594Q595.3906 638.96875 595.7031 638.21875Q596.03125 637.4531 596.6406 637.0469Q597.25 636.6406 598.0781 636.6406Q599.1875 636.6406 599.90625 637.53125L599.90625 636.78125L600.875 636.78125L600.875 642.15625Q600.875 643.6094 600.5781 644.21875Q600.28125 644.8281 599.6406 645.1719Q599.0 645.53125 598.0625 645.53125Q596.9531 645.53125 596.2656 645.03125Q595.5781 644.53125 595.59375 643.5156ZM596.46875 639.78125Q596.46875 641.0 596.9531 641.5625Q597.4375 642.125 598.1719 642.125Q598.90625 642.125 599.3906 641.5625Q599.8906 641.0 599.8906 639.8125Q599.8906 638.6719 599.375 638.09375Q598.875 637.5156 598.15625 637.5156Q597.4531 637.5156 596.9531 638.09375Q596.46875 638.65625 596.46875 639.78125ZM605.09375 642.0625L605.25 642.9844Q604.7969 643.0781 604.4531 643.0781Q603.875 643.0781 603.5625 642.90625Q603.25 642.71875 603.1094 642.4219Q602.9844 642.125 602.9844 641.1719L602.9844 637.59375L602.21875 637.59375L602.21875 636.78125L602.9844 636.78125L602.9844 635.2344L604.03125 634.6094L604.03125 636.78125L605.09375 636.78125L605.09375 637.59375L604.03125 637.59375L604.03125 641.2344Q604.03125 641.6875 604.0781 641.8125Q604.1406 641.9375 604.2656 642.0156Q604.3906 642.09375 604.625 642.09375Q604.8125 642.09375 605.09375 642.0625ZM605.7969 643.0L605.7969 634.40625L606.84375 634.40625L606.84375 637.4844Q607.5781 636.6406 608.7031 636.6406Q609.40625 636.6406 609.90625 636.9219Q610.4219 637.1875 610.6406 637.6719Q610.8594 638.1406 610.8594 639.0625L610.8594 643.0L609.8125 643.0L609.8125 639.0625Q609.8125 638.2656 609.46875 637.90625Q609.125 637.5469 608.5 637.5469Q608.03125 637.5469 607.6094 637.7969Q607.2031 638.03125 607.0156 638.4531Q606.84375 638.8594 606.84375 639.59375L606.84375 643.0L605.7969 643.0Z" fill-rule="nonzero"/><path fill="#000000" d="M41.65625 596.0156L42.671875 595.9219Q42.796875 596.6406 43.15625 596.96875Q43.53125 597.28125 44.09375 597.28125Q44.578125 597.28125 44.9375 597.0625Q45.3125 596.8281 45.546875 596.46875Q45.78125 596.09375 45.9375 595.46875Q46.09375 594.8281 46.09375 594.1719Q46.09375 594.09375 46.09375 593.9531Q45.78125 594.4531 45.234375 594.78125Q44.6875 595.09375 44.046875 595.09375Q42.96875 595.09375 42.234375 594.3281Q41.5 593.5469 41.5 592.28125Q41.5 590.96875 42.265625 590.1719Q43.046875 589.375 44.203125 589.375Q45.03125 589.375 45.71875 589.8281Q46.421875 590.28125 46.78125 591.125Q47.140625 591.9531 47.140625 593.53125Q47.140625 595.1719 46.78125 596.15625Q46.4375 597.125 45.71875 597.6406Q45.015625 598.1406 44.078125 598.1406Q43.0625 598.1406 42.421875 597.59375Q41.78125 597.03125 41.65625 596.0156ZM45.96875 592.21875Q45.96875 591.3125 45.484375 590.78125Q45.015625 590.25 44.328125 590.25Q43.625 590.25 43.09375 590.8281Q42.578125 591.3906 42.578125 592.3125Q42.578125 593.125 43.078125 593.6406Q43.578125 594.15625 44.296875 594.15625Q45.03125 594.15625 45.5 593.6406Q45.96875 593.125 45.96875 592.21875ZM48.5 593.7656Q48.5 592.2344 48.8125 591.3125Q49.125 590.375 49.734375 589.875Q50.359375 589.375 51.296875 589.375Q51.984375 589.375 52.5 589.65625Q53.03125 589.9375 53.375 590.46875Q53.71875 590.9844 53.90625 591.7344Q54.09375 592.4844 54.09375 593.7656Q54.09375 595.28125 53.78125 596.2031Q53.484375 597.125 52.859375 597.6406Q52.25 598.1406 51.296875 598.1406Q50.0625 598.1406 49.34375 597.25Q48.5 596.1875 48.5 593.7656ZM49.578125 593.7656Q49.578125 595.875 50.078125 596.5781Q50.578125 597.28125 51.296875 597.28125Q52.03125 597.28125 52.515625 596.5781Q53.015625 595.875 53.015625 593.7656Q53.015625 591.6406 52.515625 590.9531Q52.03125 590.25 51.28125 590.25Q50.5625 590.25 50.125 590.8594Q49.578125 591.6406 49.578125 593.7656Z" fill-rule="nonzero"/><path fill="#000000" d="M41.65625 468.68228L42.671875 468.58853Q42.796875 469.30728 43.15625 469.6354Q43.53125 469.9479 44.09375 469.9479Q44.578125 469.9479 44.9375 469.72916Q45.3125 469.49478 45.546875 469.1354Q45.78125 468.7604 45.9375 468.1354Q46.09375 467.49478 46.09375 466.83853Q46.09375 466.7604 46.09375 466.61978Q45.78125 467.11978 45.234375 467.4479Q44.6875 467.7604 44.046875 467.7604Q42.96875 467.7604 42.234375 466.99478Q41.5 466.21353 41.5 464.9479Q41.5 463.6354 42.265625 462.83853Q43.046875 462.04166 44.203125 462.04166Q45.03125 462.04166 45.71875 462.49478Q46.421875 462.9479 46.78125 463.79166Q47.140625 464.61978 47.140625 466.1979Q47.140625 467.83853 46.78125 468.8229Q46.4375 469.79166 45.71875 470.30728Q45.015625 470.80728 44.078125 470.80728Q43.0625 470.80728 42.421875 470.2604Q41.78125 469.6979 41.65625 468.68228ZM45.96875 464.8854Q45.96875 463.97916 45.484375 463.4479Q45.015625 462.91666 44.328125 462.91666Q43.625 462.91666 43.09375 463.49478Q42.578125 464.05728 42.578125 464.97916Q42.578125 465.79166 43.078125 466.30728Q43.578125 466.8229 44.296875 466.8229Q45.03125 466.8229 45.5 466.30728Q45.96875 465.79166 45.96875 464.8854ZM48.5 468.41666L49.609375 468.3229Q49.734375 469.1354 50.171875 469.54166Q50.625 469.9479 51.265625 469.9479Q52.015625 469.9479 52.546875 469.36978Q53.078125 468.79166 53.078125 467.85416Q53.078125 466.9479 52.5625 466.43228Q52.0625 465.90103 51.234375 465.90103Q50.734375 465.90103 50.3125 466.1354Q49.90625 466.36978 49.671875 466.72916L48.6875 466.60416L49.515625 462.1979L53.796875 462.1979L53.796875 463.1979L50.359375 463.1979L49.90625 465.5104Q50.671875 464.96353 51.515625 464.96353Q52.640625 464.96353 53.40625 465.74478Q54.1875 466.52603 54.1875 467.7604Q54.1875 468.91666 53.515625 469.77603Q52.6875 470.80728 51.265625 470.80728Q50.09375 470.80728 49.34375 470.15103Q48.609375 469.49478 48.5 468.41666Z" fill-rule="nonzero"/><path fill="#000000" d="M38.46875 343.33334L37.421875 343.33334L37.421875 336.6146Q37.03125 336.97397 36.40625 337.34897Q35.796875 337.70834 35.3125 337.88022L35.3125 336.8646Q36.1875 336.44272 36.84375 335.8646Q37.515625 335.27084 37.796875 334.70834L38.46875 334.70834L38.46875 343.33334ZM41.5 339.09897Q41.5 337.56772 41.8125 336.64584Q42.125 335.70834 42.734375 335.20834Q43.359375 334.70834 44.296875 334.70834Q44.984375 334.70834 45.5 334.9896Q46.03125 335.27084 46.375 335.8021Q46.71875 336.31772 46.90625 337.06772Q47.09375 337.81772 47.09375 339.09897Q47.09375 340.6146 46.78125 341.53647Q46.484375 342.45834 45.859375 342.97397Q45.25 343.47397 44.296875 343.47397Q43.0625 343.47397 42.34375 342.58334Q41.5 341.52084 41.5 339.09897ZM42.578125 339.09897Q42.578125 341.20834 43.078125 341.91147Q43.578125 342.6146 44.296875 342.6146Q45.03125 342.6146 45.515625 341.91147Q46.015625 341.20834 46.015625 339.09897Q46.015625 336.97397 45.515625 336.28647Q45.03125 335.58334 44.28125 335.58334Q43.5625 335.58334 43.125 336.19272Q42.578125 336.97397 42.578125 339.09897ZM48.5 339.09897Q48.5 337.56772 48.8125 336.64584Q49.125 335.70834 49.734375 335.20834Q50.359375 334.70834 51.296875 334.70834Q51.984375 334.70834 52.5 334.9896Q53.03125 335.27084 53.375 335.8021Q53.71875 336.31772 53.90625 337.06772Q54.09375 337.81772 54.09375 339.09897Q54.09375 340.6146 53.78125 341.53647Q53.484375 342.45834 52.859375 342.97397Q52.25 343.47397 51.296875 343.47397Q50.0625 343.47397 49.34375 342.58334Q48.5 341.52084 48.5 339.09897ZM49.578125 339.09897Q49.578125 341.20834 50.078125 341.91147Q50.578125 342.6146 51.296875 342.6146Q52.03125 342.6146 52.515625 341.91147Q53.015625 341.20834 53.015625 339.09897Q53.015625 336.97397 52.515625 336.28647Q52.03125 335.58334 51.28125 335.58334Q50.5625 335.58334 50.125 336.19272Q49.578125 336.97397 49.578125 339.09897Z" fill-rule="nonzero"/><path fill="#000000" d="M38.46875 216.0L37.421875 216.0L37.421875 209.28125Q37.03125 209.64062 36.40625 210.01562Q35.796875 210.375 35.3125 210.54688L35.3125 209.53125Q36.1875 209.10938 36.84375 208.53125Q37.515625 207.9375 37.796875 207.375L38.46875 207.375L38.46875 216.0ZM41.5 211.76562Q41.5 210.23438 41.8125 209.3125Q42.125 208.375 42.734375 207.875Q43.359375 207.375 44.296875 207.375Q44.984375 207.375 45.5 207.65625Q46.03125 207.9375 46.375 208.46875Q46.71875 208.98438 46.90625 209.73438Q47.09375 210.48438 47.09375 211.76562Q47.09375 213.28125 46.78125 214.20312Q46.484375 215.125 45.859375 215.64062Q45.25 216.14062 44.296875 216.14062Q43.0625 216.14062 42.34375 215.25Q41.5 214.1875 41.5 211.76562ZM42.578125 211.76562Q42.578125 213.875 43.078125 214.57812Q43.578125 215.28125 44.296875 215.28125Q45.03125 215.28125 45.515625 214.57812Q46.015625 213.875 46.015625 211.76562Q46.015625 209.64062 45.515625 208.95312Q45.03125 208.25 44.28125 208.25Q43.5625 208.25 43.125 208.85938Q42.578125 209.64062 42.578125 211.76562ZM48.5 213.75L49.609375 213.65625Q49.734375 214.46875 50.171875 214.875Q50.625 215.28125 51.265625 215.28125Q52.015625 215.28125 52.546875 214.70312Q53.078125 214.125 53.078125 213.1875Q53.078125 212.28125 52.5625 211.76562Q52.0625 211.23438 51.234375 211.23438Q50.734375 211.23438 50.3125 211.46875Q49.90625 211.70312 49.671875 212.0625L48.6875 211.9375L49.515625 207.53125L53.796875 207.53125L53.796875 208.53125L50.359375 208.53125L49.90625 210.84375Q50.671875 210.29688 51.515625 210.29688Q52.640625 210.29688 53.40625 211.07812Q54.1875 211.85938 54.1875 213.09375Q54.1875 214.25 53.515625 215.10938Q52.6875 216.14062 51.265625 216.14062Q50.09375 216.14062 49.34375 215.48438Q48.609375 214.82812 48.5 213.75Z" fill-rule="nonzero"/><path fill="#000000" d="M38.46875 88.666664L37.421875 88.666664L37.421875 81.947914Q37.03125 82.30729 36.40625 82.68229Q35.796875 83.041664 35.3125 83.21354L35.3125 82.197914Q36.1875 81.77604 36.84375 81.197914Q37.515625 80.604164 37.796875 80.041664L38.46875 80.041664L38.46875 88.666664ZM45.46875 88.666664L44.421875 88.666664L44.421875 81.947914Q44.03125 82.30729 43.40625 82.68229Q42.796875 83.041664 42.3125 83.21354L42.3125 82.197914Q43.1875 81.77604 43.84375 81.197914Q44.515625 80.604164 44.796875 80.041664L45.46875 80.041664L45.46875 88.666664ZM48.5 84.43229Q48.5 82.90104 48.8125 81.979164Q49.125 81.041664 49.734375 80.541664Q50.359375 80.041664 51.296875 80.041664Q51.984375 80.041664 52.5 80.322914Q53.03125 80.604164 53.375 81.135414Q53.71875 81.65104 53.90625 82.40104Q54.09375 83.15104 54.09375 84.43229Q54.09375 85.947914 53.78125 86.86979Q53.484375 87.791664 52.859375 88.30729Q52.25 88.80729 51.296875 88.80729Q50.0625 88.80729 49.34375 87.916664Q48.5 86.854164 48.5 84.43229ZM49.578125 84.43229Q49.578125 86.541664 50.078125 87.24479Q50.578125 87.947914 51.296875 87.947914Q52.03125 87.947914 52.515625 87.24479Q53.015625 86.541664 53.015625 84.43229Q53.015625 82.30729 52.515625 81.61979Q52.03125 80.916664 51.28125 80.916664Q50.5625 80.916664 50.125 81.52604Q49.578125 82.30729 49.578125 84.43229Z" fill-rule="nonzero"/><path fill="#000000" d="M224.99968 611.0L223.9528 611.0L223.9528 604.28125Q223.56218 604.6406 222.93718 605.0156Q222.3278 605.375 221.84343 605.5469L221.84343 604.53125Q222.71843 604.1094 223.37468 603.53125Q224.04655 602.9375 224.3278 602.375L224.99968 602.375L224.99968 611.0ZM228.03093 606.7656Q228.03093 605.2344 228.34343 604.3125Q228.65593 603.375 229.2653 602.875Q229.8903 602.375 230.8278 602.375Q231.5153 602.375 232.03093 602.65625Q232.56218 602.9375 232.90593 603.46875Q233.24968 603.9844 233.43718 604.7344Q233.62468 605.4844 233.62468 606.7656Q233.62468 608.28125 233.31218 609.2031Q233.0153 610.125 232.3903 610.6406Q231.78093 611.1406 230.8278 611.1406Q229.59343 611.1406 228.87468 610.25Q228.03093 609.1875 228.03093 606.7656ZM229.10905 606.7656Q229.10905 608.875 229.60905 609.5781Q230.10905 610.28125 230.8278 610.28125Q231.56218 610.28125 232.04655 609.5781Q232.54655 608.875 232.54655 606.7656Q232.54655 604.6406 232.04655 603.9531Q231.56218 603.25 230.81218 603.25Q230.09343 603.25 229.65593 603.8594Q229.10905 604.6406 229.10905 606.7656ZM235.03093 606.7656Q235.03093 605.2344 235.34343 604.3125Q235.65593 603.375 236.2653 602.875Q236.8903 602.375 237.8278 602.375Q238.5153 602.375 239.03093 602.65625Q239.56218 602.9375 239.90593 603.46875Q240.24968 603.9844 240.43718 604.7344Q240.62468 605.4844 240.62468 606.7656Q240.62468 608.28125 240.31218 609.2031Q240.0153 610.125 239.3903 610.6406Q238.78093 611.1406 237.8278 611.1406Q236.59343 611.1406 235.87468 610.25Q235.03093 609.1875 235.03093 606.7656ZM236.10905 606.7656Q236.10905 608.875 236.60905 609.5781Q237.10905 610.28125 237.8278 610.28125Q238.56218 610.28125 239.04655 609.5781Q239.54655 608.875 239.54655 606.7656Q239.54655 604.6406 239.04655 603.9531Q238.56218 603.25 237.81218 603.25Q237.09343 603.25 236.65593 603.8594Q236.10905 604.6406 236.10905 606.7656Z" fill-rule="nonzero"/><path fill="#000000" d="M426.86038 609.9844L426.86038 611.0L421.17288 611.0Q421.17288 610.625 421.29788 610.2656Q421.51663 609.6875 421.98538 609.125Q422.46976 608.5625 423.376 607.8281Q424.78226 606.6719 425.26663 606.0Q425.76663 605.3281 425.76663 604.7344Q425.76663 604.1094 425.3135 603.6875Q424.86038 603.25 424.14163 603.25Q423.376 603.25 422.92288 603.7031Q422.46976 604.15625 422.45413 604.96875L421.376 604.8594Q421.48538 603.6406 422.20413 603.0156Q422.9385 602.375 424.17288 602.375Q425.40726 602.375 426.126 603.0625Q426.84476 603.75 426.84476 604.7656Q426.84476 605.28125 426.626 605.78125Q426.42288 606.2656 425.92288 606.8281Q425.4385 607.375 424.3135 608.3281Q423.36038 609.125 423.07913 609.4219Q422.8135 609.7031 422.64163 609.9844L426.86038 609.9844ZM428.3135 606.7656Q428.3135 605.2344 428.626 604.3125Q428.9385 603.375 429.54788 602.875Q430.17288 602.375 431.11038 602.375Q431.79788 602.375 432.3135 602.65625Q432.84476 602.9375 433.1885 603.46875Q433.53226 603.9844 433.71976 604.7344Q433.90726 605.4844 433.90726 606.7656Q433.90726 608.28125 433.59476 609.2031Q433.29788 610.125 432.67288 610.6406Q432.0635 611.1406 431.11038 611.1406Q429.876 611.1406 429.15726 610.25Q428.3135 609.1875 428.3135 606.7656ZM429.39163 606.7656Q429.39163 608.875 429.89163 609.5781Q430.39163 610.28125 431.11038 610.28125Q431.84476 610.28125 432.32913 609.5781Q432.82913 608.875 432.82913 606.7656Q432.82913 604.6406 432.32913 603.9531Q431.84476 603.25 431.09476 603.25Q430.376 603.25 429.9385 603.8594Q429.39163 604.6406 429.39163 606.7656ZM435.3135 606.7656Q435.3135 605.2344 435.626 604.3125Q435.9385 603.375 436.54788 602.875Q437.17288 602.375 438.11038 602.375Q438.79788 602.375 439.3135 602.65625Q439.84476 602.9375 440.1885 603.46875Q440.53226 603.9844 440.71976 604.7344Q440.90726 605.4844 440.90726 606.7656Q440.90726 608.28125 440.59476 609.2031Q440.29788 610.125 439.67288 610.6406Q439.0635 611.1406 438.11038 611.1406Q436.876 611.1406 436.15726 610.25Q435.3135 609.1875 435.3135 606.7656ZM436.39163 606.7656Q436.39163 608.875 436.89163 609.5781Q437.39163 610.28125 438.11038 610.28125Q438.84476 610.28125 439.32913 609.5781Q439.82913 608.875 439.82913 606.7656Q439.82913 604.6406 439.32913 603.9531Q438.84476 603.25 438.09476 603.25Q437.376 603.25 436.9385 603.8594Q436.39163 604.6406 436.39163 606.7656Z" fill-rule="nonzero"/><path fill="#000000" d="M621.59607 608.7344L622.65857 608.59375Q622.83044 609.4844 623.26794 609.8906Q623.70544 610.28125 624.33044 610.28125Q625.08044 610.28125 625.59607 609.7656Q626.1117 609.25 626.1117 608.4844Q626.1117 607.7656 625.6273 607.2969Q625.15857 606.8125 624.4242 606.8125Q624.1273 606.8125 623.6742 606.9375L623.7992 606.0Q623.90857 606.0156 623.97107 606.0156Q624.64294 606.0156 625.1742 605.6719Q625.72107 605.3125 625.72107 604.5781Q625.72107 604.0 625.33044 603.625Q624.9398 603.2344 624.3148 603.2344Q623.70544 603.2344 623.28357 603.625Q622.8773 604.0156 622.76794 604.78125L621.70544 604.59375Q621.89294 603.5469 622.58044 602.96875Q623.26794 602.375 624.28357 602.375Q624.9867 602.375 625.58044 602.6875Q626.1742 602.9844 626.4867 603.5Q626.7992 604.0156 626.7992 604.6094Q626.7992 605.15625 626.5023 605.625Q626.20544 606.0781 625.6273 606.34375Q626.3773 606.5156 626.7992 607.0781Q627.22107 607.625 627.22107 608.46875Q627.22107 609.59375 626.39294 610.375Q625.58044 611.15625 624.33044 611.15625Q623.20544 611.15625 622.45544 610.4844Q621.70544 609.7969 621.59607 608.7344ZM628.59607 606.7656Q628.59607 605.2344 628.90857 604.3125Q629.22107 603.375 629.83044 602.875Q630.45544 602.375 631.39294 602.375Q632.08044 602.375 632.59607 602.65625Q633.1273 602.9375 633.47107 603.46875Q633.8148 603.9844 634.0023 604.7344Q634.1898 605.4844 634.1898 606.7656Q634.1898 608.28125 633.8773 609.2031Q633.58044 610.125 632.95544 610.6406Q632.34607 611.1406 631.39294 611.1406Q630.15857 611.1406 629.4398 610.25Q628.59607 609.1875 628.59607 606.7656ZM629.6742 606.7656Q629.6742 608.875 630.1742 609.5781Q630.6742 610.28125 631.39294 610.28125Q632.1273 610.28125 632.6117 609.5781Q633.1117 608.875 633.1117 606.7656Q633.1117 604.6406 632.6117 603.9531Q632.1273 603.25 631.3773 603.25Q630.65857 603.25 630.22107 603.8594Q629.6742 604.6406 629.6742 606.7656ZM635.59607 606.7656Q635.59607 605.2344 635.90857 604.3125Q636.22107 603.375 636.83044 602.875Q637.45544 602.375 638.39294 602.375Q639.08044 602.375 639.59607 602.65625Q640.1273 602.9375 640.47107 603.46875Q640.8148 603.9844 641.0023 604.7344Q641.1898 605.4844 641.1898 606.7656Q641.1898 608.28125 640.8773 609.2031Q640.58044 610.125 639.95544 610.6406Q639.34607 611.1406 638.39294 611.1406Q637.15857 611.1406 636.4398 610.25Q635.59607 609.1875 635.59607 606.7656ZM636.6742 606.7656Q636.6742 608.875 637.1742 609.5781Q637.6742 610.28125 638.39294 610.28125Q639.1273 610.28125 639.6117 609.5781Q640.1117 608.875 640.1117 606.7656Q640.1117 604.6406 639.6117 603.9531Q639.1273 603.25 638.3773 603.25Q637.65857 603.25 637.22107 603.8594Q636.6742 604.6406 636.6742 606.7656Z" fill-rule="nonzero"/><path fill="#000000" d="M825.25366 611.0L825.25366 608.9375L821.5349 608.9375L821.5349 607.96875L825.4568 602.40625L826.31616 602.40625L826.31616 607.96875L827.4724 607.96875L827.4724 608.9375L826.31616 608.9375L826.31616 611.0L825.25366 611.0ZM825.25366 607.96875L825.25366 604.1094L822.56616 607.96875L825.25366 607.96875ZM828.87866 606.7656Q828.87866 605.2344 829.19116 604.3125Q829.50366 603.375 830.11304 602.875Q830.73804 602.375 831.67554 602.375Q832.36304 602.375 832.87866 602.65625Q833.4099 602.9375 833.75366 603.46875Q834.0974 603.9844 834.2849 604.7344Q834.4724 605.4844 834.4724 606.7656Q834.4724 608.28125 834.1599 609.2031Q833.86304 610.125 833.23804 610.6406Q832.62866 611.1406 831.67554 611.1406Q830.44116 611.1406 829.7224 610.25Q828.87866 609.1875 828.87866 606.7656ZM829.9568 606.7656Q829.9568 608.875 830.4568 609.5781Q830.9568 610.28125 831.67554 610.28125Q832.4099 610.28125 832.8943 609.5781Q833.3943 608.875 833.3943 606.7656Q833.3943 604.6406 832.8943 603.9531Q832.4099 603.25 831.6599 603.25Q830.94116 603.25 830.50366 603.8594Q829.9568 604.6406 829.9568 606.7656ZM835.87866 606.7656Q835.87866 605.2344 836.19116 604.3125Q836.50366 603.375 837.11304 602.875Q837.73804 602.375 838.67554 602.375Q839.36304 602.375 839.87866 602.65625Q840.4099 602.9375 840.75366 603.46875Q841.0974 603.9844 841.2849 604.7344Q841.4724 605.4844 841.4724 606.7656Q841.4724 608.28125 841.1599 609.2031Q840.86304 610.125 840.23804 610.6406Q839.62866 611.1406 838.67554 611.1406Q837.44116 611.1406 836.7224 610.25Q835.87866 609.1875 835.87866 606.7656ZM836.9568 606.7656Q836.9568 608.875 837.4568 609.5781Q837.9568 610.28125 838.67554 610.28125Q839.4099 610.28125 839.8943 609.5781Q840.3943 608.875 840.3943 606.7656Q840.3943 604.6406 839.8943 603.9531Q839.4099 603.25 838.6599 603.25Q837.94116 603.25 837.50366 603.8594Q836.9568 604.6406 836.9568 606.7656Z" fill-rule="nonzero"/><path fill="#000000" d="M1022.1612 608.75L1023.27057 608.65625Q1023.39557 609.46875 1023.83307 609.875Q1024.2861 610.28125 1024.9268 610.28125Q1025.6768 610.28125 1026.208 609.7031Q1026.7393 609.125 1026.7393 608.1875Q1026.7393 607.28125 1026.2236 606.7656Q1025.7236 606.2344 1024.8955 606.2344Q1024.3955 606.2344 1023.9737 606.46875Q1023.56744 606.7031 1023.33307 607.0625L1022.3487 606.9375L1023.1768 602.53125L1027.458 602.53125L1027.458 603.53125L1024.0205 603.53125L1023.56744 605.84375Q1024.333 605.2969 1025.1768 605.2969Q1026.3018 605.2969 1027.0674 606.0781Q1027.8486 606.8594 1027.8486 608.09375Q1027.8486 609.25 1027.1768 610.1094Q1026.3486 611.1406 1024.9268 611.1406Q1023.75494 611.1406 1023.00494 610.4844Q1022.27057 609.8281 1022.1612 608.75ZM1029.1611 606.7656Q1029.1611 605.2344 1029.4736 604.3125Q1029.7861 603.375 1030.3955 602.875Q1031.0205 602.375 1031.958 602.375Q1032.6455 602.375 1033.1611 602.65625Q1033.6924 602.9375 1034.0361 603.46875Q1034.3799 603.9844 1034.5674 604.7344Q1034.7549 605.4844 1034.7549 606.7656Q1034.7549 608.28125 1034.4424 609.2031Q1034.1455 610.125 1033.5205 610.6406Q1032.9111 611.1406 1031.958 611.1406Q1030.7236 611.1406 1030.0049 610.25Q1029.1611 609.1875 1029.1611 606.7656ZM1030.2393 606.7656Q1030.2393 608.875 1030.7393 609.5781Q1031.2393 610.28125 1031.958 610.28125Q1032.6924 610.28125 1033.1768 609.5781Q1033.6768 608.875 1033.6768 606.7656Q1033.6768 604.6406 1033.1768 603.9531Q1032.6924 603.25 1031.9424 603.25Q1031.2236 603.25 1030.7861 603.8594Q1030.2393 604.6406 1030.2393 606.7656ZM1036.1611 606.7656Q1036.1611 605.2344 1036.4736 604.3125Q1036.7861 603.375 1037.3955 602.875Q1038.0205 602.375 1038.958 602.375Q1039.6455 602.375 1040.1611 602.65625Q1040.6924 602.9375 1041.0361 603.46875Q1041.3799 603.9844 1041.5674 604.7344Q1041.7549 605.4844 1041.7549 606.7656Q1041.7549 608.28125 1041.4424 609.2031Q1041.1455 610.125 1040.5205 610.6406Q1039.9111 611.1406 1038.958 611.1406Q1037.7236 611.1406 1037.0049 610.25Q1036.1611 609.1875 1036.1611 606.7656ZM1037.2393 606.7656Q1037.2393 608.875 1037.7393 609.5781Q1038.2393 610.28125 1038.958 610.28125Q1039.6924 610.28125 1040.1768 609.5781Q1040.6768 608.875 1040.6768 606.7656Q1040.6768 604.6406 1040.1768 603.9531Q1039.6924 603.25 1038.9424 603.25Q1038.2236 603.25 1037.7861 603.8594Q1037.2393 604.6406 1037.2393 606.7656Z" fill-rule="nonzero"/><path fill="#757575" d="M72.671875 51.0L72.671875 38.109375L74.390625 38.109375L74.390625 51.0L72.671875 51.0ZM76.1875 51.0L76.1875 41.671875L77.609375 41.671875L77.609375 43.0Q78.640625 41.453125 80.578125 41.453125Q81.421875 41.453125 82.125 41.765625Q82.84375 42.0625 83.1875 42.5625Q83.546875 43.046875 83.6875 43.71875Q83.765625 44.15625 83.765625 45.265625L83.765625 51.0L82.1875 51.0L82.1875 45.328125Q82.1875 44.359375 82.0 43.875Q81.828125 43.390625 81.34375 43.109375Q80.875 42.828125 80.25 42.828125Q79.234375 42.828125 78.5 43.46875Q77.765625 44.109375 77.765625 45.90625L77.765625 51.0L76.1875 51.0ZM89.640625 49.578125L89.875 50.984375Q89.203125 51.125 88.671875 51.125Q87.8125 51.125 87.328125 50.859375Q86.859375 50.578125 86.671875 50.140625Q86.484375 49.6875 86.484375 48.265625L86.484375 42.890625L85.3125 42.890625L85.3125 41.671875L86.484375 41.671875L86.484375 39.359375L88.046875 38.40625L88.046875 41.671875L89.640625 41.671875L89.640625 42.890625L88.046875 42.890625L88.046875 48.359375Q88.046875 49.03125 88.125 49.234375Q88.21875 49.421875 88.40625 49.53125Q88.59375 49.640625 88.953125 49.640625Q89.203125 49.640625 89.640625 49.578125ZM97.578125 48.0L99.21875 48.203125Q98.828125 49.625 97.78125 50.421875Q96.734375 51.21875 95.109375 51.21875Q93.0625 51.21875 91.859375 49.953125Q90.65625 48.6875 90.65625 46.40625Q90.65625 44.0625 91.859375 42.765625Q93.078125 41.453125 95.015625 41.453125Q96.890625 41.453125 98.078125 42.734375Q99.265625 44.0 99.265625 46.3125Q99.265625 46.453125 99.25 46.734375L92.296875 46.734375Q92.375 48.28125 93.15625 49.09375Q93.953125 49.90625 95.109375 49.90625Q95.984375 49.90625 96.59375 49.453125Q97.21875 49.0 97.578125 48.0ZM92.375 45.4375L97.59375 45.4375Q97.484375 44.265625 97.0 43.671875Q96.234375 42.75 95.03125 42.75Q93.953125 42.75 93.203125 43.484375Q92.46875 44.21875 92.375 45.4375ZM101.15625 51.0L101.15625 38.109375L102.734375 38.109375L102.734375 51.0L101.15625 51.0ZM110.671875 51.0L110.671875 38.109375L112.390625 38.109375L112.390625 51.0L110.671875 51.0ZM120.28125 47.578125L121.828125 47.78125Q121.578125 49.390625 120.53125 50.3125Q119.484375 51.21875 117.953125 51.21875Q116.03125 51.21875 114.859375 49.96875Q113.703125 48.703125 113.703125 46.375Q113.703125 44.859375 114.203125 43.734375Q114.703125 42.59375 115.71875 42.03125Q116.75 41.453125 117.953125 41.453125Q119.484375 41.453125 120.4375 42.234375Q121.40625 43.0 121.6875 44.40625L120.140625 44.640625Q119.921875 43.703125 119.359375 43.234375Q118.8125 42.75 118.015625 42.75Q116.828125 42.75 116.078125 43.609375Q115.328125 44.46875 115.328125 46.328125Q115.328125 48.203125 116.046875 49.0625Q116.765625 49.90625 117.9375 49.90625Q118.859375 49.90625 119.484375 49.34375Q120.109375 48.765625 120.28125 47.578125ZM129.57812 48.0L131.21875 48.203125Q130.82812 49.625 129.78125 50.421875Q128.73438 51.21875 127.109375 51.21875Q125.0625 51.21875 123.859375 49.953125Q122.65625 48.6875 122.65625 46.40625Q122.65625 44.0625 123.859375 42.765625Q125.078125 41.453125 127.015625 41.453125Q128.89062 41.453125 130.07812 42.734375Q131.26562 44.0 131.26562 46.3125Q131.26562 46.453125 131.25 46.734375L124.296875 46.734375Q124.375 48.28125 125.15625 49.09375Q125.953125 49.90625 127.109375 49.90625Q127.984375 49.90625 128.59375 49.453125Q129.21875 49.0 129.57812 48.0ZM124.375 45.4375L129.59375 45.4375Q129.48438 44.265625 129.0 43.671875Q128.23438 42.75 127.03125 42.75Q125.953125 42.75 125.203125 43.484375Q124.46875 44.21875 124.375 45.4375ZM138.15625 51.0L138.15625 38.109375L139.73438 38.109375L139.73438 51.0L138.15625 51.0ZM148.28125 49.84375Q147.40625 50.59375 146.57812 50.90625Q145.76562 51.21875 144.84375 51.21875Q143.29688 51.21875 142.46875 50.46875Q141.65625 49.703125 141.65625 48.53125Q141.65625 47.859375 141.96875 47.296875Q142.28125 46.71875 142.78125 46.375Q143.28125 46.03125 143.92188 45.859375Q144.39062 45.734375 145.32812 45.625Q147.23438 45.390625 148.14062 45.078125Q148.15625 44.75 148.15625 44.65625Q148.15625 43.703125 147.70312 43.296875Q147.09375 42.765625 145.90625 42.765625Q144.78125 42.765625 144.25 43.15625Q143.71875 43.546875 143.46875 44.546875L141.92188 44.328125Q142.14062 43.328125 142.60938 42.71875Q143.09375 42.109375 144.0 41.78125Q144.92188 41.453125 146.14062 41.453125Q147.32812 41.453125 148.07812 41.734375Q148.82812 42.015625 149.17188 42.453125Q149.53125 42.875 149.67188 43.515625Q149.75 43.921875 149.75 44.984375L149.75 47.09375Q149.75 49.296875 149.84375 49.890625Q149.95312 50.46875 150.25 51.0L148.59375 51.0Q148.34375 50.5 148.28125 49.84375ZM148.14062 46.3125Q147.28125 46.671875 145.5625 46.90625Q144.59375 47.046875 144.1875 47.234375Q143.78125 47.40625 143.5625 47.75Q143.34375 48.078125 143.34375 48.5Q143.34375 49.125 143.8125 49.546875Q144.29688 49.96875 145.21875 49.96875Q146.14062 49.96875 146.84375 49.578125Q147.5625 49.171875 147.89062 48.484375Q148.14062 47.9375 148.14062 46.890625L148.14062 46.3125ZM152.20312 51.0L152.20312 38.109375L153.78125 38.109375L153.78125 45.46875L157.51562 41.671875L159.5625 41.671875L156.0 45.125L159.9375 51.0L157.98438 51.0L154.89062 46.234375L153.78125 47.296875L153.78125 51.0L152.20312 51.0ZM167.57812 48.0L169.21875 48.203125Q168.82812 49.625 167.78125 50.421875Q166.73438 51.21875 165.10938 51.21875Q163.0625 51.21875 161.85938 49.953125Q160.65625 48.6875 160.65625 46.40625Q160.65625 44.0625 161.85938 42.765625Q163.07812 41.453125 165.01562 41.453125Q166.89062 41.453125 168.07812 42.734375Q169.26562 44.0 169.26562 46.3125Q169.26562 46.453125 169.25 46.734375L162.29688 46.734375Q162.375 48.28125 163.15625 49.09375Q163.95312 49.90625 165.10938 49.90625Q165.98438 49.90625 166.59375 49.453125Q167.21875 49.0 167.57812 48.0ZM162.375 45.4375L167.59375 45.4375Q167.48438 44.265625 167.0 43.671875Q166.23438 42.75 165.03125 42.75Q163.95312 42.75 163.20312 43.484375Q162.46875 44.21875 162.375 45.4375ZM175.07812 51.0L180.0625 44.28125L175.67188 38.109375L177.70312 38.109375L180.03125 41.421875Q180.76562 42.453125 181.07812 43.0Q181.5 42.296875 182.09375 41.53125L184.6875 38.109375L186.54688 38.109375L182.01562 44.1875L186.89062 51.0L184.78125 51.0L181.54688 46.40625Q181.26562 46.0 180.98438 45.546875Q180.54688 46.25 180.35938 46.515625L177.125 51.0L175.07812 51.0ZM193.57812 48.0L195.21875 48.203125Q194.82812 49.625 193.78125 50.421875Q192.73438 51.21875 191.10938 51.21875Q189.0625 51.21875 187.85938 49.953125Q186.65625 48.6875 186.65625 46.40625Q186.65625 44.0625 187.85938 42.765625Q189.07812 41.453125 191.01562 41.453125Q192.89062 41.453125 194.07812 42.734375Q195.26562 44.0 195.26562 46.3125Q195.26562 46.453125 195.25 46.734375L188.29688 46.734375Q188.375 48.28125 189.15625 49.09375Q189.95312 49.90625 191.10938 49.90625Q191.98438 49.90625 192.59375 49.453125Q193.21875 49.0 193.57812 48.0ZM188.375 45.4375L193.59375 45.4375Q193.48438 44.265625 193.0 43.671875Q192.23438 42.75 191.03125 42.75Q189.95312 42.75 189.20312 43.484375Q188.46875 44.21875 188.375 45.4375ZM196.59375 46.328125Q196.59375 43.734375 198.04688 42.484375Q199.25 41.453125 200.96875 41.453125Q202.90625 41.453125 204.125 42.71875Q205.34375 43.984375 205.34375 46.203125Q205.34375 48.0 204.79688 49.03125Q204.26562 50.0625 203.23438 50.640625Q202.20312 51.21875 200.96875 51.21875Q199.01562 51.21875 197.79688 49.96875Q196.59375 48.703125 196.59375 46.328125ZM198.21875 46.328125Q198.21875 48.125 199.0 49.015625Q199.78125 49.90625 200.96875 49.90625Q202.15625 49.90625 202.9375 49.015625Q203.71875 48.109375 203.71875 46.28125Q203.71875 44.546875 202.92188 43.65625Q202.14062 42.765625 200.96875 42.765625Q199.78125 42.765625 199.0 43.65625Q198.21875 44.546875 198.21875 46.328125ZM207.1875 51.0L207.1875 41.671875L208.60938 41.671875L208.60938 43.0Q209.64062 41.453125 211.57812 41.453125Q212.42188 41.453125 213.125 41.765625Q213.84375 42.0625 214.1875 42.5625Q214.54688 43.046875 214.6875 43.71875Q214.76562 44.15625 214.76562 45.265625L214.76562 51.0L213.1875 51.0L213.1875 45.328125Q213.1875 44.359375 213.0 43.875Q212.82812 43.390625 212.34375 43.109375Q211.875 42.828125 211.25 42.828125Q210.23438 42.828125 209.5 43.46875Q208.76562 44.109375 208.76562 45.90625L208.76562 51.0L207.1875 51.0ZM224.1875 44.015625Q223.20312 43.65625 222.71875 42.984375Q222.25 42.3125 222.25 41.390625Q222.25 39.984375 223.25 39.03125Q224.26562 38.0625 225.95312 38.0625Q227.64062 38.0625 228.65625 39.046875Q229.6875 40.015625 229.6875 41.421875Q229.6875 42.328125 229.21875 43.0Q228.75 43.65625 227.79688 44.015625Q228.98438 44.40625 229.59375 45.265625Q230.21875 46.125 230.21875 47.3125Q230.21875 48.96875 229.04688 50.09375Q227.875 51.21875 225.96875 51.21875Q224.0625 51.21875 222.89062 50.09375Q221.73438 48.953125 221.73438 47.265625Q221.73438 46.015625 222.35938 45.171875Q223.0 44.3125 224.1875 44.015625ZM223.85938 41.328125Q223.85938 42.25 224.45312 42.828125Q225.04688 43.40625 225.98438 43.40625Q226.89062 43.40625 227.46875 42.828125Q228.0625 42.25 228.0625 41.421875Q228.0625 40.546875 227.45312 39.953125Q226.85938 39.359375 225.96875 39.359375Q225.0625 39.359375 224.45312 39.9375Q223.85938 40.515625 223.85938 41.328125ZM223.35938 47.28125Q223.35938 47.953125 223.67188 48.59375Q224.0 49.21875 224.625 49.578125Q225.26562 49.921875 226.0 49.921875Q227.125 49.921875 227.85938 49.1875Q228.60938 48.453125 228.60938 47.328125Q228.60938 46.1875 227.84375 45.453125Q227.07812 44.703125 225.9375 44.703125Q224.82812 44.703125 224.09375 45.4375Q223.35938 46.171875 223.35938 47.28125ZM231.75 47.59375L233.34375 47.390625Q233.60938 48.734375 234.26562 49.328125Q234.92188 49.921875 235.85938 49.921875Q236.98438 49.921875 237.75 49.15625Q238.51562 48.375 238.51562 47.234375Q238.51562 46.140625 237.79688 45.4375Q237.09375 44.71875 236.0 44.71875Q235.54688 44.71875 234.875 44.90625L235.04688 43.515625Q235.20312 43.53125 235.3125 43.53125Q236.3125 43.53125 237.125 43.0Q237.9375 42.46875 237.9375 41.375Q237.9375 40.5 237.34375 39.9375Q236.75 39.359375 235.82812 39.359375Q234.90625 39.359375 234.28125 39.9375Q233.67188 40.515625 233.5 41.6875L231.92188 41.40625Q232.20312 39.8125 233.23438 38.9375Q234.26562 38.0625 235.79688 38.0625Q236.84375 38.0625 237.73438 38.515625Q238.625 38.96875 239.09375 39.75Q239.5625 40.53125 239.5625 41.40625Q239.5625 42.25 239.10938 42.9375Q238.67188 43.609375 237.78125 44.015625Q238.92188 44.28125 239.54688 45.125Q240.1875 45.953125 240.1875 47.1875Q240.1875 48.875 238.95312 50.0625Q237.73438 51.234375 235.85938 51.234375Q234.15625 51.234375 233.03125 50.21875Q231.92188 49.203125 231.75 47.59375ZM244.1875 44.015625Q243.20312 43.65625 242.71875 42.984375Q242.25 42.3125 242.25 41.390625Q242.25 39.984375 243.25 39.03125Q244.26562 38.0625 245.95312 38.0625Q247.64062 38.0625 248.65625 39.046875Q249.6875 40.015625 249.6875 41.421875Q249.6875 42.328125 249.21875 43.0Q248.75 43.65625 247.79688 44.015625Q248.98438 44.40625 249.59375 45.265625Q250.21875 46.125 250.21875 47.3125Q250.21875 48.96875 249.04688 50.09375Q247.875 51.21875 245.96875 51.21875Q244.0625 51.21875 242.89062 50.09375Q241.73438 48.953125 241.73438 47.265625Q241.73438 46.015625 242.35938 45.171875Q243.0 44.3125 244.1875 44.015625ZM243.85938 41.328125Q243.85938 42.25 244.45312 42.828125Q245.04688 43.40625 245.98438 43.40625Q246.89062 43.40625 247.46875 42.828125Q248.0625 42.25 248.0625 41.421875Q248.0625 40.546875 247.45312 39.953125Q246.85938 39.359375 245.96875 39.359375Q245.0625 39.359375 244.45312 39.9375Q243.85938 40.515625 243.85938 41.328125ZM243.35938 47.28125Q243.35938 47.953125 243.67188 48.59375Q244.0 49.21875 244.625 49.578125Q245.26562 49.921875 246.0 49.921875Q247.125 49.921875 247.85938 49.1875Q248.60938 48.453125 248.60938 47.328125Q248.60938 46.1875 247.84375 45.453125Q247.07812 44.703125 245.9375 44.703125Q244.82812 44.703125 244.09375 45.4375Q243.35938 46.171875 243.35938 47.28125ZM251.75 44.640625Q251.75 42.359375 252.21875 40.96875Q252.6875 39.578125 253.60938 38.828125Q254.54688 38.0625 255.95312 38.0625Q256.98438 38.0625 257.76562 38.484375Q258.54688 38.890625 259.04688 39.6875Q259.5625 40.46875 259.85938 41.609375Q260.15625 42.734375 260.15625 44.640625Q260.15625 46.90625 259.6875 48.3125Q259.21875 49.703125 258.28125 50.46875Q257.35938 51.21875 255.95312 51.21875Q254.07812 51.21875 253.01562 49.890625Q251.75 48.28125 251.75 44.640625ZM253.375 44.640625Q253.375 47.8125 254.10938 48.875Q254.85938 49.921875 255.95312 49.921875Q257.03125 49.921875 257.78125 48.875Q258.53125 47.8125 258.53125 44.640625Q258.53125 41.46875 257.78125 40.421875Q257.03125 39.375 255.9375 39.375Q254.84375 39.375 254.1875 40.296875Q253.375 41.46875 253.375 44.640625ZM266.57812 47.125L266.57812 45.546875L271.4375 45.546875L271.4375 47.125L266.57812 47.125ZM281.67188 51.0L281.67188 39.640625L277.42188 39.640625L277.42188 38.109375L287.64062 38.109375L287.64062 39.640625L283.375 39.640625L283.375 51.0L281.67188 51.0ZM289.59375 46.328125Q289.59375 43.734375 291.04688 42.484375Q292.25 41.453125 293.96875 41.453125Q295.90625 41.453125 297.125 42.71875Q298.34375 43.984375 298.34375 46.203125Q298.34375 48.0 297.79688 49.03125Q297.26562 50.0625 296.23438 50.640625Q295.20312 51.21875 293.96875 51.21875Q292.01562 51.21875 290.79688 49.96875Q289.59375 48.703125 289.59375 46.328125ZM291.21875 46.328125Q291.21875 48.125 292.0 49.015625Q292.78125 49.90625 293.96875 49.90625Q295.15625 49.90625 295.9375 49.015625Q296.71875 48.109375 296.71875 46.28125Q296.71875 44.546875 295.92188 43.65625Q295.14062 42.765625 293.96875 42.765625Q292.78125 42.765625 292.0 43.65625Q291.21875 44.546875 291.21875 46.328125ZM300.17188 51.0L300.17188 41.671875L301.59375 41.671875L301.59375 43.078125Q302.14062 42.09375 302.59375 41.78125Q303.0625 41.453125 303.60938 41.453125Q304.42188 41.453125 305.23438 41.96875L304.70312 43.4375Q304.10938 43.09375 303.53125 43.09375Q303.01562 43.09375 302.59375 43.40625Q302.1875 43.71875 302.01562 44.265625Q301.75 45.109375 301.75 46.109375L301.75 51.0L300.17188 51.0ZM312.28125 47.578125L313.82812 47.78125Q313.57812 49.390625 312.53125 50.3125Q311.48438 51.21875 309.95312 51.21875Q308.03125 51.21875 306.85938 49.96875Q305.70312 48.703125 305.70312 46.375Q305.70312 44.859375 306.20312 43.734375Q306.70312 42.59375 307.71875 42.03125Q308.75 41.453125 309.95312 41.453125Q311.48438 41.453125 312.4375 42.234375Q313.40625 43.0 313.6875 44.40625L312.14062 44.640625Q311.92188 43.703125 311.35938 43.234375Q310.8125 42.75 310.01562 42.75Q308.82812 42.75 308.07812 43.609375Q307.32812 44.46875 307.32812 46.328125Q307.32812 48.203125 308.04688 49.0625Q308.76562 49.90625 309.9375 49.90625Q310.85938 49.90625 311.48438 49.34375Q312.10938 48.765625 312.28125 47.578125ZM315.1875 51.0L315.1875 38.109375L316.76562 38.109375L316.76562 42.734375Q317.875 41.453125 319.5625 41.453125Q320.59375 41.453125 321.35938 41.859375Q322.125 42.265625 322.45312 43.0Q322.79688 43.71875 322.79688 45.078125L322.79688 51.0L321.20312 51.0L321.20312 45.078125Q321.20312 43.890625 320.6875 43.359375Q320.17188 42.8125 319.23438 42.8125Q318.53125 42.8125 317.90625 43.1875Q317.29688 43.546875 317.03125 44.171875Q316.76562 44.796875 316.76562 45.890625L316.76562 51.0L315.1875 51.0ZM324.8125 46.859375L326.42188 46.71875Q326.53125 47.6875 326.9375 48.3125Q327.35938 48.921875 328.23438 49.3125Q329.125 49.6875 330.21875 49.6875Q331.20312 49.6875 331.9375 49.40625Q332.6875 49.109375 333.04688 48.609375Q333.42188 48.09375 333.42188 47.5Q333.42188 46.890625 333.0625 46.4375Q332.71875 45.984375 331.90625 45.6875Q331.39062 45.484375 329.60938 45.0625Q327.84375 44.625 327.125 44.25Q326.20312 43.765625 325.75 43.046875Q325.29688 42.328125 325.29688 41.453125Q325.29688 40.46875 325.84375 39.625Q326.40625 38.78125 327.46875 38.34375Q328.53125 37.890625 329.84375 37.890625Q331.26562 37.890625 332.35938 38.359375Q333.45312 38.8125 334.04688 39.71875Q334.64062 40.609375 334.67188 41.75L333.04688 41.875Q332.90625 40.640625 332.14062 40.015625Q331.39062 39.390625 329.90625 39.390625Q328.35938 39.390625 327.64062 39.96875Q326.9375 40.53125 326.9375 41.328125Q326.9375 42.03125 327.45312 42.46875Q327.9375 42.921875 330.01562 43.390625Q332.09375 43.859375 332.875 44.21875Q334.0 44.734375 334.53125 45.53125Q335.0625 46.328125 335.0625 47.359375Q335.0625 48.390625 334.46875 49.296875Q333.89062 50.203125 332.78125 50.71875Q331.6875 51.21875 330.29688 51.21875Q328.54688 51.21875 327.35938 50.71875Q326.1875 50.203125 325.51562 49.1875Q324.84375 48.15625 324.8125 46.859375ZM343.28125 47.578125L344.82812 47.78125Q344.57812 49.390625 343.53125 50.3125Q342.48438 51.21875 340.95312 51.21875Q339.03125 51.21875 337.85938 49.96875Q336.70312 48.703125 336.70312 46.375Q336.70312 44.859375 337.20312 43.734375Q337.70312 42.59375 338.71875 42.03125Q339.75 41.453125 340.95312 41.453125Q342.48438 41.453125 343.4375 42.234375Q344.40625 43.0 344.6875 44.40625L343.14062 44.640625Q342.92188 43.703125 342.35938 43.234375Q341.8125 42.75 341.01562 42.75Q339.82812 42.75 339.07812 43.609375Q338.32812 44.46875 338.32812 46.328125Q338.32812 48.203125 339.04688 49.0625Q339.76562 49.90625 340.9375 49.90625Q341.85938 49.90625 342.48438 49.34375Q343.10938 48.765625 343.28125 47.578125ZM346.17188 51.0L346.17188 41.671875L347.59375 41.671875L347.59375 43.078125Q348.14062 42.09375 348.59375 41.78125Q349.0625 41.453125 349.60938 41.453125Q350.42188 41.453125 351.23438 41.96875L350.70312 43.4375Q350.10938 43.09375 349.53125 43.09375Q349.01562 43.09375 348.59375 43.40625Q348.1875 43.71875 348.01562 44.265625Q347.75 45.109375 347.75 46.109375L347.75 51.0L346.17188 51.0ZM352.20312 39.9375L352.20312 38.109375L353.78125 38.109375L353.78125 39.9375L352.20312 39.9375ZM352.20312 51.0L352.20312 41.671875L353.78125 41.671875L353.78125 51.0L352.20312 51.0ZM356.1875 54.578125L356.1875 41.671875L357.625 41.671875L357.625 42.875Q358.14062 42.171875 358.78125 41.8125Q359.42188 41.453125 360.32812 41.453125Q361.53125 41.453125 362.4375 42.078125Q363.35938 42.6875 363.82812 43.8125Q364.29688 44.921875 364.29688 46.265625Q364.29688 47.6875 363.78125 48.84375Q363.26562 49.984375 362.28125 50.609375Q361.29688 51.21875 360.21875 51.21875Q359.4375 51.21875 358.79688 50.890625Q358.17188 50.546875 357.76562 50.03125L357.76562 54.578125L356.1875 54.578125ZM357.625 46.390625Q357.625 48.1875 358.34375 49.046875Q359.07812 49.90625 360.10938 49.90625Q361.17188 49.90625 361.92188 49.015625Q362.67188 48.125 362.67188 46.25Q362.67188 44.46875 361.9375 43.578125Q361.20312 42.6875 360.1875 42.6875Q359.17188 42.6875 358.39062 43.640625Q357.625 44.578125 357.625 46.390625ZM369.64062 49.578125L369.875 50.984375Q369.20312 51.125 368.67188 51.125Q367.8125 51.125 367.32812 50.859375Q366.85938 50.578125 366.67188 50.140625Q366.48438 49.6875 366.48438 48.265625L366.48438 42.890625L365.3125 42.890625L365.3125 41.671875L366.48438 41.671875L366.48438 39.359375L368.04688 38.40625L368.04688 41.671875L369.64062 41.671875L369.64062 42.890625L368.04688 42.890625L368.04688 48.359375Q368.04688 49.03125 368.125 49.234375Q368.21875 49.421875 368.40625 49.53125Q368.59375 49.640625 368.95312 49.640625Q369.20312 49.640625 369.64062 49.578125ZM375.57812 47.125L375.57812 45.546875L380.4375 45.546875L380.4375 47.125L375.57812 47.125ZM387.3125 51.0L387.3125 38.109375L392.15625 38.109375Q393.625 38.109375 394.51562 38.5Q395.40625 38.890625 395.90625 39.703125Q396.42188 40.515625 396.42188 41.40625Q396.42188 42.234375 395.96875 42.96875Q395.53125 43.703125 394.625 44.140625Q395.79688 44.484375 396.42188 45.3125Q397.04688 46.140625 397.04688 47.265625Q397.04688 48.171875 396.65625 48.953125Q396.28125 49.71875 395.71875 50.140625Q395.15625 50.5625 394.3125 50.78125Q393.46875 51.0 392.23438 51.0L387.3125 51.0ZM389.03125 43.53125L391.8125 43.53125Q392.9375 43.53125 393.4375 43.375Q394.09375 43.1875 394.42188 42.75Q394.75 42.296875 394.75 41.609375Q394.75 40.96875 394.4375 40.484375Q394.125 40.0 393.54688 39.828125Q392.98438 39.640625 391.59375 39.640625L389.03125 39.640625L389.03125 43.53125ZM389.03125 49.484375L392.23438 49.484375Q393.0625 49.484375 393.39062 49.421875Q393.98438 49.3125 394.375 49.0625Q394.76562 48.8125 395.01562 48.34375Q395.28125 47.875 395.28125 47.265625Q395.28125 46.546875 394.90625 46.015625Q394.54688 45.484375 393.89062 45.265625Q393.23438 45.046875 392.0 45.046875L389.03125 45.046875L389.03125 49.484375ZM405.28125 49.84375Q404.40625 50.59375 403.57812 50.90625Q402.76562 51.21875 401.84375 51.21875Q400.29688 51.21875 399.46875 50.46875Q398.65625 49.703125 398.65625 48.53125Q398.65625 47.859375 398.96875 47.296875Q399.28125 46.71875 399.78125 46.375Q400.28125 46.03125 400.92188 45.859375Q401.39062 45.734375 402.32812 45.625Q404.23438 45.390625 405.14062 45.078125Q405.15625 44.75 405.15625 44.65625Q405.15625 43.703125 404.70312 43.296875Q404.09375 42.765625 402.90625 42.765625Q401.78125 42.765625 401.25 43.15625Q400.71875 43.546875 400.46875 44.546875L398.92188 44.328125Q399.14062 43.328125 399.60938 42.71875Q400.09375 42.109375 401.0 41.78125Q401.92188 41.453125 403.14062 41.453125Q404.32812 41.453125 405.07812 41.734375Q405.82812 42.015625 406.17188 42.453125Q406.53125 42.875 406.67188 43.515625Q406.75 43.921875 406.75 44.984375L406.75 47.09375Q406.75 49.296875 406.84375 49.890625Q406.95312 50.46875 407.25 51.0L405.59375 51.0Q405.34375 50.5 405.28125 49.84375ZM405.14062 46.3125Q404.28125 46.671875 402.5625 46.90625Q401.59375 47.046875 401.1875 47.234375Q400.78125 47.40625 400.5625 47.75Q400.34375 48.078125 400.34375 48.5Q400.34375 49.125 400.8125 49.546875Q401.29688 49.96875 402.21875 49.96875Q403.14062 49.96875 403.84375 49.578125Q404.5625 49.171875 404.89062 48.484375Q405.14062 47.9375 405.14062 46.890625L405.14062 46.3125ZM412.64062 49.578125L412.875 50.984375Q412.20312 51.125 411.67188 51.125Q410.8125 51.125 410.32812 50.859375Q409.85938 50.578125 409.67188 50.140625Q409.48438 49.6875 409.48438 48.265625L409.48438 42.890625L408.3125 42.890625L408.3125 41.671875L409.48438 41.671875L409.48438 39.359375L411.04688 38.40625L411.04688 41.671875L412.64062 41.671875L412.64062 42.890625L411.04688 42.890625L411.04688 48.359375Q411.04688 49.03125 411.125 49.234375Q411.21875 49.421875 411.40625 49.53125Q411.59375 49.640625 411.95312 49.640625Q412.20312 49.640625 412.64062 49.578125ZM420.28125 47.578125L421.82812 47.78125Q421.57812 49.390625 420.53125 50.3125Q419.48438 51.21875 417.95312 51.21875Q416.03125 51.21875 414.85938 49.96875Q413.70312 48.703125 413.70312 46.375Q413.70312 44.859375 414.20312 43.734375Q414.70312 42.59375 415.71875 42.03125Q416.75 41.453125 417.95312 41.453125Q419.48438 41.453125 420.4375 42.234375Q421.40625 43.0 421.6875 44.40625L420.14062 44.640625Q419.92188 43.703125 419.35938 43.234375Q418.8125 42.75 418.01562 42.75Q416.82812 42.75 416.07812 43.609375Q415.32812 44.46875 415.32812 46.328125Q415.32812 48.203125 416.04688 49.0625Q416.76562 49.90625 417.9375 49.90625Q418.85938 49.90625 419.48438 49.34375Q420.10938 48.765625 420.28125 47.578125ZM423.1875 51.0L423.1875 38.109375L424.76562 38.109375L424.76562 42.734375Q425.875 41.453125 427.5625 41.453125Q428.59375 41.453125 429.35938 41.859375Q430.125 42.265625 430.45312 43.0Q430.79688 43.71875 430.79688 45.078125L430.79688 51.0L429.20312 51.0L429.20312 45.078125Q429.20312 43.890625 428.6875 43.359375Q428.17188 42.8125 427.23438 42.8125Q426.53125 42.8125 425.90625 43.1875Q425.29688 43.546875 425.03125 44.171875Q424.76562 44.796875 424.76562 45.890625L424.76562 51.0L423.1875 51.0ZM437.8125 46.859375L439.42188 46.71875Q439.53125 47.6875 439.9375 48.3125Q440.35938 48.921875 441.23438 49.3125Q442.125 49.6875 443.21875 49.6875Q444.20312 49.6875 444.9375 49.40625Q445.6875 49.109375 446.04688 48.609375Q446.42188 48.09375 446.42188 47.5Q446.42188 46.890625 446.0625 46.4375Q445.71875 45.984375 444.90625 45.6875Q444.39062 45.484375 442.60938 45.0625Q440.84375 44.625 440.125 44.25Q439.20312 43.765625 438.75 43.046875Q438.29688 42.328125 438.29688 41.453125Q438.29688 40.46875 438.84375 39.625Q439.40625 38.78125 440.46875 38.34375Q441.53125 37.890625 442.84375 37.890625Q444.26562 37.890625 445.35938 38.359375Q446.45312 38.8125 447.04688 39.71875Q447.64062 40.609375 447.67188 41.75L446.04688 41.875Q445.90625 40.640625 445.14062 40.015625Q444.39062 39.390625 442.90625 39.390625Q441.35938 39.390625 440.64062 39.96875Q439.9375 40.53125 439.9375 41.328125Q439.9375 42.03125 440.45312 42.46875Q440.9375 42.921875 443.01562 43.390625Q445.09375 43.859375 445.875 44.21875Q447.0 44.734375 447.53125 45.53125Q448.0625 46.328125 448.0625 47.359375Q448.0625 48.390625 447.46875 49.296875Q446.89062 50.203125 445.78125 50.71875Q444.6875 51.21875 443.29688 51.21875Q441.54688 51.21875 440.35938 50.71875Q439.1875 50.203125 438.51562 49.1875Q437.84375 48.15625 437.8125 46.859375ZM450.20312 39.9375L450.20312 38.109375L451.78125 38.109375L451.78125 39.9375L450.20312 39.9375ZM450.20312 51.0L450.20312 41.671875L451.78125 41.671875L451.78125 51.0L450.20312 51.0ZM453.35938 51.0L453.35938 49.71875L459.29688 42.890625Q458.28125 42.953125 457.51562 42.953125L453.70312 42.953125L453.70312 41.671875L461.32812 41.671875L461.32812 42.71875L456.28125 48.640625L455.29688 49.71875Q456.35938 49.640625 457.29688 49.640625L461.60938 49.640625L461.60938 51.0L453.35938 51.0ZM468.57812 48.0L470.21875 48.203125Q469.82812 49.625 468.78125 50.421875Q467.73438 51.21875 466.10938 51.21875Q464.0625 51.21875 462.85938 49.953125Q461.65625 48.6875 461.65625 46.40625Q461.65625 44.0625 462.85938 42.765625Q464.07812 41.453125 466.01562 41.453125Q467.89062 41.453125 469.07812 42.734375Q470.26562 44.0 470.26562 46.3125Q470.26562 46.453125 470.25 46.734375L463.29688 46.734375Q463.375 48.28125 464.15625 49.09375Q464.95312 49.90625 466.10938 49.90625Q466.98438 49.90625 467.59375 49.453125Q468.21875 49.0 468.57812 48.0ZM463.375 45.4375L468.59375 45.4375Q468.48438 44.265625 468.0 43.671875Q467.23438 42.75 466.03125 42.75Q464.95312 42.75 464.20312 43.484375Q463.46875 44.21875 463.375 45.4375ZM482.70312 51.0L481.125 51.0L481.125 40.921875Q480.54688 41.46875 479.625 42.015625Q478.70312 42.546875 477.95312 42.828125L477.95312 41.296875Q479.28125 40.671875 480.28125 39.78125Q481.28125 38.890625 481.6875 38.0625L482.70312 38.0625L482.70312 51.0ZM491.57812 47.125L491.57812 45.546875L496.4375 45.546875L496.4375 47.125L491.57812 47.125ZM503.42188 51.0L503.42188 38.109375L509.125 38.109375Q510.84375 38.109375 511.73438 38.46875Q512.6406 38.8125 513.1719 39.6875Q513.71875 40.5625 513.71875 41.625Q513.71875 43.0 512.8281 43.9375Q511.9375 44.875 510.09375 45.140625Q510.76562 45.46875 511.10938 45.78125Q511.85938 46.46875 512.53125 47.5L514.7656 51.0L512.625 51.0L510.92188 48.3125Q510.17188 47.15625 509.6875 46.546875Q509.20312 45.921875 508.8125 45.6875Q508.4375 45.4375 508.04688 45.34375Q507.75 45.28125 507.09375 45.28125L505.125 45.28125L505.125 51.0L503.42188 51.0ZM505.125 43.796875L508.78125 43.796875Q509.95312 43.796875 510.60938 43.5625Q511.26562 43.3125 511.60938 42.78125Q511.95312 42.25 511.95312 41.625Q511.95312 40.71875 511.28125 40.125Q510.625 39.53125 509.20312 39.53125L505.125 39.53125L505.125 43.796875ZM522.5781 48.0L524.21875 48.203125Q523.8281 49.625 522.78125 50.421875Q521.7344 51.21875 520.1094 51.21875Q518.0625 51.21875 516.8594 49.953125Q515.65625 48.6875 515.65625 46.40625Q515.65625 44.0625 516.8594 42.765625Q518.0781 41.453125 520.0156 41.453125Q521.8906 41.453125 523.0781 42.734375Q524.2656 44.0 524.2656 46.3125Q524.2656 46.453125 524.25 46.734375L517.2969 46.734375Q517.375 48.28125 518.15625 49.09375Q518.9531 49.90625 520.1094 49.90625Q520.9844 49.90625 521.59375 49.453125Q522.21875 49.0 522.5781 48.0ZM517.375 45.4375L522.59375 45.4375Q522.4844 44.265625 522.0 43.671875Q521.2344 42.75 520.03125 42.75Q518.9531 42.75 518.2031 43.484375Q517.46875 44.21875 517.375 45.4375ZM526.15625 51.0L526.15625 38.109375L527.7344 38.109375L527.7344 51.0L526.15625 51.0ZM536.28125 49.84375Q535.40625 50.59375 534.5781 50.90625Q533.7656 51.21875 532.84375 51.21875Q531.2969 51.21875 530.46875 50.46875Q529.65625 49.703125 529.65625 48.53125Q529.65625 47.859375 529.96875 47.296875Q530.28125 46.71875 530.78125 46.375Q531.28125 46.03125 531.9219 45.859375Q532.3906 45.734375 533.3281 45.625Q535.2344 45.390625 536.1406 45.078125Q536.15625 44.75 536.15625 44.65625Q536.15625 43.703125 535.7031 43.296875Q535.09375 42.765625 533.90625 42.765625Q532.78125 42.765625 532.25 43.15625Q531.71875 43.546875 531.46875 44.546875L529.9219 44.328125Q530.1406 43.328125 530.6094 42.71875Q531.09375 42.109375 532.0 41.78125Q532.9219 41.453125 534.1406 41.453125Q535.3281 41.453125 536.0781 41.734375Q536.8281 42.015625 537.1719 42.453125Q537.53125 42.875 537.6719 43.515625Q537.75 43.921875 537.75 44.984375L537.75 47.09375Q537.75 49.296875 537.84375 49.890625Q537.9531 50.46875 538.25 51.0L536.59375 51.0Q536.34375 50.5 536.28125 49.84375ZM536.1406 46.3125Q535.28125 46.671875 533.5625 46.90625Q532.59375 47.046875 532.1875 47.234375Q531.78125 47.40625 531.5625 47.75Q531.34375 48.078125 531.34375 48.5Q531.34375 49.125 531.8125 49.546875Q532.2969 49.96875 533.21875 49.96875Q534.1406 49.96875 534.84375 49.578125Q535.5625 49.171875 535.8906 48.484375Q536.1406 47.9375 536.1406 46.890625L536.1406 46.3125ZM543.6406 49.578125L543.875 50.984375Q543.2031 51.125 542.6719 51.125Q541.8125 51.125 541.3281 50.859375Q540.8594 50.578125 540.6719 50.140625Q540.4844 49.6875 540.4844 48.265625L540.4844 42.890625L539.3125 42.890625L539.3125 41.671875L540.4844 41.671875L540.4844 39.359375L542.0469 38.40625L542.0469 41.671875L543.6406 41.671875L543.6406 42.890625L542.0469 42.890625L542.0469 48.359375Q542.0469 49.03125 542.125 49.234375Q542.21875 49.421875 542.40625 49.53125Q542.59375 49.640625 542.9531 49.640625Q543.2031 49.640625 543.6406 49.578125ZM545.2031 39.9375L545.2031 38.109375L546.78125 38.109375L546.78125 39.9375L545.2031 39.9375ZM545.2031 51.0L545.2031 41.671875L546.78125 41.671875L546.78125 51.0L545.2031 51.0ZM551.78125 51.0L548.2344 41.671875L549.90625 41.671875L551.90625 47.25Q552.2344 48.15625 552.5 49.140625Q552.71875 48.390625 553.09375 47.359375L555.15625 41.671875L556.7969 41.671875L553.25 51.0L551.78125 51.0ZM564.5781 48.0L566.21875 48.203125Q565.8281 49.625 564.78125 50.421875Q563.7344 51.21875 562.1094 51.21875Q560.0625 51.21875 558.8594 49.953125Q557.65625 48.6875 557.65625 46.40625Q557.65625 44.0625 558.8594 42.765625Q560.0781 41.453125 562.0156 41.453125Q563.8906 41.453125 565.0781 42.734375Q566.2656 44.0 566.2656 46.3125Q566.2656 46.453125 566.25 46.734375L559.2969 46.734375Q559.375 48.28125 560.15625 49.09375Q560.9531 49.90625 562.1094 49.90625Q562.9844 49.90625 563.59375 49.453125Q564.21875 49.0 564.5781 48.0ZM559.375 45.4375L564.59375 45.4375Q564.4844 44.265625 564.0 43.671875Q563.2344 42.75 562.03125 42.75Q560.9531 42.75 560.2031 43.484375Q559.46875 44.21875 559.375 45.4375ZM573.3906 51.0L573.3906 38.109375L577.8281 38.109375Q579.3281 38.109375 580.125 38.296875Q581.2344 38.546875 582.0156 39.21875Q583.03125 40.078125 583.53125 41.421875Q584.0469 42.765625 584.0469 44.484375Q584.0469 45.953125 583.7031 47.09375Q583.3594 48.21875 582.8125 48.96875Q582.28125 49.703125 581.6406 50.140625Q581.0156 50.5625 580.1094 50.78125Q579.2031 51.0 578.03125 51.0L573.3906 51.0ZM575.09375 49.484375L577.84375 49.484375Q579.125 49.484375 579.84375 49.25Q580.5625 49.0 581.0 48.578125Q581.6094 47.96875 581.9375 46.953125Q582.28125 45.921875 582.28125 44.453125Q582.28125 42.4375 581.6094 41.359375Q580.9531 40.265625 580.0 39.90625Q579.3281 39.640625 577.7969 39.640625L575.09375 39.640625L575.09375 49.484375ZM586.2031 39.9375L586.2031 38.109375L587.78125 38.109375L587.78125 39.9375L586.2031 39.9375ZM586.2031 51.0L586.2031 41.671875L587.78125 41.671875L587.78125 51.0L586.2031 51.0ZM590.5625 51.0L590.5625 42.890625L589.1719 42.890625L589.1719 41.671875L590.5625 41.671875L590.5625 40.671875Q590.5625 39.734375 590.7344 39.28125Q590.9531 38.65625 591.53125 38.28125Q592.1094 37.890625 593.15625 37.890625Q593.8125 37.890625 594.625 38.046875L594.3906 39.4375Q593.8906 39.34375 593.4531 39.34375Q592.7344 39.34375 592.4375 39.65625Q592.1406 39.953125 592.1406 40.796875L592.1406 41.671875L593.9531 41.671875L593.9531 42.890625L592.1406 42.890625L592.1406 51.0L590.5625 51.0ZM595.5625 51.0L595.5625 42.890625L594.1719 42.890625L594.1719 41.671875L595.5625 41.671875L595.5625 40.671875Q595.5625 39.734375 595.7344 39.28125Q595.9531 38.65625 596.53125 38.28125Q597.1094 37.890625 598.15625 37.890625Q598.8125 37.890625 599.625 38.046875L599.3906 39.4375Q598.8906 39.34375 598.4531 39.34375Q597.7344 39.34375 597.4375 39.65625Q597.1406 39.953125 597.1406 40.796875L597.1406 41.671875L598.9531 41.671875L598.9531 42.890625L597.1406 42.890625L597.1406 51.0L595.5625 51.0ZM606.5781 48.0L608.21875 48.203125Q607.8281 49.625 606.78125 50.421875Q605.7344 51.21875 604.1094 51.21875Q602.0625 51.21875 600.8594 49.953125Q599.65625 48.6875 599.65625 46.40625Q599.65625 44.0625 600.8594 42.765625Q602.0781 41.453125 604.0156 41.453125Q605.8906 41.453125 607.0781 42.734375Q608.2656 44.0 608.2656 46.3125Q608.2656 46.453125 608.25 46.734375L601.2969 46.734375Q601.375 48.28125 602.15625 49.09375Q602.9531 49.90625 604.1094 49.90625Q604.9844 49.90625 605.59375 49.453125Q606.21875 49.0 606.5781 48.0ZM601.375 45.4375L606.59375 45.4375Q606.4844 44.265625 606.0 43.671875Q605.2344 42.75 604.03125 42.75Q602.9531 42.75 602.2031 43.484375Q601.46875 44.21875 601.375 45.4375ZM610.1719 51.0L610.1719 41.671875L611.59375 41.671875L611.59375 43.078125Q612.1406 42.09375 612.59375 41.78125Q613.0625 41.453125 613.6094 41.453125Q614.4219 41.453125 615.2344 41.96875L614.7031 43.4375Q614.1094 43.09375 613.53125 43.09375Q613.0156 43.09375 612.59375 43.40625Q612.1875 43.71875 612.0156 44.265625Q611.75 45.109375 611.75 46.109375L611.75 51.0L610.1719 51.0ZM622.5781 48.0L624.21875 48.203125Q623.8281 49.625 622.78125 50.421875Q621.7344 51.21875 620.1094 51.21875Q618.0625 51.21875 616.8594 49.953125Q615.65625 48.6875 615.65625 46.40625Q615.65625 44.0625 616.8594 42.765625Q618.0781 41.453125 620.0156 41.453125Q621.8906 41.453125 623.0781 42.734375Q624.2656 44.0 624.2656 46.3125Q624.2656 46.453125 624.25 46.734375L617.2969 46.734375Q617.375 48.28125 618.15625 49.09375Q618.9531 49.90625 620.1094 49.90625Q620.9844 49.90625 621.59375 49.453125Q622.21875 49.0 622.5781 48.0ZM617.375 45.4375L622.59375 45.4375Q622.4844 44.265625 622.0 43.671875Q621.2344 42.75 620.03125 42.75Q618.9531 42.75 618.2031 43.484375Q617.46875 44.21875 617.375 45.4375ZM626.1875 51.0L626.1875 41.671875L627.6094 41.671875L627.6094 43.0Q628.6406 41.453125 630.5781 41.453125Q631.4219 41.453125 632.125 41.765625Q632.84375 42.0625 633.1875 42.5625Q633.5469 43.046875 633.6875 43.71875Q633.7656 44.15625 633.7656 45.265625L633.7656 51.0L632.1875 51.0L632.1875 45.328125Q632.1875 44.359375 632.0 43.875Q631.8281 43.390625 631.34375 43.109375Q630.875 42.828125 630.25 42.828125Q629.2344 42.828125 628.5 43.46875Q627.7656 44.109375 627.7656 45.90625L627.7656 51.0L626.1875 51.0ZM642.28125 47.578125L643.8281 47.78125Q643.5781 49.390625 642.53125 50.3125Q641.4844 51.21875 639.9531 51.21875Q638.03125 51.21875 636.8594 49.96875Q635.7031 48.703125 635.7031 46.375Q635.7031 44.859375 636.2031 43.734375Q636.7031 42.59375 637.71875 42.03125Q638.75 41.453125 639.9531 41.453125Q641.4844 41.453125 642.4375 42.234375Q643.40625 43.0 643.6875 44.40625L642.1406 44.640625Q641.9219 43.703125 641.3594 43.234375Q640.8125 42.75 640.0156 42.75Q638.8281 42.75 638.0781 43.609375Q637.3281 44.46875 637.3281 46.328125Q637.3281 48.203125 638.0469 49.0625Q638.7656 49.90625 639.9375 49.90625Q640.8594 49.90625 641.4844 49.34375Q642.1094 48.765625 642.28125 47.578125ZM651.5781 48.0L653.21875 48.203125Q652.8281 49.625 651.78125 50.421875Q650.7344 51.21875 649.1094 51.21875Q647.0625 51.21875 645.8594 49.953125Q644.65625 48.6875 644.65625 46.40625Q644.65625 44.0625 645.8594 42.765625Q647.0781 41.453125 649.0156 41.453125Q650.8906 41.453125 652.0781 42.734375Q653.2656 44.0 653.2656 46.3125Q653.2656 46.453125 653.25 46.734375L646.2969 46.734375Q646.375 48.28125 647.15625 49.09375Q647.9531 49.90625 649.1094 49.90625Q649.9844 49.90625 650.59375 49.453125Q651.21875 49.0 651.5781 48.0ZM646.375 45.4375L651.59375 45.4375Q651.4844 44.265625 651.0 43.671875Q650.2344 42.75 649.03125 42.75Q647.9531 42.75 647.2031 43.484375Q646.46875 44.21875 646.375 45.4375ZM658.96875 51.0L663.9219 38.109375L665.7656 38.109375L671.03125 51.0L669.09375 51.0L667.59375 47.09375L662.2031 47.09375L660.78125 51.0L658.96875 51.0ZM662.6875 45.703125L667.0625 45.703125L665.71875 42.140625Q665.09375 40.515625 664.7969 39.46875Q664.5625 40.703125 664.1094 41.921875L662.6875 45.703125ZM672.6406 51.0L671.1719 51.0L671.1719 38.109375L672.7656 38.109375L672.7656 42.71875Q673.7656 41.453125 675.3125 41.453125Q676.1719 41.453125 676.9375 41.8125Q677.71875 42.15625 678.2031 42.78125Q678.7031 43.40625 678.9844 44.296875Q679.2656 45.1875 679.2656 46.1875Q679.2656 48.59375 678.0781 49.90625Q676.90625 51.21875 675.2344 51.21875Q673.59375 51.21875 672.6406 49.828125L672.6406 51.0ZM672.625 46.265625Q672.625 47.9375 673.0781 48.6875Q673.8281 49.90625 675.1094 49.90625Q676.1406 49.90625 676.8906 49.015625Q677.65625 48.109375 677.65625 46.328125Q677.65625 44.5 676.9219 43.625Q676.2031 42.75 675.1719 42.75Q674.1406 42.75 673.375 43.65625Q672.625 44.5625 672.625 46.265625ZM680.5469 48.21875L682.125 47.96875Q682.25 48.90625 682.84375 49.40625Q683.4531 49.90625 684.53125 49.90625Q685.625 49.90625 686.15625 49.46875Q686.6875 49.015625 686.6875 48.421875Q686.6875 47.890625 686.21875 47.578125Q685.8906 47.375 684.59375 47.046875Q682.8594 46.609375 682.1875 46.296875Q681.5156 45.96875 681.15625 45.40625Q680.8125 44.828125 680.8125 44.140625Q680.8125 43.515625 681.09375 42.984375Q681.3906 42.453125 681.875 42.109375Q682.25 41.828125 682.8906 41.640625Q683.53125 41.453125 684.25 41.453125Q685.3594 41.453125 686.1875 41.78125Q687.0156 42.09375 687.40625 42.640625Q687.8125 43.171875 687.9531 44.078125L686.40625 44.28125Q686.2969 43.5625 685.7969 43.15625Q685.2969 42.75 684.375 42.75Q683.28125 42.75 682.8125 43.109375Q682.34375 43.46875 682.34375 43.953125Q682.34375 44.265625 682.5469 44.515625Q682.7344 44.765625 683.1406 44.9375Q683.3906 45.015625 684.5469 45.34375Q686.21875 45.78125 686.875 46.078125Q687.5469 46.359375 687.9219 46.90625Q688.3125 47.453125 688.3125 48.25Q688.3125 49.046875 687.84375 49.75Q687.3906 50.453125 686.5156 50.84375Q685.6406 51.21875 684.5469 51.21875Q682.71875 51.21875 681.7656 50.46875Q680.8125 49.703125 680.5469 48.21875ZM689.59375 46.328125Q689.59375 43.734375 691.0469 42.484375Q692.25 41.453125 693.96875 41.453125Q695.90625 41.453125 697.125 42.71875Q698.34375 43.984375 698.34375 46.203125Q698.34375 48.0 697.7969 49.03125Q697.2656 50.0625 696.2344 50.640625Q695.2031 51.21875 693.96875 51.21875Q692.0156 51.21875 690.7969 49.96875Q689.59375 48.703125 689.59375 46.328125ZM691.21875 46.328125Q691.21875 48.125 692.0 49.015625Q692.78125 49.90625 693.96875 49.90625Q695.15625 49.90625 695.9375 49.015625Q696.71875 48.109375 696.71875 46.28125Q696.71875 44.546875 695.9219 43.65625Q695.1406 42.765625 693.96875 42.765625Q692.78125 42.765625 692.0 43.65625Q691.21875 44.546875 691.21875 46.328125ZM700.15625 51.0L700.15625 38.109375L701.7344 38.109375L701.7344 51.0L700.15625 51.0ZM710.2969 51.0L710.2969 49.625Q709.21875 51.21875 707.34375 51.21875Q706.5156 51.21875 705.7969 50.90625Q705.0781 50.578125 704.7344 50.109375Q704.3906 49.625 704.25 48.921875Q704.15625 48.453125 704.15625 47.453125L704.15625 41.671875L705.7344 41.671875L705.7344 46.84375Q705.7344 48.078125 705.8281 48.515625Q705.9844 49.140625 706.46875 49.5Q706.9531 49.84375 707.65625 49.84375Q708.375 49.84375 709.0 49.484375Q709.625 49.125 709.875 48.5Q710.1406 47.859375 710.1406 46.671875L710.1406 41.671875L711.71875 41.671875L711.71875 51.0L710.2969 51.0ZM717.6406 49.578125L717.875 50.984375Q717.2031 51.125 716.6719 51.125Q715.8125 51.125 715.3281 50.859375Q714.8594 50.578125 714.6719 50.140625Q714.4844 49.6875 714.4844 48.265625L714.4844 42.890625L713.3125 42.890625L713.3125 41.671875L714.4844 41.671875L714.4844 39.359375L716.0469 38.40625L716.0469 41.671875L717.6406 41.671875L717.6406 42.890625L716.0469 42.890625L716.0469 48.359375Q716.0469 49.03125 716.125 49.234375Q716.21875 49.421875 716.40625 49.53125Q716.59375 49.640625 716.9531 49.640625Q717.2031 49.640625 717.6406 49.578125ZM725.5781 48.0L727.21875 48.203125Q726.8281 49.625 725.78125 50.421875Q724.7344 51.21875 723.1094 51.21875Q721.0625 51.21875 719.8594 49.953125Q718.65625 48.6875 718.65625 46.40625Q718.65625 44.0625 719.8594 42.765625Q721.0781 41.453125 723.0156 41.453125Q724.8906 41.453125 726.0781 42.734375Q727.2656 44.0 727.2656 46.3125Q727.2656 46.453125 727.25 46.734375L720.2969 46.734375Q720.375 48.28125 721.15625 49.09375Q721.9531 49.90625 723.1094 49.90625Q723.9844 49.90625 724.59375 49.453125Q725.21875 49.0 725.5781 48.0ZM720.375 45.4375L725.59375 45.4375Q725.4844 44.265625 725.0 43.671875Q724.2344 42.75 723.03125 42.75Q721.9531 42.75 721.2031 43.484375Q720.46875 44.21875 720.375 45.4375ZM734.3125 51.0L734.3125 38.109375L739.15625 38.109375Q740.625 38.109375 741.5156 38.5Q742.40625 38.890625 742.90625 39.703125Q743.4219 40.515625 743.4219 41.40625Q743.4219 42.234375 742.96875 42.96875Q742.53125 43.703125 741.625 44.140625Q742.7969 44.484375 743.4219 45.3125Q744.0469 46.140625 744.0469 47.265625Q744.0469 48.171875 743.65625 48.953125Q743.28125 49.71875 742.71875 50.140625Q742.15625 50.5625 741.3125 50.78125Q740.46875 51.0 739.2344 51.0L734.3125 51.0ZM736.03125 43.53125L738.8125 43.53125Q739.9375 43.53125 740.4375 43.375Q741.09375 43.1875 741.4219 42.75Q741.75 42.296875 741.75 41.609375Q741.75 40.96875 741.4375 40.484375Q741.125 40.0 740.5469 39.828125Q739.9844 39.640625 738.59375 39.640625L736.03125 39.640625L736.03125 43.53125ZM736.03125 49.484375L739.2344 49.484375Q740.0625 49.484375 740.3906 49.421875Q740.9844 49.3125 741.375 49.0625Q741.7656 48.8125 742.0156 48.34375Q742.28125 47.875 742.28125 47.265625Q742.28125 46.546875 741.90625 46.015625Q741.5469 45.484375 740.8906 45.265625Q740.2344 45.046875 739.0 45.046875L736.03125 45.046875L736.03125 49.484375ZM752.5781 48.0L754.21875 48.203125Q753.8281 49.625 752.78125 50.421875Q751.7344 51.21875 750.1094 51.21875Q748.0625 51.21875 746.8594 49.953125Q745.65625 48.6875 745.65625 46.40625Q745.65625 44.0625 746.8594 42.765625Q748.0781 41.453125 750.0156 41.453125Q751.8906 41.453125 753.0781 42.734375Q754.2656 44.0 754.2656 46.3125Q754.2656 46.453125 754.25 46.734375L747.2969 46.734375Q747.375 48.28125 748.15625 49.09375Q748.9531 49.90625 750.1094 49.90625Q750.9844 49.90625 751.59375 49.453125Q752.21875 49.0 752.5781 48.0ZM747.375 45.4375L752.59375 45.4375Q752.4844 44.265625 752.0 43.671875Q751.2344 42.75 750.03125 42.75Q748.9531 42.75 748.2031 43.484375Q747.46875 44.21875 747.375 45.4375ZM755.5469 48.21875L757.125 47.96875Q757.25 48.90625 757.84375 49.40625Q758.4531 49.90625 759.53125 49.90625Q760.625 49.90625 761.15625 49.46875Q761.6875 49.015625 761.6875 48.421875Q761.6875 47.890625 761.21875 47.578125Q760.8906 47.375 759.59375 47.046875Q757.8594 46.609375 757.1875 46.296875Q756.5156 45.96875 756.15625 45.40625Q755.8125 44.828125 755.8125 44.140625Q755.8125 43.515625 756.09375 42.984375Q756.3906 42.453125 756.875 42.109375Q757.25 41.828125 757.8906 41.640625Q758.53125 41.453125 759.25 41.453125Q760.3594 41.453125 761.1875 41.78125Q762.0156 42.09375 762.40625 42.640625Q762.8125 43.171875 762.9531 44.078125L761.40625 44.28125Q761.2969 43.5625 760.7969 43.15625Q760.2969 42.75 759.375 42.75Q758.28125 42.75 757.8125 43.109375Q757.34375 43.46875 757.34375 43.953125Q757.34375 44.265625 757.5469 44.515625Q757.7344 44.765625 758.1406 44.9375Q758.3906 45.015625 759.5469 45.34375Q761.21875 45.78125 761.875 46.078125Q762.5469 46.359375 762.9219 46.90625Q763.3125 47.453125 763.3125 48.25Q763.3125 49.046875 762.84375 49.75Q762.3906 50.453125 761.5156 50.84375Q760.6406 51.21875 759.5469 51.21875Q757.71875 51.21875 756.7656 50.46875Q755.8125 49.703125 755.5469 48.21875ZM768.6406 49.578125L768.875 50.984375Q768.2031 51.125 767.6719 51.125Q766.8125 51.125 766.3281 50.859375Q765.8594 50.578125 765.6719 50.140625Q765.4844 49.6875 765.4844 48.265625L765.4844 42.890625L764.3125 42.890625L764.3125 41.671875L765.4844 41.671875L765.4844 39.359375L767.0469 38.40625L767.0469 41.671875L768.6406 41.671875L768.6406 42.890625L767.0469 42.890625L767.0469 48.359375Q767.0469 49.03125 767.125 49.234375Q767.21875 49.421875 767.40625 49.53125Q767.59375 49.640625 767.9531 49.640625Q768.2031 49.640625 768.6406 49.578125ZM775.3125 51.0L775.3125 38.109375L777.03125 38.109375L777.03125 49.484375L783.375 49.484375L783.375 51.0L775.3125 51.0ZM791.28125 49.84375Q790.40625 50.59375 789.5781 50.90625Q788.7656 51.21875 787.84375 51.21875Q786.2969 51.21875 785.46875 50.46875Q784.65625 49.703125 784.65625 48.53125Q784.65625 47.859375 784.96875 47.296875Q785.28125 46.71875 785.78125 46.375Q786.28125 46.03125 786.9219 45.859375Q787.3906 45.734375 788.3281 45.625Q790.2344 45.390625 791.1406 45.078125Q791.15625 44.75 791.15625 44.65625Q791.15625 43.703125 790.7031 43.296875Q790.09375 42.765625 788.90625 42.765625Q787.78125 42.765625 787.25 43.15625Q786.71875 43.546875 786.46875 44.546875L784.9219 44.328125Q785.1406 43.328125 785.6094 42.71875Q786.09375 42.109375 787.0 41.78125Q787.9219 41.453125 789.1406 41.453125Q790.3281 41.453125 791.0781 41.734375Q791.8281 42.015625 792.1719 42.453125Q792.53125 42.875 792.6719 43.515625Q792.75 43.921875 792.75 44.984375L792.75 47.09375Q792.75 49.296875 792.84375 49.890625Q792.9531 50.46875 793.25 51.0L791.59375 51.0Q791.34375 50.5 791.28125 49.84375ZM791.1406 46.3125Q790.28125 46.671875 788.5625 46.90625Q787.59375 47.046875 787.1875 47.234375Q786.78125 47.40625 786.5625 47.75Q786.34375 48.078125 786.34375 48.5Q786.34375 49.125 786.8125 49.546875Q787.2969 49.96875 788.21875 49.96875Q789.1406 49.96875 789.84375 49.578125Q790.5625 49.171875 790.8906 48.484375Q791.1406 47.9375 791.1406 46.890625L791.1406 46.3125ZM798.6406 49.578125L798.875 50.984375Q798.2031 51.125 797.6719 51.125Q796.8125 51.125 796.3281 50.859375Q795.8594 50.578125 795.6719 50.140625Q795.4844 49.6875 795.4844 48.265625L795.4844 42.890625L794.3125 42.890625L794.3125 41.671875L795.4844 41.671875L795.4844 39.359375L797.0469 38.40625L797.0469 41.671875L798.6406 41.671875L798.6406 42.890625L797.0469 42.890625L797.0469 48.359375Q797.0469 49.03125 797.125 49.234375Q797.21875 49.421875 797.40625 49.53125Q797.59375 49.640625 797.9531 49.640625Q798.2031 49.640625 798.6406 49.578125ZM806.5781 48.0L808.21875 48.203125Q807.8281 49.625 806.78125 50.421875Q805.7344 51.21875 804.1094 51.21875Q802.0625 51.21875 800.8594 49.953125Q799.65625 48.6875 799.65625 46.40625Q799.65625 44.0625 800.8594 42.765625Q802.0781 41.453125 804.0156 41.453125Q805.8906 41.453125 807.0781 42.734375Q808.2656 44.0 808.2656 46.3125Q808.2656 46.453125 808.25 46.734375L801.2969 46.734375Q801.375 48.28125 802.15625 49.09375Q802.9531 49.90625 804.1094 49.90625Q804.9844 49.90625 805.59375 49.453125Q806.21875 49.0 806.5781 48.0ZM801.375 45.4375L806.59375 45.4375Q806.4844 44.265625 806.0 43.671875Q805.2344 42.75 804.03125 42.75Q802.9531 42.75 802.2031 43.484375Q801.46875 44.21875 801.375 45.4375ZM810.1875 51.0L810.1875 41.671875L811.6094 41.671875L811.6094 43.0Q812.6406 41.453125 814.5781 41.453125Q815.4219 41.453125 816.125 41.765625Q816.84375 42.0625 817.1875 42.5625Q817.5469 43.046875 817.6875 43.71875Q817.7656 44.15625 817.7656 45.265625L817.7656 51.0L816.1875 51.0L816.1875 45.328125Q816.1875 44.359375 816.0 43.875Q815.8281 43.390625 815.34375 43.109375Q814.875 42.828125 814.25 42.828125Q813.2344 42.828125 812.5 43.46875Q811.7656 44.109375 811.7656 45.90625L811.7656 51.0L810.1875 51.0ZM826.28125 47.578125L827.8281 47.78125Q827.5781 49.390625 826.53125 50.3125Q825.4844 51.21875 823.9531 51.21875Q822.03125 51.21875 820.8594 49.96875Q819.7031 48.703125 819.7031 46.375Q819.7031 44.859375 820.2031 43.734375Q820.7031 42.59375 821.71875 42.03125Q822.75 41.453125 823.9531 41.453125Q825.4844 41.453125 826.4375 42.234375Q827.40625 43.0 827.6875 44.40625L826.1406 44.640625Q825.9219 43.703125 825.3594 43.234375Q824.8125 42.75 824.0156 42.75Q822.8281 42.75 822.0781 43.609375Q821.3281 44.46875 821.3281 46.328125Q821.3281 48.203125 822.0469 49.0625Q822.7656 49.90625 823.9375 49.90625Q824.8594 49.90625 825.4844 49.34375Q826.1094 48.765625 826.28125 47.578125ZM829.1094 54.59375L828.9375 53.109375Q829.4531 53.25 829.84375 53.25Q830.375 53.25 830.6875 53.078125Q831.0 52.90625 831.2031 52.578125Q831.3594 52.34375 831.6875 51.40625Q831.7344 51.265625 831.8281 51.015625L828.2969 41.671875L830.0 41.671875L831.9375 47.078125Q832.3125 48.09375 832.6094 49.234375Q832.8906 48.140625 833.2656 47.109375L835.2656 41.671875L836.84375 41.671875L833.2969 51.15625Q832.71875 52.703125 832.40625 53.28125Q831.9844 54.0625 831.4375 54.421875Q830.8906 54.78125 830.1406 54.78125Q829.6719 54.78125 829.1094 54.59375ZM845.78125 51.0L842.2344 41.671875L843.90625 41.671875L845.90625 47.25Q846.2344 48.15625 846.5 49.140625Q846.71875 48.390625 847.09375 47.359375L849.15625 41.671875L850.7969 41.671875L847.25 51.0L845.78125 51.0ZM851.5469 48.21875L853.125 47.96875Q853.25 48.90625 853.84375 49.40625Q854.4531 49.90625 855.53125 49.90625Q856.625 49.90625 857.15625 49.46875Q857.6875 49.015625 857.6875 48.421875Q857.6875 47.890625 857.21875 47.578125Q856.8906 47.375 855.59375 47.046875Q853.8594 46.609375 853.1875 46.296875Q852.5156 45.96875 852.15625 45.40625Q851.8125 44.828125 851.8125 44.140625Q851.8125 43.515625 852.09375 42.984375Q852.3906 42.453125 852.875 42.109375Q853.25 41.828125 853.8906 41.640625Q854.53125 41.453125 855.25 41.453125Q856.3594 41.453125 857.1875 41.78125Q858.0156 42.09375 858.40625 42.640625Q858.8125 43.171875 858.9531 44.078125L857.40625 44.28125Q857.2969 43.5625 856.7969 43.15625Q856.2969 42.75 855.375 42.75Q854.28125 42.75 853.8125 43.109375Q853.34375 43.46875 853.34375 43.953125Q853.34375 44.265625 853.5469 44.515625Q853.7344 44.765625 854.1406 44.9375Q854.3906 45.015625 855.5469 45.34375Q857.21875 45.78125 857.875 46.078125Q858.5469 46.359375 858.9219 46.90625Q859.3125 47.453125 859.3125 48.25Q859.3125 49.046875 858.84375 49.75Q858.3906 50.453125 857.5156 50.84375Q856.6406 51.21875 855.5469 51.21875Q853.71875 51.21875 852.7656 50.46875Q851.8125 49.703125 851.5469 48.21875ZM865.8125 46.859375L867.4219 46.71875Q867.53125 47.6875 867.9375 48.3125Q868.3594 48.921875 869.2344 49.3125Q870.125 49.6875 871.21875 49.6875Q872.2031 49.6875 872.9375 49.40625Q873.6875 49.109375 874.0469 48.609375Q874.4219 48.09375 874.4219 47.5Q874.4219 46.890625 874.0625 46.4375Q873.71875 45.984375 872.90625 45.6875Q872.3906 45.484375 870.6094 45.0625Q868.84375 44.625 868.125 44.25Q867.2031 43.765625 866.75 43.046875Q866.2969 42.328125 866.2969 41.453125Q866.2969 40.46875 866.84375 39.625Q867.40625 38.78125 868.46875 38.34375Q869.53125 37.890625 870.84375 37.890625Q872.2656 37.890625 873.3594 38.359375Q874.4531 38.8125 875.0469 39.71875Q875.6406 40.609375 875.6719 41.75L874.0469 41.875Q873.90625 40.640625 873.1406 40.015625Q872.3906 39.390625 870.90625 39.390625Q869.3594 39.390625 868.6406 39.96875Q867.9375 40.53125 867.9375 41.328125Q867.9375 42.03125 868.4531 42.46875Q868.9375 42.921875 871.0156 43.390625Q873.09375 43.859375 873.875 44.21875Q875.0 44.734375 875.53125 45.53125Q876.0625 46.328125 876.0625 47.359375Q876.0625 48.390625 875.46875 49.296875Q874.8906 50.203125 873.78125 50.71875Q872.6875 51.21875 871.2969 51.21875Q869.5469 51.21875 868.3594 50.71875Q867.1875 50.203125 866.5156 49.1875Q865.84375 48.15625 865.8125 46.859375ZM878.2031 39.9375L878.2031 38.109375L879.78125 38.109375L879.78125 39.9375L878.2031 39.9375ZM878.2031 51.0L878.2031 41.671875L879.78125 41.671875L879.78125 51.0L878.2031 51.0ZM881.8906 51.78125L883.4375 52.0Q883.53125 52.71875 883.96875 53.046875Q884.5625 53.484375 885.5781 53.484375Q886.6719 53.484375 887.2656 53.03125Q887.875 52.59375 888.0781 51.8125Q888.2031 51.328125 888.2031 49.78125Q887.15625 51.0 885.6094 51.0Q883.6875 51.0 882.625 49.609375Q881.5781 48.21875 881.5781 46.28125Q881.5781 44.9375 882.0625 43.8125Q882.5469 42.6875 883.46875 42.078125Q884.3906 41.453125 885.625 41.453125Q887.28125 41.453125 888.34375 42.796875L888.34375 41.671875L889.8125 41.671875L889.8125 49.734375Q889.8125 51.921875 889.3594 52.828125Q888.9219 53.734375 887.9531 54.25Q887.0 54.78125 885.59375 54.78125Q883.9219 54.78125 882.8906 54.03125Q881.8594 53.28125 881.8906 51.78125ZM883.2031 46.171875Q883.2031 48.0 883.9375 48.84375Q884.6719 49.6875 885.7656 49.6875Q886.8594 49.6875 887.59375 48.859375Q888.3281 48.015625 888.3281 46.21875Q888.3281 44.5 887.5625 43.640625Q886.8125 42.765625 885.7344 42.765625Q884.6875 42.765625 883.9375 43.625Q883.2031 44.484375 883.2031 46.171875ZM891.875 44.71875Q891.875 41.515625 893.59375 39.703125Q895.3125 37.890625 898.0469 37.890625Q899.8281 37.890625 901.25 38.75Q902.6875 39.59375 903.4375 41.125Q904.1875 42.640625 904.1875 44.578125Q904.1875 46.53125 903.3906 48.078125Q902.6094 49.625 901.15625 50.421875Q899.7031 51.21875 898.03125 51.21875Q896.21875 51.21875 894.78125 50.34375Q893.34375 49.46875 892.6094 47.953125Q891.875 46.421875 891.875 44.71875ZM893.625 44.75Q893.625 47.078125 894.875 48.421875Q896.1406 49.765625 898.0156 49.765625Q899.9531 49.765625 901.1875 48.40625Q902.4375 47.046875 902.4375 44.5625Q902.4375 43.0 901.90625 41.828125Q901.375 40.640625 900.34375 40.0Q899.3281 39.359375 898.0469 39.359375Q896.2344 39.359375 894.9219 40.609375Q893.625 41.84375 893.625 44.75ZM906.1875 54.578125L906.1875 41.671875L907.625 41.671875L907.625 42.875Q908.1406 42.171875 908.78125 41.8125Q909.4219 41.453125 910.3281 41.453125Q911.53125 41.453125 912.4375 42.078125Q913.3594 42.6875 913.8281 43.8125Q914.2969 44.921875 914.2969 46.265625Q914.2969 47.6875 913.78125 48.84375Q913.2656 49.984375 912.28125 50.609375Q911.2969 51.21875 910.21875 51.21875Q909.4375 51.21875 908.7969 50.890625Q908.1719 50.546875 907.7656 50.03125L907.7656 54.578125L906.1875 54.578125ZM907.625 46.390625Q907.625 48.1875 908.34375 49.046875Q909.0781 49.90625 910.1094 49.90625Q911.1719 49.90625 911.9219 49.015625Q912.6719 48.125 912.6719 46.25Q912.6719 44.46875 911.9375 43.578125Q911.2031 42.6875 910.1875 42.6875Q909.1719 42.6875 908.3906 43.640625Q907.625 44.578125 907.625 46.390625ZM919.6406 49.578125L919.875 50.984375Q919.2031 51.125 918.6719 51.125Q917.8125 51.125 917.3281 50.859375Q916.8594 50.578125 916.6719 50.140625Q916.4844 49.6875 916.4844 48.265625L916.4844 42.890625L915.3125 42.890625L915.3125 41.671875L916.4844 41.671875L916.4844 39.359375L918.0469 38.40625L918.0469 41.671875L919.6406 41.671875L919.6406 42.890625L918.0469 42.890625L918.0469 48.359375Q918.0469 49.03125 918.125 49.234375Q918.21875 49.421875 918.40625 49.53125Q918.59375 49.640625 918.9531 49.640625Q919.2031 49.640625 919.6406 49.578125ZM926.3125 51.0L926.3125 38.109375L931.15625 38.109375Q932.625 38.109375 933.5156 38.5Q934.40625 38.890625 934.90625 39.703125Q935.4219 40.515625 935.4219 41.40625Q935.4219 42.234375 934.96875 42.96875Q934.53125 43.703125 933.625 44.140625Q934.7969 44.484375 935.4219 45.3125Q936.0469 46.140625 936.0469 47.265625Q936.0469 48.171875 935.65625 48.953125Q935.28125 49.71875 934.71875 50.140625Q934.15625 50.5625 933.3125 50.78125Q932.46875 51.0 931.2344 51.0L926.3125 51.0ZM928.03125 43.53125L930.8125 43.53125Q931.9375 43.53125 932.4375 43.375Q933.09375 43.1875 933.4219 42.75Q933.75 42.296875 933.75 41.609375Q933.75 40.96875 933.4375 40.484375Q933.125 40.0 932.5469 39.828125Q931.9844 39.640625 930.59375 39.640625L928.03125 39.640625L928.03125 43.53125ZM928.03125 49.484375L931.2344 49.484375Q932.0625 49.484375 932.3906 49.421875Q932.9844 49.3125 933.375 49.0625Q933.7656 48.8125 934.0156 48.34375Q934.28125 47.875 934.28125 47.265625Q934.28125 46.546875 933.90625 46.015625Q933.5469 45.484375 932.8906 45.265625Q932.2344 45.046875 931.0 45.046875L928.03125 45.046875L928.03125 49.484375ZM944.5781 48.0L946.21875 48.203125Q945.8281 49.625 944.78125 50.421875Q943.7344 51.21875 942.1094 51.21875Q940.0625 51.21875 938.8594 49.953125Q937.65625 48.6875 937.65625 46.40625Q937.65625 44.0625 938.8594 42.765625Q940.0781 41.453125 942.0156 41.453125Q943.8906 41.453125 945.0781 42.734375Q946.2656 44.0 946.2656 46.3125Q946.2656 46.453125 946.25 46.734375L939.2969 46.734375Q939.375 48.28125 940.15625 49.09375Q940.9531 49.90625 942.1094 49.90625Q942.9844 49.90625 943.59375 49.453125Q944.21875 49.0 944.5781 48.0ZM939.375 45.4375L944.59375 45.4375Q944.4844 44.265625 944.0 43.671875Q943.2344 42.75 942.03125 42.75Q940.9531 42.75 940.2031 43.484375Q939.46875 44.21875 939.375 45.4375ZM947.5469 48.21875L949.125 47.96875Q949.25 48.90625 949.84375 49.40625Q950.4531 49.90625 951.53125 49.90625Q952.625 49.90625 953.15625 49.46875Q953.6875 49.015625 953.6875 48.421875Q953.6875 47.890625 953.21875 47.578125Q952.8906 47.375 951.59375 47.046875Q949.8594 46.609375 949.1875 46.296875Q948.5156 45.96875 948.15625 45.40625Q947.8125 44.828125 947.8125 44.140625Q947.8125 43.515625 948.09375 42.984375Q948.3906 42.453125 948.875 42.109375Q949.25 41.828125 949.8906 41.640625Q950.53125 41.453125 951.25 41.453125Q952.3594 41.453125 953.1875 41.78125Q954.0156 42.09375 954.40625 42.640625Q954.8125 43.171875 954.9531 44.078125L953.40625 44.28125Q953.2969 43.5625 952.7969 43.15625Q952.2969 42.75 951.375 42.75Q950.28125 42.75 949.8125 43.109375Q949.34375 43.46875 949.34375 43.953125Q949.34375 44.265625 949.5469 44.515625Q949.7344 44.765625 950.1406 44.9375Q950.3906 45.015625 951.5469 45.34375Q953.21875 45.78125 953.875 46.078125Q954.5469 46.359375 954.9219 46.90625Q955.3125 47.453125 955.3125 48.25Q955.3125 49.046875 954.84375 49.75Q954.3906 50.453125 953.5156 50.84375Q952.6406 51.21875 951.5469 51.21875Q949.71875 51.21875 948.7656 50.46875Q947.8125 49.703125 947.5469 48.21875ZM960.6406 49.578125L960.875 50.984375Q960.2031 51.125 959.6719 51.125Q958.8125 51.125 958.3281 50.859375Q957.8594 50.578125 957.6719 50.140625Q957.4844 49.6875 957.4844 48.265625L957.4844 42.890625L956.3125 42.890625L956.3125 41.671875L957.4844 41.671875L957.4844 39.359375L959.0469 38.40625L959.0469 41.671875L960.6406 41.671875L960.6406 42.890625L959.0469 42.890625L959.0469 48.359375Q959.0469 49.03125 959.125 49.234375Q959.21875 49.421875 959.40625 49.53125Q959.59375 49.640625 959.9531 49.640625Q960.2031 49.640625 960.6406 49.578125ZM967.3125 51.0L967.3125 38.109375L969.03125 38.109375L969.03125 49.484375L975.375 49.484375L975.375 51.0L967.3125 51.0ZM983.28125 49.84375Q982.40625 50.59375 981.5781 50.90625Q980.7656 51.21875 979.84375 51.21875Q978.2969 51.21875 977.46875 50.46875Q976.65625 49.703125 976.65625 48.53125Q976.65625 47.859375 976.96875 47.296875Q977.28125 46.71875 977.78125 46.375Q978.28125 46.03125 978.9219 45.859375Q979.3906 45.734375 980.3281 45.625Q982.2344 45.390625 983.1406 45.078125Q983.15625 44.75 983.15625 44.65625Q983.15625 43.703125 982.7031 43.296875Q982.09375 42.765625 980.90625 42.765625Q979.78125 42.765625 979.25 43.15625Q978.71875 43.546875 978.46875 44.546875L976.9219 44.328125Q977.1406 43.328125 977.6094 42.71875Q978.09375 42.109375 979.0 41.78125Q979.9219 41.453125 981.1406 41.453125Q982.3281 41.453125 983.0781 41.734375Q983.8281 42.015625 984.1719 42.453125Q984.53125 42.875 984.6719 43.515625Q984.75 43.921875 984.75 44.984375L984.75 47.09375Q984.75 49.296875 984.84375 49.890625Q984.9531 50.46875 985.25 51.0L983.59375 51.0Q983.34375 50.5 983.28125 49.84375ZM983.1406 46.3125Q982.28125 46.671875 980.5625 46.90625Q979.59375 47.046875 979.1875 47.234375Q978.78125 47.40625 978.5625 47.75Q978.34375 48.078125 978.34375 48.5Q978.34375 49.125 978.8125 49.546875Q979.2969 49.96875 980.21875 49.96875Q981.1406 49.96875 981.84375 49.578125Q982.5625 49.171875 982.8906 48.484375Q983.1406 47.9375 983.1406 46.890625L983.1406 46.3125ZM990.6406 49.578125L990.875 50.984375Q990.2031 51.125 989.6719 51.125Q988.8125 51.125 988.3281 50.859375Q987.8594 50.578125 987.6719 50.140625Q987.4844 49.6875 987.4844 48.265625L987.4844 42.890625L986.3125 42.890625L986.3125 41.671875L987.4844 41.671875L987.4844 39.359375L989.0469 38.40625L989.0469 41.671875L990.6406 41.671875L990.6406 42.890625L989.0469 42.890625L989.0469 48.359375Q989.0469 49.03125 989.125 49.234375Q989.21875 49.421875 989.40625 49.53125Q989.59375 49.640625 989.9531 49.640625Q990.2031 49.640625 990.6406 49.578125ZM998.5781 48.0L1000.21875 48.203125Q999.8281 49.625 998.78125 50.421875Q997.7344 51.21875 996.1094 51.21875Q994.0625 51.21875 992.8594 49.953125Q991.65625 48.6875 991.65625 46.40625Q991.65625 44.0625 992.8594 42.765625Q994.0781 41.453125 996.0156 41.453125Q997.8906 41.453125 999.0781 42.734375Q1000.2656 44.0 1000.2656 46.3125Q1000.2656 46.453125 1000.25 46.734375L993.2969 46.734375Q993.375 48.28125 994.15625 49.09375Q994.9531 49.90625 996.1094 49.90625Q996.9844 49.90625 997.59375 49.453125Q998.21875 49.0 998.5781 48.0ZM993.375 45.4375L998.59375 45.4375Q998.4844 44.265625 998.0 43.671875Q997.2344 42.75 996.03125 42.75Q994.9531 42.75 994.2031 43.484375Q993.46875 44.21875 993.375 45.4375ZM1002.1875 51.0L1002.1875 41.671875L1003.6094 41.671875L1003.6094 43.0Q1004.6406 41.453125 1006.5781 41.453125Q1007.4219 41.453125 1008.125 41.765625Q1008.84375 42.0625 1009.1875 42.5625Q1009.5469 43.046875 1009.6875 43.71875Q1009.7656 44.15625 1009.7656 45.265625L1009.7656 51.0L1008.1875 51.0L1008.1875 45.328125Q1008.1875 44.359375 1008.0 43.875Q1007.8281 43.390625 1007.34375 43.109375Q1006.875 42.828125 1006.25 42.828125Q1005.2344 42.828125 1004.5 43.46875Q1003.7656 44.109375 1003.7656 45.90625L1003.7656 51.0L1002.1875 51.0ZM1018.28125 47.578125L1019.8281 47.78125Q1019.5781 49.390625 1018.53125 50.3125Q1017.4844 51.21875 1015.9531 51.21875Q1014.03125 51.21875 1012.8594 49.96875Q1011.7031 48.703125 1011.7031 46.375Q1011.7031 44.859375 1012.2031 43.734375Q1012.7031 42.59375 1013.71875 42.03125Q1014.75 41.453125 1015.9531 41.453125Q1017.4844 41.453125 1018.4375 42.234375Q1019.40625 43.0 1019.6875 44.40625L1018.1406 44.640625Q1017.9219 43.703125 1017.3594 43.234375Q1016.8125 42.75 1016.0156 42.75Q1014.8281 42.75 1014.0781 43.609375Q1013.3281 44.46875 1013.3281 46.328125Q1013.3281 48.203125 1014.0469 49.0625Q1014.7656 49.90625 1015.9375 49.90625Q1016.8594 49.90625 1017.4844 49.34375Q1018.1094 48.765625 1018.28125 47.578125ZM1021.1094 54.59375L1020.9375 53.109375Q1021.4531 53.25 1021.84375 53.25Q1022.375 53.25 1022.6875 53.078125Q1023.0 52.90625 1023.2031 52.578125Q1023.3594 52.34375 1023.6875 51.40625Q1023.7344 51.265625 1023.8281 51.015625L1020.2969 41.671875L1022.0 41.671875L1023.9375 47.078125Q1024.3125 48.09375 1024.6094 49.234375Q1024.8906 48.140625 1025.2656 47.109375L1027.2656 41.671875L1028.8438 41.671875L1025.2969 51.15625Q1024.7188 52.703125 1024.4062 53.28125Q1023.9844 54.0625 1023.4375 54.421875Q1022.8906 54.78125 1022.1406 54.78125Q1021.6719 54.78125 1021.1094 54.59375Z" fill-rule="nonzero"/></svg>