<?xml version="1.0" encoding="utf-8"?>
<svg width="1300" height="650" viewBox="0 0 1300 650" fill="none" xmlns="http://www.w3.org/2000/svg">
  <rect width="1300" height="648" fill="url(#paint0_linear_351_40)"/>
  <defs>
    <linearGradient id="paint0_linear_351_40" x1="0" y1="0" x2="517.441" y2="1038.08" gradientUnits="userSpaceOnUse">
      <stop stop-color="#FFDEAB"/>
      <stop offset="0.4621" stop-color="#DBA9DD"/>
      <stop offset="1" stop-color="#775DDC"/>
    </linearGradient>
  </defs>
  <g>
    <path fill="#fff" d="M 475.792 138.044 L 671.191 138.044 L 671.191 185.355 L 475.792 185.355 L 475.792 138.044 Z M 468.222 193.872 L 923.838 193.872 L 923.838 506.132 L 468.222 506.132 L 468.222 193.872 L 468.222 193.872 Z" style="stroke-width: 1;"/>
    <path d="M 922.892 178.732 L 712.352 178.732 L 643.75 111.549 L 453.555 111.549 L 453.555 510.864 C 453.555 519.379 460.179 526.003 468.694 526.003 L 922.892 526.003 C 931.407 526.003 938.032 519.379 938.032 510.864 L 938.032 193.872 C 938.032 185.355 931.407 178.732 922.892 178.732 L 922.892 178.732 Z M 483.836 141.829 L 631.449 141.829 L 669.298 179.205 L 483.836 179.205 L 483.836 141.829 Z M 907.752 495.724 L 483.836 495.724 L 483.836 209.012 L 907.752 209.012 L 907.752 495.724 Z" style="fill: rgb(60, 121, 10); stroke-width: 1;"/>
    <path d="M 678.293 237.997 C 688.072 237.997 696.055 245.975 696.055 255.759 C 696.055 265.54 688.072 273.53 678.293 273.53 C 668.505 273.53 660.527 265.54 660.527 255.759 C 660.527 245.975 668.505 237.997 678.293 237.997 M 624.505 350.026 L 661.768 325.186 C 663.489 317.91 670.633 285.582 684.972 278.103 C 699.164 268.701 751.514 307.278 751.817 307.59 L 751.817 363.844 L 740.459 361.873 L 736.015 316.97 C 731.745 316.102 727.469 315.246 723.198 314.389 C 732.539 338.548 735.975 361.832 730.592 377.163 L 753.293 469.938 L 737.989 480.783 L 704.942 394.928 L 689.639 411.213 L 668.421 475.85 L 648.188 468.451 L 666.444 400.356 L 687.666 362.368 L 679.533 334.318 L 670.891 345.589 L 630.423 358.918 L 624.505 350.026" style="stroke: none; fill-rule: evenodd; fill-opacity: 1; fill: rgb(60, 121, 10); stroke-width: 1;"/>
  </g>
</svg>